<svg height="420px" xmlns="http://www.w3.org/2000/svg" xmlns:xlink="http://www.w3.org/1999/xlink" viewBox="0 0 1625 1054.32"><defs><style>.cls-1,.cls-14,.cls-16,.cls-17,.cls-28,.cls-29,.cls-31,.cls-32,.cls-34,.cls-35,.cls-37,.cls-38,.cls-40,.cls-41,.cls-43,.cls-44,.cls-49,.cls-54,.cls-56{fill:none;}.cls-2{fill:url(#linear-gradient);}.cls-3{opacity:0.79;}.cls-4{fill:#2b58d6;}.cls-5{fill:#36d3a4;}.cls-6{fill:#2fcfa4;}.cls-7{fill:#2b58d1;}.cls-12,.cls-8{fill:#75efcc;}.cls-9{fill:#31a881;}.cls-10,.cls-53,.cls-55,.cls-59{fill:#fff;}.cls-10{opacity:0.2;}.cls-11{fill:#4f6ef7;}.cls-12{stroke:#75efcc;stroke-width:2.62px;}.cls-12,.cls-14,.cls-49,.cls-56{stroke-miterlimit:10;}.cls-13{clip-path:url(#clip-path);}.cls-14{stroke:#173888;stroke-width:2.2px;}.cls-15{fill:#ef476f;}.cls-16,.cls-17,.cls-54,.cls-56{stroke:#fff;}.cls-16,.cls-17,.cls-27,.cls-28,.cls-29,.cls-30,.cls-31,.cls-32,.cls-33,.cls-34,.cls-35,.cls-36,.cls-37,.cls-38,.cls-39,.cls-40,.cls-41,.cls-42,.cls-43,.cls-44,.cls-54{stroke-linecap:round;stroke-linejoin:round;}.cls-16{stroke-width:1.11px;stroke-dasharray:2.25 3.37;}.cls-17{stroke-width:1.65px;stroke-dasharray:3.28 4.91;}.cls-18,.cls-23,.cls-24,.cls-25{fill:#f6f7fc;}.cls-19{fill:url(#linear-gradient-2);}.cls-20{fill:url(#linear-gradient-3);}.cls-21{fill:url(#linear-gradient-4);}.cls-22{fill:url(#linear-gradient-5);}.cls-23{opacity:0.47;}.cls-24{opacity:0.29;}.cls-25{opacity:0.49;}.cls-26,.cls-47{fill:#ebedf8;}.cls-27,.cls-30,.cls-33,.cls-36,.cls-39,.cls-42,.cls-45{fill:#9ba3ae;}.cls-27,.cls-28,.cls-29,.cls-30,.cls-31,.cls-32,.cls-33,.cls-34,.cls-35,.cls-36,.cls-37,.cls-38,.cls-39,.cls-40,.cls-41,.cls-42,.cls-43,.cls-44{stroke:#2e353d;}.cls-27,.cls-29,.cls-49{stroke-width:2.69px;}.cls-28{stroke-width:1.35px;}.cls-30,.cls-32{stroke-width:1.49px;}.cls-31{stroke-width:0.74px;}.cls-33,.cls-35{stroke-width:1.77px;}.cls-34{stroke-width:0.89px;}.cls-36,.cls-38{stroke-width:1.01px;}.cls-37{stroke-width:0.5px;}.cls-39,.cls-41{stroke-width:3.22px;}.cls-40{stroke-width:1.61px;}.cls-42,.cls-44{stroke-width:2.68px;}.cls-43{stroke-width:1.34px;}.cls-46{fill:url(#linear-gradient-6);}.cls-47{opacity:0.6;}.cls-48{clip-path:url(#clip-path-2);}.cls-49{stroke:#2fcfa4;}.cls-50{clip-path:url(#clip-path-3);}.cls-51{fill:#0c204e;}.cls-52{clip-path:url(#clip-path-4);}.cls-53{opacity:0.12;}.cls-54{stroke-width:1.83px;}.cls-55{opacity:0.3;}.cls-56{stroke-width:1.22px;}.cls-57{fill:#434d5a;}.cls-58{fill:#173888;}.cls-59{fill-rule:evenodd;}</style><linearGradient id="linear-gradient" x1="803.44" y1="1123.55" x2="822.08" y2="-103.28" gradientUnits="userSpaceOnUse"><stop offset="0" stop-color="#879eef"/><stop offset="0.1" stop-color="#6d83cd"/><stop offset="0.23" stop-color="#4f65a6"/><stop offset="0.37" stop-color="#374c86"/><stop offset="0.51" stop-color="#24396d"/><stop offset="0.66" stop-color="#172b5c"/><stop offset="0.81" stop-color="#0f2351"/><stop offset="1" stop-color="#0c204e"/></linearGradient><clipPath id="clip-path"><ellipse class="cls-1" cx="574.72" cy="220.79" rx="42.73" ry="41.7"/></clipPath><linearGradient id="linear-gradient-2" x1="-592.98" y1="-3113.01" x2="-773.17" y2="-3027.08" gradientTransform="matrix(0.99, -0.03, -0.11, 0.54, 756.87, 1730)" gradientUnits="userSpaceOnUse"><stop offset="0" stop-color="#fff"/><stop offset="0.02" stop-color="#fff" stop-opacity="0.95"/><stop offset="0.14" stop-color="#fff" stop-opacity="0.73"/><stop offset="0.25" stop-color="#fff" stop-opacity="0.54"/><stop offset="0.37" stop-color="#fff" stop-opacity="0.37"/><stop offset="0.49" stop-color="#fff" stop-opacity="0.24"/><stop offset="0.61" stop-color="#fff" stop-opacity="0.13"/><stop offset="0.74" stop-color="#fff" stop-opacity="0.06"/><stop offset="0.86" stop-color="#fff" stop-opacity="0.01"/><stop offset="1" stop-color="#fff" stop-opacity="0"/></linearGradient><linearGradient id="linear-gradient-3" x1="-662.72" y1="-3032.68" x2="-762.22" y2="-2985.23" xlink:href="#linear-gradient-2"/><linearGradient id="linear-gradient-4" x1="-1383.23" y1="-1298.89" x2="-1564.23" y2="-1212.58" gradientTransform="matrix(0.93, 0.32, -0.29, 0.46, 2135.94, 1312.31)" xlink:href="#linear-gradient-2"/><linearGradient id="linear-gradient-5" x1="-1453.11" y1="-1217.5" x2="-1553.07" y2="-1169.84" gradientTransform="matrix(0.93, 0.32, -0.29, 0.46, 2135.94, 1312.31)" xlink:href="#linear-gradient-2"/><linearGradient id="linear-gradient-6" x1="99.3" y1="2143.77" x2="321.68" y2="2374.62" gradientTransform="translate(1650.31 -1257.75) rotate(28.66)" gradientUnits="userSpaceOnUse"><stop offset="0" stop-color="#ebedf8"/><stop offset="0.25" stop-color="#ced3de"/><stop offset="0.54" stop-color="#b2b9c4"/><stop offset="0.81" stop-color="#a1a9b4"/><stop offset="1" stop-color="#9ba3ae"/></linearGradient><clipPath id="clip-path-2"><path class="cls-1" d="M723.74,847.15l-.07.07c-2.19,2.54-1.5,12.27-2.58,15.72C715.73,880,708.66,897,699.27,912.28c-3.65,5.93-6.29,12.57-13,15.47-5.13,2.21-14.62,3.49-18.33-2-3.46-5.07-1.12-21.68-1.3-27.66-.42-13.77-1.18-27.56-3.51-41.15-2.73-15.91-7.62-31.18-7.43-47.5v-.31s29.27,2.37,44.07,10.44S723.74,847.15,723.74,847.15Z"/></clipPath><clipPath id="clip-path-3"><path class="cls-1" d="M781.82,806.07s8.73,6.86,13.54,9.49c10.25,5.6,23.42,14.93,29,25.4a32.41,32.41,0,0,1,3.17,8.75c2.43,11.59-.54,24.72-4.7,35.6-1.14,3-6,18.08-9.54,19.12-7.43,2.18-18.07,2.6-18.07,2.6-2.1-18.93-.33-37.38-19.7-47.31-7-3.57-14.3-6.16-21.09-10.05-1.54-.89-13.26-8.53-12.38-9.06Z"/></clipPath><clipPath id="clip-path-4"><path id="SVGID" class="cls-1" d="M695,652.55s6.53-15.69,27.78-22.67,34.33-5.23,34.33-5.23,11.44,0,16.34,15.69,4.9,27.9,0,40.1-13.07,17.43-16.34,19.18a55.33,55.33,0,0,1-26.16,7c-13.07,0-19.61-3.49-24.51-10.46S695,673.47,695,652.55Z"/></clipPath></defs><title>Asset 56@200x</title><g id="Layer_2" data-name="Layer 2"><g id="Layer_1-2" data-name="Layer 1"><rect class="cls-2" width="1625" height="1054.32"/><g class="cls-3"><polygon class="cls-1" points="1052.88 168.95 1083.35 150.48 1072.83 133.96 1042.36 152.43 1052.88 168.95"/><rect class="cls-4" x="1067.33" y="131.46" width="50.15" height="2.63" transform="translate(89.46 585.64) rotate(-31.23)"/><path class="cls-5" d="M1109.17,132.07a2.43,2.43,0,0,0,3.29.75l26.41-16a2.29,2.29,0,0,0,.77-3.21l-8-12.55a2.43,2.43,0,0,0-3.29-.76l-26.41,16a2.31,2.31,0,0,0-.77,3.22Z"/><path class="cls-6" d="M1052.74,166.28a2.44,2.44,0,0,0,3.3.75l26.4-16a2.29,2.29,0,0,0,.77-3.21l-8-12.56a2.44,2.44,0,0,0-3.29-.75l-26.41,16a2.32,2.32,0,0,0-.77,3.22Z"/><polygon class="cls-7" points="1064.09 85.83 1060.71 87.88 1076.66 112.95 1073.28 115 1078.35 122.98 1087.38 117.5 1082.31 109.53 1080.05 110.89 1064.09 85.83"/><path class="cls-8" d="M1088.26,86.44,1051.11,109s-.86,1.48.22,2.36c4.17,3.41,15.71,10.87,29.16,2.72,14.1-8.55,10.73-22.39,9.21-26.78C1089.39,86.4,1088.26,86.44,1088.26,86.44Z"/><path class="cls-9" d="M1109,144.09l4.9,7.71s2.11,3.3-1.28,5.35l-7.9,4.79s-3.38,2.05-5.49-1.25l-4.91-7.71Z"/><polygon class="cls-5" points="1096.26 116.7 1074.81 129.7 1074.69 122.14 1088.24 113.93 1096.26 116.7"/><path class="cls-6" d="M1059.58,90.09l7-4.26a.49.49,0,0,0,.16-.69l-1.56-2.46a.54.54,0,0,0-.71-.16l-7,4.27a.48.48,0,0,0-.16.68l1.56,2.46A.53.53,0,0,0,1059.58,90.09Z"/><path class="cls-5" d="M1068.85,98.21,1051.11,109s-.85,1.47.22,2.36c15.19,12.71,28,3.4,28,3.4Z"/><path class="cls-10" d="M1108.79,159.48l-4.07,2.46s-3.38,2.05-5.49-1.25l-4.91-7.71,7.45-4.52Z"/><path class="cls-11" d="M1096.26,116.7,1112,141.43a1.93,1.93,0,0,1-.61,2.73l-17.74,10.76s-2.05,1.16-3.08-.47l-15.76-24.75Z"/><path class="cls-10" d="M1086.1,122.86l-11.29,6.84s14.64,23.18,15.76,24.75a2,2,0,0,0,.61.61,2.22,2.22,0,0,0,2.07.07c.37-.18.71-.44,1.07-.66l1.17-.7c3.87-2.34,7-4.23,7-4.23Z"/><line class="cls-12" x1="1078.87" y1="140.98" x2="1048.4" y2="159.46"/><line class="cls-12" x1="1066.31" y1="137.91" x2="1076.83" y2="154.43"/><line class="cls-12" x1="1058.72" y1="142.51" x2="1069.24" y2="159.03"/><line class="cls-12" x1="1051.09" y1="147.14" x2="1061.61" y2="163.66"/><line class="cls-12" x1="1135.29" y1="106.77" x2="1104.82" y2="125.25"/><line class="cls-12" x1="1122.74" y1="103.7" x2="1133.26" y2="120.22"/><line class="cls-12" x1="1115.15" y1="108.3" x2="1125.67" y2="124.82"/><line class="cls-12" x1="1107.52" y1="112.93" x2="1118.03" y2="129.45"/></g><ellipse class="cls-11" cx="574.72" cy="220.79" rx="42.73" ry="41.7"/><g class="cls-13"><path class="cls-10" d="M562.08,179.09s9.95,8.13,12.64,9.7,8.86,2.89,15.31-.52,7.8-7.35,7.8-7.35l-25-5.24Z"/><path class="cls-10" d="M540.85,191.42s5.38.52,8.06,1,11.56,3.15,15.86,4.73,15.05,2.36,20.16,1,13.17-8.13,15.32-9.18,9.4-2.36,9.4-2.36l1.08,6-5.38,1.57s-6.71,1.84-8.6,3.67-3.76,3.94-3.76,5.77,3,1.84,5.38,1.84,13.11-1.48,16.37-1.14,5.13,6.65,5.13,6.65l-3.33,1.1s-3.93-2.15-10.11-.84-10.75,3.67-15.32,4.72-11.83,0-15.05-1-9.68-6-12.1-7.61-8.6-6.81-14.24-6.55-16.39,2.62-16.39,2.62Z"/><path class="cls-10" d="M528,215.55l4,.95a57.62,57.62,0,0,1,9.68-.95c4.84,0,14,1.83,18,3.93s14.52,6.29,19.36,6.82,16.66,1,26.87-1.57A107,107,0,0,0,622.82,219l-3,9.44a43.33,43.33,0,0,1-16.67,6.29c-9.4,1.31-24.18.53-24.18.53s-7,.52-7.53,4.19,1.61,6.56,4.57,8.4,26.07,7.87,26.07,7.87l-12.9,8.65s-7.53-5-12.63-6.56-12.37-5.5-13.44-8.91.27-10.76-8.6-17.31-16.67-6.3-20.43-5.25-10.75,2.62-10.75,2.62Z"/><path class="cls-10" d="M616.93,235.53c-.17.42-2.93.94-3.42,1.09-1.29.38-2.58.74-3.89,1.07-2.41.62-4.85,1.14-7.3,1.63-2.72.54-5.45,1-8.19,1.42-1.37.19-2.75.38-4.12.54a14.73,14.73,0,0,0-3.66.44,1.81,1.81,0,0,0-1.14,2.16c.43,1.44,2.45,2.05,3.75,2.35,5.64,1.31,21.23,6.3,21.23,6.3C612.43,246.86,614.64,241.18,616.93,235.53Z"/></g><ellipse class="cls-14" cx="1456.31" cy="291.11" rx="126.81" ry="13.86" transform="translate(-27.33 357.39) rotate(-13.86)"/><ellipse class="cls-6" cx="1364.24" cy="322.76" rx="8.27" ry="8.07"/><ellipse class="cls-15" cx="1559.26" cy="275.46" rx="5.91" ry="5.77"/><ellipse class="cls-11" cx="1437.52" cy="281.23" rx="17.73" ry="17.3"/><ellipse class="cls-15" cx="153.96" cy="166.3" rx="20.86" ry="18.16"/><ellipse class="cls-16" cx="155.59" cy="166.76" rx="40.65" ry="32.51" transform="translate(-34.8 41.19) rotate(-13.58)"/><ellipse class="cls-17" cx="156.01" cy="166.9" rx="62.44" ry="46.45" transform="translate(-35.65 42.56) rotate(-13.96)"/><path class="cls-18" d="M79,306.36a12.31,12.31,0,0,0,7.27-6.5s1,4.21,6.63,6.5c0,0-5.6,3.44-6.63,7.07a12.69,12.69,0,0,0-3-4.61A12.28,12.28,0,0,0,79,306.36"/><path class="cls-18" d="M303.33,290.09a6.17,6.17,0,0,0,3.64-3.25,5.31,5.31,0,0,0,3.31,3.25s-2.8,1.72-3.31,3.53a6.35,6.35,0,0,0-1.5-2.3,5.88,5.88,0,0,0-2.14-1.23"/><path class="cls-18" d="M394.22,226.26a6.14,6.14,0,0,0,3.63-3.24,5.32,5.32,0,0,0,3.32,3.24s-2.8,1.72-3.32,3.54a6.35,6.35,0,0,0-1.5-2.31,6.26,6.26,0,0,0-2.13-1.23"/><path class="cls-18" d="M822.33,33.92c3.94,3.62,9.39,2.9,9.39,2.9s-3.22,3-2.46,8.86c0,0-5.85-3-9.59-2.09a12.55,12.55,0,0,0,2.6-4.83,11.68,11.68,0,0,0,.06-4.84"/><path class="cls-18" d="M668.62,50.88a6.3,6.3,0,0,0,4.7,1.45,5.22,5.22,0,0,0-1.23,4.43s-2.93-1.51-4.8-1a6.31,6.31,0,0,0,1.3-2.42,5.75,5.75,0,0,0,0-2.42"/><path class="cls-18" d="M866.84,78.35a6.33,6.33,0,0,0,4.69,1.45,5.19,5.19,0,0,0-1.23,4.42s-2.92-1.51-4.79-1a6.31,6.31,0,0,0,1.3-2.42,5.88,5.88,0,0,0,0-2.41"/><path class="cls-19" d="M488.59,94.93l0,0c-74.4,7.23-125.76,32.71-127.41,33.36C425.52,95.91,485.4,90.76,487,90.56c4-.49,7.34.13,7.5,1.37S492.07,94.35,488.59,94.93Z"/><path class="cls-20" d="M423.44,134.55h0c-41.09,4-69.45,18.07-70.36,18.43a210.5,210.5,0,0,1,69.47-20.85c2.2-.27,4.06.07,4.14.76S425.36,134.23,423.44,134.55Z"/><path class="cls-21" d="M1192.76,270.54l0,0c-72.21-19-129.48-12.88-131.26-12.84,71.88-8.08,129.75,7.8,131.34,8.18,3.9.91,6.82,2.65,6.52,3.87S1196.22,271.2,1192.76,270.54Z"/><path class="cls-22" d="M1117.45,285.08l0,0C1077.59,274.63,1046,278,1045,278a211.87,211.87,0,0,1,72.53,4.51c2.15.51,3.77,1.47,3.6,2.14S1119.36,285.44,1117.45,285.08Z"/><path class="cls-18" d="M690.64,156c3.94,3.62,9.39,2.9,9.39,2.9s-3.21,3-2.45,8.85c0,0-5.85-3-9.59-2.08a12.84,12.84,0,0,0,2.6-4.83,11.82,11.82,0,0,0,0-4.84"/><path class="cls-18" d="M405.89,53.25a6.31,6.31,0,0,0,4.7,1.45,5.22,5.22,0,0,0-1.23,4.43s-2.92-1.51-4.79-1a6.62,6.62,0,0,0,1.3-2.42,5.89,5.89,0,0,0,0-2.42"/><ellipse class="cls-6" cx="51.3" cy="186.85" rx="2.71" ry="2.65"/><ellipse class="cls-6" cx="636.23" cy="316.13" rx="2.71" ry="2.65"/><ellipse class="cls-6" cx="649.24" cy="224.34" rx="2.26" ry="2.21"/><ellipse class="cls-15" cx="270.22" cy="77.75" rx="2.71" ry="2.65"/><path class="cls-18" d="M571.8,114.23a6.14,6.14,0,0,0,3.63-3.25,5.31,5.31,0,0,0,3.32,3.25s-2.81,1.72-3.32,3.54a6.35,6.35,0,0,0-1.5-2.31,6.26,6.26,0,0,0-2.13-1.23"/><path class="cls-23" d="M168.18,453.3c3.94,3.62,9.39,2.9,9.39,2.9s-3.21,3-2.45,8.85c0,0-5.85-3-9.6-2.08a12.55,12.55,0,0,0,2.6-4.83,11.68,11.68,0,0,0,.06-4.84"/><path class="cls-24" d="M600,499.56a6.33,6.33,0,0,0,4.69,1.45,5.2,5.2,0,0,0-1.22,4.42s-2.93-1.51-4.8-1A6.31,6.31,0,0,0,600,502a5.71,5.71,0,0,0,0-2.41"/><path class="cls-25" d="M301.24,418.88a6.33,6.33,0,0,0,4.69,1.45,5.19,5.19,0,0,0-1.23,4.42s-2.92-1.51-4.79-1a6.31,6.31,0,0,0,1.3-2.42,6.07,6.07,0,0,0,0-2.41"/><path class="cls-23" d="M452,425.07c3.94,3.62,9.39,2.9,9.39,2.9s-3.22,3-2.46,8.86c0,0-5.85-3-9.59-2.09a12.55,12.55,0,0,0,2.6-4.83,11.68,11.68,0,0,0,.06-4.84"/><path class="cls-23" d="M806.34,459.47c3.95,3.63,9.39,2.9,9.39,2.9s-3.21,3-2.45,8.86c0,0-5.85-3-9.59-2.09a12.84,12.84,0,0,0,2.6-4.83,11.82,11.82,0,0,0,.05-4.84"/><path class="cls-24" d="M409.66,337.93a6.33,6.33,0,0,0,4.69,1.45,5.23,5.23,0,0,0-1.22,4.43s-2.93-1.51-4.8-1a6.31,6.31,0,0,0,1.3-2.42,5.93,5.93,0,0,0,0-2.42"/><path class="cls-24" d="M692.33,370.58A6.36,6.36,0,0,0,697,372a5.22,5.22,0,0,0-1.23,4.43s-2.92-1.51-4.79-1a6.31,6.31,0,0,0,1.3-2.42,5.89,5.89,0,0,0,0-2.42"/><path class="cls-24" d="M915.69,474.92a6.33,6.33,0,0,0,4.69,1.45,5.2,5.2,0,0,0-1.22,4.42s-2.93-1.51-4.8-1a6.31,6.31,0,0,0,1.3-2.42,5.71,5.71,0,0,0,0-2.41"/><path class="cls-24" d="M223.51,557.66a6.36,6.36,0,0,0,4.7,1.45,5.19,5.19,0,0,0-1.23,4.42s-2.92-1.51-4.79-1a6.31,6.31,0,0,0,1.3-2.42,5.84,5.84,0,0,0,0-2.41"/><path class="cls-18" d="M1195.09,147a6.14,6.14,0,0,0,3.63-3.24A5.32,5.32,0,0,0,1202,147s-2.8,1.72-3.32,3.54a6.35,6.35,0,0,0-1.5-2.31,6.26,6.26,0,0,0-2.13-1.23"/><path class="cls-18" d="M1244.93,57.22a6.14,6.14,0,0,0,3.63-3.25,5.32,5.32,0,0,0,3.32,3.25s-2.8,1.72-3.32,3.54a6.35,6.35,0,0,0-1.5-2.31,6.26,6.26,0,0,0-2.13-1.23"/><ellipse class="cls-6" cx="1540.06" cy="95.24" rx="2.71" ry="2.65"/><path class="cls-24" d="M1455.52,156.14a6.36,6.36,0,0,0,4.7,1.45A5.22,5.22,0,0,0,1459,162s-2.92-1.51-4.79-1.05a6.23,6.23,0,0,0,1.3-2.41,5.89,5.89,0,0,0,0-2.42"/><path class="cls-23" d="M1510.37,329.08c3.94,3.62,9.39,2.9,9.39,2.9s-3.21,3-2.46,8.85c0,0-5.84-3-9.59-2.08a12.63,12.63,0,0,0,2.6-4.84,11.63,11.63,0,0,0,.06-4.83"/><path class="cls-24" d="M1559.94,199.18a6.36,6.36,0,0,0,4.7,1.45,5.22,5.22,0,0,0-1.23,4.43s-2.92-1.51-4.79-1a6.46,6.46,0,0,0,1.3-2.42,5.89,5.89,0,0,0,0-2.42"/><path class="cls-24" d="M917.62,207.19a6.33,6.33,0,0,0,4.69,1.45,5.23,5.23,0,0,0-1.22,4.43s-2.93-1.51-4.8-1a6.31,6.31,0,0,0,1.3-2.42,5.93,5.93,0,0,0,0-2.42"/><path class="cls-24" d="M848,158.68a6.33,6.33,0,0,0,4.69,1.45,5.19,5.19,0,0,0-1.23,4.42s-2.92-1.51-4.79-1a6.31,6.31,0,0,0,1.3-2.42,5.88,5.88,0,0,0,0-2.41"/><path class="cls-24" d="M1523.1,480.67a6.35,6.35,0,0,0,4.7,1.45,5.22,5.22,0,0,0-1.23,4.43s-2.93-1.51-4.8-1.05a6.23,6.23,0,0,0,1.3-2.41,5.75,5.75,0,0,0,0-2.42"/><path class="cls-24" d="M1453.5,432.15a6.35,6.35,0,0,0,4.7,1.45A5.22,5.22,0,0,0,1457,438s-2.93-1.51-4.8-1a6.31,6.31,0,0,0,1.3-2.42,5.75,5.75,0,0,0,0-2.42"/><path class="cls-18" d="M1370.21,213.24a6.14,6.14,0,0,0,3.63-3.25,5.35,5.35,0,0,0,3.32,3.25s-2.8,1.72-3.32,3.53a6.43,6.43,0,0,0-1.5-2.3,6.09,6.09,0,0,0-2.13-1.23"/><path class="cls-25" d="M141.18,31a6.28,6.28,0,0,0,4.69,1.45,5.23,5.23,0,0,0-1.22,4.43s-2.93-1.51-4.8-1a6.31,6.31,0,0,0,1.3-2.42,5.75,5.75,0,0,0,0-2.42"/><path class="cls-18" d="M1407.71,91.54a6,6,0,0,0,1.57-4.56,5.5,5.5,0,0,0,4.52,1.28s-1.6,2.83-1.16,4.66a5.73,5.73,0,0,0-4.93-1.38"/><path class="cls-24" d="M1518.82,25.68a6.3,6.3,0,0,0,4.83-.95,5.2,5.2,0,0,0,1.12,4.46s-3.31.06-4.71,1.35a6.28,6.28,0,0,0-.06-2.73,6,6,0,0,0-1.18-2.13"/><ellipse class="cls-6" cx="1315.94" cy="162.12" rx="2.71" ry="2.65"/><ellipse class="cls-15" cx="1283.75" cy="291.02" rx="2.71" ry="2.65"/><path class="cls-24" d="M1132.31,34.25a6.36,6.36,0,0,0,4.7,1.45,5.22,5.22,0,0,0-1.23,4.43s-2.92-1.51-4.79-1.05a6.38,6.38,0,0,0,1.3-2.41,5.89,5.89,0,0,0,0-2.42"/><path class="cls-24" d="M1225,502.11a6.31,6.31,0,0,0,4.7,1.45,5.22,5.22,0,0,0-1.23,4.43s-2.92-1.51-4.79-1a6.46,6.46,0,0,0,1.3-2.42,5.89,5.89,0,0,0,0-2.42"/><path class="cls-24" d="M1040.35,533.6a6.36,6.36,0,0,0,4.7,1.45,5.19,5.19,0,0,0-1.23,4.42s-2.92-1.51-4.79-1a6.62,6.62,0,0,0,1.3-2.42,5.84,5.84,0,0,0,0-2.41"/><path class="cls-24" d="M1166.67,391a6.35,6.35,0,0,0,4.7,1.45,5.22,5.22,0,0,0-1.23,4.43s-2.93-1.51-4.8-1a6.31,6.31,0,0,0,1.3-2.42,5.75,5.75,0,0,0,0-2.42"/><path class="cls-24" d="M1339.65,585.75a6.33,6.33,0,0,0,4.69,1.45,5.23,5.23,0,0,0-1.22,4.43s-2.93-1.51-4.8-1a6.31,6.31,0,0,0,1.3-2.42,5.93,5.93,0,0,0,0-2.42"/><path class="cls-24" d="M55.82,529.82a6.35,6.35,0,0,0,4.7,1.45,5.22,5.22,0,0,0-1.23,4.43s-2.93-1.51-4.8-1.05a6.14,6.14,0,0,0,1.3-2.41,5.75,5.75,0,0,0,0-2.42"/><path class="cls-18" d="M821.48,271.13c3.94,3.62,9.39,2.9,9.39,2.9s-3.22,3-2.46,8.86c0,0-5.85-3-9.59-2.09a12.55,12.55,0,0,0,2.6-4.83,11.68,11.68,0,0,0,.06-4.84"/><ellipse class="cls-6" cx="963.58" cy="299.39" rx="2.26" ry="2.21"/><path class="cls-24" d="M989.91,419.62a6.33,6.33,0,0,0,4.69,1.45,5.19,5.19,0,0,0-1.23,4.42s-2.92-1.51-4.79-1a6.23,6.23,0,0,0,1.3-2.41,5.93,5.93,0,0,0,0-2.42"/><path class="cls-24" d="M979.35,111.84a6.35,6.35,0,0,0,4.7,1.45,5.22,5.22,0,0,0-1.23,4.43s-2.93-1.51-4.8-1a6.23,6.23,0,0,0,1.3-2.41,5.75,5.75,0,0,0,0-2.42"/><path class="cls-26" d="M0,1054.32H1625v-131s-449-101-834.18-101C483.06,822.31,0,909.89,0,909.89Z"/><path class="cls-27" d="M863.23,900c12.11,0,33.63,0,20.18,10.77s-41.7-4-41.7-4"/><line class="cls-28" x1="857.18" y1="910.08" x2="885.43" y2="910.08"/><line class="cls-28" x1="854.49" y1="904.7" x2="886.77" y2="904.7"/><line class="cls-28" x1="865.92" y1="902.68" x2="886.22" y2="902.68"/><line class="cls-28" x1="853.14" y1="907.39" x2="885.43" y2="907.39"/><line class="cls-28" x1="866.6" y1="912.8" x2="880.72" y2="912.8"/><path class="cls-28" d="M844.16,893.24s21.15-5,36.72,0"/><path class="cls-29" d="M833.64,896s-24.22,10.76,0,17.49"/><path class="cls-29" d="M898.21,904s1.34,5.38-2.69,8.07"/><path class="cls-29" d="M852.47,921.52s18.83,2.69,28.25,0"/><path class="cls-30" d="M1211.29,872.85c6.68,0,18.56,0,11.13,5.94s-23-2.23-23-2.23"/><line class="cls-31" x1="1207.94" y1="878.42" x2="1223.54" y2="878.42"/><line class="cls-31" x1="1206.46" y1="875.45" x2="1224.28" y2="875.45"/><line class="cls-31" x1="1212.77" y1="874.34" x2="1223.98" y2="874.34"/><line class="cls-31" x1="1205.72" y1="876.93" x2="1223.54" y2="876.93"/><line class="cls-31" x1="1213.14" y1="879.92" x2="1220.94" y2="879.92"/><path class="cls-31" d="M1200.76,869.12s11.67-2.76,20.27,0"/><path class="cls-32" d="M1195,870.62s-13.37,5.94,0,9.66"/><path class="cls-32" d="M1230.59,875.08s.74,3-1.48,4.45"/><path class="cls-32" d="M1205.34,884.73s10.4,1.49,15.6,0"/><path class="cls-27" d="M1055.83,967.6c12.11,0,33.63,0,20.18,10.76s-41.7-4-41.7-4"/><line class="cls-28" x1="1049.78" y1="977.69" x2="1078.03" y2="977.69"/><line class="cls-28" x1="1047.09" y1="972.31" x2="1079.37" y2="972.31"/><line class="cls-28" x1="1058.52" y1="970.29" x2="1078.82" y2="970.29"/><line class="cls-28" x1="1045.74" y1="975" x2="1078.03" y2="975"/><line class="cls-28" x1="1059.19" y1="980.41" x2="1073.32" y2="980.41"/><path class="cls-28" d="M1036.76,960.85s21.15-5,36.71,0"/><path class="cls-29" d="M1026.23,963.57s-24.21,10.76,0,17.48"/><path class="cls-29" d="M1090.81,971.64s1.34,5.38-2.69,8.07"/><path class="cls-29" d="M1045.07,989.13s18.83,2.69,28.25,0"/><path class="cls-33" d="M519.09,879.46c8,0,22.16,0,13.3,7.09s-27.48-2.66-27.48-2.66"/><line class="cls-34" x1="515.1" y1="886.11" x2="533.72" y2="886.11"/><line class="cls-34" x1="513.33" y1="882.56" x2="534.6" y2="882.56"/><line class="cls-34" x1="520.87" y1="881.23" x2="534.24" y2="881.23"/><line class="cls-34" x1="512.45" y1="884.33" x2="533.72" y2="884.33"/><line class="cls-34" x1="521.31" y1="887.9" x2="530.61" y2="887.9"/><path class="cls-34" d="M506.53,875s13.93-3.29,24.19,0"/><path class="cls-35" d="M499.59,876.8s-15.95,7.09,0,11.52"/><path class="cls-35" d="M542.14,882.12s.88,3.54-1.78,5.32"/><path class="cls-35" d="M512,893.64s12.41,1.77,18.61,0"/><path class="cls-27" d="M362.86,975.36c12.11,0,33.63,0,20.18,10.77s-41.7-4-41.7-4"/><line class="cls-28" x1="356.81" y1="985.45" x2="385.06" y2="985.45"/><line class="cls-28" x1="354.12" y1="980.07" x2="386.4" y2="980.07"/><line class="cls-28" x1="365.55" y1="978.05" x2="385.85" y2="978.05"/><line class="cls-28" x1="352.77" y1="982.76" x2="385.06" y2="982.76"/><line class="cls-28" x1="366.22" y1="988.17" x2="380.35" y2="988.17"/><path class="cls-28" d="M343.79,968.61s21.15-5,36.72,0"/><path class="cls-29" d="M333.27,971.33s-24.22,10.76,0,17.49"/><path class="cls-29" d="M397.84,979.4s1.34,5.38-2.69,8.07"/><path class="cls-29" d="M352.1,996.89s18.83,2.69,28.25,0"/><path class="cls-36" d="M952.55,844.34c4.53,0,12.58,0,7.55,4s-15.6-1.51-15.6-1.51"/><line class="cls-37" x1="950.29" y1="848.11" x2="960.85" y2="848.11"/><line class="cls-37" x1="949.28" y1="846.1" x2="961.35" y2="846.1"/><line class="cls-37" x1="953.56" y1="845.34" x2="961.15" y2="845.34"/><line class="cls-37" x1="948.78" y1="847.1" x2="960.85" y2="847.1"/><line class="cls-37" x1="953.81" y1="849.13" x2="959.09" y2="849.13"/><path class="cls-37" d="M945.42,841.81s7.91-1.87,13.73,0"/><path class="cls-38" d="M941.48,842.83s-9.05,4,0,6.54"/><path class="cls-38" d="M965.63,845.85a2.93,2.93,0,0,1-1,3"/><path class="cls-38" d="M948.53,852.39s7,1,10.56,0"/><path class="cls-39" d="M1501.88,1000.72c14.49,0,40.25,0,24.15,12.88s-49.92-4.83-49.92-4.83"/><line class="cls-40" x1="1494.63" y1="1012.8" x2="1528.45" y2="1012.8"/><line class="cls-40" x1="1491.41" y1="1006.36" x2="1530.06" y2="1006.36"/><line class="cls-40" x1="1505.1" y1="1003.94" x2="1529.4" y2="1003.94"/><line class="cls-40" x1="1489.8" y1="1009.58" x2="1528.45" y2="1009.58"/><line class="cls-40" x1="1505.9" y1="1016.06" x2="1522.81" y2="1016.06"/><path class="cls-40" d="M1479.05,992.64s25.31-6,44,.05"/><path class="cls-41" d="M1466.45,995.89s-29,12.88,0,20.93"/><path class="cls-41" d="M1543.74,1005.55s1.61,6.44-3.22,9.66"/><path class="cls-41" d="M1489,1026.49s22.55,3.22,33.82,0"/><path class="cls-42" d="M65.9,941.88c12.07,0,33.54,0,20.12,10.73s-41.59-4-41.59-4"/><line class="cls-43" x1="59.86" y1="951.94" x2="88.04" y2="951.94"/><line class="cls-43" x1="57.17" y1="946.58" x2="89.38" y2="946.58"/><line class="cls-43" x1="68.58" y1="944.56" x2="88.83" y2="944.56"/><line class="cls-43" x1="55.83" y1="949.26" x2="88.04" y2="949.26"/><line class="cls-43" x1="69.25" y1="954.66" x2="83.34" y2="954.66"/><path class="cls-43" d="M46.87,935.15s21.1-5,36.63,0"/><path class="cls-44" d="M36.37,937.85s-24.15,10.74,0,17.45"/><path class="cls-44" d="M100.79,945.91s1.34,5.36-2.69,8.05"/><path class="cls-44" d="M55.16,963.35s18.79,2.68,28.18,0"/><path class="cls-45" d="M814.45,896.88l-1,18.52s12.57-.32,14.22.68,7.19,3.79-7,8.74-21.42-4.48-22.4-8.45-3.62-20.18-3.62-20.18Z"/><path class="cls-45" d="M600.62,805.63s-9,10.85-8.07,20.78,9.43,15.13,13.6,8.33.76-8.88.76-8.88,1.32,5.48,3,6.52,3.78-2.35,3.12-5.09-6.41-8.61-3.28-13.71S600.62,805.63,600.62,805.63Z"/><path class="cls-45" d="M690.24,915.93l-2.5,20.37s13.9.59,15.65,1.81,7.65,4.72-8.42,9.12-23.3-6.53-24.1-11-2.49-22.54-2.49-22.54Z"/><path class="cls-46" d="M691.45,708.83l-27.09,3.91s-18.94,4.21-31.63,16-24.06,32.61-24.06,32.61-12.2,36.67-12.49,44.83,12.1,6.73,12.1,6.73A88.6,88.6,0,0,0,619,804.83c4.23-3.93,16.55-20.45,16.55-20.45l13.71-17.47s5.11-5.53,6.71-4.65.13,18.79.13,18.79l-.45,28.13c-.26,16.44,4.68,31.8,7.43,47.81,2.33,13.59,3.09,27.38,3.51,41.15.18,6-2.16,22.59,1.3,27.66,3.71,5.44,13.2,4.16,18.33,2,6.72-2.9,9.36-9.54,13-15.47,9.39-15.26,16.46-32.28,21.82-49.34,1.09-3.49.38-13.39,2.65-15.79,1.06-1.13,2.75-1.31,4.27-1.53a37.55,37.55,0,0,0,14.09-5c-.88.53,10.84,8.17,12.38,9.06,6.79,3.89,14.13,6.48,21.09,10.05,19.37,9.93,17.6,28.38,19.7,47.31,0,0,10.64-.42,18.07-2.6,3.54-1,8.4-16.13,9.54-19.12,4.16-10.88,7.13-24,4.7-35.6a32.41,32.41,0,0,0-3.17-8.75c-5.63-10.47-18.8-19.8-29-25.4-4.81-2.63-13.54-9.49-13.54-9.49s2.5-23.59,2.8-31.75-2.46-22.14-2.46-22.14,21.85,5.7,39,4.7,28.84-7.11,38.18-16.57a42.37,42.37,0,0,0,11.23-20.23s6-7.22-9.42-9.42a63.85,63.85,0,0,1-14,6.33c-7.43,2.18-18.06,2.6-27.82,1.43-8.86-1.07-16.84-5.54-25.57-7.15-9.32-1.72-19-.63-28.45-.83l-39.45-.86Z"/><path class="cls-47" d="M723.74,847.15l-.07.07c-2.19,2.54-1.5,12.27-2.58,15.72C715.73,880,708.66,897,699.27,912.28c-3.65,5.93-6.29,12.57-13,15.47-5.13,2.21-14.62,3.49-18.33-2-3.46-5.07-1.12-21.68-1.3-27.66-.42-13.77-1.18-27.56-3.51-41.15-2.73-15.91-7.62-31.18-7.43-47.5v-.31s29.27,2.37,44.07,10.44S723.74,847.15,723.74,847.15Z"/><path class="cls-47" d="M781.82,806.07s8.73,6.86,13.54,9.49c10.25,5.6,23.42,14.93,29,25.4a32.41,32.41,0,0,1,3.17,8.75c2.43,11.59-.54,24.72-4.7,35.6-1.14,3-6,18.08-9.54,19.12-7.43,2.18-18.07,2.6-18.07,2.6-2.1-18.93-.33-37.38-19.7-47.31-7-3.57-14.3-6.16-21.09-10.05-1.54-.89-13.26-8.53-12.38-9.06Z"/><g class="cls-48"><path class="cls-49" d="M660.75,885.54s24.21,16.14,53.81,6.73"/><path class="cls-49" d="M660.75,870.74s26.9-4,57.84,8.08"/></g><g class="cls-50"><path class="cls-49" d="M787.2,872.09s24.21,8.07,44.39-16.14"/><path class="cls-49" d="M779.13,869.4s17.49-33.63,47.08-33.63"/></g><path class="cls-6" d="M659.34,714.49l6.44-1.37s8.15,9.13,8.5,13.2-3.72,4.41-4.74,2S661,715.16,659.34,714.49Z"/><path class="cls-6" d="M754.85,711.8l6.44-1.37s8.16,9.13,8.5,13.2-3.71,4.41-4.74,2S756.55,712.47,754.85,711.8Z"/><path class="cls-26" d="M662.87,702.48c-10.64-16-16.14-40.85-11.82-59.74a66.64,66.64,0,0,1,7.5-18.82,64.39,64.39,0,0,1,29.74-26.72c10.9-4.67,23-6.22,34.82-5.71,11.57.49,23.25,3,33.19,8.9,9.31,5.53,16.74,13.85,22.42,23.07,6.46,10.46,10.83,22.39,11.34,34.68a63.49,63.49,0,0,1-13.22,40.78,72.73,72.73,0,0,1-35.42,24.54c-25.33,8.12-62.09,3-78.17-20.42Z"/><path class="cls-45" d="M689.53,653.66s7.3-16.43,31-23.73,38.33-5.47,38.33-5.47,12.77,0,18.25,16.42,5.47,29.21,0,42-14.6,18.26-18.25,20.08a64.72,64.72,0,0,1-29.21,7.3c-14.6,0-21.9-3.65-27.37-11S689.53,675.56,689.53,653.66Z"/><path class="cls-51" d="M695,652.55s6.53-15.69,27.78-22.67,34.33-5.23,34.33-5.23,11.44,0,16.34,15.69,4.9,27.9,0,40.1-13.07,17.43-16.34,19.18a55.33,55.33,0,0,1-26.16,7c-13.07,0-19.61-3.49-24.51-10.46S695,673.47,695,652.55Z"/><g class="cls-52"><polygon class="cls-53" points="693.18 639.06 764.36 704.77 757.06 708.42 684.05 642.71 693.18 639.06"/><polygon class="cls-53" points="702.31 635.41 773.49 697.47 780.79 682.86 722.38 620.81 702.31 635.41"/></g><path class="cls-54" d="M650.29,656.4s13.69-8.21,22.81.91,11,21.9,7.31,29.2-9.13,12.78-18.26,11"/><path class="cls-54" d="M767.1,610.77s-21.9-5.48-42,0-29.2,12.78-36.5,21.9-14.5,25.72-14.5,25.72"/><path class="cls-6" d="M658.5,659.14a80.69,80.69,0,0,1-.37-12.72C659,630,672,613.44,685,604.27c20.08-14.17,48.47-17.17,69.92-4.31,1.35.82,2.67,1.68,3.95,2.6-1.37-1-4.19-1.18-5.77-1.54a85.74,85.74,0,0,0-44.45,1.67c-11.46,3.65-22.09,10.25-29.74,19.53a51.45,51.45,0,0,0-10,19.32c-2.08,7.7-1.28,15.21-1.28,23.07Z"/><path class="cls-10" d="M658.5,659.14a80.69,80.69,0,0,1-.37-12.72C659,630,672,613.44,685,604.27c20.08-14.17,48.47-17.17,69.92-4.31,1.35.82,2.67,1.68,3.95,2.6-1.37-1-4.19-1.18-5.77-1.54a85.74,85.74,0,0,0-44.45,1.67c-11.46,3.65-22.09,10.25-29.74,19.53a51.45,51.45,0,0,0-10,19.32c-2.08,7.7-1.28,15.21-1.28,23.07Z"/><path class="cls-6" d="M650.75,662.37l7.75-3.23s7.3,0,11,3.65,7.3,9.12,7.3,14.6-1.82,9.12-5.47,12.77-9.13,3.65-9.13,3.65Z"/><path class="cls-6" d="M645.73,671.91S647.55,661,654.85,661s16.43,7.3,16.43,18.25-1.83,14.6-9.13,14.6S645.73,686.51,645.73,671.91Z"/><path class="cls-55" d="M645.73,671.91S647.55,661,654.85,661s16.43,7.3,16.43,18.25-1.83,14.6-9.13,14.6S645.73,686.51,645.73,671.91Z"/><path class="cls-6" d="M618,746.36l-3.51,5.26-4.46,7.27L607,766l-1.52,4.36a16.32,16.32,0,0,0,14.91-8.54C624.87,753.94,618,746.36,618,746.36Z"/><path class="cls-6" d="M808.37,756.61,814,757h5.74l5.19-.38,5.7-.85,5.3-1.27s-.31-8.81-16.45-7.47C808.76,747.87,808.37,756.61,808.37,756.61Z"/><path class="cls-51" d="M741.91,767.62c0-3-2.44-6.19-5.36-6.7a9.34,9.34,0,0,0-5.25.64L733.36,751,727,752.08l-6,29.7a34.82,34.82,0,0,0,9.28,1.24,10.84,10.84,0,0,0,8.79-4.84C742.41,773.43,742,770.67,741.91,767.62Zm-5.75,3.69c-.24,2.63-2.82,5.85-4.47,6.43a9.18,9.18,0,0,1-3.87.2L730,767s2.47-1.42,4.14-1S736.39,768.68,736.16,771.31Z"/><circle class="cls-56" cx="731.38" cy="770.37" r="26.68"/><path class="cls-57" d="M855.81,595.41V902.59s0,4.48,8.94,4.48,9-4.48,9-4.48V595.41s0-4.48-9-4.48S855.81,595.41,855.81,595.41Z"/><rect class="cls-58" x="865.5" y="602.12" width="167.01" height="95.44"/><path class="cls-45" d="M870.61,708a15,15,0,0,0-5.39,16.14c2.69,10.76,8.48,9.69,8.48,9.69s5-4.31,5-15.07S870.61,708,870.61,708Z"/><path class="cls-45" d="M873.7,702.44s-8.48-2.54-8.48,1.49,8.48,2.66,8.48,2.66Z"/><g id="Page-1"><g id="Group"><path id="y" class="cls-59" d="M1005,639.08h-5.79l-3.34,14.56-.47,2c-.33.09-.65.18-1,.24a9.29,9.29,0,0,1-1.85.18,4.09,4.09,0,0,1-1.76-.33,1.81,1.81,0,0,1-.91-.94,3,3,0,0,1-.21-1.42,9.73,9.73,0,0,1,.3-1.75l1.76-7.57,1.14-5H987l-2.67,11.63a22.5,22.5,0,0,0-.56,4,7.7,7.7,0,0,0,.56,3.36,4.8,4.8,0,0,0,2.14,2.3,8.64,8.64,0,0,0,4.26.85,15.4,15.4,0,0,0,3.32-.33l.11,0h0a5.36,5.36,0,0,1-1.61,2.93,5.42,5.42,0,0,1-3.73,1.15,13,13,0,0,1-1.94-.12l-1.14,4.94a21.62,21.62,0,0,0,2.55.15,15.89,15.89,0,0,0,4.61-.61,9.49,9.49,0,0,0,3.41-1.87,11,11,0,0,0,2.37-3.15,18.46,18.46,0,0,0,1.53-4.51l4-17.32h0l.8-3.3Z"/><path id="a" class="cls-59" d="M980.74,651.52a14.19,14.19,0,0,0-.33,4.58,18.69,18.69,0,0,0,1.3,5h-5.58a7,7,0,0,1-.79-2.12,10.39,10.39,0,0,1-2.41,1.51,7,7,0,0,1-3,.61,7.29,7.29,0,0,1-3.31-.7,6.26,6.26,0,0,1-2.26-1.87,7.69,7.69,0,0,1-1.27-2.76,14.14,14.14,0,0,1-.38-3.39,14.49,14.49,0,0,1,.94-5.2,13.72,13.72,0,0,1,2.64-4.27,11.21,11.21,0,0,1,8.31-3.91h9l-2.84,12.47Zm-4.08-7.41c-2.7,0-3.2,0-4.32.57a6.3,6.3,0,0,0-2,1.79A8.81,8.81,0,0,0,969,649a9.52,9.52,0,0,0-.49,3,6.5,6.5,0,0,0,.61,3.06,2.38,2.38,0,0,0,2.29,1.12,3.58,3.58,0,0,0,1.62-.37,5.49,5.49,0,0,0,1.52-1.21c.06-.66.15-1.36.27-2.09s.26-1.42.38-2l1.47-6.39Z"/><path id="p" class="cls-59" d="M961.16,647.83a15.28,15.28,0,0,1-.94,5.39,12.5,12.5,0,0,1-2.62,4.21,11.58,11.58,0,0,1-4,2.75,12.58,12.58,0,0,1-5.05,1,16.35,16.35,0,0,1-2.67-.24l-1.76,7.29h-5.78l6.72-29.12h7.72a9.38,9.38,0,0,1,3.76.7,7.27,7.27,0,0,1,2.61,1.88,7.62,7.62,0,0,1,1.5,2.78,10.38,10.38,0,0,1,.5,3.36ZM947,656.1a7.62,7.62,0,0,0,4.43-.43,6.35,6.35,0,0,0,2.14-1.63,8.14,8.14,0,0,0,1.38-2.52,10,10,0,0,0,.5-3.23,5.41,5.41,0,0,0-.73-2.94,2.78,2.78,0,0,0-2.59-1.24h-2.28l-2.85,12Z"/><path id="t" class="cls-59" d="M934.82,656.1a4.11,4.11,0,0,1-1.76-.34,1.85,1.85,0,0,1-.91-.94,3.14,3.14,0,0,1-.2-1.42,9.67,9.67,0,0,1,.29-1.75l1.76-7.57h6.58l1.2-5h-6.6l1.52-6.35-6.16,1-3.91,17a21.57,21.57,0,0,0-.55,4,7.7,7.7,0,0,0,.55,3.36,4.82,4.82,0,0,0,2.15,2.3,8.58,8.58,0,0,0,4.25.85,15.33,15.33,0,0,0,3.32-.33l.32-.09,1.21-5.18a6.29,6.29,0,0,1-1.21.3,9.13,9.13,0,0,1-1.85.19Z"/><polygon id="i_bottom" data-name="i bottom" class="cls-59" points="920.12 639.08 915.01 661.18 920.79 661.18 925.87 639.08 920.12 639.08"/><polygon id="i_top" data-name="i top" class="cls-59" points="926.49 636.54 927.37 632.7 921.58 632.7 920.7 636.54 926.49 636.54"/><path id="b" class="cls-59" d="M907.32,639.11a7.25,7.25,0,0,1,3.23.7,6.45,6.45,0,0,1,2.26,1.85,8.5,8.5,0,0,1,1.32,2.72,12.36,12.36,0,0,1,.44,3.36,13.65,13.65,0,0,1-1,5.24,14.25,14.25,0,0,1-2.7,4.3,12.65,12.65,0,0,1-4,2.87,12.15,12.15,0,0,1-5.05,1.06c-.24,0-.65,0-1.23,0a12.55,12.55,0,0,1-2-.18,22.93,22.93,0,0,1-2.38-.49,12,12,0,0,1-2.38-.87l6.73-29.12,6-1-2.37,10.32a7.47,7.47,0,0,1,1.52-.54,5.44,5.44,0,0,1,1.65-.22Zm-5.05,17.14a4.8,4.8,0,0,0,2.55-.7,7.08,7.08,0,0,0,2.09-1.82,9.2,9.2,0,0,0,1.38-2.57,9.52,9.52,0,0,0,.49-3,6.09,6.09,0,0,0-.61-3,2.53,2.53,0,0,0-2.38-1.06,5,5,0,0,0-1.32.18,3.25,3.25,0,0,0-1.56.85l-2.52,11a8.61,8.61,0,0,0,1.2.15,4.12,4.12,0,0,1,.68,0Z"/></g></g></g></g></svg>