<svg width="22" height="24" viewBox="0 0 22 24" fill="none" xmlns="http://www.w3.org/2000/svg">
<path fill-rule="evenodd" clip-rule="evenodd" d="M0.915 23.085C1.525 23.695 2.27 24 3.15 24H18.63C19.51 24 20.255 23.695 20.865 23.085C21.475 22.475 21.78 21.73 21.78 20.85V0L19.98 1.8L18.18 0L16.38 1.8L14.58 0L12.78 1.8L10.98 0L9.18 1.8L7.41 0L5.61 1.8L3.81 0V17.1H0V20.85C0 21.73 0.305 22.475 0.915 23.085ZM15.48 22.2H3.12C2.74 22.2 2.425 22.075 2.175 21.825C1.925 21.575 1.8 21.25 1.8 20.85V18.9H15.48V22.2ZM7.20001 7.74V5.94H14.4V7.74H7.20001ZM7.20001 11.76V9.96H14.4V11.76H7.20001ZM16.56 7.47C16.74 7.65 16.95 7.74 17.19 7.74C17.43 7.74 17.64 7.65 17.82 7.47C18 7.29 18.09 7.08 18.09 6.84C18.09 6.6 18 6.39 17.82 6.21C17.64 6.03 17.43 5.94 17.19 5.94C16.95 5.94 16.74 6.03 16.56 6.21C16.38 6.39 16.29 6.6 16.29 6.84C16.29 7.08 16.38 7.29 16.56 7.47ZM17.19 11.61C16.95 11.61 16.74 11.52 16.56 11.34C16.38 11.16 16.29 10.95 16.29 10.71C16.29 10.47 16.38 10.26 16.56 10.08C16.74 9.9 16.95 9.81 17.19 9.81C17.43 9.81 17.64 9.9 17.82 10.08C18 10.26 18.09 10.47 18.09 10.71C18.09 10.95 18 11.16 17.82 11.34C17.64 11.52 17.43 11.61 17.19 11.61Z" fill="#C2C7D3"/>
</svg>
