<svg width="23" height="24" viewBox="0 0 23 24" fill="none" xmlns="http://www.w3.org/2000/svg">
<path fill-rule="evenodd" clip-rule="evenodd" d="M16 0H0V24H16C17.654 24 19 22.654 19 21V3C19 1.346 17.654 0 16 0ZM9.5 6C10.881 6 12 7.119 12 8.5C12 9.881 10.881 11 9.5 11C8.119 11 7 9.881 7 8.5C7 7.119 8.119 6 9.5 6ZM5 15.379V17H14V15.379C14 14.488 13.415 13.709 12.56 13.457C11.765 13.222 10.697 13 9.5 13C8.303 13 7.235 13.222 6.44 13.457C5.585 13.709 5 14.488 5 15.379ZM20 4H23V9H20V4ZM23 11H20V16H23V11Z" fill="#C2C7D3"/>
</svg>
