<svg width="23" height="25" viewBox="0 0 23 25" fill="none" xmlns="http://www.w3.org/2000/svg">
<path d="M20.1065 14.1293L9.76082 3.78356C9.66299 3.6857 9.5303 3.63071 9.39193 3.63068H0.521774C0.383391 3.63068 0.250675 3.68565 0.152824 3.7835C0.0549724 3.88135 0 4.01407 0 4.15245V13.0226C2.95519e-05 13.161 0.0550213 13.2937 0.15288 13.3915L10.4986 23.7372C10.9883 24.2257 11.6517 24.5 12.3433 24.5C13.035 24.5 13.6984 24.2257 14.1881 23.7372L20.1065 17.8187C20.595 17.3291 20.8694 16.6657 20.8694 15.974C20.8694 15.2824 20.595 14.6189 20.1065 14.1293ZM5.73951 11.4573C5.32672 11.4573 4.9232 11.3349 4.57998 11.1055C4.23676 10.8762 3.96925 10.5502 3.81129 10.1689C3.65332 9.78752 3.61199 9.36787 3.69252 8.96301C3.77305 8.55816 3.97183 8.18627 4.26371 7.89439C4.5556 7.6025 4.92748 7.40373 5.33234 7.32319C5.7372 7.24266 6.15684 7.28399 6.53821 7.44196C6.91957 7.59993 7.24553 7.86744 7.47487 8.21066C7.7042 8.55388 7.8266 8.9574 7.8266 9.37019C7.8266 9.92372 7.60671 10.4546 7.21531 10.846C6.8239 11.2374 6.29304 11.4573 5.73951 11.4573Z" fill="#4989FF"/>
<path d="M9.39191 2.58709C9.59755 2.58651 9.80126 2.62675 9.99123 2.70548C10.1812 2.7842 10.3537 2.89986 10.4986 3.04573L20.4754 13.0226L22.0408 11.4572L11.5421 0.958117C11.2486 0.664734 10.8505 0.49995 10.4355 0.5H2.60886C2.47047 0.5 2.33776 0.554972 2.23991 0.652824C2.14205 0.750675 2.08708 0.883391 2.08708 1.02177V2.58709H9.39191Z" fill="#4989FF"/>
</svg>
