<svg xmlns="http://www.w3.org/2000/svg" xmlns:xlink="http://www.w3.org/1999/xlink" width="35px" height="35px" viewBox="0 0 38 38" version="1.1">
    <title>Group 3</title>
    <g id="Transact" stroke="none" stroke-width="1" fill="none" fill-rule="evenodd">
        <g id="TransactButton-1" transform="translate(-169.000000, -759.000000)">
            <g id="Group" transform="translate(0.000000, 741.847826)">
                <g id="Group-3" transform="translate(169.384058, 17.210145)">
                    <rect id="Rectangle" fill="#2240C4" x="-1.0658141e-14" y="-1.0658141e-14" width="36.2318841" height="36.2318841" rx="18.115942"/>
                    <path d="M25.0928059,16.2000398 C25.4521565,16.5593904 25.4521565,17.1420129 25.0928059,17.5013635 L19.0715652,23.5215652 L21.9116632,23.5219692 C22.4198617,23.5219692 22.831838,23.9339455 22.831838,24.442144 C22.831838,24.9503425 22.4198617,25.3623188 21.9116632,25.3623188 L16.8507016,25.3623188 C16.812992,25.3623188 16.7758122,25.3600505 16.7392912,25.3556428 C16.7264162,25.3540267 16.7136954,25.3522126 16.7010099,25.3501322 C16.6745414,25.3458629 16.6488162,25.340485 16.6235094,25.3340583 C16.6157926,25.3320265 16.6074098,25.3297799 16.5990539,25.3274129 C16.5706523,25.3194066 16.5434217,25.3102369 16.5167932,25.2998629 C16.5060748,25.2956862 16.4950041,25.2911384 16.4840075,25.2863656 C16.4585707,25.2752704 16.4341986,25.263328 16.4104603,25.2503703 C16.4022104,25.2459545 16.3935377,25.2410479 16.3849296,25.2359893 C16.3605112,25.2215284 16.3370947,25.2062635 16.3144475,25.1899953 C16.3046372,25.1830359 16.2947028,25.1755917 16.2848883,25.1679205 C16.2252988,25.1213202 16.1716262,25.0676562 16.1251211,25.0081214 L16.2000398,25.0928059 C16.1601119,25.052878 16.1246205,25.0101937 16.0935655,24.9653655 C16.0840419,24.9515007 16.0744339,24.9367671 16.0652444,24.9217495 C16.0548011,24.9048026 16.0453455,24.8881561 16.0364502,24.8712914 C16.0259999,24.8513947 16.0160584,24.8307656 16.0068807,24.8097268 C16.0017752,24.7980283 15.9969653,24.786314 15.9924072,24.7745247 C15.9847491,24.7548282 15.97768,24.7345208 15.971316,24.713904 C15.9656357,24.6952166 15.9606565,24.6770307 15.9562449,24.6587359 C15.9528129,24.6448895 15.9496693,24.630364 15.946873,24.6157153 C15.9359497,24.5578605 15.9305268,24.5000023 15.9305268,24.442144 L15.9305268,19.3811824 C15.9305268,18.8729839 16.3425031,18.4610076 16.8507016,18.4610076 C17.3589002,18.4610076 17.7708765,18.8729839 17.7708765,19.3811824 L17.7705652,22.2195652 L23.7914821,16.2000398 C24.1508328,15.8406891 24.7334552,15.8406891 25.0928059,16.2000398 Z M19.3811824,10.8695652 C19.4185294,10.8695652 19.4553568,10.8717902 19.4915391,10.8761147 C19.5118855,10.8785924 19.5329634,10.8818467 19.5539294,10.8858339 C19.5694024,10.8887077 19.583928,10.8918513 19.5983214,10.8953333 C19.6160691,10.8996949 19.634255,10.9046742 19.6523038,10.910221 C19.6735593,10.9167184 19.6938667,10.9237875 19.7138365,10.9315335 C19.7253524,10.9360037 19.7370667,10.9408137 19.7486978,10.9458754 C19.769804,10.9550968 19.7904331,10.9650383 19.8106176,10.9757085 C19.8271945,10.9843839 19.843841,10.9938395 19.8602418,11.0038554 C19.8758055,11.0134723 19.8905391,11.0230803 19.9049725,11.0330908 C19.9188301,11.0425977 19.9330341,11.0530509 19.9469958,11.0639635 C20.0066946,11.1106647 20.0603586,11.1643372 20.1068544,11.2238797 L20.0318443,11.1390782 C20.0691299,11.1763637 20.1025467,11.216053 20.1320949,11.2576471 C20.1451242,11.2761177 20.1576708,11.295246 20.1695066,11.3148515 C20.1786905,11.3299151 20.1873624,11.3452791 20.1955582,11.3608285 C20.2053677,11.379528 20.2147336,11.3988667 20.2234285,11.4185681 C20.2290513,11.4313121 20.2341914,11.4437392 20.2390476,11.4562512 C20.2492753,11.4824601 20.258445,11.5096907 20.2663435,11.5374566 C20.2688183,11.5464482 20.2710649,11.554831 20.2731912,11.563238 C20.2795234,11.5878546 20.2849013,11.6135798 20.2891815,11.6396745 C20.291251,11.6527338 20.2930651,11.6654546 20.2946128,11.6782015 C20.2990889,11.7148507 20.3013573,11.7520305 20.3013573,11.7897401 L20.3013573,16.8507016 C20.3013573,17.3589002 19.889381,17.7708765 19.3811824,17.7708765 C18.8729839,17.7708765 18.4610076,17.3589002 18.4610076,16.8507016 L18.4605652,14.0105652 L12.4404019,20.0318443 C12.0810513,20.3911949 11.4984288,20.3911949 11.1390782,20.0318443 C10.7797276,19.6724937 10.7797276,19.0898712 11.1390782,18.7305206 L17.1585652,12.7095652 L14.3202208,12.7099149 C13.8120223,12.7099149 13.400046,12.2979386 13.400046,11.7897401 C13.400046,11.2815415 13.8120223,10.8695652 14.3202208,10.8695652 L19.3811824,10.8695652 Z" id="Combined-Shape" fill="#FFFFFF" fill-rule="nonzero"/>
                </g>
            </g>
        </g>
    </g>
</svg>

