<svg width="30" height="30" viewBox="0 0 30 30" fill="none" xmlns="http://www.w3.org/2000/svg">
<circle cx="15" cy="15" r="15" fill="#E1E4E7"/>
<path d="M15 22.5C13.9625 22.5 12.9875 22.3031 12.075 21.9094C11.1625 21.5156 10.3688 20.9813 9.69375 20.3063C9.01875 19.6313 8.48438 18.8375 8.09063 17.925C7.69688 17.0125 7.5 16.0375 7.5 15C7.5 13.9625 7.69688 12.9875 8.09063 12.075C8.48438 11.1625 9.01875 10.3688 9.69375 9.69375C10.3688 9.01875 11.1625 8.48438 12.075 8.09063C12.9875 7.69688 13.9625 7.5 15 7.5C16.0375 7.5 17.0125 7.69688 17.925 8.09063C18.8375 8.48438 19.6313 9.01875 20.3063 9.69375C20.9813 10.3688 21.5156 11.1625 21.9094 12.075C22.3031 12.9875 22.5 13.9625 22.5 15C22.5 16.0375 22.3031 17.0125 21.9094 17.925C21.5156 18.8375 20.9813 19.6313 20.3063 20.3063C19.6313 20.9813 18.8375 21.5156 17.925 21.9094C17.0125 22.3031 16.0375 22.5 15 22.5ZM14.2125 21.225V19.7124C13.7834 19.7124 13.4198 19.5552 13.1218 19.2407C12.8239 18.9261 12.675 18.5542 12.675 18.1251V17.325L8.91244 13.5624C8.85831 13.8042 8.81769 14.0438 8.79056 14.2813C8.76356 14.5188 8.75006 14.7584 8.75006 15C8.75006 16.5875 9.26775 17.975 10.3031 19.1625C11.3385 20.35 12.6416 21.0375 14.2125 21.225ZM19.6125 19.2375C19.8791 18.9459 20.1146 18.6344 20.3188 18.3032C20.5229 17.9719 20.6948 17.6261 20.8344 17.2656C20.9739 16.9052 21.0781 16.5354 21.1468 16.1563C21.2156 15.7771 21.2499 15.3916 21.2499 15C21.2499 13.7084 20.8948 12.5334 20.1844 11.475C19.474 10.4166 18.5251 9.64581 17.3376 9.16256V9.4875C17.3376 9.91663 17.1886 10.2885 16.8906 10.6031C16.5927 10.9178 16.2292 11.0751 15.8001 11.0751H14.2125V12.6624C14.2125 12.8749 14.1323 13.051 13.9719 13.1906C13.8114 13.3303 13.6249 13.4001 13.4124 13.4001H11.8749V15H16.5999C16.8124 15 16.9885 15.0781 17.1281 15.2344C17.2678 15.3906 17.3376 15.575 17.3376 15.7875V18.1251H18.1251C18.4751 18.1251 18.7854 18.2282 19.0562 18.4344C19.3271 18.6407 19.5125 18.9084 19.6125 19.2375Z" fill="#434D5A"/>
</svg>
