<svg width="14" height="15" viewBox="0 0 14 15" fill="none" xmlns="http://www.w3.org/2000/svg">
<path d="M13.3696 1.95652H9.36522L8.78739 0.223043C8.76577 0.158138 8.72429 0.101675 8.66881 0.0616467C8.61333 0.0216183 8.54667 5.19435e-05 8.47826 0H5.21739C5.14898 5.19435e-05 5.08232 0.0216183 5.02684 0.0616467C4.97136 0.101675 4.92988 0.158138 4.90826 0.223043L4.33043 1.95652H0.326087C0.239603 1.95652 0.156662 1.99088 0.0955086 2.05203C0.0343555 2.11318 0 2.19613 0 2.28261V3.26087C0 3.34735 0.0343555 3.43029 0.0955086 3.49145C0.156662 3.5526 0.239603 3.58696 0.326087 3.58696H13.3696C13.456 3.58696 13.539 3.5526 13.6001 3.49145C13.6613 3.43029 13.6957 3.34735 13.6957 3.26087V2.28261C13.6957 2.19613 13.6613 2.11318 13.6001 2.05203C13.539 1.99088 13.456 1.95652 13.3696 1.95652Z" fill="#2240C4"/>
<path d="M12.0653 4.23914H1.63049V13.3696C1.63049 13.802 1.80227 14.2167 2.10804 14.5225C2.4138 14.8282 2.82851 15 3.26093 15H10.4348C10.8673 15 11.282 14.8282 11.5877 14.5225C11.8935 14.2167 12.0653 13.802 12.0653 13.3696V4.23914ZM4.56528 12.0652C4.56528 12.1517 4.53092 12.2346 4.46977 12.2958C4.40861 12.357 4.32567 12.3913 4.23919 12.3913C4.15271 12.3913 4.06976 12.357 4.00861 12.2958C3.94746 12.2346 3.9131 12.1517 3.9131 12.0652V7.17392C3.9131 7.08743 3.94746 7.00449 4.00861 6.94334C4.06976 6.88219 4.15271 6.84783 4.23919 6.84783C4.32567 6.84783 4.40861 6.88219 4.46977 6.94334C4.53092 7.00449 4.56528 7.08743 4.56528 7.17392V12.0652ZM7.17397 12.0652C7.17397 12.1517 7.13962 12.2346 7.07846 12.2958C7.01731 12.357 6.93437 12.3913 6.84788 12.3913C6.7614 12.3913 6.67846 12.357 6.61731 12.2958C6.55615 12.2346 6.5218 12.1517 6.5218 12.0652V7.17392C6.5218 7.08743 6.55615 7.00449 6.61731 6.94334C6.67846 6.88219 6.7614 6.84783 6.84788 6.84783C6.93437 6.84783 7.01731 6.88219 7.07846 6.94334C7.13962 7.00449 7.17397 7.08743 7.17397 7.17392V12.0652ZM9.78267 12.0652C9.78267 12.1517 9.74831 12.2346 9.68716 12.2958C9.62601 12.357 9.54306 12.3913 9.45658 12.3913C9.3701 12.3913 9.28716 12.357 9.226 12.2958C9.16485 12.2346 9.13049 12.1517 9.13049 12.0652V7.17392C9.13049 7.08743 9.16485 7.00449 9.226 6.94334C9.28716 6.88219 9.3701 6.84783 9.45658 6.84783C9.54306 6.84783 9.62601 6.88219 9.68716 6.94334C9.74831 7.00449 9.78267 7.08743 9.78267 7.17392V12.0652Z" fill="#2240C4"/>
</svg>
