<svg width="26" height="16" viewBox="0 0 26 16" fill="none" xmlns="http://www.w3.org/2000/svg">
<path d="M5.37329 3.38191C9.40706 -0.567491 15.9471 -0.567491 19.9809 3.38191L20.4664 3.85723C20.6681 4.0547 20.6681 4.37487 20.4664 4.57234L18.8057 6.1983C18.7048 6.29704 18.5413 6.29704 18.4405 6.1983L17.7724 5.54421C14.9583 2.789 10.3958 2.789 7.58177 5.54421L6.86633 6.24469C6.76548 6.34342 6.60198 6.34342 6.50114 6.24469L4.84044 4.61872C4.63875 4.42125 4.63875 4.10109 4.84044 3.90362L5.37329 3.38191ZM23.4154 6.74458L24.8934 8.1917C25.0951 8.38917 25.0951 8.70933 24.8934 8.9068L18.2289 15.432C18.0272 15.6295 17.7002 15.6295 17.4985 15.432C17.4985 15.432 17.4985 15.432 17.4985 15.432L12.7684 10.8009C12.718 10.7515 12.6362 10.7515 12.5858 10.8009H12.5858L7.85584 15.432C7.65416 15.6295 7.32715 15.6295 7.12546 15.432C7.12546 15.432 7.12546 15.432 7.12546 15.432L0.460745 8.90672C0.259057 8.70925 0.259057 8.38909 0.460745 8.19162L1.93878 6.7445C2.14046 6.54703 2.46747 6.54703 2.66916 6.7445L7.3993 11.3757C7.44972 11.4251 7.53148 11.4251 7.5819 11.3757C7.5819 11.3757 7.5819 11.3757 7.5819 11.3757L12.3118 6.7445C12.5135 6.54703 12.8405 6.54702 13.0422 6.74448C13.0422 6.74449 13.0422 6.74449 13.0422 6.74449L17.7723 11.3757C17.8228 11.4251 17.9045 11.4251 17.9549 11.3757L22.685 6.74458C22.8867 6.54711 23.2137 6.54711 23.4154 6.74458Z" fill="#3B99FC"/>
</svg>
