<svg width="375" height="375" viewBox="0 0 375 344" fill="none" xmlns="http://www.w3.org/2000/svg">
<path fill-rule="evenodd" clip-rule="evenodd" d="M175.875 95.7047C187.695 68.1432 199.751 40.0317 187.21 1.93808L192.91 0.0619507C206.221 40.4994 193.096 70.9745 181.178 98.644C178.642 104.534 176.16 110.296 174 116C167.799 132.37 164.106 148.34 168.242 166.044C172.096 182.539 182.849 200.959 205.642 222.775L204.681 203.179C204.6 201.524 205.876 200.117 207.531 200.036C209.186 199.955 210.593 201.231 210.674 202.886L211.996 229.853C212.077 231.508 210.802 232.915 209.147 232.996L182.179 234.318C180.524 234.4 179.117 233.124 179.036 231.469C178.955 229.814 180.231 228.407 181.885 228.326L201.747 227.352C178.275 204.946 166.622 185.48 162.399 167.409C157.865 148.004 162.019 130.692 168.389 113.875C170.698 107.778 173.281 101.755 175.875 95.7047Z" fill="white"/>
<rect y="274" width="375" height="69.7464" fill="black"/>
<path d="M1 274.453H375" stroke="#EAEAEA" stroke-width="0.905797" stroke-linecap="square"/>
<path d="M58.6212 306.813L47.6212 298.661C47.2529 298.388 46.7234 298.388 46.3552 298.661L35.3552 306.813C34.9376 307.132 34.8801 307.696 35.2259 308.079C35.5718 308.462 36.193 308.523 36.6212 308.215L37.9882 307.203V317.478C37.9882 317.978 38.4359 318.384 38.9882 318.384H44.9882V312.949H48.9882V318.384H54.9882C55.5404 318.384 55.9882 317.978 55.9882 317.478V307.203L57.3552 308.215C57.631 308.426 58.0109 308.486 58.3491 308.372C58.6873 308.258 58.9314 307.988 58.9878 307.665C59.0441 307.342 58.904 307.016 58.6212 306.813Z" fill="#C2C7D3"/>
<path d="M122.107 311.129L111.761 300.784C111.663 300.686 111.53 300.631 111.392 300.631H102.522C102.383 300.631 102.251 300.686 102.153 300.783C102.055 300.881 102 301.014 102 301.152V310.023C102 310.161 102.055 310.294 102.153 310.391L112.499 320.737C112.988 321.226 113.652 321.5 114.343 321.5C115.035 321.5 115.698 321.226 116.188 320.737L122.107 314.819C122.595 314.329 122.869 313.666 122.869 312.974C122.869 312.282 122.595 311.619 122.107 311.129ZM107.74 308.457C107.327 308.457 106.923 308.335 106.58 308.106C106.237 307.876 105.969 307.55 105.811 307.169C105.653 306.788 105.612 306.368 105.693 305.963C105.773 305.558 105.972 305.186 106.264 304.894C106.556 304.602 106.927 304.404 107.332 304.323C107.737 304.243 108.157 304.284 108.538 304.442C108.92 304.6 109.246 304.867 109.475 305.211C109.704 305.554 109.827 305.957 109.827 306.37C109.827 306.924 109.607 307.455 109.215 307.846C108.824 308.237 108.293 308.457 107.74 308.457Z" fill="#C2C7D3"/>
<path d="M111.392 299.587C111.598 299.586 111.801 299.627 111.991 299.705C112.181 299.784 112.354 299.9 112.499 300.046L122.475 310.023L124.041 308.457L113.542 297.958C113.249 297.665 112.85 297.5 112.435 297.5H104.609C104.47 297.5 104.338 297.555 104.24 297.653C104.142 297.751 104.087 297.883 104.087 298.022V299.587H111.392Z" fill="#C2C7D3"/>
<path fill-rule="evenodd" clip-rule="evenodd" d="M333.497 309.326C333.495 309.694 333.459 310.06 333.391 310.423L335.14 311.953C335.415 312.194 335.474 312.573 335.282 312.873L334.032 314.836C333.883 315.069 333.608 315.213 333.31 315.213C333.233 315.213 333.155 315.203 333.081 315.184L330.747 314.58C330.117 315.046 329.407 315.416 328.645 315.676L328.056 317.812C327.963 318.148 327.63 318.384 327.247 318.384H324.747C324.366 318.383 324.034 318.148 323.942 317.813L323.352 315.676C322.59 315.417 321.878 315.047 321.247 314.581L318.913 315.185C318.839 315.204 318.762 315.213 318.684 315.214C318.386 315.214 318.111 315.07 317.962 314.836L316.712 312.874C316.521 312.574 316.58 312.195 316.854 311.954L318.604 310.423C318.536 310.06 318.5 309.694 318.497 309.326C318.5 308.959 318.536 308.592 318.604 308.23L316.854 306.699C316.579 306.458 316.52 306.078 316.712 305.778L317.962 303.816C318.155 303.517 318.546 303.375 318.914 303.468L321.247 304.072C321.878 303.606 322.588 303.236 323.35 302.976L323.939 300.84C324.032 300.504 324.365 300.268 324.747 300.268H327.247C327.63 300.268 327.963 300.504 328.056 300.84L328.642 302.976C329.405 303.236 330.116 303.606 330.747 304.072L333.081 303.468C333.449 303.374 333.84 303.517 334.033 303.816L335.283 305.778C335.474 306.078 335.415 306.457 335.141 306.698L333.391 308.229C333.459 308.592 333.495 308.959 333.497 309.326ZM322.664 309.326C322.664 310.994 324.157 312.345 325.997 312.345C326.882 312.345 327.729 312.027 328.355 311.461C328.98 310.895 329.331 310.127 329.331 309.326C329.331 307.659 327.838 306.307 325.997 306.307C324.157 306.307 322.664 307.659 322.664 309.326Z" fill="#C2C7D3"/>
<path fill-rule="evenodd" clip-rule="evenodd" d="M267 298H251V322H267C268.654 322 270 320.654 270 319V301C270 299.346 268.654 298 267 298ZM260.5 304C261.881 304 263 305.119 263 306.5C263 307.881 261.881 309 260.5 309C259.119 309 258 307.881 258 306.5C258 305.119 259.119 304 260.5 304ZM256 313.379V315H265V313.379C265 312.488 264.415 311.709 263.56 311.457C262.765 311.222 261.697 311 260.5 311C259.303 311 258.235 311.222 257.44 311.457C256.585 311.709 256 312.488 256 313.379ZM271 302H274V307H271V302ZM274 309H271V314H274V309Z" fill="#4F6EF7"/>
<rect x="167" y="291.21" width="36.2319" height="36.2319" rx="18.1159" fill="#2240C4"/>
<path fill-rule="evenodd" clip-rule="evenodd" d="M185.461 305.221L179.44 311.242C179.081 311.601 178.498 311.601 178.139 311.242C177.78 310.883 177.78 310.3 178.139 309.941L184.16 303.92H181.32C180.812 303.92 180.4 303.508 180.4 303C180.4 302.492 180.812 302.08 181.32 302.08H186.381C186.506 302.08 186.625 302.105 186.733 302.15C186.842 302.194 186.944 302.261 187.032 302.349C187.198 302.516 187.301 302.746 187.301 303V308.061C187.301 308.569 186.889 308.981 186.381 308.981C185.873 308.981 185.461 308.569 185.461 308.061V305.221ZM186.072 314.732H188.912C189.42 314.732 189.832 315.144 189.832 315.652C189.832 316.16 189.42 316.572 188.912 316.572H183.851C183.598 316.572 183.368 316.47 183.202 316.305C183.201 316.304 183.199 316.302 183.198 316.301C183.111 316.213 183.045 316.112 183 316.005C182.955 315.896 182.931 315.777 182.931 315.652V310.591C182.931 310.083 183.343 309.671 183.851 309.671C184.359 309.671 184.771 310.083 184.771 310.591V313.431L190.792 307.41C191.151 307.051 191.734 307.051 192.093 307.41C192.452 307.77 192.452 308.352 192.093 308.712L186.072 314.732Z" fill="white"/>
</svg>
