
<svg width="215" height="250" viewBox="0 0 215 250" fill="none" xmlns="http://www.w3.org/2000/svg">
    <mask id="mask0_338_15978" style="mask-type:alpha" maskUnits="userSpaceOnUse" x="0" y="0" width="215" height="250">
        <rect width="215" height="250" rx="21" fill="#F5F6F8"/>
    </mask>
    <g mask="url(#mask0_338_15978)">
        <rect width="215" height="250" rx="21" fill="#0C204E"/>
        <path fill-rule="evenodd" clip-rule="evenodd" d="M135.967 265.723C145.725 265.723 154.786 263.631 163.15 258.398C171.514 253.862 179.182 247.584 185.455 239.561C191.727 231.885 196.607 222.815 200.091 213.048C203.577 202.932 205.319 192.815 205.319 182.001C205.319 168.745 203.229 158.629 198.699 150.954C194.167 143.279 185.106 140.14 173.258 140.14C169.424 140.14 165.59 140.488 159.316 141.883C153.044 143.279 147.816 146.42 142.589 150.606L115.753 264.328C124.117 265.723 132.831 265.723 135.967 265.723ZM189.98 88.5072C203.224 88.5072 214.725 90.9495 224.483 95.834C234.241 100.368 241.909 106.648 248.53 115.02C254.802 123.043 259.332 132.462 262.47 143.276C265.606 154.09 267 165.603 267 178.161C267 197.347 263.516 215.139 256.196 232.233C248.878 248.977 239.469 264.325 227.271 276.534C215.073 289.092 200.784 299.21 184.056 306.186C167.327 313.513 149.553 317 130.386 317C127.946 317 123.414 317 117.142 316.652C110.868 316.652 103.55 315.955 95.8826 314.908C87.8668 313.513 79.1532 312.118 70.4413 310.024C61.3796 307.932 53.0158 304.791 45 300.953L116.794 -0.0975075L180.918 -10.2148L155.477 96.5307C161.053 94.0903 166.281 91.9964 171.858 90.9495C177.782 89.2058 183.706 88.5072 189.98 88.5072Z" fill="#0E265C"/>
        <path fill-rule="evenodd" clip-rule="evenodd" d="M45.1887 19.2077C48.7951 22.0509 50.9009 26.3977 50.9009 30.9991C50.9009 35.4855 48.8991 39.7298 45.4563 42.5745L45.1888 42.7896L45.1835 42.7905L44.9208 42.5787C41.4755 39.7353 39.4739 35.4887 39.4787 31.0012C39.4751 26.4 41.5806 22.0527 45.1887 19.2119L45.1826 19.2075L45.1887 19.2077Z" fill="#FF5F00"/>
        <path fill-rule="evenodd" clip-rule="evenodd" d="M39.4774 31.0012C39.4737 26.4 41.5793 22.0527 45.1873 19.2119C39.0578 14.3795 30.2557 15.0834 24.9667 20.8288C19.6778 26.5743 19.6778 35.4323 24.9667 41.1777C30.2557 46.9232 39.0578 47.6271 45.1873 42.7947C41.5781 39.953 39.4725 35.6038 39.4774 31.0012Z" fill="#EB001B"/>
        <path fill-rule="evenodd" clip-rule="evenodd" d="M69.3774 31.001C69.3773 36.7429 66.109 41.9807 60.9606 44.4899C55.8122 46.9991 49.6876 46.3391 45.1879 42.7903C48.7943 39.947 50.9 35.6003 50.9 30.9989C50.9 26.3975 48.7943 22.0507 45.1879 19.2075C49.6876 15.6586 55.8122 14.9987 60.9606 17.5079C66.109 20.017 69.3773 25.2549 69.3774 30.9968V31.001Z" fill="#F79E1B"/>
        <circle cx="185.653" cy="218.653" r="14.6535" transform="rotate(180 185.653 218.653)" fill="white" fill-opacity="0.2"/>
        <path fill-rule="evenodd" clip-rule="evenodd" d="M186.844 212.793L185.562 214.018L189.5 217.78L178.327 217.78L178.327 219.529L189.5 219.529L185.562 223.291L186.844 224.516L192.98 218.654L186.844 212.793Z" fill="white"/>
        <path d="M28.1357 96.3389C27.7607 96.8252 27.1924 97.2529 26.4307 97.6221C25.6748 97.9912 24.6641 98.1758 23.3984 98.1758C22.3145 98.1758 21.3594 97.9326 20.5332 97.4463C19.7129 96.96 19.0713 96.2539 18.6084 95.3281C18.1514 94.4023 17.9229 93.3008 17.9229 92.0234V91.1885C17.9229 89.8936 18.1338 88.7861 18.5557 87.8662C18.9775 86.9404 19.584 86.2373 20.375 85.7568C21.166 85.2705 22.1094 85.0273 23.2051 85.0273C24.7109 85.0273 25.8652 85.3965 26.668 86.1348C27.4766 86.8672 27.9629 87.8662 28.127 89.1318H25.8945C25.6543 87.6143 24.7725 86.8555 23.249 86.8555C22.2412 86.8555 21.4824 87.2275 20.9727 87.9717C20.4688 88.71 20.2168 89.7764 20.2168 91.1709V92.0234C20.2168 92.9434 20.3457 93.7285 20.6035 94.3789C20.8613 95.0234 21.2334 95.5127 21.7197 95.8467C22.2119 96.1807 22.7979 96.3477 23.4775 96.3477C24.1455 96.3477 24.6582 96.2773 25.0156 96.1367C25.3789 95.9902 25.6602 95.8115 25.8594 95.6006V93.1309H23.2578V91.4082H28.1357V96.3389ZM38.3926 93.9307H32.1963C32.2373 94.417 32.3633 94.8477 32.5742 95.2227C32.7852 95.5977 33.0693 95.8906 33.4268 96.1016C33.79 96.3125 34.2119 96.418 34.6924 96.418C35.6768 96.418 36.4678 96.0312 37.0654 95.2578L38.2344 96.3916C37.8887 96.9014 37.4082 97.3262 36.793 97.666C36.1777 98.0059 35.4336 98.1758 34.5605 98.1758C33.6348 98.1758 32.8262 97.9766 32.1348 97.5781C31.4434 97.1738 30.9131 96.623 30.5439 95.9258C30.1748 95.2285 29.9902 94.4463 29.9902 93.5791V93.2188C29.9902 92.2402 30.1777 91.3818 30.5527 90.6436C30.9277 89.8994 31.4434 89.3252 32.0996 88.9209C32.7559 88.5166 33.4941 88.3145 34.3145 88.3145C35.2109 88.3145 35.9639 88.5107 36.5732 88.9033C37.1826 89.2959 37.6367 89.8467 37.9355 90.5557C38.2402 91.2588 38.3926 92.0762 38.3926 93.0078V93.9307ZM36.2305 92.1816C36.2012 91.5664 36.0342 91.0625 35.7295 90.6699C35.4248 90.2715 34.9502 90.0723 34.3057 90.0723C33.7314 90.0723 33.2686 90.2715 32.917 90.6699C32.5654 91.0684 32.3398 91.6279 32.2402 92.3486H36.2305V92.1816ZM43.7275 96.3652C43.9619 96.3652 44.2109 96.3359 44.4746 96.2773V97.9648C44.0527 98.1055 43.5781 98.1758 43.0508 98.1758C42.2773 98.1758 41.668 97.9619 41.2227 97.5342C40.7773 97.1064 40.5547 96.4238 40.5547 95.4863V90.1074H39.0078V88.4902H40.5547V86.1699H42.7432V88.4902H44.4131V90.1074H42.7432V95.3369C42.7432 95.7354 42.8252 96.0078 42.9893 96.1543C43.1533 96.2949 43.3994 96.3652 43.7275 96.3652ZM54.2217 96.3652C54.4561 96.3652 54.7051 96.3359 54.9688 96.2773V97.9648C54.5469 98.1055 54.0723 98.1758 53.5449 98.1758C52.7715 98.1758 52.1621 97.9619 51.7168 97.5342C51.2715 97.1064 51.0488 96.4238 51.0488 95.4863V90.1074H49.502V88.4902H51.0488V86.1699H53.2373V88.4902H54.9072V90.1074H53.2373V95.3369C53.2373 95.7354 53.3193 96.0078 53.4834 96.1543C53.6475 96.2949 53.8936 96.3652 54.2217 96.3652ZM61.3057 88.3145C63.374 88.3145 64.4082 89.5068 64.4082 91.8916V98H62.2197V91.874C62.2197 91.2354 62.082 90.7812 61.8066 90.5117C61.5371 90.2363 61.1211 90.0986 60.5586 90.0986C60.1367 90.0986 59.7646 90.1953 59.4424 90.3887C59.126 90.582 58.8711 90.8516 58.6777 91.1973V98H56.4893V84.5H58.6777V89.5273C59.0059 89.1406 59.3926 88.8418 59.8379 88.6309C60.2891 88.4199 60.7783 88.3145 61.3057 88.3145ZM74.5859 93.9307H68.3896C68.4307 94.417 68.5566 94.8477 68.7676 95.2227C68.9785 95.5977 69.2627 95.8906 69.6201 96.1016C69.9834 96.3125 70.4053 96.418 70.8857 96.418C71.8701 96.418 72.6611 96.0312 73.2588 95.2578L74.4277 96.3916C74.082 96.9014 73.6016 97.3262 72.9863 97.666C72.3711 98.0059 71.627 98.1758 70.7539 98.1758C69.8281 98.1758 69.0195 97.9766 68.3281 97.5781C67.6367 97.1738 67.1064 96.623 66.7373 95.9258C66.3682 95.2285 66.1836 94.4463 66.1836 93.5791V93.2188C66.1836 92.2402 66.3711 91.3818 66.7461 90.6436C67.1211 89.8994 67.6367 89.3252 68.293 88.9209C68.9492 88.5166 69.6875 88.3145 70.5078 88.3145C71.4043 88.3145 72.1572 88.5107 72.7666 88.9033C73.376 89.2959 73.8301 89.8467 74.1289 90.5557C74.4336 91.2588 74.5859 92.0762 74.5859 93.0078V93.9307ZM72.4238 92.1816C72.3945 91.5664 72.2275 91.0625 71.9229 90.6699C71.6182 90.2715 71.1436 90.0723 70.499 90.0723C69.9248 90.0723 69.4619 90.2715 69.1104 90.6699C68.7588 91.0684 68.5332 91.6279 68.4336 92.3486H72.4238V92.1816ZM87.9189 91.3379C88.6279 91.5254 89.1641 91.8857 89.5273 92.4189C89.8906 92.9463 90.0723 93.5586 90.0723 94.2559C90.0723 95.4688 89.6826 96.3975 88.9033 97.042C88.124 97.6807 87.0283 98 85.6162 98H81.7578H80.8965V85.2031H85.291C86.7324 85.2031 87.8398 85.4902 88.6133 86.0645C89.3867 86.6328 89.7734 87.5 89.7734 88.666C89.7734 89.2637 89.6123 89.7969 89.29 90.2656C88.9736 90.7344 88.5166 91.0918 87.9189 91.3379ZM83.1729 87.04V90.582H85.3086C86.0059 90.582 86.5449 90.4268 86.9258 90.1162C87.3125 89.8057 87.5059 89.3691 87.5059 88.8066C87.5059 88.1855 87.3271 87.7373 86.9697 87.4619C86.6123 87.1807 86.0527 87.04 85.291 87.04H83.1729ZM85.6162 96.1719C86.3193 96.1719 86.8584 95.999 87.2334 95.6533C87.6143 95.3018 87.8047 94.8359 87.8047 94.2559C87.8047 92.9199 87.1074 92.252 85.7129 92.252H83.1729V96.1719H85.6162ZM93.3242 84.8516C93.7051 84.8516 94.0068 84.9629 94.2295 85.1855C94.4521 85.4023 94.5635 85.6807 94.5635 86.0205C94.5635 86.3545 94.4521 86.6299 94.2295 86.8467C94.0068 87.0635 93.7051 87.1719 93.3242 87.1719C92.9434 87.1719 92.6416 87.0664 92.4189 86.8555C92.1963 86.6387 92.085 86.3604 92.085 86.0205C92.085 85.6807 92.1963 85.4023 92.4189 85.1855C92.6416 84.9629 92.9434 84.8516 93.3242 84.8516ZM92.2256 98V88.4902H94.4141V98H92.2256ZM100.417 96.3652C100.651 96.3652 100.9 96.3359 101.164 96.2773V97.9648C100.742 98.1055 100.268 98.1758 99.7402 98.1758C98.9668 98.1758 98.3574 97.9619 97.9121 97.5342C97.4668 97.1064 97.2441 96.4238 97.2441 95.4863V90.1074H95.6973V88.4902H97.2441V86.1699H99.4326V88.4902H101.103V90.1074H99.4326V95.3369C99.4326 95.7354 99.5146 96.0078 99.6787 96.1543C99.8428 96.2949 100.089 96.3652 100.417 96.3652ZM107.835 85.2031C108.802 85.2031 109.637 85.3789 110.34 85.7305C111.049 86.0762 111.588 86.5596 111.957 87.1807C112.326 87.7959 112.511 88.499 112.511 89.29C112.511 90.1162 112.326 90.8281 111.957 91.4258C111.594 92.0234 111.061 92.4805 110.357 92.7969C109.66 93.1133 108.819 93.2715 107.835 93.2715H105.198V98H102.922V85.2031H107.835ZM107.835 91.4434C108.649 91.4434 109.25 91.2529 109.637 90.8721C110.029 90.4912 110.226 89.9697 110.226 89.3076C110.226 88.8975 110.141 88.5225 109.971 88.1826C109.801 87.8369 109.537 87.5615 109.18 87.3564C108.822 87.1455 108.374 87.04 107.835 87.04H105.198V91.4434H107.835ZM121.678 95.7852C121.678 96.6523 121.798 97.3408 122.038 97.8506V98H119.806C119.712 97.7949 119.63 97.499 119.56 97.1123C119.261 97.4346 118.903 97.6924 118.487 97.8857C118.071 98.0791 117.6 98.1758 117.072 98.1758C116.451 98.1758 115.895 98.0527 115.402 97.8066C114.91 97.5605 114.526 97.2207 114.251 96.7871C113.976 96.3535 113.838 95.8672 113.838 95.3281C113.838 94.3145 114.213 93.5381 114.963 92.999C115.719 92.46 116.788 92.1904 118.171 92.1904H119.489V91.5752C119.489 91.0713 119.352 90.6787 119.076 90.3975C118.801 90.1104 118.394 89.9668 117.854 89.9668C117.532 89.9668 117.248 90.0225 117.002 90.1338C116.756 90.2451 116.565 90.3975 116.431 90.5908C116.296 90.7842 116.229 91.001 116.229 91.2412H114.04C114.04 90.7314 114.201 90.2539 114.523 89.8086C114.852 89.3574 115.314 88.9971 115.912 88.7275C116.516 88.4521 117.204 88.3145 117.978 88.3145C118.704 88.3145 119.346 88.4375 119.902 88.6836C120.459 88.9297 120.893 89.2988 121.203 89.791C121.52 90.2832 121.678 90.8838 121.678 91.5928V95.7852ZM117.494 96.4268C117.951 96.4268 118.355 96.3184 118.707 96.1016C119.064 95.8848 119.325 95.624 119.489 95.3193V93.5439H118.347C117.585 93.5439 117.008 93.6816 116.615 93.957C116.223 94.2324 116.026 94.6191 116.026 95.1172C116.026 95.5039 116.155 95.8203 116.413 96.0664C116.671 96.3066 117.031 96.4268 117.494 96.4268ZM131.486 88.4902L127.698 99.4414C127.458 100.098 127.112 100.66 126.661 101.129C126.216 101.604 125.577 101.841 124.745 101.841C124.458 101.841 124.109 101.788 123.699 101.683V100.004L124.104 100.021C124.625 100.021 125.021 99.9277 125.29 99.7402C125.565 99.5586 125.782 99.2363 125.94 98.7734L126.239 97.9648L122.899 88.4902H125.264L127.241 94.8711L129.157 88.4902H131.486ZM141.813 88.3145C142.604 88.3145 143.278 88.5137 143.835 88.9121C144.397 89.3105 144.822 89.873 145.109 90.5996C145.396 91.3262 145.54 92.1758 145.54 93.1484V93.333C145.54 94.2646 145.394 95.0967 145.101 95.8291C144.813 96.5615 144.392 97.1357 143.835 97.5518C143.278 97.9678 142.613 98.1758 141.84 98.1758C140.82 98.1758 139.994 97.833 139.361 97.1475V101.656H137.173V88.4902H139.186L139.273 89.4482C139.912 88.6924 140.759 88.3145 141.813 88.3145ZM143.352 93.1484C143.352 92.2461 143.173 91.5137 142.815 90.9512C142.464 90.3828 141.928 90.0986 141.207 90.0986C140.352 90.0986 139.736 90.4531 139.361 91.1621V95.3369C139.742 96.0576 140.363 96.418 141.225 96.418C141.939 96.418 142.473 96.1309 142.824 95.5566C143.176 94.9824 143.352 94.2412 143.352 93.333V93.1484ZM151.596 88.3145C151.719 88.3145 151.856 88.3262 152.009 88.3496C152.167 88.373 152.284 88.3994 152.36 88.4287L152.343 90.4941C152.05 90.4473 151.76 90.4238 151.473 90.4238C150.494 90.4238 149.838 90.79 149.504 91.5225V98H147.315V88.4902H149.398L149.46 89.5625C149.7 89.1641 149.999 88.8564 150.356 88.6396C150.714 88.4229 151.127 88.3145 151.596 88.3145ZM161.721 93.9307H155.524C155.565 94.417 155.691 94.8477 155.902 95.2227C156.113 95.5977 156.397 95.8906 156.755 96.1016C157.118 96.3125 157.54 96.418 158.021 96.418C159.005 96.418 159.796 96.0312 160.394 95.2578L161.562 96.3916C161.217 96.9014 160.736 97.3262 160.121 97.666C159.506 98.0059 158.762 98.1758 157.889 98.1758C156.963 98.1758 156.154 97.9766 155.463 97.5781C154.771 97.1738 154.241 96.623 153.872 95.9258C153.503 95.2285 153.318 94.4463 153.318 93.5791V93.2188C153.318 92.2402 153.506 91.3818 153.881 90.6436C154.256 89.8994 154.771 89.3252 155.428 88.9209C156.084 88.5166 156.822 88.3145 157.643 88.3145C158.539 88.3145 159.292 88.5107 159.901 88.9033C160.511 89.2959 160.965 89.8467 161.264 90.5557C161.568 91.2588 161.721 92.0762 161.721 93.0078V93.9307ZM159.559 92.1816C159.529 91.5664 159.362 91.0625 159.058 90.6699C158.753 90.2715 158.278 90.0723 157.634 90.0723C157.06 90.0723 156.597 90.2715 156.245 90.6699C155.894 91.0684 155.668 91.6279 155.568 92.3486H159.559V92.1816ZM167.987 88.3145C168.778 88.3145 169.452 88.5137 170.009 88.9121C170.571 89.3105 170.996 89.873 171.283 90.5996C171.57 91.3262 171.714 92.1758 171.714 93.1484V93.333C171.714 94.2646 171.567 95.0967 171.274 95.8291C170.987 96.5615 170.565 97.1357 170.009 97.5518C169.452 97.9678 168.787 98.1758 168.014 98.1758C166.994 98.1758 166.168 97.833 165.535 97.1475V101.656H163.347V88.4902H165.359L165.447 89.4482C166.086 88.6924 166.933 88.3145 167.987 88.3145ZM169.525 93.1484C169.525 92.2461 169.347 91.5137 168.989 90.9512C168.638 90.3828 168.102 90.0986 167.381 90.0986C166.525 90.0986 165.91 90.4531 165.535 91.1621V95.3369C165.916 96.0576 166.537 96.418 167.398 96.418C168.113 96.418 168.646 96.1309 168.998 95.5566C169.35 94.9824 169.525 94.2412 169.525 93.333V93.1484ZM181.021 95.7852C181.021 96.6523 181.142 97.3408 181.382 97.8506V98H179.149C179.056 97.7949 178.974 97.499 178.903 97.1123C178.604 97.4346 178.247 97.6924 177.831 97.8857C177.415 98.0791 176.943 98.1758 176.416 98.1758C175.795 98.1758 175.238 98.0527 174.746 97.8066C174.254 97.5605 173.87 97.2207 173.595 96.7871C173.319 96.3535 173.182 95.8672 173.182 95.3281C173.182 94.3145 173.557 93.5381 174.307 92.999C175.062 92.46 176.132 92.1904 177.515 92.1904H178.833V91.5752C178.833 91.0713 178.695 90.6787 178.42 90.3975C178.145 90.1104 177.737 89.9668 177.198 89.9668C176.876 89.9668 176.592 90.0225 176.346 90.1338C176.1 90.2451 175.909 90.3975 175.774 90.5908C175.64 90.7842 175.572 91.001 175.572 91.2412H173.384C173.384 90.7314 173.545 90.2539 173.867 89.8086C174.195 89.3574 174.658 88.9971 175.256 88.7275C175.859 88.4521 176.548 88.3145 177.321 88.3145C178.048 88.3145 178.689 88.4375 179.246 88.6836C179.803 88.9297 180.236 89.2988 180.547 89.791C180.863 90.2832 181.021 90.8838 181.021 91.5928V95.7852ZM176.838 96.4268C177.295 96.4268 177.699 96.3184 178.051 96.1016C178.408 95.8848 178.669 95.624 178.833 95.3193V93.5439H177.69C176.929 93.5439 176.352 93.6816 175.959 93.957C175.566 94.2324 175.37 94.6191 175.37 95.1172C175.37 95.5039 175.499 95.8203 175.757 96.0664C176.015 96.3066 176.375 96.4268 176.838 96.4268ZM184.467 84.8516C184.848 84.8516 185.149 84.9629 185.372 85.1855C185.595 85.4023 185.706 85.6807 185.706 86.0205C185.706 86.3545 185.595 86.6299 185.372 86.8467C185.149 87.0635 184.848 87.1719 184.467 87.1719C184.086 87.1719 183.784 87.0664 183.562 86.8555C183.339 86.6387 183.228 86.3604 183.228 86.0205C183.228 85.6807 183.339 85.4023 183.562 85.1855C183.784 84.9629 184.086 84.8516 184.467 84.8516ZM183.368 98V88.4902H185.557V98H183.368ZM195.813 84.5V98H193.836L193.73 97.0068C193.098 97.7861 192.251 98.1758 191.19 98.1758C190.44 98.1758 189.781 97.9678 189.213 97.5518C188.65 97.1357 188.217 96.5615 187.912 95.8291C187.607 95.0967 187.455 94.2705 187.455 93.3506V93.166C187.455 92.2051 187.604 91.3584 187.903 90.626C188.208 89.8936 188.642 89.3252 189.204 88.9209C189.772 88.5166 190.44 88.3145 191.208 88.3145C192.204 88.3145 193.01 88.6631 193.625 89.3604V84.5H195.813ZM191.744 96.3828C192.611 96.3828 193.238 96.002 193.625 95.2402V91.2148C193.244 90.4707 192.623 90.0986 191.762 90.0986C191.047 90.0986 190.514 90.3828 190.162 90.9512C189.816 91.5195 189.644 92.2578 189.644 93.166V93.3506C189.644 94.2529 189.813 94.9854 190.153 95.5479C190.499 96.1045 191.029 96.3828 191.744 96.3828ZM31.458 123H29.1904V118.869L29.4102 113.183L25.6836 123H24.0576L20.3311 113.191L20.5596 118.869V123H18.2832V110.203H20.2168H21.2363L24.875 119.941L28.5049 110.203H31.458V123ZM41.3809 120.785C41.3809 121.652 41.501 122.341 41.7412 122.851V123H39.5088C39.415 122.795 39.333 122.499 39.2627 122.112C38.9639 122.435 38.6064 122.692 38.1904 122.886C37.7744 123.079 37.3027 123.176 36.7754 123.176C36.1543 123.176 35.5977 123.053 35.1055 122.807C34.6133 122.561 34.2295 122.221 33.9541 121.787C33.6787 121.354 33.541 120.867 33.541 120.328C33.541 119.314 33.916 118.538 34.666 117.999C35.4219 117.46 36.4912 117.19 37.874 117.19H39.1924V116.575C39.1924 116.071 39.0547 115.679 38.7793 115.397C38.5039 115.11 38.0967 114.967 37.5576 114.967C37.2354 114.967 36.9512 115.022 36.7051 115.134C36.459 115.245 36.2686 115.397 36.1338 115.591C35.999 115.784 35.9316 116.001 35.9316 116.241H33.7432C33.7432 115.731 33.9043 115.254 34.2266 114.809C34.5547 114.357 35.0176 113.997 35.6152 113.728C36.2188 113.452 36.9072 113.314 37.6807 113.314C38.4072 113.314 39.0488 113.438 39.6055 113.684C40.1621 113.93 40.5957 114.299 40.9062 114.791C41.2227 115.283 41.3809 115.884 41.3809 116.593V120.785ZM37.1973 121.427C37.6543 121.427 38.0586 121.318 38.4102 121.102C38.7676 120.885 39.0283 120.624 39.1924 120.319V118.544H38.0498C37.2881 118.544 36.7109 118.682 36.3184 118.957C35.9258 119.232 35.7295 119.619 35.7295 120.117C35.7295 120.504 35.8584 120.82 36.1162 121.066C36.374 121.307 36.7344 121.427 37.1973 121.427ZM46.874 119.027C45.7842 118.799 44.9434 118.462 44.3516 118.017C43.7598 117.571 43.4639 116.968 43.4639 116.206C43.4639 115.685 43.6133 115.204 43.9121 114.765C44.2168 114.319 44.6475 113.968 45.2041 113.71C45.7666 113.446 46.4141 113.314 47.1465 113.314C47.9258 113.314 48.6025 113.446 49.1768 113.71C49.7568 113.974 50.2021 114.337 50.5127 114.8C50.8232 115.257 50.9785 115.772 50.9785 116.347H48.79C48.79 116.095 48.7256 115.863 48.5967 115.652C48.4736 115.436 48.2891 115.263 48.043 115.134C47.7969 115.005 47.498 114.94 47.1465 114.94C46.6484 114.94 46.2646 115.052 45.9951 115.274C45.7256 115.497 45.5908 115.775 45.5908 116.109C45.5908 116.32 45.6465 116.499 45.7578 116.646C45.875 116.792 46.0742 116.924 46.3555 117.041C46.6367 117.158 47.0264 117.27 47.5244 117.375C48.2979 117.539 48.9395 117.738 49.4492 117.973C49.959 118.207 50.3516 118.512 50.627 118.887C50.9023 119.262 51.04 119.73 51.04 120.293C51.04 120.85 50.8789 121.348 50.5566 121.787C50.2402 122.227 49.7891 122.569 49.2031 122.815C48.6172 123.056 47.9404 123.176 47.1729 123.176C46.3408 123.176 45.6201 123.023 45.0107 122.719C44.4014 122.414 43.9385 122.019 43.6221 121.532C43.3057 121.046 43.1475 120.533 43.1475 119.994H45.2656C45.2891 120.527 45.4854 120.92 45.8545 121.172C46.2295 121.424 46.6807 121.55 47.208 121.55C47.7412 121.55 48.1543 121.447 48.4473 121.242C48.7461 121.031 48.8955 120.753 48.8955 120.407C48.8955 120.185 48.8428 119.994 48.7373 119.836C48.6318 119.678 48.4297 119.531 48.1309 119.396C47.8379 119.262 47.4189 119.139 46.874 119.027ZM56.5947 121.365C56.8291 121.365 57.0781 121.336 57.3418 121.277V122.965C56.9199 123.105 56.4453 123.176 55.918 123.176C55.1445 123.176 54.5352 122.962 54.0898 122.534C53.6445 122.106 53.4219 121.424 53.4219 120.486V115.107H51.875V113.49H53.4219V111.17H55.6104V113.49H57.2803V115.107H55.6104V120.337C55.6104 120.735 55.6924 121.008 55.8564 121.154C56.0205 121.295 56.2666 121.365 56.5947 121.365ZM66.9395 118.931H60.7432C60.7842 119.417 60.9102 119.848 61.1211 120.223C61.332 120.598 61.6162 120.891 61.9736 121.102C62.3369 121.312 62.7588 121.418 63.2393 121.418C64.2236 121.418 65.0146 121.031 65.6123 120.258L66.7812 121.392C66.4355 121.901 65.9551 122.326 65.3398 122.666C64.7246 123.006 63.9805 123.176 63.1074 123.176C62.1816 123.176 61.373 122.977 60.6816 122.578C59.9902 122.174 59.46 121.623 59.0908 120.926C58.7217 120.229 58.5371 119.446 58.5371 118.579V118.219C58.5371 117.24 58.7246 116.382 59.0996 115.644C59.4746 114.899 59.9902 114.325 60.6465 113.921C61.3027 113.517 62.041 113.314 62.8613 113.314C63.7578 113.314 64.5107 113.511 65.1201 113.903C65.7295 114.296 66.1836 114.847 66.4824 115.556C66.7871 116.259 66.9395 117.076 66.9395 118.008V118.931ZM64.7773 117.182C64.748 116.566 64.5811 116.062 64.2764 115.67C63.9717 115.271 63.4971 115.072 62.8525 115.072C62.2783 115.072 61.8154 115.271 61.4639 115.67C61.1123 116.068 60.8867 116.628 60.7871 117.349H64.7773V117.182ZM72.8457 113.314C72.9688 113.314 73.1064 113.326 73.2588 113.35C73.417 113.373 73.5342 113.399 73.6104 113.429L73.5928 115.494C73.2998 115.447 73.0098 115.424 72.7227 115.424C71.7441 115.424 71.0879 115.79 70.7539 116.522V123H68.5654V113.49H70.6484L70.71 114.562C70.9502 114.164 71.249 113.856 71.6064 113.64C71.9639 113.423 72.377 113.314 72.8457 113.314ZM82.6543 119.836C82.6367 120.445 82.4521 121.005 82.1006 121.515C81.749 122.024 81.2803 122.429 80.6943 122.728C80.1084 123.026 79.4668 123.176 78.7695 123.176C77.8262 123.176 77.0264 122.965 76.3701 122.543C75.7197 122.121 75.2334 121.55 74.9111 120.829C74.5889 120.103 74.4277 119.291 74.4277 118.395V118.096C74.4277 117.199 74.5889 116.391 74.9111 115.67C75.2393 114.943 75.7285 114.369 76.3789 113.947C77.0293 113.525 77.8232 113.314 78.7607 113.314C79.5166 113.314 80.1846 113.467 80.7646 113.771C81.3506 114.07 81.8076 114.492 82.1357 115.037C82.4639 115.582 82.6367 116.206 82.6543 116.909H80.5889C80.5713 116.569 80.4863 116.262 80.334 115.986C80.1816 115.705 79.9678 115.482 79.6924 115.318C79.4229 115.154 79.1035 115.072 78.7344 115.072C77.9551 115.072 77.4072 115.356 77.0908 115.925C76.7744 116.493 76.6162 117.217 76.6162 118.096V118.395C76.6162 120.41 77.3252 121.418 78.7432 121.418C79.0771 121.418 79.3818 121.351 79.6572 121.216C79.9326 121.081 80.1523 120.894 80.3164 120.653C80.4805 120.413 80.5713 120.141 80.5889 119.836H82.6543ZM91.7773 120.785C91.7773 121.652 91.8975 122.341 92.1377 122.851V123H89.9053C89.8115 122.795 89.7295 122.499 89.6592 122.112C89.3604 122.435 89.0029 122.692 88.5869 122.886C88.1709 123.079 87.6992 123.176 87.1719 123.176C86.5508 123.176 85.9941 123.053 85.502 122.807C85.0098 122.561 84.626 122.221 84.3506 121.787C84.0752 121.354 83.9375 120.867 83.9375 120.328C83.9375 119.314 84.3125 118.538 85.0625 117.999C85.8184 117.46 86.8877 117.19 88.2705 117.19H89.5889V116.575C89.5889 116.071 89.4512 115.679 89.1758 115.397C88.9004 115.11 88.4932 114.967 87.9541 114.967C87.6318 114.967 87.3477 115.022 87.1016 115.134C86.8555 115.245 86.665 115.397 86.5303 115.591C86.3955 115.784 86.3281 116.001 86.3281 116.241H84.1396C84.1396 115.731 84.3008 115.254 84.623 114.809C84.9512 114.357 85.4141 113.997 86.0117 113.728C86.6152 113.452 87.3037 113.314 88.0771 113.314C88.8037 113.314 89.4453 113.438 90.002 113.684C90.5586 113.93 90.9922 114.299 91.3027 114.791C91.6191 115.283 91.7773 115.884 91.7773 116.593V120.785ZM87.5938 121.427C88.0508 121.427 88.4551 121.318 88.8066 121.102C89.1641 120.885 89.4248 120.624 89.5889 120.319V118.544H88.4463C87.6846 118.544 87.1074 118.682 86.7148 118.957C86.3223 119.232 86.126 119.619 86.126 120.117C86.126 120.504 86.2549 120.82 86.5127 121.066C86.7705 121.307 87.1309 121.427 87.5938 121.427ZM98.2637 113.314C98.3867 113.314 98.5244 113.326 98.6768 113.35C98.835 113.373 98.9521 113.399 99.0283 113.429L99.0107 115.494C98.7178 115.447 98.4277 115.424 98.1406 115.424C97.1621 115.424 96.5059 115.79 96.1719 116.522V123H93.9834V113.49H96.0664L96.1279 114.562C96.3682 114.164 96.667 113.856 97.0244 113.64C97.3818 113.423 97.7949 113.314 98.2637 113.314ZM108.31 109.5V123H106.332L106.227 122.007C105.594 122.786 104.747 123.176 103.687 123.176C102.937 123.176 102.277 122.968 101.709 122.552C101.146 122.136 100.713 121.562 100.408 120.829C100.104 120.097 99.9512 119.271 99.9512 118.351V118.166C99.9512 117.205 100.101 116.358 100.399 115.626C100.704 114.894 101.138 114.325 101.7 113.921C102.269 113.517 102.937 113.314 103.704 113.314C104.7 113.314 105.506 113.663 106.121 114.36V109.5H108.31ZM104.24 121.383C105.107 121.383 105.734 121.002 106.121 120.24V116.215C105.74 115.471 105.119 115.099 104.258 115.099C103.543 115.099 103.01 115.383 102.658 115.951C102.312 116.52 102.14 117.258 102.14 118.166V118.351C102.14 119.253 102.31 119.985 102.649 120.548C102.995 121.104 103.525 121.383 104.24 121.383ZM116.448 110.027C117.579 110.027 118.622 110.317 119.577 110.897C120.532 111.472 121.288 112.263 121.845 113.271C122.407 114.272 122.688 115.38 122.688 116.593C122.688 117.812 122.407 118.925 121.845 119.933C121.288 120.935 120.532 121.729 119.577 122.314C118.622 122.895 117.579 123.185 116.448 123.185C115.312 123.185 114.266 122.895 113.311 122.314C112.361 121.729 111.605 120.935 111.043 119.933C110.486 118.925 110.208 117.812 110.208 116.593C110.208 115.374 110.486 114.264 111.043 113.262C111.605 112.26 112.361 111.472 113.311 110.897C114.266 110.317 115.312 110.027 116.448 110.027ZM116.448 122.086C117.386 122.086 118.247 121.846 119.032 121.365C119.823 120.879 120.45 120.217 120.913 119.379C121.376 118.535 121.607 117.606 121.607 116.593C121.607 115.579 121.376 114.656 120.913 113.824C120.45 112.986 119.823 112.327 119.032 111.847C118.247 111.366 117.386 111.126 116.448 111.126C115.505 111.126 114.638 111.366 113.847 111.847C113.062 112.327 112.438 112.986 111.975 113.824C111.512 114.656 111.28 115.579 111.28 116.593C111.28 117.606 111.512 118.535 111.975 119.379C112.438 120.217 113.064 120.879 113.855 121.365C114.646 121.846 115.511 122.086 116.448 122.086ZM119.155 118.966C119.155 119.481 119.205 119.854 119.305 120.082V120.223H117.942C117.866 120.023 117.828 119.602 117.828 118.957V118.482C117.828 118.061 117.731 117.753 117.538 117.56C117.345 117.36 117.022 117.261 116.571 117.261H115.183V120.223H113.855V112.752H116.325C117.216 112.752 117.913 112.948 118.417 113.341C118.927 113.728 119.182 114.293 119.182 115.037C119.182 115.717 118.836 116.241 118.145 116.61C118.818 116.927 119.155 117.548 119.155 118.474V118.966ZM116.439 116.083C116.844 116.077 117.181 115.986 117.45 115.811C117.726 115.629 117.863 115.38 117.863 115.063C117.863 114.776 117.813 114.551 117.714 114.387C117.62 114.223 117.462 114.105 117.239 114.035C117.017 113.959 116.712 113.921 116.325 113.921H115.183V116.083H116.439Z" fill="white"/>
    </g>
</svg>
