<svg width="215" height="250" viewBox="0 0 215 250" fill="none" xmlns="http://www.w3.org/2000/svg">
<rect width="215" height="250" rx="21" fill="#0C204E"/>
<rect x="15.6094" y="147" width="62" height="23" rx="7" fill="#CBF3E8"/>
<path d="M28.2646 162.002H26.6309V159.062H24.0332V157.518H26.6309V154.756H28.2646V157.518H30.8555V159.062H28.2646V162.002Z" fill="#434D5A"/>
<path d="M43.0537 163H36.3477V161.831L39.5879 158.311C40.1211 157.723 40.4857 157.246 40.6816 156.882C40.8776 156.517 40.9756 156.171 40.9756 155.843C40.9756 155.382 40.848 155.007 40.5928 154.715C40.3421 154.419 39.9821 154.271 39.5127 154.271C38.9613 154.271 38.5465 154.444 38.2686 154.79C37.9906 155.132 37.8516 155.567 37.8516 156.096H36.1562C36.1562 155.512 36.2884 154.979 36.5527 154.496C36.8216 154.013 37.2067 153.628 37.708 153.341C38.2139 153.054 38.8223 152.91 39.5332 152.91C40.5358 152.91 41.3105 153.159 41.8574 153.655C42.4043 154.152 42.6777 154.822 42.6777 155.665C42.6777 156.299 42.484 156.914 42.0967 157.511C41.7093 158.108 41.2148 158.723 40.6133 159.356L38.4873 161.64H43.0537V163ZM44.4893 162.152C44.4893 161.883 44.5758 161.66 44.749 161.482C44.9268 161.3 45.1683 161.209 45.4736 161.209C45.7835 161.209 46.0251 161.3 46.1982 161.482C46.376 161.66 46.4648 161.883 46.4648 162.152C46.4648 162.412 46.376 162.631 46.1982 162.809C46.0251 162.986 45.7835 163.075 45.4736 163.075C45.1683 163.075 44.9268 162.986 44.749 162.809C44.5758 162.631 44.4893 162.412 44.4893 162.152ZM48.6523 158.064L49.1992 153.047H54.5859V154.496H50.6074L50.3408 156.868C50.4912 156.782 50.7008 156.695 50.9697 156.608C51.2432 156.517 51.5531 156.472 51.8994 156.472C52.8428 156.472 53.5788 156.77 54.1074 157.367C54.6361 157.96 54.9004 158.775 54.9004 159.814C54.9004 160.421 54.7819 160.977 54.5449 161.482C54.3079 161.984 53.9456 162.385 53.458 162.686C52.9749 162.986 52.3643 163.137 51.626 163.137C51.0654 163.137 50.5436 163.027 50.0605 162.809C49.5775 162.59 49.181 162.271 48.8711 161.852C48.5612 161.428 48.3903 160.908 48.3584 160.293H50.0195C50.0742 160.767 50.2406 161.134 50.5186 161.394C50.8011 161.649 51.168 161.776 51.6191 161.776C52.1569 161.776 52.5557 161.587 52.8154 161.209C53.0752 160.831 53.2051 160.345 53.2051 159.753C53.2051 159.188 53.0592 158.725 52.7676 158.365C52.4759 158.001 52.0384 157.818 51.4551 157.818C51.0677 157.818 50.7715 157.875 50.5664 157.989C50.3659 158.103 50.1813 158.24 50.0127 158.399L48.6523 158.064ZM56.1514 154.961C56.1514 154.396 56.3337 153.913 56.6982 153.512C57.0674 153.106 57.5892 152.903 58.2637 152.903C58.9473 152.903 59.4714 153.106 59.8359 153.512C60.2005 153.913 60.3828 154.396 60.3828 154.961V155.487C60.3828 155.856 60.3008 156.196 60.1367 156.506C59.9727 156.816 59.7334 157.064 59.4189 157.251C59.109 157.438 58.7285 157.531 58.2773 157.531C57.8216 157.531 57.4365 157.438 57.1221 157.251C56.8076 157.064 56.5661 156.816 56.3975 156.506C56.2334 156.196 56.1514 155.856 56.1514 155.487V154.961ZM57.3271 155.487C57.3271 155.752 57.4046 155.991 57.5596 156.205C57.7145 156.415 57.9538 156.52 58.2773 156.52C58.5918 156.52 58.8242 156.415 58.9746 156.205C59.1296 155.995 59.207 155.756 59.207 155.487V154.961C59.207 154.688 59.1296 154.446 58.9746 154.236C58.8197 154.022 58.5827 153.915 58.2637 153.915C57.9492 153.915 57.7145 154.022 57.5596 154.236C57.4046 154.446 57.3271 154.688 57.3271 154.961V155.487ZM58.6191 162.248L57.7578 161.756L62.6182 153.977L63.4795 154.469L58.6191 162.248ZM60.9434 160.56C60.9434 160.186 61.0254 159.844 61.1895 159.534C61.3581 159.224 61.5996 158.976 61.9141 158.789C62.2285 158.602 62.609 158.509 63.0557 158.509C63.7393 158.509 64.2633 158.712 64.6279 159.117C64.9925 159.518 65.1748 159.999 65.1748 160.56V161.093C65.1748 161.653 64.9925 162.136 64.6279 162.542C64.2679 162.943 63.7484 163.144 63.0693 163.144C62.6182 163.144 62.2331 163.05 61.9141 162.863C61.5996 162.676 61.3581 162.428 61.1895 162.118C61.0254 161.808 60.9434 161.466 60.9434 161.093V160.56ZM62.1123 161.093C62.1123 161.362 62.1943 161.601 62.3584 161.811C62.527 162.02 62.764 162.125 63.0693 162.125C63.4111 162.125 63.6527 162.02 63.7939 161.811C63.9352 161.601 64.0059 161.362 64.0059 161.093V160.56C64.0059 160.291 63.9261 160.051 63.7666 159.842C63.6117 159.628 63.3747 159.521 63.0557 159.521C62.7412 159.521 62.5042 159.628 62.3447 159.842C62.1898 160.051 62.1123 160.291 62.1123 160.56V161.093Z" fill="#434D5A"/>
<path d="M25.7935 118.013C27.2869 118.618 28.4928 119.214 29.4111 119.799C30.3395 120.374 31.0711 121.09 31.606 121.948C32.1408 122.806 32.4082 123.871 32.4082 125.142C32.4082 126.313 32.161 127.332 31.6665 128.2C31.172 129.068 30.4707 129.764 29.5625 130.289C28.6543 130.803 27.5897 131.126 26.3687 131.257V134.27H23.9619V131.257C22.751 131.126 21.651 130.793 20.6621 130.258C19.6732 129.723 18.876 128.941 18.2705 127.912C17.665 126.873 17.3623 125.576 17.3623 124.022H21.9336C21.9336 125.314 22.2363 126.247 22.8418 126.822C23.4473 127.387 24.2142 127.67 25.1426 127.67C26.0205 127.67 26.6916 127.443 27.1558 126.989C27.62 126.525 27.8521 125.919 27.8521 125.172C27.8521 124.617 27.7511 124.153 27.5493 123.78C27.3576 123.396 27.0448 123.058 26.6108 122.766C26.187 122.473 25.5967 122.18 24.8398 121.888C23.3262 121.302 22.1051 120.727 21.1768 120.162C20.2484 119.587 19.5168 118.87 18.9819 118.013C18.4471 117.155 18.1797 116.085 18.1797 114.804C18.1797 113.674 18.432 112.669 18.9365 111.792C19.4411 110.914 20.1525 110.207 21.0708 109.672C21.9891 109.138 23.0537 108.81 24.2646 108.688V105.464H26.6714V108.734C27.842 108.905 28.8612 109.294 29.729 109.899C30.5968 110.505 31.2629 111.307 31.7271 112.306C32.2013 113.305 32.4385 114.461 32.4385 115.772H27.8823C27.8823 114.622 27.6452 113.754 27.1709 113.169C26.6966 112.584 26.0508 112.291 25.2334 112.291C24.4059 112.291 23.7853 112.528 23.3716 113.002C22.9578 113.467 22.751 114.077 22.751 114.834C22.751 115.328 22.8418 115.752 23.0234 116.105C23.2152 116.459 23.528 116.787 23.9619 117.089C24.3958 117.392 25.0063 117.7 25.7935 118.013ZM35.2993 131V127.867L42.4287 120.329C43.4378 119.208 44.1543 118.265 44.5781 117.498C45.012 116.721 45.229 116.02 45.229 115.394C45.229 114.425 44.9868 113.674 44.5024 113.139C44.0282 112.594 43.3521 112.321 42.4741 112.321C41.8485 112.321 41.3035 112.478 40.8394 112.791C40.3853 113.103 40.0371 113.537 39.7949 114.092C39.5527 114.637 39.4316 115.258 39.4316 115.954H34.8604C34.8604 114.612 35.1782 113.386 35.814 112.276C36.4497 111.156 37.3529 110.273 38.5234 109.627C39.694 108.971 41.0412 108.643 42.5649 108.643C44.119 108.643 45.4359 108.895 46.5156 109.4C47.5954 109.894 48.4128 110.616 48.9678 111.564C49.5228 112.503 49.8003 113.633 49.8003 114.955C49.8003 115.914 49.6035 116.842 49.21 117.74C48.8265 118.638 48.2816 119.536 47.5752 120.435C46.8789 121.323 45.9657 122.352 44.8354 123.522L41.2026 127.322H50.4663V131H35.2993ZM57.6108 130.304C57.6108 131.464 57.3283 132.63 56.7632 133.8C56.1981 134.971 55.4715 135.935 54.5835 136.691L52.2373 135.48L52.5098 134.966C52.9336 134.189 53.2565 133.477 53.4785 132.832C53.7106 132.196 53.8267 131.434 53.8267 130.546V127.231H57.626L57.6108 130.304ZM67.147 131V114.35L61.9702 115.909V112.23L71.2339 108.946H71.7031V131H67.147ZM89.9883 119.678C91.1891 120.112 92.1024 120.768 92.728 121.646C93.3537 122.523 93.6665 123.578 93.6665 124.809C93.6665 126.151 93.3234 127.312 92.6372 128.291C91.951 129.269 91.0075 130.016 89.8066 130.531C88.6159 131.045 87.2637 131.303 85.75 131.303C84.4482 131.303 83.2171 131.071 82.0566 130.606C80.9062 130.132 79.9728 129.416 79.2563 128.457C78.5399 127.498 78.1816 126.323 78.1816 124.93H82.7529C82.7529 125.435 82.8892 125.894 83.1616 126.308C83.4341 126.721 83.8075 127.044 84.2817 127.276C84.756 127.508 85.2858 127.625 85.8711 127.625C86.5371 127.625 87.1123 127.503 87.5967 127.261C88.0911 127.009 88.4645 126.666 88.7168 126.232C88.9792 125.798 89.1104 125.299 89.1104 124.733C89.1104 122.594 87.9448 121.524 85.6138 121.524H83.2524V119.118V117.967H85.6138C86.6431 117.967 87.4251 117.705 87.96 117.18C88.4948 116.655 88.7622 115.934 88.7622 115.016C88.7622 114.218 88.515 113.573 88.0205 113.078C87.5361 112.574 86.8197 112.321 85.8711 112.321C85.3665 112.321 84.8973 112.417 84.4634 112.609C84.0295 112.801 83.6813 113.073 83.4189 113.426C83.1667 113.779 83.0405 114.188 83.0405 114.652H78.4692C78.4692 113.462 78.7922 112.412 79.438 111.504C80.0939 110.586 80.9769 109.879 82.0869 109.385C83.1969 108.89 84.418 108.643 85.75 108.643C87.2637 108.643 88.5907 108.885 89.731 109.37C90.8713 109.844 91.7542 110.555 92.3799 111.504C93.0156 112.442 93.3335 113.588 93.3335 114.94C93.3335 115.919 93.0358 116.832 92.4404 117.68C91.8551 118.527 91.0378 119.193 89.9883 119.678ZM103.854 108.643C105.337 108.643 106.649 109.011 107.789 109.748C108.929 110.475 109.812 111.519 110.438 112.881C111.074 114.244 111.392 115.833 111.392 117.649V119.269C111.392 121.751 110.948 123.891 110.06 125.687C109.182 127.483 107.895 128.861 106.2 129.819C104.504 130.778 102.456 131.257 100.054 131.257H99.7061V127.428H99.9937C102.103 127.428 103.712 127.004 104.822 126.156C105.932 125.309 106.578 124.017 106.76 122.281C106.225 122.786 105.619 123.184 104.943 123.477C104.277 123.76 103.576 123.901 102.839 123.901C101.497 123.901 100.342 123.588 99.373 122.962C98.4043 122.327 97.6626 121.449 97.1479 120.329C96.6434 119.208 96.3911 117.922 96.3911 116.469C96.3911 115.036 96.7039 113.724 97.3296 112.533C97.9552 111.342 98.8332 110.399 99.9634 109.703C101.094 108.996 102.39 108.643 103.854 108.643ZM103.99 120.419C104.636 120.419 105.201 120.258 105.685 119.935C106.18 119.612 106.558 119.198 106.82 118.694V116.802C106.82 115.349 106.548 114.244 106.003 113.487C105.458 112.72 104.736 112.336 103.838 112.336C103.253 112.336 102.738 112.533 102.294 112.927C101.861 113.31 101.528 113.815 101.295 114.44C101.063 115.066 100.947 115.732 100.947 116.438C100.947 117.599 101.21 118.553 101.734 119.299C102.259 120.046 103.011 120.419 103.99 120.419ZM117.371 126.323C117.875 126.323 118.324 126.429 118.718 126.641C119.111 126.853 119.414 127.145 119.626 127.519C119.838 127.882 119.944 128.291 119.944 128.745C119.944 129.199 119.838 129.612 119.626 129.986C119.414 130.349 119.111 130.637 118.718 130.849C118.324 131.061 117.875 131.167 117.371 131.167C116.866 131.167 116.417 131.061 116.023 130.849C115.64 130.637 115.342 130.349 115.13 129.986C114.918 129.612 114.812 129.199 114.812 128.745C114.812 128.291 114.918 127.882 115.13 127.519C115.342 127.145 115.64 126.853 116.023 126.641C116.417 126.429 116.866 126.323 117.371 126.323ZM138.471 121.918C138.471 124.037 138.163 125.798 137.548 127.201C136.932 128.593 136.064 129.628 134.944 130.304C133.834 130.97 132.517 131.303 130.994 131.303C129.47 131.303 128.143 130.97 127.013 130.304C125.893 129.628 125.02 128.593 124.394 127.201C123.768 125.798 123.456 124.037 123.456 121.918V118.013C123.456 115.894 123.763 114.138 124.379 112.745C125.005 111.353 125.877 110.323 126.998 109.657C128.118 108.991 129.44 108.658 130.963 108.658C132.487 108.658 133.809 108.991 134.929 109.657C136.049 110.323 136.917 111.353 137.533 112.745C138.158 114.138 138.471 115.894 138.471 118.013V121.918ZM133.9 117.392C133.9 115.586 133.653 114.294 133.158 113.517C132.664 112.73 131.932 112.336 130.963 112.336C129.995 112.336 129.263 112.73 128.769 113.517C128.274 114.294 128.027 115.586 128.027 117.392V122.523C128.027 124.35 128.274 125.657 128.769 126.444C129.273 127.231 130.015 127.625 130.994 127.625C131.962 127.625 132.689 127.231 133.173 126.444C133.658 125.657 133.9 124.35 133.9 122.523V117.392ZM156.862 126.262H154.44V131H149.869V126.262H140.969L140.742 123.371L149.839 108.961H153.457H154.44V122.584H156.862V126.262ZM149.869 122.584V115.152L149.566 115.682L145.222 122.584H149.869Z" fill="white"/>
<path d="M25.4785 93.9336V95H20.2217H19.1553V85.0469H20.4814H25.4102V86.1201H20.4814V89.3262H24.7812V90.3926H20.4814V93.9336H25.4785ZM30.0518 95C29.7601 95.0911 29.4342 95.1367 29.0742 95.1367C28.5592 95.1367 28.1445 94.9818 27.8301 94.6719C27.5202 94.362 27.3652 93.8584 27.3652 93.1611V88.5674H26.0186V87.6035H27.3652V85.8057H28.6436V87.6035H30.0244V88.5674H28.6436V93.168C28.6436 93.5189 28.7165 93.7559 28.8623 93.8789C29.0081 93.9974 29.2064 94.0566 29.457 94.0566C29.5527 94.0566 29.6576 94.0498 29.7715 94.0361C29.8854 94.0179 29.9766 93.9997 30.0449 93.9814L30.0518 95ZM34.9463 87.4668C36.5277 87.4668 37.3184 88.3623 37.3184 90.1533V95H36.04V90.1396C36.04 89.5745 35.917 89.1644 35.6709 88.9092C35.4294 88.654 35.0625 88.5264 34.5703 88.5264C34.1784 88.5264 33.8252 88.6335 33.5107 88.8477C33.2008 89.0618 32.9548 89.349 32.7725 89.709V95H31.4941V84.5H32.7725V88.4785C33.0413 88.1549 33.3604 87.9066 33.7295 87.7334C34.0986 87.5557 34.5042 87.4668 34.9463 87.4668ZM45.166 91.6504H40.1621C40.1758 92.1107 40.2715 92.5277 40.4492 92.9014C40.627 93.2751 40.8776 93.5713 41.2012 93.79C41.5293 94.0042 41.9121 94.1113 42.3496 94.1113C42.778 94.1113 43.1471 94.0247 43.457 93.8516C43.7715 93.6784 44.0518 93.43 44.2979 93.1064L45.0703 93.708C44.7969 94.1273 44.4323 94.4714 43.9766 94.7402C43.5208 95.0046 42.9557 95.1367 42.2812 95.1367C41.6068 95.1367 41.012 94.984 40.4971 94.6787C39.9821 94.3734 39.5833 93.9495 39.3008 93.4072C39.0228 92.8649 38.8838 92.2497 38.8838 91.5615V91.2676C38.8838 90.4974 39.0342 89.8252 39.335 89.251C39.6357 88.6722 40.0322 88.2301 40.5244 87.9248C41.0212 87.6195 41.5521 87.4668 42.1172 87.4668C42.8053 87.4668 43.375 87.6217 43.8262 87.9316C44.2819 88.237 44.6191 88.6608 44.8379 89.2031C45.0566 89.7454 45.166 90.3721 45.166 91.083V91.6504ZM43.8877 90.5293C43.8512 89.9505 43.694 89.4674 43.416 89.0801C43.1426 88.6882 42.7096 88.4922 42.1172 88.4922C41.6068 88.4922 41.1807 88.679 40.8389 89.0527C40.5016 89.4219 40.2897 89.946 40.2031 90.625H43.8877V90.5293ZM49.6641 87.4668C49.7461 87.4668 49.8486 87.4782 49.9717 87.501C50.0947 87.5192 50.179 87.5397 50.2246 87.5625V88.7314C50.0286 88.695 49.8213 88.6768 49.6025 88.6768C49.1833 88.6768 48.8324 88.7702 48.5498 88.957C48.2718 89.1439 48.0622 89.4059 47.9209 89.7432V95H46.6426V87.6035H47.8867L47.9141 88.4443C48.1055 88.1344 48.347 87.8952 48.6387 87.7266C48.9303 87.5534 49.2721 87.4668 49.6641 87.4668ZM57.3477 91.6504H52.3438C52.3574 92.1107 52.4531 92.5277 52.6309 92.9014C52.8086 93.2751 53.0592 93.5713 53.3828 93.79C53.7109 94.0042 54.0938 94.1113 54.5312 94.1113C54.9596 94.1113 55.3288 94.0247 55.6387 93.8516C55.9531 93.6784 56.2334 93.43 56.4795 93.1064L57.252 93.708C56.9785 94.1273 56.6139 94.4714 56.1582 94.7402C55.7025 95.0046 55.1374 95.1367 54.4629 95.1367C53.7884 95.1367 53.1937 94.984 52.6787 94.6787C52.1637 94.3734 51.765 93.9495 51.4824 93.4072C51.2044 92.8649 51.0654 92.2497 51.0654 91.5615V91.2676C51.0654 90.4974 51.2158 89.8252 51.5166 89.251C51.8174 88.6722 52.2139 88.2301 52.7061 87.9248C53.2028 87.6195 53.7337 87.4668 54.2988 87.4668C54.987 87.4668 55.5566 87.6217 56.0078 87.9316C56.4635 88.237 56.8008 88.6608 57.0195 89.2031C57.2383 89.7454 57.3477 90.3721 57.3477 91.083V91.6504ZM56.0693 90.5293C56.0329 89.9505 55.8757 89.4674 55.5977 89.0801C55.3242 88.6882 54.8913 88.4922 54.2988 88.4922C53.7884 88.4922 53.3623 88.679 53.0205 89.0527C52.6833 89.4219 52.4714 89.946 52.3848 90.625H56.0693V90.5293ZM64.6279 87.6035V95H63.4111L63.3906 94.2686C62.8984 94.8473 62.1761 95.1367 61.2236 95.1367C60.4626 95.1367 59.8678 94.9134 59.4395 94.4668C59.0111 94.0202 58.7969 93.3229 58.7969 92.375V87.6035H60.0752V92.3887C60.0752 93.0039 60.2005 93.4391 60.4512 93.6943C60.7064 93.945 61.0322 94.0703 61.4287 94.0703C62.3857 94.0703 63.026 93.7126 63.3496 92.9971V87.6035H64.6279ZM74.4375 87.4668C75.2487 87.4668 75.8639 87.6833 76.2832 88.1162C76.7025 88.5492 76.9121 89.2236 76.9121 90.1396V95H75.6338V90.126C75.6338 89.5381 75.4993 89.1257 75.2305 88.8887C74.9661 88.6471 74.5765 88.5264 74.0615 88.5264C73.7334 88.5264 73.4463 88.597 73.2002 88.7383C72.9541 88.875 72.7604 89.0618 72.6191 89.2988C72.4824 89.5358 72.3981 89.8024 72.3662 90.0986V95H71.0879V90.1328C71.0879 89.0618 70.5615 88.5264 69.5088 88.5264C69.085 88.5264 68.734 88.6198 68.4561 88.8066C68.1781 88.9889 67.9661 89.2441 67.8203 89.5723V95H66.542V87.6035H67.752L67.793 88.4033C68.0482 88.1025 68.3581 87.8724 68.7227 87.7129C69.0872 87.5488 69.5042 87.4668 69.9736 87.4668C70.4613 87.4668 70.8874 87.5648 71.252 87.7607C71.6211 87.9521 71.8991 88.2461 72.0859 88.6426C72.3411 88.278 72.667 87.9909 73.0635 87.7812C73.4645 87.5716 73.9225 87.4668 74.4375 87.4668Z" fill="#F5F7F8"/>
<circle cx="184.653" cy="217.653" r="14.6535" transform="rotate(180 184.653 217.653)" fill="white" fill-opacity="0.2"/>
<path fill-rule="evenodd" clip-rule="evenodd" d="M185.844 211.793L184.562 213.018L188.5 216.78L177.327 216.78L177.327 218.529L188.5 218.529L184.562 222.291L185.844 223.516L191.98 217.655L185.844 211.793Z" fill="white"/>
<rect x="16.0635" y="18" width="30" height="30" rx="15" fill="#6B71D6"/>
<path fill-rule="evenodd" clip-rule="evenodd" d="M31.2775 23.2915C31.2339 23.3969 29.918 25.6297 28.3533 28.2535C26.7885 30.8772 25.4952 33.0583 25.4792 33.1004C25.4585 33.1552 26.3086 33.6896 28.46 34.9743L31.4699 36.7715L34.479 34.9733C36.6408 33.6814 37.4799 33.1533 37.4589 33.098C37.3501 32.8116 31.4988 23.1 31.4349 23.1C31.3919 23.1 31.321 23.1862 31.2775 23.2915ZM25.4864 34.393C25.6024 34.5934 31.4451 42.9008 31.4695 42.9C31.5099 42.8988 37.4835 34.3683 37.4604 34.345C37.4386 34.323 31.855 37.6462 31.6221 37.8198L31.4793 37.9263L28.5883 36.2014C26.9983 35.2528 25.6387 34.4383 25.5669 34.3916C25.448 34.3142 25.4409 34.3143 25.4864 34.393Z" fill="white"/>
</svg>
