<svg width="215" height="250" viewBox="0 0 215 250" fill="none" xmlns="http://www.w3.org/2000/svg">
<rect width="215" height="250" rx="21" fill="#0C204E"/>
<rect x="15.6094" y="147" width="62" height="23" rx="7" fill="#CBF3E8"/>
<path d="M32.8896 159.056H30.3057V162.002H28.665V159.056H26.0674V157.511H28.665V154.756H30.3057V157.511H32.8896V159.056ZM37.627 163V161.824L40.8672 158.311C41.2227 157.914 41.5007 157.575 41.7012 157.292C41.9017 157.005 42.043 156.747 42.125 156.52C42.2116 156.292 42.2549 156.064 42.2549 155.836C42.2549 155.371 42.125 154.995 41.8652 154.708C41.61 154.421 41.2546 154.277 40.7988 154.277C40.2611 154.277 39.8486 154.444 39.5615 154.776C39.279 155.104 39.1377 155.542 39.1377 156.089H37.4355C37.4355 155.501 37.57 154.965 37.8389 154.482C38.1077 153.999 38.4974 153.617 39.0078 153.334C39.5182 153.051 40.1221 152.91 40.8193 152.91C41.4801 152.91 42.0452 153.022 42.5146 153.245C42.984 153.468 43.3418 153.787 43.5879 154.202C43.834 154.612 43.957 155.098 43.957 155.658C43.957 156.242 43.7839 156.825 43.4375 157.408C43.0911 157.987 42.5853 158.625 41.9199 159.322L39.7598 161.633H44.3398V163H37.627ZM46.7666 161.209C47.0674 161.209 47.3066 161.298 47.4844 161.476C47.6621 161.653 47.751 161.879 47.751 162.152C47.751 162.421 47.6621 162.645 47.4844 162.822C47.3066 162.995 47.0674 163.082 46.7666 163.082C46.4613 163.082 46.2197 162.995 46.042 162.822C45.8643 162.645 45.7754 162.421 45.7754 162.152C45.7754 161.879 45.8643 161.653 46.042 161.476C46.2197 161.298 46.4613 161.209 46.7666 161.209ZM50.5059 153.047H55.8789V154.503H51.9141L51.6475 156.854C51.8389 156.75 52.0667 156.659 52.3311 156.581C52.5999 156.504 52.8893 156.465 53.1992 156.465C53.8236 156.465 54.359 156.599 54.8057 156.868C55.2568 157.137 55.6009 157.524 55.8379 158.03C56.0794 158.532 56.2002 159.126 56.2002 159.814C56.2002 160.443 56.0771 161.008 55.8311 161.51C55.5895 162.011 55.2227 162.408 54.7305 162.699C54.2383 162.991 53.6344 163.137 52.9189 163.137C52.3493 163.137 51.8229 163.027 51.3398 162.809C50.8568 162.585 50.4648 162.262 50.1641 161.838C49.8633 161.41 49.6947 160.897 49.6582 160.3H51.3125C51.3717 160.769 51.5404 161.132 51.8184 161.387C52.0964 161.642 52.4609 161.77 52.9121 161.77C53.4316 161.77 53.8258 161.587 54.0947 161.223C54.3682 160.858 54.5049 160.37 54.5049 159.76C54.5049 159.176 54.3522 158.709 54.0469 158.358C53.7461 158.003 53.3154 157.825 52.7549 157.825C52.5133 157.825 52.306 157.85 52.1328 157.9C51.9642 157.946 51.8206 158.01 51.7021 158.092C51.5882 158.169 51.4606 158.274 51.3193 158.406L49.959 158.064L50.5059 153.047ZM57.4443 154.961C57.4443 154.583 57.5286 154.236 57.6973 153.922C57.8659 153.607 58.1097 153.359 58.4287 153.177C58.7477 152.994 59.1237 152.903 59.5566 152.903C59.9987 152.903 60.3792 152.994 60.6982 153.177C61.0218 153.359 61.2656 153.607 61.4297 153.922C61.5938 154.232 61.6758 154.578 61.6758 154.961V155.487C61.6758 155.866 61.5938 156.21 61.4297 156.52C61.2656 156.829 61.0241 157.076 60.7051 157.258C60.3861 157.44 60.0078 157.531 59.5703 157.531C59.1328 157.531 58.7523 157.44 58.4287 157.258C58.1097 157.076 57.8659 156.829 57.6973 156.52C57.5286 156.21 57.4443 155.866 57.4443 155.487V154.961ZM58.627 155.487C58.627 155.774 58.7067 156.018 58.8662 156.219C59.0303 156.419 59.265 156.52 59.5703 156.52C59.8665 156.52 60.0944 156.419 60.2539 156.219C60.418 156.018 60.5 155.774 60.5 155.487V154.961C60.5 154.669 60.418 154.423 60.2539 154.223C60.0898 154.018 59.8574 153.915 59.5566 153.915C59.2604 153.915 59.0303 154.018 58.8662 154.223C58.7067 154.423 58.627 154.669 58.627 154.961V155.487ZM59.0439 161.756L63.9043 153.977L64.7793 154.476L59.9189 162.255L59.0439 161.756ZM62.2295 160.56C62.2295 160.181 62.3138 159.837 62.4824 159.527C62.651 159.213 62.8949 158.965 63.2139 158.782C63.5329 158.6 63.9089 158.509 64.3418 158.509C64.7839 158.509 65.1644 158.6 65.4834 158.782C65.8024 158.965 66.0439 159.213 66.208 159.527C66.3766 159.837 66.4609 160.181 66.4609 160.56V161.093C66.4609 161.471 66.3766 161.817 66.208 162.132C66.0439 162.442 65.8024 162.688 65.4834 162.87C65.1689 163.052 64.793 163.144 64.3555 163.144C63.918 163.144 63.5374 163.052 63.2139 162.87C62.8949 162.688 62.651 162.442 62.4824 162.132C62.3138 161.817 62.2295 161.471 62.2295 161.093V160.56ZM63.4053 161.093C63.4053 161.275 63.4417 161.446 63.5146 161.605C63.5921 161.76 63.7015 161.886 63.8428 161.981C63.9886 162.077 64.1595 162.125 64.3555 162.125C64.6745 162.125 64.9092 162.027 65.0596 161.831C65.21 161.635 65.2852 161.389 65.2852 161.093V160.56C65.2852 160.268 65.2031 160.022 65.0391 159.821C64.875 159.621 64.6426 159.521 64.3418 159.521C64.0456 159.521 63.8154 159.621 63.6514 159.821C63.4873 160.022 63.4053 160.268 63.4053 160.56V161.093Z" fill="#434D5A"/>
<path d="M25.7935 118.013C27.2869 118.618 28.4928 119.214 29.4111 119.799C30.3395 120.374 31.0711 121.09 31.606 121.948C32.1408 122.806 32.4082 123.871 32.4082 125.142C32.4082 126.313 32.161 127.332 31.6665 128.2C31.172 129.068 30.4707 129.764 29.5625 130.289C28.6543 130.803 27.5897 131.126 26.3687 131.257V134.27H23.9619V131.257C22.751 131.126 21.651 130.793 20.6621 130.258C19.6732 129.723 18.876 128.941 18.2705 127.912C17.665 126.873 17.3623 125.576 17.3623 124.022H21.9336C21.9336 125.314 22.2363 126.247 22.8418 126.822C23.4473 127.387 24.2142 127.67 25.1426 127.67C26.0205 127.67 26.6916 127.443 27.1558 126.989C27.62 126.525 27.8521 125.919 27.8521 125.172C27.8521 124.617 27.7511 124.153 27.5493 123.78C27.3576 123.396 27.0448 123.058 26.6108 122.766C26.187 122.473 25.5967 122.18 24.8398 121.888C23.3262 121.302 22.1051 120.727 21.1768 120.162C20.2484 119.587 19.5168 118.87 18.9819 118.013C18.4471 117.155 18.1797 116.085 18.1797 114.804C18.1797 113.674 18.432 112.669 18.9365 111.792C19.4411 110.914 20.1525 110.207 21.0708 109.672C21.9891 109.138 23.0537 108.81 24.2646 108.688V105.464H26.6714V108.734C27.842 108.905 28.8612 109.294 29.729 109.899C30.5968 110.505 31.2629 111.307 31.7271 112.306C32.2013 113.305 32.4385 114.461 32.4385 115.772H27.8823C27.8823 114.622 27.6452 113.754 27.1709 113.169C26.6966 112.584 26.0508 112.291 25.2334 112.291C24.4059 112.291 23.7853 112.528 23.3716 113.002C22.9578 113.467 22.751 114.077 22.751 114.834C22.751 115.328 22.8418 115.752 23.0234 116.105C23.2152 116.459 23.528 116.787 23.9619 117.089C24.3958 117.392 25.0063 117.7 25.7935 118.013ZM35.2993 131V127.867L42.4287 120.329C43.4378 119.208 44.1543 118.265 44.5781 117.498C45.012 116.721 45.229 116.02 45.229 115.394C45.229 114.425 44.9868 113.674 44.5024 113.139C44.0282 112.594 43.3521 112.321 42.4741 112.321C41.8485 112.321 41.3035 112.478 40.8394 112.791C40.3853 113.103 40.0371 113.537 39.7949 114.092C39.5527 114.637 39.4316 115.258 39.4316 115.954H34.8604C34.8604 114.612 35.1782 113.386 35.814 112.276C36.4497 111.156 37.3529 110.273 38.5234 109.627C39.694 108.971 41.0412 108.643 42.5649 108.643C44.119 108.643 45.4359 108.895 46.5156 109.4C47.5954 109.894 48.4128 110.616 48.9678 111.564C49.5228 112.503 49.8003 113.633 49.8003 114.955C49.8003 115.914 49.6035 116.842 49.21 117.74C48.8265 118.638 48.2816 119.536 47.5752 120.435C46.8789 121.323 45.9657 122.352 44.8354 123.522L41.2026 127.322H50.4663V131H35.2993ZM57.6108 130.304C57.6108 131.464 57.3283 132.63 56.7632 133.8C56.1981 134.971 55.4715 135.935 54.5835 136.691L52.2373 135.48L52.5098 134.966C52.9336 134.189 53.2565 133.477 53.4785 132.832C53.7106 132.196 53.8267 131.434 53.8267 130.546V127.231H57.626L57.6108 130.304ZM67.147 131V114.35L61.9702 115.909V112.23L71.2339 108.946H71.7031V131H67.147ZM89.9883 119.678C91.1891 120.112 92.1024 120.768 92.728 121.646C93.3537 122.523 93.6665 123.578 93.6665 124.809C93.6665 126.151 93.3234 127.312 92.6372 128.291C91.951 129.269 91.0075 130.016 89.8066 130.531C88.6159 131.045 87.2637 131.303 85.75 131.303C84.4482 131.303 83.2171 131.071 82.0566 130.606C80.9062 130.132 79.9728 129.416 79.2563 128.457C78.5399 127.498 78.1816 126.323 78.1816 124.93H82.7529C82.7529 125.435 82.8892 125.894 83.1616 126.308C83.4341 126.721 83.8075 127.044 84.2817 127.276C84.756 127.508 85.2858 127.625 85.8711 127.625C86.5371 127.625 87.1123 127.503 87.5967 127.261C88.0911 127.009 88.4645 126.666 88.7168 126.232C88.9792 125.798 89.1104 125.299 89.1104 124.733C89.1104 122.594 87.9448 121.524 85.6138 121.524H83.2524V119.118V117.967H85.6138C86.6431 117.967 87.4251 117.705 87.96 117.18C88.4948 116.655 88.7622 115.934 88.7622 115.016C88.7622 114.218 88.515 113.573 88.0205 113.078C87.5361 112.574 86.8197 112.321 85.8711 112.321C85.3665 112.321 84.8973 112.417 84.4634 112.609C84.0295 112.801 83.6813 113.073 83.4189 113.426C83.1667 113.779 83.0405 114.188 83.0405 114.652H78.4692C78.4692 113.462 78.7922 112.412 79.438 111.504C80.0939 110.586 80.9769 109.879 82.0869 109.385C83.1969 108.89 84.418 108.643 85.75 108.643C87.2637 108.643 88.5907 108.885 89.731 109.37C90.8713 109.844 91.7542 110.555 92.3799 111.504C93.0156 112.442 93.3335 113.588 93.3335 114.94C93.3335 115.919 93.0358 116.832 92.4404 117.68C91.8551 118.527 91.0378 119.193 89.9883 119.678ZM103.854 108.643C105.337 108.643 106.649 109.011 107.789 109.748C108.929 110.475 109.812 111.519 110.438 112.881C111.074 114.244 111.392 115.833 111.392 117.649V119.269C111.392 121.751 110.948 123.891 110.06 125.687C109.182 127.483 107.895 128.861 106.2 129.819C104.504 130.778 102.456 131.257 100.054 131.257H99.7061V127.428H99.9937C102.103 127.428 103.712 127.004 104.822 126.156C105.932 125.309 106.578 124.017 106.76 122.281C106.225 122.786 105.619 123.184 104.943 123.477C104.277 123.76 103.576 123.901 102.839 123.901C101.497 123.901 100.342 123.588 99.373 122.962C98.4043 122.327 97.6626 121.449 97.1479 120.329C96.6434 119.208 96.3911 117.922 96.3911 116.469C96.3911 115.036 96.7039 113.724 97.3296 112.533C97.9552 111.342 98.8332 110.399 99.9634 109.703C101.094 108.996 102.39 108.643 103.854 108.643ZM103.99 120.419C104.636 120.419 105.201 120.258 105.685 119.935C106.18 119.612 106.558 119.198 106.82 118.694V116.802C106.82 115.349 106.548 114.244 106.003 113.487C105.458 112.72 104.736 112.336 103.838 112.336C103.253 112.336 102.738 112.533 102.294 112.927C101.861 113.31 101.528 113.815 101.295 114.44C101.063 115.066 100.947 115.732 100.947 116.438C100.947 117.599 101.21 118.553 101.734 119.299C102.259 120.046 103.011 120.419 103.99 120.419ZM117.371 126.323C117.875 126.323 118.324 126.429 118.718 126.641C119.111 126.853 119.414 127.145 119.626 127.519C119.838 127.882 119.944 128.291 119.944 128.745C119.944 129.199 119.838 129.612 119.626 129.986C119.414 130.349 119.111 130.637 118.718 130.849C118.324 131.061 117.875 131.167 117.371 131.167C116.866 131.167 116.417 131.061 116.023 130.849C115.64 130.637 115.342 130.349 115.13 129.986C114.918 129.612 114.812 129.199 114.812 128.745C114.812 128.291 114.918 127.882 115.13 127.519C115.342 127.145 115.64 126.853 116.023 126.641C116.417 126.429 116.866 126.323 117.371 126.323ZM138.471 121.918C138.471 124.037 138.163 125.798 137.548 127.201C136.932 128.593 136.064 129.628 134.944 130.304C133.834 130.97 132.517 131.303 130.994 131.303C129.47 131.303 128.143 130.97 127.013 130.304C125.893 129.628 125.02 128.593 124.394 127.201C123.768 125.798 123.456 124.037 123.456 121.918V118.013C123.456 115.894 123.763 114.138 124.379 112.745C125.005 111.353 125.877 110.323 126.998 109.657C128.118 108.991 129.44 108.658 130.963 108.658C132.487 108.658 133.809 108.991 134.929 109.657C136.049 110.323 136.917 111.353 137.533 112.745C138.158 114.138 138.471 115.894 138.471 118.013V121.918ZM133.9 117.392C133.9 115.586 133.653 114.294 133.158 113.517C132.664 112.73 131.932 112.336 130.963 112.336C129.995 112.336 129.263 112.73 128.769 113.517C128.274 114.294 128.027 115.586 128.027 117.392V122.523C128.027 124.35 128.274 125.657 128.769 126.444C129.273 127.231 130.015 127.625 130.994 127.625C131.962 127.625 132.689 127.231 133.173 126.444C133.658 125.657 133.9 124.35 133.9 122.523V117.392ZM156.862 126.262H154.44V131H149.869V126.262H140.969L140.742 123.371L149.839 108.961H153.457H154.44V122.584H156.862V126.262ZM149.869 122.584V115.152L149.566 115.682L145.222 122.584H149.869Z" fill="white"/>
<path d="M29.0674 95H27.748V91.1104L27.8711 86.9609L24.6104 95H23.6055L20.3516 86.9678L20.4746 91.1104V95H19.1553V85.0469H20.29H20.8643L24.1113 93.1816L27.3584 85.0469H29.0674V95ZM36.6895 87.6035L33.7227 96.1416C33.5404 96.6383 33.276 97.069 32.9297 97.4336C32.5879 97.8027 32.1208 97.9873 31.5283 97.9873C31.4326 97.9873 31.3073 97.9736 31.1523 97.9463C31.002 97.9235 30.888 97.9007 30.8105 97.8779V96.8594C30.8607 96.8685 30.9176 96.8753 30.9814 96.8799C31.0452 96.889 31.1022 96.8936 31.1523 96.8936C31.5853 96.8936 31.9202 96.8024 32.1572 96.6201C32.3988 96.4424 32.5947 96.1279 32.7451 95.6768L33.0254 94.918L30.3867 87.6035H31.7812L33.6133 93.1406L35.3291 87.6035H36.6895ZM47.8184 93.9336V95H42.5615H41.4951V85.0469H42.8213H47.75V86.1201H42.8213V89.3262H47.1211V90.3926H42.8213V93.9336H47.8184ZM54.6475 87.6035L51.9951 95H51.1338H51.0244L48.3447 87.6035H49.6504L51.5234 93.2705L53.3418 87.6035H54.6475ZM61.832 91.6504H56.8281C56.8418 92.1107 56.9375 92.5277 57.1152 92.9014C57.293 93.2751 57.5436 93.5713 57.8672 93.79C58.1953 94.0042 58.5781 94.1113 59.0156 94.1113C59.444 94.1113 59.8132 94.0247 60.123 93.8516C60.4375 93.6784 60.7178 93.43 60.9639 93.1064L61.7363 93.708C61.4629 94.1273 61.0983 94.4714 60.6426 94.7402C60.1868 95.0046 59.6217 95.1367 58.9473 95.1367C58.2728 95.1367 57.6781 94.984 57.1631 94.6787C56.6481 94.3734 56.2493 93.9495 55.9668 93.4072C55.6888 92.8649 55.5498 92.2497 55.5498 91.5615V91.2676C55.5498 90.4974 55.7002 89.8252 56.001 89.251C56.3018 88.6722 56.6982 88.2301 57.1904 87.9248C57.6872 87.6195 58.2181 87.4668 58.7832 87.4668C59.4714 87.4668 60.041 87.6217 60.4922 87.9316C60.9479 88.237 61.2852 88.6608 61.5039 89.2031C61.7227 89.7454 61.832 90.3721 61.832 91.083V91.6504ZM60.5537 90.5293C60.5173 89.9505 60.36 89.4674 60.082 89.0801C59.8086 88.6882 59.3757 88.4922 58.7832 88.4922C58.2728 88.4922 57.8467 88.679 57.5049 89.0527C57.1676 89.4219 56.9557 89.946 56.8691 90.625H60.5537V90.5293ZM66.3301 87.4668C66.4121 87.4668 66.5146 87.4782 66.6377 87.501C66.7607 87.5192 66.8451 87.5397 66.8906 87.5625V88.7314C66.6947 88.695 66.4873 88.6768 66.2686 88.6768C65.8493 88.6768 65.4984 88.7702 65.2158 88.957C64.9378 89.1439 64.7282 89.4059 64.5869 89.7432V95H63.3086V87.6035H64.5527L64.5801 88.4443C64.7715 88.1344 65.013 87.8952 65.3047 87.7266C65.5964 87.5534 65.9382 87.4668 66.3301 87.4668ZM73.5488 87.6035L70.582 96.1416C70.3997 96.6383 70.1354 97.069 69.7891 97.4336C69.4473 97.8027 68.9801 97.9873 68.3877 97.9873C68.292 97.9873 68.1667 97.9736 68.0117 97.9463C67.8613 97.9235 67.7474 97.9007 67.6699 97.8779V96.8594C67.7201 96.8685 67.777 96.8753 67.8408 96.8799C67.9046 96.889 67.9616 96.8936 68.0117 96.8936C68.4447 96.8936 68.7796 96.8024 69.0166 96.6201C69.2581 96.4424 69.4541 96.1279 69.6045 95.6768L69.8848 94.918L67.2461 87.6035H68.6406L70.4727 93.1406L72.1885 87.6035H73.5488ZM77.8213 95C77.5296 95.0911 77.2038 95.1367 76.8438 95.1367C76.3288 95.1367 75.9141 94.9818 75.5996 94.6719C75.2897 94.362 75.1348 93.8584 75.1348 93.1611V88.5674H73.7881V87.6035H75.1348V85.8057H76.4131V87.6035H77.7939V88.5674H76.4131V93.168C76.4131 93.5189 76.486 93.7559 76.6318 93.8789C76.7777 93.9974 76.9759 94.0566 77.2266 94.0566C77.3223 94.0566 77.4271 94.0498 77.541 94.0361C77.6549 94.0179 77.7461 93.9997 77.8145 93.9814L77.8213 95ZM82.7158 87.4668C84.2972 87.4668 85.0879 88.3623 85.0879 90.1533V95H83.8096V90.1396C83.8096 89.5745 83.6865 89.1644 83.4404 88.9092C83.1989 88.654 82.832 88.5264 82.3398 88.5264C81.9479 88.5264 81.5947 88.6335 81.2803 88.8477C80.9704 89.0618 80.7243 89.349 80.542 89.709V95H79.2637V84.5H80.542V88.4785C80.8109 88.1549 81.1299 87.9066 81.499 87.7334C81.8682 87.5557 82.2738 87.4668 82.7158 87.4668ZM87.7334 84.9102C87.9704 84.9102 88.1549 84.9785 88.2871 85.1152C88.4238 85.252 88.4922 85.4251 88.4922 85.6348C88.4922 85.8398 88.4238 86.0107 88.2871 86.1475C88.1549 86.2796 87.9704 86.3457 87.7334 86.3457C87.4964 86.3457 87.3118 86.2796 87.1797 86.1475C87.0521 86.0107 86.9883 85.8398 86.9883 85.6348C86.9883 85.4251 87.0521 85.252 87.1797 85.1152C87.3118 84.9785 87.4964 84.9102 87.7334 84.9102ZM87.084 95V87.6035H88.3623V95H87.084ZM93.8311 87.4668C95.4124 87.4668 96.2031 88.3623 96.2031 90.1533V95H94.9248V90.1396C94.9248 89.5745 94.8018 89.1644 94.5557 88.9092C94.3141 88.654 93.9473 88.5264 93.4551 88.5264C93.0632 88.5264 92.71 88.6335 92.3955 88.8477C92.0856 89.0618 91.8395 89.349 91.6572 89.709V95H90.3789V87.6035H91.5889L91.6299 88.5127C91.8988 88.18 92.2201 87.9225 92.5938 87.7402C92.9674 87.5579 93.3799 87.4668 93.8311 87.4668ZM104.071 87.6035V94.8428C104.071 95.4854 103.939 96.0368 103.675 96.4971C103.41 96.9619 103.041 97.3151 102.567 97.5566C102.098 97.7982 101.553 97.9189 100.934 97.9189C100.646 97.9189 100.332 97.8757 99.9902 97.7891C99.6484 97.7025 99.3135 97.5635 98.9854 97.3721C98.6618 97.1807 98.3975 96.9346 98.1924 96.6338L98.8555 95.8887C99.4023 96.5586 100.063 96.8936 100.838 96.8936C101.444 96.8936 101.92 96.7204 102.267 96.374C102.618 96.0322 102.793 95.5423 102.793 94.9043V94.2686C102.292 94.8473 101.604 95.1367 100.729 95.1367C100.145 95.1367 99.6325 94.9749 99.1904 94.6514C98.7529 94.3278 98.4134 93.8835 98.1719 93.3184C97.9349 92.7487 97.8164 92.1038 97.8164 91.3838V91.2402C97.8164 90.4928 97.9349 89.8343 98.1719 89.2646C98.4089 88.695 98.7484 88.2529 99.1904 87.9385C99.6325 87.624 100.15 87.4668 100.742 87.4668C101.645 87.4668 102.349 87.7835 102.854 88.417L102.909 87.6035H104.071ZM101.043 94.0703C101.836 94.0703 102.419 93.708 102.793 92.9834V89.5859C102.62 89.2578 102.39 89.0003 102.103 88.8135C101.815 88.6221 101.467 88.5264 101.057 88.5264C100.615 88.5264 100.245 88.6471 99.9492 88.8887C99.6576 89.1257 99.4411 89.4492 99.2998 89.8594C99.1631 90.2695 99.0947 90.7298 99.0947 91.2402V91.3838C99.0947 91.8942 99.1631 92.3522 99.2998 92.7578C99.4411 93.1589 99.6576 93.4779 99.9492 93.7148C100.241 93.9518 100.605 94.0703 101.043 94.0703ZM120.614 85.0469L118.208 95H117.258H116.998L114.954 87.7334L114.804 86.9883L114.646 87.7334L112.527 95H111.563H111.317L108.911 85.0469H110.237L111.803 91.8691L111.994 93.168L112.268 91.999L114.236 85.0469H115.207H115.351L117.265 91.999L117.538 93.1953L117.75 91.8623L119.281 85.0469H120.614ZM127.286 93.3867C127.286 93.6465 127.309 93.9154 127.354 94.1934C127.4 94.4668 127.464 94.6992 127.546 94.8906V95H126.213C126.135 94.8223 126.076 94.5648 126.035 94.2275C125.78 94.501 125.472 94.722 125.112 94.8906C124.757 95.0547 124.365 95.1367 123.937 95.1367C123.444 95.1367 123.007 95.041 122.624 94.8496C122.246 94.6536 121.952 94.3893 121.742 94.0566C121.537 93.724 121.435 93.3548 121.435 92.9492C121.435 92.4251 121.569 91.9808 121.838 91.6162C122.111 91.2516 122.496 90.9782 122.993 90.7959C123.494 90.609 124.085 90.5156 124.764 90.5156H126.008V89.9277C126.008 89.4766 125.873 89.1234 125.604 88.8682C125.34 88.6084 124.957 88.4785 124.456 88.4785C124.151 88.4785 123.877 88.5332 123.636 88.6426C123.394 88.7474 123.205 88.891 123.068 89.0732C122.936 89.251 122.87 89.4447 122.87 89.6543H121.592C121.592 89.2943 121.715 88.9456 121.961 88.6084C122.207 88.2712 122.553 87.9977 123 87.7881C123.447 87.5739 123.957 87.4668 124.531 87.4668C125.078 87.4668 125.557 87.5602 125.967 87.7471C126.382 87.9294 126.705 88.2074 126.938 88.5811C127.17 88.9502 127.286 89.4036 127.286 89.9414V93.3867ZM124.121 94.043C124.413 94.043 124.684 93.9928 124.935 93.8926C125.19 93.7878 125.409 93.651 125.591 93.4824C125.773 93.3138 125.912 93.1315 126.008 92.9355V91.4043H124.969C124.24 91.4043 123.681 91.5205 123.294 91.7529C122.907 91.9808 122.713 92.3203 122.713 92.7715C122.713 93.013 122.768 93.2295 122.877 93.4209C122.986 93.6123 123.146 93.765 123.355 93.8789C123.565 93.9883 123.82 94.043 124.121 94.043ZM129.385 95V84.5H130.663V95H129.385ZM132.789 95V84.5H134.067V95H132.789ZM142.045 91.6504H137.041C137.055 92.1107 137.15 92.5277 137.328 92.9014C137.506 93.2751 137.757 93.5713 138.08 93.79C138.408 94.0042 138.791 94.1113 139.229 94.1113C139.657 94.1113 140.026 94.0247 140.336 93.8516C140.65 93.6784 140.931 93.43 141.177 93.1064L141.949 93.708C141.676 94.1273 141.311 94.4714 140.855 94.7402C140.4 95.0046 139.835 95.1367 139.16 95.1367C138.486 95.1367 137.891 94.984 137.376 94.6787C136.861 94.3734 136.462 93.9495 136.18 93.4072C135.902 92.8649 135.763 92.2497 135.763 91.5615V91.2676C135.763 90.4974 135.913 89.8252 136.214 89.251C136.515 88.6722 136.911 88.2301 137.403 87.9248C137.9 87.6195 138.431 87.4668 138.996 87.4668C139.684 87.4668 140.254 87.6217 140.705 87.9316C141.161 88.237 141.498 88.6608 141.717 89.2031C141.936 89.7454 142.045 90.3721 142.045 91.083V91.6504ZM140.767 90.5293C140.73 89.9505 140.573 89.4674 140.295 89.0801C140.021 88.6882 139.589 88.4922 138.996 88.4922C138.486 88.4922 138.06 88.679 137.718 89.0527C137.381 89.4219 137.169 89.946 137.082 90.625H140.767V90.5293ZM146.659 95C146.368 95.0911 146.042 95.1367 145.682 95.1367C145.167 95.1367 144.752 94.9818 144.438 94.6719C144.128 94.362 143.973 93.8584 143.973 93.1611V88.5674H142.626V87.6035H143.973V85.8057H145.251V87.6035H146.632V88.5674H145.251V93.168C145.251 93.5189 145.324 93.7559 145.47 93.8789C145.616 93.9974 145.814 94.0566 146.064 94.0566C146.16 94.0566 146.265 94.0498 146.379 94.0361C146.493 94.0179 146.584 93.9997 146.652 93.9814L146.659 95Z" fill="#F5F7F8"/>
<circle cx="184.653" cy="217.653" r="14.6535" transform="rotate(180 184.653 217.653)" fill="white" fill-opacity="0.2"/>
<path d="M189.939 217.653L186.133 213.847C185.666 213.38 185.666 212.623 186.133 212.156C186.6 211.689 187.358 211.689 187.825 212.156L192.477 216.808C192.944 217.275 192.944 218.032 192.477 218.499L187.825 223.151C187.358 223.618 186.6 223.618 186.133 223.151C185.666 222.684 185.666 221.927 186.133 221.459L189.939 217.653Z" fill="white"/>
<path d="M191.631 216.457C192.292 216.457 192.827 216.993 192.827 217.653C192.827 218.314 192.292 218.85 191.631 218.85H177.675C177.015 218.85 176.479 218.314 176.479 217.653C176.479 216.993 177.015 216.457 177.675 216.457H191.631Z" fill="white"/>
<path d="M47.1619 36.6195C45.1602 44.6521 37.0294 49.5548 28.9817 47.5522C20.9551 45.5491 16.0554 37.4126 18.0571 29.38C20.0583 21.3479 28.1896 16.4452 36.2162 18.4478C44.2639 20.4298 49.1631 28.5874 47.1619 36.6195Z" fill="#F8AE2A"/>
<path d="M36.4626 31.0498C36.0248 32.9067 33.1474 32.0092 32.2093 31.7798L33.0018 28.4835C33.9188 28.7129 36.9211 29.1097 36.4626 31.0498ZM36.0037 36.3699C35.5245 38.4143 32.0632 37.3505 30.9583 37.0793L31.8133 33.4492C32.9389 33.7204 36.504 34.2211 36.0037 36.3699ZM39.7149 31.0498C39.9859 29.0467 38.4639 28.0035 36.379 27.2942L37.0254 24.5822L35.3784 24.1859L34.7531 26.8353C34.3153 26.731 33.8775 26.6266 33.4396 26.5434L34.0649 23.8935L32.3972 23.4972L31.7508 26.2096C31.3961 26.126 31.0419 26.0634 30.6872 25.9798L28.4149 25.4377L27.9978 27.1903C27.9978 27.1903 29.2281 27.461 29.1863 27.4822C29.8534 27.6491 29.9784 28.0872 29.9577 28.421L29.2281 31.5086C29.2695 31.5297 29.3324 31.5297 29.3949 31.5711C29.3324 31.5504 29.2906 31.5504 29.2281 31.5297L28.227 35.8481C28.1439 36.0568 27.9353 36.3487 27.4768 36.2448C27.4975 36.2655 26.2676 35.9524 26.2676 35.9524L25.4751 37.8512L27.6224 38.3518C28.0189 38.4562 28.4149 38.5394 28.7903 38.6438L28.1439 41.3769L29.7909 41.7732L30.4373 39.0612C30.8958 39.1862 31.3336 39.2906 31.7508 39.395L31.1044 42.0863L32.7514 42.4826L33.3978 39.7499C36.2123 40.2506 38.3178 40.0207 39.1728 37.4549C39.861 35.4099 39.1103 34.2417 37.6094 33.4698C38.7143 33.2193 39.5063 32.5104 39.7149 31.0498Z" fill="white"/>
<rect x="45.0635" y="18" width="30" height="30" rx="15" fill="#6B71D6"/>
<path fill-rule="evenodd" clip-rule="evenodd" d="M60.2775 23.2915C60.2339 23.3969 58.918 25.6297 57.3533 28.2535C55.7885 30.8772 54.4952 33.0583 54.4792 33.1004C54.4585 33.1552 55.3086 33.6896 57.46 34.9743L60.4699 36.7715L63.479 34.9733C65.6408 33.6814 66.4799 33.1533 66.4589 33.098C66.3501 32.8116 60.4988 23.1 60.4349 23.1C60.3919 23.1 60.321 23.1862 60.2775 23.2915ZM54.4864 34.393C54.6024 34.5934 60.4451 42.9008 60.4695 42.9C60.5099 42.8988 66.4835 34.3684 66.4604 34.345C66.4386 34.323 60.855 37.6462 60.6221 37.8198L60.4793 37.9263L57.5883 36.2014C55.9983 35.2528 54.6387 34.4384 54.5669 34.3916C54.448 34.3142 54.4409 34.3143 54.4864 34.393Z" fill="white"/>
<rect x="72.5186" y="18" width="30" height="30" rx="15" fill="#F5AC37"/>
<path fill-rule="evenodd" clip-rule="evenodd" d="M81.6544 40.1432V40.1896L81.6522 40.1913V40.1991H87.0267C87.635 40.2074 88.2411 40.1589 88.8388 40.0516C89.4684 39.9282 90.0817 39.7339 90.6666 39.4703C90.9202 39.3526 91.1635 39.2104 91.409 39.067C91.4712 39.0307 91.5335 38.9943 91.5961 38.9582C91.8849 38.7521 92.1615 38.5287 92.4246 38.2914C93.145 37.6391 93.7026 36.8254 94.0511 35.9179C94.0745 35.8162 94.1738 35.7509 94.2758 35.7705H95.7395C95.856 35.7705 95.8945 35.7314 95.8945 35.5996V34.6608C95.9023 34.5709 95.9023 34.4798 95.8945 34.3899C95.8945 34.3664 95.9005 34.343 95.9065 34.3196C95.9185 34.2729 95.9305 34.2264 95.8945 34.18H94.6717C94.5239 34.18 94.5239 34.1643 94.5239 34.0325C94.5663 33.5601 94.5663 33.0859 94.5239 32.6135C94.5161 32.4738 94.5474 32.4738 94.6555 32.4738H95.7244C95.8487 32.4738 95.895 32.4426 95.895 32.3186V31.0464C95.8912 30.9621 95.8892 30.9194 95.8669 30.8977C95.8439 30.8755 95.7995 30.8755 95.7094 30.8755H94.3232C94.215 30.894 94.1113 30.8208 94.0918 30.7125C93.9329 30.2964 93.7305 29.8982 93.4868 29.5257C93.2415 29.1582 92.9649 28.8131 92.6583 28.4942C92.2507 28.0866 91.7929 27.7325 91.2955 27.4393C90.5456 27.0031 89.7254 26.6977 88.8717 26.5396C88.4575 26.4631 88.0387 26.4167 87.6172 26.4H81.8094C81.6544 26.4 81.6544 26.4313 81.6544 26.5552V30.7359C81.6544 30.8833 81.6232 30.8833 81.5072 30.8833H79.8423C79.7185 30.8833 79.7185 30.9062 79.7185 30.9917V32.3566C79.7185 32.4805 79.757 32.4805 79.8501 32.4805H81.5306C81.6544 32.4805 81.6544 32.5034 81.6544 32.5967V34.0549C81.6544 34.1867 81.6154 34.1867 81.515 34.1867H79.7185V35.6604C79.7185 35.7844 79.757 35.7844 79.8501 35.7844H81.5306C81.6544 35.7844 81.6544 35.7995 81.6544 35.9006V37.7234V38.336V40.1432ZM92.3494 30.7504C92.3628 30.7851 92.3628 30.8236 92.3494 30.8588H92.3867C92.3711 30.9051 92.2936 30.9208 92.2936 30.9208H83.3573C83.2101 30.9208 83.2101 30.8895 83.2101 30.7733V28.0201C83.2101 27.919 83.2257 27.8727 83.3417 27.8727H87.5001C87.9428 27.8688 88.3844 27.9151 88.8165 28.0123C89.673 28.2156 90.4698 28.6199 91.14 29.1912C91.2738 29.2912 91.3931 29.409 91.4963 29.5402C91.7148 29.7575 91.9067 29.9993 92.0695 30.2618C92.1776 30.4154 92.2708 30.579 92.3494 30.7504ZM92.7202 34.1783H88.012H83.3963C83.3022 34.1783 83.2558 34.1783 83.2329 34.1551C83.2106 34.1325 83.2106 34.088 83.2106 34.0001V32.6196C83.2106 32.5107 83.2419 32.4722 83.3578 32.4722H92.728C92.8289 32.4722 92.8752 32.5107 92.8752 32.604C92.9136 33.0842 92.9136 33.5668 92.8752 34.0465C92.8679 34.1783 92.8205 34.1783 92.7202 34.1783ZM92.3494 35.7917C92.2178 35.7772 92.0851 35.7772 91.9535 35.7917H83.3656C83.2497 35.7917 83.2106 35.7917 83.2106 35.9469V38.6387C83.2106 38.7627 83.2106 38.794 83.3656 38.794H87.3306C87.5202 38.8085 87.7097 38.7951 87.8954 38.7554C88.4708 38.7141 89.0368 38.589 89.5765 38.383C89.7728 38.3148 89.9624 38.226 90.1414 38.1194H90.1954C91.1249 37.6352 91.8799 36.8745 92.3561 35.9408C92.3561 35.9408 92.4101 35.8235 92.3494 35.7928V35.7917Z" fill="#FEFEFD"/>
<rect x="99.9727" y="18" width="30" height="30" rx="15" fill="#2FCF6E"/>
<path fill-rule="evenodd" clip-rule="evenodd" d="M117.091 29.6038C117.612 31.2014 114.937 31.9434 114.095 32.2323L113.182 29.3888C114.008 29.1102 116.548 27.9341 117.091 29.6038ZM119.207 33.7911C119.783 35.5487 116.573 36.4529 115.58 36.7925L114.561 33.6697C115.57 33.3201 118.6 31.9455 119.207 33.7911ZM115.278 26.8477L114.523 24.511L113.046 25.0231L113.789 27.3029C113.397 27.4397 113.005 27.5766 112.623 27.7293L111.88 25.4491L110.387 25.9714L111.143 28.3084C110.826 28.42 110.519 28.547 110.201 28.6585L108.167 29.3686L108.655 30.8783C108.655 30.8783 109.746 30.477 109.723 30.5132C110.324 30.3105 110.626 30.5756 110.765 30.8343L111.63 33.4915C111.672 33.487 111.722 33.4562 111.79 33.4564C111.731 33.4716 111.698 33.4921 111.64 33.5073L112.864 37.2142C112.896 37.4104 112.868 37.7301 112.46 37.8774C112.486 37.8827 111.376 38.2523 111.376 38.2523L111.638 40.0549L113.555 39.3753C113.915 39.2587 114.264 39.1265 114.607 39.0203L115.372 41.3728L116.849 40.8606L116.093 38.5239C116.511 38.3923 116.903 38.2555 117.279 38.1287L118.025 40.45L119.501 39.9379L118.736 37.5858C121.177 36.5792 122.721 35.3759 122.198 33.0459C121.786 31.1855 120.654 30.6834 119.117 30.8442C119.867 30.116 120.158 29.1998 119.642 28.0097C118.923 26.385 117.243 26.3541 115.278 26.8477Z" fill="white"/>
</svg>
