<svg width="120" height="70" viewBox="0 0 120 70" fill="none" xmlns="http://www.w3.org/2000/svg">
<g id="Group 5">
<g id="coinbase_avatar">
<rect id="Rectangle" x="68" y="18" width="52" height="52" rx="12" fill="#1652F0"/>
<path id="Path" d="M99.7357 49.1567C98.3977 50.5 96.5848 51.28 94.5992 51.28C90.585 51.28 87.3045 47.9867 87.3045 43.9567C87.3045 39.9267 90.585 36.6333 94.5992 36.6333C96.6279 36.6333 98.4408 37.4567 99.7357 38.7567L103.75 34.7267C101.419 32.43 98.1818 31 94.5992 31C87.434 31 81.65 36.8067 81.65 44C81.65 51.1933 87.434 57 94.5992 57C98.1818 57 101.419 55.5267 103.75 53.1867L99.7357 49.1567Z" fill="white"/>
</g>
<g id="Group">
<circle id="Base" cx="26" cy="26" r="26" fill="#214497"/>
<rect id="gradient 3" width="52" height="52" rx="22.5" fill="url(#paint0_linear_395_15380)"/>
<rect id="gradient 2" width="52" height="52" rx="22.5" fill="url(#paint1_linear_395_15380)"/>
<rect id="gradient 1" width="52" height="52" rx="12" fill="url(#paint2_linear_395_15380)"/>
<path id="Shape" fill-rule="evenodd" clip-rule="evenodd" d="M32.6078 20.3358C31.6698 19.874 30.5589 19.6429 29.2733 19.6429C28.657 19.6429 28.0813 19.7109 27.5461 19.8466C27.0099 19.983 26.505 20.1588 25.9697 20.4032L28.43 9.90311L22.2031 10.8811L15.2533 40.5079C16.0298 40.8886 16.8531 41.1872 17.7239 41.4042C18.5939 41.6216 19.4175 41.7844 20.1943 41.8934C20.9708 42.0017 21.6608 42.0627 22.2634 42.0768C22.8661 42.0901 23.2879 42.0972 23.5288 42.0972C25.4032 42.0972 27.1443 41.7367 28.751 41.017C30.3581 40.2976 31.7502 39.3197 32.9291 38.0832C34.1074 36.847 35.038 35.3934 35.7211 33.7226C36.4041 32.0517 36.7455 30.279 36.7455 28.4044C36.7455 27.182 36.5977 26.0409 36.3034 24.9814C36.0084 23.9216 35.5533 22.9984 34.9376 22.2101C34.3213 21.4224 33.5448 20.7978 32.6078 20.3358ZM26.7022 36.392C25.872 36.854 24.988 37.0846 24.051 37.0846H23.3279C23.1401 37.0846 22.8718 37.0689 22.0972 36.9313L24.7165 25.7525C25.1983 25.3182 25.7181 25.0362 26.3208 24.8998C26.9234 24.7641 27.3115 24.7274 27.6869 24.7274C28.8378 24.7274 29.7284 25.0627 30.1572 25.7965C30.5853 26.5297 30.7999 27.5486 30.7999 28.8526C30.7999 29.9124 30.6254 30.9313 30.2776 31.9092C29.9293 32.8872 29.4541 33.7632 28.8518 34.5377C28.2491 35.3119 27.5321 35.9303 26.7022 36.392Z" fill="white"/>
</g>
<g id="Group 2">
<g id="Rectangle_2" filter="url(#filter0_d_395_15380)">
<rect x="44" y="24" width="32" height="22" rx="11" fill="white"/>
</g>
<g id="Group 4">
<path id="Path_2" d="M56 35C56 35.5523 56.4477 36 57 36H63C63.5523 36 64 35.5523 64 35C64 34.4477 63.5523 34 63 34H57C56.4477 34 56 34.4477 56 35Z" fill="#4F6EF7"/>
<path id="Shape_2" fill-rule="evenodd" clip-rule="evenodd" d="M64.7238 29C67.8198 28.925 70.4878 31.1706 70.9495 34.24C71.1684 35.9583 70.6358 37.6875 69.4886 38.9831C68.3413 40.2786 66.6914 41.014 64.9632 41H62.9678C62.4168 41 61.9701 40.5523 61.9701 40C61.9701 39.4477 62.4168 39 62.9678 39H64.9632C66.0889 39.0048 67.1642 38.533 67.9242 37.7008C68.6842 36.8686 69.0582 35.7534 68.9541 34.63C68.6975 32.5153 66.8783 30.9432 64.7537 31H62.9678C62.4168 31 61.9701 30.5523 61.9701 30C61.9701 29.45 62.4091 29 63.2173 29H64.7238ZM55.1957 39H56.9816C57.5326 39 57.9793 39.4477 57.9793 40C57.9793 40.5523 57.5326 41 56.9816 41H54.9862C53.2608 41.0006 51.619 40.255 50.4818 38.9543C49.3446 37.6536 48.8227 35.9244 49.0499 34.21C49.517 31.181 52.1381 28.959 55.1957 29H56.9816C57.5326 29 57.9793 29.4477 57.9793 30C57.9793 30.5523 57.5326 31 56.9816 31H54.9862C53.8606 30.9952 52.7853 31.467 52.0253 32.2992C51.2653 33.1314 50.8913 34.2466 50.9954 35.37C51.252 37.4847 53.0711 39.0568 55.1957 39Z" fill="#4F6EF7"/>
</g>
</g>
</g>
<defs>
<filter id="filter0_d_395_15380" x="34" y="14" width="52" height="42" filterUnits="userSpaceOnUse" color-interpolation-filters="sRGB">
<feFlood flood-opacity="0" result="BackgroundImageFix"/>
<feColorMatrix in="SourceAlpha" type="matrix" values="0 0 0 0 0 0 0 0 0 0 0 0 0 0 0 0 0 0 127 0" result="hardAlpha"/>
<feOffset/>
<feGaussianBlur stdDeviation="5"/>
<feColorMatrix type="matrix" values="0 0 0 0 0 0 0 0 0 0 0 0 0 0 0 0 0 0 0.1 0"/>
<feBlend mode="normal" in2="BackgroundImageFix" result="effect1_dropShadow_395_15380"/>
<feBlend mode="normal" in="SourceGraphic" in2="effect1_dropShadow_395_15380" result="shape"/>
</filter>
<linearGradient id="paint0_linear_395_15380" x1="51.3235" y1="2.4999" x2="4.32328" y2="2.4999" gradientUnits="userSpaceOnUse">
<stop stop-color="#253483"/>
<stop offset="1" stop-color="#16225C"/>
</linearGradient>
<linearGradient id="paint1_linear_395_15380" x1="6.38066" y1="12.7613" x2="6.38066" y2="52" gradientUnits="userSpaceOnUse">
<stop stop-color="#142F94"/>
<stop offset="1" stop-color="#081A52"/>
</linearGradient>
<linearGradient id="paint2_linear_395_15380" x1="0" y1="0" x2="0" y2="52" gradientUnits="userSpaceOnUse">
<stop stop-color="#060F3C"/>
<stop offset="1" stop-color="#142F94"/>
</linearGradient>
</defs>
</svg>
