<svg width="20" height="20" viewBox="0 0 20 20" fill="none" xmlns="http://www.w3.org/2000/svg">
<path fill-rule="evenodd" clip-rule="evenodd" d="M7.2727 12.7273L10.3218 11.9509L19.529 2.7437C19.8306 2.44241 20 2.03362 20 1.60734C20 1.18107 19.8306 0.772275 19.529 0.470984C19.2277 0.169432 18.8189 0 18.3927 0C17.9664 0 17.5576 0.169432 17.2563 0.470984L8.04906 9.67822L7.2727 12.7273ZM0.909087 20H18.1817C18.6838 20 19.0908 19.593 19.0908 19.0909V9.09095H17.2727V18.1818H1.81817V2.72734H10.909V0.909165H0.909087C0.407012 0.909165 0 1.31618 0 1.81825V19.0909C0 19.593 0.407012 20 0.909087 20Z" fill="#C2C7D3"/>
</svg>
