<svg width="50" height="50" viewBox="0 0 50 50" fill="none" xmlns="http://www.w3.org/2000/svg">
<path d="M25 0C31.6304 0 37.9893 2.63392 42.6777 7.32233C47.3661 12.0107 50 18.3696 50 25C50 31.6304 47.3661 37.9893 42.6777 42.6777C37.9893 47.3661 31.6304 50 25 50C18.3696 50 12.0107 47.3661 7.32233 42.6777C2.63392 37.9893 0 31.6304 0 25H0C0 18.3696 2.63392 12.0107 7.32233 7.32233C12.0107 2.63392 18.3696 0 25 0V0Z" fill="url(#paint0_radial_7458_76880)"/>
<path d="M41.9999 17.1966C41.9325 17.629 41.8075 18.0504 41.628 18.4495V18.4495C41.4021 18.9728 41.2384 19.5209 41.1403 20.0824C41.0756 20.4165 41.046 20.6644 41.0164 20.8908V20.9177C40.9856 21.2576 40.9132 21.5925 40.8008 21.9147C40.6347 22.4619 40.3749 22.9761 40.0329 23.4344C39.661 23.9302 39.0386 24.7575 38.206 24.8572C38.1104 24.8701 38.0133 24.8637 37.9203 24.8383C35.5599 23.6311 33.5309 22.7419 32.8276 22.5399C32.0193 22.3108 32.1163 20.5297 32.2079 18.9588C32.2588 18.3152 32.275 17.6694 32.2564 17.0241C32.1405 15.0382 31.7902 12.8691 30.063 11.8102C29.031 11.1796 27.6999 11.0018 26.4308 11.0018C26.6652 10.8886 26.9293 10.7323 27.2149 10.5707C27.964 10.1369 28.8936 9.59794 29.8151 9.49286C30.1169 9.46322 30.4133 9.42819 30.707 9.39585C32.569 9.18568 34.1749 9.00514 35.8698 9.58447C36.6404 9.85393 38.2167 10.7297 38.6236 11.5461C38.9092 12.1227 39.3942 12.5727 40.3589 13.47C40.8628 13.9362 41.1915 14.2083 41.4367 14.4077C41.7789 14.6772 41.8436 14.7472 41.946 14.9466C42.272 15.5825 42.1589 16.2589 41.9999 17.1966Z" fill="white"/>
<path d="M33.4123 25.3502C33.438 25.3595 33.4613 25.3745 33.4803 25.3941C33.4993 25.4137 33.5137 25.4374 33.5222 25.4633C33.5308 25.4893 33.5333 25.5168 33.5297 25.5439C33.5261 25.571 33.5164 25.5969 33.5013 25.6196C33.2507 26.0023 32.9624 26.5277 32.6148 27.169C32.4504 27.4708 32.2968 27.7564 32.1702 27.9774C31.8268 28.58 31.6457 29.2615 31.6447 29.9552C31.6124 30.5102 31.5854 30.7635 31.254 30.9872C30.9846 31.1704 30.6989 31.2324 28.7562 31.5261C28.5408 31.5516 28.3308 31.6107 28.1337 31.7012C28.096 31.7174 28.061 31.7336 28.0206 31.747C27.9945 31.7557 27.9667 31.7577 27.9397 31.7529C27.9127 31.7481 27.8873 31.7366 27.8658 31.7195C27.8444 31.7023 27.8276 31.6801 27.817 31.6548C27.8064 31.6295 27.8022 31.6019 27.805 31.5746C27.8212 31.3051 27.8292 30.9441 27.8319 30.4968V30.4105C27.8319 30.0306 27.8319 29.7207 27.8131 29.4728C27.7861 28.977 27.7834 28.7669 27.9155 28.5513C28.0342 28.3508 28.2057 28.1867 28.4113 28.0771C28.9237 27.7606 29.3606 27.3356 29.6912 26.8322C29.8998 26.5824 30.0466 26.287 30.1196 25.9699C30.1385 25.8864 30.1439 25.8541 30.3891 25.6708C30.6343 25.4876 31.4211 24.8894 32.4181 25.0565C32.7568 25.1278 33.0892 25.226 33.4123 25.3502V25.3502Z" fill="white"/>
<path d="M25.6737 34.3122C25.6556 34.3385 25.6315 34.36 25.6033 34.375C25.5752 34.39 25.5439 34.3981 25.512 34.3985C25.4312 34.4097 25.3489 34.4014 25.272 34.3742C25.1951 34.347 25.1259 34.3017 25.0701 34.2422C24.8707 33.997 24.8976 33.5066 24.9434 33.2209L25.7653 33.0027C25.83 33.4365 25.8677 34.0724 25.6737 34.3122Z" fill="white"/>
<path d="M25.741 31.3457C25.7233 31.477 25.7143 31.6093 25.714 31.7418C25.714 31.7956 25.714 31.8495 25.714 31.9007C25.7241 32.0488 25.7241 32.1973 25.714 32.3453C25.4679 32.4235 25.2089 32.4528 24.9515 32.4316C24.9515 32.3507 24.9515 32.2268 24.9515 32.1405C24.9515 32.0543 24.9515 32.0112 24.9515 31.9519V31.7498C24.9385 31.5838 24.9503 31.4166 24.9865 31.254C25.0647 31.254 25.1428 31.2271 25.2263 31.2082C25.4016 31.1597 25.5835 31.1388 25.7652 31.1463C25.7572 31.2002 25.7491 31.281 25.741 31.3457Z" fill="white"/>
<path d="M24.2213 34.059C24.1809 34.482 24.0515 35.002 23.6554 35.0829C23.6011 35.0999 23.5433 35.1026 23.4876 35.0908C23.4319 35.079 23.3802 35.0531 23.3375 35.0155C23.068 34.7676 23.0276 34.0185 23.068 33.485C23.2994 33.4761 23.5295 33.4454 23.7551 33.3934C23.9222 33.3611 24.0893 33.3233 24.224 33.2937C24.2448 33.5484 24.2439 33.8044 24.2213 34.059V34.059Z" fill="white"/>
<path d="M24.0326 32.5474L23.1407 32.8735C23.1866 32.5286 23.2458 32.0409 23.2674 31.7175C23.2836 31.4885 23.3455 31.4184 23.3644 31.4049C23.3712 31.3986 23.3793 31.3938 23.3882 31.391C23.397 31.3882 23.4064 31.3875 23.4156 31.3888H23.4425L24.0084 31.3591C24.038 31.6124 24.038 32.1944 24.0326 32.5474Z" fill="white"/>
<path d="M22.5938 32.2699C22.5256 32.5264 22.476 32.7876 22.4456 33.0513L21.3273 33.019C21.387 32.6866 21.4698 32.3589 21.5752 32.0382C21.6251 31.8357 21.7273 31.6498 21.8716 31.4992C21.9528 31.4588 22.0437 31.4416 22.1341 31.4497C22.2245 31.4578 22.3109 31.4908 22.3836 31.5451C22.4946 31.625 22.5757 31.7398 22.6138 31.8712C22.6519 32.0026 22.6448 32.143 22.5938 32.2699V32.2699Z" fill="white"/>
<path d="M22.1761 35.6893C22.1429 35.7414 22.0987 35.7856 22.0465 35.8186C21.9944 35.8517 21.9356 35.8729 21.8743 35.8806C21.8226 35.8898 21.7696 35.887 21.7192 35.8725C21.6687 35.858 21.6223 35.8322 21.5833 35.7971C21.2303 35.4738 21.26 34.4121 21.2734 33.9109C21.6675 33.8075 22.0681 33.731 22.4725 33.6819C22.5075 34.1184 22.5183 35.2232 22.1761 35.6893Z" fill="white"/>
<path d="M20.7184 32.9865C20.6618 33.132 20.6106 33.2721 20.5702 33.3934C20.2568 33.4206 19.941 33.3914 19.6379 33.3072L19.9073 31.5503C20.3654 31.4291 20.8989 31.3886 21.0256 31.5261C21.2034 31.7066 20.8639 32.6039 20.7184 32.9865Z" fill="white"/>
<path d="M20.2091 35.9561C20.0858 36.0947 19.9314 36.2021 19.7586 36.2695C19.5857 36.337 19.3994 36.3625 19.2148 36.3441C18.8995 36.3441 18.7891 36.2202 18.7325 36.1312C18.4819 35.7324 18.7325 34.784 18.975 34.1912L20.4866 34.2828C20.5053 34.4069 20.517 34.5319 20.5217 34.6573C20.5679 35.1132 20.4577 35.5712 20.2091 35.9561Z" fill="white"/>
<path d="M32.7172 23.1973C31.3537 22.812 31.4723 20.8207 31.5854 18.886C31.6353 18.2703 31.6506 17.6523 31.6313 17.0349C31.5289 15.2322 31.2244 13.2625 29.7747 12.3814C28.2173 11.4275 25.6655 11.6458 24.0919 11.8425C23.5991 12.016 23.0811 12.107 22.5587 12.112C21.6291 12.0661 20.907 11.6754 20.271 11.3305C19.7753 11.0611 19.3414 10.8293 18.9238 10.8293H18.8618C17.6439 10.9075 17.0807 11.2066 16.5714 11.6593C16.4448 11.7724 16.302 12.1012 15.7631 13.5751C15.5815 14.0749 15.4629 14.5953 15.4101 15.1245C15.3732 15.5632 15.2827 15.9957 15.1406 16.4124C15.0059 16.7951 14.9089 17.1265 14.8119 17.4445C14.5613 18.2905 14.3619 18.9588 13.761 19.751C13.691 19.8453 13.6047 19.9827 13.4916 20.139C13.3568 20.3546 13.1898 20.6186 12.9661 20.9258C12.8098 21.1441 12.4515 21.9551 12.4703 22.203C12.5022 22.5298 12.6062 22.8455 12.7748 23.1273C12.9638 23.4446 13.0807 23.7997 13.117 24.1674V24.2374C13.1709 24.9353 13.0712 25.2856 11.7428 26.4712C11.06 27.0851 10.4382 27.7637 9.88627 28.4975C9.8783 28.5091 9.87388 28.5228 9.87355 28.5369C9.87323 28.551 9.87701 28.5649 9.88443 28.5769C9.89185 28.5889 9.9026 28.5985 9.91536 28.6045C9.92813 28.6104 9.94236 28.6126 9.95632 28.6107H10.1476H10.2231C10.5478 28.6437 10.8513 28.7873 11.0826 29.0175C11.1025 29.037 11.1275 29.0505 11.1547 29.0562C11.1819 29.0619 11.2102 29.0597 11.2362 29.0499C11.4546 28.976 11.6877 28.9565 11.9153 28.9933C12.1902 29.005 12.4536 29.1073 12.6643 29.2843C12.6913 29.3125 12.725 29.3333 12.7623 29.3446C12.7996 29.3559 12.8392 29.3574 12.8772 29.349C13.0968 29.2975 13.3265 29.3087 13.5401 29.3813C13.7022 29.442 13.8473 29.5409 13.9631 29.6696C14.0048 29.7095 14.0582 29.735 14.1154 29.7422C14.1727 29.7495 14.2307 29.7382 14.2811 29.71C14.3451 29.6688 14.4139 29.6353 14.4859 29.6103C14.7798 29.5314 15.0916 29.5522 15.3724 29.6696C15.515 29.7115 15.6517 29.7712 15.7792 29.8475C15.9947 29.9987 16.1546 30.2164 16.2346 30.4672C16.248 30.5 16.2687 30.5292 16.2953 30.5527C16.3218 30.5761 16.3534 30.593 16.3876 30.6022C16.4219 30.6113 16.4577 30.6124 16.4924 30.6053C16.5271 30.5983 16.5597 30.5833 16.5876 30.5615C16.6529 30.4866 16.74 30.4341 16.8367 30.4114C16.9334 30.3887 17.0347 30.3969 17.1265 30.4349C17.2014 30.4657 17.2646 30.5194 17.307 30.5885C17.3382 30.6479 17.3871 30.6963 17.447 30.7267C17.5069 30.7571 17.5747 30.7681 17.6412 30.7582C18.1146 30.638 18.6157 30.6945 19.0504 30.9172C19.2101 30.9991 19.3436 31.1242 19.4357 31.2783V31.2783V31.2028C19.4384 31.1855 19.4459 31.1692 19.4573 31.1559C19.4688 31.1425 19.4837 31.1327 19.5004 31.1274L19.592 31.1004C19.813 31.0277 20.9393 30.7043 21.3785 31.1651C21.388 31.174 21.4005 31.1789 21.4135 31.1789C21.4265 31.1789 21.4391 31.174 21.4486 31.1651C21.4883 31.1183 21.5346 31.0774 21.586 31.0438C21.7581 30.9489 21.9546 30.9074 22.1505 30.9247C22.3463 30.942 22.5325 31.0172 22.6854 31.1408C22.7021 31.1533 22.7211 31.1623 22.7414 31.1673C22.7616 31.1723 22.7826 31.1731 22.8032 31.1699C22.8238 31.1666 22.8435 31.1593 22.8612 31.1483C22.8789 31.1373 22.8943 31.1228 22.9063 31.1058C22.9371 31.0644 22.9723 31.0264 23.0114 30.9926C23.0687 30.9427 23.1354 30.9048 23.2076 30.8812C23.2798 30.8575 23.356 30.8487 23.4317 30.8552L24.0488 30.8229C24.2051 30.8229 24.6874 30.7798 24.841 30.7474H24.876L25.097 30.7043C25.3956 30.6073 25.7172 30.6073 26.0158 30.7043C26.2853 30.8283 26.2502 31.1354 26.2179 31.4049C26.2019 31.5147 26.1938 31.6254 26.1937 31.7363C26.1937 31.7875 26.1937 31.8387 26.1937 31.8899C26.209 32.0946 26.1963 32.3004 26.1559 32.5016V32.5016L26.1856 32.6309C26.1856 32.6309 26.1856 32.6309 26.1856 32.6471C26.1897 32.6745 26.2005 32.7004 26.217 32.7227C26.2335 32.7449 26.2551 32.7628 26.2801 32.7748C26.3051 32.7867 26.3326 32.7924 26.3603 32.7913C26.388 32.7902 26.4149 32.7823 26.4389 32.7683C26.6288 32.6612 26.8015 32.5258 26.9508 32.3669C26.9528 32.3589 26.9528 32.3506 26.9508 32.3426C26.9729 32.2816 26.9882 32.2183 26.9966 32.154C27.0658 31.6081 27.0946 31.0578 27.0829 30.5076V30.4052C27.0829 30.0549 27.0829 29.772 27.064 29.5214C27.0397 29.0068 27.0182 28.6026 27.2742 28.193C27.4565 27.8945 27.7151 27.6498 28.0233 27.4843C28.4568 27.2148 28.825 26.8521 29.1011 26.4227C29.2503 26.2511 29.3557 26.0458 29.4083 25.8245C29.4648 25.555 29.5511 25.4068 29.9472 25.1131C30.2624 24.8733 31.2217 24.1458 32.5178 24.3641C33.1314 24.4996 33.7319 24.689 34.3123 24.9299V24.9299C34.3383 24.9365 34.3635 24.9455 34.3878 24.9569H34.4147C34.9551 25.1665 35.4816 25.4104 35.991 25.6871C36.0355 25.7114 36.0873 25.7187 36.1368 25.7078C36.1864 25.6969 36.2303 25.6685 36.2605 25.6278C36.3708 25.4877 36.5083 25.3713 36.6647 25.2856C36.7125 25.2582 36.7584 25.2276 36.8021 25.194L36.8425 25.1589C36.8699 25.1376 36.8917 25.1099 36.906 25.0784C36.9204 25.0468 36.927 25.0122 36.9251 24.9775C36.9233 24.9429 36.9131 24.9092 36.8954 24.8793C36.8777 24.8494 36.8531 24.8243 36.8236 24.806C35.5089 24.1407 34.1339 23.6021 32.7172 23.1973V23.1973ZM19.7348 23.6177C19.3145 25.4607 16.4583 27.4843 15.1595 27.4843H15.1325H15.0652L14.987 27.4682L14.9439 27.4547C14.6413 27.3496 14.3654 27.1794 14.1356 26.9562C13.9656 26.8023 13.8447 26.6018 13.788 26.3796L13.7637 26.2691C13.6387 25.8202 13.6818 25.3412 13.885 24.9218C13.9227 24.8356 13.9577 24.7548 13.9874 24.682C13.9874 24.6578 14.0089 24.6335 14.017 24.6093L14.0978 24.4206L14.1948 24.1674C14.1948 24.1404 14.2164 24.1135 14.2245 24.0892C14.273 23.968 14.3065 23.8413 14.3242 23.712C14.3242 23.6446 14.343 23.5611 14.37 23.4425C14.4535 23.0976 14.4939 22.8039 14.5317 22.5425C14.5561 22.1 14.6854 21.6696 14.9089 21.2869C14.9515 21.2255 15.0003 21.1686 15.0544 21.1171C15.071 21.0987 15.089 21.0816 15.1083 21.0659L15.1676 21.0201C15.2297 20.9767 15.2955 20.9388 15.3643 20.9069L15.4397 20.8746L15.596 20.8261C15.862 20.7711 16.1356 20.7629 16.4044 20.8019C16.7255 20.8274 17.0433 20.8851 17.3529 20.9743C17.5657 21.0342 17.7753 21.1052 17.9807 21.1872L18.0346 21.2087L18.1343 21.2519L18.269 21.3084L18.4226 21.3785L18.463 21.3974C18.644 21.4794 18.8172 21.5777 18.9804 21.6911C19.0531 21.745 19.1205 21.7988 19.1798 21.8527L19.239 21.9093L19.2956 21.9659C19.5029 22.1814 19.652 22.446 19.7289 22.735C19.8057 23.0239 19.8078 23.3277 19.7348 23.6177V23.6177ZM21.0579 16.628L21.0174 16.9756C20.8881 17.7301 20.5944 18.7621 19.5112 19.0289C18.8498 19.2265 18.1665 19.3415 17.4768 19.3711H17.4256C16.8867 19.3711 15.8385 19.0289 15.6526 18.1774C15.534 17.6385 15.7765 17.2343 16.1753 16.5768C16.24 16.469 16.3128 16.3505 16.3882 16.2211C16.7701 15.5804 17.0724 14.8954 17.2882 14.1814C17.3878 13.7102 17.6046 13.2719 17.9187 12.9068C18.0022 12.8242 18.0923 12.7485 18.1882 12.6805C18.3499 12.5731 18.5259 12.4887 18.7109 12.4299C18.9585 12.3519 19.2166 12.3128 19.4762 12.314C19.9687 12.3031 20.451 12.4556 20.8477 12.7479C21.0094 12.8772 21.2411 13.1386 21.3866 13.9038C21.4486 14.2999 21.33 15.0248 21.0579 16.628V16.628ZM28.7993 18.7836C28.4247 19.4249 28.22 19.7779 27.8993 20.042C27.3294 20.4885 26.621 20.7211 25.8973 20.6995C25.5489 20.6957 25.2016 20.6597 24.8599 20.5917C24.2239 20.4758 23.041 20.2603 22.6476 19.3279C22.5844 19.1811 22.5576 19.0212 22.5695 18.8618C22.568 18.5329 22.5455 18.2043 22.5021 17.8783V17.8406C22.4498 17.5248 22.4498 17.2025 22.5021 16.8867V16.8409C22.7258 15.7065 22.7716 15.534 22.8363 15.437C22.8958 15.3425 22.9882 15.2734 23.0957 15.243C23.2031 15.2125 23.3181 15.2228 23.4184 15.272C23.5187 15.3211 23.5972 15.4056 23.639 15.5092C23.6808 15.6128 23.6828 15.7281 23.6446 15.8331C23.6204 15.8978 23.5584 16.1403 23.3752 17.016V17.0618C23.3347 17.2846 23.3347 17.5127 23.3752 17.7355V17.784C23.4235 18.1412 23.4487 18.5013 23.4506 18.8618V18.9372C23.4506 18.9372 23.4506 18.9534 23.4506 18.9615C23.5545 19.1521 23.7239 19.2985 23.9275 19.3738C23.9564 19.3866 23.9884 19.391 24.0197 19.3864C24.051 19.3818 24.0803 19.3684 24.1043 19.3478C24.1283 19.3272 24.1459 19.3003 24.1552 19.27C24.1644 19.2398 24.1649 19.2076 24.1566 19.177C23.9545 18.1801 23.968 17.0214 24.3479 16.2939C24.4745 16.0541 24.7036 15.6634 24.9245 15.2996L24.9919 15.1891L25.0593 15.0894L25.3287 14.6637C25.3376 14.6469 25.3475 14.6307 25.3584 14.6152L25.3772 14.5828L25.4203 14.5128L25.4365 14.4858L25.4554 14.4562C25.4647 14.4426 25.4729 14.4282 25.4796 14.4131C25.5551 14.3026 25.6305 14.1975 25.7033 14.1005C25.7275 14.075 25.7423 14.042 25.7451 14.0069C25.7479 13.9719 25.7386 13.9369 25.7187 13.9079C25.6988 13.8788 25.6696 13.8575 25.6359 13.8475C25.6022 13.8374 25.566 13.8392 25.5335 13.8526C25.2918 13.9501 25.0643 14.0797 24.8572 14.2379C24.7628 14.3126 24.6427 14.3468 24.5232 14.3329C24.4037 14.319 24.2946 14.2582 24.2199 14.1638C24.1452 14.0695 24.1111 13.9494 24.125 13.8299C24.1389 13.7104 24.1997 13.6013 24.294 13.5266C24.5284 13.3434 25.7652 12.4488 27.258 12.8637C28.0219 13.1055 28.6745 13.6119 29.0984 14.2918C29.5353 14.8904 29.7712 15.6121 29.772 16.3532C29.7478 17.14 29.4109 17.7193 28.7993 18.7729V18.7836Z" fill="white"/>
<path d="M19.169 13.2463C19.0935 13.4323 19.0019 13.6586 18.8995 13.9065C18.6705 14.4777 18.4118 15.1271 18.2879 15.3643C18.1352 15.6621 17.967 15.9517 17.784 16.2319C17.635 16.4452 17.5129 16.6759 17.4202 16.919C17.256 17.4115 17.2262 17.9389 17.334 18.4468C17.0511 18.4145 16.5849 18.2205 16.5256 17.9726C16.4852 17.7893 16.5984 17.5899 16.9352 17.0376L17.1535 16.6738C17.571 15.9748 17.9013 15.2274 18.137 14.4481C18.3229 13.8715 18.4064 13.6397 18.7055 13.4296C18.8455 13.3367 19.0034 13.2743 19.169 13.2463V13.2463Z" fill="white"/>
<path d="M18.6059 33.6414C18.3423 34.183 18.0236 34.6959 17.6547 35.1719C17.4526 34.633 17.0996 33.372 17.1939 32.3642C17.1939 32.3373 17.1939 32.3076 17.1939 32.278C17.2193 31.9861 17.3115 31.704 17.4634 31.4535C17.5492 31.3644 17.6543 31.2962 17.7706 31.2542C17.887 31.2121 18.0114 31.1974 18.1343 31.211C18.3703 31.2103 18.603 31.2657 18.8133 31.3726C18.9047 31.4277 18.9785 31.5076 19.0262 31.603C19.0739 31.6984 19.0935 31.8054 19.0828 31.9115C19.1313 32.3912 18.9023 33.0379 18.6059 33.6414Z" fill="white"/>
<path d="M35.8375 26.4363C35.8504 26.4441 35.8601 26.4562 35.8651 26.4705C35.87 26.4848 35.8698 26.5003 35.8644 26.5144C35.7719 26.6871 35.6578 26.8474 35.5249 26.9914C35.3217 27.2174 35.1479 27.4682 35.0076 27.7378C34.765 28.2174 34.6869 28.6539 34.6465 29.7748C34.6082 30.6389 34.6217 31.5045 34.6869 32.367C34.742 32.8153 34.7301 33.2694 34.6519 33.7143C34.4659 34.7382 34.0294 35.4145 33.4744 36.2714C32.7792 37.3492 32.0624 38.454 30.8741 38.8069C30.737 38.8475 30.593 38.8594 30.4511 38.842C30.1816 38.842 29.7316 38.842 28.8828 38.8743C27.3308 38.9309 26.5521 38.9605 25.8838 39.0872C25.3979 39.1759 24.9234 39.3187 24.4692 39.5129C24.0869 39.676 23.6886 39.7988 23.2809 39.8794C22.936 39.9494 22.4213 40.0249 20.6672 40.0276C19.2057 40.0644 17.7433 40.0104 16.2885 39.8659C14.2919 39.6369 13.2922 39.5237 12.6266 39.168C11.0584 38.3327 10.3956 36.8265 9.30158 34.334C9.28811 34.3044 9.32583 34.2747 9.35547 34.2909C9.40723 34.3229 9.46235 34.3491 9.51984 34.369C9.56772 34.387 9.61741 34.3996 9.66804 34.4068C9.77047 34.4256 9.87548 34.4256 9.97791 34.4068C9.99579 34.4092 10.0139 34.4092 10.0318 34.4068V34.4068C10.0359 34.404 10.0406 34.4022 10.0455 34.4016C10.0504 34.4009 10.0553 34.4014 10.06 34.4029C10.0647 34.4045 10.069 34.4071 10.0725 34.4106C10.076 34.414 10.0787 34.4183 10.0803 34.4229C10.1402 34.6171 10.271 34.7816 10.4468 34.8837C10.6374 34.9671 10.8454 35.0031 11.053 34.9888C11.2674 34.9851 11.4814 34.9708 11.6943 34.9457C11.749 34.9399 11.8041 34.9511 11.8523 34.9775C11.9004 35.004 11.9394 35.0446 11.9638 35.0939C12.1605 35.5681 12.4003 35.9022 12.7722 35.9588H12.8476C12.9888 35.9512 13.1242 35.9004 13.2356 35.8133C13.3095 35.7718 13.3961 35.7588 13.479 35.7766C13.5618 35.7945 13.6353 35.842 13.6856 35.9103C13.7694 36.0125 13.8663 36.1031 13.9739 36.1798C14.3485 36.5651 15.2565 36.7483 16.0164 36.7483C16.3599 36.7644 16.7029 36.7093 17.0241 36.5866C17.1207 36.5527 17.2025 36.4864 17.2555 36.3989C17.3086 36.3115 17.3297 36.2083 17.3152 36.107C17.2882 35.9373 17.264 35.7675 17.2424 35.6004C17.2424 35.5954 17.2444 35.5906 17.2479 35.5871C17.2515 35.5836 17.2563 35.5816 17.2613 35.5816C17.2663 35.5816 17.2711 35.5836 17.2746 35.5871C17.2781 35.5906 17.2801 35.5954 17.2801 35.6004C17.3259 35.7001 17.3798 35.8241 17.528 35.8483H17.5846C17.7975 35.8483 18.1235 35.9157 18.1828 36.1178C18.2104 36.2205 18.2531 36.3186 18.3094 36.4088C18.4071 36.5559 18.5415 36.6748 18.6994 36.7538C18.8573 36.8327 19.0332 36.8689 19.2094 36.8588H19.2498C19.5035 36.8738 19.7572 36.8297 19.9909 36.7302C20.2247 36.6306 20.4322 36.4781 20.5971 36.2849L20.6537 36.2094C20.7304 36.1355 20.831 36.0916 20.9374 36.0857C21.0437 36.0798 21.1486 36.1122 21.233 36.1771C21.3974 36.3178 21.6099 36.3893 21.8258 36.3765H21.9336C22.0672 36.36 22.1956 36.3152 22.3104 36.2451C22.4252 36.1749 22.5237 36.081 22.5992 35.9696C22.7123 35.7991 22.7978 35.6117 22.8525 35.4145C22.8574 35.4002 22.8659 35.3873 22.877 35.3771C22.8882 35.3668 22.9017 35.3595 22.9164 35.3558C22.9311 35.352 22.9465 35.352 22.9612 35.3557C22.9759 35.3593 22.9894 35.3666 23.0007 35.3768C23.1515 35.5167 23.35 35.5937 23.5557 35.5924C23.6245 35.5913 23.693 35.5841 23.7605 35.5708C24.2725 35.4657 24.5285 35.0319 24.6497 34.563C24.6516 34.5597 24.6543 34.5569 24.6576 34.5549C24.6609 34.5529 24.6647 34.5519 24.6686 34.5519C24.6724 34.5519 24.6762 34.5529 24.6795 34.5549C24.6828 34.5569 24.6856 34.5597 24.6874 34.563C24.7834 34.6766 24.9044 34.7663 25.0409 34.8252C25.1775 34.8842 25.3258 34.9106 25.4742 34.9025H25.5416C25.6458 34.9002 25.7481 34.8748 25.8413 34.8282C25.9344 34.7816 26.0161 34.715 26.0805 34.6331C26.2432 34.3801 26.3284 34.0851 26.3257 33.7843C26.3279 33.7388 26.343 33.6949 26.3693 33.6577C26.3955 33.6205 26.4318 33.5915 26.4739 33.5741C26.9173 33.3936 27.3064 33.1012 27.6029 32.7254L27.6218 32.6957C27.6389 32.6614 27.6632 32.6312 27.6929 32.6071C27.7226 32.5829 27.7572 32.5653 27.7943 32.5556C28.0096 32.5199 28.2196 32.4574 28.4194 32.3697C28.5607 32.3037 28.7117 32.261 28.8667 32.243C30.8391 31.9412 31.2244 31.8766 31.6501 31.591C32.2888 31.1652 32.3211 30.5805 32.3534 30.0119C32.3498 29.4309 32.4975 28.8589 32.7819 28.3521C32.9193 28.1177 33.0756 27.8132 33.2399 27.5195C33.5344 26.9346 33.8619 26.367 34.2207 25.8192C34.2476 25.783 34.286 25.757 34.3297 25.7458C34.3733 25.7345 34.4195 25.7385 34.4606 25.7573C34.9365 25.9474 35.3969 26.1744 35.8375 26.4363V26.4363Z" fill="white"/>
<path d="M16.7062 32.3049C16.6043 33.2288 16.5998 34.1608 16.6927 35.0857C16.7223 35.4198 16.7654 35.7674 16.822 36.1204C16.5432 36.2193 16.2465 36.2578 15.9517 36.2336C15.2376 36.2201 14.5451 36.0395 14.335 35.8159L14.3026 35.7863C14.2131 35.7382 14.1373 35.6683 14.0822 35.583C14.027 35.4977 13.9944 35.3999 13.9874 35.2985C13.9904 35.194 14.0284 35.0934 14.0951 35.0129C14.1356 34.9456 14.1922 34.8701 14.2622 34.7758C14.4147 34.5779 14.5551 34.3709 14.6826 34.1561C14.9346 33.7125 15.2126 33.2842 15.5152 32.8735L15.5664 32.8034C15.693 32.6282 15.8358 32.4208 16.0676 32.0813C16.2319 31.828 16.372 31.6286 16.4852 31.4723C16.6036 31.3033 16.7361 31.1446 16.8813 30.998C16.8813 31.1139 16.8436 31.2675 16.8166 31.4319C16.7789 31.6744 16.7331 31.96 16.7062 32.3049Z" fill="white"/>
<path d="M16.3667 21.7046L16.3532 21.7208C16.2238 21.8938 16.1145 22.0809 16.0272 22.2786C15.7918 22.7532 15.6718 23.2766 15.6769 23.8064C15.6841 23.9713 15.6678 24.1365 15.6284 24.2968C15.585 24.427 15.5346 24.5547 15.4775 24.6794C15.1745 25.2588 15.0542 25.9165 15.1326 26.5656C14.9566 26.4867 14.8029 26.3654 14.6853 26.2126C14.6853 26.1695 14.6691 26.1264 14.6583 26.0833C14.617 25.9537 14.6017 25.8173 14.6132 25.6818C14.6248 25.5463 14.663 25.4144 14.7257 25.2938C15.1487 24.321 15.1999 24.0893 15.2323 23.8252C15.239 23.7653 15.2498 23.7059 15.2646 23.6474C15.3535 23.2648 15.3993 22.936 15.4371 22.6693C15.4494 22.3674 15.5285 22.072 15.6688 21.8043C15.7173 21.7316 15.8574 21.6912 16.0568 21.6912C16.147 21.6922 16.237 21.6994 16.3263 21.7127H16.3505L16.3667 21.7046Z" fill="white"/>
<path d="M15.8089 31.3133C15.7918 31.0784 15.7419 30.8472 15.6607 30.6262L15.6257 30.548L15.5745 30.4672L15.5475 30.4375L15.5044 30.3998L15.4775 30.3783L15.4236 30.3513H15.394H15.3589C15.2244 30.2949 15.0845 30.2524 14.9413 30.2247H14.8739C14.8533 30.222 14.8325 30.222 14.8119 30.2247H14.7607L14.661 30.2516C14.6461 30.2587 14.6317 30.2668 14.6179 30.2759L14.5829 30.2974L14.5344 30.3432L14.5048 30.381V30.3998L14.3377 30.6531L13.9362 31.2513L13.5644 31.7902L13.3353 32.065L13.3003 32.1162L13.5455 32.162C13.726 32.1971 13.9093 32.2267 14.0844 32.2537C14.4673 32.3067 14.854 32.3275 15.2404 32.3156H15.2943C15.3859 32.1836 15.4963 32.0246 15.6365 31.8144C15.7146 31.6959 15.7874 31.5854 15.8574 31.4857C15.8284 31.4327 15.8118 31.3737 15.8089 31.3133V31.3133Z" fill="white"/>
<path d="M14.4508 32.8922C14.2758 33.5366 13.9785 34.1412 13.5751 34.6733C13.144 35.2796 12.8826 35.4251 12.8314 35.4305C12.6239 35.4008 12.4191 34.8916 12.2575 34.3796C12.1928 34.1721 12.1335 33.9673 12.0823 33.7949C11.9842 33.3913 11.9469 32.9754 11.9718 32.5608C12.4057 32.8006 13.1655 32.8653 14.2353 32.8707L14.4508 32.8922Z" fill="white"/>
<path d="M13.691 30.47L13.6748 30.4916L13.1359 31.3L12.8503 31.7176C12.7964 31.7931 12.7263 31.8766 12.6671 31.9655C12.5162 31.9305 12.3626 31.8955 12.2117 31.8523C12.0884 31.8184 11.9669 31.7779 11.8479 31.7311L11.7806 31.7015C11.7597 31.6622 11.7313 31.6274 11.697 31.5991V31.5991C11.7401 31.5101 11.7832 31.4212 11.8291 31.3296C11.9099 31.1679 11.9934 31.0063 12.0985 30.85C12.2509 30.5538 12.4683 30.2958 12.7344 30.0955L12.7775 30.0686C12.8819 29.9987 13.0007 29.9536 13.1251 29.9365H13.2949H13.3137L13.4108 29.9635L13.4431 29.9796C13.4721 29.9957 13.5 30.0137 13.5266 30.0335C13.4835 30.0012 13.5859 30.1063 13.5859 30.0982C13.6531 30.2107 13.6893 30.339 13.691 30.47V30.47Z" fill="white"/>
<path d="M12.236 29.702C11.9051 29.9929 11.6349 30.3464 11.4411 30.7421C11.3252 30.9576 11.2201 31.1759 11.1123 31.3941C11.1123 31.4184 11.0908 31.4373 11.0773 31.4615C10.9749 31.4373 10.8725 31.4076 10.7701 31.3753C10.6628 31.3421 10.5575 31.3025 10.4549 31.2567L10.3148 31.1867C10.4172 30.9927 10.5384 30.8067 10.6543 30.6289C10.8195 30.3717 10.9994 30.1243 11.1932 29.8879C11.2604 29.7919 11.3444 29.7089 11.4411 29.6427C11.5508 29.5968 11.6713 29.5828 11.7887 29.6023C11.9177 29.6016 12.046 29.6216 12.1686 29.6615C12.1922 29.6731 12.2147 29.6866 12.236 29.702V29.702Z" fill="white"/>
<path d="M11.6944 34.2664C11.6779 34.2807 11.6634 34.297 11.6512 34.3149H11.6189L11.371 34.3365C11.2147 34.3365 11.053 34.3526 10.8941 34.3365C10.856 34.3408 10.8175 34.3362 10.7815 34.3231C10.7455 34.31 10.713 34.2888 10.6866 34.261C10.6335 34.1472 10.6006 34.0251 10.5896 33.9C10.485 33.3146 10.4705 32.7167 10.5465 32.127C10.8503 32.2361 11.1632 32.3181 11.4815 32.3722C11.4392 32.8897 11.4783 33.4107 11.5973 33.9161L11.6944 34.2664Z" fill="white"/>
<path d="M10.7189 29.5081C10.4502 29.8388 10.2052 30.1881 9.986 30.5535C9.89708 30.7017 9.79738 30.8553 9.71654 31.0143C9.6099 30.9831 9.50828 30.9369 9.41475 30.8769C9.33661 30.8284 9.25847 30.7745 9.18572 30.7206L9.08332 30.6398C9.07805 30.6322 9.0705 30.6266 9.06177 30.6236C9.08952 30.5555 9.121 30.4889 9.15608 30.4242C9.21266 30.3003 9.27464 30.179 9.342 30.0631C9.46501 29.8389 9.60652 29.6253 9.76504 29.4245C9.82163 29.3518 9.87821 29.2575 9.96983 29.2305C10.0585 29.2099 10.1506 29.2099 10.2393 29.2305C10.4269 29.2636 10.5967 29.3619 10.7189 29.5081V29.5081Z" fill="white"/>
<path d="M8.64952 30.9413C8.65078 30.9385 8.65285 30.936 8.65548 30.9343C8.65811 30.9326 8.66119 30.9316 8.66434 30.9316C8.66748 30.9316 8.67056 30.9326 8.6732 30.9343C8.67583 30.936 8.6779 30.9385 8.67916 30.9413C8.75533 31.0438 8.84611 31.1346 8.94861 31.2108C8.99442 31.2485 9.04292 31.2836 9.08873 31.3159C9.0907 31.3186 9.09176 31.3219 9.09176 31.3253C9.09176 31.3287 9.0907 31.332 9.08873 31.3348C8.96996 31.8035 8.90755 32.2847 8.90281 32.7683C8.90281 32.7733 8.90082 32.7781 8.89728 32.7816C8.89374 32.7851 8.88895 32.7871 8.88394 32.7871C8.87894 32.7871 8.87414 32.7851 8.87061 32.7816C8.86707 32.7781 8.86508 32.7733 8.86508 32.7683C8.74383 32.2078 8.5579 31.2701 8.64952 30.9413Z" fill="white"/>
<path d="M9.96979 31.9438C9.91328 32.3436 9.89164 32.7475 9.90512 33.151C9.90512 33.372 9.93746 33.5929 9.96979 33.8112C9.92084 33.8017 9.87054 33.8017 9.82159 33.8112C9.82159 33.8112 9.80542 33.8112 9.79465 33.8112H9.7677C9.7292 33.8039 9.6931 33.7873 9.66261 33.7627C9.5973 33.7168 9.543 33.657 9.50364 33.5875C9.40735 33.3934 9.35928 33.179 9.36352 32.9624C9.34856 32.5478 9.38111 32.1328 9.46052 31.7256L9.67878 31.8172L9.96979 31.9438V31.9438Z" fill="white"/>
<path opacity="0.8" fill-rule="evenodd" clip-rule="evenodd" d="M47.8365 35.173C48.0573 34.6774 48.2619 34.1747 48.45 33.6658C48.1531 33.9629 47.9603 34.3485 47.9009 34.765C47.8812 34.9017 47.8597 35.0375 47.8365 35.173Z" fill="url(#paint1_linear_7458_76880)"/>
<path opacity="0.8" fill-rule="evenodd" clip-rule="evenodd" d="M49.5735 29.5983C49.42 29.8334 49.2603 30.0647 49.0946 30.292C48.4068 31.2697 47.6114 32.1672 46.7234 32.9677C46.3398 33.3106 46.0977 33.7842 46.0444 34.2961C46.004 34.7002 45.9447 35.1044 45.8719 35.4844C45.4335 37.7483 44.5497 39.9025 43.2717 41.8219L42.6969 42.6583C42.6905 42.6647 42.6841 42.6711 42.6777 42.6775C42.3596 42.9956 42.0339 43.3042 41.7009 43.6031L43.0454 41.6495C44.2999 39.762 45.1681 37.6446 45.5998 35.4197C45.6725 35.0425 45.7291 34.6491 45.7695 34.253C45.8303 33.6718 46.105 33.134 46.5402 32.744C47.4133 31.9576 48.1951 31.0754 48.871 30.1141C49.1674 29.7072 49.4443 29.2872 49.701 28.8556C49.6622 29.104 49.6197 29.3516 49.5735 29.5983ZM1.0778 20.9608L0.125622 22.4959C0.104905 22.7018 0.0867288 22.9081 0.071106 23.1148C0.135822 23.0159 0.201928 22.9167 0.269438 22.8173L1.30684 21.109C1.50249 20.7922 1.636 20.441 1.70024 20.0743C2.1072 17.9722 2.95684 15.9809 4.1927 14.2325L4.31126 14.0466C4.32473 14.0169 4.3382 13.9873 4.35437 13.9442C4.3829 13.8504 4.41143 13.7598 4.44229 13.6617C4.45223 13.6301 4.46242 13.5977 4.47293 13.5642C4.63604 12.3861 4.92234 11.2282 5.3271 10.1098L5.44297 9.80803C5.46183 9.75414 5.48069 9.70025 5.53458 9.53858C5.57402 9.41178 5.61521 9.28563 5.65814 9.16016C5.48071 9.3768 5.30715 9.59615 5.13749 9.81811L5.07381 9.99934C4.66201 11.133 4.37206 12.3072 4.20886 13.5023C4.18619 13.5773 4.16239 13.6534 4.13891 13.7285C4.12613 13.7694 4.11344 13.8099 4.10108 13.8498C4.09335 13.871 4.08435 13.8917 4.07414 13.9118L3.96636 14.0789C2.71078 15.8586 1.84744 17.8847 1.43348 20.0231C1.3754 20.3553 1.2547 20.6735 1.0778 20.9608Z" fill="url(#paint2_linear_7458_76880)"/>
<path opacity="0.8" fill-rule="evenodd" clip-rule="evenodd" d="M49.8926 22.6839C49.7664 23.4702 49.5716 24.2443 49.3102 24.9972C48.8447 26.4252 48.1572 27.771 47.2731 28.9851C46.5324 30.0448 45.6421 30.9914 44.6298 31.7956C44.4051 31.9722 44.2214 32.1955 44.0911 32.4499C43.9609 32.7043 43.8873 32.9839 43.8753 33.2695C43.8457 33.8726 43.7755 34.473 43.6651 35.0667C43.2769 37.0771 42.4879 38.9886 41.3451 40.6876L40.1488 42.4579C38.3084 44.9153 36.1366 46.4997 33.5013 47.3081L32.9624 47.4751L32.3669 47.5802C31.6189 47.713 30.8605 47.7788 30.1008 47.7769H29.5781H29.3625L29.1173 47.7904L28.4948 47.8119C28.0721 47.826 27.6537 47.9013 27.2527 48.0356C25.4177 48.6553 23.2971 48.941 20.5729 48.941C19.4962 48.941 18.4426 48.897 17.4646 48.8372C17.13 48.7315 16.7978 48.6187 16.4682 48.499C17.7044 48.5886 19.1108 48.6688 20.5594 48.6688C23.254 48.6688 25.3476 48.3994 27.1476 47.7796C27.5735 47.639 28.017 47.5592 28.4652 47.5425L29.3248 47.5075H29.5565H30.0954C30.8316 47.5072 31.5663 47.4432 32.2915 47.3162L32.8708 47.2138L33.3908 47.0521C35.9695 46.2599 38.0982 44.7078 39.8982 42.3043L41.1026 40.5259C42.2291 38.8657 43.0116 36.9966 43.4038 35.029C43.5124 34.447 43.5809 33.8582 43.6086 33.2668C43.6224 32.9437 43.7061 32.6275 43.8538 32.3399C44.0029 32.0531 44.2103 31.8007 44.4627 31.5989C45.4561 30.8067 46.3293 29.8745 47.0549 28.8316C47.9262 27.6393 48.602 26.3159 49.0569 24.911C49.3624 24.0154 49.5702 23.0894 49.6767 22.1491L49.6982 22.0224C49.7305 21.9443 49.762 21.8658 49.7928 21.7871C49.8314 22.0851 49.8647 22.384 49.8926 22.6839ZM29.6227 0.430908C29.2893 0.466483 29.0136 0.50019 28.8317 0.522657L28.5164 0.579242C26.9712 0.780596 25.4699 1.23582 24.0731 1.92652C23.3966 2.25905 22.624 2.34023 21.8932 2.15555C21.0047 1.9302 20.0911 1.81882 19.1744 1.82412H18.6517H18.4253C17.358 1.88065 16.3008 2.06151 15.2754 2.36303C13.5079 2.89456 11.8819 3.81529 10.5168 5.05758L10.0291 5.49948L9.55757 6.06803C8.58533 7.2799 7.85366 8.66642 7.40193 10.153C7.34535 10.3227 7.31571 10.4089 7.27529 10.5086L7.17829 10.7646C6.79598 11.8091 6.5347 12.894 6.39956 13.9981C6.35376 14.1328 6.31334 14.2621 6.27561 14.3834L6.20556 14.607C6.15167 14.7499 6.08969 14.8873 6.04927 14.9762L5.92802 15.1702L5.87143 15.2995L5.85526 15.3238C4.71441 16.9249 3.94822 18.7621 3.6134 20.6994C3.54839 21.1092 3.4135 21.5047 3.21461 21.8689L2.59756 23.0033L2.55714 23.0571C2.48504 23.1373 2.42038 23.2189 2.35542 23.3008C2.33298 23.3292 2.31051 23.3575 2.28769 23.3859L2.12332 23.5988L1.97242 23.8143C1.114 25.0672 0.510609 26.2694 0.122803 27.4754C0.143822 27.6867 0.167515 27.8975 0.193862 28.1078C0.55477 26.725 1.1995 25.3866 2.17182 23.976L2.31733 23.7658L2.4763 23.5583C2.56737 23.4574 2.64719 23.3543 2.72399 23.255C2.73127 23.2456 2.73852 23.2362 2.74576 23.2269L3.42478 22.0036C3.63971 21.6134 3.78385 21.1883 3.85052 20.7479C4.17908 18.8447 4.93146 17.0397 6.05197 15.4666L5.94149 15.3939L6.06813 15.4424C6.10047 15.3966 6.1355 15.3454 6.15436 15.313L6.28639 15.1028L6.29135 15.0918C6.33925 14.9854 6.40156 14.847 6.45884 14.696L6.5316 14.4642C6.57201 14.343 6.61243 14.2136 6.66093 14.0574C6.79562 12.9646 7.05416 11.8906 7.43157 10.8562L7.52319 10.6137C7.56361 10.5086 7.59325 10.4197 7.65253 10.2392C8.10186 8.78435 8.82532 7.42889 9.78391 6.24587L10.2393 5.6908L10.7054 5.26236C12.0417 4.0505 13.6315 3.15205 15.3589 2.63249C16.3641 2.33281 17.4001 2.14839 18.4469 2.0828H18.6678C18.8349 2.06933 18.9993 2.06933 19.1663 2.06933C20.0639 2.06463 20.9582 2.17879 21.8258 2.40884C22.6187 2.60681 23.4561 2.51705 24.189 2.15555C25.5636 1.47482 27.0412 1.02596 28.5622 0.82714L28.8532 0.789417C29.0715 0.762471 29.4218 0.722053 29.8421 0.67894C30.0434 0.659036 30.2743 0.638325 30.5284 0.618739C30.2279 0.550604 29.926 0.487974 29.6227 0.430908Z" fill="url(#paint3_linear_7458_76880)"/>
<path opacity="0.8" fill-rule="evenodd" clip-rule="evenodd" d="M48.7949 17.3318C48.7449 17.8166 48.6734 18.2394 48.615 18.5844V18.6598C48.4587 19.6203 48.1872 20.5585 47.8066 21.4541L47.7662 21.578C47.7501 21.6669 47.7393 21.737 47.7285 21.8259L47.715 21.9283C47.6221 22.7377 47.4414 23.5346 47.1761 24.3049C46.782 25.522 46.1972 26.6689 45.4435 27.7027C44.7532 28.7028 43.9019 29.5814 42.9241 30.3029C42.5323 30.5894 42.2122 30.9628 41.9892 31.3939C41.7662 31.825 41.6462 32.302 41.6388 32.7873C41.6301 33.4202 41.5679 34.0511 41.4529 34.6735C41.1103 36.4177 40.4152 38.0736 39.4104 39.5398L38.532 40.844C36.9449 43.0616 35.0749 44.4763 32.8169 45.1553L32.701 45.193C32.5069 45.2539 32.3088 45.3016 32.1082 45.3358L31.9654 45.3601C31.3422 45.4661 30.7114 45.521 30.0792 45.5244H29.5592C29.5161 45.5244 29.4029 45.5244 29.1981 45.5379L28.8316 45.5514L28.0233 45.5837C27.5819 45.6029 27.1459 45.6882 26.7299 45.837C25.0997 46.4271 23.1435 46.6966 20.5729 46.6966C18.9561 46.6966 17.3906 46.5915 16.0568 46.4891L15.6499 46.446C15.4021 46.4088 15.1361 46.3807 14.8769 46.3534C14.8543 46.351 14.8317 46.3487 14.8092 46.3463C13.3143 46.2396 11.8465 45.8986 10.4594 45.3366C10.0847 45.0688 9.71687 44.7901 9.35634 44.5009C9.46518 44.5663 9.57625 44.6309 9.68959 44.6945L9.89707 44.8104L10.1153 44.9128C11.9477 45.7727 13.5989 45.9561 14.8096 46.0906L14.8308 46.093C15.1191 46.1226 15.4074 46.155 15.6823 46.1927L16.0784 46.2358C17.4041 46.3382 18.975 46.4433 20.5729 46.4433C23.1138 46.4433 25.0431 46.1738 26.641 45.608C27.0798 45.4484 27.5406 45.3575 28.0071 45.3385L28.8155 45.3062H29.1792C29.3894 45.2927 29.508 45.2927 29.5511 45.2927H30.09C30.6981 45.2928 31.305 45.2387 31.9034 45.131L32.0462 45.1068C32.2358 45.0743 32.4231 45.0293 32.6067 44.9721L32.7253 44.9343C34.9294 44.2607 36.7671 42.8784 38.3084 40.7066L39.1841 39.397C40.1704 37.9585 40.8526 36.3338 41.1888 34.6223C41.3022 34.0106 41.3635 33.3905 41.3721 32.7685C41.3777 32.2426 41.5058 31.7253 41.7462 31.2575C41.9866 30.7898 42.3327 30.3846 42.7571 30.0739C43.7149 29.3683 44.5482 28.5077 45.2226 27.5276C45.962 26.5148 46.535 25.3905 46.9201 24.1971C47.1784 23.4424 47.3537 22.6617 47.4429 21.869V21.7639C47.4429 21.6916 47.4556 21.6303 47.47 21.5607C47.4744 21.5396 47.4789 21.5177 47.4833 21.4945L47.4968 21.419L47.5372 21.3193C47.9147 20.4432 48.1861 19.525 48.3456 18.5844V18.5062L48.3457 18.5054C48.4262 18.0284 48.5323 17.3998 48.5691 16.6636C48.6475 16.8852 48.7228 17.108 48.7949 17.3318ZM36.6577 2.88448C35.4344 2.60544 34.1797 2.47791 32.922 2.50601C31.7956 2.50601 30.7178 2.58415 30.0307 2.68115C29.64 2.71887 29.3059 2.7566 29.1011 2.78354H29.0876L28.8182 2.81857C26.4793 3.08803 24.6713 4.13082 23.6851 4.70475L23.6554 4.71823C23.4888 4.80604 23.3047 4.85574 23.1165 4.86373C22.9321 4.87265 22.748 4.84043 22.5776 4.76942C21.4981 4.31282 20.3384 4.07558 19.1663 4.07154H18.7648H18.5924C16.1619 4.17335 13.842 5.1152 12.0285 6.73644L11.6701 7.06787L11.3171 7.49361C10.5032 8.49628 9.89192 9.64753 9.51714 10.8833C9.51291 10.8958 9.50877 10.9081 9.50471 10.9201C9.4492 11.0844 9.40783 11.2068 9.35008 11.3549L9.28002 11.5408C8.93263 12.4933 8.70016 13.4838 8.58752 14.4913C8.58621 14.5048 8.58621 14.5183 8.58752 14.5318C8.48243 14.8309 8.38004 15.1623 8.31807 15.3698C8.19142 15.6958 8.05131 16.0003 8.00011 16.1108L7.81688 16.3802C7.80886 16.3947 7.7932 16.4187 7.77501 16.4465C7.76265 16.4654 7.74913 16.4862 7.73605 16.5069L7.68754 16.5769L7.68098 16.5868C7.10992 17.4447 5.9326 19.2134 5.72591 21.6292C5.70322 21.8914 5.64334 22.1491 5.54807 22.3945L5.31095 22.998C5.2391 23.1801 5.14107 23.3508 5.01994 23.5046C4.83402 23.7417 4.65618 23.9735 4.48103 24.2025L4.43253 24.2672L4.21697 24.5366L4.04182 24.763L3.79931 25.0809C1.71643 28.1015 1.31764 30.7395 2.37659 34.5118L2.44126 34.7247C2.67853 35.5146 2.97672 36.2848 3.33316 37.0285C3.40857 37.1901 3.48129 37.3544 3.55401 37.5187L3.55411 37.5189L3.64034 37.7102L3.65014 37.7321C3.79047 38.0457 3.93812 38.3756 4.09877 38.7166C4.43887 39.2349 4.79883 39.7414 5.17815 40.2349C4.63148 39.3093 4.22892 38.4033 3.87476 37.6052L3.78854 37.4112L3.56758 36.9154C3.22045 36.181 2.93126 35.4206 2.70263 34.6412L2.64066 34.4364C1.60326 30.7502 1.99397 28.1662 4.02835 25.221L4.43523 24.6821L4.65079 24.4127L4.70199 24.3453C4.72 24.3217 4.73804 24.298 4.75613 24.2742C4.9112 24.0705 5.06957 23.8625 5.2409 23.6501C5.37808 23.478 5.48888 23.2863 5.56963 23.0816L5.80675 22.478C5.91157 22.2104 5.97692 21.929 6.00076 21.6427C6.20285 19.2849 7.3642 17.5443 7.92736 16.7009L7.97047 16.6362L8.0567 16.5042L8.18603 16.2967L8.23723 16.2239C8.30998 16.0919 8.44741 15.7793 8.57944 15.4344C8.64141 15.2162 8.7465 14.8821 8.84889 14.5776V14.5129C8.95729 13.5208 9.18529 12.5455 9.52792 11.6082L9.59528 11.4276C9.65163 11.2868 9.69161 11.1664 9.74196 11.0147C9.7494 10.9923 9.75706 10.9693 9.76504 10.9453C10.1263 9.74582 10.7165 8.62765 11.503 7.65259L11.856 7.23763L12.1955 6.91159C13.9693 5.32936 16.2364 4.41051 18.6112 4.31135H18.7756H19.1636C20.2976 4.31121 21.4203 4.53558 22.4671 4.97152C22.6724 5.05724 22.8943 5.09591 23.1165 5.08469C23.3283 5.07399 23.5355 5.01988 23.7255 4.92571L23.7632 4.90954C24.7252 4.34099 26.517 3.29281 28.8316 3.02336L29.1011 2.98833H29.1065C29.3113 2.96138 29.6346 2.92366 30.0307 2.88594C30.7205 2.81857 31.7768 2.74043 32.8977 2.74043C34.4481 2.70298 35.9943 2.90504 37.4817 3.33881C37.2098 3.18213 36.9351 3.03067 36.6577 2.88448Z" fill="url(#paint4_linear_7458_76880)"/>
<path opacity="0.8" d="M20.5729 44.4601C19.0424 44.4601 17.52 44.3577 16.232 44.258L15.9625 44.2284C15.6553 44.1852 15.3508 44.1502 15.0571 44.1206C13.9227 43.9966 12.5135 43.8511 10.9668 43.1182L10.6704 42.9646C7.70641 41.2994 6.59357 38.8096 5.70437 36.8076C5.60467 36.5839 5.50228 36.3549 5.39988 36.1312L5.37024 36.0639C5.05406 35.4122 4.79007 34.7364 4.58074 34.043L4.53763 33.9029C3.6619 30.788 3.95291 28.8156 5.64778 26.3581L5.80676 26.1399L6.21364 25.601C6.67672 24.9731 7.17418 24.3713 7.70372 23.7983C7.82239 23.6706 7.89372 23.5061 7.90581 23.3321L7.9597 22.6343L7.94084 22.4133V22.1439C8.00551 20.1337 9.01866 18.6248 9.55757 17.8164L9.59799 17.7571C9.64649 17.6817 9.69499 17.6116 9.72463 17.5631L9.90247 17.2937C10.109 16.8992 10.289 16.4914 10.4414 16.073C10.4926 15.9033 10.6327 15.4479 10.7566 15.0895C10.7895 14.9781 10.8094 14.8633 10.8159 14.7473C10.9077 13.9014 11.1023 13.0699 11.3952 12.271L11.4411 12.1471C11.5246 11.9369 11.5812 11.7672 11.6485 11.5678C11.9357 10.5967 12.4088 9.6907 13.0416 8.90016L13.2841 8.62262L13.5293 8.39897C15.3805 6.71758 17.3933 6.40231 18.7487 6.3107H18.8699H19.1582C20.3331 6.3107 21.7207 6.86847 22.4402 7.20259C22.5984 7.2749 22.7694 7.31521 22.9433 7.32122C23.1171 7.32723 23.2905 7.29882 23.4533 7.23762C23.897 7.07811 24.3292 6.88814 24.7467 6.66907C25.6548 6.13017 27.1718 5.25444 29.1038 5.03079L29.3517 4.99576C29.5673 4.96882 29.8664 4.93648 30.2382 4.89876C30.8822 4.83678 31.8711 4.76403 32.9166 4.76403C34.3615 4.72038 35.8037 4.91614 37.1848 5.34336L37.306 5.38647C40.0275 6.41579 41.1107 7.59869 42.1562 8.92441L42.1777 8.94866C42.4819 9.35872 42.8268 9.73698 43.2071 10.0777L43.4442 10.3013C43.5403 10.399 43.6439 10.4891 43.7541 10.5708C44.5396 11.1428 45.2044 11.8644 45.7103 12.6941L45.8154 12.8665L45.9097 13.0578C46.9228 15.1273 46.5995 17.0458 46.4055 18.1936V18.2691C46.2783 19.054 46.0557 19.8205 45.7426 20.5514V20.581C45.6615 20.7593 45.6053 20.9479 45.5756 21.1415C45.5486 21.287 45.5298 21.4109 45.5163 21.5241L45.5028 21.6292C45.4295 22.2907 45.284 22.9421 45.069 23.572C44.7475 24.5771 44.2652 25.5235 43.6409 26.3743C42.826 27.5982 41.6933 28.5772 40.3643 29.2063C40.0752 29.3372 39.8282 29.5459 39.6508 29.809C39.4733 30.0721 39.3724 30.3793 39.3593 30.6963C39.3593 30.8284 39.3593 30.9389 39.3593 31.0008C39.4699 32.0851 39.441 33.179 39.273 34.2558C38.976 35.739 38.3751 37.1445 37.5081 38.3839C37.3922 38.5456 34.6977 42.264 32.181 43.032L31.9115 43.1155L31.607 43.1694C31.1129 43.2598 30.6112 43.3031 30.1089 43.2987H29.5592C29.4622 43.2987 29.3059 43.2987 29.0607 43.3176H28.9314C28.0206 43.3499 27.0775 43.385 26.835 43.4335C26.7085 43.4512 26.5852 43.4866 26.4685 43.5386C25.0323 44.161 23.1569 44.4601 20.5729 44.4601ZM19.1582 6.52896C19.0666 6.52896 18.9696 6.52896 18.8888 6.52896H18.7783C17.458 6.61788 15.4963 6.92506 13.6964 8.55795L13.462 8.77082L13.2383 9.04028C12.6255 9.80989 12.168 10.6911 11.891 11.6351C11.8237 11.8372 11.7644 12.0124 11.6809 12.2252L11.6378 12.3438C11.3497 13.1258 11.1587 13.9403 11.0692 14.7689C11.0618 14.9006 11.0382 15.0309 10.9991 15.1569C10.8779 15.5126 10.7297 15.9653 10.6839 16.1431C10.5233 16.5807 10.3325 17.0066 10.1126 17.4176L9.94019 17.6736L9.80816 17.873L9.77313 17.9269C9.23422 18.7353 8.26149 20.1984 8.19952 22.1412V22.3864L8.21838 22.6127L8.17257 23.351C8.15477 23.5788 8.05971 23.7936 7.90312 23.96C7.38194 24.525 6.89171 25.1177 6.43459 25.7357C6.29986 25.9135 6.16513 26.0887 6.01963 26.2746L5.86873 26.4794C4.21698 28.8694 3.93674 30.7907 4.79092 33.8274L4.83133 33.9621C5.03365 34.6432 5.28953 35.3073 5.59658 35.948L5.62892 36.0181C5.73131 36.2444 5.8364 36.4735 5.9334 36.6971C6.81183 38.6695 7.90042 41.1215 10.8024 42.7464L11.0719 42.8919C12.5862 43.6005 13.9739 43.7514 15.0895 43.8754C15.3859 43.905 15.693 43.94 16.0029 43.9831L16.2724 44.0101C17.555 44.1098 19.072 44.2122 20.5837 44.2122C23.1354 44.2122 24.9785 43.9239 26.385 43.3095C26.5193 43.2504 26.6605 43.2088 26.8054 43.1856C27.0748 43.1344 27.9721 43.102 28.9367 43.067H29.0553C29.3086 43.0481 29.4703 43.0481 29.57 43.0481H29.7909C29.9149 43.0481 30.0173 43.0481 30.1197 43.0481C30.5994 43.0477 31.0781 43.0053 31.5505 42.9215L31.8415 42.8703L32.1109 42.7895C34.5522 42.0431 37.2871 38.268 37.3141 38.2303C38.1649 37.0176 38.754 35.6412 39.044 34.1885C39.2077 33.1311 39.2349 32.0571 39.1248 30.9927C39.1248 30.9254 39.1248 30.8068 39.1248 30.6613C39.1406 30.302 39.2554 29.9541 39.4566 29.6559C39.6577 29.3578 39.9374 29.121 40.2646 28.9718C41.5574 28.3601 42.6587 27.407 43.4496 26.2153C44.0602 25.3831 44.5325 24.4578 44.848 23.475C45.0569 22.8635 45.1978 22.231 45.2684 21.5888V21.481C45.2873 21.3517 45.3034 21.2358 45.3304 21.0903C45.3631 20.8831 45.4229 20.6811 45.5082 20.4894V20.4678C45.8178 19.7483 46.0386 18.9936 46.1657 18.2206V18.1425C46.357 17.0215 46.6723 15.1488 45.6914 13.1468L45.6025 12.9635L45.5028 12.8019C45.014 11.9987 44.3733 11.2986 43.6166 10.7405C43.4965 10.656 43.3838 10.5614 43.2798 10.4576L43.0535 10.2447C42.664 9.8945 42.3094 9.50738 41.9945 9.08878L41.9757 9.06453C40.9544 7.76306 39.8928 6.60441 37.2252 5.59665L37.112 5.55623C35.7544 5.13154 34.3358 4.93487 32.9139 4.9742C31.8765 4.9742 30.8957 5.04696 30.2571 5.10893C29.8906 5.14666 29.5915 5.17899 29.4029 5.20324L29.1334 5.24097C27.2473 5.45922 25.7572 6.33226 24.8572 6.85769C24.4299 7.08229 23.9879 7.27764 23.5342 7.44241C23.3431 7.5136 23.1398 7.54656 22.936 7.53941C22.7313 7.53069 22.5301 7.48314 22.3432 7.3993C21.6399 7.07326 20.2899 6.52896 19.1582 6.52896Z" fill="url(#paint5_linear_7458_76880)"/>
<path opacity="0.8" d="M20.5728 42.2209C19.1232 42.2209 17.652 42.1212 16.4044 42.0242L16.2643 42.0081C15.9247 41.9623 15.6041 41.9272 15.2915 41.8922C14.2137 41.7763 13.1197 41.6551 11.9099 41.0838L11.759 41.0057C9.43628 39.7042 8.57672 37.7722 7.7441 35.8861C7.62554 35.6166 7.50429 35.3472 7.37765 35.0777C7.11309 34.5228 6.89236 33.948 6.71748 33.3586L6.69593 33.2858C5.99804 30.7988 6.17588 29.5269 7.50429 27.6273L7.58782 27.5141C7.73871 27.3228 7.87614 27.1423 8.00817 26.9752C8.71044 26.0131 9.50852 25.1247 10.3901 24.3238C10.4647 24.2502 10.5162 24.1566 10.5383 24.0543C10.5545 23.9582 10.5442 23.8595 10.5087 23.7687L10.2904 23.1489C10.243 22.9441 10.2106 22.7361 10.1934 22.5265L10.1827 22.3648V22.2301C10.2285 20.8532 10.9452 19.7754 11.4195 19.064L11.4949 18.9508C11.5407 18.8808 11.5838 18.8188 11.6189 18.7622L11.7213 18.5925C12.0646 18.0201 12.349 17.4143 12.57 16.7844L12.6185 16.6335C12.6859 16.4072 12.7937 16.0596 12.888 15.7901C12.9697 15.5392 13.0221 15.2797 13.0443 15.0168C13.1166 14.3346 13.2732 13.6639 13.5104 13.0201L13.5374 12.9555C13.6398 12.686 13.7152 12.4651 13.7799 12.2657C13.9832 11.5509 14.3257 10.8834 14.7876 10.3013L14.9062 10.1585L15.0355 10.0427C16.3586 8.83821 17.8028 8.60109 18.9157 8.52564H19.0693C19.9792 8.53256 20.8699 8.78785 21.6453 9.26395L21.7719 9.33131C21.939 9.42293 22.0683 9.49029 22.1896 9.54957C22.5002 9.70739 22.8581 9.74482 23.1946 9.65466C24.1135 9.39523 25.0029 9.04125 25.8488 8.59839C26.6868 8.11068 27.9343 7.38854 29.4056 7.22687L29.613 7.19723H29.6642C29.834 7.17567 30.1142 7.14064 30.4564 7.10831C31.3402 7.02747 32.1702 6.98436 32.9219 6.98436C34.1216 6.94699 35.3193 7.10535 36.468 7.45321L36.5299 7.47746C38.7206 8.30469 39.5209 9.17233 40.4101 10.3067C40.8017 10.8304 41.2449 11.3133 41.7331 11.7483L41.8544 11.8642C42.0206 12.036 42.2009 12.1938 42.3933 12.3357C42.9609 12.7424 43.4419 13.2581 43.8079 13.8528L43.9103 14.0387C44.6055 15.4614 44.3765 16.8248 44.2094 17.811L44.1959 17.8892C44.0932 18.5165 43.9122 19.1285 43.657 19.7107C43.5139 20.0315 43.4125 20.3692 43.3552 20.7158C43.3148 20.9232 43.2933 21.0822 43.2744 21.2304V21.3355C43.2195 21.8491 43.1083 22.3551 42.943 22.8445C42.6903 23.6395 42.3089 24.3878 41.8139 25.0594C40.9598 26.2827 40.0355 27.0021 38.8122 27.3902C38.2591 27.5671 37.7835 27.9286 37.4649 28.4141L37.3706 28.5623L37.2548 28.6943C36.9853 29.0123 37.0689 30.4404 37.1147 31.1194C37.2094 32.0162 37.1922 32.9214 37.0635 33.814C36.8097 35.0374 36.3021 36.1941 35.5734 37.2091C35.4845 37.3357 33.4177 40.2863 31.5073 40.8683L31.3699 40.9114L31.2109 40.941C30.8426 41.0058 30.4693 41.0382 30.0954 41.038H29.5726C29.4406 41.038 29.2412 41.038 28.9313 41.0596H28.8316C28.0209 41.0631 27.2112 41.1144 26.4065 41.2132C26.1285 41.262 25.8572 41.3434 25.5982 41.4557C24.4557 41.9811 22.8551 42.2209 20.5728 42.2209ZM18.9561 8.76546C17.8783 8.83551 16.4717 9.06455 15.1999 10.2205L15.084 10.3256L14.9763 10.4576C14.5331 11.0163 14.2052 11.6575 14.0116 12.3438C13.9443 12.5486 13.8688 12.7749 13.761 13.0471L13.7395 13.1064C13.5071 13.7322 13.355 14.385 13.2868 15.0491C13.2615 15.3242 13.2045 15.5955 13.117 15.8575C13.0254 16.127 12.9176 16.4719 12.8476 16.6955L12.7964 16.8545C12.5662 17.5067 12.271 18.1341 11.9153 18.7272L11.8236 18.8565C11.7886 18.9158 11.7455 18.9805 11.6997 19.0505L11.6269 19.161C11.1635 19.8562 10.4683 20.899 10.4252 22.2112V22.3352V22.4888C10.4384 22.6891 10.4663 22.8881 10.5087 23.0843L10.7243 23.6932C10.7704 23.8296 10.7779 23.976 10.7458 24.1163C10.7124 24.2575 10.6384 24.3858 10.533 24.4854C9.66095 25.2781 8.87187 26.1575 8.17793 27.1099C8.0432 27.2851 7.90847 27.4656 7.75219 27.6488L7.67943 27.7512C6.40761 29.5889 6.23785 30.8176 6.91418 33.2239L6.93305 33.2885C7.10335 33.8684 7.32053 34.4334 7.58243 34.978C7.70907 35.2475 7.83033 35.5169 7.94619 35.7864C8.75456 37.6294 9.61142 39.5318 11.8668 40.7955L12.0042 40.8656C13.1763 41.4045 14.2622 41.5365 15.3104 41.6497C15.6257 41.6847 15.949 41.7198 16.2912 41.7656H16.4178C17.66 41.8626 19.1124 41.9623 20.5675 41.9623C22.8174 41.9623 24.3856 41.7305 25.5092 41.232C25.7841 41.1085 26.0726 41.0181 26.3688 40.9626C27.1814 40.8608 27.9993 40.8077 28.8182 40.8036H28.9152C29.225 40.7821 29.4379 40.7821 29.5645 40.7821H30.0873C30.4486 40.7807 30.8091 40.7492 31.1651 40.6877L31.3106 40.6635L31.4346 40.6231C33.2722 40.0653 35.3551 37.0851 35.3767 37.0555C36.0877 36.0667 36.5825 34.9393 36.829 33.7466C36.9541 32.8808 36.9713 32.0029 36.8802 31.1329C36.8048 29.9877 36.759 28.8668 37.0742 28.5084L37.182 28.3871L37.2656 28.2524C37.6153 27.7234 38.1353 27.3298 38.7395 27.1369C39.9116 26.765 40.7981 26.0591 41.6226 24.8896C42.1032 24.236 42.4728 23.5077 42.7166 22.734C42.8777 22.2587 42.9862 21.7671 43.04 21.2682V21.1604C43.0588 21.0095 43.0831 20.8451 43.1208 20.6349C43.1823 20.2701 43.2891 19.9143 43.4388 19.576C43.6858 19.0122 43.8597 18.419 43.9561 17.811L43.9696 17.7329C44.1339 16.7683 44.3549 15.4479 43.7001 14.0926L43.6085 13.9228C43.2588 13.3552 42.8011 12.8617 42.2612 12.4705C42.0594 12.3218 41.8693 12.1579 41.6927 11.98L41.5795 11.8696C41.0825 11.4273 40.6311 10.9362 40.2322 10.4037C39.3646 9.29628 38.5859 8.45289 36.4599 7.64453L36.4006 7.62297C35.2771 7.28338 34.1058 7.12956 32.9327 7.16759C32.189 7.16759 31.3672 7.20801 30.4888 7.29154C30.1493 7.32118 29.8717 7.35621 29.7047 7.37776H29.6535L29.4487 7.40741C28.0206 7.56369 26.7972 8.27235 25.9889 8.74121C25.1211 9.19488 24.208 9.55614 23.2647 9.81902C22.8809 9.94283 22.4653 9.92272 22.0953 9.76244C21.974 9.70316 21.842 9.6331 21.6911 9.54957L21.5483 9.47412C20.8082 9.01766 19.9576 8.77172 19.0881 8.76276H18.9561V8.76546Z" fill="url(#paint6_linear_7458_76880)"/>
<defs>
<radialGradient id="paint0_radial_7458_76880" cx="0" cy="0" r="1" gradientUnits="userSpaceOnUse" gradientTransform="translate(25.5757 27.7728) rotate(90) scale(28.088)">
<stop offset="0.17" stop-color="#073183"/>
<stop offset="1" stop-color="#0054F9"/>
</radialGradient>
<linearGradient id="paint1_linear_7458_76880" x1="-3.51909" y1="-5.60468" x2="53.7724" y2="54.5268" gradientUnits="userSpaceOnUse">
<stop offset="0.21" stop-color="#89D0FF"/>
<stop offset="0.4" stop-color="#EBBF9A"/>
<stop offset="0.6" stop-color="#EB8280"/>
<stop offset="0.84" stop-color="#A281FF"/>
</linearGradient>
<linearGradient id="paint2_linear_7458_76880" x1="-1.28261" y1="-3.03148" x2="51.5359" y2="52.6298" gradientUnits="userSpaceOnUse">
<stop offset="0.21" stop-color="#89D0FF"/>
<stop offset="0.4" stop-color="#EBBF9A"/>
<stop offset="0.6" stop-color="#EB80DA"/>
<stop offset="0.84" stop-color="#A281FF"/>
</linearGradient>
<linearGradient id="paint3_linear_7458_76880" x1="0.964658" y1="-0.797669" x2="49.3075" y2="50.3933" gradientUnits="userSpaceOnUse">
<stop offset="0.21" stop-color="#89D0FF"/>
<stop offset="0.4" stop-color="#EBBF9A"/>
<stop offset="0.6" stop-color="#EB8280"/>
<stop offset="0.84" stop-color="#A281FF"/>
</linearGradient>
<linearGradient id="paint4_linear_7458_76880" x1="3.20921" y1="1.44435" x2="47.0656" y2="48.1489" gradientUnits="userSpaceOnUse">
<stop offset="0.21" stop-color="#89D0FF"/>
<stop offset="0.4" stop-color="#EBBF9A"/>
<stop offset="0.6" stop-color="#EB80E7"/>
<stop offset="0.84" stop-color="#A281FF"/>
</linearGradient>
<linearGradient id="paint5_linear_7458_76880" x1="5.45108" y1="3.67813" x2="44.8319" y2="45.899" gradientUnits="userSpaceOnUse">
<stop offset="0.21" stop-color="#89D0FF"/>
<stop offset="0.4" stop-color="#EBBF9A"/>
<stop offset="0.6" stop-color="#EB80D3"/>
<stop offset="0.84" stop-color="#A281FF"/>
</linearGradient>
<linearGradient id="paint6_linear_7458_76880" x1="7.70099" y1="5.90924" x2="42.5981" y2="43.6571" gradientUnits="userSpaceOnUse">
<stop offset="0.21" stop-color="#89D0FF"/>
<stop offset="0.4" stop-color="#EBBF9A"/>
<stop offset="0.6" stop-color="#A280EB"/>
<stop offset="0.84" stop-color="#A281FF"/>
</linearGradient>
</defs>
</svg>
