
<svg width="50" height="50" viewBox="0 0 50 50" fill="none" xmlns="http://www.w3.org/2000/svg">
    <g id="Property 1=BCH">
        <rect id="Rectangle 3" width="50" height="50" rx="8" fill="#2FCF6E"/>
        <path id="Shape" fill-rule="evenodd" clip-rule="evenodd" d="M28.531 19.3397C29.3989 22.0024 24.9412 23.2389 23.5368 23.7205L22.016 18.9814C23.3928 18.517 27.6256 16.5569 28.531 19.3397ZM32.0576 26.3186C33.0169 29.2478 27.6667 30.7548 26.0118 31.3207L24.3138 26.1162C25.9958 25.5334 31.0449 23.2425 32.0576 26.3186ZM25.5086 14.7461L24.2501 10.8516L21.7895 11.7052L23.0271 15.5048C22.3738 15.7329 21.7205 15.961 21.0835 16.2154L19.8455 12.4152L17.3579 13.2857L18.6168 17.1807C18.0882 17.3666 17.5766 17.5784 17.048 17.7642L13.657 18.9477L14.471 21.4639C14.471 21.4639 16.2894 20.7949 16.2512 20.8554C17.2527 20.5176 17.7559 20.9593 17.9878 21.3905L19.429 25.8192C19.4994 25.8117 19.5817 25.7603 19.6955 25.7606C19.5978 25.7859 19.5431 25.8201 19.4454 25.8455L21.4862 32.0237C21.5393 32.3507 21.4931 32.8834 20.8131 33.129C20.8562 33.1378 19.0055 33.7539 19.0055 33.7539L19.4422 36.7582L22.6378 35.6255C23.2371 35.4311 23.8194 35.2109 24.391 35.0338L25.6659 38.9546L28.1265 38.101L26.868 34.2065C27.5644 33.9872 28.2178 33.7591 28.8441 33.5478L30.0865 37.4167L32.5471 36.5631L31.2726 32.6429C35.3403 30.9653 37.9146 28.9599 37.0422 25.0765C36.3558 21.9759 34.4682 21.139 31.9073 21.407C33.1574 20.1934 33.643 18.6663 32.7828 16.6829C31.5834 13.975 28.7845 13.9235 25.5086 14.7461Z" fill="white"/>
    </g>
</svg>
