
<svg width="50" height="50" viewBox="0 0 50 50" fill="none" xmlns="http://www.w3.org/2000/svg">
    <g id="Property 1=BTC">
        <rect id="Rectangle 3" width="50" height="50" rx="8" fill="#F7931A"/>
        <path id="Shape" fill-rule="evenodd" clip-rule="evenodd" d="M30.9382 22.1387C30.2632 24.8773 25.8275 23.5538 24.3813 23.2154L25.603 18.3539C27.0167 18.6923 31.645 19.2774 30.9382 22.1387ZM30.2306 29.9849C29.492 33.0001 24.1561 31.4311 22.4528 31.0311L23.7708 25.6774C25.506 26.0774 31.0019 26.8158 30.2306 29.9849ZM35.9518 22.1387C36.3696 19.1845 34.0232 17.6461 30.8093 16.5999L31.8058 12.6002L29.2667 12.0157L28.3028 15.9232C27.6279 15.7693 26.9529 15.6154 26.278 15.4926L27.2419 11.5845L24.671 11L23.6745 15.0004C23.1277 14.877 22.5817 14.7848 22.0349 14.6614L18.532 13.862L17.8889 16.4466C17.8889 16.4466 19.7856 16.846 19.7211 16.8772C20.7495 17.1233 20.9421 17.7695 20.9103 18.2617L19.7856 22.8154C19.8493 22.8466 19.9464 22.8466 20.0427 22.9076C19.9464 22.8771 19.8819 22.8771 19.7856 22.8466L18.2423 29.2153C18.1141 29.5232 17.7926 29.9537 17.0858 29.8005C17.1177 29.831 15.2217 29.3692 15.2217 29.3692L14 32.1695L17.3103 32.9079C17.9215 33.0618 18.532 33.1845 19.1106 33.3384L18.1141 37.3693L20.6532 37.9538L21.6497 33.9541C22.3565 34.1385 23.0314 34.2924 23.6745 34.4463L22.678 38.4155L25.217 39L26.2135 34.9698C30.5522 35.7082 33.798 35.3691 35.1161 31.5851C36.177 28.5692 35.0197 26.8463 32.7059 25.7079C34.4092 25.3383 35.6302 24.2928 35.9518 22.1387Z" fill="white"/>
    </g>
</svg>
