<svg xmlns="http://www.w3.org/2000/svg" width="50px" height="50px" viewBox="0 0 32 32">
    <title>Binance USD – BUSD</title>
    <g data-name="Layer 2">
        <g data-name="Layer 1">
            <circle cx="16" cy="16" r="16" fill="#ffb900"/>
            <path d="M23.52 11.47l-.35.38L12.9 22.12c-.4.4-.81.79-1.2 1.21-.21.23-.34.2-.55 0q-1.23-1.26-2.49-2.49c-.23-.22-.24-.36 0-.59q5.78-5.77 11.55-11.55c.2-.2.33-.25.55 0 .84.87 1.7 1.71 2.56 2.57a2.26 2.26 0 01.2.2zM28 16c0 .21-.2.3-.31.42l-7 7c-1.46 1.46-2.92 2.91-4.37 4.38-.28.29-.43.29-.71 0-.77-.8-1.61-1.6-2.36-2.38-.24-.24-.31-.38 0-.66Q19 19 24.7 13.28c.26-.26.41-.27.67 0 .79.82 1.6 1.61 2.4 2.41.09.09.17.18.23.31zm-16.59-1.48l-.25-.22c-.84-.84-1.68-1.69-2.53-2.52-.19-.18-.21-.31 0-.5l7.14-7.15c.18-.18.29-.16.46 0q1.27 1.3 2.57 2.58c.17.17.19.28 0 .46l-7.15 7.14zm-4.55-1.45c.17 0 .23.11.3.18.84.84 1.68 1.69 2.53 2.52.19.19.21.31 0 .5q-1.27 1.26-2.52 2.53c-.22.23-.35.19-.55 0q-1.23-1.27-2.48-2.5c-.21-.21-.21-.34 0-.55.84-.82 1.66-1.65 2.49-2.48z"
                  data-name="Layer 1-2" fill="#fff"/>
        </g>
    </g>
</svg>
