
<svg width="50" height="50" viewBox="0 0 50 50" fill="none" xmlns="http://www.w3.org/2000/svg">
    <rect width="50" height="50" rx="8" fill="#F5AC37"/>
    <path fill-rule="evenodd" clip-rule="evenodd" d="M15.2265 36.9054V36.9826L15.2228 36.9854V36.9985H24.1803C25.1942 37.0124 26.2044 36.9314 27.2006 36.7527C28.2497 36.547 29.272 36.2231 30.2468 35.7838C30.6695 35.5877 31.0751 35.3507 31.4842 35.1116C31.5878 35.0511 31.6916 34.9905 31.796 34.9303C32.2773 34.5868 32.7383 34.2145 33.1769 33.8189C34.3776 32.7318 35.3069 31.3757 35.8877 29.8632C35.9267 29.6938 36.0921 29.5849 36.2622 29.6174H38.7016C38.8958 29.6174 38.9599 29.5523 38.9599 29.3326V27.768C38.9729 27.6181 38.9729 27.4664 38.9599 27.3166C38.9599 27.2774 38.97 27.2383 38.98 27.1994C39 27.1216 39.02 27.0441 38.9599 26.9666H36.922C36.6757 26.9666 36.6757 26.9405 36.6757 26.7209C36.7463 25.9334 36.7463 25.1432 36.6757 24.3558C36.6627 24.1231 36.7147 24.1231 36.895 24.1231H38.6765C38.8837 24.1231 38.9609 24.071 38.9609 23.8643V21.744C38.9479 21.4592 38.9479 21.4592 38.6514 21.4592H36.3412C36.1609 21.4899 35.988 21.368 35.9555 21.1874C35.6907 20.494 35.3533 19.8304 34.9472 19.2095C34.5383 18.5971 34.0774 18.0219 33.5663 17.4904C32.887 16.8109 32.124 16.2208 31.2951 15.7322C30.0452 15.0052 28.6782 14.4961 27.2554 14.2327C26.5649 14.1052 25.867 14.0279 25.1645 14H15.4849C15.2265 14 15.2265 14.0521 15.2265 14.2588V21.2265C15.2265 21.4722 15.1745 21.4722 14.9812 21.4722H12.2063C12 21.4722 12 21.5104 12 21.6528V23.9276C12 24.1343 12.0641 24.1343 12.2193 24.1343H15.0202C15.2265 24.1343 15.2265 24.1724 15.2265 24.3279V26.7581C15.2265 26.9778 15.1615 26.9778 14.9942 26.9778H12V29.4341C12 29.6407 12.0641 29.6407 12.2193 29.6407H15.0202C15.2265 29.6407 15.2265 29.6658 15.2265 29.8343V32.8723V33.8934V36.9054ZM33.0514 21.2507C33.0737 21.3084 33.0737 21.3727 33.0514 21.4313H33.1137C33.0877 21.5085 32.9585 21.5346 32.9585 21.5346H18.0646C17.8193 21.5346 17.8193 21.4825 17.8193 21.2889V16.7002C17.8193 16.5317 17.8453 16.4544 18.0386 16.4544H24.9693C25.7072 16.4479 26.4432 16.5252 27.1634 16.6871C28.5908 17.0259 29.9188 17.6998 31.0358 18.652C31.2588 18.8186 31.4577 19.015 31.6296 19.2337C31.9939 19.5958 32.3136 19.9988 32.5849 20.4363C32.7652 20.6923 32.9204 20.965 33.0514 21.2507ZM33.6694 26.9638H25.8224H18.1297C17.9728 26.9638 17.8955 26.9638 17.8573 26.9251C17.8202 26.8875 17.8202 26.8133 17.8202 26.6669V24.366C17.8202 24.1845 17.8722 24.1203 18.0655 24.1203H33.6824C33.8506 24.1203 33.9278 24.1845 33.9278 24.34C33.9919 25.1404 33.9919 25.9446 33.9278 26.7441C33.9157 26.9638 33.8367 26.9638 33.6694 26.9638ZM33.0514 29.6528C32.8321 29.6286 32.611 29.6286 32.3916 29.6528H18.0786C17.8853 29.6528 17.8202 29.6528 17.8202 29.9116V34.3979C17.8202 34.6045 17.8202 34.6566 18.0786 34.6566H24.6868C25.0028 34.6808 25.3187 34.6585 25.6282 34.5924C26.5872 34.5235 27.5305 34.315 28.43 33.9716C28.7571 33.858 29.0731 33.71 29.3714 33.5323H29.4616C31.0107 32.7253 32.269 31.4576 33.0626 29.9013C33.0626 29.9013 33.1527 29.7059 33.0514 29.6547V29.6528Z" fill="#FEFEFD"/>
</svg>
