
<svg width="50" height="50" viewBox="0 0 50 50" fill="none" xmlns="http://www.w3.org/2000/svg">
    <path d="M0 8C0 3.58172 3.58172 0 8 0H42C46.4183 0 50 3.58172 50 8V42C50 46.4183 46.4183 50 42 50H8C3.58172 50 0 46.4183 0 42V8Z" fill="#7A6A2A"/>
    <mask id="mask0_144:1075" style="mask-type:alpha" maskUnits="userSpaceOnUse" x="0" y="0" width="50" height="50">
        <path d="M6.10352e-05 8C6.10352e-05 3.58172 3.58178 0 8.00006 0H42.0001C46.4183 0 50.0001 3.58172 50.0001 8V42C50.0001 46.4183 46.4183 50 42.0001 50H8.00006C3.58179 50 6.10352e-05 46.4183 6.10352e-05 42V8Z" fill="#7A6A2A"/>
    </mask>
    <g mask="url(#mask0_144:1075)">
        <path fill-rule="evenodd" clip-rule="evenodd" d="M6.22677 22.4174C6.03565 22.2428 5.83373 22.0679 5.64801 21.8934C5.46229 21.7188 5.27154 21.5439 5.08042 21.3693L4.51246 20.8294C4.4196 20.7366 4.32134 20.6549 4.22848 20.5617C4.13562 20.48 4.02657 20.3871 3.93371 20.305C3.18003 19.5899 2.42204 18.8747 1.6788 18.1592C2.44867 18.8635 3.20235 19.5629 3.97222 20.2777L4.23964 20.5455C4.3325 20.638 4.43076 20.72 4.52362 20.8129L5.09122 21.3369C5.28233 21.5115 5.46805 21.6864 5.65917 21.8768C5.85029 22.0672 6.03601 22.2425 6.22713 22.4167L6.22677 22.4174ZM-3.77573 22.3094C-3.77573 22.3094 -1.03493 22.593 0.302902 22.7842C1.54211 22.9591 5.41882 23.554 5.41882 23.554L-3.77573 22.3094ZM-3.7757 22.3094C-3.00583 22.3749 -2.23596 22.4566 -1.46609 22.5387C-1.07305 22.5768 -0.696216 22.6204 -0.319378 22.6585L0.259016 22.7244C0.450134 22.7514 0.635853 22.7787 0.826971 22.8061L3.12039 23.1718L4.26674 23.3629C4.64358 23.4284 5.02041 23.4997 5.41345 23.5652C5.03661 23.527 4.64358 23.4723 4.26674 23.4176L3.12039 23.2538L0.826971 22.9155C0.635853 22.8882 0.450134 22.8497 0.259016 22.8227L-0.319738 22.7561C-0.696575 22.7179 -1.08961 22.6632 -1.46645 22.6193C-2.23632 22.5268 -3.00619 22.4282 -3.77606 22.3083L-3.7757 22.3094ZM5.14612 24.2681C5.14612 24.2681 2.2196 25.011 1.23125 25.295C0.259466 25.5624 -2.68361 26.4579 -2.68361 26.4579L5.14576 24.2685L5.14612 24.2681Z" fill="#CFB66C"/>
        <path fill-rule="evenodd" clip-rule="evenodd" d="M5.14565 24.2681C4.496 24.4592 3.84994 24.645 3.19092 24.8199L1.23619 25.3439C0.586531 25.5351 -0.0595276 25.7208 -0.707386 25.9119L-1.67917 26.1793C-2.0013 26.2722 -2.32883 26.3539 -2.66176 26.4471C-2.33999 26.3391 -2.0121 26.2286 -1.68997 26.1358L-0.718183 25.8248C-0.0685256 25.6225 0.577533 25.4314 1.22539 25.2295C1.88585 25.0657 2.53586 24.8908 3.19632 24.7324C3.82402 24.5741 4.48484 24.4161 5.14565 24.2685V24.2681ZM-2.27415 28.2596C-1.95238 28.1394 1.76057 26.4089 2.6233 26.0047C3.0552 25.8025 4.31061 25.3569 4.31061 25.3569L-2.27415 28.2596Z" fill="#CFB66C"/>
        <path fill-rule="evenodd" clip-rule="evenodd" d="M-2.27404 28.2596C-1.99042 28.1517 -1.72264 28.0196 -1.44982 27.8939L-0.641796 27.5171L0.98001 26.7364C1.51989 26.4798 2.04466 26.1966 2.60146 25.9554C2.88543 25.8356 3.16941 25.7373 3.45303 25.6444L3.88493 25.508C4.03214 25.4699 4.16891 25.426 4.31684 25.3878C3.77696 25.6444 3.20864 25.8629 2.66804 26.1138C2.12816 26.3816 1.57604 26.6 1.01888 26.8401L-0.629918 27.5661C-1.18348 27.7903 -1.72336 28.0304 -2.2744 28.2596H-2.27404ZM-1.91422 29.7713C-1.91422 29.7713 1.44889 27.8004 2.60639 27.1669C3.2125 26.8286 5.17263 25.8564 5.17263 25.8564L-1.91422 29.7713Z" fill="#CFB66C"/>
        <path fill-rule="evenodd" clip-rule="evenodd" d="M-1.91362 29.772C-1.34602 29.4225 -0.767271 29.0676 -0.188517 28.7073L0.675294 28.1829C0.970069 28.0084 1.25405 27.8446 1.55458 27.67C1.84936 27.4951 2.13333 27.3206 2.43351 27.1568C2.57641 27.0686 2.72613 26.9919 2.88125 26.9275L3.33979 26.6982C3.9459 26.4035 4.55201 26.1029 5.19087 25.8463C4.61211 26.2124 4.0168 26.5237 3.42185 26.8455C3.12708 27.0092 2.82654 27.1568 2.53177 27.3206C2.23699 27.4843 1.95301 27.6592 1.65248 27.8176C1.3577 27.9922 1.07373 28.1559 0.773552 28.3143L-0.116533 28.8002L-1.9129 29.772H-1.91362ZM5.14581 26.2883C5.14581 26.2883 3.05466 27.8935 2.37765 28.4068C1.70064 28.92 -0.292244 30.3615 -0.292244 30.3615L5.14581 26.2883Z" fill="#CFB66C"/>
        <path fill-rule="evenodd" clip-rule="evenodd" d="M17.1471 39.234L16.077 37.2083L16.6993 34.6748L21.1383 32.9605L19.249 29.0842L20.1827 25.1693L21.9355 21.6637L27.3519 20.8121L31.3319 17.0175L39.9261 17.6671L41.6131 26.8563L38.3644 38.4259L36.5137 44.4157L29.0115 44.6997L25.5282 42.2864L21.4496 40.5826L17.1471 39.234Z" fill="#E2CC85"/>
        <path fill-rule="evenodd" clip-rule="evenodd" d="M30.3057 39.1684C30.3057 39.1684 29.2681 39.6435 27.4984 39.5341C26.9862 38.8463 23.3992 38.5241 23.3992 38.5241C23.3992 38.5241 22.9515 38.3877 22.1597 38.7153C21.3628 39.0392 20.6091 38.9992 19.9047 39.1738C19.2004 39.3484 18.5011 38.4313 17.9612 38.2402C17.4213 38.0382 16.7054 37.5524 16.7054 37.5524L15.1937 37.4048L12.1582 36.1217L7.33558 31.3171L6.0251 33.3686L5.62091 35.9075L7.07895 38.9161L11.0046 42.4923L18.6594 44.4358L23.1966 43.0991L28.8805 40.6966L30.3057 39.168V39.1684Z" fill="#F1D789"/>
        <path fill-rule="evenodd" clip-rule="evenodd" d="M3.10938 22.1881L4.08117 19.2454L5.23903 17.345L8.96782 17.0337L7.84846 20.2989L4.73118 25.8464L6.0251 30.7985L3.73204 31.9449L3.02732 30.864L2.45972 28.3852L2.42157 25.6005L3.10938 22.1881Z" fill="#F4ECB4"/>
        <path fill-rule="evenodd" clip-rule="evenodd" d="M7.29161 38.9665L6.57645 37.9674C6.57645 37.9674 6.38533 37.4923 6.49475 37.0773C6.60273 36.6569 6.58725 36.6296 6.5329 36.4712C6.47855 36.3128 6.01965 35.7668 6.04701 35.2972C6.074 34.8221 6.00885 34.6637 6.35798 34.2872C6.72366 33.9215 6.6146 33.2881 6.6146 33.2881L7.0897 33.5828L7.19767 33.4191C7.19767 33.4191 7.37224 33.5555 7.37224 33.7686C7.41039 33.4738 7.25202 32.1086 7.6123 31.7976C7.97259 31.4867 8.61145 33.2553 8.61145 33.2553L8.21841 30.6891L7.20811 28.0577L5.41175 25.6552L5.30377 23.0069V22.7776C5.30377 22.7776 4.47919 24.0446 4.24992 25.0452C4.08616 25.733 4.47919 26.5683 4.39749 27.5567C4.33162 28.5396 4.24992 28.463 4.48999 28.8524C4.73005 29.2418 5.31457 30.0427 5.0853 30.6214C4.88338 31.1185 4.19521 30.769 4.19521 30.769C4.19521 30.769 4.0588 31.1728 3.87308 31.3204C3.80758 31.0803 3.73667 30.9273 3.60566 30.7805C3.5945 30.8734 3.56751 30.999 3.56751 30.999C3.56751 30.999 3.44729 30.6221 3.32708 30.147C3.16368 29.5139 2.98876 28.6786 2.83039 28.2308C2.76488 28.4874 2.60112 29.2681 2.60112 29.2681L2.69398 30.4695L3.14172 32.1183L3.57363 33.1981L3.99402 34.5194L4.35934 35.4069L4.65411 36.0839L4.91073 37.6075L6.14994 38.9176L6.81076 39.2127L7.29089 38.9669L7.29161 38.9665Z" fill="#F3E19D"/>
        <path fill-rule="evenodd" clip-rule="evenodd" d="M3.75894 19.7857C3.75894 19.7857 2.86885 21.2973 2.61259 22.8212C2.35632 24.3451 2.12669 25.9554 2.28866 28.03C2.45242 30.1215 2.76375 31.4043 3.01498 32.3217C3.44688 33.8453 4.56552 35.9638 4.56552 35.9638L4.60367 35.8817C4.41564 35.5253 4.26557 35.1501 4.15593 34.7623C4.00836 34.1836 3.95365 33.4958 3.81724 33.1845C3.69703 32.8735 3.49511 32.6057 3.39685 32.2235C3.304 31.8578 3.28888 31.279 3.00382 30.8478C2.88361 30.6729 2.73604 30.2144 2.69249 29.7558C2.63778 29.0677 2.71984 28.2978 2.65434 27.6647C2.53412 26.6108 2.45242 25.8957 2.56148 25.3439C2.67053 24.7922 3.23885 23.2258 3.58833 21.9808C3.8176 21.1836 3.68083 20.512 4.10122 19.8184C4.52161 19.1306 4.77859 18.5245 4.87109 18.1041C4.97907 17.7219 3.7575 19.7857 3.7575 19.7857H3.75894Z" fill="#F2E8B0"/>
        <path fill-rule="evenodd" clip-rule="evenodd" d="M7.97987 19.1795C7.97987 19.1795 7.52133 19.3163 7.30285 19.5563C7.08438 19.7856 6.99152 19.9767 6.69675 20.3644C6.40197 20.752 6.38542 21.0687 6.14499 21.5546C5.90492 22.0297 5.37512 22.7449 5.30961 23.0015C5.2441 23.2581 5.13505 24.4592 4.99864 25.0271C4.87842 25.5951 5.13505 26.2941 5.13505 26.2941L5.44602 26.2282C5.44602 26.2282 5.44602 26.6324 5.75735 26.9056C6.06832 27.173 6.12303 25.9989 6.12303 25.9989L7.28594 22.0733L9.03839 20.883L9.22951 19.922L7.97915 19.1795H7.97987Z" fill="#F5EEC0"/>
        <path fill-rule="evenodd" clip-rule="evenodd" d="M8.83125 20.9597C8.83125 20.9597 8.00667 21.014 7.60284 21.3092C7.43907 21.429 7.37357 21.5273 7.19901 21.6748C6.87688 21.9423 6.54899 22.1881 6.39098 22.5386C6.21606 22.8878 6.02494 23.4176 5.89393 24.4167C5.83922 24.8371 5.83922 25.2247 5.80107 25.5634C5.74636 26.022 5.66466 26.3876 5.70821 26.6432C5.76292 27.1672 6.30352 27.4404 6.35607 28.0354L7.47543 27.4678L8.52927 23.3125L10.768 21.9088L9.50106 20.4893L8.82981 20.9572L8.83125 20.9597Z" fill="#E6DB9D"/>
        <path fill-rule="evenodd" clip-rule="evenodd" d="M2.92629 48.9403C2.93097 48.8993 2.93565 48.8583 2.94033 48.8162C3.10373 47.4125 3.13145 46.3485 3.2513 45.6823C3.42586 44.7379 3.54608 44.3866 3.51872 44.0332C3.48057 43.4656 3.43702 43.0506 3.49173 42.6136C3.57343 42.0349 4.14139 41.3471 4.12519 40.872C4.11403 40.4951 3.92292 40.2497 3.75915 40.0204C3.59539 39.7911 3.46438 39.6 3.46438 39.6C3.46438 39.6 4.58373 38.8301 4.57293 35.7287C4.59579 35.7351 4.61779 35.7443 4.63844 35.7561L5.18984 37.3228L5.56668 37.7813L7.01356 40.4786L8.87543 42.2861L11.627 44.1368L13.3525 46.0145L13.5271 51.0214L11.2721 53.9479L10.9029 54.6166C7.96905 53.1438 5.27873 51.2293 2.92593 48.94L2.92629 48.9403Z" fill="#E5CB7A"/>
        <path fill-rule="evenodd" clip-rule="evenodd" d="M9.81419 53.7302C9.81419 53.7302 9.85235 53.1079 10.3656 52.7037C10.4477 52.8401 10.502 52.9714 10.4858 53.0693C10.5787 52.9059 11.2283 51.8575 12.6972 51.5843C14.166 51.3169 14.5209 50.2468 14.5209 50.2468L17.6382 47.4132L21.2035 44.1318L25.5388 42.6082L27.5648 42.1112C27.5648 42.1112 27.6029 42.2588 27.5266 42.5863C27.9031 42.5593 28.7385 42.3682 29.6066 42.0622C29.9561 41.9258 30.284 41.8711 30.4586 42.0514C30.7152 42.2915 30.7533 42.8595 30.7695 43.1978C31.1899 43.1049 31.6758 42.7011 32.0652 42.7392C32.6879 42.8048 33.2393 43.5365 33.8728 43.5365C34.7081 43.5365 35.0846 43.0232 35.6691 42.619C36.0186 42.379 36.5207 42.0792 36.8047 41.8765C37.4817 41.3795 44.6452 39.1901 44.6452 39.1901L47.1567 39.3538L47.5609 42.0511L47.345 49.1019C47.3184 49.1275 47.2917 49.1541 47.2647 49.1797L35.8451 55.1439L20.0158 57.5705C16.47 56.9912 13.0482 55.8142 9.89626 54.0897L9.81527 53.7298L9.81419 53.7302Z" fill="#D8C173"/>
        <path fill-rule="evenodd" clip-rule="evenodd" d="M3.88589 49.8372C4.11085 49.3668 4.31312 48.9734 4.34875 48.8327C4.37683 49.1163 4.4283 49.7386 4.53195 50.4002C4.31432 50.2152 4.09897 50.0274 3.88589 49.8369V49.8372Z" fill="#F1D789"/>
        <path fill-rule="evenodd" clip-rule="evenodd" d="M15.4491 56.4727L17.4963 55.9033L17.6709 55.958C17.6709 55.958 17.7638 56.0127 17.7638 56.1981C18.0204 56.0509 18.2389 56.0779 18.3972 55.98C18.4789 56.1545 18.5606 56.7333 18.9213 56.8042C19.2978 56.8863 19.7019 56.6404 20.1115 56.3295C20.5154 56.0073 20.9753 55.6031 21.3234 55.4394C21.4511 55.6742 21.5642 55.9166 21.6621 56.1653C22.1206 55.7997 22.9178 54.3146 24.0534 54.3416C24.3816 53.566 24.9299 52.9035 25.6306 52.4362C26.6844 51.721 27.3449 51.6663 28.1695 51.7318C28.497 51.3064 28.9005 50.9454 29.3597 50.6672C29.4961 50.7219 29.873 50.9512 30.3427 50.7327C30.8178 50.5146 31.3526 49.668 32.057 49.559C32.4365 49.5067 32.8225 49.5878 33.149 49.7882C33.149 49.7882 35.2005 47.7515 36.6161 47.0744C36.5614 46.9107 36.4523 46.2938 38.1119 44.9286C38.2048 45.0107 38.1393 45.2399 38.2048 45.2525C38.2318 45.2525 38.6367 45.078 39.1492 44.6846C39.7827 44.2098 40.5414 43.7128 40.9999 43.5764C41.8637 43.3197 42.7801 43.8438 42.7801 43.8438C42.858 43.7891 42.9449 43.7485 43.0367 43.7236C43.2548 43.6854 43.4132 43.6581 43.5334 43.6156C43.5226 43.8996 43.681 44.3855 43.5334 44.8059C43.7043 44.902 43.8854 44.9789 44.0733 45.0351C43.9808 45.237 43.7785 45.7503 43.4402 45.9961C43.7238 46.1325 43.762 46.2909 44.1662 46.428C44.0024 46.6573 43.7342 47.0507 43.6148 47.2918C43.4945 47.5485 43.063 48.6131 42.8719 49.0169C42.67 49.4211 42.3971 50.1636 42.2658 50.3127C42.1344 50.4617 41.6597 51.0933 41.294 51.4043C41.6179 51.2841 42.9431 50.8802 43.5053 50.7273C43.338 50.9727 42.4896 52.2314 41.6741 53.4418C33.7744 58.1767 24.2191 59.2829 15.4466 56.4781L15.4491 56.4727Z" fill="#E0CD81"/>
        <path fill-rule="evenodd" clip-rule="evenodd" d="M8.9663 20.8121C8.9663 20.8121 8.49157 20.8121 8.39871 20.8776C8.30585 20.9431 8.8738 21.0799 9.04836 21.1454C9.22293 21.2109 9.59976 21.5111 9.69802 21.7515C9.79088 21.9808 13.1104 23.3182 13.1104 23.3182L15.4582 23.198L16.2677 22.0797L14.7279 20.7311L15.8077 17.548L14.3774 17.7772L10.9376 19.8288L9.21213 20.4896L8.9663 20.8121Z" fill="#DFC57C"/>
        <path fill-rule="evenodd" clip-rule="evenodd" d="M14.1223 21.866C14.1913 21.9778 14.3148 22.0443 14.4462 22.0405C14.9321 22.0405 15.3795 22.1607 15.5652 22.4062C15.8765 22.7996 16.7393 24.0554 16.7393 24.0554L18.803 24.7979L18.9362 22.3677L16.6813 20.801L14.1151 21.7454V21.8656H14.1208L14.1223 21.866Z" fill="#E5CC7C"/>
        <path fill-rule="evenodd" clip-rule="evenodd" d="M13.7173 22.7668C13.7173 22.7668 14.0938 22.7942 14.5689 22.6193C15.044 22.4444 15.8247 22.0679 16.1634 22.2154C16.6381 22.4174 16.5398 23.0508 17.0534 23.6191C17.3644 23.9686 17.9324 23.9578 18.2545 24.3347C18.5766 24.7115 19.6848 24.5366 19.6848 24.5366L20.1052 26.8041L18.4183 28.9665L17.8665 31.6526H15.5853L13.5014 30.8258L12.4749 28.3424L12.9881 25.8309L13.7173 22.7668Z" fill="#D2C281"/>
        <path fill-rule="evenodd" clip-rule="evenodd" d="M18.13 22.8759C18.1866 22.8933 18.2454 22.9025 18.3046 22.9032C18.2391 22.9579 18.1023 23.0778 18.157 23.3891C18.2117 23.7004 18.3863 24.0935 18.2391 24.3335C18.3566 24.462 18.4443 24.6149 18.4957 24.7813C18.5886 25.0491 18.6159 25.2945 19.2217 25.333C19.1343 25.3869 19.0537 25.451 18.9816 25.5242C18.9816 25.5242 19.402 25.8898 19.6151 26.2282C19.8332 26.2188 20.4119 26.0388 20.4119 26.0388L20.5322 26.1209L20.7888 26.0129C20.7888 26.0129 20.5487 25.9201 20.7233 25.3359C20.887 24.8227 21.0346 24.85 21.0472 24.8119C21.0598 24.7737 21.1674 24.2331 21.1674 24.0146C21.2491 23.731 21.3146 22.8683 21.3146 22.8683L21.1401 20.9629L20.1575 20.3676L19.3585 19.5963L18.6048 21.0158L18.1084 21.5107L18.0703 22.7391L18.13 22.8759Z" fill="#E2C270"/>
        <path fill-rule="evenodd" clip-rule="evenodd" d="M20.4939 21.2818C20.4939 21.2818 20.6685 21.7785 20.7344 22.1607C20.7576 22.0864 20.7704 22.0093 20.7725 21.9315C20.7725 21.9315 20.9089 22.6851 20.9359 22.9965C20.9906 22.9853 21.0439 22.9691 21.0561 23.0235C21.0684 23.0778 21.1929 23.6843 21.1641 24.0226C21.3915 23.6475 21.7061 23.3329 22.0812 23.1055C22.2997 22.9688 22.5563 22.8215 22.8241 22.8104C23.2444 22.7996 23.55 23.0782 24.0525 23.0782C25.2643 23.0782 26.3621 22.1881 27.1701 21.9153C27.7651 21.713 28.2783 21.5658 28.6386 21.2379C28.8135 21.0907 29.1248 20.7632 29.4085 20.2769C29.7853 19.629 30.1783 19.0651 30.5717 18.9941C30.3937 19.0268 30.2127 19.0396 30.0318 19.0323C30.0318 19.0323 30.1521 18.9121 30.3558 18.7483C30.5595 18.5846 30.8035 18.3826 31.1526 18.3826C31.7753 18.3826 32.0863 18.4751 32.4358 18.4751C32.7852 18.4643 32.9872 18.3826 32.9872 18.3826C32.9872 18.3826 33.3532 18.6393 34.1774 18.6393C35.002 18.6501 35.5534 18.721 35.9849 18.7595C36.4165 18.798 37.863 18.6393 38.278 18.6515C38.5486 18.6619 38.8142 18.7269 39.059 18.8426L37.7212 14.9555L32.9155 10.7552L30.0545 12.7808L25.6534 17.1816L21.3948 18.7595L20.5047 19.7586V21.2818H20.4939Z" fill="#CCB360"/>
        <path fill-rule="evenodd" clip-rule="evenodd" d="M30.049 19.0539C30.049 19.0539 30.1692 18.934 30.3707 18.7702C30.5723 18.6065 30.8188 18.4042 31.1679 18.4042C31.7903 18.4042 32.1016 18.4971 32.4511 18.4971C32.8006 18.4863 33.0025 18.4042 33.0025 18.4042C33.0025 18.4042 33.3689 18.6605 34.1927 18.6605C35.0173 18.6713 35.5687 18.7422 36.0003 18.7803C36.4318 18.8185 37.8783 18.6605 38.2933 18.6723C38.5638 18.6825 38.8294 18.7476 39.074 18.8635L38.4679 17.1106L37.7639 15.7732L35.7544 13.5726C35.7544 13.5726 33.343 12.1531 33.3246 12.1423C33.3138 12.1315 32.4892 11.913 32.4892 11.913L30.3052 13.2343L28.3235 18.3614L28.2853 19.4411L29.5681 20.0472C29.8902 19.5074 30.2455 19.0755 30.5784 19.0208C30.2779 19.0535 30.0486 19.0535 30.0486 19.0535L30.049 19.0539Z" fill="#D5B457"/>
        <path fill-rule="evenodd" clip-rule="evenodd" d="M30.0218 19.4199C29.8306 19.4307 29.6726 19.3925 29.6287 19.2561C29.465 18.7976 29.334 18.7321 29.1968 18.7321C29.0597 18.7321 28.8747 19.0269 28.7649 19.0539C28.6551 19.0809 28.5249 18.7155 28.5249 18.7155L28.4046 18.6608C28.4046 18.6608 27.7003 19.1194 27.2036 19.66C26.7069 20.2006 25.8931 21.118 25.5274 21.2814C25.1618 21.4448 23.9056 21.4999 23.4759 21.5927C23.0461 21.6856 22.5696 21.9969 22.5041 22.0678C22.4386 22.1387 22.6956 22.2151 22.7337 22.286C22.7719 22.3515 22.313 22.3241 22.2748 22.3939C22.2478 22.4486 22.3828 22.7596 22.4497 22.918C22.5669 22.8597 22.6954 22.828 22.8262 22.8251C23.2466 22.8143 23.5525 23.0929 24.0546 23.0929C25.2668 23.0929 26.3642 22.2028 27.1723 21.9296C27.7676 21.7277 28.2808 21.5801 28.6411 21.2526C28.8157 21.1054 29.127 20.7775 29.411 20.2916C29.6183 19.9587 29.8206 19.6474 30.0228 19.4181L30.0218 19.4199Z" fill="#D2B257"/>
        <path fill-rule="evenodd" clip-rule="evenodd" d="M12.6376 46.4414C12.6376 46.4414 12.5296 46.0372 11.5291 44.9945C11.2451 44.6997 11.0705 44.4546 10.8794 44.2793C10.4043 43.8312 10.1257 43.7114 9.7874 43.4548C9.04488 42.9034 8.23685 42.9034 7.61455 42.2263C6.99225 41.5493 6.26701 40.2558 5.76312 38.9338C5.26642 37.6125 5.12965 37.1921 5.12965 37.154C5.12965 37.1158 5.26642 36.8592 5.44099 36.8973C5.61555 36.9355 5.61555 37.2738 5.65946 37.3559C5.74643 37.4898 5.84507 37.6158 5.95423 37.7324C6.21086 38.0275 6.57654 38.3802 6.76226 38.9064C6.72411 38.4587 6.57114 37.962 6.57114 37.962C6.57114 37.962 7.53213 38.5681 8.35095 39.2012C9.17553 39.8347 9.51385 40.0531 9.75464 40.457C9.99543 40.8608 10.5627 41.9258 10.8344 42.2371C11.1061 42.5485 14.8295 43.7222 14.8295 43.7222L16.6007 45.0427L17.48 46.9701L16.7918 48.0499L15.4706 48.3338L13.3247 47.3729L12.6376 46.441V46.4414Z" fill="#D2B159"/>
        <path fill-rule="evenodd" clip-rule="evenodd" d="M7.87038 39.8019C7.87038 39.8019 8.31812 40.5171 9.41012 41.1941C10.3931 41.7894 11.949 42.33 13.3361 42.6521C14.133 42.8433 14.9302 42.9905 15.6454 43.0016C17.5728 43.0286 18.8994 42.4776 20.5432 42.2973C21.4333 42.2044 22.5253 42.1335 23.6608 41.8654C25.1185 41.5159 25.9813 41.1225 27.1553 40.5696C28.0069 40.1766 28.7879 39.8818 29.421 39.505C30.3111 38.9809 30.9608 38.3968 31.7144 38.2222C31.6216 38.4789 31.5233 38.9374 30.7808 39.4125C31.1738 39.4013 31.7144 39.3743 31.7144 39.3743C31.7144 39.3743 31.1904 39.6853 30.2676 40.3843C29.6996 40.8162 28.9463 41.5472 28.1764 42.0331C27.6794 42.3444 27.1388 42.573 26.7839 42.7594C25.9201 43.2345 25.5717 43.4746 25.0041 44.0551C25.206 44.0443 25.2225 44.0551 25.2225 44.0551C25.2225 44.0551 24.507 44.148 23.9941 44.4208C23.8862 44.4208 23.699 44.3826 23.3715 44.4755C23.1148 44.5572 22.7762 44.7433 22.427 44.8412C21.93 44.9887 21.7666 44.9232 21.7666 44.9232L21.8483 45.087C21.8483 45.087 21.2004 45.0759 20.9845 45.0978C21.0226 45.1086 21.0118 45.1252 21.0118 45.1252C20.9739 45.1315 20.9374 45.1444 20.9038 45.1633C20.7999 45.2306 20.6856 45.2804 20.5655 45.3105C20.5 45.3213 20.4453 45.3213 20.3632 45.3379C20.3906 45.4034 20.6037 45.7698 20.7019 45.9857C20.6202 46.0404 19.3915 46.9687 19.3915 46.9687C19.4296 47.0287 19.4607 47.0928 19.4843 47.1598C19.5225 47.2796 19.539 47.4546 19.5772 47.5363C19.6697 47.7 19.7244 47.7274 19.7244 47.7274C19.7244 47.7274 19.5772 47.7547 19.3202 47.8203C19.1021 47.875 18.8343 47.9675 18.4564 48.0222C18.3404 48.0372 18.2238 48.0464 18.1069 48.0495C18.1616 48.1697 18.4017 48.6283 17.9593 49.1577C17.517 49.6872 17.3806 49.7642 17.2442 50.1025C17.1755 50.0506 17.1024 50.0048 17.0257 49.9657C16.8785 49.9002 16.6762 49.8023 16.6053 49.671C16.564 49.846 16.5092 50.0176 16.4415 50.1842C16.3051 50.5499 16.1032 50.9105 16.0651 51.1834C15.9175 51.0196 15.6447 50.6975 15.2678 50.763C14.891 50.8285 14.5908 51.3417 14.5253 51.4893C14.5253 51.3964 14.4598 51.3255 14.4436 51.4346C14.4325 51.5548 14.2251 52.8102 13.0676 53.8259C13.0568 53.5693 13.0568 53.0013 13.0295 52.816C12.9215 52.9239 12.7894 53.0834 12.003 53.4221C11.2331 53.7604 11.3551 54.0991 11.3551 54.0991C11.3551 54.0991 11.2896 53.5592 11.7046 52.9905C12.125 52.4229 12.3816 52.1551 12.3816 52.1116C12.3748 52.0672 12.3559 52.0256 12.3269 51.9914C12.2722 51.9367 12.1632 51.8712 12.1632 51.8276C12.2287 51.8006 12.8783 51.4893 12.8402 50.8447C12.802 50.2663 12.5566 49.9657 12.3816 49.753C12.3546 49.7257 12.6386 49.5238 12.6001 49.4583C12.5727 49.4201 12.2236 49.1631 12.1797 49.0263C12.19 48.9447 12.2084 48.8643 12.2344 48.7863C12.2726 48.6661 12.2999 48.584 12.2891 48.5023C12.2618 48.3659 12.1142 47.9891 12.0707 47.9509C12.1088 47.9617 12.3816 47.9509 12.3816 47.9509C12.3816 47.9509 12.1635 47.6014 12.125 47.4377C12.0865 47.2739 12.0048 46.8423 11.9612 46.7606C12.0541 46.7714 12.2834 46.7876 12.2834 46.7606C12.2945 46.6786 12.0815 46.5422 12.1754 46.4367C12.2409 46.4475 12.3665 46.5022 12.4864 46.6552C12.4209 46.4803 12.3118 46.1419 12.0822 46.0055C12.1902 45.9674 12.5573 45.8688 12.8794 46.0599C13.2015 46.251 13.3113 46.5184 13.3113 46.5184C13.3113 46.5184 13.5024 46.666 13.7976 46.8845C14.1359 47.1519 14.5671 47.5323 15.2552 47.8015C15.4028 47.8836 15.7793 47.8836 16.0525 47.8289C16.1714 47.8005 16.2855 47.7546 16.3908 47.6925C16.4288 47.6701 16.4691 47.6517 16.511 47.6378C16.4523 47.52 16.3848 47.4067 16.3091 47.2991C16.4019 47.2991 16.511 47.3102 16.511 47.3102C16.511 47.3102 16.5765 47.1627 16.2817 46.8783C16.3472 46.8128 16.4293 46.7704 16.4293 46.6599C16.3364 46.6491 16.1727 46.5127 16.1345 46.4579C16.1889 46.4198 16.2709 46.2942 16.3638 46.256C16.2817 46.1905 16.0798 45.9173 15.987 45.8904C16.0757 45.8574 16.1615 45.8172 16.2436 45.7701C16.2436 45.7701 15.785 45.6499 15.6375 45.5517C15.4899 45.4437 15.2718 45.2569 15.1408 45.2022C15.004 45.1475 14.7639 45.1205 14.6657 45.0111C14.7582 45.0384 14.9058 45.0111 15.0152 45.0111C15.0969 45.0111 15.1354 45.0219 15.1624 45.0219C15.1516 44.9837 15.1516 44.9016 15.3647 44.8747C15.4671 44.8592 15.5666 44.8279 15.6594 44.7818C15.6594 44.7818 15.4572 44.771 15.2275 44.5525C14.9979 44.3341 14.8071 44.1595 14.6761 44.1321C14.5397 44.1048 14.2831 44.225 14.1247 44.2138C13.9063 44.1868 13.8134 44.0774 13.8134 44.0774C13.8134 44.0774 13.0874 44.1429 11.4768 43.1603C10.0843 42.3084 9.47814 41.5551 9.47814 41.5551C9.34782 41.5078 9.22186 41.4493 9.10167 41.3802C8.57762 41.1074 7.8513 40.5394 7.87326 39.7965L7.87038 39.8019Z" fill="#C2A44D"/>
        <path fill-rule="evenodd" clip-rule="evenodd" d="M27.9576 7.03108C28.0839 7.07211 28.1962 7.14781 28.2815 7.24955C28.5382 7.54433 28.7019 8.10113 28.1178 8.69644C28.3471 8.77814 28.4417 8.80441 28.6418 8.77814C28.4399 9.01857 27.9814 9.53181 27.954 9.97956C27.9267 10.3452 28.1559 10.4547 28.1559 10.4547C28.1559 10.4547 27.8064 10.8585 27.7903 11.5344C27.9553 11.3483 28.1359 11.1766 28.3301 11.0212C28.7343 10.699 29.2911 10.3334 29.668 10.1041C29.6628 10.2002 29.6758 10.2964 29.7061 10.3877C29.7061 10.3877 30.4101 9.80895 31.0018 10.0659C31.2693 10.1862 31.149 10.5626 31.149 10.5626C31.149 10.5626 31.5151 10.4262 31.7717 10.6828C32.0283 10.9395 32.3911 11.6014 32.5772 11.858C32.6589 11.9782 32.872 12.2075 33.0901 12.5624C33.3881 13.0592 33.6369 13.5839 33.833 14.1291C33.8438 13.8451 33.9147 13.4031 34.7231 13.6813C35.5311 13.9653 36.4482 14.5606 37.218 15.7329C37.9879 16.9052 38.1787 18.2286 38.5663 18.7325C38.9593 19.2184 39.3635 20.0264 39.3909 20.3651C39.4182 20.7038 39.2707 21.7954 40.0787 24.7493C40.308 23.8322 40.6574 21.7954 40.6574 21.7954L40.8486 19.999L41.067 14.4408L35.2629 9.61891L30.7258 6.32635L27.7719 6.61033L27.9573 7.03072L27.9576 7.03108Z" fill="#CAA13E"/>
        <path fill-rule="evenodd" clip-rule="evenodd" d="M38.7413 15.3028C38.7413 15.3028 38.6592 14.7629 37.2944 13.8451C35.9292 12.9389 34.8646 12.9389 33.882 12.169C33.1283 11.5629 32.3422 10.1703 31.8304 9.7118C31.3334 9.25866 31.2517 7.94819 31.2517 7.94819L32.9278 6.54449L35.4206 2.94132L37.528 0.620911L38.5379 2.0246L39.9416 3.6734L40.7223 6.98216L41.0063 11.8253L38.7388 15.3032L38.7413 15.3028Z" fill="#B59544"/>
        <path fill-rule="evenodd" clip-rule="evenodd" d="M40.4285 21.1079C40.4698 20.3735 40.3791 19.6376 40.1607 18.9351C39.8008 17.8157 39.0143 15.8283 38.649 15.0839C38.5015 14.2594 38.6109 14.1939 38.7692 14.101C38.9276 14.0081 39.5229 13.6691 39.849 12.4796C40.1751 11.29 41.1868 11.2511 41.1868 11.2511L41.8091 10.7926L42.7539 13.1566L43.5781 15.2916L43.8348 16.9242L44.0259 18.3164L43.5781 21.2595L41.3671 23.2578L40.4281 21.1079H40.4285Z" fill="#C89D3A"/>
        <path fill-rule="evenodd" clip-rule="evenodd" d="M38.6483 43.0016C38.6483 43.0016 39.4999 41.8661 39.7951 41.3035C40.0898 40.7237 38.8614 33.3813 38.8614 33.3813L41.3294 25.2953L41.2635 22.6636C41.2635 22.6636 41.3837 20.2337 41.6677 19.1799C42.0064 19.786 43.0603 20.5177 43.2895 20.9054C43.3975 20.1625 43.7643 18.5957 43.7099 16.925C43.9118 17.236 44.3977 20.3648 44.3977 20.3648L44.8836 22.4721L45.5171 24.7108L46.2214 27.0751L46.6418 28.7077L46.8819 29.1008L47.0842 29.7886L47.2753 30.5315L47.8267 32.2731L48.1506 33.7034L48.4073 36.297C48.4631 36.4956 48.5033 36.6983 48.5275 36.9031C48.5383 37.1871 48.4893 37.3509 48.4893 37.4002C48.4893 37.4495 48.5822 38.0225 48.544 38.454C48.4893 38.8859 48.4893 39.2239 48.1506 39.5338C47.8119 39.8437 47.5992 41.6959 47.5992 41.6959L46.9931 41.292C46.9931 41.292 47.1133 40.7403 46.8294 40.2382C46.5454 39.7361 45.994 39.6321 45.6826 39.7141C45.3717 39.7796 44.7494 39.8775 44.5471 40.0525C44.356 40.227 43.8866 40.7676 43.4551 41.0134C42.9152 41.3374 42.0356 41.3629 41.5662 41.472C41.0911 41.58 40.5671 41.9039 40.0153 42.28C39.5827 42.5601 39.126 42.801 38.6505 42.9998L38.6483 43.0016Z" fill="#CCA847"/>
        <path fill-rule="evenodd" clip-rule="evenodd" d="M38.6483 54.9316C38.6483 54.9316 38.6843 54.955 38.7538 54.9931C42.6329 53.1757 46.1085 50.5996 48.9756 47.4168C48.9443 46.3118 48.9036 45.1792 48.859 44.7595C48.7665 43.8694 48.832 42.9631 48.8046 42.4391C48.7772 41.915 48.4825 39.78 48.3461 39.2286C48.1985 38.6772 47.9142 38.404 47.871 38.404C47.8328 38.4151 47.6032 39.4416 47.6032 39.6997C47.6032 39.9578 47.5485 40.579 47.5485 40.7374C47.5103 40.7262 47.4941 40.6294 47.4941 40.5898C47.4394 40.7262 47.3739 40.9666 47.3466 40.994C47.3192 41.0213 47.3847 40.7647 47.3466 40.71C47.3084 40.6553 47.2386 40.6827 47.2537 40.5462C47.2602 40.4654 47.2729 40.3851 47.2919 40.3062C47.2919 40.3062 47.1281 40.5462 47.0082 41.1577C46.888 41.7639 46.888 41.7804 46.8445 41.8348C46.8063 41.9006 46.5878 42.1187 46.5767 42.2008C46.5659 42.348 46.779 42.4956 46.7952 42.5773C46.806 42.714 46.604 43.3472 46.5385 43.657C46.473 43.9669 46.5004 44.5741 46.4306 44.8855C46.3759 45.1694 46.3226 45.3332 46.1358 45.4531C46.2722 45.4804 46.4032 45.5186 46.4032 45.5186C46.4032 45.5186 46.5943 46.3266 46.1084 47.0147C45.9339 47.2548 45.8903 47.3642 45.7046 47.5827C45.3386 47.9865 45.0546 48.4465 45.0272 48.7456C45.0083 48.6573 44.9956 48.5679 44.9891 48.4778C44.9891 48.4778 44.4215 49.1386 44.1811 49.5155C43.8701 50.0014 43.4385 49.974 43.3172 50.0942C43.196 50.2144 43.1697 50.4326 43.2093 50.6075C43.1013 50.6345 42.8983 50.673 42.7615 51.0934C42.696 51.3115 42.5323 51.5253 42.2756 51.6721C42.019 51.819 41.7077 51.8632 41.5493 51.9014C41.6857 51.9396 41.7404 51.9396 41.8059 51.9831C41.7242 52.1195 41.3474 52.3326 40.927 52.6058C40.5066 52.8624 40.3043 53.2389 40.2007 53.4847C40.0927 53.714 39.9333 53.8615 39.6766 53.8889C39.7846 53.9544 39.9444 54.107 40.0261 54.1563C39.9059 54.1837 39.7022 54.1837 39.3383 54.495C38.9561 54.8117 38.8251 54.9046 38.6501 54.9319L38.6483 54.9316Z" fill="#C39D3C"/>
        <path fill-rule="evenodd" clip-rule="evenodd" d="M46.7581 35.0629C46.7581 35.0629 46.5835 36.0073 46.2722 36.6026C45.9609 37.1979 45.6243 38.0221 45.6243 38.0221C45.6264 37.8364 45.6483 37.6514 45.6898 37.4704C45.2968 37.6997 44.3412 38.2514 44.0702 38.4969C43.8136 38.7262 43.382 39.1303 43.273 39.3215C43.5296 38.5681 43.797 37.8911 43.8409 37.5798C43.4479 37.8638 41.613 39.3762 40.6578 40.3753L37.6819 42.7832C37.3385 42.9684 36.9849 43.134 36.6227 43.2792C36.1098 43.4973 35.5037 43.683 35.056 43.8579C35.1762 43.5358 35.3669 43.2514 35.6347 42.9786C35.9187 42.7112 36.7703 41.7884 36.9013 41.359C37.0215 40.9112 37.0488 40.6438 36.8905 40.267C36.7429 40.3051 36.4046 40.3217 36.1753 40.3872C35.946 40.4527 35.7002 40.6982 35.7002 40.6982C35.7002 40.6982 35.8748 39.699 36.2516 38.7546C35.9676 38.7654 35.4818 38.8471 35.4818 38.8471C35.4818 38.8471 36.1588 37.7115 37.3173 36.9201C36.9625 36.9956 36.6153 37.1033 36.2801 37.2418C35.603 37.5258 34.8605 37.9462 34.3091 38.1755C34.6201 37.7436 36.8041 34.6266 38.1038 31.7217C39.3995 28.8226 39.8836 28.08 40.1676 26.5241C40.3148 25.7542 40.2755 24.6165 40.3148 23.5976C40.3529 22.5873 40.4785 21.681 40.3968 21.0749C40.7352 21.4953 42.0021 22.6801 42.0456 25.3284C42.0838 27.9764 40.8338 31.5529 39.5068 33.4799C39.8307 33.5728 40.67 33.6822 41.5324 32.1842C42.3948 30.6862 42.3843 30.268 42.6957 29.6453C42.7338 29.9567 42.7226 30.0657 42.7226 30.0657C42.7226 30.0657 43.9788 28.5425 44.5737 26.626C44.6939 27.4505 45.0488 28.1769 44.4917 29.6892C43.995 31.0541 43.3453 31.3874 43.3453 31.3874C43.3453 31.3874 43.6674 31.3326 44.1422 31.0487C44.2242 31.2506 44.208 31.4806 44.3445 31.5619C44.4809 31.6433 44.6666 31.7804 44.6939 31.9114C44.8411 31.6929 45.0704 31.4143 45.1417 31.207C45.087 31.6389 45.0488 33.5274 45.2497 34.4884C45.6704 34.4503 46.1016 34.4229 46.3964 33.6639C46.1944 34.4067 46.1944 34.8541 46.3309 35.4876C46.5547 35.335 46.7566 35.0618 46.7566 35.0618L46.7581 35.0629Z" fill="#C0993A"/>
        <path fill-rule="evenodd" clip-rule="evenodd" d="M32.5713 4.9673C32.5713 4.9673 32.1509 5.14186 31.4357 5.14186C30.8134 5.14186 30.988 4.90179 30.0162 4.90179C28.5204 4.90179 23.295 5.76561 22.3776 5.75337C21.7823 5.74257 24.3867 6.00999 24.3867 6.00999L31.0427 6.10285L32.3802 5.99488L32.8772 4.9835L32.5713 4.9673Z" fill="#A88F33"/>
        <path fill-rule="evenodd" clip-rule="evenodd" d="M15.3125 17.9784C15.3125 17.9784 14.4606 18.6281 14.1003 19.1252C13.74 19.6222 13.5489 19.9494 13.1393 20.3536C13.2354 20.3572 13.3315 20.3443 13.4233 20.3154C13.4233 20.3154 13.4233 20.4234 13.3578 20.4518C13.4724 20.439 13.5867 20.4787 13.6687 20.5598C13.5485 20.6253 13.221 20.9532 13.4776 21.3408C13.6687 21.6356 14.0729 21.6626 14.0729 21.6626C14.0729 21.6626 13.9801 21.9304 14.3677 21.903C15.2031 21.8649 16.1367 21.4988 16.5679 21.5917C16.9998 21.6997 17.2453 21.7393 17.5509 22.2691C17.8748 22.7931 18.157 22.8752 18.157 22.8752C18.157 22.8752 18.3481 22.3889 18.3045 21.663C18.4612 21.2716 18.5481 20.8559 18.5612 20.4345L18.2772 18.3434L17.038 16.7763L15.4327 17.6664L15.3125 17.9774V17.9784Z" fill="#E3C571"/>
        <path fill-rule="evenodd" clip-rule="evenodd" d="M16.8356 17.6671C16.8356 17.6671 16.9558 17.9511 17.4583 17.9781C17.4036 18.0983 17.4036 18.1149 17.4201 18.2074C17.4309 18.3002 17.4471 18.4367 17.4471 18.4367C17.5024 18.4099 17.5524 18.3733 17.5947 18.3287C17.622 18.4489 17.5673 18.6396 17.5947 18.7764C17.6116 18.8596 17.639 18.9403 17.6764 19.0165C17.6844 18.9978 17.6935 18.9797 17.7037 18.9621C17.7145 18.9348 17.8117 19.2569 18.0806 19.502C18.0803 19.4643 18.0896 19.4272 18.1076 19.394C18.1117 19.4625 18.1343 19.5286 18.1731 19.5852C18.153 19.5756 18.1346 19.5627 18.1187 19.547C18.1187 19.547 18.1457 20.4108 18.2933 20.8575C18.318 20.8286 18.3399 20.7975 18.3588 20.7646C18.3588 20.7376 18.348 21.005 18.3207 21.1965C18.2825 21.3876 18.3099 21.6551 18.3099 21.6551C18.4083 21.5776 18.5165 21.5133 18.6316 21.4639C18.7954 21.3981 19.0635 21.1962 19.2269 20.7484C19.3217 20.4949 19.3948 20.2337 19.4454 19.9678C19.4982 20.0694 19.5346 20.1787 19.5534 20.2917C19.5645 20.4281 19.8212 20.3572 19.8212 20.3572L19.8759 19.7619L20.1998 18.4133L20.4946 17.5779L21.9141 15.3669L24.4789 13.3916L26.7176 13.9049L28.6065 11.3386L25.3524 9.38391L22.2729 9.70604L19.4782 13.577L17.2398 17.088L16.8356 17.6668L16.8356 17.6671Z" fill="#D8B65B"/>
        <path fill-rule="evenodd" clip-rule="evenodd" d="M32.9643 12.0653C32.9643 12.0653 32.7732 12.1034 32.2218 12.3892C31.6704 12.675 31.2882 12.7657 31.0751 13.1861C30.862 13.6065 30.8458 13.9398 30.8458 13.9398C30.8458 13.9398 31.2227 13.776 31.4412 13.7213C31.6704 13.6669 31.9271 13.6831 31.8997 13.776C31.8734 13.8397 31.837 13.8986 31.7917 13.9506C31.7917 13.9506 32.2236 13.9398 32.2121 14.1528C32.2006 14.3659 32.1304 14.6006 32.0487 14.7042C31.9666 14.8122 31.6283 14.972 31.5902 15.0976C31.4973 15.3543 31.6283 15.3651 31.579 15.5724C31.5409 15.7746 31.3609 16.1677 30.771 16.8555C30.1649 17.5437 29.9072 18.0296 29.9072 18.0296C29.9072 18.0296 29.6124 17.4782 29.4594 17.0031C29.3515 17.0574 28.7716 17.3795 28.7716 17.3795L27.4284 12.7006L27.4554 12.3892C27.4554 12.3892 27.5756 12.242 27.603 11.9688C27.401 11.9033 27.3737 11.8486 27.1059 11.5924C26.8381 11.3361 26.62 11.0244 26.1726 10.8113C26.1071 10.6911 26.0251 10.5277 25.6975 10.4618C25.37 10.396 25.1735 10.342 25.1735 10.342C25.1735 10.342 25.3481 10.2761 25.4301 10.1397C25.2278 10.1671 25.0644 10.2326 24.6221 10.2218C24.1743 10.2106 24.125 10.1944 23.8796 10.2326C23.6341 10.2707 23.3397 10.3801 23.2299 10.0033C23.1097 9.91045 22.8531 9.99251 22.6346 10.3143C22.4161 10.636 22.3398 10.893 21.9194 11.0186C21.8899 11.204 21.825 11.3819 21.7283 11.5427C21.6081 11.745 21.417 11.9469 21.1604 12.2471C20.7562 12.7222 20.8217 13.5028 20.1774 14.0981C19.5278 14.6931 20.2854 12.449 20.2854 12.449L21.3227 9.96551L24.2766 7.07715L28.863 6.76617L29.3108 9.14165L31.5495 9.91153L32.9636 12.0682L32.9643 12.0653Z" fill="#D3AE4D"/>
        <path fill-rule="evenodd" clip-rule="evenodd" d="M33.6907 12.5894L31.7633 9.81042L30.4147 8.77276C30.4147 8.77276 29.4537 7.00411 29.3882 6.9494C29.3335 6.91125 28.4272 6.81299 27.8484 6.77484L27.9564 7.04226C28.0827 7.0833 28.195 7.159 28.2803 7.26074C28.537 7.55551 28.7007 8.11231 28.1166 8.70762C28.3458 8.78932 28.4405 8.8156 28.6406 8.78932C28.4387 9.02975 27.9802 9.543 27.9528 9.99074C27.9255 10.3564 28.1547 10.4655 28.1547 10.4655C28.1547 10.4655 27.8052 10.8697 27.789 11.5452C27.9541 11.3591 28.1347 11.1874 28.3289 11.032C28.7331 10.7081 29.2899 10.3438 29.6668 10.1146C29.6616 10.2108 29.6746 10.3071 29.7049 10.3985C29.7049 10.3985 30.4089 9.81978 31.0006 10.0764C31.268 10.1966 31.1478 10.5735 31.1478 10.5735C31.1478 10.5735 31.5139 10.437 31.7705 10.6937C32.0271 10.9503 32.3928 11.6107 32.5785 11.8677C32.6602 11.9879 32.8733 12.2172 33.0914 12.5717C33.3895 13.0687 33.6383 13.5935 33.8343 14.1388C33.8451 13.9204 33.889 13.6148 34.2662 13.6148L33.6928 12.5883L33.6907 12.5894Z" fill="#CAA13E"/>
        <path fill-rule="evenodd" clip-rule="evenodd" d="M4.79654 20.4846C4.79654 20.4846 4.66013 20.1459 4.79654 19.4855C4.93295 18.825 5.14603 18.5137 5.21693 17.5419C5.28784 16.5701 5.9213 15.3579 5.9213 15.3579L7.67375 14.561L8.91332 14.8994L9.279 16.5593L7.71191 17.4231C7.71191 17.4231 7.6302 17.7888 7.18786 18.0836C6.74552 18.3784 6.13401 18.6076 5.9868 18.9082C5.8988 19.0922 5.83458 19.2867 5.79568 19.4869C5.79568 19.4869 5.34794 19.3941 5.08052 19.6888C4.79654 19.9894 4.80734 20.2568 4.79654 20.4861V20.4846Z" fill="#F4EFC8"/>
        <path fill-rule="evenodd" clip-rule="evenodd" d="M8.33479 20.0423C8.33479 20.0423 8.18722 20.1351 8.07816 20.3662C7.97019 20.1916 7.71212 19.154 7.70132 18.2203C7.69053 17.2867 7.63474 17.0553 7.85069 16.7335C8.06664 16.4117 8.91354 16.0727 8.79333 15.4932C8.67311 14.9418 8.17066 14.7126 7.55376 14.8709C7.12185 14.9789 6.80044 15.8974 6.3527 16.356C6.01401 16.7054 5.61018 16.6507 5.50113 16.8418C5.35356 17.0985 5.48997 17.3551 5.44642 17.5189C5.43526 17.5736 5.29885 17.8683 5.05302 18.2232C4.55633 18.9384 3.71556 19.9487 3.60614 20.855C3.64429 20.3417 3.6173 20.3309 3.75371 19.763L3.67165 19.6266L4.21153 17.8575L4.56101 16.3999L5.34204 13.9589L6.71766 11.4639L8.05549 9.96771L9.44766 10.0606L9.61143 12.1517L10.4087 16.0777L12.0848 18.1415L9.39835 19.9494L8.33371 20.0423H8.33479Z" fill="#EBCC73"/>
        <path fill-rule="evenodd" clip-rule="evenodd" d="M9.17017 20.784C9.17017 20.784 8.9409 20.8387 8.85884 20.7952C8.77678 20.7516 8.69544 20.7023 8.72243 20.6476C8.74942 20.5929 8.89699 20.5004 8.89699 20.4565C8.90329 20.374 8.84286 20.3014 8.76058 20.2927C8.63497 20.2765 8.59682 20.3582 8.59682 20.3582C8.59682 20.3582 8.4766 20.2657 8.37871 20.2502C8.43663 20.2432 8.49491 20.2394 8.55327 20.2391C8.40238 20.1707 8.24233 20.1248 8.07817 20.1027C8.21458 20.021 8.48236 19.7806 8.65692 19.7806C8.83149 19.7806 8.9409 19.7536 8.91355 19.6607C8.88619 19.5678 8.74978 19.4314 8.60258 19.3767C8.65692 19.3112 8.69544 19.213 8.56442 18.9448C8.42765 18.6774 8.48236 18.4971 8.52627 18.4319C8.56442 18.3499 8.70083 18.2027 8.76634 18.1098C8.83185 18.0169 8.88655 17.8913 8.99561 17.8258C9.05032 17.7877 9.22488 17.7178 9.3998 17.6513C9.59092 17.5858 9.74929 17.5037 9.85834 17.5858C9.97855 17.6675 9.92385 17.7769 9.92385 17.7769C9.92385 17.7769 10.3007 17.6401 10.639 17.815C10.9777 17.9784 11.8023 18.0824 11.8023 18.0824L12.0978 18.6778L10.143 20.3539L9.33502 20.7581L9.17125 20.7851L9.17017 20.784Z" fill="#E5C66B"/>
        <path fill-rule="evenodd" clip-rule="evenodd" d="M11.8837 18.0439C11.8837 18.0439 11.2776 18.4481 11.1412 18.5953C11.2229 18.6065 11.3593 18.6612 11.3046 18.7429C11.2391 18.8246 10.846 19.1086 10.6276 19.3763C10.3983 19.6438 10.1798 19.9824 10.1035 20.1462C10.0218 20.2934 9.39915 20.725 9.18643 20.7793C9.63417 20.7793 10.5351 20.2279 10.8734 20.2279C10.8626 20.3917 10.9662 20.5774 11.1574 20.5936C11.3485 20.6098 11.8999 20.7138 12.6424 20.2553C13.3849 19.8075 13.1394 19.4742 13.4504 19.2561C14.0457 18.8627 14.2858 18.5132 14.6133 18.2951C14.9409 18.077 15.1104 18.0274 15.1104 18.0274C15.1104 18.0274 15.1212 17.8636 15.2184 17.8801C15.2726 17.8864 15.3189 17.9221 15.3386 17.973C15.3386 17.973 15.9065 17.5688 16.6343 17.4598C16.6173 17.4522 16.6037 17.4386 16.5961 17.4216C16.5961 17.4216 16.6505 17.3942 16.6616 17.3669C16.6616 17.3669 16.6998 17.3122 16.7271 17.3395C16.7545 17.3669 16.7926 17.5688 16.8474 17.6509C16.9676 17.5962 17.1968 17.0829 17.1968 17.0829L17.7486 15.505V14.0635L17.3167 14.1456L14.0774 15.5212L12.1115 17.558L11.8822 18.0439H11.8837Z" fill="#E6BD62"/>
        <path fill-rule="evenodd" clip-rule="evenodd" d="M21.209 10.9733C21.3842 10.9307 21.5522 10.8626 21.7075 10.771C21.642 10.9459 21.642 11.137 21.358 11.552C21.074 11.967 21.0632 12.0271 20.834 12.4583C20.6047 12.906 20.5773 13.5503 20.3589 13.8339C20.4568 13.7863 20.5618 13.7551 20.6698 13.7414C20.6698 13.7414 20.4517 13.9325 20.3589 14.1344C20.266 14.3364 20.1022 14.7567 19.6984 15.0137C19.2946 15.2707 18.781 15.4341 18.2296 16.0402C17.6778 16.6352 17.1102 17.3889 16.8259 17.6599C16.9734 17.4032 17.1754 16.89 17.2301 16.5517C17.2848 16.2133 17.2189 15.8088 17.3118 15.3614C17.4046 14.914 17.4046 14.5915 17.8516 13.8105C18.2987 13.0295 19.0639 10.316 19.0639 10.316L20.7127 9.79199L21.2097 10.9715L21.209 10.9733Z" fill="#B6933F"/>
        <path fill-rule="evenodd" clip-rule="evenodd" d="M20.0188 9.97417C20.0188 9.97417 19.5221 10.6893 19.3857 11.3228C19.2493 11.9563 19.3746 11.9015 19.2929 12.2129C19.244 12.4027 19.244 12.6018 19.2929 12.7916C19.4649 12.5145 19.7004 12.2823 19.98 12.1143C20.4497 11.8306 20.8319 11.6284 21.0597 11.3883C21.289 11.1317 21.4801 10.7113 21.9768 10.3892C21.7749 10.3618 21.4909 10.2689 21.4369 10.2812C21.6392 10.0519 22.2449 9.70243 22.8565 9.28204C23.4626 8.85013 23.4244 8.67593 24.4074 8.24475C24.0852 8.29945 23.9323 8.21739 23.6645 8.24475C23.7725 8.01548 24.1504 7.90606 24.5283 7.52958C24.9062 7.15311 24.2882 6.59595 24.2882 6.59595L21.4089 8.33761L20.0167 9.97561L20.0188 9.97417Z" fill="#C49937"/>
        <path fill-rule="evenodd" clip-rule="evenodd" d="M12.2056 8.67445L12.2711 8.15041L13.0956 6.82913L13.9584 4.50872V1.33638L13.8929 -0.498142L14.0293 -1.69956L14.1329 -2.08144L14.2423 -2.229L14.9464 -1.86332L15.9185 -0.542053L16.0114 2.00799L15.0666 6.03191L12.3693 8.97499L12.2056 8.67445Z" fill="#DFC068"/>
        <path fill-rule="evenodd" clip-rule="evenodd" d="M14.3515 -2.37654C14.3515 -2.37654 13.9195 -2.36539 13.8274 -0.569018C13.7353 1.22735 13.6906 2.17178 13.6251 3.06187C13.5596 3.95195 13.407 4.4922 13.3304 5.0166C13.2537 5.54101 13.2101 6.25581 12.9647 6.69275C12.8567 6.89467 12.626 7.52813 12.0854 8.00323C11.4793 8.52727 10.5737 8.89331 10.4366 8.92067C10.1962 8.97501 8.97855 9.09523 8.48186 9.36841C8.30729 9.46127 8.00676 9.57032 7.67383 9.88166C7.01302 10.4766 6.13409 11.5413 5.50063 12.8244C4.52884 14.741 3.55705 20.1517 3.55705 20.1517L3.77552 19.786C3.77552 19.786 3.80288 19.3001 4.28877 18.4481C4.76387 17.5966 4.62746 16.641 5.28791 15.0084C5.54454 14.3861 5.86667 13.578 6.2597 12.8899C6.88237 11.7705 7.63568 10.8095 8.39475 10.2855C9.63396 9.43391 10.9991 9.24819 10.9991 9.24819L12.468 8.27641C12.468 8.27641 12.7246 7.77972 13.0633 7.21176C13.538 6.41489 14.1431 5.52481 14.2751 4.23089C14.4774 2.31431 13.9912 1.05855 14.0185 -0.0770059C14.0459 -1.21256 14.0567 -2.04793 14.2863 -2.25021C14.5159 -2.45249 14.3518 -2.37582 14.3518 -2.37582L14.3515 -2.37654Z" fill="#A88F33"/>
        <path fill-rule="evenodd" clip-rule="evenodd" d="M14.3515 6.19567C14.3515 6.19567 14.9994 4.60122 15.2959 3.18709C15.3506 2.90311 15.4597 2.61949 15.487 2.39022C15.6235 1.0524 15.6616 0.500997 15.487 -0.230723C15.3506 -0.770605 14.8266 -1.25722 14.5534 -1.63442C14.286 -2.02781 14.1604 -2.1743 14.2151 -2.25708C14.2698 -2.33986 14.4825 -2.47519 14.6898 -2.459C15.1352 -2.44603 15.5557 -2.25087 15.8531 -1.91911C16.2735 -1.43322 16.6064 0.215939 16.6064 0.215939L16.9566 2.39202L17.8467 5.13282L14.3522 6.19783L14.3515 6.19567Z" fill="#C99E3D"/>
        <path fill-rule="evenodd" clip-rule="evenodd" d="M20.4393 4.53612C20.4393 4.53612 20.3191 4.59046 20.1009 4.53612C20.1199 4.71784 20.0356 4.8949 19.8825 4.99465C19.6532 4.90179 17.507 5.08751 17.507 5.08751C17.507 5.08751 16.5079 4.91259 16.1965 3.59132C15.9784 2.71203 16.3603 1.50018 16.2347 0.702954C16.0436 -0.47111 15.7761 -0.700739 15.7488 -1.06606C15.7214 -1.43138 15.6941 -1.5246 15.6941 -1.75387C15.5739 -1.78122 15.503 -1.81937 15.3831 -1.81937C15.3557 -1.92735 15.4101 -2.02165 15.2902 -2.21277C15.3557 -2.18541 15.8035 -2.13071 16.3275 -1.63402C16.7594 -1.22982 16.7594 -1.08262 16.8246 -1.00055C16.9063 -0.918852 17.5671 -0.352696 17.8511 0.211661C18.1351 0.776017 18.6865 2.57562 18.8121 2.8704C18.8502 2.99061 18.9323 3.11083 19.136 3.38365C19.4527 3.77704 19.9167 4.42742 20.4407 4.5354L20.4393 4.53612Z" fill="#B58634"/>
        <path fill-rule="evenodd" clip-rule="evenodd" d="M16.9015 -0.973206C17.2323 -0.4389 17.5294 0.115493 17.7912 0.686751C18.1134 1.41271 18.3045 2.00802 18.7087 2.49392C18.4902 1.86081 18.1026 0.615847 17.8733 0.173504C17.6167 -0.294394 17.0926 -0.798284 16.9015 -0.972846V-0.973206Z" fill="#A88F33"/>
        <path fill-rule="evenodd" clip-rule="evenodd" d="M13.1887 8.00323C13.1887 8.00323 12.6373 8.13964 11.6108 8.68024C11.2721 8.8548 10.9503 9.00201 10.639 9.13878C9.83024 9.50446 8.96283 9.84243 8.27466 10.0289C8.32936 10.0944 8.35636 10.1214 8.35636 10.1214C8.35636 10.1214 8.35636 10.3891 8.50393 10.5418C8.42222 10.6238 7.32986 11.3663 7.65235 13.8505C7.87046 13.7688 8.12709 13.6594 8.16524 13.6594C8.23111 13.6705 8.2473 13.8505 8.329 13.8505C8.41071 13.8505 8.67849 13.7425 8.96247 13.3754C8.95167 13.523 8.7879 15.008 9.66683 16.0072C9.8306 15.816 10.2456 15.1826 10.2456 15.1826L10.2564 14.9807C10.2564 14.9807 10.2945 14.2763 10.5242 13.632C10.7538 12.9878 11.2012 12.5127 11.2012 12.5127L13.5374 9.17657L13.1879 8.00287L13.1887 8.00323Z" fill="#E6C367"/>
        <path fill-rule="evenodd" clip-rule="evenodd" d="M11.0047 12.9018C10.8977 12.9773 10.7799 13.0362 10.6552 13.0763C10.617 12.9399 10.5623 12.4702 10.8844 12.0117C11.2613 11.4599 12.0855 10.7448 12.3148 10.1761C12.4623 9.81004 12.3968 8.89296 13.7073 7.7189C15.0178 6.54483 15.5307 6.141 15.5307 6.141L17.6492 5.07635L20.2536 6.10285L18.9596 11.1741L17.9551 13.5496L13.96 12.7963L11.0043 12.9018H11.0047Z" fill="#DCBA5A"/>
        <path fill-rule="evenodd" clip-rule="evenodd" d="M12.5297 11.5247L13.0267 10.9024V10.46C13.0267 10.46 13.5781 10.3124 14.1731 9.70634C14.768 9.10023 15.5926 7.93732 16.3189 8.00823C17.0453 8.09029 17.1162 9.58612 17.1435 10.0069C17.1709 10.4276 17.2637 11.3825 17.4109 11.8961C17.5747 12.4093 15.6419 14.3529 15.6419 14.3529L14.3293 15.3521L12.5297 11.5247Z" fill="#E9CE77"/>
        <path fill-rule="evenodd" clip-rule="evenodd" d="M14.0677 16.7062C14.0677 16.7062 14.4718 16.0727 14.1756 15.9363C14.3502 15.5433 14.6723 15.1283 14.6723 15.1283C14.6723 15.1283 14.9016 14.5607 15.6441 13.8617C16.3866 13.1627 16.8455 12.6984 16.9657 12.2291C17.0399 11.9232 17.0802 11.6101 17.086 11.2955C17.1662 11.3611 17.2521 11.4195 17.3426 11.47C17.4628 11.5247 18.0304 11.9941 17.9487 12.9389C17.867 13.8837 17.5168 14.2767 17.5168 14.2767C17.5168 14.2767 17.1785 14.615 16.9384 14.7899C16.6814 14.9645 16.5889 15.1664 16.1574 15.183C16.2017 15.1477 16.2516 15.12 16.3049 15.1009C16.3049 15.1009 15.8572 15.0466 15.6168 15.2647C15.3763 15.4828 14.8652 16.1548 14.6086 16.357C14.352 16.5208 14.0687 16.7065 14.0687 16.7065L14.0677 16.7062Z" fill="#CDAE50"/>
        <path fill-rule="evenodd" clip-rule="evenodd" d="M32.2219 6.08628C31.5768 5.85119 30.8989 5.71857 30.2128 5.69325C29.0661 5.6551 27.39 5.7206 25.7466 5.7314C23.9776 5.7422 22.3723 5.12529 20.1447 5.01624C19.7791 4.79776 18.849 3.84217 15.9459 5.86781C16.1205 5.85701 18.0536 5.42007 18.7249 6.2612C19.4019 7.09658 19.2108 8.51611 19.1183 8.85444C18.9433 9.60811 18.3754 10.7055 18.1465 11.4754C17.9176 12.2453 17.9715 12.6498 17.8078 13.1897C17.644 13.7296 17.2837 13.9977 17.4964 14.62C17.7804 14.4455 17.9284 14.4455 18.4027 13.3808C18.8771 12.3162 18.7796 11.5571 19.566 10.6562C20.3359 9.74992 21.6175 8.51035 22.1049 8.19902C22.5922 7.88769 26.4617 5.87861 30.5134 7.79519C31.4905 7.69153 32.2223 6.08592 32.2223 6.08592L32.2219 6.08628Z" fill="#D2A83E"/>
        <path fill-rule="evenodd" clip-rule="evenodd" d="M17.5781 5.34341C17.5741 5.30238 17.5651 5.262 17.5511 5.2232C17.5133 5.14335 17.4635 5.06969 17.4036 5.00473C17.4036 5.00473 16.4426 4.83016 15.9567 4.88451C15.1048 4.97737 14.3349 6.03122 13.9746 6.57182C13.6143 7.11242 13.1666 7.94744 12.6807 8.37899C12.686 8.33695 12.6763 8.29437 12.6533 8.25877C12.6533 8.25877 12.6807 8.29693 12.6263 8.35163C12.572 8.40634 12.5716 8.43334 12.599 8.45961L12.6811 8.54131C12.708 8.54131 13.4617 8.20263 14.4882 7.2456C15.5802 6.24645 16.4156 5.73393 16.8525 5.55828C17.0856 5.45926 17.3291 5.38717 17.5785 5.34341H17.5781Z" fill="#C29637"/>
        <path fill-rule="evenodd" clip-rule="evenodd" d="M36.2189 1.23816C36.2189 1.23816 36.044 1.45627 35.8255 1.6967C35.3397 2.20995 34.7062 2.78834 34.1656 3.38365C33.6527 3.95161 33.0739 4.39395 32.4239 5.13647C31.7739 5.87898 31.0202 6.7032 30.8295 6.94363C30.6549 7.18406 30.5185 7.57709 30.5185 7.77901C30.4256 7.7135 30.3166 7.6426 30.3166 7.6426C30.3625 7.72832 30.4174 7.80892 30.4804 7.88303C30.6168 8.07414 30.8295 8.31493 30.9389 8.46178C31.0731 8.64872 31.1695 8.86013 31.2225 9.08408C31.288 9.09488 31.7084 9.17694 32.2328 8.31421C32.7572 7.45148 33.4447 6.50705 33.4447 6.50705L34.5367 4.88524L35.2248 3.50962L36.0886 1.96988L36.22 1.23816H36.2189Z" fill="#AC8132"/>
        <path fill-rule="evenodd" clip-rule="evenodd" d="M37.3382 0.135376C37.3382 0.135376 36.6774 0.675258 36.4207 0.999187C36.1641 1.32312 35.5569 2.17325 35.5569 2.17325L35.7754 2.1459L36.884 1.16331L37.3159 0.39344L37.3378 0.136816L37.3382 0.135376Z" fill="#A88F33"/>
        <path fill-rule="evenodd" clip-rule="evenodd" d="M37.1361 43.5256C37.1361 43.5256 37.1253 43.0779 37.3765 42.8105C37.6332 42.5427 38.2828 42.1497 38.9163 40.6754C39.5498 39.2012 39.6203 38.8683 39.6203 38.8683C39.6203 38.8683 38.4847 39.84 37.7847 40.0693C37.9485 39.7306 38.0413 39.4906 38.1234 39.3156C38.0305 39.2339 37.6375 39.1411 37.5993 39.0975C37.8175 38.8791 37.9377 38.3439 38.38 37.989C38.948 37.5571 39.9853 36.8149 40.7915 36.1534C41.5977 35.4918 43.1828 33.9532 43.3851 33.5054C43.5053 33.68 43.5323 33.7891 43.5323 33.7891C43.5323 33.7891 42.7354 34.8267 42.3204 35.4872C41.9544 36.0551 41.9817 36.3772 41.9817 36.3772L42.7354 36.0533C42.7354 36.0533 42.9535 36.8613 41.9655 38.0901C42.3974 37.9263 42.5717 38.0246 42.8171 37.8878C42.4129 38.1448 41.8561 38.4943 41.3321 39.4549C40.8188 40.4159 40.1199 41.5353 38.9408 42.2339C37.7941 42.971 37.1332 43.5224 37.1332 43.5224L37.1361 43.5256Z" fill="#A67A2E"/>
        <path fill-rule="evenodd" clip-rule="evenodd" d="M34.1766 6.65462C34.1766 6.65462 33.7289 7.5879 33.6634 8.31422C33.6526 8.48914 33.6086 8.62555 33.6086 8.82746C33.5978 9.47712 33.6468 10.2034 33.5007 10.5418C33.446 10.4054 33.4186 10.3125 33.3639 10.2582C33.2822 10.4874 33.1346 11.2026 33.0144 11.47C32.9601 11.2954 32.8399 10.6893 32.851 9.97417C32.8622 9.25901 32.878 9.12224 32.878 8.97503C32.851 9.19314 32.7034 9.48828 32.6487 9.66284C32.567 9.51563 32.4742 9.32452 32.3648 9.16615C32.2993 9.27413 32.2175 9.43357 32.1466 9.51563C32.1355 9.45013 32.1085 9.27521 32.0919 9.02974C32.0811 8.74576 32.0646 8.38008 32.0811 8.30342C32.1081 8.15621 32.3378 7.57746 32.8237 7.04765C33.4024 6.41419 33.9977 5.19694 34.1723 4.8201C34.3468 4.44326 35.0894 2.87653 35.0894 2.87653H35.6573L34.8327 4.7546C34.8327 4.7546 34.336 5.78109 34.0794 6.15829C33.8228 6.53549 33.2822 7.61633 33.0418 8.03672C33.2163 7.80745 33.3639 7.68723 33.5388 7.46876C33.708 7.31579 34.1773 6.65534 34.1773 6.65534L34.1766 6.65462Z" fill="#8C6228"/>
        <path fill-rule="evenodd" clip-rule="evenodd" d="M37.3492 0.0640869C37.2564 0.349623 37.1098 0.614744 36.9173 0.845116C36.5786 1.24931 35.8523 1.78955 35.4977 2.22074C35.1738 2.64112 34.526 3.78783 34.8204 5.14725C34.9283 4.85248 35.1317 4.26833 35.6723 3.60751C36.2129 2.9467 36.7917 2.18798 37.076 1.59843C37.3596 1.00312 37.3978 0.533784 37.3978 0.533784L37.5057 0.397374L37.4402 0.0860421L37.3474 0.0640869L37.3492 0.0640869Z" fill="#CBA94C"/>
        <path fill-rule="evenodd" clip-rule="evenodd" d="M48.4055 36.2801C48.4055 36.2801 48.1871 35.6852 48.1216 35.1446C48.0561 34.604 48.2295 34.4967 48.0287 33.878C47.9085 33.5012 47.6904 33.5541 47.6357 33.5012C47.581 33.4483 47.5428 32.8789 47.5536 32.5675C47.5644 32.2562 47.5428 31.8524 47.4881 31.6774C47.4064 31.6119 47.3517 31.5572 47.2315 31.1534C47.0951 30.7492 47.0296 30.5473 46.9641 30.4274C46.8985 30.3076 46.7071 30.1982 46.7071 30.078C46.7071 29.8375 46.9255 29.7123 46.9255 29.646C46.9147 29.5096 46.751 29.6191 46.7071 29.5805C46.6527 29.515 46.8438 29.122 46.7729 29.0673C46.7456 29.0403 46.5545 29.2696 46.5052 29.2041C46.4504 29.1382 46.3849 28.4885 46.2867 28.0574C46.1942 27.637 46.0956 27.3314 46.0848 27.2058C46.074 27.0856 45.3311 24.9671 45.1511 24.4538C45.0061 24.0201 44.884 23.5791 44.7855 23.1326C44.7307 22.8759 44.6926 22.3515 44.6652 22.4062C44.6379 22.4609 44.6544 22.7284 44.6105 22.7176C44.5724 22.7064 44.436 21.7731 44.3924 21.6256C44.3543 21.478 44.1246 20.9777 44.0685 20.6156C44.0138 20.2496 43.8939 19.294 43.8119 18.6443C43.7298 17.9947 43.6916 17.7273 43.6916 17.5646C43.7051 17.1667 43.6832 16.7683 43.6261 16.3743C43.5182 15.6861 43.3022 14.8508 43.1129 14.3652C42.7472 13.4478 41.7751 11.1 41.6012 10.5159C41.6012 10.3683 41.7923 10.4504 41.7923 10.4504C41.7923 10.4504 42.2671 11.6406 42.6166 12.5577C42.9553 13.4751 43.2774 14.2832 43.3594 14.3652C43.4249 14.4469 43.9382 15.3478 44.1675 16.8221C44.3967 18.2963 44.4784 19.6557 44.6152 20.562C44.6807 20.9939 44.7354 21.4521 44.8718 21.9106C45.019 22.4077 45.2483 22.9209 45.5488 23.707C45.8055 24.3678 45.9966 24.9192 46.1002 25.3943C46.2205 26.0004 46.2205 26.4589 46.2914 26.7595C46.3572 27.0161 46.4551 27.529 46.6848 28.2711C46.9144 29.0133 47.2524 29.9693 47.4816 30.5642C47.9297 31.7545 48.1295 32.7482 48.1971 33.278C48.2569 33.824 48.4592 35.7132 48.4045 36.2808L48.4055 36.2801Z" fill="#A88F33"/>
        <path fill-rule="evenodd" clip-rule="evenodd" d="M37.3763 -0.00143173L37.3489 0.064074C37.3489 0.064074 37.4306 0.091428 37.4144 0.200844C37.4156 0.350542 37.4064 0.500143 37.3871 0.648586C37.3601 0.839704 37.3054 0.986912 37.2946 1.10713C37.2946 1.36375 37.3327 1.65853 36.9706 2.39025C36.8627 2.59216 36.7961 2.76672 36.7414 2.88694C36.6049 3.18171 36.5776 3.22562 36.4574 3.36203C36.6485 3.25406 37.3367 2.82215 37.6858 2.88694C37.4457 3.02335 37.0797 3.29113 36.8504 3.64061C36.9051 3.65141 37.1344 3.69532 37.4983 3.64061C38.1044 3.54775 38.7814 3.32928 39.3763 3.37283C40.0264 3.41098 39.7697 2.59216 39.7697 2.59216L39.0197 0.943362L37.6001 -0.0554199L37.3763 -0.00107181V-0.00143173Z" fill="#BE9C44"/>
        <path fill-rule="evenodd" clip-rule="evenodd" d="M41.0781 12.3492C41.0781 12.3492 40.4446 11.7158 40.188 9.54186C39.9314 7.35786 39.9861 4.14304 39.9861 4.14304L39.4729 2.88728C39.4729 2.88728 39.3649 2.0519 39.096 1.74093C38.8272 1.42996 38.2992 0.905553 38.0587 0.648929C37.8183 0.392305 37.5455 0.0428212 37.3817 -0.0118868C37.4634 -0.148297 37.8295 -0.918169 39.2324 -0.928966C40.6354 -0.939764 41.068 -0.159095 41.2145 0.124883C41.361 0.408861 42.0225 1.63655 42.268 3.97604C42.4973 6.31265 42.5084 6.48757 42.4703 7.2956C42.4429 7.74334 42.2954 8.78063 42.0384 9.88883C41.8037 10.8282 41.5471 11.8767 41.0774 12.3514L41.0781 12.3492Z" fill="#A17C34"/>
        <path fill-rule="evenodd" clip-rule="evenodd" d="M39.0918 14.2112C39.3029 14.2264 39.5138 14.1788 39.6979 14.0744C39.8998 14.0636 40.6316 14.1564 41.1937 13.4413C41.2319 13.6047 41.3305 14.0474 41.0735 14.4404C41.2103 14.3037 41.4122 14.2493 41.4396 14.2112C41.4504 14.4131 41.6415 15.0354 40.8335 16.5478C41.0516 16.3077 41.3082 16.3185 41.5375 16.2911C41.5486 16.5751 41.7012 17.5303 41.2974 18.044C41.03 18.3934 40.593 18.284 40.593 18.284C40.5994 18.2077 40.5994 18.131 40.593 18.0548C40.5822 17.9072 40.5275 17.76 40.566 17.6617C40.3549 17.5653 40.1626 17.4321 39.9981 17.2683C39.523 16.8206 38.9061 16.0565 38.8625 15.4885C38.8078 14.8551 39.3758 14.7186 39.3758 14.7186C39.3282 14.6761 39.2876 14.6263 39.2556 14.5711C39.2282 14.4786 39.2009 14.331 39.0918 14.2112Z" fill="#8C6228"/>
        <path fill-rule="evenodd" clip-rule="evenodd" d="M34.8808 7.34244C34.8808 7.34244 34.8534 7.30429 34.7062 7.47885C34.7336 7.30429 34.7609 7.14016 34.7717 6.9818C34.8414 6.83518 34.9316 6.69921 35.0395 6.57796C34.9575 6.74137 34.9028 6.88894 34.9028 6.88894C34.9028 6.88894 35.105 6.5121 35.3998 6.28283C35.6017 6.11906 35.8583 6.04276 35.9674 5.88979C36.0876 5.72603 36.0603 5.69868 36.0876 5.67132C36.0876 5.67132 36.3554 5.49676 36.765 4.98315C36.8193 4.91765 36.9014 4.84674 36.9561 4.78124C37.0486 4.74309 37.2671 4.64483 37.5237 4.51346C37.7915 4.36625 38.0917 4.16433 38.2774 4.08155C38.6431 3.91779 39.0311 3.93434 39.211 3.67736C39.3474 3.63921 39.4946 3.22962 39.4676 2.88049C39.6696 2.9622 40.7068 3.60645 41.0621 5.01519C41.3187 6.01433 40.8598 7.55407 40.6687 8.29695C40.4776 9.03983 40.4506 9.59087 40.1828 9.92919C39.8441 10.3773 38.7525 11.009 38.4847 11.3217C38.2554 11.5784 37.5676 12.228 37.5946 12.6973C37.622 13.0468 38.0531 13.2372 38.1464 13.3035C38.2396 13.3697 38.2389 13.451 38.4138 13.4114C38.5887 13.3718 38.6539 13.2912 38.7251 13.2912C38.8068 13.302 38.8068 13.3186 38.845 13.3186C38.8726 13.3177 38.9001 13.314 38.927 13.3074C38.927 13.3074 38.8997 13.8045 37.7368 13.9553C37.6547 13.9664 37.573 13.9934 37.469 14.01C37.6058 13.9445 37.6875 13.9445 37.835 13.7426C37.6713 13.7152 37.2016 13.6878 37.0814 13.6497C37.1195 13.5842 37.2451 13.4093 37.3488 13.3276C37.4416 13.2459 37.338 13.2196 37.2563 13.2621C37.1156 13.3578 36.9807 13.4616 36.8521 13.573C36.7157 13.6932 36.5955 13.857 36.377 14.0049C36.3115 13.7865 36.3223 13.3715 36.5793 13.0713C36.5134 13.0821 36.3878 13.2732 36.2679 13.2351C36.2463 13.0359 36.2592 12.8345 36.3061 12.6398C36.3716 12.3939 36.7265 11.9627 36.7265 11.9627L38.4408 8.89946L38.8065 6.57904L34.8808 7.34172V7.34244Z" fill="#92723A"/>
        <path fill-rule="evenodd" clip-rule="evenodd" d="M34.7882 7.47339C34.7882 7.47339 34.6953 7.53889 34.881 7.6645C34.8537 7.70266 34.7882 7.83907 34.7061 7.93193C34.6136 8.0399 34.515 8.10685 34.4768 8.19971C34.3951 8.39083 34.3296 8.52184 34.3296 8.6039C34.3296 8.68596 34.3023 9.21001 34.073 9.54833C33.9909 9.66855 33.8981 9.87046 33.8326 10.0069C33.6962 10.2469 33.5759 10.4388 33.5486 10.5468C33.4942 10.7379 33.4561 11.2619 33.4561 11.2619C33.4561 11.2619 33.5763 11.1143 33.6199 11.06C33.554 11.1964 33.4831 11.3436 33.3794 11.453C33.4449 11.3983 33.636 11.2619 33.9582 10.9779C34.4059 10.6015 35.1049 9.968 35.9568 9.46627C35.6998 9.55913 35.4817 9.55913 35.3072 9.58648C35.4436 9.45007 36.672 8.00859 37.3162 7.87218C37.3554 7.82258 37.3748 7.76031 37.371 7.69726L36.8192 7.64291L35.6998 7.88298L35.5364 7.01917L34.7882 7.47231V7.47339Z" fill="#B18E3E"/>
        <path fill-rule="evenodd" clip-rule="evenodd" d="M36.5684 12.3874C36.5684 12.3874 36.4208 12.5346 36.2844 12.9007C36.1794 12.791 36.0893 12.6679 36.0166 12.5346C35.8147 12.1963 35.5037 11.7647 34.7774 12.0106C34.7666 11.7813 34.75 11.6611 34.7774 11.4973C34.8976 11.4703 35.2633 11.1755 35.629 10.744C35.8859 10.4492 36.126 10.1105 36.2898 9.67935C36.3978 9.59729 36.5846 9.46088 36.8297 9.30252C37.1791 9.06245 37.5995 8.73456 37.665 8.36888C37.5013 8.43439 37.1518 8.59815 36.6274 8.57116C36.8297 8.4783 37.1406 8.38004 37.1025 7.97585C37.1845 7.92114 37.25 7.88299 37.25 7.88299C37.1885 7.86246 37.1238 7.85319 37.0589 7.85563C37.0478 7.81748 37.0316 7.76313 36.9387 7.79013C36.8459 7.81712 36.8307 7.81748 36.8185 7.85563C36.7803 7.86679 36.6547 7.85563 36.5619 7.9215C36.469 7.98736 36.2124 8.20512 36.1141 8.24327C36.1523 8.17776 36.2066 8.07986 36.2066 8.07986C36.2066 8.07986 35.9392 8.10686 35.7481 8.18784C35.3986 8.30805 34.9948 8.52653 34.5852 8.73924C34.6233 8.67373 34.6399 8.63126 34.6669 8.61903C34.6939 8.60679 34.7598 8.59203 34.7598 8.58087C34.7598 8.56972 34.7328 8.4729 34.749 8.43367C34.8714 8.17425 35.0159 7.92583 35.1809 7.69115C35.372 7.43417 35.4101 7.06849 35.4101 7.06849L36.2455 6.6481L38.5933 6.10822L40.1168 6.20108L39.9257 7.25492L39.0259 9.09484L38.256 10.771L37.3767 11.7979L36.5687 12.3874H36.5684Z" fill="#543E26"/>
        <path fill-rule="evenodd" clip-rule="evenodd" d="M40.3739 7.82682C40.3739 7.82682 39.4565 8.96237 39.1999 9.1373C39.3636 8.78781 40.3739 6.70747 40.7396 6.12871C40.6579 6.06321 40.5485 6.06321 40.8051 5.04895C40.587 5.56184 40.5103 5.82962 40.3304 5.96603C40.1504 6.10244 40.1281 6.05889 40.0065 6.05889C40.0294 6.01734 40.0389 5.96965 40.0335 5.92248C40.0335 5.92248 39.2636 5.82962 38.7377 5.82962C38.2119 5.82962 37.171 6.1136 36.5919 6.34287C36.1333 6.53399 35.8767 6.53399 35.713 6.65384C35.5492 6.79025 35.4563 6.93782 35.3743 6.97597C35.3088 7.01412 34.9978 7.11238 34.9265 7.21604C34.861 7.32401 34.752 7.44531 34.752 7.47266C34.752 7.50001 34.7246 7.53853 34.8067 7.51081C34.8337 7.50001 35.0359 7.3906 35.2652 7.25419C35.5762 7.07963 35.953 6.87771 36.2262 6.7575C37.0069 6.44616 37.2527 6.50087 37.6018 6.43537C37.9675 6.36986 38.4919 6.21689 38.841 6.21689C39.1905 6.2061 39.8513 6.21689 40.0043 6.24425C39.9388 6.29896 39.8841 6.36446 39.9114 6.59373C39.9114 6.65924 39.8567 6.73014 39.8035 6.88851C39.6401 7.33625 39.3287 8.07877 39.1556 8.45561C38.9155 8.96849 38.6427 9.40004 38.5077 9.66746C38.3728 9.93488 38.0758 10.6392 37.7818 11.0161C37.4877 11.3929 37.334 11.6222 37.2419 11.7043C37.1498 11.7863 36.4882 12.2719 36.5375 12.4468C36.6577 12.4086 37.4168 12.1228 37.9679 11.5023C38.5189 10.8818 38.6287 10.5032 39.0599 10.1645C39.491 9.82583 39.8297 9.25823 40.0317 8.78889C40.2008 8.35195 40.1627 8.21554 40.3754 7.8279L40.3739 7.82682Z" fill="#806031"/>
        <path fill-rule="evenodd" clip-rule="evenodd" d="M20.6033 16.3023C20.6033 16.3023 20.4831 16.799 20.2099 17.0448C19.9425 17.2852 19.4674 17.4926 19.413 17.8967C19.3475 18.3006 19.8881 18.5029 19.8881 18.5029C19.8881 18.5029 19.593 18.9887 19.593 19.3544C19.593 19.7313 19.5822 19.8022 19.6204 20.1624C19.5771 20.1903 19.5402 20.2271 19.5124 20.2704C19.5124 20.2704 19.5394 20.6199 19.8072 20.838C20.0749 21.0561 20.3038 21.1875 20.4403 21.1328C20.4611 21.1773 20.4793 21.223 20.495 21.2696C20.495 21.2696 20.6972 20.7563 20.8336 20.3086C20.9701 19.85 21.0903 19.9152 21.1446 19.2983C21.199 18.6814 21.7925 17.6221 21.7925 17.6221L22.1974 16.7169L21.5369 16.2037L20.6033 16.3019V16.3023Z" fill="#B6903C"/>
        <path fill-rule="evenodd" clip-rule="evenodd" d="M21.8318 17.192C21.6956 17.3318 21.5699 17.4815 21.4557 17.6398C21.2812 17.8802 21.1448 18.0983 20.8881 18.1915C20.6315 18.2847 20.4677 18.284 20.4839 18.541C20.5001 18.798 20.7406 18.9067 20.877 19.0377C21.0245 19.1741 21.1448 19.4034 21.0792 19.6604C21.1609 19.6222 21.3085 19.5783 21.4449 19.2835C21.5813 18.9887 22.5355 17.1924 22.5355 17.1924H21.8318V17.192Z" fill="#685026"/>
        <path fill-rule="evenodd" clip-rule="evenodd" d="M25.5948 13.0479C25.5948 13.0479 25.6765 12.8298 25.5948 12.6714C25.5127 12.5076 25.016 12.4529 24.7702 12.2672C24.5135 12.0761 24.2022 11.9433 23.9456 12.0271C23.9837 11.9343 24.1367 11.732 24.0111 11.6885C23.8909 11.6503 23.4435 11.8522 23.3233 11.9451C23.2031 12.0379 22.9299 12.147 22.8755 12.2129C22.8212 12.2787 22.728 12.404 22.6733 12.3493C22.6186 12.3111 22.5916 12.2129 22.4987 12.2672C22.4058 12.3216 21.9588 12.6876 21.8764 12.9007C21.794 13.1137 21.6086 13.5888 21.0518 14.1291C20.495 14.6693 20.2546 15.0192 20.4184 15.2211C20.5821 15.423 20.6588 15.2758 20.6861 15.4504C20.7072 15.6217 20.6979 15.7954 20.6588 15.9636C20.5933 16.2476 20.4842 16.515 20.6314 16.5697C21.0083 16.6899 21.3743 16.4617 21.456 16.5316C21.6198 16.6788 21.3632 17.2086 21.7508 17.3122C22.1442 17.4202 22.5318 17.2194 22.5318 17.2194L23.9621 16.4495L25.3381 15.7235L26.0421 14.331L25.6646 13.1681L25.5926 13.0479H25.5948Z" fill="#D4B968"/>
        <path fill-rule="evenodd" clip-rule="evenodd" d="M24.2449 16.3732C24.2449 16.3732 24.0045 16.0075 24.2996 15.685C24.5948 15.3625 25.0148 15.2265 25.1785 15.0246C25.1474 14.9861 25.1056 14.9577 25.0583 14.9429C25.167 14.7483 25.3329 14.5919 25.5334 14.4948C25.4517 14.4131 25.3423 14.3476 25.2225 14.3476C24.9547 14.3476 24.7905 14.5113 24.5451 14.5113C24.305 14.5113 24.2777 14.3911 24.2777 14.3911C24.2777 14.3911 24.6819 14.353 24.6433 14.1726C24.6052 13.9815 24.5354 13.9815 24.5354 13.9815C24.5354 13.9815 25.316 13.6576 25.4524 13.4848C25.5889 13.3121 25.5727 13.108 25.6 13.0263C25.6925 13.0263 26.2331 12.7423 26.4516 12.8625C26.6701 12.9827 26.5171 13.3103 26.5171 13.3103C26.5171 13.3103 27.1783 12.8132 27.5152 12.3259C27.8099 12.3532 27.9471 12.124 28.163 12.124C28.4308 12.124 28.8512 12.4896 28.9329 13.2703C28.9876 13.7181 29.0693 13.9747 28.9876 14.7665C28.9494 15.2142 28.9602 16.1702 29.0956 16.6446C29.1881 17.0214 29.4065 16.9833 29.4065 16.9833C29.373 17.0981 29.3066 17.2006 29.2154 17.278C29.0679 17.4144 29.0517 17.7751 29.0679 17.9115C29.0896 18.0112 29.117 18.1096 29.1499 18.2063C29.1499 18.2063 28.9754 18.4082 28.9314 18.545C28.8933 18.6814 28.7133 18.7742 28.582 18.7742C28.4506 18.7742 28.5165 18.7631 28.3419 18.7742C28.1673 18.7854 28.1126 18.8124 28.0032 18.7742C27.8938 18.7361 27.8121 18.6922 27.856 18.3423C27.8942 17.9928 26.5074 17.1794 26.5074 17.1794L24.2399 16.3714L24.2449 16.3732Z" fill="#CCA849"/>
        <path fill-rule="evenodd" clip-rule="evenodd" d="M21.6406 19.8238C21.6406 19.8238 22.1373 20.4846 24.1795 20.4846C25.1513 20.4846 25.49 20.3918 25.6912 20.3371C25.9097 20.2823 26.7285 19.9606 27.5531 18.9884C28.2956 18.1095 28.1318 17.7492 28.1318 17.7492L27.6999 17.6837L26.2962 17.8748L22.1427 19.6438L21.6388 19.8238H21.6406Z" fill="#585136"/>
        <path fill-rule="evenodd" clip-rule="evenodd" d="M23.1637 19.9875C23.1637 19.9875 21.3947 20.3809 21.3947 19.2616C21.3947 18.1696 22.4867 17.0229 22.7599 16.8209C23.0439 16.6187 23.7209 16.389 23.7209 16.389H25.3535L25.6645 17.2136L25.5281 18.9934L23.1637 19.9872V19.9875Z" fill="#252211"/>
        <path fill-rule="evenodd" clip-rule="evenodd" d="M24.7964 16.7227C24.7964 16.7227 24.4581 16.4114 23.6882 16.8307C22.9183 17.25 22.2957 18.1264 22.2575 18.9222C22.2194 19.6262 22.8363 20.1506 23.7973 20.1779C24.5124 20.2049 24.944 20.1232 25.1624 20.07C25.1077 20.0045 24.8238 19.6496 24.8238 19.6496L24.7968 16.723L24.7964 16.7227Z" fill="#C3B378"/>
        <path fill-rule="evenodd" clip-rule="evenodd" d="M24.4636 16.8969C24.4636 16.8969 24.3819 16.8314 24.1396 16.9624C23.9377 17.0704 23.6429 17.3558 23.4137 17.5577C23.2661 17.6779 23.1732 17.7322 23.0897 17.8251C22.751 18.2293 22.4671 18.8901 22.6312 19.2176C22.7953 19.5452 23.3356 19.922 24.7115 19.6654L24.4596 16.8972L24.4636 16.8969Z" fill="#E6D89C"/>
        <path fill-rule="evenodd" clip-rule="evenodd" d="M24.0157 17.5743C24.0157 17.5743 23.7972 17.9129 23.7972 18.4535C23.7972 19.0049 24.1086 19.8839 25.2553 19.9494C26.1342 20.0041 26.7238 18.6828 27.3626 18.1696C27.8485 17.7765 28.1433 17.7654 28.1433 17.7654C28.1433 17.7654 27.6466 17.2255 26.3199 16.5262C25.0095 15.8218 23.5406 15.7289 22.7434 16.8101C23.1202 16.7828 24.3378 16.4715 24.3378 16.4715L24.9332 16.6626L24.0157 17.5746V17.5743Z" fill="#252211"/>
        <path fill-rule="evenodd" clip-rule="evenodd" d="M26.2151 18.938C26.1135 18.805 26.0406 18.6268 26.4625 18.5828C26.8844 18.5388 27.0732 18.5646 27.219 18.7586C27.3647 18.9527 27.5066 19.1145 27.2909 19.1948C27.0732 19.2657 26.5056 19.1948 26.2141 18.9368L26.2151 18.938ZM25.5317 17.6842C25.5317 17.6842 25.3859 17.7464 25.4588 17.6221C25.4876 17.4714 25.6774 17.2042 26.1424 17.2669C26.6075 17.3296 26.5068 17.6403 26.4301 17.7294C26.3534 17.8185 25.965 17.9691 25.6736 17.9052C25.5986 17.8935 25.5373 17.8606 25.5085 17.8167C25.4797 17.7728 25.4869 17.7232 25.5278 17.6831L25.5317 17.6842Z" fill="#6F674D"/>
        <path fill-rule="evenodd" clip-rule="evenodd" d="M10.6938 17.8687C10.6938 17.8687 11.1257 18.1926 11.6274 18.18C12.1241 18.1688 12.763 17.6559 13.0578 17.3281C13.2323 17.1369 13.3817 16.935 13.5437 16.7767C13.6804 16.6402 13.7729 16.5747 13.8384 16.4819C13.9313 16.3739 14.0296 16.1709 14.0789 16.105C13.9586 16.1979 13.7841 16.362 13.6038 16.4711C13.4292 16.5791 13.0524 16.7821 12.8994 16.8368C12.7522 16.8915 11.2232 17.7006 11.2232 17.7006L10.6938 17.8687Z" fill="#AC924C"/>
        <path fill-rule="evenodd" clip-rule="evenodd" d="M11.3542 13.8343C11.3542 13.8343 11.5943 13.6706 12.0586 13.5665C12.5063 13.4586 13.4072 13.3754 13.4072 13.3754L14.1497 13.6994L14.4445 14.8187L13.9046 15.982L13.2168 16.4139L12.4358 15.1581L11.356 13.8365L11.3542 13.8343Z" fill="#9F8E57"/>
        <path fill-rule="evenodd" clip-rule="evenodd" d="M10.3822 14.8334L10.1252 15.0252C10.1252 15.0252 10.1911 14.905 10.2454 14.5394C10.2998 14.1737 10.5841 13.2836 10.9991 12.7703C11.4141 12.2571 11.4033 12.2844 11.4033 12.2844C11.326 12.2703 11.2464 12.2901 11.1848 12.3388C11.2395 12.2179 11.589 11.786 11.9385 11.57C12.288 11.3541 12.4244 11.286 12.7901 11.462C13.1558 11.638 13.2486 11.7295 13.5164 11.7187C13.7842 11.7079 14.0131 11.4239 14.0131 11.4239C14.0131 11.4239 14.0678 11.5984 13.8659 12.0026C13.664 12.4068 12.8667 13.231 12.8667 13.231L11.2068 14.3666L10.3822 14.8345V14.8334Z" fill="#EAC970"/>
        <path fill-rule="evenodd" clip-rule="evenodd" d="M11.6105 13.6979C11.6105 13.6979 12.8119 13.8617 13.1776 13.5233C13.1884 13.5615 13.2323 13.5615 13.2323 13.5888C13.2294 13.6095 13.2198 13.6285 13.2049 13.6432C13.2447 13.6368 13.2849 13.6332 13.3252 13.6324C13.3732 13.6467 13.4227 13.6559 13.4727 13.6597C13.513 13.6589 13.5532 13.6551 13.5929 13.6486C13.5853 13.7034 13.5557 13.7528 13.5109 13.7854C13.5656 13.7854 13.6189 13.7962 13.6189 13.8397C13.6189 13.8833 13.6297 14.0146 13.5641 14.042C13.5099 14.057 13.4521 14.0531 13.4004 14.0308C13.4047 14.1342 13.4328 14.2352 13.4824 14.326C13.5904 14.5279 13.8208 14.7579 14.1303 14.6916C14.1303 14.6916 14.2937 15.0847 13.6059 15.9582C13.5134 16.0784 13.4148 16.2422 13.2949 16.3786C13.2476 16.4818 13.2114 16.5898 13.1869 16.7007C13.1869 16.7007 14.3502 16.253 14.6831 15.2319C15.0218 14.2054 15.0873 13.1954 15.0218 12.251C15.0107 11.9832 14.9671 11.7925 14.9016 11.6557C14.7379 11.317 14.279 11.3717 14.0936 11.5628C13.8258 11.8306 13.3781 12.4965 12.7558 12.955C12.1223 13.4136 12.0953 13.4949 11.6091 13.6979H11.6105Z" fill="#D7BC6B"/>
        <path fill-rule="evenodd" clip-rule="evenodd" d="M10.1693 15.1722C10.1693 15.1722 9.94004 15.3086 9.81983 15.82C9.69962 16.3441 9.92781 16.9829 10.0599 17.1848C10.192 17.3868 10.4918 17.9385 11.1137 17.9659C11.2677 17.9651 11.4199 17.9335 11.5615 17.873C11.7786 17.7734 11.9823 17.6468 12.1676 17.4962C12.4354 17.2943 12.6535 17.1197 12.6261 17.1031C12.5606 17.0758 10.9773 15.7653 10.9773 15.7653L10.382 15.1009L10.169 15.1729L10.1693 15.1722Z" fill="#585136"/>
        <path fill-rule="evenodd" clip-rule="evenodd" d="M11.6657 17.3449C11.6657 17.3449 11.9879 17.3179 12.179 17.1977C12.3701 17.0775 11.0596 15.7782 11.0596 15.7782L11.1525 17.1819L11.6657 17.3449Z" fill="#453A25"/>
        <path fill-rule="evenodd" clip-rule="evenodd" d="M10.2729 15.0736C10.2729 15.0736 10.1091 15.3849 10.1091 15.467C10.0818 15.7344 10.1638 16.5752 10.2293 16.8426C10.2948 17.1266 10.6497 17.5577 11.1086 17.5577C11.3922 17.5577 11.7856 17.3832 11.7856 17.3396C11.7856 17.2849 11.3814 17.2317 11.2724 17.0283C11.2069 16.9203 11.1795 16.6518 11.1644 16.3804C11.1536 16.2059 11.1536 16.0148 11.2191 15.9485C11.3667 15.7848 11.3937 15.3151 11.3937 15.3151L11.9177 14.3415H11.2285L10.4039 14.8547L10.2729 15.0736Z" fill="#84754B"/>
        <path fill-rule="evenodd" clip-rule="evenodd" d="M10.0711 15.3741C10.0711 15.3741 10.611 14.6589 11.0976 14.4948C11.5842 14.3307 11.8019 14.4293 11.8019 14.4293L11.518 15.1556L11.1138 15.6034L11.1411 15.8326C11.1411 15.8326 11.0753 16.4387 11.4794 16.8591C11.8836 17.2795 12.1838 17.2633 12.3587 17.2633C12.5337 17.2633 13.0357 17.1158 13.2924 16.5096C13.5216 15.9421 13.7128 15.2139 13.2542 14.484C12.8061 13.7577 12.0147 13.7296 11.8617 13.7296C11.7087 13.7296 10.5077 13.7897 10.0711 15.373V15.3741Z" fill="#252211"/>
        <path fill-rule="evenodd" clip-rule="evenodd" d="M23.9335 17.8035C23.7316 17.7107 23.9227 17.1431 24.1247 16.9681C24.3266 16.7932 24.5832 16.5917 25.0313 16.5639C25.1947 16.5531 25.3531 16.6568 25.3261 16.7662C25.2879 16.9681 25.0039 17.2521 24.7473 17.454C24.3924 17.7326 24.1628 17.9072 23.9335 17.8035Z" fill="#F7F7E7"/>
        <path fill-rule="evenodd" clip-rule="evenodd" d="M13.0137 14.7079C13.1612 14.6971 13.3524 14.8159 13.3905 14.9757C13.4287 15.1502 13.2976 15.4997 13.0137 15.4997C12.7844 15.4997 12.6642 15.2157 12.6642 15.134C12.6668 15.0669 12.6855 15.0013 12.7189 14.9429C12.7297 14.9264 12.757 14.7352 13.0137 14.7079Z" fill="#F8F6DE"/>
        <path fill-rule="evenodd" clip-rule="evenodd" d="M10.8845 14.8335C10.8845 14.8335 10.5077 15.0081 10.3331 15.3734C10.2084 15.6431 10.1707 15.945 10.2251 16.2372C10.2525 16.3736 10.3889 16.7119 10.4818 16.8321C10.5746 16.9524 10.7002 17.0344 10.7931 17.0233C10.886 17.0121 11.0767 16.7666 11.0767 16.6194C11.0767 16.4722 11.0879 15.8496 11.2678 15.5109C11.4262 15.1725 10.8856 14.8339 10.8856 14.8339L10.8845 14.8335Z" fill="#D4C38B"/>
        <path fill-rule="evenodd" clip-rule="evenodd" d="M10.9391 14.8061C10.8736 14.8443 10.7645 14.899 10.7915 14.9699C10.8188 15.0354 11.0481 15.0779 11.1302 15.2377C11.223 15.4014 11.223 15.576 11.1957 15.658C11.267 15.6242 11.3317 15.5778 11.3868 15.5213C11.507 15.3849 11.6542 15.1995 11.7798 15.1995C11.8619 15.1995 11.9436 15.2377 12.0203 15.2377C12.1405 15.2377 12.2603 15.1995 12.2769 15.0739C12.3039 14.9101 12.0476 14.7626 11.9 14.7899C11.9274 14.6819 11.9656 14.5225 11.8453 14.4131C11.7251 14.3037 11.3486 14.4951 11.2666 14.5498C11.1845 14.6046 10.9391 14.8065 10.9391 14.8065V14.8061Z" fill="#E2D59D"/>
        <path fill-rule="evenodd" clip-rule="evenodd" d="M19.6149 26.2776L20.4229 26.0389L20.6522 26.2027C20.6522 26.2027 20.8156 26.5522 21.0726 26.5957C20.9905 26.7703 20.7774 26.9197 20.7886 27.0435C20.7997 27.1673 20.9088 27.262 20.9088 27.262C20.9088 27.262 20.1825 28.463 21.6132 29.6734C21.2745 29.8098 20.8433 29.9974 20.614 30.1053C20.7774 30.1435 21.1269 30.2133 21.2745 30.3458C21.422 30.4782 21.422 30.5203 21.5585 30.6024C21.6949 30.6844 21.7766 30.7935 21.7496 30.8424C21.6567 30.7877 21.3454 30.6243 21.291 30.7769C21.2367 30.9296 19.9424 30.8698 19.9424 30.8698L17.7584 31.2902C17.7584 31.2902 17.8401 31.0717 17.6108 30.8698C17.3434 30.6297 17.0159 30.8806 16.6664 30.6132C16.2079 30.2637 16.1913 29.8595 16.0441 29.7069C16.1913 29.614 16.4918 29.4776 17.207 29.383C17.1796 29.3283 17.0868 29.1645 17.1415 29.0173C17.207 28.8262 17.4798 28.706 17.3981 28.4774C17.5183 28.4501 17.5727 28.4501 17.8732 28.0732C18.1572 27.6964 18.3318 27.6147 18.5502 27.5873C18.7687 27.56 18.8997 27.5873 19.3039 27.2105C19.5875 26.9431 19.495 26.7138 19.495 26.7138C19.495 26.7138 19.6804 26.6537 19.6152 26.2768L19.6149 26.2776Z" fill="#CBAC5A"/>
        <path fill-rule="evenodd" clip-rule="evenodd" d="M17.2289 26.3988C17.2397 26.3441 17.2836 26.3168 17.5784 26.3441C17.8732 26.3715 19.7405 26.1695 20.2483 26.1422C20.7616 26.104 22.5687 26.131 23.448 26.3168C24.3273 26.5025 25.217 26.7209 25.6482 26.83C26.0801 26.9502 26.2162 26.9934 26.1996 27.0481C26.1888 27.1028 26.0916 27.1561 26.0359 27.141C25.9815 27.1302 24.5508 26.6932 24.1088 26.6011C23.6668 26.509 22.1375 26.2624 21.3014 26.2772C20.5208 26.2883 20.2094 26.2664 19.549 26.3427C18.8882 26.4247 17.7962 26.5338 17.4686 26.4902C17.1447 26.4521 17.2117 26.4521 17.2282 26.3974L17.2289 26.3988Z" fill="#D6BC6F"/>
        <path fill-rule="evenodd" clip-rule="evenodd" d="M21.6241 30.6783C21.6241 30.6783 22.7435 31.2844 23.1477 32.0269C23.4424 32.5783 22.9731 32.8515 22.9731 32.8515C22.9731 32.8515 23.6066 32.8515 23.5245 33.2009C23.4864 33.4191 22.4325 34.0086 21.7281 34.3199C21.013 34.6313 21.0403 34.6151 20.6909 34.6694C20.3522 34.7241 19.4239 34.5614 19.2328 34.8332C19.0417 35.1049 19.1248 35.3849 19.1781 35.4285C19.2328 35.4666 19.6752 35.5214 19.6752 35.5214C19.6752 35.5214 19.5823 35.778 18.6652 35.8053C17.7481 35.8327 17.5185 35.8978 17.4638 35.9965C17.4091 36.089 17.6384 36.0346 18.0591 36.1044C18.4795 36.1699 19.069 36.2124 19.069 36.2124C19.069 36.2124 18.8779 36.3762 18.3812 36.5072C17.8133 36.6544 16.9232 36.7912 16.6558 36.9549C16.7922 37.0478 16.9945 37.1842 17.0877 37.195C16.8584 37.2497 16.5359 37.3699 16.4816 37.4135C16.5633 37.4682 16.6727 37.5337 16.6727 37.5337C16.6727 37.5337 16.2138 38.0851 15.9464 38.2218C15.6789 38.3586 14.1392 39.0734 13.6094 38.937C12.2881 38.5875 12.1244 37.1406 11.8022 37.0316C11.3163 36.8678 11.0871 37.195 10.6555 36.9657C10.8466 36.8293 10.9507 36.7476 11.1526 36.6547C10.9341 36.5468 9.80395 35.8302 9.80395 35.8302C9.68577 35.5726 9.55459 35.3211 9.41092 35.0769C9.19245 34.7 8.87104 34.1976 8.62989 33.7552C8.10584 32.7834 8.07849 32.3357 7.60339 31.7843C7.68546 31.6763 7.96907 31.6914 7.96907 31.6914L11.9498 33.0019L19.0082 33.2063L20.8438 30.5858L21.6245 30.6786L21.6241 30.6783Z" fill="#DFC677"/>
        <path fill-rule="evenodd" clip-rule="evenodd" d="M11.1682 34.6748C11.2108 34.7222 11.2605 34.7627 11.3155 34.795C11.4522 34.8878 11.6541 34.9973 11.7905 35.1607C11.8453 35.079 11.9817 34.9314 12.2225 35.1607C12.4632 35.3899 12.7623 35.2265 12.9484 35.2809C13.1395 35.3467 13.1503 35.3737 13.1503 35.3737C13.1503 35.3737 13.2583 35.2809 13.4998 35.1826C13.6474 35.1279 13.8219 35.0898 14.0131 35.0354C14.1876 34.9973 14.3787 34.9426 14.5101 34.9426C14.6303 35.0243 15.0615 35.4824 16.7924 34.8061C18.425 34.1727 18.8015 34.1018 19.0746 34.1997C19.102 34.1342 19.1293 34.0086 19.5497 34.0251C19.5497 33.8506 19.2002 33.2552 19.2002 33.2552L17.2729 32.5948H16.2187L13.0575 33.1735L11.3057 34.173L11.1693 34.6769L11.1682 34.6748Z" fill="#C4A859"/>
        <path fill-rule="evenodd" clip-rule="evenodd" d="M10.1145 33.5667C10.1145 33.5667 10.1526 33.8615 10.5896 34.1728C11.0215 34.4838 11.1571 34.6695 11.1571 34.6695C11.1571 34.6695 11.2392 34.5615 11.3047 34.4514C11.3702 34.3312 11.4249 34.1947 11.534 34.1566C11.7525 34.0637 12.2491 34.2383 12.3586 34.2109C12.4514 34.1839 12.4241 33.9928 12.5223 33.9928C12.7516 33.9817 12.8988 34.14 12.9809 34.14C13.0629 34.14 13.2645 34.1292 13.2918 34.0857C13.3192 34.0421 13.33 33.5886 13.6413 33.3702C13.98 33.1301 14.395 33.2338 14.5051 33.2885C14.5051 33.3702 14.5159 33.5724 14.7344 33.5832C14.9529 33.594 14.9745 33.5559 15.1663 33.6214C15.3581 33.6869 15.5867 33.6106 15.6904 33.9324C15.7832 33.9054 16.0017 33.878 15.947 33.5667C16.055 33.485 16.1493 33.4303 16.3789 33.1081C16.4336 33.0264 16.5261 32.9336 16.5974 32.8134C16.7885 32.8134 17.0177 32.7752 17.3233 33.0426C17.2305 33.1081 17.1758 33.1506 17.1488 33.2172C17.2287 33.2963 17.3016 33.3822 17.3669 33.4738C17.4489 33.5818 17.5036 33.7143 17.6073 33.7416C17.8366 33.8071 18.2134 33.7143 18.6338 33.7416C19.038 33.769 19.3763 33.9162 19.5239 34.009C19.5786 33.982 19.5786 33.9709 19.715 33.9982C19.8514 34.0256 19.9551 34.0364 19.8079 33.8618C19.8896 33.9 19.9824 33.982 20.0645 33.9C20.1465 33.8179 20.2117 33.6981 20.441 33.6707C20.6702 33.6433 20.7523 33.6815 20.8451 33.4414C20.9654 33.1467 20.5504 33.1467 20.5504 33.1467C20.5504 33.1467 20.7415 32.9717 20.9546 32.7425C21.2112 32.5024 21.506 32.1911 21.5769 31.8088C21.6971 31.1045 21.0093 31.012 21.0093 31.012L17.6732 32.0385L13.5945 31.8362L10.1166 33.567L10.1145 33.5667Z" fill="#927D49"/>
        <path fill-rule="evenodd" clip-rule="evenodd" d="M7.11709 23.9297C7.11709 23.9297 7.00911 24.0661 6.94252 24.3882C6.87594 24.7104 6.90437 24.6722 6.84966 24.9015C6.79496 25.1307 6.12298 27.413 6.37493 28.1829C6.62687 28.9527 7.0631 29.2367 7.33592 29.859C7.39063 29.9954 7.44389 30.0775 7.47233 30.1977C7.56519 30.6015 7.48349 30.9129 7.59254 31.3171C7.63069 31.4535 7.72931 31.6118 7.87652 31.7756C8.20045 32.1139 8.72845 32.4361 8.95628 32.6653C9.27805 33.004 9.73695 33.6922 10.3211 33.7573C10.6324 33.7955 11.0748 33.6645 11.4405 33.4464C11.7644 33.2441 11.9645 32.9605 12.3043 32.7985C12.5443 32.6783 12.801 32.6347 13.0302 32.58C13.5053 32.4872 13.9369 32.4721 14.1935 32.5253C14.5865 32.6074 15.5148 32.8914 16.0291 32.8914C16.431 32.8849 16.8306 32.8299 17.2194 32.7276C18 32.4983 18.9445 32.1049 19.5671 31.9304C19.9328 31.8224 20.2276 31.794 20.5281 31.7285C21.0414 31.6082 21.4725 31.4445 21.7184 31.1331C21.5546 30.942 21.3527 30.6473 20.2603 30.6581C19.0211 30.6854 17.5904 31.3732 16.8861 31.4826C16.1817 31.592 15.8761 31.6845 15.0897 31.4006C14.3188 31.1137 14.2932 30.924 14.2932 30.924C14.2932 30.924 13.4837 30.3579 13.145 28.9146C12.8064 27.4713 13.145 26.4196 14.0243 25.4201C14.2536 25.1635 14.1989 24.9342 14.1989 24.9342C14.1989 24.9342 14.7777 24.1536 14.6193 23.4226C14.4447 22.6962 13.3254 22.8438 13.3254 22.8438L7.11745 23.9297H7.11709Z" fill="#6E6342"/>
        <path fill-rule="evenodd" clip-rule="evenodd" d="M8.05061 26.3596C8.00248 26.4501 7.97984 26.552 7.98511 26.6544C7.99591 26.8016 8.03982 26.9927 8.4818 27.4243C8.85864 27.8007 8.77658 28.2211 8.77658 28.2211C8.77658 28.2211 8.96625 28.2593 9.48094 28.0185C9.88513 27.8274 10.0208 28.1661 10.0208 28.1661C10.1385 28.1044 10.266 28.0637 10.3977 28.0459C10.5169 28.0349 10.6324 27.998 10.736 27.9379C10.736 27.9379 11.2111 28.4238 11.6261 28.653C12.0029 28.8553 12.2214 28.9917 12.4071 28.8553C12.5817 28.7351 12.5817 28.4893 12.5705 28.3802C12.5272 28.2796 12.4724 28.1843 12.4071 28.0962C12.2869 27.9217 12.0958 27.7194 12.0832 27.5564C12.0558 27.1799 12.3671 26.7318 12.3013 26.6227C12.2354 26.5137 11.9903 26.4863 11.3842 26.7048C10.7565 26.9121 8.04809 26.3607 8.04809 26.3607L8.05061 26.3596Z" fill="#39331F"/>
        <path fill-rule="evenodd" clip-rule="evenodd" d="M9.48113 28.8002C9.48113 28.8002 9.17016 28.5054 9.27922 27.0747C9.41124 27.0728 9.54306 27.0856 9.67225 27.1129C9.67225 27.1129 9.84178 28.2214 9.48113 28.8002Z" fill="#292311"/>
        <path fill-rule="evenodd" clip-rule="evenodd" d="M7.26473 22.8377C7.30812 22.8056 7.34837 22.7695 7.38494 22.7298C7.27697 22.9317 6.77848 23.7397 7.18267 25.012C7.58686 26.2786 8.6022 27.223 9.85256 27.2669C11.1029 27.3108 11.7601 26.699 12.5117 25.7819C12.8064 25.4162 13.1451 24.9573 13.4453 24.6463C13.893 24.1601 14.2425 24.0237 14.2425 23.5543C14.2425 22.5934 13.2596 22.1618 11.8127 21.7306C10.3658 21.2994 9.06074 21.3527 8.38372 21.6478C7.72327 21.9696 7.43929 22.3083 7.26437 22.8381L7.26473 22.8377Z" fill="#252211"/>
        <path fill-rule="evenodd" clip-rule="evenodd" d="M11.9107 29.2314L12.0187 29.1767C12.0187 29.1767 12.0457 28.7448 12.2206 28.7563C12.3952 28.7837 12.4772 29.0133 12.4607 29.095C12.4499 29.1767 12.4063 29.3135 12.2314 29.2969C12.0022 29.3023 11.9097 29.2314 11.9097 29.2314H11.9107Z" fill="#3F3824"/>
        <path fill-rule="evenodd" clip-rule="evenodd" d="M11.4251 27.3969C11.4251 27.3969 11.5331 27.3587 11.6652 27.4898C11.7732 27.4898 12.2439 27.435 12.3915 27.5279C12.5391 27.6208 12.5826 27.7025 12.5826 27.7025C12.5826 27.7025 12.0312 27.8227 11.7307 27.7025C11.4251 27.5988 11.4251 27.3969 11.4251 27.3969H11.4251Z" fill="#2D2815"/>
        <path fill-rule="evenodd" clip-rule="evenodd" d="M13.8548 27.4786C13.8548 27.4512 13.5601 27.2493 13.2487 27.1834C13.194 27.1726 13.1829 27.2108 13.1407 27.2108C13.1134 27.2 13.1026 27.1179 13.1026 27.1179L12.9255 27.2111C12.9255 27.2111 12.8982 27.2493 12.991 27.3191C13.0727 27.3846 13.2095 27.4393 13.2476 27.5484C13.2858 27.6574 13.2858 27.6956 13.3024 27.7121C13.3131 27.7229 13.5043 27.7121 13.5971 27.6574C13.69 27.6027 13.8649 27.5135 13.8537 27.4775L13.8548 27.4786Z" fill="#82764F"/>
        <path fill-rule="evenodd" clip-rule="evenodd" d="M11.0973 28.5871C11.0973 28.5871 11.1516 28.2106 11.5177 28.1941C11.8942 28.1667 11.9654 28.5324 11.9654 28.5324L11.7469 28.7509C11.7469 28.7455 11.5832 28.5162 11.0991 28.5871H11.0973Z" fill="#2D2816"/>
        <path fill-rule="evenodd" clip-rule="evenodd" d="M13.4726 26.9654C13.4726 26.9654 13.2703 27.1838 12.823 27.2493C12.7848 27.1946 12.7028 27.0856 12.823 26.911C12.9432 26.7365 13.0796 26.6817 13.216 26.7361C13.3389 26.756 13.439 26.8455 13.4726 26.9654Z" fill="#574F35"/>
        <path fill-rule="evenodd" clip-rule="evenodd" d="M14.337 28.1132C14.353 27.9868 14.2982 27.9619 14.337 27.8987C14.3758 27.8355 14.5882 27.7099 14.6275 27.7723C14.643 27.798 14.6275 27.8987 14.6275 28.0217C14.6275 28.1448 14.6275 28.2712 14.5882 28.3618C14.5334 28.4882 14.3768 28.5514 14.2982 28.514C14.2197 28.4766 14.2042 28.2995 14.2042 28.2646C14.2429 28.2396 14.337 28.1764 14.337 28.1132ZM15.6756 26.7511C15.6756 26.6879 15.8089 26.5615 15.8875 26.5615C16.0048 26.5615 16.0048 26.7129 16.0208 26.7511C16.0596 26.7761 16.0596 26.7253 16.0989 26.8393C16.1381 26.9532 16.1934 27.1544 16.1536 27.2808C16.1138 27.4072 15.9578 27.4945 15.919 27.4696C15.8642 27.4064 15.6916 26.8393 15.6756 26.7511Z" fill="#82764F"/>
        <path fill-rule="evenodd" clip-rule="evenodd" d="M13.3525 27.3587C13.3525 27.3587 13.4727 27.3857 13.6365 27.5225C13.5817 27.5606 13.4997 27.6042 13.4997 27.6042C13.4997 27.6042 13.4889 27.4786 13.3525 27.3583V27.3587Z" fill="#6E6342"/>
        <path fill-rule="evenodd" clip-rule="evenodd" d="M13.0873 26.1573C13.0442 26.1303 13.216 26.0648 13.3192 26.0756C13.4224 26.0864 13.4655 26.1303 13.5772 26.1411C13.6889 26.1519 13.7065 26.1137 13.7474 26.0864C13.7882 26.059 13.9368 26.0756 13.9623 26.0864C13.9782 26.0984 13.9926 26.1111 14.0054 26.1245C14.009 26.0825 14.0401 26.0434 14.091 26.0165C14.1579 25.9854 14.2435 25.9753 14.3235 25.9892C14.3405 26.0273 14.4267 26.1638 14.4097 26.1911C14.3927 26.2185 14.1347 26.257 14.091 26.2293C14.1341 26.2951 14.3235 26.4315 14.349 26.4585C14.3746 26.4855 14.1596 26.5514 14.074 26.5406C13.9538 26.5352 13.2137 26.262 13.085 26.1584L13.0873 26.1573ZM14.2142 25.251C14.1983 25.2235 14.1678 25.2003 14.128 25.1855C14.0679 25.1747 13.87 25.1855 13.87 25.251C13.87 25.3165 14.0401 25.6829 14.2312 25.8736C14.4467 26.0648 14.5924 26.2228 14.7387 26.2667C14.834 26.2942 14.9467 26.2703 14.9968 26.212C15.0138 26.1846 15.0569 25.9827 15.0399 25.5076C15.0229 25.0325 14.9968 24.574 14.9537 24.5466C14.9106 24.5193 14.7387 24.5196 14.6786 24.574C14.6185 24.6283 14.2312 25.1693 14.2136 25.251H14.2142Z" fill="#585136"/>
        <path fill-rule="evenodd" clip-rule="evenodd" d="M13.3142 28.0466C13.3142 28.0466 13.1231 27.9263 12.9374 28.0084C12.7628 28.0905 12.7736 28.4126 12.7736 28.4126C12.8533 28.4438 12.9433 28.4336 13.014 28.3852C13.1342 28.3035 13.2868 28.1671 13.3142 28.0469V28.0466Z" fill="#574F35"/>
        <path fill-rule="evenodd" clip-rule="evenodd" d="M13.6746 28.4781C13.6638 28.3701 13.5667 28.3701 13.5667 28.3143C13.5804 28.2594 13.6299 28.2211 13.6865 28.2215C13.7412 28.2215 13.7945 28.287 13.8614 28.3294C13.9269 28.3676 14.0252 28.4374 14.036 28.5206C14.0468 28.6037 13.928 28.8315 13.7959 28.8315C13.6638 28.8315 13.7031 28.5857 13.6757 28.4766L13.6746 28.4781ZM14.7284 28.3305C14.7284 28.3305 14.51 28.396 14.5262 28.3305C14.5423 28.265 14.592 28.2488 14.6629 28.2488C14.6989 28.2111 14.7474 28.1877 14.7993 28.183C14.829 28.1815 14.8582 28.1913 14.881 28.2103C14.881 28.2103 15.0286 28.1448 15.0722 28.183C15.1157 28.2211 15.0833 28.2211 15.1103 28.265C15.1447 28.3138 15.1672 28.3698 15.1762 28.4288C15.1762 28.4723 15.0124 28.5652 14.881 28.549C14.7284 28.5163 14.7554 28.3579 14.7284 28.3305ZM16.0006 28.0847C16.0006 28.0847 16.0661 28.1228 16.0118 28.1668C15.9736 28.2049 15.7825 28.2747 15.6184 28.287C15.4546 28.287 15.3074 28.314 15.3074 28.2596C15.3074 28.2053 15.4438 28.0958 15.5255 28.0685C15.5587 28.0269 15.6091 28.0028 15.6623 28.003C15.7278 28.003 15.984 27.9756 16.0553 27.9648C16.1208 27.9537 16.1755 27.9918 16.137 28.0465C16.1208 28.0847 16.0006 28.0847 16.0006 28.0847ZM16.3773 26.3988C16.3773 26.3988 16.2953 26.5734 16.2028 26.5734C16.1099 26.5626 16.1099 26.5352 16.1099 26.5079C16.1099 26.4697 16.2028 26.3715 16.1916 26.3441C16.1646 26.3441 16.0988 26.3441 16.1099 26.2786C16.1099 26.2239 16.2028 26.1584 16.2845 26.1706C16.3462 26.1199 16.4231 26.0912 16.503 26.0889C16.5958 26.0889 16.6775 26.1159 16.6775 26.1706C16.6775 26.2253 16.5695 26.3452 16.5299 26.3729C16.4864 26.4165 16.4317 26.4449 16.3773 26.3999V26.3988ZM15.1323 29.6255C15.1323 29.6255 15.0243 29.6366 15.0243 29.691C15.0243 29.7183 15.0513 29.7183 15.0898 29.7021C15.112 29.7009 15.1339 29.6972 15.1553 29.691C15.1661 29.7021 15.1661 29.7565 15.2481 29.7565C15.3155 29.7474 15.3805 29.7251 15.4393 29.691C15.5048 29.664 15.5595 29.6363 15.5595 29.583C15.5321 29.4902 15.4774 29.4462 15.3957 29.4462C15.3538 29.4436 15.3121 29.4531 15.2755 29.4736C15.2755 29.4736 15.2481 29.4189 15.1553 29.4736C15.0624 29.5283 15.0732 29.5283 15.1006 29.5557C15.1495 29.5992 15.1333 29.6276 15.1333 29.6276L15.1323 29.6255ZM14.5153 30.1935C14.5153 30.1661 14.6517 30.1114 14.6898 30.128C14.728 30.1388 14.8371 30.3461 14.8371 30.3681C14.8371 30.3954 14.7006 30.4609 14.6459 30.4609C14.5912 30.4609 14.4987 30.3681 14.4987 30.3529C14.4987 30.3421 14.5642 30.326 14.5642 30.3148C14.5804 30.2878 14.5153 30.2219 14.5153 30.1946V30.1935ZM14.0834 29.3962C14.1107 29.3854 14.1107 29.3581 14.1489 29.3307C14.1731 29.3146 14.2034 29.3106 14.2309 29.3199C14.2504 29.2852 14.2845 29.261 14.3238 29.2541C14.3893 29.2433 14.444 29.2541 14.4318 29.2814C14.4318 29.3635 14.4865 29.4178 14.4865 29.4833C14.4865 29.5489 14.4483 29.6309 14.3119 29.6856C14.1755 29.7238 13.9898 29.7238 13.9624 29.713C13.9351 29.7022 13.9077 29.5928 13.9351 29.5381C13.9624 29.4833 14.0387 29.4236 14.0827 29.3962H14.0834Z" fill="#82764F"/>
        <path fill-rule="evenodd" clip-rule="evenodd" d="M14.3021 29.4333C14.3021 29.4333 14.1691 29.4969 14.1691 29.5288C14.1574 29.5595 14.1521 29.5916 14.1537 29.6238C14.1537 29.6426 14.3258 29.6112 14.349 29.592C14.3567 29.5794 14.3021 29.4664 14.3021 29.4333Z" fill="#6E6342"/>
        <path fill-rule="evenodd" clip-rule="evenodd" d="M13.4452 29.1767C13.4995 29.1878 13.5924 29.1767 13.6633 29.204C13.718 29.2314 13.7562 29.2861 13.7015 29.3516C13.6467 29.4171 13.5935 29.5154 13.4722 29.4988C13.3358 29.488 13.2048 29.4171 13.2048 29.3624C13.2001 29.2925 13.2237 29.2236 13.2703 29.1713C13.325 29.1277 13.352 29.1551 13.4448 29.1767H13.4452Z" fill="#585136"/>
        <path fill-rule="evenodd" clip-rule="evenodd" d="M13.3798 29.2314C13.3798 29.2314 13.2053 29.3678 13.1614 29.4337C13.1067 29.4992 12.8392 29.8375 12.7575 29.9084C12.7847 29.8605 12.8156 29.8149 12.85 29.772C12.7421 29.841 12.6611 29.9451 12.6208 30.0668C12.5553 30.269 12.9868 30.3781 13.2704 30.4602C13.554 30.5422 13.6638 30.5681 13.6638 30.5681C13.5594 30.4112 13.4697 30.2449 13.396 30.0714C13.2881 29.8148 13.2323 29.7875 13.3032 29.6672C13.3579 29.547 13.4399 29.4653 13.4399 29.3725C13.4072 29.2861 13.3798 29.2314 13.3798 29.2314Z" fill="#574F35"/>
        <path fill-rule="evenodd" clip-rule="evenodd" d="M7.15523 29.6629C7.19497 29.6703 7.23571 29.6703 7.27544 29.6629C7.35715 29.6518 8.20908 29.339 9.09917 29.3952C9.76549 29.4354 10.4259 29.544 11.0701 29.7191C12.1894 30.0139 13.5816 30.598 14.4825 30.9313C14.7226 31.0238 14.9576 31.1879 15.1304 31.2531C15.8185 31.5209 15.8455 31.5209 16.2497 31.5918C16.7248 31.6573 17.2107 31.4989 17.7186 31.3899C18.3409 31.2531 19.4055 31.1876 20.3391 31.0512C20.6411 31.0093 20.9388 30.9418 21.2292 30.8492C21.2292 30.8492 20.4867 31.5918 18.7065 31.8592C17.987 31.9685 17.2558 31.9777 16.5337 31.8865C15.9657 31.8318 15.5893 31.7498 15.3053 31.6681C14.9832 31.5752 14.3223 31.3294 13.5089 31.1282C12.941 30.9806 12.3075 30.8716 11.5815 30.7352C9.79057 30.4073 7.847 30.0308 7.15451 29.6651L7.15523 29.6629Z" fill="#252211"/>
        <path fill-rule="evenodd" clip-rule="evenodd" d="M5.1459 26.2887C4.71399 26.6544 4.25582 27.0039 3.80843 27.3422L2.45981 28.3784C2.00127 28.7167 1.55353 29.0662 1.09463 29.4049C0.635727 29.7436 0.177547 30.0654 -0.309067 30.3767C0.122839 30.011 0.581019 29.6723 1.03956 29.3394C1.4981 29.0065 1.97355 28.68 2.4159 28.3424L3.76452 27.3048C4.22846 26.9664 4.6762 26.6169 5.1459 26.2894V26.2887ZM2.75992 30.1106C2.75992 30.1106 3.24581 29.7065 3.85192 29.1389C4.60523 28.4349 5.52807 27.5336 5.82284 27.3702L2.75956 30.111L2.75992 30.1106Z" fill="#CFB66C"/>
        <path fill-rule="evenodd" clip-rule="evenodd" d="M2.75983 30.1103C3.00025 29.8702 3.25688 29.6356 3.5135 29.4059L3.90654 29.0676C4.02675 28.9596 4.16352 28.8383 4.28337 28.7181C4.52344 28.4781 4.75847 28.2211 4.99854 27.9756C5.11752 27.8522 5.24333 27.7355 5.37537 27.6261C5.44139 27.5677 5.5147 27.5181 5.59349 27.4786C5.65935 27.4404 5.73026 27.3706 5.82276 27.3583C5.76841 27.4404 5.7029 27.4786 5.64819 27.5495C5.58269 27.6042 5.52798 27.6697 5.47363 27.724C5.35342 27.8442 5.21701 27.9533 5.0968 28.0627C4.84017 28.2812 4.57275 28.4946 4.31613 28.7232C4.0595 28.9517 3.81943 29.1983 3.56245 29.4275C3.28423 29.6626 3.02761 29.8918 2.75983 30.1114V30.1103ZM6.02514 27.9263C6.02514 27.9263 4.24533 29.6683 3.87929 29.9519L6.02514 27.9263Z" fill="#CFB66C"/>
        <path fill-rule="evenodd" clip-rule="evenodd" d="M6.02503 27.9263C5.86492 28.1117 5.69326 28.2867 5.51106 28.4504L4.97118 28.9636C4.79662 29.1382 4.6325 29.3131 4.44714 29.4877C4.25602 29.6514 4.08146 29.8116 3.87918 29.9628L4.40323 29.4495C4.57815 29.275 4.76927 29.1277 4.95499 28.9528L5.47903 28.4396C5.65899 28.2596 5.83391 28.0847 6.02503 27.9263ZM6.10698 28.8708C5.94292 29.3287 5.7496 29.7755 5.52822 30.2086C5.06968 31.126 4.38187 32.2724 4.08134 32.8569L6.10698 28.8708Z" fill="#CFB66C"/>
        <path fill-rule="evenodd" clip-rule="evenodd" d="M6.10688 28.8711C6.10688 29.073 6.05217 29.2479 5.98666 29.4225C5.92281 29.5972 5.85001 29.7685 5.76855 29.9357C5.68649 30.0995 5.59363 30.2744 5.50077 30.4328C5.40791 30.5912 5.29885 30.7546 5.21679 30.9187L4.66539 31.8905C4.47427 32.2144 4.28856 32.5401 4.08664 32.8515C4.22305 32.502 4.40877 32.1745 4.58369 31.8523C4.77481 31.5284 4.94937 31.2045 5.12357 30.8694C5.20862 30.7024 5.28515 30.5312 5.35284 30.3565C5.43454 30.1816 5.51625 30.0178 5.58211 29.8594C5.66381 29.6849 5.72932 29.5208 5.81138 29.3627C5.90388 29.1932 5.98055 29.0295 6.10616 28.8711L6.10688 28.8711Z" fill="#CFB66C"/>
        <path fill-rule="evenodd" clip-rule="evenodd" d="M8.05072 33.3481C8.05072 33.3481 7.51084 34.0633 7.56483 34.9696C7.71204 34.4949 7.89776 33.7685 8.05072 33.3481ZM8.56389 34.0651C8.56389 34.0651 8.37277 36.0087 8.2144 36.9642C8.43828 35.8596 8.48183 35.9525 8.56389 34.0651ZM12.1401 37.0791C12.1401 37.0791 11.3321 39.4546 11.3156 40.1147C11.4905 39.4359 11.8288 38.0491 12.1401 37.0773V37.0791Z" fill="#DEC270"/>
        <path fill-rule="evenodd" clip-rule="evenodd" d="M14.0293 33.2013C14.0293 33.2013 15.3398 35.3633 16.3227 37.2087C16.0568 36.2801 15.4449 34.5769 14.0293 33.2013Z" fill="#CBAF59"/>
        <path fill-rule="evenodd" clip-rule="evenodd" d="M17.5511 36.3841C18.2706 37.6559 18.9195 38.9665 19.4947 40.3098C19.3857 39.3815 19.0905 37.7928 17.5511 36.3841Z" fill="#E3C677"/>
        <path fill-rule="evenodd" clip-rule="evenodd" d="M27.9033 39.5719C28.1214 39.4355 28.5529 38.6927 28.9297 38.5073C29.3062 38.3162 29.5902 38.278 29.9289 37.9012C30.2672 37.5078 30.3608 37.2677 31.1026 36.9568C32.1402 36.5087 31.4265 35.9299 31.4265 35.9299C31.5408 35.8176 31.663 35.7137 31.7922 35.6189C32.06 35.417 32.371 35.1712 32.344 34.7396C32.3058 34.0137 32.1694 32.9598 31.5741 32.3483C32.1528 32.2281 33.261 32.1464 33.9496 31.9718C34.7464 31.7696 35.1125 31.4856 35.1125 31.4856C35.1125 31.4856 34.6539 30.7049 35.3965 29.9189C36.139 29.1328 36.7451 28.6631 37.1928 27.7838C36.6796 27.7183 35.8971 27.4455 33.9003 28.2042C34.0081 28.2549 34.1121 28.3132 34.2116 28.3788C34.2116 28.3788 32.9832 28.7174 32.5354 29.0943C31.7544 29.7547 31.6562 30.2953 30.81 30.6995C29.9638 31.1037 29.1119 30.9943 28.4079 31.3218C27.7039 31.6494 27.5998 31.9279 27.3429 32.0481C27.3976 32.1137 27.3321 32.2227 27.4357 32.3156C27.3702 32.4084 26.988 33.0307 26.6003 33.0307C26.6385 33.1783 26.966 33.2874 26.966 33.2874C26.966 33.2874 26.7259 33.4623 26.1144 33.5058C26.4254 33.8298 26.7206 34.1828 27.534 34.6961C27.4685 34.8325 27.1953 35.0348 27.3047 35.2914C27.4249 35.548 27.7366 35.8975 28.9809 36.1815C28.3474 36.2085 27.6052 36.356 26.6054 36.2196C25.6062 36.0994 25.4425 36.0285 24.8256 36.1815C24.8911 36.247 25.0656 36.247 25.2186 36.4216C25.0548 36.4323 24.0283 36.3013 23.6789 36.7602C23.3132 37.235 23.1548 38.016 23.1822 38.54C22.991 38.6329 22.8053 38.7967 22.8982 39.1354C22.991 39.474 23.4769 39.5831 23.7883 39.7958C24.0992 40.0251 24.1266 40.1068 24.4217 40.0524C24.7327 39.9869 25.1912 39.676 25.459 39.676C25.7268 39.676 25.9176 39.8779 25.9176 39.8779C25.9176 39.8779 26.6439 39.5284 26.7148 39.5939C26.7803 39.6594 26.7256 40.0798 26.7965 40.1453C26.8685 40.1946 27.6866 39.7087 27.9051 39.5719H27.9033Z" fill="#ECD592"/>
    </g>
    <path fill-rule="evenodd" clip-rule="evenodd" d="M37.9751 19.4742C35.4974 13.0757 29.3723 11.8903 29.3723 11.8903H11.8972L11.9646 18.4077H15.4448V32.961H11.8969V39.4667H28.8886C32.9837 39.4667 36.2663 35.3515 36.2663 35.3515C41.523 27.8907 37.9749 19.4742 37.9749 19.4742H37.9751ZM28.9798 30.9668C28.9798 30.9668 27.647 32.8897 26.1968 32.8897H23.296L23.2273 18.4236H26.95C26.95 18.4236 28.6748 18.7842 29.8798 22.1975C29.8798 22.1975 31.4773 27.0844 28.9798 30.9668Z" fill="white" fill-opacity="0.8"/>
</svg>
