
<svg width="50" height="50" viewBox="0 0 50 50" fill="none" xmlns="http://www.w3.org/2000/svg">
    <g id="Property 1=ETH">
        <rect id="Rectangle 3" width="50" height="50" rx="8" fill="#6B71D6"/>
        <path id="Shape" fill-rule="evenodd" clip-rule="evenodd" d="M25.3567 8.81923C25.2841 8.99477 23.091 12.7162 20.483 17.0892C17.8751 21.462 15.7196 25.0972 15.693 25.1674C15.6583 25.2586 17.0752 26.1493 20.6609 28.2905L25.6775 31.2858L30.6926 28.2888C34.2956 26.1357 35.694 25.2556 35.659 25.1633C35.4778 24.686 25.7255 8.5 25.6191 8.5C25.5474 8.5 25.4292 8.64361 25.3567 8.81923ZM15.7049 27.3216C15.8982 27.6556 25.636 41.5013 25.6768 41.5C25.7441 41.4979 35.7 27.2806 35.6615 27.2416C35.6252 27.205 26.3192 32.7437 25.931 33.033L25.6931 33.2104L20.8748 30.3357C18.2247 28.7547 15.9587 27.3972 15.8391 27.3194C15.6409 27.1903 15.629 27.1905 15.7049 27.3216Z" fill="white"/>
    </g>
</svg>
