<svg width="50" height="50" viewBox="0 0 50 50" fill="none" xmlns="http://www.w3.org/2000/svg">
<path fill-rule="evenodd" clip-rule="evenodd" d="M0 25C0 11.1929 11.1929 0 25 0C38.8071 0 50 11.1929 50 25C50 38.8071 38.8071 50 25 50C11.1929 50 0 38.8071 0 25Z" fill="url(#paint0_linear_7486_75419)"/>
<path d="M16.1281 26.1463L15.2223 27.369C15.008 27.793 15.3165 28.2944 15.7917 28.2944H18.7559C19.6933 32.1694 22.3925 34.812 26.0091 34.7573C28.5767 34.7573 30.5122 33.4807 31.8046 30.9387C31.9692 30.6152 31.8249 30.2181 31.4933 30.07L30.0795 29.4384C29.7682 29.2993 29.4013 29.4296 29.2503 29.7353C28.583 31.0896 27.4741 31.9527 26.0091 31.9527C24.6828 31.9527 23.6187 31.3032 22.8036 29.9909C22.4849 29.4828 22.2314 28.9159 22.0385 28.2948H25.8351C26.0756 28.2948 26.2959 28.1593 26.4044 27.9447L27.3102 26.722C27.5245 26.2976 27.216 25.7965 26.7409 25.7965H21.6113C21.5966 25.5336 21.5875 25.2654 21.5875 24.9888C21.5847 24.7146 21.5924 24.4464 21.6068 24.1821H25.8351C26.0756 24.1821 26.2959 24.0465 26.4044 23.8319L27.3102 22.6092C27.5245 22.1852 27.216 21.6838 26.7409 21.6838H22.034C22.7223 19.4391 24.1597 17.9685 26.0091 17.9975C27.4181 17.9975 28.5123 18.7689 29.2139 20.0325C29.3711 20.3158 29.7251 20.4243 30.0214 20.2934L31.4426 19.6659C31.7826 19.5157 31.9272 19.1047 31.7472 18.7794C30.4356 16.4103 28.5228 15.2202 26.0091 15.2202C23.7153 15.2202 21.8778 16.132 20.4825 17.9422C19.667 19.0084 19.0991 20.2591 18.7623 21.6838H16.6978C16.4573 21.6838 16.237 21.8193 16.1285 22.0339L15.2227 23.2566C15.0084 23.681 15.3169 24.1821 15.792 24.1821H18.4212C18.4086 24.4475 18.3964 24.7136 18.3964 24.9888C18.3929 25.2615 18.3995 25.5304 18.4111 25.7965H16.6982C16.4576 25.7965 16.2374 25.9321 16.1288 26.1467L16.1281 26.1463Z" fill="white"/>
<path d="M8.54938 23.9468C9.06408 15.7283 15.6803 9.09138 23.8971 8.55252C28.2164 8.26925 32.2101 9.66456 35.298 12.1439C35.5977 12.3844 36.027 12.3736 36.3137 12.1176L37.5249 11.0371C37.8841 10.7167 37.8768 10.1488 37.5056 9.84208C33.9037 6.86519 29.2273 5.14425 24.1537 5.35819C14.0914 5.78256 5.90337 13.8764 5.36906 23.9338C5.13796 28.284 6.33089 32.3501 8.52172 35.7094C8.78397 36.1117 9.34595 36.1814 9.70449 35.8617L10.9142 34.7822C11.2003 34.527 11.2619 34.1026 11.0571 33.7787C9.27557 30.9601 8.32284 27.5686 8.54973 23.9468H8.54938Z" fill="white"/>
<path d="M41.4783 14.2903C41.2161 13.8883 40.6541 13.8183 40.2955 14.138L39.0858 15.2175C38.7997 15.4727 38.7381 15.8971 38.9429 16.221C40.7245 19.0396 41.6775 22.4314 41.4503 26.0533C40.9352 34.2714 34.319 40.9079 26.1023 41.4468C21.7829 41.7301 17.7896 40.3348 14.7013 37.8554C14.4016 37.6149 13.9724 37.6257 13.6856 37.8817L12.4748 38.9622C12.1156 39.2826 12.1229 39.8505 12.4941 40.1572C16.0963 43.1345 20.7728 44.8551 25.8467 44.6411C35.909 44.2164 44.097 36.1222 44.6306 26.0648C44.8614 21.715 43.6684 17.6488 41.478 14.2903H41.4783Z" fill="white"/>
<defs>
<linearGradient id="paint0_linear_7486_75419" x1="55.8358" y1="55.8358" x2="20.4807" y2="20.4807" gradientUnits="userSpaceOnUse">
<stop stop-color="#8656EF"/>
<stop offset="0.97" stop-color="#1AA3FF"/>
</linearGradient>
</defs>
</svg>
