
<svg width="50" height="50" viewBox="0 0 50 50" fill="none" xmlns="http://www.w3.org/2000/svg">
    <rect width="50" height="50" rx="8" fill="#00DFFE"/>
    <path fill-rule="evenodd" clip-rule="evenodd" d="M29.6059 10C24.3294 10 19.8471 14.0588 19.2823 19.2823C14.0588 19.8471 10 24.3294 10 29.6059C10 35.3412 14.6588 40 20.3941 40C25.6706 40 30.1706 35.9412 30.7176 30.7176C35.9412 30.1529 40 25.6706 40 20.3941C40 14.6588 35.3412 10 29.6059 10V10ZM37.5647 21.5588C37.0529 25.0353 34.2647 27.8235 30.7882 28.3353V21.5588H37.5647ZM12.4353 28.4412C12.9471 24.9471 15.7353 22.1588 19.2118 21.6471V28.4235H12.4353V28.4412ZM28.3529 30.7882C27.7706 34.7235 24.4 37.6529 20.3941 37.6529C16.3882 37.6529 13.0176 34.7235 12.4353 30.7882H28.3529ZM28.4412 21.5588V28.4235H21.5588V21.5588H28.4412ZM37.5647 19.2118H21.6471C22.2294 15.2765 25.6 12.3471 29.6059 12.3471C33.6118 12.3471 36.9823 15.2765 37.5647 19.2118V19.2118Z" fill="white"/>
</svg>
