<svg xmlns="http://www.w3.org/2000/svg" xmlns:xlink="http://www.w3.org/1999/xlink" width="50px" height="50px" viewBox="0 0 50 50" version="1.1">
    <!-- Generator: Sketch 64 (93537) - https://sketch.com -->
    <title>Coins/Large/GUSD</title>
    <desc>Created with Sketch.</desc>
    <g id="Coins/Large/GUSD" stroke="none" stroke-width="1" fill="none" fill-rule="evenodd">
        <g id="Gemini_dollar_logo">
            <path d="M25,50 C38.8071187,50 50,38.8071187 50,25 C50,11.1928813 38.8071187,0 25,0 C11.1928813,0 0,11.1928813 0,25 C0,38.8071187 11.1928813,50 25,50 Z" id="Mask" fill="#00DFFE"/>
            <path d="M29.605882,10 C24.3294129,10 19.8470581,14.0588255 19.28235,19.28235 C14.0588255,19.8470581 10,24.3294129 10,29.605882 C10,35.3411768 14.6588232,40 20.394118,40 C25.6705871,40 30.1705834,35.9411745 30.7176433,30.7176433 C35.9411745,30.1529419 40,25.6705871 40,20.394118 C40,14.6588232 35.3411768,10 29.605882,10 L29.605882,10 Z M37.5647061,21.5588238 C37.0529358,25.035293 34.2647052,27.8235303 30.788236,28.3352939 L30.788236,21.5588238 L37.5647061,21.5588238 Z M12.4352939,28.4411762 C12.9470575,24.9470588 15.7352948,22.1588215 19.211764,21.647058 L19.211764,28.423528 L12.4352939,28.423528 L12.4352939,28.4411762 Z M28.352942,30.788236 C27.7705858,34.7235242 24.3999989,37.6529402 20.394118,37.6529402 C16.388237,37.6529402 13.0176435,34.7235242 12.4352939,30.788236 L28.352942,30.788236 Z M28.4411762,21.5588238 L28.4411762,28.423528 L21.5588238,28.423528 L21.5588238,21.5588238 L28.4411762,21.5588238 Z M37.5647061,19.211764 L21.647058,19.211764 C22.2294075,15.2764691 25.6000011,12.3470598 29.605882,12.3470598 C33.611763,12.3470598 36.9823498,15.2764691 37.5647061,19.211764 L37.5647061,19.211764 Z" id="path1776" fill="#FFFFFF"/>
        </g>
    </g>
</svg>
