<svg width="50" height="50" viewBox="0 0 50 50" fill="none" xmlns="http://www.w3.org/2000/svg">
  <rect width="50" height="50" rx="8" fill="#A6A9AA"/>
  <path d="M25.3695 26.687L23.2196 33.9367H34.7191C34.8729 33.9313 35.0226 33.9873 35.1351 34.0924C35.2477 34.1974 35.3138 34.3429 35.3191 34.4967V34.6867L34.3191 38.1366C34.2283 38.4726 33.9169 38.7009 33.5691 38.6866H15.9699L18.9197 28.6369L15.6199 29.6369L16.3698 27.337L19.6697 26.337L23.8195 12.2375C23.9135 11.9037 24.2229 11.6769 24.5695 11.6876H29.0193C29.1732 11.6822 29.3228 11.7381 29.4354 11.8432C29.5479 11.9482 29.6141 12.0937 29.6193 12.2475V12.4375L26.1194 24.3371L29.4193 23.3371L28.7193 25.737L25.3695 26.687Z" fill="white"/>
</svg>
