<svg width="50" height="50" viewBox="0 0 50 50" fill="none" xmlns="http://www.w3.org/2000/svg">
<circle cx="25" cy="25" r="25" fill="#8247E5"/>
<g clip-path="url(#clip0_1634_9245)">
<path d="M32.1458 20.112C31.6354 19.8134 30.9792 19.8134 30.3958 20.112L26.3125 22.5746L23.5417 24.1418L19.5312 26.6045C19.0208 26.903 18.3646 26.903 17.7812 26.6045L14.6458 24.6642C14.1354 24.3657 13.7708 23.7687 13.7708 23.097V19.3657C13.7708 18.7687 14.0625 18.1717 14.6458 17.7985L17.7812 15.9328C18.2917 15.6343 18.9479 15.6343 19.5312 15.9328L22.6667 17.8731C23.1771 18.1717 23.5417 18.7687 23.5417 19.4403V21.903L26.3125 20.2612V17.7239C26.3125 17.1269 26.0208 16.5299 25.4375 16.1567L19.6042 12.6493C19.0938 12.3508 18.4375 12.3508 17.8542 12.6493L11.875 16.2314C11.2917 16.5299 11 17.1269 11 17.7239V24.7388C11 25.3358 11.2917 25.9328 11.875 26.306L17.7812 29.8134C18.2917 30.112 18.9479 30.112 19.5312 29.8134L23.5417 27.4254L26.3125 25.7836L30.3229 23.3955C30.8333 23.097 31.4896 23.097 32.0729 23.3955L35.2083 25.2612C35.7188 25.5597 36.0833 26.1567 36.0833 26.8284V30.5597C36.0833 31.1567 35.7917 31.7537 35.2083 32.1269L32.1458 33.9925C31.6354 34.2911 30.9792 34.2911 30.3958 33.9925L27.2604 32.1269C26.75 31.8284 26.3854 31.2314 26.3854 30.5597V28.1717L23.6146 29.8134V32.2761C23.6146 32.8731 23.9062 33.4702 24.4896 33.8433L30.3958 37.3508C30.9062 37.6493 31.5625 37.6493 32.1458 37.3508L38.0521 33.8433C38.5625 33.5448 38.9271 32.9478 38.9271 32.2761V25.1866C38.9271 24.5896 38.6354 23.9925 38.0521 23.6194L32.1458 20.112Z" fill="white"/>
</g>
<defs>
<clipPath id="clip0_1634_9245">
<rect width="28" height="25" fill="white" transform="translate(11 12.5)"/>
</clipPath>
</defs>
</svg>
