<svg width="50" height="50" viewBox="0 0 50 50" fill="none" xmlns="http://www.w3.org/2000/svg">
<circle cx="25" cy="25" r="25" fill="#FF0420"/>
<path fill-rule="evenodd" clip-rule="evenodd" d="M14.9004 31.357C15.5844 31.5723 16.3254 31.68 17.1234 31.68C18.9601 31.68 20.4231 31.2557 21.5124 30.407C22.6017 29.5457 23.3617 28.2473 23.7924 26.512C23.9191 25.9673 24.0394 25.4227 24.1534 24.878C24.2801 24.3333 24.3877 23.7823 24.4764 23.225C24.6284 22.3637 24.6031 21.61 24.4004 20.964C24.2104 20.318 23.8747 19.7733 23.3934 19.33C22.9247 18.8867 22.3484 18.5573 21.6644 18.342C20.9931 18.114 20.2584 18 19.4604 18C17.6111 18 16.1417 18.4433 15.0524 19.33C13.9631 20.2167 13.2094 21.515 12.7914 23.225C12.6647 23.7823 12.5381 24.3333 12.4114 24.878C12.2974 25.4227 12.1897 25.9673 12.0884 26.512C11.9491 27.3733 11.9744 28.127 12.1644 28.773C12.3671 29.419 12.7027 29.9573 13.1714 30.388C13.6401 30.8187 14.2164 31.1417 14.9004 31.357ZM19.1754 28.336C18.6561 28.7413 18.0544 28.944 17.3704 28.944C16.6737 28.944 16.1734 28.7413 15.8694 28.336C15.5654 27.9307 15.4894 27.2847 15.6414 26.398C15.7427 25.8407 15.8441 25.315 15.9454 24.821C16.0594 24.327 16.1861 23.814 16.3254 23.282C16.5407 22.3953 16.9017 21.7493 17.4084 21.344C17.9277 20.9387 18.5294 20.736 19.2134 20.736C19.8974 20.736 20.3977 20.9387 20.7144 21.344C21.0311 21.7493 21.1071 22.3953 20.9424 23.282C20.8537 23.814 20.7524 24.327 20.6384 24.821C20.5371 25.315 20.4167 25.8407 20.2774 26.398C20.0621 27.2847 19.6947 27.9307 19.1754 28.336ZM24.9498 31.357C25.0258 31.4457 25.1271 31.49 25.2538 31.49H27.8378C27.9771 31.49 28.0974 31.4457 28.1988 31.357C28.3128 31.2683 28.3824 31.1543 28.4078 31.015L29.2818 26.854H31.8468C33.4808 26.854 34.7791 26.5057 35.7418 25.809C36.7171 25.1123 37.3631 24.0357 37.6798 22.579C37.8318 21.8443 37.8254 21.2047 37.6608 20.66C37.4961 20.1027 37.2048 19.6403 36.7868 19.273C36.3688 18.9057 35.8431 18.6333 35.2098 18.456C34.5891 18.2787 33.8924 18.19 33.1198 18.19H28.0658C27.9391 18.19 27.8188 18.2343 27.7048 18.323C27.5908 18.4117 27.5211 18.5257 27.4958 18.665L24.8738 31.015C24.8484 31.1543 24.8738 31.2683 24.9498 31.357ZM31.9608 24.232H29.7758L30.5168 20.831H32.7968C33.2528 20.831 33.5884 20.907 33.8038 21.059C34.0318 21.211 34.1648 21.4137 34.2028 21.667C34.2408 21.9203 34.2281 22.2117 34.1648 22.541C34.0381 23.111 33.7658 23.5353 33.3478 23.814C32.9424 24.0927 32.4801 24.232 31.9608 24.232Z" fill="white"/>
</svg>
