
<svg width="50" height="50" viewBox="0 0 50 50" fill="none" xmlns="http://www.w3.org/2000/svg">
    <rect width="50" height="50" rx="8" fill="url(#paint0_linear_144:1065)"/>
    <path fill-rule="evenodd" clip-rule="evenodd" d="M27.083 10H22.9697L22.9697 23.1114H27.083V26.1964H22.9697L22.9697 39.3077H27.083V10Z" fill="white"/>
    <path fill-rule="evenodd" clip-rule="evenodd" d="M18.8563 20.7976C18.8563 19.6075 19.1862 18.9695 19.5535 18.6179C19.9326 18.2549 20.589 17.9697 21.6842 17.9697H34.4099V14.8846H20.913C19.3088 14.8846 17.7799 15.3064 16.6487 16.3895C15.5056 17.484 15 19.0312 15 20.7976C15 22.6405 15.6229 24.1144 16.8823 25.0654C18.0583 25.9534 19.5485 26.1964 20.913 26.1964H22.9696V23.1114H21.6842C20.6064 23.1114 19.9114 22.9045 19.5126 22.6034C19.1974 22.3654 18.8563 21.9112 18.8563 20.7976ZM27.083 23.1114V26.1964H29.2682C29.9536 26.1964 30.3629 26.4698 30.6558 26.8882C30.9909 27.367 31.1964 28.0935 31.1964 28.8958C31.1964 29.293 31.0331 29.9412 30.6642 30.4576C30.3306 30.9246 29.8952 31.2096 29.2682 31.2096H15.3856V34.2946H29.7824C31.5978 34.2946 33.1547 33.3584 33.9459 32.2507C34.7018 31.1924 35.0527 29.9126 35.0527 28.8958C35.0527 27.6414 34.7439 26.247 33.9544 25.119C33.1224 23.9306 31.5393 23.1114 29.7824 23.1114H27.083Z" fill="white"/>
    <defs>
        <linearGradient id="paint0_linear_144:1065" x1="2.3703e-07" y1="34" x2="50" y2="4" gradientUnits="userSpaceOnUse">
            <stop stop-color="#014E2A"/>
            <stop offset="0.515625" stop-color="#05A34E"/>
            <stop offset="1" stop-color="#94D637"/>
        </linearGradient>
    </defs>
</svg>
