<svg width="50px" height="50px" viewBox="0 0 50 50" fill="none" xmlns="http://www.w3.org/2000/svg">
    <g id="Property 1=Coin, Property 2=PAX">
        <circle id="Mask" cx="25" cy="25" r="25" fill="url(#paint0_linear)"/>
        <g id="Group 48">
            <path id="Subtract" fill-rule="evenodd" clip-rule="evenodd" d="M27.083 10H22.9697L22.9697 23.1114H27.083V26.1964H22.9697L22.9697 39.3077H27.083V10Z" fill="white"/>
            <path id="Subtract_2" fill-rule="evenodd" clip-rule="evenodd" d="M18.8563 20.7976C18.8563 19.6075 19.1862 18.9695 19.5535 18.6178C19.9326 18.2548 20.589 17.9696 21.6842 17.9696H34.4099V14.8846H20.913C19.3088 14.8846 17.7799 15.3064 16.6487 16.3895C15.5056 17.484 15 19.0312 15 20.7976C15 22.6405 15.6229 24.1144 16.8823 25.0654C18.0583 25.9533 19.5485 26.1964 20.913 26.1964H22.9696V23.1113H21.6842C20.6064 23.1113 19.9114 22.9045 19.5126 22.6034C19.1974 22.3654 18.8563 21.9111 18.8563 20.7976ZM27.083 23.1113V26.1964H29.2682C29.9536 26.1964 30.3629 26.4698 30.6558 26.8881C30.9909 27.3669 31.1964 28.0935 31.1964 28.8958C31.1964 29.2929 31.0331 29.9412 30.6642 30.4576C30.3306 30.9246 29.8952 31.2095 29.2682 31.2095H15.3856V34.2946H29.7824C31.5978 34.2946 33.1547 33.3583 33.9459 32.2507C34.7018 31.1924 35.0527 29.9125 35.0527 28.8958C35.0527 27.6413 34.7439 26.247 33.9544 25.119C33.1224 23.9305 31.5393 23.1113 29.7824 23.1113H27.083Z" fill="white"/>
        </g>
    </g>
    <defs>
        <linearGradient id="paint0_linear" x1="1.18405e-06" y1="32" x2="44" y2="9" gradientUnits="userSpaceOnUse">
            <stop offset="0" stop-color="#004A28"/>
            <stop offset="0.494792" stop-color="#00A14E"/>
            <stop offset="1" stop-color="#93D536"/>
        </linearGradient>
    </defs>
</svg>
