<svg width="50" height="50" viewBox="0 0 50 50" fill="none" xmlns="http://www.w3.org/2000/svg">
<circle cx="25" cy="25" r="25" fill="#3B6FEE"/>
<path fill-rule="evenodd" clip-rule="evenodd" d="M17.4382 11.3963C17.549 10.6827 18.1635 10.1562 18.8857 10.1562H28.7721C31.9943 10.1562 34.8032 11.9761 36.5345 14.4111C38.2658 16.8458 39.0609 20.0946 37.9953 23.1326C35.9635 28.9257 31.145 30.1714 28.2666 30.3267C28.236 30.3283 28.2054 30.329 28.1748 30.3287C27.6996 30.3246 26.6516 30.3143 25.7234 30.305C25.5597 30.3034 25.3997 30.3018 25.2472 30.3003L23.9364 38.5121C23.8229 39.223 23.2098 39.7461 22.4899 39.7461H14.7461C14.3183 39.7461 13.912 39.5591 13.6337 39.2343C13.3554 38.9094 13.233 38.4792 13.2986 38.0565L17.4382 11.3963ZM23.9996 28.8228C24.0145 27.358 24.0145 27.358 24.0145 27.358H24.0146L24.5354 27.3633C24.8539 27.3665 25.2884 27.3708 25.7526 27.3755C26.6516 27.3844 27.6604 27.3943 28.1532 27.3988C30.4362 27.2662 33.7656 26.3403 35.2307 22.163C35.9185 20.2022 35.4473 17.9377 34.1469 16.1088C32.8466 14.28 30.8584 13.0859 28.7721 13.0859H20.1407L16.4559 36.8164H21.2403L22.5531 28.5919C22.6674 27.8754 23.289 27.3507 24.0145 27.358L23.9996 28.8228Z" fill="white"/>
<path fill-rule="evenodd" clip-rule="evenodd" d="M12.5 17.2852C12.5 16.4761 13.1558 15.8203 13.9648 15.8203H28.125C30.552 15.8203 32.5195 17.7878 32.5195 20.2148C32.5195 22.6419 30.552 24.6094 28.125 24.6094H12.9883C12.1793 24.6094 11.5234 23.9535 11.5234 23.1445C11.5234 22.3355 12.1793 21.6797 12.9883 21.6797H28.125C28.934 21.6797 29.5898 21.0239 29.5898 20.2148C29.5898 19.4058 28.934 18.75 28.125 18.75H13.9648C13.1558 18.75 12.5 18.0942 12.5 17.2852Z" fill="white"/>
</svg>
