
<svg width="50" height="50" viewBox="0 0 50 50" fill="none" xmlns="http://www.w3.org/2000/svg">
  <path d="M0 8C0 3.58172 3.58172 0 8 0H42C46.4183 0 50 3.58172 50 8V42C50 46.4183 46.4183 50 42 50H8C3.58172 50 0 46.4183 0 42V8Z" fill="#2775CA"/>
  <path d="M20 42.2072C20 42.7958 19.5333 43.1293 18.9889 42.9527C11.4444 40.5198 6 33.4172 6 25C6 16.6024 11.4444 9.4802 18.9889 7.04726C19.5528 6.87068 20 7.20422 20 7.79284V9.26437C20 9.65678 19.7083 10.1081 19.3389 10.2454C13.3694 12.4625 9.11111 18.2506 9.11111 25C9.11111 31.7691 13.3694 37.5375 19.3389 39.735C19.7083 39.8723 20 40.3236 20 40.716V42.2072Z" fill="white"/>
  <path d="M26.6783 37.2188C26.6783 37.6484 26.3261 38 25.8957 38H24.3305C23.9 38 23.5479 37.6484 23.5479 37.2188V34.7578C20.124 34.2891 18.4609 32.3945 18.0109 29.7773C17.9327 29.3281 18.2848 28.9375 18.7348 28.9375H20.5153C20.887 28.9375 21.2001 29.2109 21.2783 29.5625C21.6109 31.1055 22.5109 32.2969 25.25 32.2969C27.2652 32.2969 28.7131 31.1641 28.7131 29.4844C28.7131 27.8047 27.8718 27.1602 24.8979 26.6719C20.5153 26.0859 18.4414 24.7578 18.4414 21.3398C18.4414 18.7031 20.4566 16.6328 23.5479 16.2031V13.7812C23.5479 13.3516 23.9 13 24.3305 13H25.8957C26.3261 13 26.6783 13.3516 26.6783 13.7812V16.2617C29.2022 16.7109 30.8065 18.1367 31.3348 20.5195C31.4326 20.9688 31.0804 21.3789 30.6109 21.3789H28.9674C28.6152 21.3789 28.3218 21.1445 28.2239 20.8125C27.7739 19.3086 26.6979 18.6445 24.8196 18.6445C22.7457 18.6445 21.6696 19.6406 21.6696 21.0469C21.6696 22.5312 22.2761 23.2734 25.4652 23.7227C29.7696 24.3086 32 25.5391 32 29.1914C32 31.9648 29.9261 34.2109 26.6979 34.7188V37.2188H26.6783Z" fill="white"/>
  <path d="M31.0111 42.9527C30.4472 43.1295 30 42.7956 30 42.2063V40.7332C30 40.301 30.2528 39.8886 30.6611 39.7511C36.6111 37.5512 40.8889 31.7568 40.8889 25C40.8889 18.2235 36.6306 12.4488 30.6611 10.2489C30.2917 10.1114 30 9.65968 30 9.26685V7.7937C30 7.20445 30.4667 6.87054 31.0111 7.04731C38.5556 9.44362 44 16.5736 44 24.9804C44 33.4067 38.5556 40.5171 31.0111 42.9527Z" fill="white"/>
</svg>
