<svg width="50" height="50" viewBox="0 0 50 50" fill="none" xmlns="http://www.w3.org/2000/svg">
<circle cx="25" cy="25" r="25" fill="#009393"/>
<path fill-rule="evenodd" clip-rule="evenodd" d="M36.0633 15V18.9503H27.7576V21.6892C33.5909 21.9818 37.9675 23.184 38 24.6248L37.9998 27.6286C37.9673 29.0695 33.5909 30.2715 27.7576 30.5642V37.2857H22.2424V30.5642C16.4091 30.2715 12.0325 29.0695 12 27.6286L12.0002 24.6248C12.0327 23.184 16.4091 21.9818 22.2424 21.6892V18.9503H13.9367V15H36.0633ZM25 28.5006C31.2253 28.5006 36.4285 27.4841 37.7019 26.1267C36.6221 24.9756 32.7162 24.0696 27.7576 23.8208V26.6884C26.8688 26.733 25.9462 26.7565 25 26.7565C24.0538 26.7565 23.1312 26.733 22.2424 26.6884V23.8208C17.2838 24.0696 13.3779 24.9756 12.2981 26.1267C13.5715 27.4841 18.7747 28.5006 25 28.5006Z" fill="white"/>
</svg>
