
<svg width="50" height="50" viewBox="0 0 50 50" fill="none" xmlns="http://www.w3.org/2000/svg">
    <rect width="50" height="50" rx="8" fill="#282A47"/>
    <path d="M40.4955 10.4227L39.1318 11.7864C45.8762 19.1619 45.8762 30.4655 39.1318 37.8409L40.4955 39.2046C47.999 31.0656 47.999 18.5299 40.4955 10.3909V10.4227Z" fill="#54588C"/>
    <path d="M11.8182 10.5409C19.1937 3.79653 30.4973 3.79653 37.8727 10.5409L39.2364 9.17729C31.0974 1.67373 18.5617 1.67373 10.4227 9.17729L11.8182 10.5409Z" fill="#54588C"/>
    <path d="M10.5409 37.8546C3.80478 30.4811 3.80478 19.1871 10.5409 11.8136L9.17723 10.45C1.67367 18.589 1.67367 31.1246 9.17723 39.2636L10.5409 37.8546Z" fill="#54588C"/>
    <path d="M37.8546 39.1136C30.4791 45.858 19.1755 45.858 11.8 39.1136L10.4364 40.4773C18.5754 47.9808 31.111 47.9808 39.25 40.4773L37.8546 39.1136Z" fill="#54588C"/>
    <path fill-rule="evenodd" clip-rule="evenodd" d="M33.4409 20.2818C33.1682 17.4363 30.7136 16.4818 27.6091 16.1909V12.2727H25.2091V16.1182H23.2909V12.2727H20.9091V16.2182H16.0409V18.7863C16.0409 18.7863 17.8136 18.7545 17.7863 18.7863C18.4507 18.7133 19.0536 19.1795 19.15 19.8409V30.6409C19.1362 30.8676 19.0313 31.0791 18.8591 31.2273C18.6901 31.3782 18.4668 31.4538 18.2409 31.4363C18.2727 31.4636 16.4954 31.4363 16.4954 31.4363L16.0409 34.3045H20.8636V38.3136H23.2636V34.3636H25.1818V38.2954H27.5863V34.3318C31.6409 34.0863 34.4682 33.0863 34.8227 29.2909C35.1091 26.2363 33.6727 24.8727 31.3773 24.3227C32.7727 23.6363 33.6363 22.3636 33.4409 20.2818ZM30.0773 28.8182C30.0773 31.5555 25.7715 31.4926 23.8065 31.4639C23.6311 31.4614 23.4743 31.4591 23.3409 31.4591V26.1682C23.5075 26.1686 23.7106 26.1641 23.941 26.159L23.9411 26.159C25.961 26.1144 30.0773 26.0234 30.0773 28.8182ZM23.7541 23.7643C25.4006 23.7935 28.9636 23.8568 28.9636 21.3636C28.9636 18.8074 25.5116 18.8972 23.833 18.9408C23.6461 18.9457 23.4812 18.95 23.3454 18.95V23.7591C23.4617 23.7591 23.5994 23.7615 23.7541 23.7643Z" fill="white"/>
</svg>
