<svg xmlns="http://www.w3.org/2000/svg" xmlns:xlink="http://www.w3.org/1999/xlink" id="wETH_desktop" width="240" height="240" viewBox="0 0 240 240"><defs><clipPath id="clip-path"><rect id="Rectangle_341" data-name="Rectangle 341" width="131.949" height="132.505" fill="none"></rect></clipPath></defs><circle id="Ellipse_8" data-name="Ellipse 8" cx="120" cy="120" r="120" fill="#eef2f7"></circle><g id="Path_779" data-name="Path 779" transform="translate(10 10)" fill="#eef2f7"><path d="M 110 218 C 102.671028137207 218 95.34726715087891 217.2617645263672 88.23211669921875 215.8058013916016 C 81.29882049560547 214.3870239257812 74.47902679443359 212.2700653076172 67.96215057373047 209.5136413574219 C 61.56311798095703 206.8070831298828 55.39111709594727 203.45703125 49.61755752563477 199.5564727783203 C 43.89835357666016 195.6926422119141 38.52017593383789 191.2552642822266 33.63246917724609 186.3675231933594 C 28.74473571777344 181.4798278808594 24.30735206604004 176.1016540527344 20.44352912902832 170.3824462890625 C 16.54297065734863 164.60888671875 13.19291210174561 158.4368896484375 10.48635292053223 152.0378570556641 C 7.729941368103027 145.5209655761719 5.612970352172852 138.701171875 4.194205760955811 131.7678833007812 C 2.738235235214233 124.6527328491211 2 117.328971862793 2 110 C 2 102.671028137207 2.738235235214233 95.34726715087891 4.194205760955811 88.23211669921875 C 5.612970352172852 81.29882049560547 7.729941368103027 74.47902679443359 10.48635292053223 67.96215057373047 C 13.19291210174561 61.56311798095703 16.54297065734863 55.39111709594727 20.44352912902832 49.61755752563477 C 24.30735206604004 43.89835357666016 28.74473571777344 38.52017593383789 33.63246917724609 33.63246917724609 C 38.52017593383789 28.74473571777344 43.89835357666016 24.30735206604004 49.61755752563477 20.44352912902832 C 55.39111709594727 16.54297065734863 61.56311798095703 13.19291210174561 67.96215057373047 10.48635292053223 C 74.47902679443359 7.729941368103027 81.29882049560547 5.612970352172852 88.23211669921875 4.194205760955811 C 95.34726715087891 2.738235235214233 102.671028137207 2 110 2 C 117.328971862793 2 124.6527328491211 2.738235235214233 131.7678833007812 4.194205760955811 C 138.701171875 5.612970352172852 145.5209655761719 7.729941368103027 152.0378570556641 10.48635292053223 C 158.4368896484375 13.19291210174561 164.60888671875 16.54297065734863 170.3824462890625 20.44352912902832 C 176.1016540527344 24.30735206604004 181.4798278808594 28.74473571777344 186.3675231933594 33.63246917724609 C 191.2552642822266 38.52017593383789 195.6926422119141 43.89835357666016 199.5564727783203 49.61755752563477 C 203.45703125 55.39111709594727 206.8070831298828 61.56311798095703 209.5136413574219 67.96215057373047 C 212.2700653076172 74.47902679443359 214.3870239257812 81.29882049560547 215.8058013916016 88.23211669921875 C 217.2617645263672 95.34726715087891 218 102.671028137207 218 110 C 218 117.328971862793 217.2617645263672 124.6527328491211 215.8058013916016 131.7678833007812 C 214.3870239257812 138.701171875 212.2700653076172 145.5209655761719 209.5136413574219 152.0378570556641 C 206.8070831298828 158.4368896484375 203.45703125 164.60888671875 199.5564727783203 170.3824462890625 C 195.6926422119141 176.1016540527344 191.2552642822266 181.4798278808594 186.3675231933594 186.3675231933594 C 181.4798278808594 191.2552642822266 176.1016540527344 195.6926422119141 170.3824462890625 199.5564727783203 C 164.60888671875 203.45703125 158.4368896484375 206.8070831298828 152.0378570556641 209.5136413574219 C 145.5209655761719 212.2700653076172 138.701171875 214.3870239257812 131.7678833007812 215.8058013916016 C 124.6527328491211 217.2617645263672 117.328971862793 218 110 218 Z" stroke="none"></path><path d="M 110 4 C 102.8054351806641 4 95.61656188964844 4.724563598632812 88.633056640625 6.153594970703125 C 81.82913208007812 7.545913696289062 75.13653564453125 9.623382568359375 68.74125671386719 12.328369140625 C 62.461181640625 14.984619140625 56.40371704101562 18.27253723144531 50.7371826171875 22.10078430175781 C 45.12344360351562 25.89334106445312 39.84440612792969 30.24896240234375 35.04669189453125 35.04669189453125 C 30.24896240234375 39.84440612792969 25.89334106445312 45.12344360351562 22.10078430175781 50.7371826171875 C 18.27253723144531 56.40371704101562 14.984619140625 62.461181640625 12.328369140625 68.74125671386719 C 9.623382568359375 75.13653564453125 7.545913696289062 81.82913208007812 6.153594970703125 88.633056640625 C 4.724563598632812 95.61656188964844 4 102.8054351806641 4 110 C 4 117.1945648193359 4.724563598632812 124.3834381103516 6.153594970703125 131.366943359375 C 7.545913696289062 138.1708679199219 9.623382568359375 144.8634643554688 12.328369140625 151.2587585449219 C 14.984619140625 157.538818359375 18.27253723144531 163.5962829589844 22.10078430175781 169.2628173828125 C 25.89334106445312 174.8765563964844 30.24896240234375 180.1555938720703 35.04669189453125 184.9533081054688 C 39.84440612792969 189.7510375976562 45.12344360351562 194.1066589355469 50.7371826171875 197.8992156982422 C 56.40371704101562 201.7274627685547 62.461181640625 205.015380859375 68.74125671386719 207.671630859375 C 75.13653564453125 210.3766174316406 81.82913208007812 212.4541015625 88.633056640625 213.8464050292969 C 95.61656188964844 215.2754364013672 102.8054351806641 216 110 216 C 117.1945648193359 216 124.3834381103516 215.2754364013672 131.366943359375 213.8464050292969 C 138.1708679199219 212.4541015625 144.8634643554688 210.3766174316406 151.2587585449219 207.671630859375 C 157.538818359375 205.015380859375 163.5962829589844 201.7274627685547 169.2628173828125 197.8992156982422 C 174.8765563964844 194.1066589355469 180.1555938720703 189.7510375976562 184.9533081054688 184.9533081054688 C 189.7510375976562 180.1555938720703 194.1066589355469 174.8765563964844 197.8992156982422 169.2628173828125 C 201.7274627685547 163.5962829589844 205.015380859375 157.538818359375 207.671630859375 151.2587585449219 C 210.3766174316406 144.8634643554688 212.4541015625 138.1708679199219 213.8464050292969 131.366943359375 C 215.2754364013672 124.3834381103516 216 117.1945648193359 216 110 C 216 102.8054351806641 215.2754364013672 95.61656188964844 213.8464050292969 88.633056640625 C 212.4541015625 81.82913208007812 210.3766174316406 75.13653564453125 207.671630859375 68.74125671386719 C 205.015380859375 62.461181640625 201.7274627685547 56.40371704101562 197.8992156982422 50.7371826171875 C 194.1066589355469 45.12344360351562 189.7510375976562 39.84440612792969 184.9533081054688 35.04669189453125 C 180.1555938720703 30.24896240234375 174.8765563964844 25.89334106445312 169.2628173828125 22.10078430175781 C 163.5962829589844 18.27253723144531 157.538818359375 14.984619140625 151.2587585449219 12.328369140625 C 144.8634643554688 9.623382568359375 138.1708679199219 7.545913696289062 131.366943359375 6.153594970703125 C 124.3834381103516 4.724563598632812 117.1945648193359 4 110 4 M 110 0 C 170.7513122558594 0 220 49.24868774414062 220 110 C 220 170.7513122558594 170.7513122558594 220 110 220 C 49.24868774414062 220 0 170.7513122558594 0 110 C 0 49.24868774414062 49.24868774414062 0 110 0 Z" stroke="none" fill="#c4c4c4"></path></g><g id="Ellipse_12" data-name="Ellipse 12" transform="translate(13 13)" fill="none" stroke="#aaaab7" stroke-width="2.5"><circle cx="107" cy="107" r="107" stroke="none"></circle><circle cx="107" cy="107" r="105.75" fill="none"></circle></g><g id="Group_768" data-name="Group 768" transform="translate(54.025 53.748)"><g id="Group_768-2" data-name="Group 768" transform="translate(0 0)" clip-path="url(#clip-path)"><path id="Path_848" data-name="Path 848" d="M34.8,75.542c34,0,34-.507,39.767-2.217C82.1,71.089,53.294,51.148,34.8,51.148S1.312,56.61,1.312,63.346,16.3,75.542,34.8,75.542" transform="translate(1.461 56.964)"></path><path id="Path_849" data-name="Path 849" d="M113.467,28.784l1.564,1.685-1.365,1.847c-44.345,59.959-69.891,87.105-80.73,83.466-6.6-2.219-13.221-8.888-19.843-18.573-2.327-3.405-4.513-6.99-6.5-10.556-1.323-2.376-2.443-4.542-3.025-5.762a14.361,14.361,0,0,1-1.3-3.775l-.03-.152c-.1-.535-.14-.7-.218-1A60.455,60.455,0,0,1,89.893,7.656l.23.144q10.967,7.638,23.344,20.985m-26.4-16.356A54.925,54.925,0,0,0,7.375,74.546c.12.452.175.706.3,1.361l.025.135A9,9,0,0,0,8.571,78.5c.531,1.114,1.6,3.175,2.864,5.449,1.911,3.428,4.01,6.872,6.233,10.127,5.984,8.749,11.915,14.726,17.032,16.445,6.827,2.293,32.523-24.908,73.132-79.648A139.482,139.482,0,0,0,87.067,12.429" transform="translate(0 0.001)"></path><path id="Path_850" data-name="Path 850" d="M84.146,9.507A54.925,54.925,0,0,0,4.453,71.625c.12.452.175.706.3,1.361l.025.135a9,9,0,0,0,.869,2.462c.531,1.114,1.6,3.175,2.864,5.449,1.911,3.428,4.01,6.872,6.233,10.127,5.984,8.749,11.915,14.726,17.032,16.445C38.607,109.9,64.3,82.7,104.911,27.956A139.482,139.482,0,0,0,84.146,9.507" transform="translate(2.921 2.922)" fill="#ec1c79"></path><path id="Path_851" data-name="Path 851" d="M65.677,126.107a60.431,60.431,0,1,1,60.431-60.431,60.43,60.43,0,0,1-60.431,60.431m0-5.544A54.886,54.886,0,1,0,10.79,65.677a54.887,54.887,0,0,0,54.886,54.886" transform="translate(5.842 5.843)"></path><path id="Path_852" data-name="Path 852" d="M62.755,117.642A54.886,54.886,0,1,0,7.869,62.755a54.887,54.887,0,0,0,54.886,54.886" transform="translate(8.764 8.765)" fill="#fff"></path><path id="Path_853" data-name="Path 853" d="M18.239,50.72,10.974,28.832H17.34l3.788,12.574,4.189-12.636H30.5l4.191,12.636,3.788-12.574h6.242L37.456,50.72H32.21L27.833,38.209,23.485,50.72Zm28.873-.154V28.832h17.48v5.124H53.075v3.291H63.506V42H53.075v3.445H64.746v5.124Zm26.02,0V34.11H66.613V28.832H85.672V34.11H79.153V50.565Zm15.181,0V28.832h6.024v8.133h7.73V28.832h6.026V50.565h-6.026V42.307h-7.73v8.258Z" transform="translate(12.222 32.043)" fill-rule="evenodd"></path><path id="Path_854" data-name="Path 854" d="M2.609,28.806a3.105,3.105,0,0,1,2.777-5.555l8.869,4.437a3.1,3.1,0,1,1-2.775,5.553Z" transform="translate(0.993 25.531)"></path><path id="Path_855" data-name="Path 855" d="M2.172,35.787a3.1,3.1,0,1,1,2.6-5.637l8.871,4.092a3.105,3.105,0,0,1-2.6,5.639Z" transform="translate(0.409 33.26)"></path></g></g></svg>