<svg width="216" height="250" viewBox="0 0 216 250" fill="none" xmlns="http://www.w3.org/2000/svg">
<mask id="mask0_345_12150" style="mask-type:alpha" maskUnits="userSpaceOnUse" x="0" y="0" width="216" height="250">
<rect x="0.609375" width="215" height="250" rx="21" fill="#F5F6F8"/>
</mask>
<g mask="url(#mask0_345_12150)">
<rect x="0.609375" width="215" height="250" rx="21" fill="#F5F6F8"/>
<path fill-rule="evenodd" clip-rule="evenodd" d="M136.576 265.723C146.334 265.723 155.396 263.631 163.759 258.398C172.123 253.862 179.791 247.584 186.065 239.561C192.337 231.885 197.217 222.815 200.701 213.048C204.186 202.932 205.928 192.815 205.928 182.001C205.928 168.745 203.838 158.629 199.308 150.954C194.777 143.279 185.715 140.14 173.867 140.14C170.033 140.14 166.199 140.488 159.926 141.883C153.654 143.279 148.426 146.42 143.198 150.606L116.363 264.328C124.727 265.723 133.44 265.723 136.576 265.723ZM190.589 88.5072C203.833 88.5072 215.335 90.9495 225.092 95.834C234.85 100.368 242.518 106.648 249.14 115.02C255.412 123.043 259.942 132.462 263.079 143.276C266.215 154.09 267.609 165.603 267.609 178.161C267.609 197.347 264.125 215.139 256.806 232.233C249.488 248.977 240.078 264.325 227.88 276.534C215.683 289.092 201.393 299.21 184.665 306.186C167.936 313.513 150.162 317 130.995 317C128.555 317 124.023 317 117.751 316.652C111.478 316.652 104.16 315.955 96.492 314.908C88.4762 313.513 79.7625 312.118 71.0507 310.024C61.989 307.932 53.6251 304.791 45.6094 300.953L117.403 -0.0975075L181.528 -10.2148L156.086 96.5307C161.662 94.0903 166.89 91.9964 172.468 90.9495C178.392 89.2058 184.316 88.5072 190.589 88.5072Z" fill="#FCFCFC"/>
<path fill-rule="evenodd" clip-rule="evenodd" d="M45.7981 19.2077C49.4046 22.0509 51.5103 26.3977 51.5103 30.9991C51.5103 35.4855 49.5085 39.7298 46.0658 42.5745L45.7982 42.7896L45.793 42.7905L45.5303 42.5787C42.085 39.7353 40.0834 35.4887 40.0881 31.0012C40.0845 26.4 42.1901 22.0527 45.7981 19.2119L45.7921 19.2075L45.7981 19.2077Z" fill="#FF5F00"/>
<path fill-rule="evenodd" clip-rule="evenodd" d="M40.0867 31.0012C40.0831 26.4 42.1887 22.0527 45.7967 19.2119C39.6672 14.3795 30.865 15.0834 25.5761 20.8288C20.2871 26.5743 20.2871 35.4323 25.5761 41.1777C30.865 46.9232 39.6672 47.6271 45.7967 42.7947C42.1875 39.953 40.0818 35.6038 40.0867 31.0012Z" fill="#EB001B"/>
<path fill-rule="evenodd" clip-rule="evenodd" d="M69.9869 31.001C69.9868 36.7429 66.7185 41.9807 61.5701 44.4899C56.4217 46.9991 50.2971 46.3391 45.7974 42.7903C49.4038 39.947 51.5095 35.6003 51.5095 30.9989C51.5095 26.3975 49.4038 22.0507 45.7974 19.2075C50.2971 15.6586 56.4217 14.9987 61.5701 17.5079C66.7185 20.017 69.9868 25.2549 69.9869 30.9968V31.001Z" fill="#F79E1B"/>
<circle cx="186.263" cy="218.653" r="14.6535" transform="rotate(180 186.263 218.653)" fill="white"/>
<path fill-rule="evenodd" clip-rule="evenodd" d="M187.454 212.793L186.172 214.018L190.11 217.78L178.936 217.78L178.936 219.529L190.11 219.529L186.172 223.291L187.454 224.516L193.59 218.654L187.454 212.793Z" fill="#434D5A"/>
<path d="M28.7451 96.3389C28.3701 96.8252 27.8018 97.2529 27.04 97.6221C26.2842 97.9912 25.2734 98.1758 24.0078 98.1758C22.9238 98.1758 21.9688 97.9326 21.1426 97.4463C20.3223 96.96 19.6807 96.2539 19.2178 95.3281C18.7607 94.4023 18.5322 93.3008 18.5322 92.0234V91.1885C18.5322 89.8936 18.7432 88.7861 19.165 87.8662C19.5869 86.9404 20.1934 86.2373 20.9844 85.7568C21.7754 85.2705 22.7188 85.0273 23.8145 85.0273C25.3203 85.0273 26.4746 85.3965 27.2773 86.1348C28.0859 86.8672 28.5723 87.8662 28.7363 89.1318H26.5039C26.2637 87.6143 25.3818 86.8555 23.8584 86.8555C22.8506 86.8555 22.0918 87.2275 21.582 87.9717C21.0781 88.71 20.8262 89.7764 20.8262 91.1709V92.0234C20.8262 92.9434 20.9551 93.7285 21.2129 94.3789C21.4707 95.0234 21.8428 95.5127 22.3291 95.8467C22.8213 96.1807 23.4072 96.3477 24.0869 96.3477C24.7549 96.3477 25.2676 96.2773 25.625 96.1367C25.9883 95.9902 26.2695 95.8115 26.4688 95.6006V93.1309H23.8672V91.4082H28.7451V96.3389ZM39.002 93.9307H32.8057C32.8467 94.417 32.9727 94.8477 33.1836 95.2227C33.3945 95.5977 33.6787 95.8906 34.0361 96.1016C34.3994 96.3125 34.8213 96.418 35.3018 96.418C36.2861 96.418 37.0771 96.0312 37.6748 95.2578L38.8438 96.3916C38.498 96.9014 38.0176 97.3262 37.4023 97.666C36.7871 98.0059 36.043 98.1758 35.1699 98.1758C34.2441 98.1758 33.4355 97.9766 32.7441 97.5781C32.0527 97.1738 31.5225 96.623 31.1533 95.9258C30.7842 95.2285 30.5996 94.4463 30.5996 93.5791V93.2188C30.5996 92.2402 30.7871 91.3818 31.1621 90.6436C31.5371 89.8994 32.0527 89.3252 32.709 88.9209C33.3652 88.5166 34.1035 88.3145 34.9238 88.3145C35.8203 88.3145 36.5732 88.5107 37.1826 88.9033C37.792 89.2959 38.2461 89.8467 38.5449 90.5557C38.8496 91.2588 39.002 92.0762 39.002 93.0078V93.9307ZM36.8398 92.1816C36.8105 91.5664 36.6436 91.0625 36.3389 90.6699C36.0342 90.2715 35.5596 90.0723 34.915 90.0723C34.3408 90.0723 33.8779 90.2715 33.5264 90.6699C33.1748 91.0684 32.9492 91.6279 32.8496 92.3486H36.8398V92.1816ZM44.3369 96.3652C44.5713 96.3652 44.8203 96.3359 45.084 96.2773V97.9648C44.6621 98.1055 44.1875 98.1758 43.6602 98.1758C42.8867 98.1758 42.2773 97.9619 41.832 97.5342C41.3867 97.1064 41.1641 96.4238 41.1641 95.4863V90.1074H39.6172V88.4902H41.1641V86.1699H43.3525V88.4902H45.0225V90.1074H43.3525V95.3369C43.3525 95.7354 43.4346 96.0078 43.5986 96.1543C43.7627 96.2949 44.0088 96.3652 44.3369 96.3652ZM54.8311 96.3652C55.0654 96.3652 55.3145 96.3359 55.5781 96.2773V97.9648C55.1562 98.1055 54.6816 98.1758 54.1543 98.1758C53.3809 98.1758 52.7715 97.9619 52.3262 97.5342C51.8809 97.1064 51.6582 96.4238 51.6582 95.4863V90.1074H50.1113V88.4902H51.6582V86.1699H53.8467V88.4902H55.5166V90.1074H53.8467V95.3369C53.8467 95.7354 53.9287 96.0078 54.0928 96.1543C54.2568 96.2949 54.5029 96.3652 54.8311 96.3652ZM61.915 88.3145C63.9834 88.3145 65.0176 89.5068 65.0176 91.8916V98H62.8291V91.874C62.8291 91.2354 62.6914 90.7812 62.416 90.5117C62.1465 90.2363 61.7305 90.0986 61.168 90.0986C60.7461 90.0986 60.374 90.1953 60.0518 90.3887C59.7354 90.582 59.4805 90.8516 59.2871 91.1973V98H57.0986V84.5H59.2871V89.5273C59.6152 89.1406 60.002 88.8418 60.4473 88.6309C60.8984 88.4199 61.3877 88.3145 61.915 88.3145ZM75.1953 93.9307H68.999C69.04 94.417 69.166 94.8477 69.377 95.2227C69.5879 95.5977 69.8721 95.8906 70.2295 96.1016C70.5928 96.3125 71.0146 96.418 71.4951 96.418C72.4795 96.418 73.2705 96.0312 73.8682 95.2578L75.0371 96.3916C74.6914 96.9014 74.2109 97.3262 73.5957 97.666C72.9805 98.0059 72.2363 98.1758 71.3633 98.1758C70.4375 98.1758 69.6289 97.9766 68.9375 97.5781C68.2461 97.1738 67.7158 96.623 67.3467 95.9258C66.9775 95.2285 66.793 94.4463 66.793 93.5791V93.2188C66.793 92.2402 66.9805 91.3818 67.3555 90.6436C67.7305 89.8994 68.2461 89.3252 68.9023 88.9209C69.5586 88.5166 70.2969 88.3145 71.1172 88.3145C72.0137 88.3145 72.7666 88.5107 73.376 88.9033C73.9854 89.2959 74.4395 89.8467 74.7383 90.5557C75.043 91.2588 75.1953 92.0762 75.1953 93.0078V93.9307ZM73.0332 92.1816C73.0039 91.5664 72.8369 91.0625 72.5322 90.6699C72.2275 90.2715 71.7529 90.0723 71.1084 90.0723C70.5342 90.0723 70.0713 90.2715 69.7197 90.6699C69.3682 91.0684 69.1426 91.6279 69.043 92.3486H73.0332V92.1816ZM88.5283 91.3379C89.2373 91.5254 89.7734 91.8857 90.1367 92.4189C90.5 92.9463 90.6816 93.5586 90.6816 94.2559C90.6816 95.4688 90.292 96.3975 89.5127 97.042C88.7334 97.6807 87.6377 98 86.2256 98H82.3672H81.5059V85.2031H85.9004C87.3418 85.2031 88.4492 85.4902 89.2227 86.0645C89.9961 86.6328 90.3828 87.5 90.3828 88.666C90.3828 89.2637 90.2217 89.7969 89.8994 90.2656C89.583 90.7344 89.126 91.0918 88.5283 91.3379ZM83.7822 87.04V90.582H85.918C86.6152 90.582 87.1543 90.4268 87.5352 90.1162C87.9219 89.8057 88.1152 89.3691 88.1152 88.8066C88.1152 88.1855 87.9365 87.7373 87.5791 87.4619C87.2217 87.1807 86.6621 87.04 85.9004 87.04H83.7822ZM86.2256 96.1719C86.9287 96.1719 87.4678 95.999 87.8428 95.6533C88.2236 95.3018 88.4141 94.8359 88.4141 94.2559C88.4141 92.9199 87.7168 92.252 86.3223 92.252H83.7822V96.1719H86.2256ZM93.9336 84.8516C94.3145 84.8516 94.6162 84.9629 94.8389 85.1855C95.0615 85.4023 95.1729 85.6807 95.1729 86.0205C95.1729 86.3545 95.0615 86.6299 94.8389 86.8467C94.6162 87.0635 94.3145 87.1719 93.9336 87.1719C93.5527 87.1719 93.251 87.0664 93.0283 86.8555C92.8057 86.6387 92.6943 86.3604 92.6943 86.0205C92.6943 85.6807 92.8057 85.4023 93.0283 85.1855C93.251 84.9629 93.5527 84.8516 93.9336 84.8516ZM92.835 98V88.4902H95.0234V98H92.835ZM101.026 96.3652C101.261 96.3652 101.51 96.3359 101.773 96.2773V97.9648C101.352 98.1055 100.877 98.1758 100.35 98.1758C99.5762 98.1758 98.9668 97.9619 98.5215 97.5342C98.0762 97.1064 97.8535 96.4238 97.8535 95.4863V90.1074H96.3066V88.4902H97.8535V86.1699H100.042V88.4902H101.712V90.1074H100.042V95.3369C100.042 95.7354 100.124 96.0078 100.288 96.1543C100.452 96.2949 100.698 96.3652 101.026 96.3652ZM108.444 85.2031C109.411 85.2031 110.246 85.3789 110.949 85.7305C111.658 86.0762 112.197 86.5596 112.566 87.1807C112.936 87.7959 113.12 88.499 113.12 89.29C113.12 90.1162 112.936 90.8281 112.566 91.4258C112.203 92.0234 111.67 92.4805 110.967 92.7969C110.27 93.1133 109.429 93.2715 108.444 93.2715H105.808V98H103.531V85.2031H108.444ZM108.444 91.4434C109.259 91.4434 109.859 91.2529 110.246 90.8721C110.639 90.4912 110.835 89.9697 110.835 89.3076C110.835 88.8975 110.75 88.5225 110.58 88.1826C110.41 87.8369 110.146 87.5615 109.789 87.3564C109.432 87.1455 108.983 87.04 108.444 87.04H105.808V91.4434H108.444ZM122.287 95.7852C122.287 96.6523 122.407 97.3408 122.647 97.8506V98H120.415C120.321 97.7949 120.239 97.499 120.169 97.1123C119.87 97.4346 119.513 97.6924 119.097 97.8857C118.681 98.0791 118.209 98.1758 117.682 98.1758C117.061 98.1758 116.504 98.0527 116.012 97.8066C115.52 97.5605 115.136 97.2207 114.86 96.7871C114.585 96.3535 114.447 95.8672 114.447 95.3281C114.447 94.3145 114.822 93.5381 115.572 92.999C116.328 92.46 117.397 92.1904 118.78 92.1904H120.099V91.5752C120.099 91.0713 119.961 90.6787 119.686 90.3975C119.41 90.1104 119.003 89.9668 118.464 89.9668C118.142 89.9668 117.857 90.0225 117.611 90.1338C117.365 90.2451 117.175 90.3975 117.04 90.5908C116.905 90.7842 116.838 91.001 116.838 91.2412H114.649C114.649 90.7314 114.811 90.2539 115.133 89.8086C115.461 89.3574 115.924 88.9971 116.521 88.7275C117.125 88.4521 117.813 88.3145 118.587 88.3145C119.313 88.3145 119.955 88.4375 120.512 88.6836C121.068 88.9297 121.502 89.2988 121.812 89.791C122.129 90.2832 122.287 90.8838 122.287 91.5928V95.7852ZM118.104 96.4268C118.561 96.4268 118.965 96.3184 119.316 96.1016C119.674 95.8848 119.935 95.624 120.099 95.3193V93.5439H118.956C118.194 93.5439 117.617 93.6816 117.225 93.957C116.832 94.2324 116.636 94.6191 116.636 95.1172C116.636 95.5039 116.765 95.8203 117.022 96.0664C117.28 96.3066 117.641 96.4268 118.104 96.4268ZM132.096 88.4902L128.308 99.4414C128.067 100.098 127.722 100.66 127.271 101.129C126.825 101.604 126.187 101.841 125.354 101.841C125.067 101.841 124.719 101.788 124.309 101.683V100.004L124.713 100.021C125.234 100.021 125.63 99.9277 125.899 99.7402C126.175 99.5586 126.392 99.2363 126.55 98.7734L126.849 97.9648L123.509 88.4902H125.873L127.851 94.8711L129.767 88.4902H132.096ZM142.423 88.3145C143.214 88.3145 143.888 88.5137 144.444 88.9121C145.007 89.3105 145.432 89.873 145.719 90.5996C146.006 91.3262 146.149 92.1758 146.149 93.1484V93.333C146.149 94.2646 146.003 95.0967 145.71 95.8291C145.423 96.5615 145.001 97.1357 144.444 97.5518C143.888 97.9678 143.223 98.1758 142.449 98.1758C141.43 98.1758 140.604 97.833 139.971 97.1475V101.656H137.782V88.4902H139.795L139.883 89.4482C140.521 88.6924 141.368 88.3145 142.423 88.3145ZM143.961 93.1484C143.961 92.2461 143.782 91.5137 143.425 90.9512C143.073 90.3828 142.537 90.0986 141.816 90.0986C140.961 90.0986 140.346 90.4531 139.971 91.1621V95.3369C140.352 96.0576 140.973 96.418 141.834 96.418C142.549 96.418 143.082 96.1309 143.434 95.5566C143.785 94.9824 143.961 94.2412 143.961 93.333V93.1484ZM152.205 88.3145C152.328 88.3145 152.466 88.3262 152.618 88.3496C152.776 88.373 152.894 88.3994 152.97 88.4287L152.952 90.4941C152.659 90.4473 152.369 90.4238 152.082 90.4238C151.104 90.4238 150.447 90.79 150.113 91.5225V98H147.925V88.4902H150.008L150.069 89.5625C150.31 89.1641 150.608 88.8564 150.966 88.6396C151.323 88.4229 151.736 88.3145 152.205 88.3145ZM162.33 93.9307H156.134C156.175 94.417 156.301 94.8477 156.512 95.2227C156.723 95.5977 157.007 95.8906 157.364 96.1016C157.728 96.3125 158.149 96.418 158.63 96.418C159.614 96.418 160.405 96.0312 161.003 95.2578L162.172 96.3916C161.826 96.9014 161.346 97.3262 160.73 97.666C160.115 98.0059 159.371 98.1758 158.498 98.1758C157.572 98.1758 156.764 97.9766 156.072 97.5781C155.381 97.1738 154.851 96.623 154.481 95.9258C154.112 95.2285 153.928 94.4463 153.928 93.5791V93.2188C153.928 92.2402 154.115 91.3818 154.49 90.6436C154.865 89.8994 155.381 89.3252 156.037 88.9209C156.693 88.5166 157.432 88.3145 158.252 88.3145C159.148 88.3145 159.901 88.5107 160.511 88.9033C161.12 89.2959 161.574 89.8467 161.873 90.5557C162.178 91.2588 162.33 92.0762 162.33 93.0078V93.9307ZM160.168 92.1816C160.139 91.5664 159.972 91.0625 159.667 90.6699C159.362 90.2715 158.888 90.0723 158.243 90.0723C157.669 90.0723 157.206 90.2715 156.854 90.6699C156.503 91.0684 156.277 91.6279 156.178 92.3486H160.168V92.1816ZM168.597 88.3145C169.388 88.3145 170.062 88.5137 170.618 88.9121C171.181 89.3105 171.605 89.873 171.893 90.5996C172.18 91.3262 172.323 92.1758 172.323 93.1484V93.333C172.323 94.2646 172.177 95.0967 171.884 95.8291C171.597 96.5615 171.175 97.1357 170.618 97.5518C170.062 97.9678 169.396 98.1758 168.623 98.1758C167.604 98.1758 166.777 97.833 166.145 97.1475V101.656H163.956V88.4902H165.969L166.057 89.4482C166.695 88.6924 167.542 88.3145 168.597 88.3145ZM170.135 93.1484C170.135 92.2461 169.956 91.5137 169.599 90.9512C169.247 90.3828 168.711 90.0986 167.99 90.0986C167.135 90.0986 166.52 90.4531 166.145 91.1621V95.3369C166.525 96.0576 167.146 96.418 168.008 96.418C168.723 96.418 169.256 96.1309 169.607 95.5566C169.959 94.9824 170.135 94.2412 170.135 93.333V93.1484ZM181.631 95.7852C181.631 96.6523 181.751 97.3408 181.991 97.8506V98H179.759C179.665 97.7949 179.583 97.499 179.513 97.1123C179.214 97.4346 178.856 97.6924 178.44 97.8857C178.024 98.0791 177.553 98.1758 177.025 98.1758C176.404 98.1758 175.848 98.0527 175.355 97.8066C174.863 97.5605 174.479 97.2207 174.204 96.7871C173.929 96.3535 173.791 95.8672 173.791 95.3281C173.791 94.3145 174.166 93.5381 174.916 92.999C175.672 92.46 176.741 92.1904 178.124 92.1904H179.442V91.5752C179.442 91.0713 179.305 90.6787 179.029 90.3975C178.754 90.1104 178.347 89.9668 177.808 89.9668C177.485 89.9668 177.201 90.0225 176.955 90.1338C176.709 90.2451 176.519 90.3975 176.384 90.5908C176.249 90.7842 176.182 91.001 176.182 91.2412H173.993C173.993 90.7314 174.154 90.2539 174.477 89.8086C174.805 89.3574 175.268 88.9971 175.865 88.7275C176.469 88.4521 177.157 88.3145 177.931 88.3145C178.657 88.3145 179.299 88.4375 179.855 88.6836C180.412 88.9297 180.846 89.2988 181.156 89.791C181.473 90.2832 181.631 90.8838 181.631 91.5928V95.7852ZM177.447 96.4268C177.904 96.4268 178.309 96.3184 178.66 96.1016C179.018 95.8848 179.278 95.624 179.442 95.3193V93.5439H178.3C177.538 93.5439 176.961 93.6816 176.568 93.957C176.176 94.2324 175.979 94.6191 175.979 95.1172C175.979 95.5039 176.108 95.8203 176.366 96.0664C176.624 96.3066 176.984 96.4268 177.447 96.4268ZM185.076 84.8516C185.457 84.8516 185.759 84.9629 185.981 85.1855C186.204 85.4023 186.315 85.6807 186.315 86.0205C186.315 86.3545 186.204 86.6299 185.981 86.8467C185.759 87.0635 185.457 87.1719 185.076 87.1719C184.695 87.1719 184.394 87.0664 184.171 86.8555C183.948 86.6387 183.837 86.3604 183.837 86.0205C183.837 85.6807 183.948 85.4023 184.171 85.1855C184.394 84.9629 184.695 84.8516 185.076 84.8516ZM183.978 98V88.4902H186.166V98H183.978ZM196.423 84.5V98H194.445L194.34 97.0068C193.707 97.7861 192.86 98.1758 191.8 98.1758C191.05 98.1758 190.391 97.9678 189.822 97.5518C189.26 97.1357 188.826 96.5615 188.521 95.8291C188.217 95.0967 188.064 94.2705 188.064 93.3506V93.166C188.064 92.2051 188.214 91.3584 188.513 90.626C188.817 89.8936 189.251 89.3252 189.813 88.9209C190.382 88.5166 191.05 88.3145 191.817 88.3145C192.813 88.3145 193.619 88.6631 194.234 89.3604V84.5H196.423ZM192.354 96.3828C193.221 96.3828 193.848 96.002 194.234 95.2402V91.2148C193.854 90.4707 193.232 90.0986 192.371 90.0986C191.656 90.0986 191.123 90.3828 190.771 90.9512C190.426 91.5195 190.253 92.2578 190.253 93.166V93.3506C190.253 94.2529 190.423 94.9854 190.763 95.5479C191.108 96.1045 191.639 96.3828 192.354 96.3828ZM32.0674 123H29.7998V118.869L30.0195 113.183L26.293 123H24.667L20.9404 113.191L21.1689 118.869V123H18.8926V110.203H20.8262H21.8457L25.4844 119.941L29.1143 110.203H32.0674V123ZM41.9902 120.785C41.9902 121.652 42.1104 122.341 42.3506 122.851V123H40.1182C40.0244 122.795 39.9424 122.499 39.8721 122.112C39.5732 122.435 39.2158 122.692 38.7998 122.886C38.3838 123.079 37.9121 123.176 37.3848 123.176C36.7637 123.176 36.207 123.053 35.7148 122.807C35.2227 122.561 34.8389 122.221 34.5635 121.787C34.2881 121.354 34.1504 120.867 34.1504 120.328C34.1504 119.314 34.5254 118.538 35.2754 117.999C36.0312 117.46 37.1006 117.19 38.4834 117.19H39.8018V116.575C39.8018 116.071 39.6641 115.679 39.3887 115.397C39.1133 115.11 38.7061 114.967 38.167 114.967C37.8447 114.967 37.5605 115.022 37.3145 115.134C37.0684 115.245 36.8779 115.397 36.7432 115.591C36.6084 115.784 36.541 116.001 36.541 116.241H34.3525C34.3525 115.731 34.5137 115.254 34.8359 114.809C35.1641 114.357 35.627 113.997 36.2246 113.728C36.8281 113.452 37.5166 113.314 38.29 113.314C39.0166 113.314 39.6582 113.438 40.2148 113.684C40.7715 113.93 41.2051 114.299 41.5156 114.791C41.832 115.283 41.9902 115.884 41.9902 116.593V120.785ZM37.8066 121.427C38.2637 121.427 38.668 121.318 39.0195 121.102C39.377 120.885 39.6377 120.624 39.8018 120.319V118.544H38.6592C37.8975 118.544 37.3203 118.682 36.9277 118.957C36.5352 119.232 36.3389 119.619 36.3389 120.117C36.3389 120.504 36.4678 120.82 36.7256 121.066C36.9834 121.307 37.3438 121.427 37.8066 121.427ZM47.4834 119.027C46.3936 118.799 45.5527 118.462 44.9609 118.017C44.3691 117.571 44.0732 116.968 44.0732 116.206C44.0732 115.685 44.2227 115.204 44.5215 114.765C44.8262 114.319 45.2568 113.968 45.8135 113.71C46.376 113.446 47.0234 113.314 47.7559 113.314C48.5352 113.314 49.2119 113.446 49.7861 113.71C50.3662 113.974 50.8115 114.337 51.1221 114.8C51.4326 115.257 51.5879 115.772 51.5879 116.347H49.3994C49.3994 116.095 49.335 115.863 49.2061 115.652C49.083 115.436 48.8984 115.263 48.6523 115.134C48.4062 115.005 48.1074 114.94 47.7559 114.94C47.2578 114.94 46.874 115.052 46.6045 115.274C46.335 115.497 46.2002 115.775 46.2002 116.109C46.2002 116.32 46.2559 116.499 46.3672 116.646C46.4844 116.792 46.6836 116.924 46.9648 117.041C47.2461 117.158 47.6357 117.27 48.1338 117.375C48.9072 117.539 49.5488 117.738 50.0586 117.973C50.5684 118.207 50.9609 118.512 51.2363 118.887C51.5117 119.262 51.6494 119.73 51.6494 120.293C51.6494 120.85 51.4883 121.348 51.166 121.787C50.8496 122.227 50.3984 122.569 49.8125 122.815C49.2266 123.056 48.5498 123.176 47.7822 123.176C46.9502 123.176 46.2295 123.023 45.6201 122.719C45.0107 122.414 44.5479 122.019 44.2314 121.532C43.915 121.046 43.7568 120.533 43.7568 119.994H45.875C45.8984 120.527 46.0947 120.92 46.4639 121.172C46.8389 121.424 47.29 121.55 47.8174 121.55C48.3506 121.55 48.7637 121.447 49.0566 121.242C49.3555 121.031 49.5049 120.753 49.5049 120.407C49.5049 120.185 49.4521 119.994 49.3467 119.836C49.2412 119.678 49.0391 119.531 48.7402 119.396C48.4473 119.262 48.0283 119.139 47.4834 119.027ZM57.2041 121.365C57.4385 121.365 57.6875 121.336 57.9512 121.277V122.965C57.5293 123.105 57.0547 123.176 56.5273 123.176C55.7539 123.176 55.1445 122.962 54.6992 122.534C54.2539 122.106 54.0312 121.424 54.0312 120.486V115.107H52.4844V113.49H54.0312V111.17H56.2197V113.49H57.8896V115.107H56.2197V120.337C56.2197 120.735 56.3018 121.008 56.4658 121.154C56.6299 121.295 56.876 121.365 57.2041 121.365ZM67.5488 118.931H61.3525C61.3936 119.417 61.5195 119.848 61.7305 120.223C61.9414 120.598 62.2256 120.891 62.583 121.102C62.9463 121.312 63.3682 121.418 63.8486 121.418C64.833 121.418 65.624 121.031 66.2217 120.258L67.3906 121.392C67.0449 121.901 66.5645 122.326 65.9492 122.666C65.334 123.006 64.5898 123.176 63.7168 123.176C62.791 123.176 61.9824 122.977 61.291 122.578C60.5996 122.174 60.0693 121.623 59.7002 120.926C59.3311 120.229 59.1465 119.446 59.1465 118.579V118.219C59.1465 117.24 59.334 116.382 59.709 115.644C60.084 114.899 60.5996 114.325 61.2559 113.921C61.9121 113.517 62.6504 113.314 63.4707 113.314C64.3672 113.314 65.1201 113.511 65.7295 113.903C66.3389 114.296 66.793 114.847 67.0918 115.556C67.3965 116.259 67.5488 117.076 67.5488 118.008V118.931ZM65.3867 117.182C65.3574 116.566 65.1904 116.062 64.8857 115.67C64.5811 115.271 64.1064 115.072 63.4619 115.072C62.8877 115.072 62.4248 115.271 62.0732 115.67C61.7217 116.068 61.4961 116.628 61.3965 117.349H65.3867V117.182ZM73.4551 113.314C73.5781 113.314 73.7158 113.326 73.8682 113.35C74.0264 113.373 74.1436 113.399 74.2197 113.429L74.2021 115.494C73.9092 115.447 73.6191 115.424 73.332 115.424C72.3535 115.424 71.6973 115.79 71.3633 116.522V123H69.1748V113.49H71.2578L71.3193 114.562C71.5596 114.164 71.8584 113.856 72.2158 113.64C72.5732 113.423 72.9863 113.314 73.4551 113.314ZM83.2637 119.836C83.2461 120.445 83.0615 121.005 82.71 121.515C82.3584 122.024 81.8896 122.429 81.3037 122.728C80.7178 123.026 80.0762 123.176 79.3789 123.176C78.4355 123.176 77.6357 122.965 76.9795 122.543C76.3291 122.121 75.8428 121.55 75.5205 120.829C75.1982 120.103 75.0371 119.291 75.0371 118.395V118.096C75.0371 117.199 75.1982 116.391 75.5205 115.67C75.8486 114.943 76.3379 114.369 76.9883 113.947C77.6387 113.525 78.4326 113.314 79.3701 113.314C80.126 113.314 80.7939 113.467 81.374 113.771C81.96 114.07 82.417 114.492 82.7451 115.037C83.0732 115.582 83.2461 116.206 83.2637 116.909H81.1982C81.1807 116.569 81.0957 116.262 80.9434 115.986C80.791 115.705 80.5771 115.482 80.3018 115.318C80.0322 115.154 79.7129 115.072 79.3438 115.072C78.5645 115.072 78.0166 115.356 77.7002 115.925C77.3838 116.493 77.2256 117.217 77.2256 118.096V118.395C77.2256 120.41 77.9346 121.418 79.3525 121.418C79.6865 121.418 79.9912 121.351 80.2666 121.216C80.542 121.081 80.7617 120.894 80.9258 120.653C81.0898 120.413 81.1807 120.141 81.1982 119.836H83.2637ZM92.3867 120.785C92.3867 121.652 92.5068 122.341 92.7471 122.851V123H90.5146C90.4209 122.795 90.3389 122.499 90.2686 122.112C89.9697 122.435 89.6123 122.692 89.1963 122.886C88.7803 123.079 88.3086 123.176 87.7812 123.176C87.1602 123.176 86.6035 123.053 86.1113 122.807C85.6191 122.561 85.2354 122.221 84.96 121.787C84.6846 121.354 84.5469 120.867 84.5469 120.328C84.5469 119.314 84.9219 118.538 85.6719 117.999C86.4277 117.46 87.4971 117.19 88.8799 117.19H90.1982V116.575C90.1982 116.071 90.0605 115.679 89.7852 115.397C89.5098 115.11 89.1025 114.967 88.5635 114.967C88.2412 114.967 87.957 115.022 87.7109 115.134C87.4648 115.245 87.2744 115.397 87.1396 115.591C87.0049 115.784 86.9375 116.001 86.9375 116.241H84.749C84.749 115.731 84.9102 115.254 85.2324 114.809C85.5605 114.357 86.0234 113.997 86.6211 113.728C87.2246 113.452 87.9131 113.314 88.6865 113.314C89.4131 113.314 90.0547 113.438 90.6113 113.684C91.168 113.93 91.6016 114.299 91.9121 114.791C92.2285 115.283 92.3867 115.884 92.3867 116.593V120.785ZM88.2031 121.427C88.6602 121.427 89.0645 121.318 89.416 121.102C89.7734 120.885 90.0342 120.624 90.1982 120.319V118.544H89.0557C88.2939 118.544 87.7168 118.682 87.3242 118.957C86.9316 119.232 86.7354 119.619 86.7354 120.117C86.7354 120.504 86.8643 120.82 87.1221 121.066C87.3799 121.307 87.7402 121.427 88.2031 121.427ZM98.873 113.314C98.9961 113.314 99.1338 113.326 99.2861 113.35C99.4443 113.373 99.5615 113.399 99.6377 113.429L99.6201 115.494C99.3271 115.447 99.0371 115.424 98.75 115.424C97.7715 115.424 97.1152 115.79 96.7812 116.522V123H94.5928V113.49H96.6758L96.7373 114.562C96.9775 114.164 97.2764 113.856 97.6338 113.64C97.9912 113.423 98.4043 113.314 98.873 113.314ZM108.919 109.5V123H106.941L106.836 122.007C106.203 122.786 105.356 123.176 104.296 123.176C103.546 123.176 102.887 122.968 102.318 122.552C101.756 122.136 101.322 121.562 101.018 120.829C100.713 120.097 100.561 119.271 100.561 118.351V118.166C100.561 117.205 100.71 116.358 101.009 115.626C101.313 114.894 101.747 114.325 102.31 113.921C102.878 113.517 103.546 113.314 104.313 113.314C105.31 113.314 106.115 113.663 106.73 114.36V109.5H108.919ZM104.85 121.383C105.717 121.383 106.344 121.002 106.73 120.24V116.215C106.35 115.471 105.729 115.099 104.867 115.099C104.152 115.099 103.619 115.383 103.268 115.951C102.922 116.52 102.749 117.258 102.749 118.166V118.351C102.749 119.253 102.919 119.985 103.259 120.548C103.604 121.104 104.135 121.383 104.85 121.383ZM117.058 110.027C118.188 110.027 119.231 110.317 120.187 110.897C121.142 111.472 121.897 112.263 122.454 113.271C123.017 114.272 123.298 115.38 123.298 116.593C123.298 117.812 123.017 118.925 122.454 119.933C121.897 120.935 121.142 121.729 120.187 122.314C119.231 122.895 118.188 123.185 117.058 123.185C115.921 123.185 114.875 122.895 113.92 122.314C112.971 121.729 112.215 120.935 111.652 119.933C111.096 118.925 110.817 117.812 110.817 116.593C110.817 115.374 111.096 114.264 111.652 113.262C112.215 112.26 112.971 111.472 113.92 110.897C114.875 110.317 115.921 110.027 117.058 110.027ZM117.058 122.086C117.995 122.086 118.856 121.846 119.642 121.365C120.433 120.879 121.06 120.217 121.522 119.379C121.985 118.535 122.217 117.606 122.217 116.593C122.217 115.579 121.985 114.656 121.522 113.824C121.06 112.986 120.433 112.327 119.642 111.847C118.856 111.366 117.995 111.126 117.058 111.126C116.114 111.126 115.247 111.366 114.456 111.847C113.671 112.327 113.047 112.986 112.584 113.824C112.121 114.656 111.89 115.579 111.89 116.593C111.89 117.606 112.121 118.535 112.584 119.379C113.047 120.217 113.674 120.879 114.465 121.365C115.256 121.846 116.12 122.086 117.058 122.086ZM119.765 118.966C119.765 119.481 119.814 119.854 119.914 120.082V120.223H118.552C118.476 120.023 118.438 119.602 118.438 118.957V118.482C118.438 118.061 118.341 117.753 118.147 117.56C117.954 117.36 117.632 117.261 117.181 117.261H115.792V120.223H114.465V112.752H116.935C117.825 112.752 118.522 112.948 119.026 113.341C119.536 113.728 119.791 114.293 119.791 115.037C119.791 115.717 119.445 116.241 118.754 116.61C119.428 116.927 119.765 117.548 119.765 118.474V118.966ZM117.049 116.083C117.453 116.077 117.79 115.986 118.06 115.811C118.335 115.629 118.473 115.38 118.473 115.063C118.473 114.776 118.423 114.551 118.323 114.387C118.229 114.223 118.071 114.105 117.849 114.035C117.626 113.959 117.321 113.921 116.935 113.921H115.792V116.083H117.049Z" fill="#434D5A"/>
</g>
</svg>
