<svg width="216" height="251" viewBox="0 0 216 251" fill="none" xmlns="http://www.w3.org/2000/svg">
<rect x="0.390625" y="0.00585938" width="215" height="250" rx="21" fill="#F5F7F8"/>
<path d="M29.083 93.8164C29.0068 94.6719 28.7666 95.4277 28.3623 96.084C27.9639 96.7402 27.4014 97.2529 26.6748 97.6221C25.9482 97.9912 25.0752 98.1758 24.0557 98.1758C23.0068 98.1758 22.0928 97.9297 21.3135 97.4375C20.5342 96.9395 19.9336 96.2334 19.5117 95.3193C19.0898 94.4053 18.8789 93.3359 18.8789 92.1113V91.1006C18.8789 89.876 19.0928 88.8066 19.5205 87.8926C19.9541 86.9785 20.5664 86.2725 21.3574 85.7744C22.1543 85.2764 23.083 85.0273 24.1436 85.0273C25.1455 85.0273 26.001 85.2148 26.71 85.5898C27.4189 85.959 27.9697 86.4775 28.3623 87.1455C28.7607 87.8076 29.0039 88.5752 29.0918 89.4482H26.8242C26.7246 88.5928 26.4697 87.9512 26.0596 87.5234C25.6553 87.0898 25.0166 86.873 24.1436 86.873C23.165 86.873 22.4238 87.2363 21.9199 87.9629C21.4219 88.6836 21.1729 89.7236 21.1729 91.083V92.1113C21.1729 93.4473 21.4043 94.4844 21.8672 95.2227C22.3359 95.9609 23.0654 96.3301 24.0557 96.3301C24.665 96.3301 25.1602 96.2363 25.541 96.0488C25.9277 95.8555 26.2178 95.5771 26.4111 95.2139C26.6104 94.8447 26.7451 94.3789 26.8154 93.8164H29.083ZM35.1211 88.3145C35.2441 88.3145 35.3818 88.3262 35.5342 88.3496C35.6924 88.373 35.8096 88.3994 35.8857 88.4287L35.8682 90.4941C35.5752 90.4473 35.2852 90.4238 34.998 90.4238C34.0195 90.4238 33.3633 90.79 33.0293 91.5225V98H30.8408V88.4902H32.9238L32.9854 89.5625C33.2256 89.1641 33.5244 88.8564 33.8818 88.6396C34.2393 88.4229 34.6523 88.3145 35.1211 88.3145ZM45.2461 93.9307H39.0498C39.0908 94.417 39.2168 94.8477 39.4277 95.2227C39.6387 95.5977 39.9229 95.8906 40.2803 96.1016C40.6436 96.3125 41.0654 96.418 41.5459 96.418C42.5303 96.418 43.3213 96.0312 43.9189 95.2578L45.0879 96.3916C44.7422 96.9014 44.2617 97.3262 43.6465 97.666C43.0312 98.0059 42.2871 98.1758 41.4141 98.1758C40.4883 98.1758 39.6797 97.9766 38.9883 97.5781C38.2969 97.1738 37.7666 96.623 37.3975 95.9258C37.0283 95.2285 36.8438 94.4463 36.8438 93.5791V93.2188C36.8438 92.2402 37.0312 91.3818 37.4062 90.6436C37.7812 89.8994 38.2969 89.3252 38.9531 88.9209C39.6094 88.5166 40.3477 88.3145 41.168 88.3145C42.0645 88.3145 42.8174 88.5107 43.4268 88.9033C44.0361 89.2959 44.4902 89.8467 44.7891 90.5557C45.0938 91.2588 45.2461 92.0762 45.2461 93.0078V93.9307ZM43.084 92.1816C43.0547 91.5664 42.8877 91.0625 42.583 90.6699C42.2783 90.2715 41.8037 90.0723 41.1592 90.0723C40.585 90.0723 40.1221 90.2715 39.7705 90.6699C39.4189 91.0684 39.1934 91.6279 39.0938 92.3486H43.084V92.1816ZM54.4043 95.7852C54.4043 96.6523 54.5244 97.3408 54.7646 97.8506V98H52.5322C52.4385 97.7949 52.3564 97.499 52.2861 97.1123C51.9873 97.4346 51.6299 97.6924 51.2139 97.8857C50.7979 98.0791 50.3262 98.1758 49.7988 98.1758C49.1777 98.1758 48.6211 98.0527 48.1289 97.8066C47.6367 97.5605 47.2529 97.2207 46.9775 96.7871C46.7021 96.3535 46.5645 95.8672 46.5645 95.3281C46.5645 94.3145 46.9395 93.5381 47.6895 92.999C48.4453 92.46 49.5146 92.1904 50.8975 92.1904H52.2158V91.5752C52.2158 91.0713 52.0781 90.6787 51.8027 90.3975C51.5273 90.1104 51.1201 89.9668 50.5811 89.9668C50.2588 89.9668 49.9746 90.0225 49.7285 90.1338C49.4824 90.2451 49.292 90.3975 49.1572 90.5908C49.0225 90.7842 48.9551 91.001 48.9551 91.2412H46.7666C46.7666 90.7314 46.9277 90.2539 47.25 89.8086C47.5781 89.3574 48.041 88.9971 48.6387 88.7275C49.2422 88.4521 49.9307 88.3145 50.7041 88.3145C51.4307 88.3145 52.0723 88.4375 52.6289 88.6836C53.1855 88.9297 53.6191 89.2988 53.9297 89.791C54.2461 90.2832 54.4043 90.8838 54.4043 91.5928V95.7852ZM50.2207 96.4268C50.6777 96.4268 51.082 96.3184 51.4336 96.1016C51.791 95.8848 52.0518 95.624 52.2158 95.3193V93.5439H51.0732C50.3115 93.5439 49.7344 93.6816 49.3418 93.957C48.9492 94.2324 48.7529 94.6191 48.7529 95.1172C48.7529 95.5039 48.8818 95.8203 49.1396 96.0664C49.3975 96.3066 49.7578 96.4268 50.2207 96.4268ZM60.3193 96.3652C60.5537 96.3652 60.8027 96.3359 61.0664 96.2773V97.9648C60.6445 98.1055 60.1699 98.1758 59.6426 98.1758C58.8691 98.1758 58.2598 97.9619 57.8145 97.5342C57.3691 97.1064 57.1465 96.4238 57.1465 95.4863V90.1074H55.5996V88.4902H57.1465V86.1699H59.335V88.4902H61.0049V90.1074H59.335V95.3369C59.335 95.7354 59.417 96.0078 59.5811 96.1543C59.7451 96.2949 59.9912 96.3652 60.3193 96.3652ZM70.6641 93.9307H64.4678C64.5088 94.417 64.6348 94.8477 64.8457 95.2227C65.0566 95.5977 65.3408 95.8906 65.6982 96.1016C66.0615 96.3125 66.4834 96.418 66.9639 96.418C67.9482 96.418 68.7393 96.0312 69.3369 95.2578L70.5059 96.3916C70.1602 96.9014 69.6797 97.3262 69.0645 97.666C68.4492 98.0059 67.7051 98.1758 66.832 98.1758C65.9062 98.1758 65.0977 97.9766 64.4062 97.5781C63.7148 97.1738 63.1846 96.623 62.8154 95.9258C62.4463 95.2285 62.2617 94.4463 62.2617 93.5791V93.2188C62.2617 92.2402 62.4492 91.3818 62.8242 90.6436C63.1992 89.8994 63.7148 89.3252 64.3711 88.9209C65.0273 88.5166 65.7656 88.3145 66.5859 88.3145C67.4824 88.3145 68.2354 88.5107 68.8447 88.9033C69.4541 89.2959 69.9082 89.8467 70.207 90.5557C70.5117 91.2588 70.6641 92.0762 70.6641 93.0078V93.9307ZM68.502 92.1816C68.4727 91.5664 68.3057 91.0625 68.001 90.6699C67.6963 90.2715 67.2217 90.0723 66.5771 90.0723C66.0029 90.0723 65.54 90.2715 65.1885 90.6699C64.8369 91.0684 64.6113 91.6279 64.5117 92.3486H68.502V92.1816ZM74.3115 97.4639C74.3115 98.0732 74.1592 98.6973 73.8545 99.3359C73.5498 99.9805 73.1455 100.511 72.6416 100.927L71.4727 100.25C71.7656 99.7695 71.9883 99.3271 72.1406 98.9229C72.293 98.5186 72.3691 98.0586 72.3691 97.543V95.917H74.3203L74.3115 97.4639ZM82.0371 84.8516C82.418 84.8516 82.7197 84.9629 82.9424 85.1855C83.165 85.4023 83.2764 85.6807 83.2764 86.0205C83.2764 86.3545 83.165 86.6299 82.9424 86.8467C82.7197 87.0635 82.418 87.1719 82.0371 87.1719C81.6562 87.1719 81.3545 87.0664 81.1318 86.8555C80.9092 86.6387 80.7979 86.3604 80.7979 86.0205C80.7979 85.6807 80.9092 85.4023 81.1318 85.1855C81.3545 84.9629 81.6562 84.8516 82.0371 84.8516ZM80.9385 98V88.4902H83.127V98H80.9385ZM95.8008 88.3145C96.8086 88.3145 97.5791 88.5986 98.1123 89.167C98.6455 89.7295 98.9121 90.623 98.9121 91.8477V98H96.7236V91.8389C96.7236 91.1885 96.583 90.7373 96.3018 90.4854C96.0264 90.2275 95.6104 90.0986 95.0537 90.0986C94.5967 90.0986 94.2129 90.2217 93.9023 90.4678C93.5977 90.7139 93.3809 91.0449 93.252 91.4609L93.2607 91.6631V98H91.0723V91.8652C91.0723 91.2266 90.9287 90.7725 90.6416 90.5029C90.3604 90.2334 89.9443 90.0986 89.3936 90.0986C88.5557 90.0986 87.9609 90.4414 87.6094 91.127V98H85.4209V88.4902H87.4775L87.5479 89.4922C87.8701 89.1113 88.2598 88.8213 88.7168 88.6221C89.1797 88.417 89.7041 88.3145 90.29 88.3145C90.8877 88.3145 91.4092 88.4346 91.8545 88.6748C92.2998 88.9092 92.6426 89.2725 92.8828 89.7646C93.2051 89.3076 93.6123 88.9531 94.1045 88.7012C94.5967 88.4434 95.1621 88.3145 95.8008 88.3145ZM105.724 88.3145C106.515 88.3145 107.188 88.5137 107.745 88.9121C108.308 89.3105 108.732 89.873 109.02 90.5996C109.307 91.3262 109.45 92.1758 109.45 93.1484V93.333C109.45 94.2646 109.304 95.0967 109.011 95.8291C108.724 96.5615 108.302 97.1357 107.745 97.5518C107.188 97.9678 106.523 98.1758 105.75 98.1758C104.73 98.1758 103.904 97.833 103.271 97.1475V101.656H101.083V88.4902H103.096L103.184 89.4482C103.822 88.6924 104.669 88.3145 105.724 88.3145ZM107.262 93.1484C107.262 92.2461 107.083 91.5137 106.726 90.9512C106.374 90.3828 105.838 90.0986 105.117 90.0986C104.262 90.0986 103.646 90.4531 103.271 91.1621V95.3369C103.652 96.0576 104.273 96.418 105.135 96.418C105.85 96.418 106.383 96.1309 106.734 95.5566C107.086 94.9824 107.262 94.2412 107.262 93.333V93.1484ZM110.83 93.1572C110.83 92.2314 111.006 91.4023 111.357 90.6699C111.715 89.9375 112.228 89.3633 112.896 88.9473C113.563 88.5254 114.349 88.3145 115.251 88.3145C116.165 88.3145 116.956 88.5254 117.624 88.9473C118.298 89.3633 118.811 89.9375 119.162 90.6699C119.52 91.4023 119.698 92.2314 119.698 93.1572V93.3418C119.698 94.2676 119.52 95.0967 119.162 95.8291C118.811 96.5615 118.301 97.1357 117.633 97.5518C116.965 97.9678 116.177 98.1758 115.269 98.1758C114.36 98.1758 113.569 97.9678 112.896 97.5518C112.228 97.1357 111.715 96.5615 111.357 95.8291C111.006 95.0967 110.83 94.2676 110.83 93.3418V93.1572ZM113.019 93.3418C113.019 94.2441 113.206 94.9824 113.581 95.5566C113.956 96.1309 114.519 96.418 115.269 96.418C115.767 96.418 116.183 96.2832 116.517 96.0137C116.856 95.7383 117.105 95.3691 117.264 94.9062C117.428 94.4434 117.51 93.9219 117.51 93.3418V93.1572C117.51 92.583 117.428 92.0645 117.264 91.6016C117.105 91.1328 116.856 90.7607 116.517 90.4854C116.177 90.21 115.755 90.0723 115.251 90.0723C114.753 90.0723 114.337 90.21 114.003 90.4854C113.669 90.7607 113.42 91.1328 113.256 91.6016C113.098 92.0645 113.019 92.583 113.019 93.1572V93.3418ZM125.754 88.3145C125.877 88.3145 126.015 88.3262 126.167 88.3496C126.325 88.373 126.442 88.3994 126.519 88.4287L126.501 90.4941C126.208 90.4473 125.918 90.4238 125.631 90.4238C124.652 90.4238 123.996 90.79 123.662 91.5225V98H121.474V88.4902H123.557L123.618 89.5625C123.858 89.1641 124.157 88.8564 124.515 88.6396C124.872 88.4229 125.285 88.3145 125.754 88.3145ZM131.985 96.3652C132.22 96.3652 132.469 96.3359 132.732 96.2773V97.9648C132.311 98.1055 131.836 98.1758 131.309 98.1758C130.535 98.1758 129.926 97.9619 129.48 97.5342C129.035 97.1064 128.812 96.4238 128.812 95.4863V90.1074H127.266V88.4902H128.812V86.1699H131.001V88.4902H132.671V90.1074H131.001V95.3369C131.001 95.7354 131.083 96.0078 131.247 96.1543C131.411 96.2949 131.657 96.3652 131.985 96.3652ZM138.375 93.1572C138.375 92.2314 138.551 91.4023 138.902 90.6699C139.26 89.9375 139.772 89.3633 140.44 88.9473C141.108 88.5254 141.894 88.3145 142.796 88.3145C143.71 88.3145 144.501 88.5254 145.169 88.9473C145.843 89.3633 146.355 89.9375 146.707 90.6699C147.064 91.4023 147.243 92.2314 147.243 93.1572V93.3418C147.243 94.2676 147.064 95.0967 146.707 95.8291C146.355 96.5615 145.846 97.1357 145.178 97.5518C144.51 97.9678 143.722 98.1758 142.813 98.1758C141.905 98.1758 141.114 97.9678 140.44 97.5518C139.772 97.1357 139.26 96.5615 138.902 95.8291C138.551 95.0967 138.375 94.2676 138.375 93.3418V93.1572ZM140.563 93.3418C140.563 94.2441 140.751 94.9824 141.126 95.5566C141.501 96.1309 142.063 96.418 142.813 96.418C143.312 96.418 143.728 96.2832 144.062 96.0137C144.401 95.7383 144.65 95.3691 144.809 94.9062C144.973 94.4434 145.055 93.9219 145.055 93.3418V93.1572C145.055 92.583 144.973 92.0645 144.809 91.6016C144.65 91.1328 144.401 90.7607 144.062 90.4854C143.722 90.21 143.3 90.0723 142.796 90.0723C142.298 90.0723 141.882 90.21 141.548 90.4854C141.214 90.7607 140.965 91.1328 140.801 91.6016C140.643 92.0645 140.563 92.583 140.563 93.1572V93.3418ZM153.299 88.3145C153.422 88.3145 153.56 88.3262 153.712 88.3496C153.87 88.373 153.987 88.3994 154.063 88.4287L154.046 90.4941C153.753 90.4473 153.463 90.4238 153.176 90.4238C152.197 90.4238 151.541 90.79 151.207 91.5225V98H149.019V88.4902H151.102L151.163 89.5625C151.403 89.1641 151.702 88.8564 152.06 88.6396C152.417 88.4229 152.83 88.3145 153.299 88.3145ZM161.016 84.8516C161.396 84.8516 161.698 84.9629 161.921 85.1855C162.144 85.4023 162.255 85.6807 162.255 86.0205C162.255 86.3545 162.144 86.6299 161.921 86.8467C161.698 87.0635 161.396 87.1719 161.016 87.1719C160.635 87.1719 160.333 87.0664 160.11 86.8555C159.888 86.6387 159.776 86.3604 159.776 86.0205C159.776 85.6807 159.888 85.4023 160.11 85.1855C160.333 84.9629 160.635 84.8516 161.016 84.8516ZM162.149 98.7998C162.149 99.7842 161.9 100.537 161.402 101.059C160.91 101.58 160.192 101.841 159.249 101.841C158.845 101.841 158.461 101.791 158.098 101.691V99.9688C158.367 100.016 158.625 100.039 158.871 100.039C159.234 100.039 159.507 99.9395 159.688 99.7402C159.87 99.5469 159.961 99.2334 159.961 98.7998V88.4902H162.149V98.7998ZM164.004 93.1572C164.004 92.2314 164.18 91.4023 164.531 90.6699C164.889 89.9375 165.401 89.3633 166.069 88.9473C166.737 88.5254 167.522 88.3145 168.425 88.3145C169.339 88.3145 170.13 88.5254 170.798 88.9473C171.472 89.3633 171.984 89.9375 172.336 90.6699C172.693 91.4023 172.872 92.2314 172.872 93.1572V93.3418C172.872 94.2676 172.693 95.0967 172.336 95.8291C171.984 96.5615 171.475 97.1357 170.807 97.5518C170.139 97.9678 169.351 98.1758 168.442 98.1758C167.534 98.1758 166.743 97.9678 166.069 97.5518C165.401 97.1357 164.889 96.5615 164.531 95.8291C164.18 95.0967 164.004 94.2676 164.004 93.3418V93.1572ZM166.192 93.3418C166.192 94.2441 166.38 94.9824 166.755 95.5566C167.13 96.1309 167.692 96.418 168.442 96.418C168.94 96.418 169.356 96.2832 169.69 96.0137C170.03 95.7383 170.279 95.3691 170.438 94.9062C170.602 94.4434 170.684 93.9219 170.684 93.3418V93.1572C170.684 92.583 170.602 92.0645 170.438 91.6016C170.279 91.1328 170.03 90.7607 169.69 90.4854C169.351 90.21 168.929 90.0723 168.425 90.0723C167.927 90.0723 167.511 90.21 167.177 90.4854C166.843 90.7607 166.594 91.1328 166.43 91.6016C166.271 92.0645 166.192 92.583 166.192 93.1572V93.3418ZM175.887 84.8516C176.268 84.8516 176.569 84.9629 176.792 85.1855C177.015 85.4023 177.126 85.6807 177.126 86.0205C177.126 86.3545 177.015 86.6299 176.792 86.8467C176.569 87.0635 176.268 87.1719 175.887 87.1719C175.506 87.1719 175.204 87.0664 174.981 86.8555C174.759 86.6387 174.647 86.3604 174.647 86.0205C174.647 85.6807 174.759 85.4023 174.981 85.1855C175.204 84.9629 175.506 84.8516 175.887 84.8516ZM174.788 98V88.4902H176.977V98H174.788ZM184.131 88.3145C185.098 88.3145 185.842 88.5957 186.363 89.1582C186.891 89.7148 187.154 90.6172 187.154 91.8652V98H184.966V91.8477C184.966 91.2148 184.828 90.7666 184.553 90.5029C184.283 90.2334 183.867 90.0986 183.305 90.0986C182.895 90.0986 182.528 90.1982 182.206 90.3975C181.884 90.5967 181.626 90.875 181.433 91.2324V98H179.244V88.4902H181.301L181.371 89.5889C181.711 89.1787 182.115 88.8652 182.584 88.6484C183.053 88.4258 183.568 88.3145 184.131 88.3145ZM26.6133 120.785C26.6133 121.652 26.7334 122.341 26.9736 122.851V123H24.7412C24.6475 122.795 24.5654 122.499 24.4951 122.112C24.1963 122.435 23.8389 122.692 23.4229 122.886C23.0068 123.079 22.5352 123.176 22.0078 123.176C21.3867 123.176 20.8301 123.053 20.3379 122.807C19.8457 122.561 19.4619 122.221 19.1865 121.787C18.9111 121.354 18.7734 120.867 18.7734 120.328C18.7734 119.314 19.1484 118.538 19.8984 117.999C20.6543 117.46 21.7236 117.19 23.1064 117.19H24.4248V116.575C24.4248 116.071 24.2871 115.679 24.0117 115.397C23.7363 115.11 23.3291 114.967 22.79 114.967C22.4678 114.967 22.1836 115.022 21.9375 115.134C21.6914 115.245 21.501 115.397 21.3662 115.591C21.2314 115.784 21.1641 116.001 21.1641 116.241H18.9756C18.9756 115.731 19.1367 115.254 19.459 114.809C19.7871 114.357 20.25 113.997 20.8477 113.728C21.4512 113.452 22.1396 113.314 22.9131 113.314C23.6396 113.314 24.2812 113.438 24.8379 113.684C25.3945 113.93 25.8281 114.299 26.1387 114.791C26.4551 115.283 26.6133 115.884 26.6133 116.593V120.785ZM22.4297 121.427C22.8867 121.427 23.291 121.318 23.6426 121.102C24 120.885 24.2607 120.624 24.4248 120.319V118.544H23.2822C22.5205 118.544 21.9434 118.682 21.5508 118.957C21.1582 119.232 20.9619 119.619 20.9619 120.117C20.9619 120.504 21.0908 120.82 21.3486 121.066C21.6064 121.307 21.9668 121.427 22.4297 121.427ZM36.5889 119.027C35.499 118.799 34.6582 118.462 34.0664 118.017C33.4746 117.571 33.1787 116.968 33.1787 116.206C33.1787 115.685 33.3281 115.204 33.627 114.765C33.9316 114.319 34.3623 113.968 34.9189 113.71C35.4814 113.446 36.1289 113.314 36.8613 113.314C37.6406 113.314 38.3174 113.446 38.8916 113.71C39.4717 113.974 39.917 114.337 40.2275 114.8C40.5381 115.257 40.6934 115.772 40.6934 116.347H38.5049C38.5049 116.095 38.4404 115.863 38.3115 115.652C38.1885 115.436 38.0039 115.263 37.7578 115.134C37.5117 115.005 37.2129 114.94 36.8613 114.94C36.3633 114.94 35.9795 115.052 35.71 115.274C35.4404 115.497 35.3057 115.775 35.3057 116.109C35.3057 116.32 35.3613 116.499 35.4727 116.646C35.5898 116.792 35.7891 116.924 36.0703 117.041C36.3516 117.158 36.7412 117.27 37.2393 117.375C38.0127 117.539 38.6543 117.738 39.1641 117.973C39.6738 118.207 40.0664 118.512 40.3418 118.887C40.6172 119.262 40.7549 119.73 40.7549 120.293C40.7549 120.85 40.5938 121.348 40.2715 121.787C39.9551 122.227 39.5039 122.569 38.918 122.815C38.332 123.056 37.6553 123.176 36.8877 123.176C36.0557 123.176 35.335 123.023 34.7256 122.719C34.1162 122.414 33.6533 122.019 33.3369 121.532C33.0205 121.046 32.8623 120.533 32.8623 119.994H34.9805C35.0039 120.527 35.2002 120.92 35.5693 121.172C35.9443 121.424 36.3955 121.55 36.9229 121.55C37.4561 121.55 37.8691 121.447 38.1621 121.242C38.4609 121.031 38.6104 120.753 38.6104 120.407C38.6104 120.185 38.5576 119.994 38.4521 119.836C38.3467 119.678 38.1445 119.531 37.8457 119.396C37.5527 119.262 37.1338 119.139 36.5889 119.027ZM47.3818 113.314C49.4502 113.314 50.4844 114.507 50.4844 116.892V123H48.2959V116.874C48.2959 116.235 48.1582 115.781 47.8828 115.512C47.6133 115.236 47.1973 115.099 46.6348 115.099C46.2129 115.099 45.8408 115.195 45.5186 115.389C45.2021 115.582 44.9473 115.852 44.7539 116.197V123H42.5654V109.5H44.7539V114.527C45.082 114.141 45.4688 113.842 45.9141 113.631C46.3652 113.42 46.8545 113.314 47.3818 113.314ZM60.1523 120.785C60.1523 121.652 60.2725 122.341 60.5127 122.851V123H58.2803C58.1865 122.795 58.1045 122.499 58.0342 122.112C57.7354 122.435 57.3779 122.692 56.9619 122.886C56.5459 123.079 56.0742 123.176 55.5469 123.176C54.9258 123.176 54.3691 123.053 53.877 122.807C53.3848 122.561 53.001 122.221 52.7256 121.787C52.4502 121.354 52.3125 120.867 52.3125 120.328C52.3125 119.314 52.6875 118.538 53.4375 117.999C54.1934 117.46 55.2627 117.19 56.6455 117.19H57.9639V116.575C57.9639 116.071 57.8262 115.679 57.5508 115.397C57.2754 115.11 56.8682 114.967 56.3291 114.967C56.0068 114.967 55.7227 115.022 55.4766 115.134C55.2305 115.245 55.04 115.397 54.9053 115.591C54.7705 115.784 54.7031 116.001 54.7031 116.241H52.5146C52.5146 115.731 52.6758 115.254 52.998 114.809C53.3262 114.357 53.7891 113.997 54.3867 113.728C54.9902 113.452 55.6787 113.314 56.4521 113.314C57.1787 113.314 57.8203 113.438 58.377 113.684C58.9336 113.93 59.3672 114.299 59.6777 114.791C59.9941 115.283 60.1523 115.884 60.1523 116.593V120.785ZM55.9688 121.427C56.4258 121.427 56.8301 121.318 57.1816 121.102C57.5391 120.885 57.7998 120.624 57.9639 120.319V118.544H56.8213C56.0596 118.544 55.4824 118.682 55.0898 118.957C54.6973 119.232 54.501 119.619 54.501 120.117C54.501 120.504 54.6299 120.82 54.8877 121.066C55.1455 121.307 55.5059 121.427 55.9688 121.427ZM66.6387 113.314C66.7617 113.314 66.8994 113.326 67.0518 113.35C67.21 113.373 67.3271 113.399 67.4033 113.429L67.3857 115.494C67.0928 115.447 66.8027 115.424 66.5156 115.424C65.5371 115.424 64.8809 115.79 64.5469 116.522V123H62.3584V113.49H64.4414L64.5029 114.562C64.7432 114.164 65.042 113.856 65.3994 113.64C65.7568 113.423 66.1699 113.314 66.6387 113.314ZM76.7637 118.931H70.5674C70.6084 119.417 70.7344 119.848 70.9453 120.223C71.1562 120.598 71.4404 120.891 71.7979 121.102C72.1611 121.312 72.583 121.418 73.0635 121.418C74.0479 121.418 74.8389 121.031 75.4365 120.258L76.6055 121.392C76.2598 121.901 75.7793 122.326 75.1641 122.666C74.5488 123.006 73.8047 123.176 72.9316 123.176C72.0059 123.176 71.1973 122.977 70.5059 122.578C69.8145 122.174 69.2842 121.623 68.915 120.926C68.5459 120.229 68.3613 119.446 68.3613 118.579V118.219C68.3613 117.24 68.5488 116.382 68.9238 115.644C69.2988 114.899 69.8145 114.325 70.4707 113.921C71.127 113.517 71.8652 113.314 72.6855 113.314C73.582 113.314 74.335 113.511 74.9443 113.903C75.5537 114.296 76.0078 114.847 76.3066 115.556C76.6113 116.259 76.7637 117.076 76.7637 118.008V118.931ZM74.6016 117.182C74.5723 116.566 74.4053 116.062 74.1006 115.67C73.7959 115.271 73.3213 115.072 72.6768 115.072C72.1025 115.072 71.6396 115.271 71.2881 115.67C70.9365 116.068 70.7109 116.628 70.6113 117.349H74.6016V117.182ZM86.3525 109.5V123H84.375L84.2695 122.007C83.6367 122.786 82.79 123.176 81.7295 123.176C80.9795 123.176 80.3203 122.968 79.752 122.552C79.1895 122.136 78.7559 121.562 78.4512 120.829C78.1465 120.097 77.9941 119.271 77.9941 118.351V118.166C77.9941 117.205 78.1436 116.358 78.4424 115.626C78.7471 114.894 79.1807 114.325 79.7432 113.921C80.3115 113.517 80.9795 113.314 81.7471 113.314C82.7432 113.314 83.5488 113.663 84.1641 114.36V109.5H86.3525ZM82.2832 121.383C83.1504 121.383 83.7773 121.002 84.1641 120.24V116.215C83.7832 115.471 83.1621 115.099 82.3008 115.099C81.5859 115.099 81.0527 115.383 80.7012 115.951C80.3555 116.52 80.1826 117.258 80.1826 118.166V118.351C80.1826 119.253 80.3525 119.985 80.6924 120.548C81.0381 121.104 81.5684 121.383 82.2832 121.383ZM105.003 113.49L102.428 123H101.039H100.626L98.6133 116.549L96.6357 123H95.3965H94.834L92.2588 113.49H94.3857L95.8887 119.915L97.8135 113.49H99.2109H99.4482L101.391 119.994L102.876 113.49H105.003ZM113.941 120.785C113.941 121.652 114.062 122.341 114.302 122.851V123H112.069C111.976 122.795 111.894 122.499 111.823 122.112C111.524 122.435 111.167 122.692 110.751 122.886C110.335 123.079 109.863 123.176 109.336 123.176C108.715 123.176 108.158 123.053 107.666 122.807C107.174 122.561 106.79 122.221 106.515 121.787C106.239 121.354 106.102 120.867 106.102 120.328C106.102 119.314 106.477 118.538 107.227 117.999C107.982 117.46 109.052 117.19 110.435 117.19H111.753V116.575C111.753 116.071 111.615 115.679 111.34 115.397C111.064 115.11 110.657 114.967 110.118 114.967C109.796 114.967 109.512 115.022 109.266 115.134C109.02 115.245 108.829 115.397 108.694 115.591C108.56 115.784 108.492 116.001 108.492 116.241H106.304C106.304 115.731 106.465 115.254 106.787 114.809C107.115 114.357 107.578 113.997 108.176 113.728C108.779 113.452 109.468 113.314 110.241 113.314C110.968 113.314 111.609 113.438 112.166 113.684C112.723 113.93 113.156 114.299 113.467 114.791C113.783 115.283 113.941 115.884 113.941 116.593V120.785ZM109.758 121.427C110.215 121.427 110.619 121.318 110.971 121.102C111.328 120.885 111.589 120.624 111.753 120.319V118.544H110.61C109.849 118.544 109.271 118.682 108.879 118.957C108.486 119.232 108.29 119.619 108.29 120.117C108.29 120.504 108.419 120.82 108.677 121.066C108.935 121.307 109.295 121.427 109.758 121.427ZM116.288 123V109.5H118.477V123H116.288ZM120.911 123V109.5H123.1V123H120.911ZM133.436 118.931H127.239C127.28 119.417 127.406 119.848 127.617 120.223C127.828 120.598 128.112 120.891 128.47 121.102C128.833 121.312 129.255 121.418 129.735 121.418C130.72 121.418 131.511 121.031 132.108 120.258L133.277 121.392C132.932 121.901 132.451 122.326 131.836 122.666C131.221 123.006 130.477 123.176 129.604 123.176C128.678 123.176 127.869 122.977 127.178 122.578C126.486 122.174 125.956 121.623 125.587 120.926C125.218 120.229 125.033 119.446 125.033 118.579V118.219C125.033 117.24 125.221 116.382 125.596 115.644C125.971 114.899 126.486 114.325 127.143 113.921C127.799 113.517 128.537 113.314 129.357 113.314C130.254 113.314 131.007 113.511 131.616 113.903C132.226 114.296 132.68 114.847 132.979 115.556C133.283 116.259 133.436 117.076 133.436 118.008V118.931ZM131.273 117.182C131.244 116.566 131.077 116.062 130.772 115.67C130.468 115.271 129.993 115.072 129.349 115.072C128.774 115.072 128.312 115.271 127.96 115.67C127.608 116.068 127.383 116.628 127.283 117.349H131.273V117.182ZM138.771 121.365C139.005 121.365 139.254 121.336 139.518 121.277V122.965C139.096 123.105 138.621 123.176 138.094 123.176C137.32 123.176 136.711 122.962 136.266 122.534C135.82 122.106 135.598 121.424 135.598 120.486V115.107H134.051V113.49H135.598V111.17H137.786V113.49H139.456V115.107H137.786V120.337C137.786 120.735 137.868 121.008 138.032 121.154C138.196 121.295 138.442 121.365 138.771 121.365Z" fill="#434D5A"/>
<circle cx="184.653" cy="218.653" r="14.6535" transform="rotate(180 184.653 218.653)" fill="white"/>
<path fill-rule="evenodd" clip-rule="evenodd" d="M185.844 212.793L184.562 214.018L188.5 217.78L177.327 217.78L177.327 219.529L188.5 219.529L184.562 223.291L185.844 224.516L191.98 218.654L185.844 212.793Z" fill="#434D5A"/>
</svg>
