<svg width="215" height="250" viewBox="0 0 215 250" fill="none" xmlns="http://www.w3.org/2000/svg">
<rect width="215" height="250" rx="21" fill="#F5F6F8"/>
<rect x="16" y="147" width="62" height="23" rx="7" fill="#CBF3E8"/>
<path d="M31.2529 159.056H28.6689V162.002H27.0283V159.056H24.4307V157.511H27.0283V154.756H28.6689V157.511H31.2529V159.056Z" fill="#434D5A"/>
<path d="M36.7383 163V161.824L39.9785 158.311C40.334 157.914 40.612 157.575 40.8125 157.292C41.013 157.005 41.1543 156.747 41.2363 156.52C41.3229 156.292 41.3662 156.064 41.3662 155.836C41.3662 155.371 41.2363 154.995 40.9766 154.708C40.7214 154.421 40.3659 154.277 39.9102 154.277C39.3724 154.277 38.96 154.444 38.6729 154.776C38.3903 155.104 38.249 155.542 38.249 156.089H36.5469C36.5469 155.501 36.6813 154.965 36.9502 154.482C37.2191 153.999 37.6087 153.617 38.1191 153.334C38.6296 153.051 39.2334 152.91 39.9307 152.91C40.5915 152.91 41.1566 153.022 41.626 153.245C42.0954 153.468 42.4531 153.787 42.6992 154.202C42.9453 154.612 43.0684 155.098 43.0684 155.658C43.0684 156.242 42.8952 156.825 42.5488 157.408C42.2025 157.987 41.6966 158.625 41.0312 159.322L38.8711 161.633H43.4512V163H36.7383ZM45.8779 161.209C46.1787 161.209 46.418 161.298 46.5957 161.476C46.7734 161.653 46.8623 161.879 46.8623 162.152C46.8623 162.421 46.7734 162.645 46.5957 162.822C46.418 162.995 46.1787 163.082 45.8779 163.082C45.5726 163.082 45.3311 162.995 45.1533 162.822C44.9756 162.645 44.8867 162.421 44.8867 162.152C44.8867 161.879 44.9756 161.653 45.1533 161.476C45.3311 161.298 45.5726 161.209 45.8779 161.209ZM49.6172 153.047H54.9902V154.503H51.0254L50.7588 156.854C50.9502 156.75 51.1781 156.659 51.4424 156.581C51.7113 156.504 52.0007 156.465 52.3105 156.465C52.9349 156.465 53.4704 156.599 53.917 156.868C54.3682 157.137 54.7122 157.524 54.9492 158.03C55.1908 158.532 55.3115 159.126 55.3115 159.814C55.3115 160.443 55.1885 161.008 54.9424 161.51C54.7008 162.011 54.334 162.408 53.8418 162.699C53.3496 162.991 52.7458 163.137 52.0303 163.137C51.4606 163.137 50.9342 163.027 50.4512 162.809C49.9681 162.585 49.5762 162.262 49.2754 161.838C48.9746 161.41 48.806 160.897 48.7695 160.3H50.4238C50.4831 160.769 50.6517 161.132 50.9297 161.387C51.2077 161.642 51.5723 161.77 52.0234 161.77C52.543 161.77 52.9372 161.587 53.2061 161.223C53.4795 160.858 53.6162 160.37 53.6162 159.76C53.6162 159.176 53.4635 158.709 53.1582 158.358C52.8574 158.003 52.4268 157.825 51.8662 157.825C51.6247 157.825 51.4173 157.85 51.2441 157.9C51.0755 157.946 50.932 158.01 50.8135 158.092C50.6995 158.169 50.5719 158.274 50.4307 158.406L49.0703 158.064L49.6172 153.047ZM56.5557 154.961C56.5557 154.583 56.64 154.236 56.8086 153.922C56.9772 153.607 57.221 153.359 57.54 153.177C57.859 152.994 58.235 152.903 58.668 152.903C59.11 152.903 59.4906 152.994 59.8096 153.177C60.1331 153.359 60.377 153.607 60.541 153.922C60.7051 154.232 60.7871 154.578 60.7871 154.961V155.487C60.7871 155.866 60.7051 156.21 60.541 156.52C60.377 156.829 60.1354 157.076 59.8164 157.258C59.4974 157.44 59.1191 157.531 58.6816 157.531C58.2441 157.531 57.8636 157.44 57.54 157.258C57.221 157.076 56.9772 156.829 56.8086 156.52C56.64 156.21 56.5557 155.866 56.5557 155.487V154.961ZM57.7383 155.487C57.7383 155.774 57.818 156.018 57.9775 156.219C58.1416 156.419 58.3763 156.52 58.6816 156.52C58.9779 156.52 59.2057 156.419 59.3652 156.219C59.5293 156.018 59.6113 155.774 59.6113 155.487V154.961C59.6113 154.669 59.5293 154.423 59.3652 154.223C59.2012 154.018 58.9688 153.915 58.668 153.915C58.3717 153.915 58.1416 154.018 57.9775 154.223C57.818 154.423 57.7383 154.669 57.7383 154.961V155.487ZM58.1553 161.756L63.0156 153.977L63.8906 154.476L59.0303 162.255L58.1553 161.756ZM61.3408 160.56C61.3408 160.181 61.4251 159.837 61.5938 159.527C61.7624 159.213 62.0062 158.965 62.3252 158.782C62.6442 158.6 63.0202 158.509 63.4531 158.509C63.8952 158.509 64.2757 158.6 64.5947 158.782C64.9137 158.965 65.1553 159.213 65.3193 159.527C65.488 159.837 65.5723 160.181 65.5723 160.56V161.093C65.5723 161.471 65.488 161.817 65.3193 162.132C65.1553 162.442 64.9137 162.688 64.5947 162.87C64.2803 163.052 63.9043 163.144 63.4668 163.144C63.0293 163.144 62.6488 163.052 62.3252 162.87C62.0062 162.688 61.7624 162.442 61.5938 162.132C61.4251 161.817 61.3408 161.471 61.3408 161.093V160.56ZM62.5166 161.093C62.5166 161.275 62.5531 161.446 62.626 161.605C62.7035 161.76 62.8128 161.886 62.9541 161.981C63.0999 162.077 63.2708 162.125 63.4668 162.125C63.7858 162.125 64.0205 162.027 64.1709 161.831C64.3213 161.635 64.3965 161.389 64.3965 161.093V160.56C64.3965 160.268 64.3145 160.022 64.1504 159.821C63.9863 159.621 63.7539 159.521 63.4531 159.521C63.1569 159.521 62.9268 159.621 62.7627 159.821C62.5986 160.022 62.5166 160.268 62.5166 160.56V161.093Z" fill="#434D5A"/>
<path d="M26.7593 134.27H24.3223V131.257C23.2021 131.136 22.1426 130.818 21.1436 130.304C20.1445 129.789 19.3271 129.022 18.6914 128.003C18.0658 126.984 17.7529 125.657 17.7529 124.022H22.3242C22.3242 124.95 22.4756 125.682 22.7783 126.217C23.0911 126.742 23.4897 127.115 23.9741 127.337C24.4686 127.549 24.9832 127.655 25.5181 127.655C26.4263 127.655 27.1024 127.423 27.5464 126.958C28.0005 126.484 28.2275 125.889 28.2275 125.172C28.2275 124.345 28.0005 123.699 27.5464 123.235C27.0923 122.761 26.3203 122.317 25.2305 121.903C23.9085 121.388 22.748 120.843 21.749 120.268C20.75 119.683 19.973 118.961 19.418 118.104C18.863 117.246 18.5854 116.151 18.5854 114.819C18.5854 113.093 19.1354 111.691 20.2354 110.611C21.3454 109.521 22.8136 108.88 24.6401 108.688V105.464H27.0771V108.749C28.833 109.001 30.2256 109.738 31.2549 110.959C32.2943 112.18 32.814 113.79 32.814 115.788H28.2578C28.2578 114.607 28.0156 113.734 27.5312 113.169C27.0469 112.594 26.4111 112.306 25.624 112.306C24.7562 112.306 24.1255 112.548 23.7319 113.033C23.3485 113.517 23.1567 114.118 23.1567 114.834C23.1567 115.561 23.3737 116.156 23.8076 116.62C24.2415 117.084 25.0387 117.549 26.1992 118.013C27.501 118.537 28.6463 119.097 29.6353 119.693C30.6343 120.288 31.4113 121.015 31.9663 121.873C32.5314 122.73 32.814 123.82 32.814 125.142C32.814 126.918 32.259 128.331 31.1489 129.38C30.049 130.43 28.5858 131.056 26.7593 131.257V134.27ZM50.8721 131H35.6899V127.882L42.8042 120.313C43.8537 119.173 44.5802 118.225 44.9839 117.468C45.3976 116.701 45.6045 116.005 45.6045 115.379C45.6045 114.43 45.3674 113.684 44.8931 113.139C44.4289 112.594 43.7578 112.321 42.8799 112.321C41.901 112.321 41.1442 112.669 40.6094 113.366C40.0846 114.052 39.8223 114.91 39.8223 115.939H35.251C35.251 114.607 35.5638 113.391 36.1895 112.291C36.8151 111.181 37.7031 110.298 38.8535 109.642C40.014 108.976 41.3864 108.643 42.9707 108.643C45.3118 108.643 47.098 109.203 48.3291 110.323C49.5703 111.443 50.1909 112.982 50.1909 114.94C50.1909 116.433 49.7419 117.846 48.8438 119.178C47.9557 120.5 46.7599 121.933 45.2563 123.477L41.5933 127.322H50.8721V131ZM58.0015 130.273C58.0015 131.444 57.7139 132.615 57.1387 133.785C56.5635 134.956 55.8369 135.914 54.959 136.661L52.5977 135.45C52.9609 134.764 53.3141 134.053 53.6572 133.316C54.0104 132.579 54.187 131.651 54.187 130.531V127.216H58.0166L58.0015 130.273ZM72.0635 131H67.4922V114.365L62.3306 115.924V112.23L71.5942 108.931H72.0635V131ZM85.959 117.967C87.0186 117.967 87.8057 117.7 88.3203 117.165C88.835 116.63 89.0923 115.914 89.0923 115.016C89.0923 114.249 88.8602 113.608 88.396 113.093C87.9318 112.579 87.2103 112.321 86.2314 112.321C85.4746 112.321 84.8136 112.533 84.2485 112.957C83.6834 113.371 83.4009 113.936 83.4009 114.652H78.8296C78.8296 113.441 79.1576 112.387 79.8135 111.489C80.4694 110.581 81.3473 109.879 82.4473 109.385C83.5472 108.89 84.7682 108.643 86.1104 108.643C88.3607 108.643 90.1821 109.178 91.5747 110.248C92.9774 111.307 93.6787 112.871 93.6787 114.94C93.6787 115.899 93.3861 116.807 92.8008 117.665C92.2155 118.512 91.3981 119.183 90.3486 119.678C91.5495 120.112 92.4577 120.773 93.0732 121.661C93.6989 122.549 94.0117 123.598 94.0117 124.809C94.0117 126.181 93.6636 127.352 92.9673 128.321C92.271 129.29 91.3275 130.031 90.1367 130.546C88.946 131.05 87.6038 131.303 86.1104 131.303C84.859 131.303 83.6532 131.076 82.4927 130.622C81.3423 130.167 80.3937 129.471 79.647 128.533C78.9103 127.594 78.542 126.398 78.542 124.945H83.1436C83.1436 125.712 83.4362 126.353 84.0215 126.868C84.6068 127.372 85.3434 127.625 86.2314 127.625C87.2305 127.625 88.0125 127.357 88.5776 126.822C89.1528 126.277 89.4404 125.581 89.4404 124.733C89.4404 123.583 89.1276 122.766 88.502 122.281C87.8864 121.787 87.0387 121.54 85.959 121.54H83.5977V117.967H85.959ZM100.354 127.413C102.483 127.413 104.098 126.984 105.198 126.126C106.298 125.268 106.938 123.987 107.12 122.281C106.595 122.756 105.995 123.144 105.319 123.447C104.653 123.739 103.946 123.886 103.2 123.886C101.817 123.886 100.647 123.568 99.688 122.932C98.7293 122.286 97.9977 121.408 97.4932 120.298C96.9987 119.178 96.7515 117.902 96.7515 116.469C96.7515 115.036 97.0592 113.729 97.6748 112.548C98.2904 111.368 99.1582 110.424 100.278 109.718C101.398 109.001 102.71 108.643 104.214 108.643C105.707 108.643 107.019 109.016 108.149 109.763C109.28 110.5 110.158 111.544 110.783 112.896C111.419 114.239 111.737 115.823 111.737 117.649V119.224C111.737 121.676 111.303 123.805 110.435 125.611C109.577 127.408 108.306 128.795 106.621 129.774C104.935 130.753 102.867 131.242 100.415 131.242H100.066V127.413H100.354ZM101.323 116.423C101.323 117.523 101.57 118.462 102.064 119.239C102.559 120.016 103.321 120.404 104.35 120.404C105.026 120.404 105.601 120.233 106.076 119.89C106.56 119.547 106.923 119.133 107.166 118.648V116.802C107.166 115.298 106.883 114.178 106.318 113.441C105.753 112.705 105.046 112.336 104.199 112.336C103.583 112.336 103.058 112.533 102.625 112.927C102.201 113.32 101.878 113.83 101.656 114.456C101.434 115.071 101.323 115.727 101.323 116.423ZM115.173 128.745C115.173 128.058 115.405 127.483 115.869 127.019C116.343 126.555 116.969 126.323 117.746 126.323C118.523 126.323 119.144 126.555 119.608 127.019C120.072 127.483 120.304 128.058 120.304 128.745C120.304 129.431 120.072 130.006 119.608 130.47C119.144 130.934 118.523 131.167 117.746 131.167C116.969 131.167 116.343 130.934 115.869 130.47C115.405 130.006 115.173 129.431 115.173 128.745ZM138.862 121.903C138.862 124.093 138.544 125.879 137.908 127.261C137.283 128.644 136.41 129.663 135.29 130.319C134.169 130.975 132.868 131.303 131.384 131.303C129.891 131.303 128.579 130.975 127.449 130.319C126.319 129.663 125.436 128.644 124.8 127.261C124.174 125.879 123.861 124.093 123.861 121.903V118.028C123.861 115.838 124.174 114.057 124.8 112.685C125.425 111.302 126.298 110.288 127.418 109.642C128.549 108.986 129.861 108.658 131.354 108.658C132.837 108.658 134.139 108.986 135.259 109.642C136.389 110.288 137.272 111.302 137.908 112.685C138.544 114.057 138.862 115.838 138.862 118.028V121.903ZM134.275 117.392C134.275 115.505 134.018 114.193 133.503 113.457C132.989 112.72 132.272 112.352 131.354 112.352C130.436 112.352 129.719 112.72 129.205 113.457C128.69 114.193 128.433 115.505 128.433 117.392V122.508C128.433 124.416 128.69 125.748 129.205 126.504C129.729 127.251 130.456 127.625 131.384 127.625C132.303 127.625 133.014 127.251 133.519 126.504C134.023 125.748 134.275 124.416 134.275 122.508V117.392ZM154.816 131H150.26V126.277H141.329L141.117 123.386L150.214 108.961H154.816V122.599H157.253V126.277H154.816V131ZM145.613 122.599H150.26V115.167L149.972 115.651L145.613 122.599Z" fill="black"/>
<path d="M25.8691 93.9336V95H20.6123H19.5459V85.0469H20.8721H25.8008V86.1201H20.8721V89.3262H25.1719V90.3926H20.8721V93.9336H25.8691ZM30.4424 95C30.1507 95.0911 29.8249 95.1367 29.4648 95.1367C28.9499 95.1367 28.5352 94.9818 28.2207 94.6719C27.9108 94.362 27.7559 93.8584 27.7559 93.1611V88.5674H26.4092V87.6035H27.7559V85.8057H29.0342V87.6035H30.415V88.5674H29.0342V93.168C29.0342 93.5189 29.1071 93.7559 29.2529 93.8789C29.3988 93.9974 29.597 94.0566 29.8477 94.0566C29.9434 94.0566 30.0482 94.0498 30.1621 94.0361C30.276 94.0179 30.3672 93.9997 30.4355 93.9814L30.4424 95ZM35.3369 87.4668C36.9183 87.4668 37.709 88.3623 37.709 90.1533V95H36.4307V90.1396C36.4307 89.5745 36.3076 89.1644 36.0615 88.9092C35.82 88.654 35.4531 88.5264 34.9609 88.5264C34.569 88.5264 34.2158 88.6335 33.9014 88.8477C33.5915 89.0618 33.3454 89.349 33.1631 89.709V95H31.8848V84.5H33.1631V88.4785C33.432 88.1549 33.751 87.9066 34.1201 87.7334C34.4893 87.5557 34.8949 87.4668 35.3369 87.4668ZM45.5566 91.6504H40.5527C40.5664 92.1107 40.6621 92.5277 40.8398 92.9014C41.0176 93.2751 41.2682 93.5713 41.5918 93.79C41.9199 94.0042 42.3027 94.1113 42.7402 94.1113C43.1686 94.1113 43.5378 94.0247 43.8477 93.8516C44.1621 93.6784 44.4424 93.43 44.6885 93.1064L45.4609 93.708C45.1875 94.1273 44.8229 94.4714 44.3672 94.7402C43.9115 95.0046 43.3464 95.1367 42.6719 95.1367C41.9974 95.1367 41.4027 94.984 40.8877 94.6787C40.3727 94.3734 39.974 93.9495 39.6914 93.4072C39.4134 92.8649 39.2744 92.2497 39.2744 91.5615V91.2676C39.2744 90.4974 39.4248 89.8252 39.7256 89.251C40.0264 88.6722 40.4229 88.2301 40.915 87.9248C41.4118 87.6195 41.9427 87.4668 42.5078 87.4668C43.196 87.4668 43.7656 87.6217 44.2168 87.9316C44.6725 88.237 45.0098 88.6608 45.2285 89.2031C45.4473 89.7454 45.5566 90.3721 45.5566 91.083V91.6504ZM44.2783 90.5293C44.2419 89.9505 44.0846 89.4674 43.8066 89.0801C43.5332 88.6882 43.1003 88.4922 42.5078 88.4922C41.9974 88.4922 41.5713 88.679 41.2295 89.0527C40.8923 89.4219 40.6803 89.946 40.5938 90.625H44.2783V90.5293ZM50.0547 87.4668C50.1367 87.4668 50.2393 87.4782 50.3623 87.501C50.4854 87.5192 50.5697 87.5397 50.6152 87.5625V88.7314C50.4193 88.695 50.2119 88.6768 49.9932 88.6768C49.5739 88.6768 49.223 88.7702 48.9404 88.957C48.6624 89.1439 48.4528 89.4059 48.3115 89.7432V95H47.0332V87.6035H48.2773L48.3047 88.4443C48.4961 88.1344 48.7376 87.8952 49.0293 87.7266C49.321 87.5534 49.6628 87.4668 50.0547 87.4668ZM57.7383 91.6504H52.7344C52.748 92.1107 52.8438 92.5277 53.0215 92.9014C53.1992 93.2751 53.4499 93.5713 53.7734 93.79C54.1016 94.0042 54.4844 94.1113 54.9219 94.1113C55.3503 94.1113 55.7194 94.0247 56.0293 93.8516C56.3438 93.6784 56.624 93.43 56.8701 93.1064L57.6426 93.708C57.3691 94.1273 57.0046 94.4714 56.5488 94.7402C56.0931 95.0046 55.528 95.1367 54.8535 95.1367C54.179 95.1367 53.5843 94.984 53.0693 94.6787C52.5544 94.3734 52.1556 93.9495 51.873 93.4072C51.5951 92.8649 51.4561 92.2497 51.4561 91.5615V91.2676C51.4561 90.4974 51.6064 89.8252 51.9072 89.251C52.208 88.6722 52.6045 88.2301 53.0967 87.9248C53.5934 87.6195 54.1243 87.4668 54.6895 87.4668C55.3776 87.4668 55.9473 87.6217 56.3984 87.9316C56.8542 88.237 57.1914 88.6608 57.4102 89.2031C57.6289 89.7454 57.7383 90.3721 57.7383 91.083V91.6504ZM56.46 90.5293C56.4235 89.9505 56.2663 89.4674 55.9883 89.0801C55.7148 88.6882 55.2819 88.4922 54.6895 88.4922C54.179 88.4922 53.7529 88.679 53.4111 89.0527C53.0739 89.4219 52.862 89.946 52.7754 90.625H56.46V90.5293ZM65.0186 87.6035V95H63.8018L63.7812 94.2686C63.2891 94.8473 62.5667 95.1367 61.6143 95.1367C60.8532 95.1367 60.2585 94.9134 59.8301 94.4668C59.4017 94.0202 59.1875 93.3229 59.1875 92.375V87.6035H60.4658V92.3887C60.4658 93.0039 60.5911 93.4391 60.8418 93.6943C61.097 93.945 61.4229 94.0703 61.8193 94.0703C62.7764 94.0703 63.4167 93.7126 63.7402 92.9971V87.6035H65.0186ZM74.8281 87.4668C75.6393 87.4668 76.2546 87.6833 76.6738 88.1162C77.0931 88.5492 77.3027 89.2236 77.3027 90.1396V95H76.0244V90.126C76.0244 89.5381 75.89 89.1257 75.6211 88.8887C75.3568 88.6471 74.9671 88.5264 74.4521 88.5264C74.124 88.5264 73.8369 88.597 73.5908 88.7383C73.3447 88.875 73.151 89.0618 73.0098 89.2988C72.873 89.5358 72.7887 89.8024 72.7568 90.0986V95H71.4785V90.1328C71.4785 89.0618 70.9521 88.5264 69.8994 88.5264C69.4756 88.5264 69.1247 88.6198 68.8467 88.8066C68.5687 88.9889 68.3568 89.2441 68.2109 89.5723V95H66.9326V87.6035H68.1426L68.1836 88.4033C68.4388 88.1025 68.7487 87.8724 69.1133 87.7129C69.4779 87.5488 69.8949 87.4668 70.3643 87.4668C70.8519 87.4668 71.278 87.5648 71.6426 87.7607C72.0117 87.9521 72.2897 88.2461 72.4766 88.6426C72.7318 88.278 73.0576 87.9909 73.4541 87.7812C73.8551 87.5716 74.3132 87.4668 74.8281 87.4668Z" fill="#434D5A"/>
<circle cx="185.653" cy="218.653" r="14.6535" transform="rotate(180 185.653 218.653)" fill="white"/>
<path fill-rule="evenodd" clip-rule="evenodd" d="M186.844 212.793L185.562 214.018L189.5 217.78L178.327 217.78L178.327 219.529L189.5 219.529L185.562 223.291L186.844 224.516L192.98 218.654L186.844 212.793Z" fill="#434D5A"/>
<rect x="16" y="18" width="30" height="30" rx="15" fill="#6B71D6"/>
<path fill-rule="evenodd" clip-rule="evenodd" d="M31.214 23.2915C31.1704 23.3969 29.8546 25.6297 28.2898 28.2535C26.725 30.8772 25.4318 33.0583 25.4158 33.1004C25.395 33.1552 26.2451 33.6896 28.3965 34.9743L31.4065 36.7715L34.4155 34.9733C36.5773 33.6814 37.4164 33.1533 37.3954 33.098C37.2867 32.8116 31.4353 23.1 31.3715 23.1C31.3284 23.1 31.2575 23.1862 31.214 23.2915ZM25.4229 34.393C25.5389 34.5934 31.3816 42.9008 31.406 42.9C31.4464 42.8988 37.42 34.3683 37.3969 34.345C37.3751 34.323 31.7915 37.6462 31.5586 37.8198L31.4158 37.9263L28.5249 36.2014C26.9348 35.2528 25.5752 34.4383 25.5035 34.3916C25.3845 34.3142 25.3774 34.3143 25.4229 34.393Z" fill="white"/>
</svg>
