<svg width="215" height="251" viewBox="0 0 215 251" fill="none" xmlns="http://www.w3.org/2000/svg">
  <rect y="0.00585938" width="215" height="250" rx="21" fill="#F5F7F8"/>
  <rect x="15.6094" y="147.006" width="62" height="23" rx="7" fill="#CBF3E8"/>
  <path d="M32.8896 159.062H30.3057V162.008H28.665V159.062H26.0674V157.517H28.665V154.762H30.3057V157.517H32.8896V159.062ZM37.627 163.006V161.83L40.8672 158.316C41.2227 157.92 41.5007 157.58 41.7012 157.298C41.9017 157.011 42.043 156.753 42.125 156.525C42.2116 156.298 42.2549 156.07 42.2549 155.842C42.2549 155.377 42.125 155.001 41.8652 154.714C41.61 154.427 41.2546 154.283 40.7988 154.283C40.2611 154.283 39.8486 154.45 39.5615 154.782C39.279 155.11 39.1377 155.548 39.1377 156.095H37.4355C37.4355 155.507 37.57 154.971 37.8389 154.488C38.1077 154.005 38.4974 153.622 39.0078 153.34C39.5182 153.057 40.1221 152.916 40.8193 152.916C41.4801 152.916 42.0452 153.028 42.5146 153.251C42.984 153.474 43.3418 153.793 43.5879 154.208C43.834 154.618 43.957 155.104 43.957 155.664C43.957 156.247 43.7839 156.831 43.4375 157.414C43.0911 157.993 42.5853 158.631 41.9199 159.328L39.7598 161.639H44.3398V163.006H37.627ZM46.7666 161.215C47.0674 161.215 47.3066 161.304 47.4844 161.481C47.6621 161.659 47.751 161.885 47.751 162.158C47.751 162.427 47.6621 162.65 47.4844 162.828C47.3066 163.001 47.0674 163.088 46.7666 163.088C46.4613 163.088 46.2197 163.001 46.042 162.828C45.8643 162.65 45.7754 162.427 45.7754 162.158C45.7754 161.885 45.8643 161.659 46.042 161.481C46.2197 161.304 46.4613 161.215 46.7666 161.215ZM50.5059 153.053H55.8789V154.509H51.9141L51.6475 156.86C51.8389 156.756 52.0667 156.664 52.3311 156.587C52.5999 156.509 52.8893 156.471 53.1992 156.471C53.8236 156.471 54.359 156.605 54.8057 156.874C55.2568 157.143 55.6009 157.53 55.8379 158.036C56.0794 158.537 56.2002 159.132 56.2002 159.82C56.2002 160.449 56.0771 161.014 55.8311 161.516C55.5895 162.017 55.2227 162.413 54.7305 162.705C54.2383 162.997 53.6344 163.143 52.9189 163.143C52.3493 163.143 51.8229 163.033 51.3398 162.814C50.8568 162.591 50.4648 162.268 50.1641 161.844C49.8633 161.415 49.6947 160.903 49.6582 160.306H51.3125C51.3717 160.775 51.5404 161.137 51.8184 161.393C52.0964 161.648 52.4609 161.775 52.9121 161.775C53.4316 161.775 53.8258 161.593 54.0947 161.229C54.3682 160.864 54.5049 160.376 54.5049 159.766C54.5049 159.182 54.3522 158.715 54.0469 158.364C53.7461 158.009 53.3154 157.831 52.7549 157.831C52.5133 157.831 52.306 157.856 52.1328 157.906C51.9642 157.952 51.8206 158.016 51.7021 158.098C51.5882 158.175 51.4606 158.28 51.3193 158.412L49.959 158.07L50.5059 153.053ZM57.4443 154.967C57.4443 154.589 57.5286 154.242 57.6973 153.928C57.8659 153.613 58.1097 153.365 58.4287 153.183C58.7477 153 59.1237 152.909 59.5566 152.909C59.9987 152.909 60.3792 153 60.6982 153.183C61.0218 153.365 61.2656 153.613 61.4297 153.928C61.5938 154.238 61.6758 154.584 61.6758 154.967V155.493C61.6758 155.871 61.5938 156.215 61.4297 156.525C61.2656 156.835 61.0241 157.081 60.7051 157.264C60.3861 157.446 60.0078 157.537 59.5703 157.537C59.1328 157.537 58.7523 157.446 58.4287 157.264C58.1097 157.081 57.8659 156.835 57.6973 156.525C57.5286 156.215 57.4443 155.871 57.4443 155.493V154.967ZM58.627 155.493C58.627 155.78 58.7067 156.024 58.8662 156.225C59.0303 156.425 59.265 156.525 59.5703 156.525C59.8665 156.525 60.0944 156.425 60.2539 156.225C60.418 156.024 60.5 155.78 60.5 155.493V154.967C60.5 154.675 60.418 154.429 60.2539 154.229C60.0898 154.023 59.8574 153.921 59.5566 153.921C59.2604 153.921 59.0303 154.023 58.8662 154.229C58.7067 154.429 58.627 154.675 58.627 154.967V155.493ZM59.0439 161.762L63.9043 153.982L64.7793 154.481L59.9189 162.261L59.0439 161.762ZM62.2295 160.565C62.2295 160.187 62.3138 159.843 62.4824 159.533C62.651 159.219 62.8949 158.97 63.2139 158.788C63.5329 158.606 63.9089 158.515 64.3418 158.515C64.7839 158.515 65.1644 158.606 65.4834 158.788C65.8024 158.97 66.0439 159.219 66.208 159.533C66.3766 159.843 66.4609 160.187 66.4609 160.565V161.099C66.4609 161.477 66.3766 161.823 66.208 162.138C66.0439 162.448 65.8024 162.694 65.4834 162.876C65.1689 163.058 64.793 163.149 64.3555 163.149C63.918 163.149 63.5374 163.058 63.2139 162.876C62.8949 162.694 62.651 162.448 62.4824 162.138C62.3138 161.823 62.2295 161.477 62.2295 161.099V160.565ZM63.4053 161.099C63.4053 161.281 63.4417 161.452 63.5146 161.611C63.5921 161.766 63.7015 161.892 63.8428 161.987C63.9886 162.083 64.1595 162.131 64.3555 162.131C64.6745 162.131 64.9092 162.033 65.0596 161.837C65.21 161.641 65.2852 161.395 65.2852 161.099V160.565C65.2852 160.274 65.2031 160.028 65.0391 159.827C64.875 159.627 64.6426 159.526 64.3418 159.526C64.0456 159.526 63.8154 159.627 63.6514 159.827C63.4873 160.028 63.4053 160.274 63.4053 160.565V161.099Z" fill="#434D5A"/>
  <path d="M26.3687 134.275H23.9316V131.263C22.8115 131.142 21.752 130.824 20.7529 130.31C19.7539 129.795 18.9365 129.028 18.3008 128.009C17.6751 126.99 17.3623 125.663 17.3623 124.028H21.9336C21.9336 124.956 22.085 125.688 22.3877 126.223C22.7005 126.747 23.0991 127.121 23.5835 127.343C24.078 127.555 24.5926 127.661 25.1274 127.661C26.0356 127.661 26.7118 127.429 27.1558 126.964C27.6099 126.49 27.8369 125.895 27.8369 125.178C27.8369 124.351 27.6099 123.705 27.1558 123.241C26.7017 122.766 25.9297 122.322 24.8398 121.909C23.5179 121.394 22.3574 120.849 21.3584 120.274C20.3594 119.689 19.5824 118.967 19.0273 118.109C18.4723 117.252 18.1948 116.157 18.1948 114.825C18.1948 113.099 18.7448 111.696 19.8447 110.617C20.9548 109.527 22.423 108.886 24.2495 108.694V105.47H26.6865V108.755C28.4424 109.007 29.835 109.744 30.8643 110.965C31.9036 112.186 32.4233 113.795 32.4233 115.793H27.8672C27.8672 114.613 27.625 113.74 27.1406 113.175C26.6562 112.6 26.0205 112.312 25.2334 112.312C24.3656 112.312 23.7349 112.554 23.3413 113.039C22.9578 113.523 22.7661 114.123 22.7661 114.84C22.7661 115.566 22.9831 116.162 23.417 116.626C23.8509 117.09 24.6481 117.554 25.8086 118.019C27.1104 118.543 28.2557 119.103 29.2446 119.699C30.2437 120.294 31.0207 121.021 31.5757 121.878C32.1408 122.736 32.4233 123.826 32.4233 125.148C32.4233 126.924 31.8683 128.337 30.7583 129.386C29.6584 130.436 28.1951 131.061 26.3687 131.263V134.275ZM50.4814 131.006H35.2993V127.888L42.4136 120.319C43.4631 119.179 44.1896 118.23 44.5933 117.474C45.007 116.707 45.2139 116.01 45.2139 115.385C45.2139 114.436 44.9767 113.689 44.5024 113.145C44.0382 112.6 43.3672 112.327 42.4893 112.327C41.5104 112.327 40.7536 112.675 40.2188 113.372C39.694 114.058 39.4316 114.916 39.4316 115.945H34.8604C34.8604 114.613 35.1732 113.397 35.7988 112.297C36.4245 111.187 37.3125 110.304 38.4629 109.648C39.6234 108.982 40.9958 108.649 42.5801 108.649C44.9212 108.649 46.7074 109.209 47.9385 110.329C49.1797 111.449 49.8003 112.988 49.8003 114.946C49.8003 116.439 49.3512 117.852 48.4531 119.184C47.5651 120.506 46.3693 121.939 44.8657 123.483L41.2026 127.328H50.4814V131.006ZM57.6108 130.279C57.6108 131.45 57.3232 132.62 56.748 133.791C56.1729 134.962 55.4463 135.92 54.5684 136.667L52.207 135.456C52.5703 134.77 52.9235 134.058 53.2666 133.322C53.6198 132.585 53.7964 131.657 53.7964 130.537V127.222H57.626L57.6108 130.279ZM71.6729 131.006H67.1016V114.371L61.9399 115.93V112.236L71.2036 108.937H71.6729V131.006ZM85.5684 117.973C86.6279 117.973 87.415 117.706 87.9297 117.171C88.4443 116.636 88.7017 115.92 88.7017 115.021C88.7017 114.255 88.4696 113.614 88.0054 113.099C87.5412 112.584 86.8197 112.327 85.8408 112.327C85.084 112.327 84.423 112.539 83.8579 112.963C83.2928 113.377 83.0103 113.942 83.0103 114.658H78.439C78.439 113.447 78.7669 112.393 79.4229 111.495C80.0788 110.586 80.9567 109.885 82.0566 109.391C83.1566 108.896 84.3776 108.649 85.7197 108.649C87.9701 108.649 89.7915 109.184 91.1841 110.253C92.5868 111.313 93.2881 112.877 93.2881 114.946C93.2881 115.904 92.9954 116.813 92.4102 117.67C91.8249 118.518 91.0075 119.189 89.958 119.684C91.1589 120.118 92.0671 120.778 92.6826 121.667C93.3083 122.555 93.6211 123.604 93.6211 124.815C93.6211 126.187 93.2729 127.358 92.5767 128.327C91.8804 129.295 90.9368 130.037 89.7461 130.552C88.5553 131.056 87.2132 131.309 85.7197 131.309C84.4684 131.309 83.2625 131.082 82.1021 130.627C80.9517 130.173 80.0031 129.477 79.2563 128.539C78.5197 127.6 78.1514 126.404 78.1514 124.951H82.7529C82.7529 125.718 83.0456 126.359 83.6309 126.874C84.2161 127.378 84.9528 127.63 85.8408 127.63C86.8398 127.63 87.6219 127.363 88.187 126.828C88.7622 126.283 89.0498 125.587 89.0498 124.739C89.0498 123.589 88.737 122.771 88.1113 122.287C87.4958 121.793 86.6481 121.545 85.5684 121.545H83.207V117.973H85.5684ZM99.9634 127.418C102.093 127.418 103.707 126.99 104.807 126.132C105.907 125.274 106.548 123.993 106.729 122.287C106.205 122.761 105.604 123.15 104.928 123.453C104.262 123.745 103.556 123.892 102.809 123.892C101.427 123.892 100.256 123.574 99.2974 122.938C98.3387 122.292 97.6071 121.414 97.1025 120.304C96.6081 119.184 96.3608 117.908 96.3608 116.475C96.3608 115.042 96.6686 113.735 97.2842 112.554C97.8997 111.374 98.7676 110.43 99.8877 109.724C101.008 109.007 102.32 108.649 103.823 108.649C105.317 108.649 106.629 109.022 107.759 109.769C108.889 110.506 109.767 111.55 110.393 112.902C111.028 114.244 111.346 115.829 111.346 117.655V119.229C111.346 121.682 110.912 123.811 110.044 125.617C109.187 127.413 107.915 128.801 106.23 129.78C104.545 130.759 102.476 131.248 100.024 131.248H99.6758V127.418H99.9634ZM100.932 116.429C100.932 117.529 101.179 118.468 101.674 119.245C102.168 120.022 102.93 120.41 103.959 120.41C104.636 120.41 105.211 120.239 105.685 119.896C106.169 119.552 106.533 119.139 106.775 118.654V116.808C106.775 115.304 106.492 114.184 105.927 113.447C105.362 112.711 104.656 112.342 103.808 112.342C103.193 112.342 102.668 112.539 102.234 112.933C101.81 113.326 101.487 113.836 101.265 114.461C101.043 115.077 100.932 115.733 100.932 116.429ZM114.782 128.75C114.782 128.064 115.014 127.489 115.479 127.025C115.953 126.561 116.578 126.329 117.355 126.329C118.132 126.329 118.753 126.561 119.217 127.025C119.681 127.489 119.914 128.064 119.914 128.75C119.914 129.437 119.681 130.012 119.217 130.476C118.753 130.94 118.132 131.172 117.355 131.172C116.578 131.172 115.953 130.94 115.479 130.476C115.014 130.012 114.782 129.437 114.782 128.75ZM138.471 121.909C138.471 124.098 138.153 125.885 137.518 127.267C136.892 128.65 136.019 129.669 134.899 130.325C133.779 130.981 132.477 131.309 130.994 131.309C129.5 131.309 128.188 130.981 127.058 130.325C125.928 129.669 125.045 128.65 124.409 127.267C123.784 125.885 123.471 124.098 123.471 121.909V118.034C123.471 115.844 123.784 114.063 124.409 112.69C125.035 111.308 125.908 110.294 127.028 109.648C128.158 108.992 129.47 108.664 130.963 108.664C132.447 108.664 133.749 108.992 134.869 109.648C135.999 110.294 136.882 111.308 137.518 112.69C138.153 114.063 138.471 115.844 138.471 118.034V121.909ZM133.885 117.398C133.885 115.511 133.627 114.199 133.113 113.462C132.598 112.726 131.882 112.357 130.963 112.357C130.045 112.357 129.329 112.726 128.814 113.462C128.299 114.199 128.042 115.511 128.042 117.398V122.514C128.042 124.421 128.299 125.753 128.814 126.51C129.339 127.257 130.065 127.63 130.994 127.63C131.912 127.63 132.623 127.257 133.128 126.51C133.632 125.753 133.885 124.421 133.885 122.514V117.398ZM154.425 131.006H149.869V126.283H140.938L140.727 123.392L149.824 108.967H154.425V122.605H156.862V126.283H154.425V131.006ZM145.222 122.605H149.869V115.173L149.582 115.657L145.222 122.605Z" fill="black"/>
  <path d="M29.0674 95.0059H27.748V91.1162L27.8711 86.9668L24.6104 95.0059H23.6055L20.3516 86.9736L20.4746 91.1162V95.0059H19.1553V85.0527H20.29H20.8643L24.1113 93.1875L27.3584 85.0527H29.0674V95.0059ZM36.6895 87.6094L33.7227 96.1475C33.5404 96.6442 33.276 97.0749 32.9297 97.4395C32.5879 97.8086 32.1208 97.9932 31.5283 97.9932C31.4326 97.9932 31.3073 97.9795 31.1523 97.9521C31.002 97.9294 30.888 97.9066 30.8105 97.8838V96.8652C30.8607 96.8743 30.9176 96.8812 30.9814 96.8857C31.0452 96.8949 31.1022 96.8994 31.1523 96.8994C31.5853 96.8994 31.9202 96.8083 32.1572 96.626C32.3988 96.4482 32.5947 96.1338 32.7451 95.6826L33.0254 94.9238L30.3867 87.6094H31.7812L33.6133 93.1465L35.3291 87.6094H36.6895ZM47.8184 93.9395V95.0059H42.5615H41.4951V85.0527H42.8213H47.75V86.126H42.8213V89.332H47.1211V90.3984H42.8213V93.9395H47.8184ZM54.6475 87.6094L51.9951 95.0059H51.1338H51.0244L48.3447 87.6094H49.6504L51.5234 93.2764L53.3418 87.6094H54.6475ZM61.832 91.6562H56.8281C56.8418 92.1165 56.9375 92.5335 57.1152 92.9072C57.293 93.2809 57.5436 93.5771 57.8672 93.7959C58.1953 94.0101 58.5781 94.1172 59.0156 94.1172C59.444 94.1172 59.8132 94.0306 60.123 93.8574C60.4375 93.6842 60.7178 93.4359 60.9639 93.1123L61.7363 93.7139C61.4629 94.1331 61.0983 94.4772 60.6426 94.7461C60.1868 95.0104 59.6217 95.1426 58.9473 95.1426C58.2728 95.1426 57.6781 94.9899 57.1631 94.6846C56.6481 94.3792 56.2493 93.9554 55.9668 93.4131C55.6888 92.8708 55.5498 92.2555 55.5498 91.5674V91.2734C55.5498 90.5033 55.7002 89.8311 56.001 89.2568C56.3018 88.6781 56.6982 88.236 57.1904 87.9307C57.6872 87.6253 58.2181 87.4727 58.7832 87.4727C59.4714 87.4727 60.041 87.6276 60.4922 87.9375C60.9479 88.2428 61.2852 88.6667 61.5039 89.209C61.7227 89.7513 61.832 90.3779 61.832 91.0889V91.6562ZM60.5537 90.5352C60.5173 89.9564 60.36 89.4733 60.082 89.0859C59.8086 88.694 59.3757 88.498 58.7832 88.498C58.2728 88.498 57.8467 88.6849 57.5049 89.0586C57.1676 89.4277 56.9557 89.9518 56.8691 90.6309H60.5537V90.5352ZM66.3301 87.4727C66.4121 87.4727 66.5146 87.484 66.6377 87.5068C66.7607 87.5251 66.8451 87.5456 66.8906 87.5684V88.7373C66.6947 88.7008 66.4873 88.6826 66.2686 88.6826C65.8493 88.6826 65.4984 88.776 65.2158 88.9629C64.9378 89.1497 64.7282 89.4118 64.5869 89.749V95.0059H63.3086V87.6094H64.5527L64.5801 88.4502C64.7715 88.1403 65.013 87.901 65.3047 87.7324C65.5964 87.5592 65.9382 87.4727 66.3301 87.4727ZM73.5488 87.6094L70.582 96.1475C70.3997 96.6442 70.1354 97.0749 69.7891 97.4395C69.4473 97.8086 68.9801 97.9932 68.3877 97.9932C68.292 97.9932 68.1667 97.9795 68.0117 97.9521C67.8613 97.9294 67.7474 97.9066 67.6699 97.8838V96.8652C67.7201 96.8743 67.777 96.8812 67.8408 96.8857C67.9046 96.8949 67.9616 96.8994 68.0117 96.8994C68.4447 96.8994 68.7796 96.8083 69.0166 96.626C69.2581 96.4482 69.4541 96.1338 69.6045 95.6826L69.8848 94.9238L67.2461 87.6094H68.6406L70.4727 93.1465L72.1885 87.6094H73.5488ZM77.8213 95.0059C77.5296 95.097 77.2038 95.1426 76.8438 95.1426C76.3288 95.1426 75.9141 94.9876 75.5996 94.6777C75.2897 94.3678 75.1348 93.8643 75.1348 93.167V88.5732H73.7881V87.6094H75.1348V85.8115H76.4131V87.6094H77.7939V88.5732H76.4131V93.1738C76.4131 93.5247 76.486 93.7617 76.6318 93.8848C76.7777 94.0033 76.9759 94.0625 77.2266 94.0625C77.3223 94.0625 77.4271 94.0557 77.541 94.042C77.6549 94.0238 77.7461 94.0055 77.8145 93.9873L77.8213 95.0059ZM82.7158 87.4727C84.2972 87.4727 85.0879 88.3682 85.0879 90.1592V95.0059H83.8096V90.1455C83.8096 89.5804 83.6865 89.1702 83.4404 88.915C83.1989 88.6598 82.832 88.5322 82.3398 88.5322C81.9479 88.5322 81.5947 88.6393 81.2803 88.8535C80.9704 89.0677 80.7243 89.3548 80.542 89.7148V95.0059H79.2637V84.5059H80.542V88.4844C80.8109 88.1608 81.1299 87.9124 81.499 87.7393C81.8682 87.5615 82.2738 87.4727 82.7158 87.4727ZM87.7334 84.916C87.9704 84.916 88.1549 84.9844 88.2871 85.1211C88.4238 85.2578 88.4922 85.431 88.4922 85.6406C88.4922 85.8457 88.4238 86.0166 88.2871 86.1533C88.1549 86.2855 87.9704 86.3516 87.7334 86.3516C87.4964 86.3516 87.3118 86.2855 87.1797 86.1533C87.0521 86.0166 86.9883 85.8457 86.9883 85.6406C86.9883 85.431 87.0521 85.2578 87.1797 85.1211C87.3118 84.9844 87.4964 84.916 87.7334 84.916ZM87.084 95.0059V87.6094H88.3623V95.0059H87.084ZM93.8311 87.4727C95.4124 87.4727 96.2031 88.3682 96.2031 90.1592V95.0059H94.9248V90.1455C94.9248 89.5804 94.8018 89.1702 94.5557 88.915C94.3141 88.6598 93.9473 88.5322 93.4551 88.5322C93.0632 88.5322 92.71 88.6393 92.3955 88.8535C92.0856 89.0677 91.8395 89.3548 91.6572 89.7148V95.0059H90.3789V87.6094H91.5889L91.6299 88.5186C91.8988 88.1859 92.2201 87.9284 92.5938 87.7461C92.9674 87.5638 93.3799 87.4727 93.8311 87.4727ZM104.071 87.6094V94.8486C104.071 95.4912 103.939 96.0426 103.675 96.5029C103.41 96.9678 103.041 97.321 102.567 97.5625C102.098 97.804 101.553 97.9248 100.934 97.9248C100.646 97.9248 100.332 97.8815 99.9902 97.7949C99.6484 97.7083 99.3135 97.5693 98.9854 97.3779C98.6618 97.1865 98.3975 96.9404 98.1924 96.6396L98.8555 95.8945C99.4023 96.5645 100.063 96.8994 100.838 96.8994C101.444 96.8994 101.92 96.7262 102.267 96.3799C102.618 96.0381 102.793 95.5482 102.793 94.9102V94.2744C102.292 94.8532 101.604 95.1426 100.729 95.1426C100.145 95.1426 99.6325 94.9808 99.1904 94.6572C98.7529 94.3337 98.4134 93.8893 98.1719 93.3242C97.9349 92.7546 97.8164 92.1097 97.8164 91.3896V91.2461C97.8164 90.4987 97.9349 89.8402 98.1719 89.2705C98.4089 88.7008 98.7484 88.2588 99.1904 87.9443C99.6325 87.6299 100.15 87.4727 100.742 87.4727C101.645 87.4727 102.349 87.7894 102.854 88.4229L102.909 87.6094H104.071ZM101.043 94.0762C101.836 94.0762 102.419 93.7139 102.793 92.9893V89.5918C102.62 89.2637 102.39 89.0062 102.103 88.8193C101.815 88.6279 101.467 88.5322 101.057 88.5322C100.615 88.5322 100.245 88.653 99.9492 88.8945C99.6576 89.1315 99.4411 89.4551 99.2998 89.8652C99.1631 90.2754 99.0947 90.7357 99.0947 91.2461V91.3896C99.0947 91.9001 99.1631 92.3581 99.2998 92.7637C99.4411 93.1647 99.6576 93.4837 99.9492 93.7207C100.241 93.9577 100.605 94.0762 101.043 94.0762ZM120.614 85.0527L118.208 95.0059H117.258H116.998L114.954 87.7393L114.804 86.9941L114.646 87.7393L112.527 95.0059H111.563H111.317L108.911 85.0527H110.237L111.803 91.875L111.994 93.1738L112.268 92.0049L114.236 85.0527H115.207H115.351L117.265 92.0049L117.538 93.2012L117.75 91.8682L119.281 85.0527H120.614ZM127.286 93.3926C127.286 93.6523 127.309 93.9212 127.354 94.1992C127.4 94.4727 127.464 94.7051 127.546 94.8965V95.0059H126.213C126.135 94.8281 126.076 94.5706 126.035 94.2334C125.78 94.5068 125.472 94.7279 125.112 94.8965C124.757 95.0605 124.365 95.1426 123.937 95.1426C123.444 95.1426 123.007 95.0469 122.624 94.8555C122.246 94.6595 121.952 94.3952 121.742 94.0625C121.537 93.7298 121.435 93.3607 121.435 92.9551C121.435 92.431 121.569 91.9867 121.838 91.6221C122.111 91.2575 122.496 90.984 122.993 90.8018C123.494 90.6149 124.085 90.5215 124.764 90.5215H126.008V89.9336C126.008 89.4824 125.873 89.1292 125.604 88.874C125.34 88.6143 124.957 88.4844 124.456 88.4844C124.151 88.4844 123.877 88.5391 123.636 88.6484C123.394 88.7533 123.205 88.8968 123.068 89.0791C122.936 89.2568 122.87 89.4505 122.87 89.6602H121.592C121.592 89.3001 121.715 88.9515 121.961 88.6143C122.207 88.277 122.553 88.0036 123 87.7939C123.447 87.5798 123.957 87.4727 124.531 87.4727C125.078 87.4727 125.557 87.5661 125.967 87.7529C126.382 87.9352 126.705 88.2132 126.938 88.5869C127.17 88.9561 127.286 89.4095 127.286 89.9473V93.3926ZM124.121 94.0488C124.413 94.0488 124.684 93.9987 124.935 93.8984C125.19 93.7936 125.409 93.6569 125.591 93.4883C125.773 93.3197 125.912 93.1374 126.008 92.9414V91.4102H124.969C124.24 91.4102 123.681 91.5264 123.294 91.7588C122.907 91.9867 122.713 92.3262 122.713 92.7773C122.713 93.0189 122.768 93.2354 122.877 93.4268C122.986 93.6182 123.146 93.7708 123.355 93.8848C123.565 93.9941 123.82 94.0488 124.121 94.0488ZM129.385 95.0059V84.5059H130.663V95.0059H129.385ZM132.789 95.0059V84.5059H134.067V95.0059H132.789ZM142.045 91.6562H137.041C137.055 92.1165 137.15 92.5335 137.328 92.9072C137.506 93.2809 137.757 93.5771 138.08 93.7959C138.408 94.0101 138.791 94.1172 139.229 94.1172C139.657 94.1172 140.026 94.0306 140.336 93.8574C140.65 93.6842 140.931 93.4359 141.177 93.1123L141.949 93.7139C141.676 94.1331 141.311 94.4772 140.855 94.7461C140.4 95.0104 139.835 95.1426 139.16 95.1426C138.486 95.1426 137.891 94.9899 137.376 94.6846C136.861 94.3792 136.462 93.9554 136.18 93.4131C135.902 92.8708 135.763 92.2555 135.763 91.5674V91.2734C135.763 90.5033 135.913 89.8311 136.214 89.2568C136.515 88.6781 136.911 88.236 137.403 87.9307C137.9 87.6253 138.431 87.4727 138.996 87.4727C139.684 87.4727 140.254 87.6276 140.705 87.9375C141.161 88.2428 141.498 88.6667 141.717 89.209C141.936 89.7513 142.045 90.3779 142.045 91.0889V91.6562ZM140.767 90.5352C140.73 89.9564 140.573 89.4733 140.295 89.0859C140.021 88.694 139.589 88.498 138.996 88.498C138.486 88.498 138.06 88.6849 137.718 89.0586C137.381 89.4277 137.169 89.9518 137.082 90.6309H140.767V90.5352ZM146.659 95.0059C146.368 95.097 146.042 95.1426 145.682 95.1426C145.167 95.1426 144.752 94.9876 144.438 94.6777C144.128 94.3678 143.973 93.8643 143.973 93.167V88.5732H142.626V87.6094H143.973V85.8115H145.251V87.6094H146.632V88.5732H145.251V93.1738C145.251 93.5247 145.324 93.7617 145.47 93.8848C145.616 94.0033 145.814 94.0625 146.064 94.0625C146.16 94.0625 146.265 94.0557 146.379 94.042C146.493 94.0238 146.584 94.0055 146.652 93.9873L146.659 95.0059Z" fill="#434D5A"/>
  <circle cx="184.263" cy="218.653" r="14.6535" transform="rotate(180 184.263 218.653)" fill="white"/>
  <path fill-rule="evenodd" clip-rule="evenodd" d="M185.454 212.793L184.172 214.018L188.11 217.78L176.936 217.78L176.936 219.529L188.11 219.529L184.172 223.291L185.454 224.516L191.59 218.654L185.454 212.793Z" fill="#434D5A"/>
  <path d="M47.1609 36.6195C45.1592 44.6521 37.0284 49.5548 28.9807 47.5522C20.9541 45.5491 16.0544 37.4126 18.0561 29.38C20.0573 21.3479 28.1886 16.4452 36.2152 18.4478C44.2629 20.4298 49.1622 28.5874 47.1609 36.6195Z" fill="#F8AE2A"/>
  <path d="M36.4635 31.0497C36.0257 32.9066 33.1483 32.0092 32.2102 31.7798L33.0027 28.4835C33.9197 28.7129 36.922 29.1096 36.4635 31.0497V31.0497ZM36.0045 36.3699C35.5254 38.4143 32.0641 37.3505 30.9592 37.0792L31.8141 33.4491C32.9397 33.7204 36.5048 34.221 36.0045 36.3699ZM39.7157 31.0497C39.9868 29.0467 38.4647 28.0035 36.3799 27.2941L37.0263 24.5821L35.3793 24.1858L34.754 26.8353C34.3162 26.7309 33.8783 26.6266 33.4405 26.5434L34.0658 23.8934L32.3981 23.4971L31.7517 26.2096C31.397 26.1259 31.0428 26.0634 30.6881 25.9797L28.4158 25.4377L27.9986 27.1902C27.9986 27.1902 29.229 27.461 29.1872 27.4822C29.8542 27.649 29.9792 28.0872 29.9585 28.4209L29.229 31.5086C29.2703 31.5297 29.3333 31.5297 29.3957 31.5711C29.3333 31.5504 29.2915 31.5504 29.229 31.5297L28.2279 35.848C28.1447 36.0568 27.9362 36.3487 27.4777 36.2448C27.4983 36.2655 26.2685 35.9524 26.2685 35.9524L25.476 37.8511L27.6233 38.3518C28.0198 38.4562 28.4158 38.5394 28.7911 38.6437L28.1447 41.3769L29.7918 41.7732L30.4382 39.0612C30.8967 39.1862 31.3345 39.2906 31.7517 39.3949L31.1053 42.0863L32.7523 42.4826L33.3987 39.7499C36.2131 40.2505 38.3186 40.0206 39.1736 37.4548C39.8618 35.4099 39.1111 34.2417 37.6102 33.4698C38.7151 33.2193 39.5072 32.5103 39.7157 31.0497Z" fill="white"/>
  <rect x="44.6084" y="18" width="30" height="30" rx="15" fill="#6B71D6"/>
  <path fill-rule="evenodd" clip-rule="evenodd" d="M59.8224 23.2915C59.7788 23.3968 58.463 25.6297 56.8982 28.2535C55.3334 30.8772 54.0402 33.0583 54.0242 33.1004C54.0034 33.1552 54.8535 33.6896 57.0049 34.9742L60.0149 36.7715L63.0239 34.9733C65.1857 33.6814 66.0248 33.1533 66.0038 33.098C65.8951 32.8116 60.0437 23.1 59.9799 23.1C59.9368 23.1 59.8659 23.1861 59.8224 23.2915M54.0313 34.393C54.1473 34.5933 59.99 42.9007 60.0144 42.9C60.0548 42.8987 66.0284 34.3683 66.0053 34.3449C65.9835 34.323 60.3999 37.6462 60.167 37.8198L60.0242 37.9262L57.1333 36.2014C55.5432 35.2528 54.1836 34.4383 54.1118 34.3916C53.9929 34.3142 53.9858 34.3143 54.0313 34.393" fill="white"/>
  <rect x="70.6084" y="18" width="30" height="30" rx="15" fill="#F5AC37"/>
  <path fill-rule="evenodd" clip-rule="evenodd" d="M79.7443 40.1433V40.1896L79.7421 40.1913V40.1991H85.1166C85.7249 40.2075 86.331 40.1589 86.9288 40.0517C87.5583 39.9282 88.1716 39.7339 88.7565 39.4703C89.0101 39.3527 89.2534 39.2105 89.4989 39.067C89.5611 39.0307 89.6234 38.9943 89.686 38.9582C89.9748 38.7521 90.2514 38.5287 90.5146 38.2914C91.2349 37.6391 91.7925 36.8254 92.141 35.9179C92.1644 35.8163 92.2637 35.7509 92.3657 35.7705H93.8294C93.9459 35.7705 93.9844 35.7314 93.9844 35.5996V34.6608C93.9922 34.5709 93.9922 34.4799 93.9844 34.39C93.9844 34.3665 93.9904 34.343 93.9964 34.3196C94.0084 34.273 94.0204 34.2265 93.9844 34.18H92.7616C92.6138 34.18 92.6138 34.1643 92.6138 34.0325C92.6562 33.5601 92.6562 33.086 92.6138 32.6135C92.606 32.4739 92.6373 32.4739 92.7454 32.4739H93.8143C93.9387 32.4739 93.9849 32.4426 93.9849 32.3186V31.0464C93.9811 30.9621 93.9791 30.9194 93.9568 30.8978C93.9338 30.8756 93.8894 30.8756 93.7993 30.8756H92.4131C92.3049 30.894 92.2012 30.8208 92.1817 30.7125C92.0228 30.2964 91.8204 29.8982 91.5767 29.5257C91.3314 29.1583 91.0548 28.8131 90.7482 28.4943C90.3406 28.0866 89.8828 27.7325 89.3855 27.4393C88.6355 27.0032 87.8153 26.6977 86.9616 26.5396C86.5474 26.4631 86.1286 26.4168 85.7071 26.4H79.8993C79.7443 26.4 79.7443 26.4313 79.7443 26.5553V30.7359C79.7443 30.8834 79.7131 30.8834 79.5971 30.8834H77.9322C77.8084 30.8834 77.8084 30.9063 77.8084 30.9917V32.3566C77.8084 32.4806 77.8469 32.4806 77.94 32.4806H79.6205C79.7443 32.4806 79.7443 32.5035 79.7443 32.5967V34.0549C79.7443 34.1867 79.7053 34.1867 79.6049 34.1867H77.8084V35.6605C77.8084 35.7844 77.8469 35.7844 77.94 35.7844H79.6205C79.7443 35.7844 79.7443 35.7995 79.7443 35.9006V37.7234V38.3361V40.1433ZM90.4393 30.7505C90.4527 30.7851 90.4527 30.8236 90.4393 30.8588H90.4766C90.461 30.9052 90.3835 30.9208 90.3835 30.9208H81.4472C81.3 30.9208 81.3 30.8895 81.3 30.7734V28.0201C81.3 27.9191 81.3156 27.8727 81.4316 27.8727H85.59C86.0327 27.8688 86.4743 27.9151 86.9064 28.0123C87.7629 28.2156 88.5597 28.6199 89.2299 29.1912C89.3637 29.2912 89.483 29.409 89.5862 29.5403C89.8048 29.7575 89.9966 29.9993 90.1594 30.2618C90.2675 30.4154 90.3607 30.579 90.4393 30.7505ZM90.8101 34.1783H86.1019H81.4862C81.3921 34.1783 81.3457 34.1783 81.3228 34.1551C81.3005 34.1325 81.3005 34.088 81.3005 34.0002V32.6196C81.3005 32.5107 81.3318 32.4722 81.4477 32.4722H90.8179C90.9188 32.4722 90.9651 32.5107 90.9651 32.604C91.0035 33.0843 91.0035 33.5668 90.9651 34.0465C90.9578 34.1783 90.9104 34.1783 90.8101 34.1783ZM90.4393 35.7917C90.3077 35.7772 90.175 35.7772 90.0434 35.7917H81.4555C81.3396 35.7917 81.3005 35.7917 81.3005 35.947V38.6388C81.3005 38.7627 81.3005 38.794 81.4555 38.794H85.4205C85.6101 38.8085 85.7997 38.7951 85.9853 38.7555C86.5608 38.7142 87.1267 38.5891 87.6664 38.383C87.8627 38.3148 88.0523 38.2261 88.2313 38.1194H88.2853C89.2148 37.6352 89.9698 36.8746 90.446 35.9408C90.446 35.9408 90.5001 35.8235 90.4393 35.7928V35.7917Z" fill="#FEFEFD"/>
  <rect x="97.6084" y="18" width="30" height="30" rx="15" fill="#2FCF6E"/>
  <path fill-rule="evenodd" clip-rule="evenodd" d="M114.727 29.6038C115.248 31.2014 112.573 31.9434 111.73 32.2323L110.818 29.3888C111.644 29.1102 114.184 27.9341 114.727 29.6038ZM116.843 33.7911C117.419 35.5487 114.208 36.4529 113.215 36.7925L112.197 33.6697C113.206 33.3201 116.235 31.9455 116.843 33.7911ZM112.914 26.8477L112.158 24.511L110.682 25.0231L111.425 27.3029C111.033 27.4397 110.641 27.5766 110.259 27.7293L109.516 25.4491L108.023 25.9714L108.778 28.3084C108.461 28.42 108.154 28.547 107.837 28.6585L105.803 29.3686L106.291 30.8783C106.291 30.8783 107.382 30.477 107.359 30.5132C107.96 30.3105 108.262 30.5756 108.401 30.8343L109.266 33.4915C109.308 33.487 109.357 33.4562 109.426 33.4564C109.367 33.4716 109.334 33.4921 109.276 33.5073L110.5 37.2142C110.532 37.4104 110.504 37.7301 110.096 37.8774C110.122 37.8827 109.012 38.2523 109.012 38.2523L109.274 40.0549L111.191 39.3753C111.551 39.2587 111.9 39.1265 112.243 39.0203L113.008 41.3728L114.484 40.8606L113.729 38.5239C114.147 38.3923 114.539 38.2555 114.915 38.1287L115.66 40.45L117.137 39.9379L116.372 37.5858C118.813 36.5792 120.357 35.3759 119.834 33.0459C119.422 31.1855 118.289 30.6834 116.753 30.8442C117.503 30.116 117.794 29.1998 117.278 28.0097C116.558 26.385 114.879 26.3541 112.914 26.8477Z" fill="white"/>
</svg>
