<svg width="112" height="237" viewBox="0 0 112 237" fill="none" xmlns="http://www.w3.org/2000/svg">
<path d="M21.6417 236.261C22.8902 237.35 24.7853 237.221 25.8746 235.972L43.625 215.627C44.7142 214.379 44.5851 212.484 43.3367 211.394C42.0882 210.305 40.1931 210.434 39.1038 211.683L23.3257 229.767L5.24116 213.989C3.99268 212.9 2.09758 213.029 1.00833 214.277C-0.080925 215.526 0.0481529 217.421 1.29663 218.51L21.6417 236.261ZM102.121 1.61006C108.718 33.3743 106.286 54.0735 99.44 69.6208C92.5509 85.2663 81.0597 96.0713 68.5067 107.952C56.0358 119.755 42.6594 132.51 33.1455 151.789C23.6106 171.112 18.0682 196.725 20.6209 234.204L26.6071 233.796C24.1088 197.117 29.5619 172.61 38.5261 154.444C47.5114 136.236 60.1379 124.134 72.6311 112.31C85.0423 100.563 97.4764 88.9689 104.931 72.0388C112.429 55.0106 114.76 32.9581 107.996 0.389944L102.121 1.61006Z" fill="white"/>
</svg>
