<svg width="17" height="20" viewBox="0 0 17 20" fill="none" xmlns="http://www.w3.org/2000/svg">
<path fill-rule="evenodd" clip-rule="evenodd" d="M15.8331 8.33354H13.3331V5.00859C13.3562 2.26881 11.1563 0.0278306 8.41652 0.000345481H8.34152C7.02441 -0.0152064 5.75541 0.494854 4.81544 1.41762C3.87547 2.34039 3.34205 3.59975 3.33328 4.91693V8.33354H0.833319C0.37309 8.33354 0 8.70662 0 9.16685V19.1667C0 19.6269 0.37309 20 0.833319 20H15.8331C16.2933 20 16.6664 19.6269 16.6664 19.1667V9.16685C16.6664 8.70662 16.2933 8.33354 15.8331 8.33354ZM8.33319 15.8334C7.41273 15.8334 6.66655 15.0872 6.66655 14.1668C6.66655 13.2463 7.41273 12.5001 8.33319 12.5001C9.25365 12.5001 9.99983 13.2463 9.99983 14.1668C9.99983 15.0872 9.25365 15.8334 8.33319 15.8334ZM4.99991 8.33354H11.6665V5.00026C11.6864 3.18038 10.2281 1.68849 8.40819 1.66698H8.29902C6.49243 1.66594 5.02137 3.1188 4.99991 4.92526V8.33354Z" fill="#C2C7D3"/>
</svg>
