<svg width="45" height="45" viewBox="0 0 38 25" fill="none" xmlns="http://www.w3.org/2000/svg">
<mask id="mask0_65_1743" style="mask-type:alpha" maskUnits="userSpaceOnUse" x="0" y="0" width="38" height="25">
<path fill-rule="evenodd" clip-rule="evenodd" d="M0 0H38V24.7112H0V0Z" fill="white"/>
</mask>
<g mask="url(#mask0_65_1743)">
<path fill-rule="evenodd" clip-rule="evenodd" d="M34.5956 -0.00109863H3.39039C3.2604 -0.00109863 3.13019 -0.00109863 3.00043 -0.000398995C2.89088 0.000533856 2.78133 0.00169992 2.67201 0.00473168C2.43339 0.0112616 2.19271 0.0254876 1.9573 0.068632C1.71777 0.112243 1.495 0.183606 1.27774 0.296014C1.06392 0.406324 0.86848 0.550682 0.69899 0.722793C0.52927 0.895138 0.38711 1.09337 0.27848 1.31049C0.167783 1.53134 0.0975065 1.75756 0.0547895 2.0008C0.0120725 2.24031 -0.00193688 2.48448 -0.0083674 2.72656C-0.011353 2.8378 -0.012731 2.94881 -0.0134199 3.05982C-0.0141089 3.19182 -0.0138793 3.32381 -0.0138793 3.45605V21.2544C-0.0138793 21.3866 -0.0141089 21.5181 -0.0134199 21.6506C-0.012731 21.7616 -0.011353 21.8728 -0.0083674 21.9839C-0.00193688 22.2259 0.0120725 22.4699 0.0547895 22.7094C0.0975065 22.9529 0.167783 23.1788 0.27848 23.3997C0.38711 23.6168 0.52927 23.8153 0.69899 23.9872C0.86848 24.16 1.06392 24.3041 1.27774 24.4142C1.495 24.5268 1.71777 24.5982 1.9573 24.642C2.19271 24.6847 2.43339 24.6992 2.67201 24.7057C2.78133 24.7082 2.89088 24.7099 3.00043 24.7103C3.13019 24.7113 3.2604 24.7113 3.39039 24.7113H34.5956C34.7254 24.7113 34.8556 24.7113 34.9854 24.7103C35.0947 24.7099 35.2042 24.7082 35.314 24.7057C35.5522 24.6992 35.7926 24.6847 36.0289 24.642C36.268 24.5982 36.4908 24.5268 36.7081 24.4142C36.9221 24.3041 37.1171 24.16 37.287 23.9872C37.4563 23.8153 37.5982 23.6168 37.7073 23.3997C37.818 23.1788 37.8885 22.9529 37.9312 22.7094C37.9737 22.4699 37.9875 22.2259 37.9939 21.9839C37.9969 21.8728 37.9985 21.7616 37.999 21.6506C37.9999 21.5181 37.9999 21.3866 37.9999 21.2544V3.45605C37.9999 3.32381 37.9999 3.19182 37.999 3.05982C37.9985 2.94881 37.9969 2.8378 37.9939 2.72656C37.9875 2.48448 37.9737 2.24031 37.9312 2.0008C37.8885 1.75756 37.818 1.53134 37.7073 1.31049C37.5982 1.09337 37.4563 0.895138 37.287 0.722793C37.1171 0.550682 36.9221 0.406324 36.7081 0.296014C36.4908 0.183606 36.268 0.112243 36.0289 0.068632C35.7926 0.0254876 35.5522 0.0112616 35.314 0.00473168C35.2042 0.00169992 35.0947 0.000533856 34.9854 -0.000398995C34.8556 -0.00109863 34.7254 -0.00109863 34.5956 -0.00109863" fill="#000003"/>
</g>
<path fill-rule="evenodd" clip-rule="evenodd" d="M34.596 0.822632L34.9797 0.823331C35.0838 0.824031 35.1878 0.825197 35.2923 0.828229C35.4742 0.833126 35.6871 0.843155 35.8855 0.879303C36.0578 0.910786 36.2024 0.958828 36.3412 1.03042C36.4783 1.10109 36.6037 1.19367 36.7132 1.30492C36.8232 1.41686 36.9146 1.54442 36.9851 1.68505C37.0554 1.82498 37.1022 1.97097 37.1333 2.14728C37.1686 2.34668 37.1783 2.56333 37.1836 2.74897C37.1863 2.85415 37.1875 2.95886 37.1881 3.06637C37.1891 3.19604 37.1891 3.32594 37.1891 3.45607V21.2544C37.1891 21.3845 37.1891 21.5142 37.1879 21.6467C37.1875 21.7516 37.1863 21.8565 37.1836 21.9617C37.1783 22.1474 37.1686 22.3635 37.1328 22.5653C37.1023 22.7393 37.0554 22.8855 36.9849 23.0259C36.9144 23.1663 36.8232 23.2938 36.7137 23.4048C36.6034 23.5168 36.4785 23.6091 36.3398 23.6805C36.202 23.7519 36.0578 23.7999 35.8869 23.8309C35.6846 23.8678 35.4632 23.8778 35.296 23.8822C35.191 23.8848 35.0865 23.8862 34.9793 23.8867C34.8518 23.8878 34.7236 23.8878 34.596 23.8878H3.39071C3.38911 23.8878 3.3875 23.8878 3.38566 23.8878C3.25958 23.8878 3.13303 23.8878 3.00465 23.8867C2.89993 23.8862 2.7952 23.8848 2.69415 23.8825C2.52351 23.8778 2.30166 23.8678 2.10094 23.8312C1.92892 23.7999 1.78446 23.7519 1.64483 23.6796C1.50772 23.6089 1.38255 23.5168 1.27232 23.4044C1.163 23.2936 1.07205 23.1665 1.00178 23.0259C0.93127 22.8857 0.88419 22.739 0.853185 22.5629C0.817588 22.3619 0.807713 22.1462 0.80289 21.9617C0.799904 21.8563 0.798756 21.7507 0.798067 21.6457L0.797607 21.3362V3.37421L0.798067 3.0652C0.798756 2.95979 0.799904 2.85438 0.80289 2.74873C0.807713 2.56426 0.817588 2.34854 0.853645 2.14565C0.88419 1.9712 0.93127 1.82475 1.00201 1.68365C1.07182 1.54419 1.163 1.41686 1.27301 1.30515C1.38255 1.19391 1.50795 1.10132 1.64598 1.03019C1.784 0.958828 1.92869 0.910786 2.10094 0.879303C2.29936 0.843155 2.51226 0.833126 2.69461 0.828229C2.79842 0.825197 2.90245 0.824031 3.00557 0.823331L3.39071 0.822632H34.596" fill="#FFFFFE"/>
<path fill-rule="evenodd" clip-rule="evenodd" d="M10.3636 8.31062C10.6893 7.89737 10.91 7.34232 10.8519 6.77515C10.3753 6.79917 9.79384 7.09418 9.45716 7.5079C9.15492 7.86215 8.8876 8.44052 8.95718 8.98414C9.49206 9.03101 10.0265 8.71268 10.3636 8.31062" fill="#000003"/>
<path fill-rule="evenodd" clip-rule="evenodd" d="M10.8457 9.09017C10.069 9.04329 9.40847 9.53794 9.03757 9.53794C8.66643 9.53794 8.09848 9.11396 7.48414 9.12538C6.68446 9.13728 5.94242 9.59647 5.53684 10.3267C4.70202 11.7873 5.31636 13.9543 6.12822 15.1439C6.52209 15.7325 6.99726 16.3804 7.62308 16.3573C8.21446 16.3338 8.44619 15.9685 9.16503 15.9685C9.88341 15.9685 10.0922 16.3573 10.7182 16.3456C11.3675 16.3338 11.7733 15.7566 12.1674 15.1675C12.6196 14.4965 12.8045 13.8486 12.8162 13.813C12.8045 13.8011 11.5645 13.3181 11.553 11.8696C11.5411 10.6567 12.5266 10.0797 12.573 10.044C12.0165 9.20817 11.1472 9.11396 10.8457 9.09017" fill="#000003"/>
<path fill-rule="evenodd" clip-rule="evenodd" d="M15.6976 12.1139H17.2471C18.423 12.1139 19.092 11.4711 19.092 10.3569C19.092 9.24257 18.423 8.60566 17.2531 8.60566H15.6976V12.1139ZM17.6088 7.44861C19.297 7.44861 20.4724 8.6303 20.4724 10.3507C20.4724 12.0774 19.2727 13.2654 17.5663 13.2654H15.6973V16.2836H14.3467V7.44861H17.6088V7.44861Z" fill="#000003"/>
<path fill-rule="evenodd" clip-rule="evenodd" d="M24.9197 13.8715V13.3635L23.3582 13.4615C22.5803 13.5165 22.1401 13.8654 22.1401 14.4165C22.1401 14.9797 22.5985 15.347 23.2978 15.347C24.2082 15.347 24.9197 14.7104 24.9197 13.8715ZM20.8257 14.4531C20.8257 13.3264 21.6757 12.6347 23.1834 12.5489L24.9196 12.4449V11.9491C24.9196 11.2326 24.4433 10.8042 23.6475 10.8042C22.8938 10.8042 22.4234 11.1713 22.3088 11.7469H21.079C21.1513 10.5836 22.1281 9.72632 23.6958 9.72632C25.2333 9.72632 26.2161 10.5531 26.2161 11.8448V16.2838H24.9679V15.2245H24.938C24.5701 15.941 23.7681 16.3941 22.936 16.3941C21.694 16.3941 20.8257 15.6103 20.8257 14.4531V14.4531Z" fill="#000003"/>
<path fill-rule="evenodd" clip-rule="evenodd" d="M27.3945 18.6534V17.5818C27.4908 17.6063 27.7078 17.6063 27.8164 17.6063C28.4193 17.6063 28.7449 17.3491 28.9438 16.6879C28.9438 16.6758 29.0584 16.2961 29.0584 16.2898L26.7673 9.84265H28.1781L29.7821 15.0839H29.8062L31.4102 9.84265H32.7849L30.4091 16.6205C29.8664 18.1821 29.2394 18.684 27.9251 18.684C27.8164 18.684 27.4908 18.6716 27.3945 18.6534" fill="#000003"/>
</svg>
