<svg width="20" height="19" viewBox="0 0 20 19" fill="none" xmlns="http://www.w3.org/2000/svg">
<path d="M8.28696 7.53931L2.33795 13.3939V17.3661L12.3232 7.53931H8.28696Z" fill="#C2C7D3"/>
<path d="M7.42035 7.53931H2.64438C2.47501 7.53931 2.33795 7.67433 2.33795 7.84087V12.541L7.42035 7.53931Z" fill="#C2C7D3"/>
<path d="M17.6615 7.96539L6.45059 18.9984H11.0997L17.6615 12.5407V7.96539Z" fill="#C2C7D3"/>
<path d="M11.9651 18.9988H17.3539C17.5233 18.9988 17.6603 18.8638 17.6603 18.6973V13.394L11.9651 18.9988Z" fill="#C2C7D3"/>
<path d="M17.226 7.53931H13.1898L2.33795 18.2189V18.6972C2.33795 18.8637 2.47501 18.9987 2.64438 18.9987H5.58178L17.226 7.53931Z" fill="#C2C7D3"/>
<path fill-rule="evenodd" clip-rule="evenodd" d="M19.1926 3.92033H15.6019C15.9319 3.50986 16.1283 2.98827 16.1283 2.41251C16.1283 1.05975 15.0516 0 13.6769 0C11.7683 0 10.6181 1.44852 9.99976 2.6178C9.38144 1.44852 8.23121 0 6.32262 0C4.94788 0 3.8712 1.05975 3.8712 2.41251C3.8712 2.98827 4.0676 3.50986 4.39764 3.92033H0.806916C0.637543 3.92033 0.500488 4.05536 0.500488 4.22189V6.63441C0.500488 6.80095 0.637543 6.93597 0.806916 6.93597H19.1926C19.362 6.93597 19.499 6.80095 19.499 6.63441V4.22189C19.499 4.05536 19.362 3.92033 19.1926 3.92033ZM13.6767 1.20667C14.3754 1.20667 14.9024 1.72527 14.9024 2.41292C14.9024 3.10057 14.3754 3.61918 13.6767 3.61918H10.8742C11.2881 2.68076 12.1769 1.20667 13.6767 1.20667ZM9.12403 3.61918C8.71048 2.68106 7.82142 1.20667 6.32159 1.20667C5.62285 1.20667 5.09588 1.72527 5.09588 2.41292C5.09588 3.10057 5.62285 3.61918 6.32159 3.61918H9.12403Z" fill="#C2C7D3"/>
</svg>
