<svg width="22" height="20" viewBox="0 0 22 20" fill="none" xmlns="http://www.w3.org/2000/svg">
<path fill-rule="evenodd" clip-rule="evenodd" d="M13.3924 9.09091H12.4996C11.5134 9.09091 10.7139 8.27688 10.7139 7.27273V1.81818C10.7139 0.814028 11.5134 0 12.4996 0H19.6424C20.6287 0 21.4282 0.814028 21.4282 1.81818V7.27273C21.4282 8.27688 20.6287 9.09091 19.6424 9.09091H16.9639L13.3924 11.8182V9.09091Z" fill="#C2C7D3"/>
<path fill-rule="evenodd" clip-rule="evenodd" d="M18.75 20.0004H0.892857C0.399746 20.0004 0 19.5933 0 19.0913V4.54581C0 4.04373 0.399746 3.63672 0.892857 3.63672H8.92857V5.4549H1.78571V18.1822H17.8571V10.9094H19.6429V19.0913C19.6429 19.5933 19.2431 20.0004 18.75 20.0004Z" fill="#C2C7D3"/>
<ellipse cx="7.14314" cy="10.0008" rx="1.78571" ry="1.81818" fill="#C2C7D3"/>
<path fill-rule="evenodd" clip-rule="evenodd" d="M7.14272 12.7275C9.11516 12.7275 10.7141 14.3556 10.7141 16.3639H3.57129C3.57129 14.3556 5.17027 12.7275 7.14272 12.7275Z" fill="#C2C7D3"/>
</svg>
