<svg width="21px" height="20px" viewBox="0 0 21 20" version="1.1" xmlns="http://www.w3.org/2000/svg" xmlns:xlink="http://www.w3.org/1999/xlink">
    <title>Group 7</title>
    <g id="1.1-Token-Provisioning" stroke="none" stroke-width="1" fill="none" fill-rule="evenodd">
        <g id="1.1-Card---Settings---Google" transform="translate(-30.000000, -574.000000)" fill-rule="nonzero">
            <g id="Group-7" transform="translate(30.500000, 574.000000)">
                <g id="Group-6" transform="translate(0.500000, 0.000000)">
                    <path d="M18.8844993,10.2284339 C18.8853028,9.54697828 18.8297942,8.86670644 18.718575,8.19510054 L9.63336375,8.19510054 L9.63336375,12.0464894 L14.8369553,12.0464894 C14.6217884,13.2894784 13.9267257,14.3872569 12.9128708,15.0853783 L12.9128708,17.5853783 L16.0184342,17.5853783 C17.8368145,15.8451005 18.8844993,13.2714894 18.8844993,10.2284339 Z" id="Path" fill="#4285F4"></path>
                    <path d="M9.63336375,20.0006561 C12.2331525,20.0006561 14.4221666,19.114545 16.0184342,17.5867672 L12.9128708,15.0867672 C12.0485046,15.6951005 10.9352652,16.0423228 9.63336375,16.0423228 C7.12054685,16.0423228 4.98772995,14.2839894 4.22505389,11.914545 L1.02582854,11.914545 L1.02582854,14.4909339 C2.66110487,17.8686519 5.99154823,20.0004838 9.63336375,20.0006561 Z" id="Path" fill="#34A853"></path>
                    <path d="M4.22505389,11.914545 C3.82185442,10.67294 3.82185442,9.32837221 4.22505389,8.0867672 L4.22505389,5.51037832 L1.02582854,5.51037832 C-0.341942847,8.33555596 -0.341942847,11.6657562 1.02582854,14.4909339 L4.22505389,11.914545 Z" id="Path" fill="#FBBC04"></path>
                    <path d="M9.63336375,3.95898943 C11.0072344,3.93569083 12.3347581,4.47451196 13.3289976,5.45898943 L13.3289976,5.45898943 L16.0786454,2.60482276 C14.3350824,0.904928056 12.0252486,-0.0283426015 9.63336375,0.000656093611 C5.99154823,0.000828382105 2.66110487,2.13266024 1.02582854,5.51037832 L4.22505389,8.0867672 C4.98772995,5.71732276 7.12054685,3.95898943 9.63336375,3.95898943 Z" id="Path" fill="#EA4335"></path>
                </g>
            </g>
        </g>
    </g>
</svg>
