<svg width="21" height="20" viewBox="0 0 21 20" fill="none" xmlns="http://www.w3.org/2000/svg">
<path fill-rule="evenodd" clip-rule="evenodd" d="M10.3585 0.266364L20.3584 10.2664C20.7139 10.6218 20.7139 11.1973 20.3584 11.5518L12.1767 19.7336C11.9994 19.9109 11.7667 20 11.534 20C11.3012 20 11.0685 19.9118 10.8912 19.7336L0.891361 9.73364C0.720453 9.56364 0.625 9.33182 0.625 9.09091V0.909091C0.625 0.407273 1.03227 0 1.53408 0H9.71581C9.95671 0 10.1885 0.0963636 10.3585 0.266364ZM4.26132 5.45455C4.26132 6.45909 5.07495 7.27273 6.07948 7.27273C7.08402 7.27273 7.89764 6.45909 7.89764 5.45455C7.89764 4.45 7.08402 3.63636 6.07948 3.63636C5.07495 3.63636 4.26132 4.45 4.26132 5.45455Z" fill="#C2C7D3"/>
</svg>
