<svg xmlns="http://www.w3.org/2000/svg" width="20.13" height="20.13" viewBox="0 0 20.13 20.13">
  <path fill="#C2C7D3" fill-rule="evenodd" d="M10.0652174.0652174c-5.51416684 0-10 4.48583316-10 10 0 5.51416682 4.48583316 10 10 10 5.51416682 0 10-4.48583318 10-10 0-5.51416684-4.48583318-10-10-10zm-.03999997 5.4166665c0 .69000006.56000042 1.25 1.25 1.25s1.25-.55999994 1.25-1.25-.56000042-1.25-1.25-1.25-1.25.55999994-1.25 1.25zm2.25500011 9.81999922c-.04399395.01730442-.09665203.03904247-.15687084.0639019-.69376182.28639316-2.39098358.98702621-3.40312958.09526539-.3283329-.28833294-.49166584-.65416622-.49166584-1.09833336 0-.831666.2733326-1.55666638.7658329-3.29749966.08666707-.32916736.19250012-.75583362.19250012-1.09416675 0-.58416653-.22166729-.73916722-.82250023-.73916722-.29333305 0-.61833334.10416699-.9124999.21416664l.1624999-.66583347c.65583325-.26666641 1.47916699-.59166622 2.1841669-.59166622 1.0574999 0 1.8358326.52750015 1.8358326 1.53083324 0 .28916645-.04999923.7958336-.15499877 1.14583302l-.6083336 2.15166664c-.1258335.43500042-.35333347 1.39416695-.0008335 1.67833328.34666633.2808342 1.16749954.13166714 1.57250023-.05916595l-.16250039.66583252z"/>
</svg>