<svg width="35" height="35" viewBox="0 0 35 35" fill="none" xmlns="http://www.w3.org/2000/svg">
<circle cx="17.5" cy="17.5" r="17.5" fill="#F5F7F8"/>
<rect x="9.87781" y="11.7464" width="2.39283" height="4.95" rx="1.19642" transform="rotate(-90 9.87781 11.7464)" fill="#2240C4"/>
<rect x="9.87781" y="9.35358" width="2.39283" height="4.95" rx="1.19642" fill="#2240C4"/>
<rect x="22.6799" y="9.35358" width="2.39283" height="4.95" rx="1.19642" fill="#2240C4"/>
<rect x="25.0728" y="9.35358" width="2.39283" height="4.95" rx="1.19642" transform="rotate(90 25.0728 9.35358)" fill="#2240C4"/>
<rect x="12.2706" y="25.6464" width="2.39283" height="4.95" rx="1.19642" transform="rotate(180 12.2706 25.6464)" fill="#2240C4"/>
<rect x="9.87781" y="25.6464" width="2.39283" height="4.95" rx="1.19642" transform="rotate(-90 9.87781 25.6464)" fill="#2240C4"/>
<rect x="25.0729" y="23.2536" width="2.39283" height="4.95" rx="1.19642" transform="rotate(90 25.0729 23.2536)" fill="#2240C4"/>
<rect x="25.0729" y="25.6464" width="2.39283" height="4.95" rx="1.19642" transform="rotate(-180 25.0729 25.6464)" fill="#2240C4"/>
<rect x="6.90503" y="18.6964" width="2.39" height="21.19" rx="1.195" transform="rotate(-90 6.90503 18.6964)" fill="#2240C4"/>
</svg>
