<svg width="34" height="35" viewBox="0 0 34 35" fill="none" xmlns="http://www.w3.org/2000/svg">
<path opacity="0.2" fill-rule="evenodd" clip-rule="evenodd" d="M17 34.5C7.61116 34.5 0 26.8888 0 17.5C0 8.11116 7.61116 0.5 17 0.5C26.3888 0.5 34 8.11116 34 17.5C34 26.8888 26.3888 34.5 17 34.5Z" fill="#E1E4E7"/>
<path d="M10.8602 19.4089L11.3996 15.4166L6.71338 12.2195L10.995 13.6441L12.0064 12.1201L15.6981 9.86719L23.8399 14.2736L24.2613 20.9992L20.6371 25.9523L17.7715 26.383L19.2549 23.7159V21.1483L18.176 19.1438L17.0803 18.4315L15.3946 20.1378V21.9435L14.0798 23.1527L12.411 23.3515L11.6693 23.7656L10.4556 23.3846L9.94989 21.5956L10.8602 20.3366V19.4089Z" fill="white"/>
<path d="M18.3446 12.1864C17.4512 12.0042 16.4735 12.0539 16.4735 12.0539C16.4735 12.0539 16.1532 13.5117 14.1641 13.8927C14.181 13.8927 16.7938 14.7706 18.3446 12.1864Z" fill="#94A6C3"/>
<path d="M19.1537 25.4057C20.2325 24.5775 21.0417 23.4344 21.4125 22.1423C21.4294 22.0926 21.5811 22.0098 21.6822 21.9435C21.8508 21.8441 22.0194 21.7613 22.0531 21.6288C22.1205 21.2478 22.1542 20.8502 22.1542 20.4526C22.1542 20.3035 22.0025 20.1544 21.8508 20.0054C21.7328 19.906 21.6148 19.79 21.6148 19.7072C21.4462 18.1997 20.7383 16.7917 19.6089 15.7646L19.4909 15.8806C20.5866 16.8911 21.2945 18.266 21.4462 19.7238C21.4631 19.8563 21.5979 19.9888 21.7328 20.1213C21.8508 20.2207 21.9856 20.3698 21.9856 20.4361C21.9856 20.8171 21.9519 21.1981 21.8845 21.5791C21.8676 21.6453 21.7159 21.7116 21.5979 21.7779C21.4294 21.8607 21.2777 21.9435 21.244 22.0761C20.8394 23.4841 19.9123 24.71 18.6817 25.5051C18.9008 25.0413 19.592 23.5338 19.9628 22.7718L19.8954 20.3201L17.7546 18.2826L16.5409 18.4482L15.2092 20.5686C15.2092 20.5686 15.8329 21.3472 14.9564 22.2583C14.0967 23.1528 13.4224 23.3516 13.4224 23.3516L12.7987 23.0203C12.9841 22.7884 13.3549 22.4405 13.6415 22.2086C14.1304 21.811 14.6192 21.7779 14.6192 21.3472C14.6361 20.4526 13.6584 20.7011 13.6584 20.7011L13.3044 21.0324L13.1527 22.2583L12.411 23.1694L12.3267 23.1528L11.113 22.8878C11.113 22.8878 11.8547 22.5068 11.9727 22.0761C12.0907 21.6619 11.7367 20.287 11.7198 20.2042C11.7367 20.2207 12.0739 20.5023 12.2256 20.9662C12.4953 20.2373 12.8492 19.5416 12.9504 19.4753C13.0515 19.409 14.4169 18.6967 14.4169 18.6967L13.9618 19.8728L14.2989 19.6906L15.1081 17.7359C15.1081 17.7359 15.9003 17.3549 16.4903 17.3549C17.5523 17.3383 19.12 16.0628 18.412 13.7767C18.6143 13.8596 22.1205 15.5824 22.7274 18.9617C23.1825 21.5625 21.6822 23.9976 19.1537 25.4057Z" fill="#94A6C3"/>
<path d="M15.1418 12.5509C15.5296 12.1037 15.3778 11.441 15.3778 11.441L14.2484 13.081C14.2316 13.081 14.653 13.0976 15.1418 12.5509Z" fill="#1B314F"/>
<path d="M11.349 21.5128L11.4838 20.8502C11.4838 20.8502 10.9276 21.811 10.877 21.9435C10.8265 22.0927 10.9107 22.3577 11.1299 22.3411C11.349 22.3245 11.6187 22.0098 11.6187 21.7779C11.6187 21.4797 11.349 21.5128 11.349 21.5128Z" fill="#1B314F"/>
<path d="M21.362 10.9772C21.362 10.9772 22.2048 11.0103 23.0813 11.1097C21.1091 9.58567 19.238 9.13841 17.7209 9.13841C15.6306 9.13841 14.2147 9.98325 14.1304 10.0329L14.7878 9.00588C14.7878 9.00588 12.1581 8.7574 11.231 11.4907C10.995 10.9109 10.7759 10.0661 10.7759 10.0661C10.7759 10.0661 9.41047 11.2422 10.051 13.1969C8.48334 12.6337 6.24139 11.8551 6.15711 11.8386C6.03911 11.822 6.00539 11.8717 6.00539 11.8717C6.00539 11.8717 5.97168 11.9214 6.07282 12.0042C6.25825 12.1533 9.79818 14.721 10.5736 15.2179C10.405 15.8143 10.405 16.0959 10.5736 16.3775C10.8096 16.7585 10.8264 16.9573 10.7927 17.2389C10.759 17.5206 10.4556 19.9557 10.3882 20.2538C10.3207 20.552 9.61275 21.6122 9.64647 21.927C9.68018 22.2417 10.1185 23.5835 10.5062 23.7326C10.7927 23.832 11.5007 24.0473 11.9727 24.0473C12.1413 24.0473 12.293 24.0142 12.3604 23.9479C12.647 23.6994 12.7313 23.6498 12.9335 23.6498C12.9504 23.6498 12.9672 23.6498 12.9841 23.6498C13.0684 23.6498 13.1695 23.6663 13.2875 23.6663C13.5573 23.6663 13.9112 23.6166 14.1641 23.3847C14.5349 23.0203 15.1755 22.5233 15.3778 22.2914C15.6306 21.9766 15.7655 21.5459 15.6981 21.1153C15.6475 20.7177 15.8666 20.3698 16.1195 20.0219C16.4398 19.6078 17.0297 18.8623 17.0297 18.8623C18.1929 19.7237 18.9177 21.0324 18.9177 22.4902C18.9177 25.0744 16.6252 27.1616 13.7933 27.1616C13.3549 27.1616 12.9335 27.1119 12.5121 27.0125C13.8101 27.4598 14.9058 27.6089 15.7992 27.6089C17.704 27.6089 18.7154 26.9297 18.7154 26.9297C18.7154 26.9297 18.3614 27.377 17.7883 27.8905C17.8052 27.8905 17.8052 27.8905 17.8052 27.8905C20.9574 27.4598 22.4914 24.9087 22.4914 24.9087C22.4914 24.9087 22.3734 25.737 22.2217 26.3002C26.419 23.2025 25.711 19.3262 25.6942 19.1936C25.7279 19.2434 26.1493 19.7403 26.3685 20.0053C27.0427 13.1804 21.362 10.9772 21.362 10.9772ZM14.9058 21.8773C14.8383 21.9601 14.5518 22.2086 14.3495 22.3908C14.1472 22.573 13.9281 22.7552 13.7595 22.9209C13.6921 22.9871 13.5573 23.0203 13.3549 23.0203C13.2875 23.0203 13.2201 23.0203 13.1695 23.0203C13.1358 23.0203 13.1021 23.0203 13.0684 23.0203C13.0347 23.0203 13.0178 23.0203 13.001 23.0203C12.9504 23.0203 12.8998 23.0203 12.8492 23.0203C13.1021 22.689 13.8438 21.927 14.0967 21.7613C14.4001 21.5625 14.5518 21.3637 14.3664 21.0158C14.1809 20.668 13.6921 20.7508 13.6921 20.7508C13.6921 20.7508 13.9787 20.6348 14.2315 20.6348C13.9112 20.552 13.5067 20.6348 13.3212 20.8171C13.119 20.9993 13.1527 21.6453 13.0684 22.0595C12.9841 22.4902 12.6975 22.7055 12.2593 23.1031C12.0233 23.3184 11.8547 23.3847 11.7198 23.3847C11.4333 23.335 11.0961 23.2522 10.8602 23.1693C10.6916 22.954 10.4387 22.2417 10.3713 21.9435C10.4219 21.7779 10.6242 21.43 10.7253 21.2312C10.9276 20.8502 11.0456 20.6348 11.0793 20.4361C11.1467 20.1545 11.3659 18.415 11.4501 17.6862C11.6693 17.9678 11.9727 18.4317 11.9053 18.7298C12.3941 18.0506 12.0402 17.388 11.8715 17.123C11.7198 16.8579 11.5176 16.3278 11.6861 15.7646C11.8547 15.2014 12.4616 13.6442 12.4616 13.6442C12.4616 13.6442 12.6638 13.9921 12.9504 13.9258C13.2369 13.8596 15.5463 10.4471 15.5463 10.4471C15.5463 10.4471 16.17 11.7889 15.5126 12.7662C14.8384 13.7436 14.1809 13.9258 14.1809 13.9258C14.1809 13.9258 15.1081 14.0915 15.9678 13.4785C16.3218 14.2903 16.6589 15.1351 16.6758 15.2511C16.6252 15.367 15.9509 16.9573 15.8835 17.0567C15.8498 17.0898 15.6138 17.1561 15.4452 17.1892C15.1587 17.2721 14.9901 17.3217 14.9227 17.3715C14.8046 17.4708 14.2652 18.9286 14.0124 19.6409C13.709 19.7237 13.4056 19.8894 13.1864 20.2207C13.3044 20.1379 13.6753 20.0882 13.945 20.0551C14.1809 20.0385 14.9058 20.4195 15.0912 21.1318C15.0912 21.1484 15.0912 21.1484 15.0912 21.1649C15.1249 21.43 15.0407 21.6785 14.9058 21.8773ZM13.3212 22.076C13.473 21.8607 13.4561 21.4963 13.473 21.3803C13.4898 21.2643 13.5236 21.049 13.6584 21.0158C13.7933 20.9827 14.1135 21.0324 14.1135 21.2643C14.1135 21.4797 13.8775 21.5294 13.709 21.6785C13.591 21.7944 13.3549 22.0429 13.3212 22.076ZM20.0471 18.912C20.2157 18.0672 20.2325 17.3383 20.182 16.742C20.8394 17.6033 21.244 18.647 21.362 19.7237C21.3788 19.8563 21.5137 19.9888 21.6485 20.1213C21.7665 20.2207 21.9014 20.3532 21.9014 20.4361C21.9014 20.8171 21.8676 21.1981 21.8002 21.5791C21.7834 21.6288 21.6317 21.7116 21.5137 21.7779C21.3451 21.8607 21.1934 21.9435 21.1597 22.076C20.7888 23.3516 19.9965 24.478 18.9346 25.2732C20.5022 23.6663 21.2608 21.0158 20.0471 18.912ZM18.9851 25.4223C20.0808 24.594 20.9237 23.4344 21.2945 22.1257C21.3114 22.076 21.4631 21.9932 21.5642 21.927C21.7328 21.8441 21.9014 21.7448 21.9351 21.6122C22.0025 21.2312 22.0363 20.8336 22.0363 20.4361C22.0363 20.287 21.8845 20.1379 21.7328 19.9888C21.6485 19.8894 21.5137 19.7735 21.5137 19.6906C21.3788 18.4813 20.89 17.3383 20.1314 16.3941C19.7943 14.4062 18.4457 13.7933 18.412 13.7767C18.4457 13.8264 19.3223 15.0688 18.7154 16.5266C18.0917 18.0009 16.4904 17.769 16.3555 17.7856C16.2206 17.7856 15.6981 18.4482 15.0407 19.6741C14.9564 19.6409 14.6023 19.5581 14.1978 19.6244C14.5012 18.7961 14.9564 17.6199 15.0407 17.5206C15.0744 17.4874 15.3272 17.4211 15.4958 17.3715C15.816 17.2886 15.9678 17.2389 16.0183 17.1727C16.052 17.123 16.2206 16.742 16.3892 16.3444C16.5409 16.3444 16.9286 16.3113 16.9623 16.2947C16.996 16.2615 17.3163 15.4498 17.3163 15.3504C17.3163 15.2676 16.6589 13.6608 16.4061 13.0479C16.5241 12.9153 16.6421 12.7497 16.76 12.5675C20.2157 12.9319 22.9128 15.8143 22.9128 19.3096C22.9128 21.9932 21.3114 24.3289 18.9851 25.4223Z" fill="#1B314F"/>
<path d="M14.5012 16.4769C14.8215 16.1125 14.6529 15.4333 14.063 15.3173C14.2147 14.9694 14.4338 14.2737 14.4338 14.2737C14.4338 14.2737 12.7144 16.9242 12.5627 16.9738C12.411 17.0236 12.2593 16.4437 12.2593 16.4437C11.939 17.6531 12.7987 17.8187 12.8998 17.4377C13.3718 17.3217 14.1809 16.8248 14.5012 16.4769Z" fill="#1B314F"/>
<path d="M13.0347 17.123L13.9113 15.6487C13.9113 15.6487 14.417 15.8972 14.1641 16.2947C13.8439 16.7585 13.0347 17.123 13.0347 17.123Z" fill="#FFD923"/>
<path d="M23.8736 23.948C23.6207 24.2793 23.3342 24.6272 22.9971 24.9585C25.1716 20.8503 23.0982 17.0899 23.0139 16.9408C23.1656 17.0899 23.3173 17.2556 23.4522 17.4047C25.121 19.2269 25.3233 21.9601 23.8736 23.948Z" fill="#D82122"/>
<path d="M25.8964 18.6635C25.1379 16.6591 24.0591 14.9529 21.6822 13.4123C19.3897 11.9214 16.9286 12.0373 16.7938 12.0539C16.7769 12.0539 16.7601 12.0539 16.7601 12.0539C16.8443 12.0208 16.9286 12.0042 17.0129 11.9876C17.5354 11.822 18.2097 11.6894 18.884 11.6066C20.6709 11.3581 22.4745 11.9545 23.7051 13.23C23.7219 13.2466 23.7219 13.2466 23.7388 13.2631C25.1379 14.7209 25.8627 16.5431 25.8964 18.6635Z" fill="#D82122"/>
<path d="M21.1428 10.4636C18.6311 9.99978 17.0129 10.2317 15.8498 10.6624C15.8161 10.5299 15.6981 10.2648 15.5969 10.0495C15.2429 10.4636 14.8721 10.9606 14.6361 11.2753C13.9955 11.706 13.7258 12.1202 13.7258 12.1202C14.0967 10.8778 15.1755 9.95008 16.4904 9.71817C16.8612 9.65191 17.2658 9.61877 17.7041 9.61877C18.8672 9.63534 20.0303 9.91696 21.1428 10.4636Z" fill="#D82122"/>
<path d="M11.8547 13.6442C9.88249 13.5779 10.5399 11.325 10.5736 11.1925C10.5736 11.2091 10.7085 12.965 11.8547 13.6442Z" fill="#D82122"/>
<path d="M13.7933 9.58569C12.2762 10.4802 12.5796 12.6172 12.5796 12.6172C11.1299 10.4471 13.6753 9.63539 13.7933 9.58569Z" fill="#D82122"/>
<path d="M11.2984 14.2407C11.3996 14.3235 11.5007 14.4726 11.3827 14.6879C11.3153 14.8039 11.2142 14.7873 11.0624 14.7211C10.8602 14.6217 9.64648 13.926 8.55078 13.2136C9.79819 13.6443 11.0624 14.1082 11.2647 14.2076C11.2647 14.2076 11.2816 14.2241 11.2984 14.2407Z" fill="white"/>
</svg>
