<svg width="34" height="34" viewBox="0 0 34 34" fill="none" xmlns="http://www.w3.org/2000/svg">
<path d="M0 17C0 26.3888 7.61116 34 17 34C26.3888 34 34 26.3888 34 17C34 7.61116 26.3888 0 17 0C7.61116 0 0 7.61116 0 17Z" fill="#221E20"/>
<path d="M25.8827 25.3274C26.683 24.549 27.1596 23.4969 27.2169 22.3819V22.2557C27.2226 22.1337 27.1953 22.0124 27.1378 21.9047C26.2722 21.5546 25.3103 21.5241 24.4243 21.8184C24.1091 21.9172 23.8102 22.0621 23.5375 22.2485C23.3323 22.3942 23.3723 22.5789 23.5776 22.5564C23.8023 22.5163 24.0907 22.4968 24.4181 22.4537C25.1365 22.3942 25.9802 22.3747 26.1854 22.6395C26.4697 22.9905 25.855 24.5125 25.5902 25.1745C25.5183 25.3931 25.6969 25.4732 25.8827 25.3274ZM6.99024 22.3819C11.7842 26.7144 18.8215 27.4703 24.4263 24.2549C24.7193 24.0896 25.0002 23.9038 25.2669 23.6987C25.6374 23.4339 25.3069 23.0172 24.9364 23.1855C24.7712 23.245 24.5854 23.3312 24.4232 23.3908C22.1428 24.2834 19.7167 24.7458 17.2678 24.7547C13.7384 24.7559 10.2705 23.8316 7.20987 22.074C6.94406 21.9313 6.75829 22.1961 6.99024 22.3819Z" fill="#FF9900"/>
<path d="M18.1524 12.4851C17.6629 12.5251 17.0932 12.5641 16.5236 12.637C15.6771 12.7136 14.8468 12.9166 14.0605 13.2395C12.5907 13.7952 11.6432 15.2309 11.7102 16.8008C11.6265 17.698 11.9383 18.5872 12.564 19.2357C13.1896 19.8843 14.067 20.2278 14.9667 20.1763C15.4887 20.1798 16.0091 20.1174 16.5154 19.9906C17.312 19.7147 18.0194 19.2289 18.5629 18.5845C18.8996 19.1297 19.322 19.617 19.814 20.0275C19.9839 20.1156 20.1889 20.1001 20.3436 19.9875C20.8003 19.6098 21.5947 18.9283 22.0114 18.5445C22.1762 18.3965 22.1939 18.1445 22.0514 17.9749C21.5172 17.4442 21.2169 16.7224 21.217 15.9695V12.5539C21.217 11.1109 21.3299 9.78283 20.2707 8.80064C19.337 8.05929 18.1722 7.67016 16.9804 7.70146H16.5236C14.5911 7.81435 12.5518 8.64772 12.0951 11.038C12.066 11.1401 12.0835 11.2499 12.1429 11.3379C12.2022 11.426 12.2974 11.4833 12.403 11.4947L14.5213 11.7595C14.7232 11.7154 14.8749 11.5481 14.899 11.3428C15.0814 10.5848 15.7485 10.0426 16.5277 10.0189H16.6796C17.1504 10.0081 17.5988 10.219 17.8907 10.5885C18.1311 11.0834 18.2231 11.6373 18.1555 12.1834V12.481L18.1524 12.4851ZM18.1524 14.6825C18.2482 15.4769 18.1031 16.2818 17.7357 16.9927C17.4994 17.4857 17.0553 17.8474 16.5247 17.979C16.4518 17.979 16.3389 18.019 16.2168 18.019C15.3824 18.019 14.8928 17.3765 14.8928 16.4241C14.8506 15.4318 15.5451 14.5597 16.5216 14.3787C17.0573 14.2687 17.6035 14.2177 18.1504 14.2268V14.6835L18.1524 14.6825Z" fill="white"/>
</svg>
