<svg width="35" height="34" viewBox="0 0 35 34" fill="none" xmlns="http://www.w3.org/2000/svg">
<path d="M17.4157 33.5979C26.6808 33.5979 34.1916 26.0768 34.1916 16.799C34.1916 7.52116 26.6808 0 17.4157 0C8.1506 0 0.639771 7.52116 0.639771 16.799C0.639771 26.0768 8.1506 33.5979 17.4157 33.5979Z" fill="#1A3B8B"/>
<path fill-rule="evenodd" clip-rule="evenodd" d="M19.587 13.1063C20.3568 13.1063 21.0349 13.2559 21.6031 13.5365C22.1713 13.8171 22.6295 14.1912 23.0144 14.6776C23.381 15.164 23.6559 15.7252 23.8392 16.3612C24.0224 16.9972 24.1141 17.6894 24.1141 18.4377C24.1141 19.5788 23.9125 20.645 23.4909 21.6739C23.0694 22.6841 22.5195 23.582 21.8047 24.3303C21.0899 25.0785 20.2468 25.6771 19.2754 26.1074C18.304 26.5377 17.2593 26.7621 16.1229 26.7621C15.9763 26.7621 15.7197 26.7621 15.3531 26.7434C14.9865 26.7434 14.565 26.706 14.1068 26.6312C13.6302 26.5564 13.1354 26.4628 12.6222 26.3319C12.0907 26.2009 11.5958 26.0139 11.1376 25.7894L15.3348 7.79356L19.0921 7.19495L17.6075 13.5739C17.9374 13.4243 18.2307 13.312 18.5606 13.2372C18.8722 13.1437 19.2204 13.1063 19.587 13.1063ZM16.4345 23.6942C17.0027 23.6942 17.5342 23.5633 18.0291 23.264C18.5239 22.9834 18.9638 22.6092 19.3304 22.1416C19.6969 21.6739 19.9902 21.1314 20.1918 20.5515C20.3934 19.9529 20.5034 19.3356 20.5034 18.6996C20.5034 17.9139 20.3751 17.2966 20.1185 16.8476C19.8619 16.3986 19.3304 16.1929 18.6339 16.1929C18.414 16.1929 18.1757 16.2116 17.8091 16.3051C17.4425 16.3799 17.131 16.567 16.8377 16.8289L15.2615 23.6194C15.738 23.6942 15.8846 23.7129 16.0129 23.7129C16.1046 23.6942 16.2512 23.6942 16.4345 23.6942Z" fill="white"/>
</svg>
