<svg width="37" height="37" viewBox="0 0 37 37" fill="none" xmlns="http://www.w3.org/2000/svg">
<circle opacity="0.2" cx="18.5" cy="18.5" r="18.5" fill="#2FCFA4"/>
<path d="M18.7074 20.707L20.1214 19.293L18.7074 17.879L17.2934 19.293L13.0504 15.05C11.7375 16.3628 11 18.1434 11 20C11 21.8566 11.7375 23.6372 13.0504 24.95C14.3632 26.2628 16.1437 27.0003 18.0004 27.0003C19.857 27.0003 21.6375 26.2628 22.9504 24.95L18.7074 20.707Z" fill="#2FCFA4"/>
<path d="M27.0002 20H25.0002V19C24.9987 17.4092 24.366 15.884 23.2411 14.7591C22.1163 13.6342 20.5911 13.0016 19.0002 13H18.0002V11H19.0002C21.1212 11.0024 23.1547 11.846 24.6545 13.3458C26.1542 14.8456 26.9979 16.879 27.0002 19V20Z" fill="#2FCFA4"/>
<path d="M24.0002 20H22.0002V19C22.0002 18.2044 21.6842 17.4413 21.1216 16.8787C20.559 16.3161 19.7959 16 19.0002 16H18.0002V14H19.0002C20.3258 14.0016 21.5967 14.5289 22.534 15.4662C23.4714 16.4036 23.9987 17.6744 24.0002 19V20Z" fill="#2FCFA4"/>
</svg>
