<svg width="33" height="33" viewBox="0 0 33 33" fill="none" xmlns="http://www.w3.org/2000/svg">
<path opacity="0.2" fill-rule="evenodd" clip-rule="evenodd" d="M0 16.5C0 7.3873 7.3873 0 16.5 0C25.6127 0 33 7.3873 33 16.5C33 25.6127 25.6127 33 16.5 33C7.3873 33 0 25.6127 0 16.5Z" fill="#2FCFA4"/>
<path d="M17.5248 10.8043H16.0621V8H17.5248V10.8043ZM17.3385 25.7205H15.8851V23.2236H17.3385V25.7205ZM18.6801 20.205C18.6801 19.8509 18.6087 19.5404 18.4658 19.2733C18.323 19.0062 18.0901 18.7671 17.7671 18.5559C17.4503 18.3385 17.0186 18.1366 16.472 17.9503C15.677 17.6646 14.9814 17.3478 14.3851 17C13.795 16.646 13.3354 16.2081 13.0062 15.6863C12.6832 15.1646 12.5217 14.5155 12.5217 13.7391C12.5217 12.9689 12.6957 12.3043 13.0435 11.7453C13.3913 11.1801 13.882 10.7453 14.5155 10.441C15.1491 10.1366 15.8851 9.98447 16.7236 9.98447C17.587 9.98447 18.3323 10.1553 18.9596 10.4969C19.5932 10.8385 20.0807 11.3354 20.4224 11.9876C20.7702 12.6398 20.9441 13.4317 20.9441 14.3634H18.6429C18.6429 13.587 18.4689 12.9783 18.1211 12.5373C17.7795 12.0963 17.3075 11.8758 16.705 11.8758C16.2764 11.8758 15.9224 11.9565 15.6429 12.118C15.3634 12.2795 15.1584 12.5 15.028 12.7795C14.8975 13.0528 14.8323 13.3696 14.8323 13.7298C14.8323 14.0714 14.9006 14.3727 15.0373 14.6335C15.1739 14.8882 15.4037 15.1211 15.7267 15.3323C16.0559 15.5435 16.5062 15.7547 17.0776 15.9658C17.8789 16.2578 18.5714 16.5807 19.1553 16.9348C19.7453 17.2888 20.1988 17.7267 20.5155 18.2484C20.8385 18.764 21 19.4099 21 20.1863C21 20.9876 20.8137 21.6677 20.441 22.2267C20.0745 22.7857 19.559 23.2112 18.8944 23.5031C18.236 23.795 17.4627 23.941 16.5745 23.941C16.0217 23.941 15.472 23.8665 14.9255 23.7174C14.3851 23.5683 13.8944 23.3261 13.4534 22.9907C13.0124 22.6553 12.6584 22.2112 12.3913 21.6584C12.1304 21.0994 12 20.4099 12 19.5901H14.3106C14.3106 20.0683 14.3758 20.4658 14.5062 20.7826C14.6366 21.0994 14.8106 21.3509 15.028 21.5373C15.2516 21.7174 15.4969 21.8478 15.764 21.9286C16.0311 22.0093 16.3012 22.0497 16.5745 22.0497C17.0342 22.0497 17.4193 21.972 17.7298 21.8168C18.0404 21.6615 18.2764 21.4441 18.4379 21.1646C18.5994 20.8851 18.6801 20.5652 18.6801 20.205Z" fill="#2FCFA4"/>
</svg>
