<svg width="18" height="18" viewBox="0 0 18 18" fill="none" xmlns="http://www.w3.org/2000/svg">
<circle cx="9" cy="9" r="9" fill="#2240C4"/>
<path d="M14 6.95652V5.43478C14 5.19457 13.8054 5 13.5652 5H4.43478C4.19457 5 4 5.19457 4 5.43478V6.95652H14Z" fill="white"/>
<path d="M4 8.26086V11.9565C4 12.1967 4.19457 12.3913 4.43478 12.3913H13.5652C13.8054 12.3913 14 12.1967 14 11.9565V8.26086H4ZM7.69565 10.6522H5.52174C5.40174 10.6522 5.30435 10.5548 5.30435 10.4348C5.30435 10.3148 5.40174 10.2174 5.52174 10.2174H7.69565C7.81565 10.2174 7.91304 10.3148 7.91304 10.4348C7.91304 10.5548 7.81565 10.6522 7.69565 10.6522ZM12.4783 10.6522H11.3913C11.2713 10.6522 11.1739 10.5548 11.1739 10.4348C11.1739 10.3148 11.2713 10.2174 11.3913 10.2174H12.4783C12.5983 10.2174 12.6957 10.3148 12.6957 10.4348C12.6957 10.5548 12.5983 10.6522 12.4783 10.6522Z" fill="white"/>
</svg>
