<svg width="33" height="33" viewBox="0 0 33 33" fill="none" xmlns="http://www.w3.org/2000/svg">
<path opacity="0.2" fill-rule="evenodd" clip-rule="evenodd" d="M0 16.5C0 7.3873 7.3873 0 16.5 0C25.6127 0 33 7.3873 33 16.5C33 25.6127 25.6127 33 16.5 33C7.3873 33 0 25.6127 0 16.5Z" fill="#10D078"/>
<path d="M25.1802 8.02684C25.1132 8.02684 23.625 8.09387 21.7749 8.53629C19.2678 9.12617 17.3909 10.1049 16.2379 11.4321C15.9832 11.7271 15.7419 12.0086 15.5273 12.2768C15.0715 12.3974 13.8113 12.746 13.2348 12.8532C12.8996 12.9203 12.6181 13.108 12.417 13.3895C12.0014 13.9928 11.2775 15.2262 11.2507 15.2799L10.4194 16.701L11.9344 16.044C12.5913 15.7491 13.5164 15.548 13.7845 15.7089C13.7979 15.7223 13.8113 15.7223 13.8247 15.8027C13.8247 16.2317 13.932 16.6473 14.1331 17.0629C13.7175 17.3847 13.4896 17.8942 13.5164 18.417V20.2672H15.3665C15.8894 20.2939 16.3854 20.0526 16.7206 19.6504C17.1362 19.8515 17.5518 19.9454 17.9808 19.9588C18.0479 19.9722 18.0613 19.9856 18.0613 19.999C18.2221 20.2672 18.021 21.1922 17.7261 21.8491L17.0691 23.3507L18.4902 22.5194C18.5439 22.4927 19.7773 21.7687 20.3806 21.3531C20.6622 21.1654 20.8498 20.8704 20.9169 20.5353C21.0375 19.9588 21.3727 18.6986 21.4933 18.2427C21.7615 18.0282 22.043 17.7869 22.338 17.5322C25.4483 14.7838 25.7299 8.83118 25.7433 8.57648L25.7701 8L25.1802 8.02681V8.02684ZM14.0392 14.6633C13.6907 14.556 13.2885 14.5694 12.8997 14.6365C13.0472 14.3951 13.1946 14.1672 13.3153 13.9929C13.3421 13.9393 13.3957 13.9125 13.4628 13.8991C13.7309 13.8455 14.1465 13.7382 14.5621 13.6444C14.3208 14.0064 14.1599 14.3415 14.0392 14.6633ZM15.8626 18.9668C15.7553 19.1143 15.5676 19.1948 15.3933 19.1813H15.219L16.3318 17.4385L14.5889 18.5646V18.3769C14.5755 18.1892 14.656 18.015 14.8035 17.9077L16.9351 16.2184C17.0423 16.1246 17.1898 16.0576 17.3239 16.0308L17.887 15.8967L17.7529 16.4598C17.7127 16.6072 17.6591 16.7413 17.5652 16.8486L15.8626 18.9668V18.9668ZM19.8577 20.3209C19.8443 20.3745 19.8175 20.4281 19.7639 20.4684C19.5896 20.589 19.3617 20.7365 19.1204 20.884C19.1874 20.4952 19.2008 20.093 19.0936 19.7444C19.4153 19.6237 19.7505 19.4629 20.1125 19.2349C20.0186 19.6371 19.9114 20.0393 19.8577 20.3209V20.3209ZM21.6274 16.7279C19.7773 18.3635 18.7584 18.8462 18.021 18.873H17.9942C17.7663 18.873 17.5786 18.8327 17.3909 18.7657L18.383 17.5055C18.5707 17.2642 18.7048 16.996 18.7852 16.7011L19.3215 14.4488L17.0691 14.9851C16.7742 15.0521 16.4927 15.1861 16.2647 15.3739L15.0045 16.3659C14.9375 16.1783 14.8973 15.9905 14.8973 15.7626V15.7358C14.9107 15.0119 15.4067 13.9795 17.0423 12.1294C19.0131 9.89051 23.0887 9.28719 24.617 9.13975C24.4695 10.6815 23.8662 14.7569 21.6273 16.728L21.6274 16.7279Z" fill="#10D078"/>
<path d="M13.2956 22.916C12.6119 23.0501 11.9147 23.0903 11.2176 23.1037C10.8154 23.1037 10.4132 23.0903 9.9976 23.0501C10.1585 22.7819 10.3059 22.5138 10.44 22.2323C10.6947 21.6558 10.8824 21.0793 11.0299 20.4894C11.164 19.9263 11.3248 19.3766 11.526 18.827C11.7136 18.2773 11.9282 17.7276 12.1695 17.178C11.955 17.3925 11.7673 17.6204 11.593 17.8617C11.4187 18.103 11.2444 18.3578 11.0835 18.6125C10.7752 19.1219 10.507 19.685 10.2791 20.2347C10.0646 20.771 9.83671 21.3072 9.5686 21.7899C9.30046 22.2725 8.99212 22.7149 8.61671 23.1439L8 23.8679L8.95188 24.002C9.70265 24.1092 10.4669 24.1629 11.231 24.136C11.6198 24.1226 11.9952 24.0958 12.384 24.0288C12.7594 23.9751 13.1481 23.8813 13.5101 23.7741C14.2475 23.5595 14.958 23.211 15.5882 22.7685C15.8965 22.5406 16.1915 22.2859 16.4328 21.9909C16.6741 21.696 16.902 21.3877 17.0495 21.0391C16.54 21.5753 15.9233 21.9641 15.2932 22.2725C14.6497 22.5809 13.9794 22.7819 13.2956 22.916H13.2956Z" fill="#10D078"/>
<path d="M21.2389 14.4087C21.7216 14.4087 22.2042 14.221 22.5796 13.859C23.3169 13.1216 23.3169 11.9284 22.5796 11.191C22.2176 10.8291 21.7483 10.6414 21.2389 10.6414C20.7294 10.6414 20.2602 10.8425 19.8982 11.191C19.1609 11.9284 19.1609 13.1216 19.8982 13.859C20.2602 14.221 20.7428 14.4087 21.2389 14.4087ZM20.649 11.9419C20.8099 11.781 21.011 11.7005 21.2255 11.7005C21.44 11.7005 21.6545 11.781 21.802 11.9419C22.1238 12.2636 22.1238 12.773 21.802 13.0948C21.4802 13.4165 20.9707 13.4165 20.649 13.0948C20.3406 12.7864 20.3406 12.2636 20.649 11.9419Z" fill="#10D078"/>
</svg>
