<svg width="34" height="34" viewBox="0 0 34 34" fill="none" xmlns="http://www.w3.org/2000/svg">
<path fill-rule="evenodd" clip-rule="evenodd" d="M17 34C7.61116 34 0 26.3888 0 17C0 7.61116 7.61116 0 17 0C26.3888 0 34 7.61116 34 17C34 26.3888 26.3888 34 17 34Z" fill="#1652F0"/>
<path d="M21.5209 20.57C20.5945 21.5 19.3395 22.04 17.9648 22.04C15.1857 22.04 12.9146 19.76 12.9146 16.97C12.9146 14.18 15.1857 11.9 17.9648 11.9C19.3693 11.9 20.6244 12.47 21.5209 13.37L24.3 10.58C22.6863 8.99 20.4451 8 17.9648 8C13.0043 8 9 12.02 9 17C9 21.98 13.0043 26 17.9648 26C20.4451 26 22.6863 24.98 24.3 23.36L21.5209 20.57Z" fill="white"/>
</svg>
