<svg width="33" height="33" viewBox="0 0 33 33" fill="none" xmlns="http://www.w3.org/2000/svg">
<path opacity="0.2" fill-rule="evenodd" clip-rule="evenodd" d="M0 16.5C0 7.3873 7.3873 0 16.5 0C25.6127 0 33 7.3873 33 16.5C33 25.6127 25.6127 33 16.5 33C7.3873 33 0 25.6127 0 16.5Z" fill="#E1E4E7"/>
<path d="M18.5105 21.2856L16.1415 21.8888L16.7447 19.5198L23.8985 12.3659C24.1326 12.1316 24.4502 12 24.7814 12C25.1126 12 25.4303 12.1316 25.6644 12.3659V12.3659C25.8987 12.6 26.0303 12.9177 26.0303 13.2489C26.0303 13.5801 25.8987 13.8977 25.6644 14.1318L18.5105 21.2856Z" fill="#9BA3AE"/>
<line x1="8.75" y1="21.25" x2="14.3878" y2="21.25" stroke="#9BA3AE" stroke-width="1.5" stroke-linecap="round"/>
</svg>
