<svg width="33" height="33" viewBox="0 0 33 33" fill="none" xmlns="http://www.w3.org/2000/svg">
<path opacity="0.2" fill-rule="evenodd" clip-rule="evenodd" d="M0 16.5C0 7.3873 7.3873 0 16.5 0C25.6127 0 33 7.3873 33 16.5C33 25.6127 25.6127 33 16.5 33C7.3873 33 0 25.6127 0 16.5Z" fill="#FF647C"/>
<path d="M18.0711 16.657L23.0208 21.6067C23.4113 21.9972 23.4113 22.6304 23.0208 23.0209C22.6303 23.4114 21.9971 23.4114 21.6066 23.0209L16.6569 18.0712L11.7072 23.0209C11.3166 23.4114 10.6835 23.4114 10.2929 23.0209C9.90242 22.6303 9.90242 21.9972 10.2929 21.6066L15.2426 16.6569L10.2929 11.7072C9.90236 11.3167 9.90236 10.6835 10.2929 10.293C10.6834 9.90237 11.3166 9.90237 11.7071 10.293L16.6568 15.2427L21.6066 10.2929C21.9971 9.90237 22.6303 9.90237 23.0209 10.2929C23.4114 10.6835 23.4114 11.3167 23.0209 11.7072L18.0711 16.657Z" fill="#FF647C"/>
</svg>
