<svg width="33" height="33" viewBox="0 0 33 33" fill="none" xmlns="http://www.w3.org/2000/svg">
<path opacity="0.2" fill-rule="evenodd" clip-rule="evenodd" d="M16.5 33C7.3873 33 1.11957e-06 25.6127 7.21238e-07 16.5C3.22909e-07 7.3873 7.3873 1.11957e-06 16.5 7.21238e-07C25.6127 3.22909e-07 33 7.3873 33 16.5C33 25.6127 25.6127 33 16.5 33Z" fill="#E1E4E7"/>
<path d="M23.9067 17.7296L16.2704 10.0932C16.2109 10.0334 16.1297 10 16.0454 10H10.3182C10.1425 10 10 10.1425 10 10.3182V16.0455C10 16.1298 10.0334 16.2109 10.0932 16.2704L17.7295 23.9068C17.7916 23.9688 17.873 24 17.9545 24C18.036 24 18.1174 23.9688 18.1795 23.9068L23.9067 18.1795C24.0311 18.0551 24.0311 17.854 23.9067 17.7296ZM13.1818 14.1364C12.6546 14.1364 12.2273 13.709 12.2273 13.1818C12.2273 12.6546 12.6546 12.2273 13.1818 12.2273C13.709 12.2273 14.1363 12.6546 14.1363 13.1818C14.1363 13.709 13.709 14.1364 13.1818 14.1364Z" fill="#9BA3AE"/>
</svg>
