<svg width="33" height="33" viewBox="0 0 33 33" fill="none" xmlns="http://www.w3.org/2000/svg">
<path opacity="0.2" fill-rule="evenodd" clip-rule="evenodd" d="M0 16.5C0 7.3873 7.3873 0 16.5 0C25.6127 0 33 7.3873 33 16.5C33 25.6127 25.6127 33 16.5 33C7.3873 33 0 25.6127 0 16.5Z" fill="#E1E4E7"/>
<path fill-rule="evenodd" clip-rule="evenodd" d="M17.1118 22.7871C16.8152 22.498 16.8091 22.0231 17.0982 21.7265L21.3893 17.3241H9.24438C8.83016 17.3241 8.49438 16.9883 8.49438 16.5741C8.49438 16.1598 8.83016 15.8241 9.24438 15.8241H21.5311L16.9011 11.1657C16.6091 10.8719 16.6106 10.397 16.9044 10.105C17.1981 9.81301 17.673 9.81446 17.965 10.1082L23.7819 15.9609C24.0707 16.2514 24.073 16.7198 23.7871 17.0131L18.1724 22.7735C17.8833 23.0701 17.4084 23.0762 17.1118 22.7871Z" fill="#9BA3AE"/>
</svg>
