<svg width="576" height="166" viewBox="0 0 576 166" fill="none" xmlns="http://www.w3.org/2000/svg">
<path fill-rule="evenodd" clip-rule="evenodd" d="M137.854 87.4311C137.381 87.6697 136.971 87.9877 136.544 88.2906C136.176 88.5506 135.68 88.5783 135.226 88.6578C135.086 88.6819 134.848 88.6694 134.847 88.7936C134.84 89.3208 134.593 89.8372 134.665 90.3107C134.726 90.7315 134.903 91.1139 134.581 91.5821C134.819 91.4847 134.947 91.4329 135.075 91.3802C135.81 91.0702 136.344 91.2122 136.909 91.86C137.088 92.0637 137.184 92.2522 136.956 92.4514C136.748 92.6337 136.836 92.8133 136.992 93.0072C137.141 93.1912 137.282 93.3842 137.407 93.5844C137.511 93.7496 137.577 94.0123 137.418 94.0793C137.032 94.241 137.134 94.5386 137.169 94.8405C137.183 94.9549 137.188 95.0863 137.081 95.1506C136.961 95.223 136.865 95.122 136.79 95.0309C136.598 94.7977 136.437 94.8093 136.292 95.0407C136.12 95.3132 135.926 95.2194 135.737 95.0219C135.458 94.7333 135.279 94.4108 135.237 94.0016C135.188 93.52 134.981 93.3351 134.492 93.2413C134.557 93.369 134.623 93.4861 134.679 93.6076C134.838 93.9516 135.117 94.3116 134.529 94.4876C134.336 94.5457 134.408 94.7843 134.506 94.9174C134.858 95.3918 134.479 95.5875 134.22 95.7501C133.927 95.9315 133.59 95.8609 133.395 95.4829C133.249 95.2015 133.094 95.0702 132.838 95.2962C132.6 95.5044 132.515 95.3257 132.43 95.1131C132.265 94.6922 132.12 94.2705 132.235 93.7863C132.003 93.864 131.832 93.9408 131.649 93.9784C131.353 94.04 131.093 93.8971 131.054 93.5977C130.992 93.1162 131.041 92.6525 131.529 92.4005C131.733 92.2942 131.958 92.1968 132.103 91.9994C132.204 91.8626 132.235 91.7099 132.145 91.541C132.073 91.4043 131.946 91.3194 131.82 91.3757C131.478 91.5258 131.329 91.3418 131.206 91.038C131.164 90.9379 131.081 90.8155 130.945 90.8379C130.796 90.8611 130.852 91.0157 130.819 91.1148C130.697 91.4704 130.661 91.8743 130.314 92.1039C130.115 92.237 130.249 92.3657 130.365 92.5068C131.021 93.302 130.975 93.8113 130.207 94.3188C130.104 94.3867 129.955 94.4358 130.004 94.6002C130.063 94.7995 130.233 94.7718 130.372 94.7467C131.044 94.6217 131.536 94.9227 131.924 95.4963C132.019 95.6375 132.119 95.7778 132.236 95.8984C132.519 96.1915 132.472 96.4041 132.188 96.6275C131.833 96.9053 131.833 97.1019 132.222 97.3994C132.667 97.7398 133.099 98.0793 133.4 98.5663C133.449 98.644 133.548 98.7083 133.636 98.7405C133.765 98.7887 133.924 98.8298 133.894 98.988C133.859 99.1693 133.679 99.223 133.511 99.1774C133.26 99.1095 133.008 99.0192 132.767 98.9102C131.996 98.56 131.246 98.166 130.636 97.4798C130.598 97.5817 130.574 97.6219 130.568 97.6666C130.466 98.3894 130.013 98.5707 129.423 98.1249C129.302 98.0329 129.183 97.9346 129.05 97.8685C128.258 97.4655 128.082 96.9607 128.515 96.2281C128.663 95.9761 128.593 95.8305 128.345 95.7286C127.935 95.5598 127.594 95.2748 127.29 94.963C127.056 94.7199 126.903 94.7619 126.672 94.8995C125.873 95.3739 125.153 95.9556 124.42 96.5194C124.127 96.7463 123.731 96.4952 123.436 96.7097C123.383 96.7481 123.272 96.5953 123.256 96.4988C123.172 95.9976 123.299 95.4588 122.875 95.0174C122.844 94.9853 122.937 94.8459 122.949 94.7512C122.972 94.5636 122.928 94.3751 122.762 94.2616C122.587 94.1419 122.516 94.3134 122.414 94.4045C122.073 94.7083 121.368 94.7476 120.93 94.4814C120.685 94.3313 120.459 94.2205 120.229 94.4474C120.144 94.5296 120.029 94.5814 119.933 94.4635C119.517 93.9596 118.867 93.7979 118.426 93.3235C118.255 93.1385 118.049 92.8857 117.752 93.0715C117.487 93.2377 117.685 93.4825 117.707 93.6969C117.738 93.998 117.974 94.3938 117.421 94.4224C117.316 94.4278 117.31 94.5216 117.341 94.6082C117.491 95.0157 117.812 95.3999 117.591 95.8564C118.023 96.3844 117.605 96.791 117.494 97.2359C117.416 97.5477 117.202 97.6174 116.899 97.4629C116.45 97.2323 115.984 97.2189 115.515 97.2609C114.143 97.3824 112.773 97.5084 111.399 97.6147C110.987 97.6478 110.825 97.78 111.103 98.1883C111.402 98.6261 111.129 98.996 110.933 99.2462C110.739 99.4937 110.314 99.4159 109.989 99.223C109.769 99.0934 109.562 98.9406 109.321 98.7807C109.353 99.1711 109.397 99.4713 109.687 99.734C109.982 100.001 109.697 100.213 109.554 100.395C109.386 100.607 109.24 100.406 109.115 100.28C108.889 100.052 108.686 99.7992 108.451 99.5812C107.925 99.0916 107.477 98.5815 107.605 97.8059C107.641 97.5906 107.506 97.6067 107.362 97.6567C106.853 97.839 106.368 98.0606 105.997 98.4653C105.395 99.1211 105.041 99.1685 104.234 98.6824C104.02 98.552 103.828 98.376 103.609 98.258C103.16 98.0168 102.641 97.8122 102.197 97.9471C100.302 98.5243 98.3153 98.6395 96.3361 98.7905C95.6435 98.8423 95.036 99.0452 94.4839 99.432C93.8898 99.8466 93.1426 99.8064 92.5091 99.3463C92.3373 99.2221 92.153 99.1649 91.9544 99.1658C91.924 99.1667 91.8935 99.1693 91.8631 99.1693C92.731 101.096 97.4832 102.671 95.9737 104.431C95.7635 104.678 95.5272 104.873 95.3778 105.189C94.9072 106.183 94.458 107.146 93.1489 107.42C92.4483 107.565 91.8837 108.186 92.2872 109.101C90.954 109.596 100.553 111.097 99.8105 111.963C99.4956 112.33 99.3524 112.693 99.3032 113.065L113.867 116.836L115.73 118.697C120.2 119.109 124.649 119.586 129.078 120.133C125.542 124.904 121.434 129.376 116.754 133.541C101.931 146.728 85.3644 153.343 77.4492 156.361C69.7863 153.182 52.3113 145.86 37.1914 131.996C33.0531 128.202 29.3747 124.18 26.1508 119.94C30.1111 119.466 34.0874 119.05 38.0799 118.683L42.7372 114.032L68.0352 107.935C68.5363 107.396 69.245 107.102 70.2337 107.329C71.2439 107.562 73.1704 105.808 73.4934 104.426C73.7135 103.486 74.2387 102.95 75.0637 102.601C77.0537 101.759 82.238 100.255 83.3797 98.5118C84.3676 97.0063 84.2361 95.0317 82.2523 94.4028C81.1786 94.0623 80.35 93.2564 79.5331 92.4461C78.6974 91.6178 77.9592 90.3804 76.3486 91.0934C75.9961 91.2488 75.3411 90.9031 74.9035 90.652C73.1883 89.6692 71.1007 89.1689 70.2086 87.0818C70.07 86.7574 69.7604 86.4277 69.4463 86.2696C67.2595 85.1742 65.0682 84.0824 62.8393 83.0791C62.1109 82.7512 61.3369 82.5421 60.7258 81.9899C60.4422 81.7344 60.1397 81.4941 59.7004 81.7541C59.7129 82.3062 60.2659 82.2866 60.5522 82.5341C61.0148 82.9317 61.1535 83.3337 60.8046 83.8805C60.4431 84.4461 59.9196 84.5685 59.5107 84.1155C57.9932 82.434 56.3298 82.5841 54.4391 83.1961C54.3031 83.0773 54.1653 82.9585 54.0284 82.8396C53.9873 83.8921 53.9497 84.9446 53.9076 85.998C53.8933 86.0051 53.8817 85.998 53.8674 86.0078C53.6535 86.1535 53.4343 86.208 53.1909 86.1231C53.012 86.0614 52.8214 86.048 52.6344 86.0427C52.1932 86.0311 51.787 85.8693 51.4139 85.5593C51.1884 85.3726 50.9504 85.2448 50.6855 85.1894C50.5406 85.1599 50.3607 85.1465 50.2793 84.9714C50.0377 84.4541 49.6467 84.2638 49.2602 84.0342C48.76 83.7366 48.5819 83.7527 48.2679 84.3612C47.867 85.1394 47.2648 85.5852 46.7288 86.1418C46.5794 86.2973 46.4184 86.2982 46.2689 86.1231C46.1642 86.0034 46.0595 85.9355 45.911 86.0087C45.3598 86.2848 44.7827 86.3357 44.2011 86.3322C43.7466 86.3295 43.3242 86.5082 42.9108 86.7422C42.8008 86.8048 42.7632 86.9156 42.7551 87.0666C42.7417 87.3346 42.6791 87.5794 42.5502 87.7912C42.4921 87.8877 42.4285 87.9734 42.3453 87.8555C42.2326 87.6956 42.1682 87.7751 42.0733 87.8957C41.9785 88.0181 41.7959 88.1083 41.7467 87.902C41.6734 87.5937 41.3387 87.3864 41.5257 86.9656C41.5436 86.9236 41.5016 86.8244 41.4774 86.7583C41.4219 86.6011 41.4166 86.4385 41.4676 86.2857C41.5329 86.0963 41.5257 85.8961 41.5526 85.7014C41.6036 85.3404 41.4801 85.386 41.3154 85.4887C41.0193 85.6737 40.7034 85.8184 40.4341 86.0596C40.146 86.3179 39.9026 86.2383 39.6333 86.0489C39.6986 85.9131 39.8033 85.9435 39.8883 85.9087C40.1666 85.7952 40.4081 85.4306 40.3571 85.1456C40.2882 84.7525 40.1621 84.3692 40.4332 83.9145C40.3097 83.9779 40.282 83.985 40.2596 84.0038C39.8051 84.4085 39.6816 84.3442 39.5823 83.6312C39.559 83.4633 39.5017 83.3828 39.3783 83.3221C39.0087 83.1434 38.649 82.9316 38.3421 82.5939C38.13 82.3607 37.9001 82.3268 37.7095 82.5814C37.4706 82.9022 37.1252 82.7404 36.8747 82.9799C36.8076 83.0433 36.7664 82.9379 36.7351 82.8539C36.5839 82.4563 36.7673 82.2893 37.0536 82.1543C36.9132 82.1115 36.8058 82.2258 36.7378 82.1097C36.6152 81.9042 36.4425 81.9212 36.2788 81.889C35.8922 81.8139 35.8958 81.8121 35.9566 82.3268C35.9969 82.6645 35.9844 82.9861 35.8618 83.3114C35.7553 83.591 35.6005 83.7098 35.3885 83.7635C35.35 83.7724 35.3017 83.8081 35.3079 83.8939C35.7034 83.6759 35.4099 84.1628 35.5119 84.2477C35.6023 83.9931 35.7705 83.8626 36.1132 83.7715C36.2492 83.7358 36.379 83.7259 36.4622 83.9064C36.5508 84.0985 36.4165 84.1995 36.3539 84.3272C36.2966 84.4461 36.1445 84.5122 36.2 84.6936C36.2823 84.9598 36.1929 85.1394 36.0264 85.1876C35.8546 85.2386 35.7347 85.0625 35.6891 84.8338C35.6354 84.564 35.4949 84.4621 35.2703 84.4246C35.3348 84.5881 35.3598 84.7337 35.2909 84.866C35.1674 85.1019 35.3571 85.2529 35.3956 85.4307C35.4269 85.5745 35.5746 85.3619 35.6748 85.3261C35.7177 85.31 35.7589 85.2636 35.8063 85.3279C35.8135 85.5128 35.6989 85.5709 35.6077 85.6469C35.3401 85.8729 35.3231 86.1383 35.5656 86.4313C35.7106 86.6064 35.8591 86.778 36.0005 86.9567C36.1123 87.0969 36.2519 87.3069 36.1714 87.4695C36.0363 87.7393 36.1374 87.9305 36.1911 88.1566C36.2081 88.2316 36.2537 88.3299 36.1893 88.4014C36.1293 88.4675 36.0613 88.4148 36.0076 88.371C35.8144 88.2156 35.6247 88.0538 35.4332 87.8948C35.4779 88.0538 35.5522 88.1655 35.6148 88.2879C35.6667 88.3862 35.7535 88.5042 35.681 88.6203C35.6157 88.7257 35.5236 88.6221 35.4511 88.5792C35.1549 88.4032 34.9026 88.1539 34.7209 87.7849C34.6476 87.6357 34.5778 87.4722 34.3711 87.3838C34.4955 87.6241 34.5858 87.793 34.6717 87.9663C34.7648 88.1557 34.8498 88.3505 34.8516 88.5872C34.8534 88.8124 34.8749 89.0697 34.7156 89.2055C34.5626 89.3369 34.4131 89.1805 34.2718 89.0867C34.2297 89.0572 34.1921 89.0197 34.1519 88.9929C34.0758 88.9437 34.0275 88.9678 34.0114 89.0885C33.9246 89.7898 33.7188 90.3929 33.2374 90.7717C33.1864 90.812 33.1614 90.9424 33.0835 90.8736C33.0227 90.8182 33.0245 90.702 33.0558 90.6306C33.2231 90.2401 32.9224 89.9185 32.9708 89.5459C32.9788 89.487 32.9189 89.4467 32.8723 89.4333C32.7077 89.3887 32.5404 89.369 32.467 89.6263C32.3391 90.0802 32.1628 90.4689 31.8246 90.7012C31.7342 90.7628 31.6957 90.9737 31.5561 90.8977C31.4309 90.8298 31.3306 90.7137 31.3351 90.5046C31.3405 90.2803 31.2439 90.1964 31.0935 90.174C30.9942 90.1588 30.8779 90.1794 30.8466 89.9962C30.8161 89.8184 30.8645 89.6764 30.9674 89.5656C31.1034 89.4208 31.2403 89.2779 31.4076 89.1028C31.2242 89.0134 31.0667 88.9652 30.9486 88.8204C30.8815 88.7373 30.775 88.6337 30.8412 88.5122C30.9522 88.3103 31.0175 88.0798 31.1875 87.9046C31.336 87.7527 31.7825 87.7018 31.5159 87.1693C31.5042 87.1452 31.5436 87.08 31.5508 87.0326C31.5731 86.8566 31.5221 86.7413 31.3888 86.6985C31.2072 86.6404 31.0246 86.5859 30.8439 86.5216C30.5835 86.4304 30.5182 86.2285 30.647 85.9069C30.6819 85.8202 30.7383 85.7505 30.7812 85.6683C30.8976 85.4458 30.9199 85.2609 30.6828 85.151C30.4699 85.0536 30.4045 84.8374 30.4511 84.5515C30.4672 84.4532 30.4976 84.3245 30.4207 84.2763C30.0869 84.0663 29.7549 83.6964 29.3809 83.8421C29.0874 83.9573 28.9389 83.8251 28.7796 83.5848C28.7385 83.524 28.726 83.4293 28.7018 83.3507C28.6365 83.1452 28.5032 83.0442 28.3582 82.9987C28.2159 82.954 28.2499 83.1541 28.2106 83.2524C28.1989 83.2819 28.1694 83.3239 28.1515 83.3203C27.8804 83.2694 27.6307 83.5249 27.3373 83.356C26.8362 83.0701 26.8147 83.1077 26.4523 83.667C26.336 83.8465 26.2823 84.0583 26.2662 84.2835C26.2376 84.7007 26.0622 84.8848 25.7642 84.9518C25.494 85.0125 25.2399 84.8883 24.8945 84.8588C25.1513 85.0286 25.3339 85.1519 25.5182 85.268C25.8376 85.47 26.1141 85.6719 26.1508 86.2517C26.1723 86.577 26.1034 86.6127 25.9208 86.6368C25.7463 86.6618 25.5933 86.5162 25.3893 86.4894C25.4645 86.6878 25.5271 86.8271 25.5692 86.9772C25.6309 87.197 25.6596 87.482 25.4878 87.5758C25.3213 87.667 25.2641 87.8028 25.197 87.9824C25.095 88.2477 24.9733 88.2683 24.8328 88.0458C24.627 87.7188 24.4292 87.3784 24.4069 86.929C24.3988 86.7887 24.3639 86.7396 24.2628 86.711C23.7886 86.5814 23.7895 86.577 23.7635 85.9158C23.7599 85.8443 23.751 85.7737 23.7456 85.696C23.2544 85.9667 23.2571 85.9685 23.3376 86.6288C23.3877 87.0442 23.3278 87.4481 23.2535 87.8528C23.1989 88.1441 23.1112 87.9234 23.0271 87.8743C23.0191 88.0547 23.0155 88.2039 23.0056 88.3531C22.9976 88.4916 22.9922 88.6453 22.8473 88.6453C22.7184 88.6462 22.7113 88.5059 22.6952 88.3817C22.6459 88.0378 22.6451 87.6938 22.7059 87.3301C22.5869 87.5321 22.441 87.6384 22.2862 87.4937C22.1404 87.3569 22.2012 87.1318 22.2308 86.9361C22.2675 86.6886 22.339 86.4581 22.4303 86.2374C22.4697 86.1401 22.5243 86.0436 22.4688 85.9247C22.3721 85.7192 22.4813 85.5825 22.5762 85.4753C22.7104 85.3234 22.8652 85.2019 23.0155 85.0768C23.1891 84.9339 23.3403 84.7686 23.4405 84.5041C23.0388 84.5238 22.6674 84.723 22.3498 85.0742C22.1109 85.3395 21.9104 85.6513 21.7386 85.9989C21.693 86.0927 21.6062 86.2768 21.5391 86.0802C21.4595 85.8452 21.3861 85.9515 21.2805 85.9971C21.1275 86.0632 20.979 86.073 20.8224 85.9533C20.7141 85.8702 20.5754 85.8497 20.4475 85.8211C20.265 85.7791 20.1549 85.8845 20.1567 86.1436C20.1585 86.5493 19.9733 86.6565 19.7165 86.6475C19.5608 86.6422 19.4024 86.6583 19.261 86.5376C19.2127 86.6663 19.346 86.8182 19.2064 86.887C19.0955 86.9406 19.0382 86.8182 18.9711 86.7351C18.8405 86.5734 18.6928 86.4313 18.5855 86.2464C18.4253 85.973 18.2884 85.998 18.1255 86.2258C17.9403 86.4858 17.7131 86.6073 17.4419 86.5546C17.3346 86.5332 17.2513 86.4903 17.2388 86.3071C17.1824 85.4628 17.4741 84.9437 18.1014 84.7927C18.5998 84.6721 18.6141 84.6498 18.606 83.969C18.6007 83.583 18.4861 83.4445 18.1703 83.4061C17.884 83.3712 17.9215 83.6446 17.9018 83.8751C17.8956 83.9609 17.8723 84.0458 17.8526 84.1289C17.6916 84.7936 17.3847 84.9205 16.9659 84.4952C16.7843 84.3111 16.6286 84.136 16.4693 84.5622C16.4067 84.732 16.2161 84.8347 16.0506 84.799C15.885 84.7632 16.1624 84.6015 16.0192 84.5238C15.8197 84.6283 15.7606 85.0045 15.5763 85.0608C15.2444 85.1608 15.0976 85.4932 14.9008 85.7845C14.8158 85.9122 14.712 86.1383 14.5634 86.0355C14.4355 85.9471 14.4069 86.0391 14.3362 86.1124C14.1438 86.3098 13.946 86.4939 13.7268 86.7056C13.7009 86.4599 13.7957 86.3598 13.853 86.2365C13.8807 86.1749 13.9317 86.0605 13.9201 86.0471C13.7277 85.8139 13.9246 85.646 13.9702 85.4575C14.0006 85.327 14.0919 85.1823 14.0695 85.0751C13.9979 84.7195 14.1706 84.5452 14.3192 84.3406C14.584 83.9716 14.9017 83.7215 15.2676 83.5767C15.3652 83.5383 15.4654 83.491 15.5495 83.4186C15.7893 83.2131 15.8528 82.8494 15.8546 82.5314C15.8546 82.2714 15.5915 82.3277 15.4394 82.275C15.2739 82.2178 15.1943 82.1141 15.3133 81.9149C15.452 81.6808 15.3428 81.6281 15.2041 81.5611C14.7317 81.335 14.2646 81.4315 13.7984 81.5995C13.4584 81.721 13.1434 81.9587 12.7891 82.0266V81.9506C12.8669 81.721 13.19 81.7139 13.1014 81.3315C13.3295 81.461 13.8449 81.4021 13.8727 81.2055C13.9094 80.9455 14.0078 80.9258 14.1751 80.9589C13.9407 80.698 13.9514 80.4416 14.1867 80.2674C14.3022 80.1825 14.4283 80.1235 14.5608 80.119C15.052 80.103 15.4886 79.7527 15.9763 79.7054C16.0711 79.6955 16.1812 79.6205 16.1561 79.4722C16.123 79.272 16.0058 79.4007 15.9271 79.4221C15.8457 79.4454 15.7669 79.4901 15.6882 79.5312C15.2175 79.7786 14.7478 80.0288 14.363 79.3176C14.3576 79.3087 14.3478 79.3042 14.3397 79.2989C14.1706 79.1782 14.1545 79.0925 14.3478 78.9584C14.4713 78.8709 14.6055 78.6913 14.5724 78.4831C14.5357 78.2544 14.355 78.2437 14.2046 78.2196C13.8235 78.1606 13.6007 77.7487 13.6472 77.1572C13.8002 77.2823 13.9586 77.3189 14.0525 77.0768C14.1527 76.8177 14.0892 76.5881 13.8628 76.3621C14.2861 76.3826 14.516 76.0404 14.7504 75.742C14.8516 75.8867 14.7424 75.9698 14.7657 76.0583C14.7746 76.0958 14.8229 76.1181 14.8542 76.1423C14.8578 76.1441 14.8829 76.111 14.8802 76.1047C14.8086 75.8957 14.8873 75.7795 15.0287 75.759C15.1978 75.7331 15.1191 75.4793 15.2318 75.4186C15.4224 75.3158 15.6085 75.1693 15.8063 75.13C15.9763 75.0969 16.0532 75.0228 16.0837 74.8083C16.1087 74.6386 16.2116 74.593 16.3208 74.6314C16.4201 74.6663 16.5123 74.6841 16.5311 74.9039C16.5561 75.205 16.4443 75.4525 16.4067 75.7599C16.5982 75.5508 16.7619 75.8287 16.9391 75.7268C17.0983 75.6357 17.2522 75.7098 17.3462 75.9296C17.4616 76.2003 17.5618 76.1387 17.6692 75.91C17.9287 75.3551 18.3304 75.0844 18.7868 74.9218C18.9085 74.878 19.0051 74.8762 18.972 75.0933C18.9407 75.2962 18.8968 75.4623 19.1393 75.4391C19.2216 75.4311 19.1939 75.5722 19.1599 75.6482C19.1134 75.7509 19.0284 75.784 18.9541 75.8367C18.3779 76.2522 17.8249 76.7212 17.3015 77.2493C17.1323 77.419 17.0858 77.5834 17.2818 77.771C17.3695 77.7005 17.2415 77.4842 17.3793 77.4726C17.4911 77.4628 17.5484 77.6084 17.6048 77.7255C17.6808 77.8845 17.7032 78.0927 17.8303 78.2321C17.8983 78.0695 17.9063 77.9193 17.9117 77.7719C17.9332 77.2367 17.9869 77.1367 18.3636 76.9714C18.4253 76.9446 18.4897 76.9106 18.5532 76.9053C18.8181 76.882 18.972 76.6908 19.0686 76.3674C19.1375 76.136 19.2467 75.9252 19.3908 75.7599C19.6476 75.4668 19.9589 75.5803 20.0368 76.0172C20.0851 76.2843 20.1576 76.2307 20.2855 76.1324C20.6193 75.8796 20.7741 75.9752 20.9083 76.438C20.9325 76.5273 20.8009 76.7302 20.9861 76.7105C21.0855 76.6998 21.1901 76.6524 21.2644 76.5479C21.3423 76.4389 21.3637 76.2745 21.2322 76.2691C20.9378 76.2584 20.7964 75.9082 20.5549 75.792C20.4779 75.7554 20.4251 75.7036 20.4466 75.5722C20.469 75.4481 20.477 75.3015 20.5915 75.2872C20.7204 75.272 20.7848 75.1684 20.8609 75.0531C20.9539 74.9129 21.0953 74.8834 21.2242 74.9138C21.5006 74.9781 21.7735 75.0719 21.9856 75.3489C22.0438 75.4239 22.1019 75.5526 22.1941 75.4847C22.2952 75.4114 22.3059 75.264 22.2809 75.1201C22.2299 74.828 22.1807 74.534 22.1234 74.2446C22.0751 73.9989 22.1037 73.8273 22.3185 73.7782C22.3829 73.763 22.4876 73.7648 22.4822 73.6227C22.4768 73.4923 22.39 73.4458 22.3104 73.4038C22.1127 73.2993 21.9033 73.3466 21.7002 73.3207C21.5463 73.3002 21.3709 73.3475 21.2582 73.1528C21.1409 72.9464 21.2483 72.6649 21.1356 72.4425C21.0998 72.3719 21.1946 72.3379 21.251 72.3629C21.4702 72.4585 21.6697 72.4603 21.8782 72.2781C21.9919 72.178 22.1502 72.2084 22.2836 72.2986C22.4133 72.388 22.5547 72.3888 22.6952 72.3826C22.7667 72.379 22.858 72.404 22.8831 72.2772C22.9063 72.1574 22.8249 72.0994 22.7659 72.0458C22.5583 71.8581 22.373 71.6276 22.1297 71.5052C21.9704 71.4248 21.821 71.289 21.7753 70.9951C21.9713 71.012 22.1341 71.2631 22.3095 71.0433C22.3274 71.0844 22.3373 71.1398 22.3632 71.1621C22.4634 71.2479 22.5842 71.1988 22.6665 71.1443C22.7587 71.0844 22.6674 70.9682 22.6263 70.8986C22.3614 70.4492 22.0017 70.2472 21.5874 70.1713C20.9325 70.0507 20.282 70.2222 19.6288 70.1945C19.5366 70.1909 19.397 70.2722 19.38 70.0703C19.3657 69.9122 19.4668 69.838 19.5804 69.8139C19.6359 69.8032 19.6896 69.7746 19.7451 69.7665C19.8551 69.7505 19.9169 69.7308 19.967 69.5387C20.0842 69.0804 20.4645 68.9258 20.7982 69.1393C21.0094 69.276 21.2197 69.2573 21.4112 69.0884C21.8693 68.6837 22.509 69.0473 22.5896 69.7701C22.6057 69.9175 22.6075 70.0685 22.6173 70.2186C22.6325 70.4643 22.7551 70.6814 22.9072 70.6475C23.2302 70.576 23.3394 70.9647 23.5479 71.1192C23.6356 71.1836 23.6427 71.1871 23.6937 71.1175C23.8825 70.8548 24.1366 70.7583 24.38 70.635C24.4623 70.5939 24.5733 70.5215 24.627 70.6743C24.6744 70.8119 24.6189 70.9522 24.5277 71.0326C24.372 71.1711 24.2136 71.3006 24.032 71.3783C23.8199 71.4695 23.6195 71.6419 23.5703 71.9305C23.5371 72.128 23.5121 72.3111 23.4119 72.4737C23.7403 72.2941 23.7689 71.7277 24.091 71.5383C24.1975 71.9689 24.321 72.3317 24.7156 72.3388C24.89 72.3424 25.0645 72.4103 25.239 72.4594C25.3043 72.4782 25.3893 72.4916 25.3795 72.6685C25.2569 72.6515 25.137 72.6444 25.0198 72.6194C24.6601 72.5398 24.3013 72.4603 23.9335 72.5023C23.7993 72.5184 23.674 72.5586 23.5792 72.6953C23.5085 72.7972 23.5094 72.9276 23.5318 73.0509C23.555 73.1715 23.6338 73.1474 23.6946 73.1233C24.1214 72.9642 24.5375 72.8677 24.8927 73.4074C24.4015 73.7308 23.8208 73.5066 23.3009 73.7621C23.3287 73.822 23.3349 73.8514 23.3475 73.8604C23.5184 73.9667 23.8602 74.0042 23.4459 74.3312C23.3976 74.3688 23.3993 74.4367 23.4459 74.4858C23.4906 74.5323 23.5613 74.5859 23.5962 74.518C23.7063 74.2999 23.8736 74.3643 24.0239 74.3223C24.1975 74.274 24.3747 74.1981 24.4749 73.9819C24.635 73.6361 24.89 73.4717 25.1603 73.3913C25.3034 73.3475 25.4117 73.2734 25.537 73.1787C25.3956 73.0116 25.2614 73.2573 25.1307 73.151C25.3822 72.8025 25.7383 72.7418 25.834 73.0473C25.9441 73.402 26.1374 73.4869 26.387 73.4985C26.6537 73.5119 26.7297 73.6781 26.6053 73.9667C27.2979 74.0971 27.3417 74.1561 27.7345 73.4306C27.773 73.36 27.8088 73.2859 27.8518 73.2215C27.9439 73.0857 28.0549 72.9723 28.1945 73.0518C28.3323 73.1304 28.3412 73.3073 28.3546 73.4941C28.3859 73.956 28.2464 74.3321 28.0486 74.6922C28.1998 74.6422 28.2777 74.5019 28.3564 74.3634C28.6159 73.905 28.6642 73.9122 28.9013 74.3768C28.9908 74.5501 29.1053 74.7324 29.2843 74.6904C29.4794 74.6448 29.6395 74.4429 29.7039 74.2338C29.7505 74.0846 29.6529 73.687 29.5858 73.6719C29.1304 73.5691 29.3809 73.2528 29.4436 72.9901C29.4731 72.8668 29.6189 72.7721 29.4624 72.6131C29.3335 72.4809 29.2404 72.2495 29.0427 72.4299C28.896 72.5631 28.7483 72.6962 28.6096 72.8436C28.487 72.9723 28.3886 72.9383 28.2911 72.8043C28.1783 72.6488 28.2616 72.5389 28.3358 72.4192C28.385 72.3397 28.4987 72.337 28.4924 72.1869C27.8008 71.9144 27.144 72.027 26.5096 72.4567C26.3101 72.5926 26.106 72.7212 25.8671 72.6077C25.7115 72.5336 25.647 72.4335 25.741 72.2236C25.8027 72.0851 25.86 71.9439 25.9334 71.7724C25.4412 72.0225 25.4412 72.0225 25.2399 71.8099C25.324 71.6919 25.4421 71.6821 25.5468 71.6464C25.69 71.599 25.8152 71.5383 25.8671 71.3301C25.9378 71.046 26.0819 70.9951 26.2984 71.0129C26.5123 71.0326 26.7691 71.0433 26.9149 70.7726C27.1109 70.4089 27.2988 70.0346 27.4688 69.6433C27.5797 69.3877 27.6111 69.226 27.3739 69.0974C27.3068 69.0607 27.1995 69.0178 27.2379 68.8615C27.2701 68.7283 27.3695 68.7561 27.4455 68.7176C27.6343 68.6211 27.7999 68.8668 28.0406 68.7543C27.5994 68.3522 27.2406 67.8885 26.7306 67.7384C26.9248 67.5937 27.0894 67.6651 27.2532 67.7625C27.3892 67.8429 27.5234 67.9359 27.6773 67.9421C27.7381 67.9439 27.7927 67.9162 27.8097 67.834C27.8303 67.7321 27.7712 67.7098 27.7149 67.6884C27.6683 67.6714 27.6227 67.6526 27.6379 67.5427C27.7838 67.4757 27.9054 67.4909 28.0316 67.6634C28.1882 67.8805 28.5237 67.8269 28.5488 68.2655C28.5506 68.2995 28.6096 68.2781 28.6427 68.2414C28.7805 68.0877 28.7626 68.2754 28.7832 68.3629C28.819 68.5139 28.6785 68.5488 28.6571 68.6756C28.9237 68.7641 28.8772 68.5434 28.8584 68.3388C28.8092 67.8134 29.1062 67.2631 29.4856 67.2577C29.669 67.255 29.7854 67.1612 29.9053 67.0281C30.0815 66.8315 30.1871 66.5349 30.4207 66.4161C30.5039 66.3732 30.4958 66.2249 30.4949 66.1114C30.4913 65.8291 30.5092 65.5762 30.7061 65.3797C30.8278 65.2591 30.8242 65.0947 30.6238 65.0625C30.5406 65.0482 30.4117 65.0071 30.4242 64.9035C30.4708 64.5077 30.2533 64.6926 30.1755 64.714C29.8006 64.8168 29.431 64.9553 29.0597 65.0795C28.9371 65.1206 28.5917 64.8775 28.6007 64.7257C28.6177 64.463 28.8047 64.6167 28.9067 64.5541C28.93 64.5389 28.9514 64.5193 28.981 64.4951C28.8602 64.4612 28.7447 64.454 28.6454 64.3951C28.1139 64.0815 27.527 64.1404 26.9811 63.9269C26.9301 63.9072 26.8675 63.9099 26.8165 63.9296C26.3825 64.1002 25.9477 64.0261 25.5146 63.9376C25.2855 63.8912 25.0914 63.7473 24.9384 63.5088C24.8659 63.3962 24.822 63.264 24.7827 63.1291C25.0744 63.0576 25.3643 62.9396 25.6452 62.7556C26.1911 62.3955 26.7029 62.0015 27.1995 61.5923C27.2872 61.7129 27.3632 61.8496 27.4053 62.0292C27.4634 62.2731 27.5958 62.2955 27.7059 62.2133C27.8607 62.098 27.9931 62.1418 28.1327 62.2079C28.4173 62.3419 28.6946 62.3491 28.9774 62.182C29.2566 62.0194 29.5393 62.0685 29.7773 62.3044C29.9733 62.4983 30.1755 62.5429 30.4054 62.5438C30.9683 62.5456 30.9548 62.5447 31.2072 61.8559C31.2966 61.6102 31.2832 61.5146 31.0891 61.4556C30.8734 61.3895 30.7016 61.2796 30.5629 61.092C31.0882 61.2305 31.6429 61.3895 32.2898 61.5637C32.5359 61.6298 32.799 61.6495 33.0656 61.6468C33.3305 61.746 33.5873 61.8666 33.7394 62.2374C33.7761 62.3249 33.8199 62.2678 33.8548 62.232C33.9953 62.0828 34.1143 62.1525 34.2288 62.2892C34.2762 62.3446 34.3407 62.4652 34.389 62.3919C34.5805 62.0989 34.695 62.3589 34.7916 62.5001C34.9661 62.7538 35.1218 62.7609 35.3061 62.542C35.2247 62.3231 34.925 62.2588 34.9948 62.006C35.1111 61.5834 35.0601 61.0687 35.3956 60.7489C35.5853 60.5684 35.7177 60.4004 35.9441 60.6515C36.1615 60.8918 36.3888 60.9437 36.5991 60.5907C36.6805 60.4558 36.8335 60.4085 36.9624 60.4585C37.3677 60.6131 37.6692 61.0562 38.0835 61.1983C38.1587 61.2233 38.2168 61.3538 38.2186 61.4681C38.2303 61.8979 38.3251 61.7567 38.4763 61.5637C38.5703 61.4422 38.7349 61.2796 38.8494 61.3993C39.04 61.5986 39.2718 61.5369 39.4597 61.6557C39.7952 61.8702 40.1111 61.7898 40.4368 61.6602C40.5531 61.6138 40.6667 61.5691 40.7929 61.6236C40.9352 61.6852 40.9871 61.7504 40.9182 61.9711C40.8242 62.2749 40.6336 62.4223 40.4565 62.6037C40.3867 62.6752 40.2623 62.7377 40.307 62.8816C40.3554 63.0343 40.4878 63.004 40.5826 62.9691C40.8162 62.8834 41.0381 62.7547 41.2483 62.5948C41.3199 62.5412 41.3691 62.4697 41.4568 62.6073C41.6993 62.9915 42.042 63.146 42.3945 63.2604C42.4849 63.289 42.5502 63.2345 42.6254 63.1737C42.9842 62.8816 43.3358 62.7207 43.7403 63.0942C43.9515 63.289 44.1438 63.4855 44.3013 63.7536C44.6145 64.2843 44.9429 64.7989 45.2489 65.3368C45.4806 65.746 45.7303 66.0909 46.1302 66.1918C46.2322 66.2168 46.3334 66.3267 46.4094 66.4313C46.5356 66.6046 46.676 66.7136 46.8496 66.7878C46.9982 66.8503 47.1029 67.0495 47.085 67.2524C47.0626 67.4882 46.8863 67.3283 46.7038 67.4159C46.9167 67.3944 47.0277 67.4668 47.1109 67.5955C47.204 67.5106 47.1136 67.239 47.2353 67.3042C47.4402 67.415 47.7426 67.3292 47.8366 67.482C48.1166 67.935 48.4745 67.8939 48.8307 67.9627C49.0454 68.0038 49.2763 68.0672 49.2655 68.4755C49.2628 68.5791 49.3282 68.5407 49.3666 68.5452C49.602 68.572 49.7872 68.2253 49.7102 67.8706C49.6682 67.6785 49.6852 67.5097 49.7881 67.3917C49.882 67.2845 49.9984 67.3274 50.0941 67.4382C50.1478 67.5025 50.2176 67.4802 50.2802 67.4972C50.597 67.5847 50.9504 67.5883 51.2224 67.7893C51.6027 68.0699 51.8774 67.691 52.1753 67.6026C52.4169 67.532 52.7283 67.3283 52.867 66.9236C52.8929 66.8432 52.9976 66.8003 53.0755 66.7636L53.318 66.9173C53.3162 66.979 53.2947 67.0406 53.2634 67.0898C53.1739 67.2345 53.0692 67.3596 52.9771 67.4998C52.9368 67.5597 52.8688 67.683 52.969 67.7C53.122 67.7268 53.2151 67.8706 53.3359 67.9555C53.6195 68.1548 53.9219 68.1458 54.2226 68.1422C54.2181 68.3406 54.2145 68.5389 54.2127 68.7373C54.0195 68.5872 53.8235 68.614 53.6231 68.5952C53.4728 68.5791 53.3314 68.5273 53.19 68.4567C53.0075 68.3656 52.8169 68.3022 52.6818 68.2477C52.51 68.2182 52.4214 68.2468 52.4125 68.4389C52.391 68.8731 52.2246 69.2028 51.9892 69.4815C51.9284 69.5557 51.847 69.6245 51.9006 69.763C51.949 69.8854 51.9973 70.0069 52.1306 69.9801C52.2442 69.956 52.3525 69.9953 52.4581 70.0578C52.629 70.1579 52.7999 70.1704 52.969 70.0453C53.1328 69.9238 53.3081 69.9488 53.4522 70.065C53.6231 70.2061 53.6929 70.2633 53.7412 69.914C53.7841 69.6031 54.0132 69.4154 54.2038 69.4503C54.2074 70.1632 54.2315 70.8753 54.2646 71.5865C54.8337 71.3453 55.3285 71.0612 55.4404 70.8378C55.9629 69.7942 56.5275 69.1894 57.6809 70.2097C58.3958 70.8423 58.8817 69.7469 58.8522 69.6102C58.4853 67.8528 59.6494 66.7225 60.52 65.5592V65.4369L60.6542 65.3832C61.5642 64.1413 62.7337 63.1148 64.2781 62.6323C64.0982 62.4938 63.922 62.5581 63.7367 62.5957C63.5077 62.6421 63.2625 62.6484 63.1417 62.417C63.0674 62.2731 62.9735 62.2311 62.8429 62.2008C62.6952 62.165 62.4858 62.1284 62.4966 61.9658C62.5082 61.8148 62.7256 61.8577 62.8572 61.8282C62.9413 61.8085 63.054 61.8201 63.0782 61.7138C63.0988 61.6137 63.0478 61.5146 62.969 61.4529C62.6362 61.1965 62.306 60.9374 61.9633 60.6962C61.762 60.5559 61.5266 60.4969 61.2743 60.5246C61.2144 60.5318 61.1347 60.5872 61.0873 60.496C61.1204 60.3888 61.3047 60.3852 61.2654 60.2503C61.2278 60.1235 61.0873 60.1512 60.9898 60.1244C60.8538 60.0859 60.75 60.0573 60.7545 59.8688C60.7571 59.7098 60.6202 59.6276 60.4601 59.6124C60.3115 59.599 60.2158 59.5186 60.1031 59.4167C59.9438 59.2711 59.8212 59.0701 59.5921 59.0022C59.4552 58.9611 59.2468 58.9378 59.449 58.7145C59.5044 58.6537 59.4347 58.6216 59.3926 58.593C59.321 58.5429 59.2664 58.4884 59.3121 58.3937C59.3649 58.2785 59.4588 58.3285 59.5447 58.3374C59.8901 58.3714 60.197 58.5188 60.5075 58.6582C60.5585 58.6814 60.6301 58.7279 60.6802 58.6671C60.7348 58.601 60.6694 58.5501 60.6265 58.5099C60.5039 58.3937 60.5486 58.3017 60.6703 58.2338C60.8028 58.1605 60.9361 58.0739 61.0802 58.0408C61.3432 57.9818 61.2645 57.8907 61.1285 57.7763C61.0873 57.7415 61.047 57.7049 61.0068 57.67C60.8931 57.5717 60.7455 57.4985 60.7026 57.3412C60.6319 57.0777 60.903 57.1438 61.0068 57.0535C61.2448 56.8489 61.3906 56.8945 61.5213 57.1786C61.5589 57.2581 61.5803 57.3466 61.6063 57.4324C61.7172 57.7933 61.949 57.9005 62.3373 57.7451C62.2299 57.6843 62.1431 57.6245 62.0465 57.5798C61.8398 57.4824 61.728 57.3082 61.711 57.0964C61.6904 56.8427 61.4649 56.6845 61.4398 56.4353C61.4318 56.3504 61.3146 56.3486 61.2323 56.3522C60.9656 56.3638 60.7267 56.2628 60.478 56.1869C60.2856 56.1279 60.2328 56.0359 60.3241 55.8581C60.3706 55.767 60.3634 55.6874 60.2614 55.6329C60.1979 55.599 60.1371 55.607 60.0878 55.6517C59.9823 55.7473 60.0762 55.8063 60.1344 55.8715C60.1916 55.9367 60.2176 56.0118 60.1746 56.0922C60.1209 56.1887 60.0297 56.1565 59.959 56.1306C59.6834 56.0278 59.4105 55.9153 59.1358 55.8063C59.0911 55.7884 59.041 55.7473 59.066 55.7116C59.1734 55.5606 59.1644 55.4051 59.1313 55.2362C59.1224 55.1907 59.2727 55.1308 59.1421 55.0772C59.0427 55.037 58.9828 55.1183 58.9944 55.2085C59.0427 55.5624 58.8029 55.6463 58.5372 55.7107C58.4951 55.431 58.0916 55.2898 57.7462 55.4355C57.7391 55.5123 57.8894 55.5293 57.8312 55.6052C57.7713 55.6865 57.6809 55.6204 57.6129 55.5892C57.3686 55.4784 57.127 55.3613 56.8854 55.2461C56.8183 55.2121 56.7467 55.1791 56.7047 55.272C56.6698 55.3479 56.7092 55.4489 56.7637 55.4587C57.0393 55.5088 57.0787 55.7723 57.2102 55.943C57.3212 56.085 57.3794 56.2896 57.2076 56.4558C57.0098 56.6488 56.2394 56.6622 56.03 56.4719C55.7571 56.2217 55.4493 56.0672 55.0717 56.0734C54.9805 56.0752 54.8883 56.0564 54.8248 55.9876C54.6637 55.8134 54.9858 55.5963 54.7738 55.4069C54.7281 55.3649 54.8418 55.2747 54.9151 55.2425C55.0297 55.1925 55.1487 55.1549 55.2641 55.1076C55.4287 55.0397 55.631 55.0138 55.7285 54.8592C55.8037 54.7395 55.8797 54.6555 56.0211 54.6269C55.8717 54.5938 55.758 54.6519 55.6435 54.7225C55.4923 54.8163 55.3384 54.9101 55.1773 54.9852C54.9921 55.071 54.8489 55.0057 54.8275 54.8011C54.8096 54.6358 54.7165 54.5715 54.5859 54.5161C54.4311 54.45 54.2754 54.3812 54.1242 54.3044C54.0562 54.2704 53.9712 54.2302 54.0007 54.1248C54.0517 53.9452 53.9345 53.997 53.8566 54.0256C53.5551 54.1382 53.2929 54.0202 53.25 53.7486C53.2061 53.4735 53.0236 53.4431 52.8652 53.3368C52.7802 53.2805 52.7489 53.1866 52.7015 53.0991C52.5395 52.7998 52.3543 52.513 52.1217 52.261C52.1163 52.2557 52.1047 52.2548 52.0966 52.2521V51.9305C52.136 51.7482 52.2424 51.6669 52.4295 51.7276C52.4223 51.5972 52.1288 51.5355 52.3606 51.4033C52.527 51.3077 52.5118 51.2434 52.4035 51.1281C52.3641 51.0861 52.306 51.0316 52.3525 50.9655C52.4017 50.8958 52.4787 50.911 52.5503 50.9271C52.739 50.9664 52.8929 51.0781 53.0504 51.1791C53.2983 51.3399 53.4817 51.1433 53.666 51.054C53.8325 50.9736 53.6392 50.8467 53.6293 50.7368C53.6168 50.5938 53.505 50.4402 53.6884 50.3294C53.9005 50.2007 54.2763 50.2338 54.4713 50.3928C54.6181 50.5116 54.7362 50.6564 54.8507 50.8056C54.9447 50.928 55.0744 50.9199 55.1836 50.8306C55.3276 50.7136 55.1505 50.6751 55.1102 50.6063C55.0583 50.5143 54.9885 50.4303 54.9366 50.3365C54.7514 50.0015 54.7935 49.9309 55.1907 49.9345C55.0565 49.7263 55.0843 49.4359 54.7433 49.3618C54.6315 49.3358 54.5116 49.2662 54.381 49.2644C54.2718 49.2626 54.1143 49.2653 54.1072 49.1536C54.0875 48.8739 53.8441 48.739 53.7421 48.5148C53.6687 48.3548 53.7099 48.2994 53.8539 48.2735C54.0919 48.2297 54.33 48.1958 54.5689 48.1574C54.7058 48.1359 54.8445 48.1154 54.9205 47.9555C54.6449 47.8706 54.3962 47.8375 54.1528 47.9885C53.9631 48.1056 53.819 47.9974 53.7108 47.8643C53.5927 47.7196 53.624 47.5293 53.6857 47.3792C53.7394 47.2461 53.8888 47.3229 53.9989 47.3425C54.1841 47.3729 54.3684 47.4113 54.5545 47.4355C54.7362 47.4605 55.0404 47.3747 55.0431 47.3193C55.0619 46.9378 55.2766 47.2353 55.3813 47.2112C55.4645 47.1933 55.5594 47.2693 55.673 47.2362C55.4699 47.1773 55.2802 47.1299 55.0932 47.0683C54.9062 47.0084 54.7219 46.9387 54.5384 46.8681C54.457 46.836 54.3487 46.8065 54.3622 46.6957C54.3783 46.5706 54.4991 46.6019 54.5814 46.5992C54.7505 46.5929 54.9205 46.5965 55.0905 46.6045C55.2471 46.6117 55.3393 46.5751 55.2811 46.3928C55.2516 46.2981 55.2498 46.2204 55.384 46.2016C55.843 46.1355 56.1499 46.2865 56.2797 46.7171C56.3593 46.9771 56.4935 46.9843 56.6957 46.9173C56.7512 46.8985 56.8362 46.9012 56.8461 46.8279C56.8568 46.7564 56.7772 46.7305 56.728 46.6966C56.4649 46.5107 56.2117 46.3151 55.9844 46.0846C55.8976 45.997 55.8627 45.93 55.8851 45.8076C55.9289 45.5628 55.8573 45.4967 55.6149 45.5413C55.3661 45.586 55.1174 45.6262 54.8767 45.5226C54.7863 45.4841 54.6404 45.4538 54.6932 45.3126C54.7362 45.1956 54.8069 45.0714 54.9903 45.1232C55.1791 45.1768 55.3733 45.2116 55.5674 45.2429C55.8403 45.2876 56.0596 45.1295 56.0801 44.8748C56.0864 44.7962 56.124 44.7801 56.1821 44.8007C56.2573 44.8275 56.328 44.8668 56.3987 44.9052C56.5544 44.991 56.609 44.9302 56.6063 44.7703C56.6 44.3539 56.2958 44.1306 55.9379 44.3218C55.4449 44.5871 54.9071 44.4996 54.3908 44.5737C54.2754 44.5907 54.1268 44.5085 54.0902 44.3861C54.0588 44.278 53.9828 44.2038 53.9497 44.1163C53.904 43.9885 53.8611 43.8563 53.8164 43.7258C53.9998 43.7044 54.0284 43.4238 54.2297 43.4569C54.5277 43.5051 54.8239 43.4998 55.1227 43.5078C55.3795 43.5141 55.6158 43.6579 55.8502 43.7678C55.9227 43.8018 56.0265 43.8822 56.0703 43.8304C56.2537 43.6097 56.5436 43.4703 56.6725 43.2487C56.7888 43.0513 56.8389 42.835 57.1467 42.7394C57.0044 42.7046 56.9284 42.6858 56.8523 42.668C56.4103 42.567 56.2153 42.3383 56.1786 41.8871C56.1669 41.745 56.1866 41.6351 56.3602 41.6226C56.5177 41.6119 56.5383 41.5083 56.5338 41.3778C56.5293 41.2527 56.5302 41.1277 56.5418 41.0035C56.5517 40.9007 56.6107 40.7685 56.7074 40.7917C56.9382 40.8444 56.9937 40.6872 57.0814 40.5487C57.1145 40.4969 57.1566 40.4388 57.2272 40.4459C57.3069 40.454 57.3167 40.5264 57.3194 40.588C57.3275 40.747 57.4044 40.7926 57.5503 40.7408C57.7221 40.6809 57.7793 40.781 57.7972 40.9239C57.8258 41.1339 57.7972 41.3251 57.6764 41.5109C57.5324 41.7307 57.5646 41.8737 57.7552 42.0676C57.7695 41.9934 57.7802 41.9219 57.7954 41.854C57.8411 41.6593 57.8366 41.4189 58.1659 41.5297C58.2741 41.5663 58.3233 41.443 58.3233 41.3573C58.3251 41.0455 58.5649 41.0821 58.7385 41.0964C58.9345 41.1116 59.0651 41.2483 59.024 41.469C58.9944 41.6325 59.0204 41.737 59.2154 41.7236C59.3953 41.7102 59.3729 41.8111 59.338 41.9282C59.27 42.1578 59.1922 42.3812 58.9729 42.5491C59.1063 42.5902 59.2101 42.6117 59.3067 42.6528C59.4633 42.7198 59.5331 42.8619 59.4481 43.0003C59.3121 43.2237 59.1304 43.4042 58.8208 43.3559C58.6902 43.3363 58.5551 43.3059 58.4218 43.3443C58.3287 43.3702 58.2616 43.4247 58.2446 43.5239C58.2312 43.6043 58.2598 43.6794 58.3368 43.6963C58.5444 43.741 58.5497 43.8652 58.5014 44.0323C58.4862 44.0877 58.4826 44.1654 58.5515 44.1985C58.6285 44.236 58.6553 44.1538 58.7054 44.1216C58.8817 44.0099 59.0374 43.8518 59.2745 43.8634C59.4114 43.8715 59.3926 43.7741 59.389 43.6776C59.3613 43.1361 59.5572 42.936 60.0816 42.9637C60.1523 42.9673 60.2373 42.995 60.2713 42.9101C60.3124 42.8074 60.2247 42.7654 60.1523 42.7323C59.8033 42.5733 59.6825 42.2909 59.7013 41.9255C59.7058 41.8371 59.7085 41.7459 59.6959 41.6593C59.6673 41.4457 59.7621 41.3707 59.9679 41.3662C60.2256 41.3617 60.2919 41.2786 60.2167 41.0294C60.1308 40.7461 60.0494 40.4683 60.078 40.1672C60.0834 40.1189 60.0601 40.06 60.0306 40.0198C59.9885 39.9581 59.9295 39.8902 59.9975 39.8339C60.0753 39.7678 60.1764 39.8018 60.2373 39.8732C60.3285 39.9822 60.4126 40.0993 60.4851 40.2217C60.7178 40.613 60.9245 41.0151 60.9692 41.4967C61.0211 41.4654 61.0461 41.4556 61.064 41.4386C61.3584 41.167 61.6278 41.2331 61.7432 41.6074C61.7673 41.6834 61.7879 41.7629 61.8255 41.8335C62.0501 42.2525 61.9579 42.5206 61.5087 42.693C61.3548 42.752 61.3369 42.8359 61.4148 42.9575C61.5445 43.1576 61.6027 43.3845 61.634 43.6124C61.6591 43.7884 61.7423 43.8187 61.8953 43.8339C62.4223 43.8867 62.9502 43.8679 63.4781 43.8607C63.6893 43.8581 63.7851 44.0886 63.9926 44.0912C64.0302 44.0921 64.0284 44.1913 64.0034 44.2369C63.8692 44.4745 63.6267 44.6613 63.6696 44.9811C63.6732 45.0053 63.5828 45.0347 63.5444 45.0705C63.4701 45.1428 63.4254 45.2349 63.462 45.3367C63.5005 45.4422 63.5918 45.3912 63.6705 45.385C63.93 45.3653 64.2655 45.5699 64.3738 45.821C64.4347 45.9622 64.5009 46.0801 64.6825 46.056C64.7496 46.0488 64.8194 46.0622 64.8239 46.1426C64.8409 46.4866 65.0816 46.76 65.1209 47.0986C65.1353 47.2309 65.1433 47.4015 65.3429 47.4167C65.52 47.4301 65.5129 47.2648 65.5773 47.1683C65.6659 47.0316 65.6936 46.7904 65.9558 46.9521C66.0068 46.9834 66.0417 46.9459 66.0569 46.8994C66.1276 46.6805 66.1133 46.4178 66.3701 46.2945C66.354 45.9362 66.6832 45.896 66.8863 45.7433C67.0295 45.6369 67.1512 45.6745 67.2362 45.8353C67.3633 46.0738 67.5709 46.2266 67.799 46.3562C68.4674 46.7386 69.1367 47.1174 69.8006 47.5052C70.0002 47.6213 70.1192 47.6159 70.1308 47.3559C70.1451 47.0781 70.3966 47.0084 70.5719 46.9646C70.7455 46.9208 70.9128 47.0888 70.9943 47.272C71.0506 47.3962 71.0945 47.5257 71.1482 47.6687C71.2672 47.4944 71.3504 47.3551 71.3083 47.1522C71.2654 46.9458 71.4676 46.9467 71.5956 46.9146C71.7441 46.8779 71.7423 47.0093 71.7566 47.1013C71.7808 47.2693 71.7879 47.4399 71.8201 47.6061C71.8926 47.9787 71.9221 48.3343 71.5982 48.6211C71.5088 48.7006 71.5759 48.7363 71.6591 48.7605C71.9535 48.8444 72.2505 48.9034 72.5583 48.8498C73.0585 48.764 73.2357 48.8552 73.4379 49.3144C73.4916 49.4377 73.5193 49.5717 73.5784 49.6905C73.701 49.9336 73.8674 50.1846 74.1161 50.2668C75.18 50.6215 76.1267 51.1987 77.0814 51.7589C77.4161 51.9555 77.7632 52.0618 78.1471 52.0734C78.5605 52.085 78.8889 52.3388 79.0204 52.7319C79.0562 52.8382 79.1206 52.9204 79.2119 52.9821C79.4633 53.1545 79.721 53.3153 80.0029 53.4332C80.0664 53.46 80.1228 53.4797 80.1738 53.4949C80.0941 54.609 79.9868 55.7571 79.8624 56.9034C79.7836 56.9213 79.7013 56.9419 79.6136 56.9454C79.6915 56.9883 79.772 57.0115 79.849 57.033C79.8329 57.1742 79.8176 57.3162 79.8015 57.4574C79.5904 57.5244 79.3595 57.5485 79.1806 57.6941C79.1815 57.6941 79.1815 57.6941 79.1815 57.695C79.9367 57.5851 80.6936 57.4761 81.447 57.3582C81.7047 57.8469 82.0698 58.1302 82.6335 57.939C82.7131 57.913 82.7928 57.8862 82.8724 57.8594C84.4678 55.9555 85.1639 53.1875 86.7253 49.5503C87.4259 47.9179 87.7176 46.4625 87.7633 45.1947C87.7221 45.2429 87.6783 45.2912 87.6425 45.3367C87.4921 45.5279 87.3588 45.3466 87.247 45.234C87.043 45.0276 86.8595 44.7989 86.6475 44.6023C86.1732 44.1609 85.7697 43.7017 85.886 43.0021C85.9173 42.8082 85.7947 42.8216 85.6659 42.8681C85.2069 43.0325 84.7711 43.2317 84.4365 43.5963C83.8916 44.1886 83.5739 44.2306 82.8456 43.7919C82.6523 43.6749 82.4796 43.5168 82.2828 43.4095C81.8765 43.1924 81.4086 43.0075 81.0095 43.129C79.3005 43.6499 77.51 43.7535 75.7241 43.8902C75.1004 43.9367 74.5528 44.1198 74.0535 44.4683C73.5184 44.8418 72.8456 44.806 72.2738 44.3915C72.1181 44.2789 71.9526 44.2279 71.7736 44.2288C71.2797 44.2315 70.7876 44.2548 70.3098 44.3602C70.2024 44.3834 70.1093 44.4093 70.0297 44.4379C68.9855 42.8359 67.9404 41.1607 66.9195 39.4721C67.0018 39.3738 67.085 39.2666 67.1915 39.1799C67.0483 39.1951 66.923 39.238 66.8049 39.2818C66.6788 39.0736 66.5526 38.8645 66.4282 38.6555C66.626 38.3633 66.8926 38.1131 66.9696 37.745C66.7709 37.6807 66.5714 37.628 66.3772 37.5529C66.175 37.4752 65.9021 37.4421 65.8681 37.1687C65.835 36.9105 66.0712 36.8444 66.294 36.8015C66.141 36.6211 66.0157 36.4861 65.9057 36.3396C65.8099 36.2127 65.7616 36.0734 65.8457 35.925C65.9334 35.7732 66.073 35.7723 66.2242 35.8044C66.3826 35.8384 66.5401 35.8857 66.7002 35.9143C66.9436 35.959 67.1942 36.1341 67.4456 35.9635C66.8523 35.3103 66.7763 35.1451 66.9356 35.1209C67.1306 35.0914 67.3006 34.978 67.5198 35.0119C67.7784 35.053 67.723 35.3559 67.8992 35.4649C68.0442 35.2371 68.0522 35.0334 67.8948 34.8198C67.7427 34.6117 67.7632 34.4625 68.0084 34.3838C68.0836 34.3606 68.2661 34.3463 68.1283 34.2123C67.8858 33.9746 68.1319 34.0336 68.2133 34.0398C68.3413 34.0488 68.4773 34.1381 68.5981 34.1238C68.8531 34.0961 69.2002 34.3472 69.3425 33.9407C69.4168 33.7298 69.4964 33.5216 69.5787 33.3001C68.8432 33.2858 68.8557 33.2822 68.5954 32.5755C68.4558 32.2002 68.5972 32.0099 68.922 31.9965C69.2378 31.984 69.5456 31.8786 69.8964 32.0555C70.0932 32.1555 70.3804 32.0501 70.6247 32.0215C70.7097 32.0135 70.7061 31.9286 70.7008 31.8464C70.6659 31.2898 70.7786 31.1433 71.3441 31.1093C71.6152 31.0923 71.83 30.9735 71.8488 30.7385C71.9034 30.1006 72.323 29.9487 72.8357 29.8719C73.0764 29.8361 73.335 29.8361 73.5641 29.6619C73.2545 29.4904 72.944 29.3965 72.74 29.1902C72.4286 28.8766 72.2765 28.9498 72.0358 29.2205C71.7933 29.4939 71.4739 29.3974 71.0703 28.9784C70.8592 28.7595 71.0685 28.596 71.1616 28.4388C71.286 28.2234 71.4399 28.0287 71.6242 27.7633C71.1696 27.8187 70.9155 28.16 70.5227 28.1439C70.0628 28.1243 69.9438 28.5987 69.6136 28.7693C69.5125 28.8212 69.4588 29.0383 69.3121 28.9114C69.1573 28.7783 69.3103 28.6487 69.3747 28.5272C69.6217 28.0555 69.8677 27.5819 70.1487 27.0414C69.9581 27.0745 69.8624 27.0914 69.7648 27.1066C69.483 27.1531 69.1394 27.2898 68.9363 27.0378C68.7511 26.81 69.075 26.6036 69.1582 26.382C69.2172 26.2203 69.3013 26.0854 69.0311 26.1077C68.6276 26.1408 68.7278 25.9362 68.8459 25.7512C69.1788 25.2259 69.6172 24.8524 70.2883 24.8453C70.5352 24.8426 70.784 24.8569 71.0202 24.7854C71.1115 24.7577 71.2448 24.7568 71.235 24.621C71.226 24.495 71.0998 24.4691 71.0032 24.4379C70.3992 24.2395 69.8275 24.2002 69.3067 24.5871C68.8951 24.8926 68.5336 25.2455 68.1945 25.6279C68.088 25.7495 67.9878 25.8906 67.8044 25.8915C67.7131 25.7557 67.7838 25.6673 67.8223 25.5815C68.1489 24.8676 68.6356 24.3128 69.3515 23.9938C69.508 23.9241 69.6951 23.8786 69.7792 23.7302C69.9921 23.3505 70.3303 23.3335 70.7142 23.3943C70.886 23.4211 71.0345 23.5221 70.9316 23.1557C70.8296 22.7876 71.2842 22.8466 71.4757 22.8966C71.8157 22.9851 72.0322 22.8636 72.2622 22.6885C72.5539 22.466 72.8447 22.2391 73.1498 22.0354C73.3914 21.8745 73.7672 21.9031 73.8226 22.1649C73.9166 22.6009 74.1215 22.4079 74.2888 22.3731C74.6736 22.2927 74.9921 22.038 75.4386 22.0997C76.1115 22.1908 76.2287 22.0639 76.2761 21.3554C76.2994 20.998 76.4855 20.8774 76.8157 20.9301C76.8989 20.9435 76.9866 21.0231 77.0591 20.9382C77.102 20.889 77.0859 20.8238 77.0438 20.7747C76.9544 20.6693 76.8604 20.7309 76.762 20.7434C76.4783 20.7818 76.2529 20.9864 75.9468 20.9677C75.7786 20.9587 75.5854 21.0624 75.4628 20.8667C75.3402 20.6684 75.554 20.6335 75.6408 20.5388C75.6641 20.5129 75.6766 20.4566 75.6668 20.4209C75.5433 19.9795 75.835 19.8696 76.1365 19.7508C76.5052 19.6069 76.898 19.5489 77.2774 19.4497C77.8849 19.2906 78.4889 19.1254 79.1135 19.0235C79.3944 18.977 79.662 18.9145 79.9483 19.137C80.1335 19.2808 80.4368 19.0878 80.4163 18.8823C80.3679 18.4008 79.7783 17.7208 79.2575 17.5984C78.8414 17.5002 78.4164 17.4555 77.9959 17.392C77.8062 17.3635 77.6165 17.3456 77.4393 17.2482C77.3302 17.1892 77.2255 17.1115 77.2479 16.9712C77.2666 16.8506 77.3785 16.8265 77.4796 16.822C77.7534 16.8077 78.0308 16.8113 78.3037 16.7952C78.4961 16.7845 78.6598 16.7595 78.6607 16.478C78.6616 16.2654 79.4284 15.766 79.619 15.8464C79.8141 15.9286 79.9563 15.9053 80.1049 15.8062C80.4082 15.6016 80.6569 15.8642 80.827 16.0385C80.9665 16.1814 80.7581 16.3726 80.6328 16.5048C80.5156 16.6281 80.3885 16.7443 80.2856 16.8783C80.0082 17.242 80.0342 17.7575 80.3447 18.0496C80.3348 17.7745 80.2955 17.5082 80.3509 17.2455C80.3966 17.0338 80.5272 16.8658 80.7133 16.8819C81.1061 16.9176 81.2618 16.6505 81.4631 16.4191C81.7056 16.1376 82.0098 15.8973 82.3991 16.1001C82.6424 16.227 82.8035 16.1957 83.0004 16.1144C83.2241 16.0224 83.5256 15.8741 83.6786 16.109C83.82 16.3244 83.5005 16.4727 83.3654 16.638C83.2786 16.7443 83.1229 16.8345 83.2044 17.0034C83.2795 17.1606 83.4442 17.2473 83.6088 17.2571C84.2933 17.2947 84.9769 17.3375 85.6596 17.342C86.0578 17.3447 86.4175 17.2035 86.7074 16.9266C86.7754 16.8613 86.8184 16.7086 86.9723 16.789C87.0394 16.9668 86.8103 17.1455 86.9991 17.2938C87.1772 17.4323 87.3266 17.2607 87.4787 17.2053C87.6899 17.1294 87.8492 17.0704 88.038 17.3322C88.1981 17.5538 88.4558 17.5368 88.6741 17.4055C88.8764 17.2839 89.0786 17.3036 89.3264 17.3367C89.6772 17.3849 90.0396 17.5439 90.3993 17.4215C90.614 17.3483 90.9003 17.1821 90.8744 17.6789C90.8672 17.8147 90.9889 17.7941 91.0712 17.7941C91.2126 17.7941 91.3379 17.8164 91.3799 17.988C91.4292 18.1971 91.26 18.2176 91.1428 18.2873C90.6704 18.5669 90.1308 18.6554 89.5949 18.7573C89.5054 18.7733 89.3676 18.7778 89.3676 18.91C89.3667 19.0512 89.5009 19.0601 89.5958 19.0744C89.8705 19.1173 89.9089 19.2844 89.8248 19.4926C89.7336 19.7186 89.6539 19.9643 89.5054 20.1448C89.2325 20.4763 89.4258 20.5245 89.7166 20.5549C89.8042 20.5638 89.891 20.5737 89.9787 20.5844C90.2239 20.6121 90.4852 20.5719 90.7017 20.747C91.0614 21.04 90.6516 21.208 90.6122 21.4287C90.5236 21.9353 90.291 22.0094 89.8329 21.7441C89.7031 21.6699 89.5859 21.5699 89.4651 21.4778C88.9542 21.0865 88.5489 21.1589 88.2187 21.7387C88.4164 21.7226 88.5891 21.7209 88.7556 21.6923C89.1179 21.6297 89.4383 21.762 89.6781 22.0371C89.9644 22.365 90.4118 22.3686 90.7017 22.6867C90.7983 22.793 90.9487 22.6867 91.048 22.6045C91.3737 22.3364 91.7808 22.2471 92.1718 22.1158C92.476 22.0148 92.6371 22.0916 92.7051 22.4195C92.74 22.5911 92.8295 22.6929 93.0147 22.6706C93.131 22.6563 93.1999 22.5884 93.216 22.4803C93.2509 22.2498 93.0711 22.2578 92.9324 22.2239C92.7919 22.189 92.6818 22.1104 92.6541 21.9585C92.621 21.7754 92.7695 21.7343 92.8867 21.7039C93.3413 21.5833 93.8021 21.4796 94.2593 21.3679C94.3363 21.3483 94.441 21.3581 94.4454 21.4323C94.4651 21.7405 94.6378 21.9442 94.8526 22.1444C94.9107 22.198 94.7828 22.4231 95.0002 22.3731C95.1693 22.3338 95.1622 22.1658 95.0539 22.0541C94.6289 21.6127 94.8472 21.2723 95.1156 20.9328C95.4574 21.2759 96.1115 21.0865 96.3996 20.5603C96.3298 20.4486 96.1223 20.5683 96.116 20.4093C96.1106 20.2413 96.2914 20.2475 96.4104 20.2243C96.8327 20.1448 97.2586 20.0769 97.6827 20.0072C97.8026 19.9875 97.9261 19.967 97.885 19.799C97.8519 19.6623 97.6971 19.5614 97.6183 19.5998C97.2192 19.7919 96.8971 19.4676 96.5562 19.3594C96.2699 19.2692 95.9863 19.0432 96.0319 18.6536C96.0838 18.2033 97.0448 17.4555 97.5047 17.5189C98.1069 17.602 98.6536 17.5234 99.1251 17.1571C99.2396 17.0668 99.3765 17.0079 99.526 17.0418C99.9081 17.1267 99.7255 17.7289 100.187 17.7896C100.289 17.8021 100.239 18.0336 100.179 18.147C100.085 18.3239 99.9725 18.4883 99.8758 18.6625C99.7363 18.9109 99.5081 19.1388 99.5439 19.4416C99.5716 19.6775 99.5618 19.8634 99.4123 20.0358C99.6351 19.9411 99.7201 19.7552 99.7917 19.5489C99.8857 19.2772 99.985 19.003 100.112 18.7483C100.258 18.4544 100.505 18.4088 100.744 18.6697C100.935 18.8788 101.12 18.8788 101.34 18.8323C101.605 18.7751 101.873 18.7215 102.144 18.684C102.265 18.667 102.413 18.6411 102.484 18.8144C102.603 19.1075 102.699 18.9261 102.768 18.8118C103.033 18.3731 103.485 18.2855 103.821 18.6197C104.157 18.9538 104.42 18.8234 104.73 18.818C104.895 18.8153 105.032 18.9136 105.18 18.9887C105.694 19.2478 106.222 19.4649 106.776 19.5891C106.789 19.5917 106.803 19.5828 106.817 19.5792C106.928 19.7258 107.038 19.8732 107.148 20.0197C107.285 20.3056 107.234 20.5192 106.933 20.6121C107.077 20.7845 107.511 20.5897 107.355 20.9909C107.243 21.2786 107.328 21.3527 107.584 21.4081C107.676 21.4287 107.808 21.4483 107.816 21.5842C107.824 21.7235 107.711 21.7771 107.606 21.8236C107.326 21.9478 107.016 21.9406 106.714 21.9496C106.235 21.9648 106.205 22.4088 106.063 22.7045C105.935 22.9717 106.31 22.9628 106.435 23.1048C106.598 23.2898 106.898 23.3934 106.781 23.7177C106.645 24.0948 106.135 24.4048 105.725 24.3726C105.417 24.3485 105.119 24.2627 104.819 24.1654C104.577 24.0876 104.42 24.2216 104.373 24.4459C104.312 24.7425 104.575 24.6273 104.696 24.6845C104.859 24.7604 105.032 24.8095 105.193 24.8891C105.772 25.1714 105.791 25.309 105.285 25.6807C105.669 25.8379 105.933 26.2632 106.442 26.0434C106.607 25.971 106.832 25.9541 106.999 25.8334C107.139 25.7316 107.335 25.5797 107.459 25.7253C107.771 26.0908 108.217 26.0443 108.577 26.2543C108.833 26.4053 108.84 26.5196 108.683 26.6929C108.428 26.9762 108.161 27.2496 107.899 27.5274C107.748 27.6874 107.593 27.8464 107.662 28.1368C108.098 27.992 108.448 27.8026 108.6 27.3648C108.718 27.0253 109.011 27.0369 109.286 27.1173C109.583 27.204 109.74 27.4935 109.816 27.7571C109.884 27.9902 109.616 28.0269 109.458 28.1055C109.191 28.2377 108.919 28.3601 108.659 28.5022C108.404 28.6416 108.108 29.0463 108.16 29.1232C108.53 29.6646 107.953 29.46 107.843 29.5931C107.757 29.6959 107.559 29.6816 107.45 29.8343C107.766 29.7218 108.057 29.6083 108.355 29.5154C108.654 29.4207 108.958 29.3412 109.263 29.2643C109.398 29.2304 109.566 29.1696 109.662 29.3358C109.77 29.5225 109.587 29.594 109.487 29.6735C109.277 29.8433 109.058 29.9987 108.835 30.1488C108.629 30.2864 108.552 30.4231 108.812 30.6188C108.947 30.7198 109.029 30.8261 108.878 30.9789C108.365 31.5015 107.822 31.5855 107.216 31.1209C106.849 30.8377 106.67 30.9556 106.485 31.238C106.433 31.3175 106.324 31.3943 106.385 31.5033C106.446 31.6105 106.572 31.5712 106.669 31.5712C107.193 31.5775 107.715 31.6061 108.24 31.707C108.439 31.7446 108.552 31.8035 108.649 31.9912C108.846 32.37 109.003 32.3905 109.266 32.101C109.534 31.8053 109.807 31.514 110.219 31.4283C110.372 31.3961 110.588 31.3005 110.666 31.5417C110.731 31.7446 110.77 31.9804 110.485 32.0823C110.191 32.1877 109.91 32.3244 109.632 32.4647C109.241 32.6621 109.127 33.0856 109.361 33.4537C109.434 33.5681 109.404 33.6262 109.31 33.653C109.187 33.6869 109.056 33.6994 108.928 33.7137C108.643 33.7432 108.637 33.879 108.802 34.0961C109.24 34.6608 109.855 34.6778 110.109 34.0774C110.461 33.2474 111.231 32.8578 111.809 32.269C111.937 32.1359 112.209 32.1082 112.38 32.2413C112.532 32.3593 112.705 32.3896 112.835 32.479C113.025 32.6103 113.215 32.7515 113.407 32.8873C113.195 33.091 113.449 33.502 113.159 33.6476C112.733 33.8621 112.364 34.1489 111.979 34.4222C111.648 34.6572 111.201 34.6822 110.79 34.7537C110.665 34.7752 110.449 34.7644 110.449 34.877C110.442 35.3514 110.22 35.8169 110.284 36.2431C110.34 36.6237 110.5 36.9686 110.209 37.3903C110.423 37.3028 110.539 37.2563 110.653 37.2081C111.317 36.9293 111.798 37.0571 112.308 37.6405C112.469 37.8245 112.557 37.9943 112.351 38.1739C112.163 38.3392 112.243 38.5009 112.383 38.676C112.517 38.8413 112.644 39.0155 112.757 39.196C112.851 39.3452 112.911 39.5811 112.767 39.6418C112.419 39.7875 112.512 40.0564 112.542 40.328C112.555 40.4316 112.559 40.5505 112.464 40.6077C112.354 40.672 112.268 40.5817 112.2 40.5004C112.027 40.2896 111.883 40.3003 111.751 40.5085C111.596 40.7551 111.422 40.6702 111.251 40.4924C111 40.2315 110.839 39.942 110.801 39.5721C110.757 39.137 110.57 38.9717 110.129 38.886C110.188 39.0012 110.246 39.1075 110.297 39.2165C110.44 39.5266 110.694 39.8509 110.162 40.0108C109.988 40.0626 110.053 40.2789 110.141 40.3968C110.459 40.8257 110.118 41.0017 109.884 41.1473C109.62 41.3117 109.315 41.2483 109.139 40.907C109.009 40.6541 108.867 40.5353 108.637 40.7381C108.422 40.9266 108.346 40.7667 108.27 40.5737C108.121 40.1949 107.99 39.8143 108.093 39.3783C107.884 39.448 107.729 39.5176 107.566 39.5516C107.299 39.607 107.064 39.4783 107.03 39.2076C106.972 38.7743 107.017 38.3553 107.456 38.1274C107.642 38.0327 107.844 37.9443 107.974 37.7665C108.065 37.6432 108.093 37.5056 108.012 37.3519C107.948 37.2295 107.834 37.1535 107.719 37.2036C107.412 37.3394 107.277 37.1732 107.165 36.8989C107.129 36.8096 107.053 36.6997 106.93 36.7184C106.796 36.7399 106.847 36.8793 106.816 36.9695C106.707 37.2902 106.673 37.6539 106.362 37.8612C106.181 37.98 106.303 38.0961 106.408 38.2239C107 38.9414 106.957 39.3997 106.265 39.858C106.172 39.9197 106.037 39.9626 106.081 40.1118C106.135 40.2914 106.289 40.2664 106.413 40.2431C107.019 40.1314 107.464 40.4022 107.813 40.9195C107.898 41.0463 107.989 41.1732 108.094 41.2822C108.349 41.5467 108.307 41.7379 108.051 41.9389C107.73 42.19 107.731 42.3669 108.083 42.6358C108.484 42.9432 108.872 43.2487 109.145 43.6874C109.189 43.758 109.277 43.8161 109.356 43.8455C109.473 43.8884 109.616 43.926 109.59 44.068C109.575 44.1458 109.528 44.1931 109.468 44.2226C109.495 44.211 109.519 44.2038 109.545 44.1922C109.627 44.1565 109.729 44.1547 109.821 44.1556C109.859 44.1565 109.895 44.2083 110.153 44.4111C108.314 44.8328 107.54 46.76 105.645 46.9324C105.281 46.9664 105.147 47.3488 105.011 47.641C104.641 48.437 104.045 49.0267 103.334 49.5101C103.068 49.6906 102.551 49.9988 102.525 49.9631C101.407 48.488 99.7219 50.425 98.8638 49.5172C97.9082 48.5085 96.873 47.9063 95.6453 47.4471C95.2203 47.2889 95.2847 46.9601 95.5263 46.6492C95.7509 46.3615 96.2779 46.4259 96.354 45.8603C95.5782 45.6771 95.1335 46.0881 94.849 46.7019C94.3577 47.766 93.6706 48.8167 93.505 49.9389C93.2527 51.6383 92.6577 53.2242 92.162 54.8261C91.2359 57.813 89.8669 60.6032 87.0107 62.291C86.0238 62.8744 84.934 63.0826 83.7564 63.0183C80.8305 62.8574 77.9717 63.0495 75.1371 64.0547C74.0016 64.4567 72.5682 64.0708 71.2708 64.3727C69.8946 64.6935 68.5632 65.1375 67.2452 65.6227C65.3098 67.7518 63.2643 71.7616 64.7657 78.6493C65.1335 78.853 65.5701 78.9486 66.1168 78.9263C66.1661 78.9245 66.2108 78.9334 66.2582 78.9343C66.3226 78.9629 66.396 78.9817 66.4631 79.0076L69.8785 78.5198V78.8128C70.4055 78.8128 71.2833 78.9879 72.6872 79.4543C78.3019 81.3234 78.3019 81.3234 81.1097 84.128C83.9184 86.9308 87.6613 87.8653 87.6613 87.8653V88.3067C87.6944 88.2861 87.7284 88.2647 87.7785 88.2477C87.8626 88.2218 88.0648 88.2066 87.9127 88.0565C87.6425 87.7939 87.9154 87.8591 88.0057 87.8662C88.148 87.876 88.2983 87.9743 88.4325 87.96C88.7153 87.9288 89.1018 88.2066 89.2584 87.7563C89.3399 87.5231 89.4302 87.2917 89.5197 87.046C88.7046 87.0299 88.7189 87.0264 88.4299 86.2419C88.2751 85.8256 88.4316 85.6147 88.7922 85.6004C89.143 85.587 89.483 85.47 89.8722 85.6665C90.0906 85.7764 90.41 85.6594 90.6802 85.6281C90.7742 85.6183 90.7706 85.5245 90.7652 85.4342C90.7259 84.8159 90.8511 84.6542 91.4784 84.6167C91.7781 84.5979 92.0161 84.4648 92.0385 84.2048C92.0984 83.4981 92.5637 83.3283 93.1328 83.2444C93.3995 83.205 93.6858 83.205 93.9408 83.0112C93.5963 82.8218 93.2527 82.7163 93.0263 82.4894C92.6818 82.14 92.5118 82.2214 92.2452 82.5216C91.9768 82.8253 91.6224 82.7181 91.175 82.2535C90.9397 82.0105 91.1732 81.8291 91.2753 81.654C91.4139 81.4163 91.5848 81.1992 91.7897 80.9044C91.2851 80.9669 91.0041 81.3449 90.5675 81.327C90.0575 81.3064 89.9268 81.8327 89.5591 82.0212C89.4463 82.0793 89.3864 82.3178 89.2244 82.1785C89.0526 82.0302 89.2226 81.8872 89.2933 81.7532C89.568 81.2296 89.8409 80.7043 90.1514 80.1056C89.9411 80.1414 89.8347 80.1601 89.7273 80.178C89.4141 80.228 89.0329 80.3799 88.8075 80.1012C88.6035 79.8492 88.9614 79.6196 89.0535 79.373C89.1197 79.1943 89.2128 79.0442 88.913 79.0692C88.4657 79.1059 88.5775 78.8789 88.7072 78.6734C89.0768 78.0909 89.5627 77.6763 90.3071 77.6692C90.5809 77.6665 90.8574 77.6826 91.1187 77.6022C91.2216 77.5718 91.3674 77.5709 91.3567 77.4208C91.3468 77.2805 91.2073 77.2519 91.0999 77.2171C90.4306 76.9973 89.7962 76.9526 89.2191 77.3824C88.7627 77.7219 88.361 78.1132 87.9869 78.5376C87.8671 78.6716 87.7561 78.8289 87.5521 78.8298C87.4519 78.6788 87.5297 78.5805 87.5736 78.4858C87.9342 77.6942 88.4737 77.0786 89.2692 76.7248C89.4427 76.6471 89.6503 76.5979 89.7425 76.4317C89.9787 76.0127 90.3536 75.9922 90.7795 76.0601C90.971 76.0904 91.1348 76.2021 91.0211 75.7956C90.9075 75.3882 91.4122 75.4534 91.6242 75.5079C92.0018 75.6062 92.2416 75.4713 92.4975 75.2774C92.8205 75.0308 93.1418 74.7788 93.4809 74.5528C93.7484 74.375 94.1663 74.4063 94.2271 74.6958C94.3309 75.1809 94.5591 74.9665 94.7434 74.9272C95.1702 74.8369 95.5237 74.5564 96.0202 74.6234C96.7647 74.7252 96.8953 74.585 96.9472 73.7987C96.9732 73.402 97.1799 73.268 97.5467 73.3279C97.6389 73.3422 97.7346 73.4297 97.817 73.3368C97.8644 73.2823 97.8456 73.209 97.7991 73.1545C97.7006 73.0384 97.5959 73.1063 97.4877 73.1206C97.1718 73.1626 96.9222 73.3895 96.5831 73.3699C96.3969 73.3582 96.1822 73.4735 96.0462 73.2564C95.9093 73.0375 96.1473 72.9991 96.243 72.8928C96.269 72.8633 96.2833 72.8025 96.2717 72.7623C96.1348 72.2727 96.4587 72.1503 96.7933 72.019C97.2013 71.8599 97.6371 71.7956 98.0576 71.6857C98.7323 71.5097 99.4016 71.3256 100.094 71.2122C100.406 71.1612 100.703 71.0915 101.021 71.3381C101.226 71.4981 101.562 71.2836 101.539 71.0567C101.486 70.5215 100.831 69.7674 100.254 69.6316C99.7926 69.5235 99.322 69.4726 98.8549 69.4029C98.6446 69.3716 98.4335 69.3511 98.2384 69.2448C98.1176 69.1778 98.0013 69.092 98.0254 68.9365C98.0469 68.8025 98.1704 68.7757 98.2822 68.7703C98.5865 68.7561 98.8934 68.7596 99.1976 68.7418C99.4106 68.7283 99.5913 68.7016 99.5922 68.3897C99.5931 68.153 100.444 67.5999 100.656 67.6884C100.872 67.7804 101.029 67.7554 101.193 67.6446C101.53 67.4185 101.808 67.7089 101.995 67.9019C102.149 68.06 101.92 68.2727 101.779 68.4201C101.649 68.5559 101.51 68.6846 101.395 68.8347C101.086 69.2376 101.115 69.8076 101.46 70.132C101.449 69.8282 101.406 69.5325 101.468 69.2421C101.518 69.0053 101.663 68.8195 101.869 68.8374C102.305 68.8767 102.478 68.5809 102.701 68.3236C102.97 68.0127 103.307 67.7456 103.739 67.9707C104.009 68.111 104.187 68.0761 104.405 67.9859C104.654 67.8849 104.989 67.7196 105.159 67.9796C105.315 68.22 104.96 68.3844 104.811 68.5675C104.714 68.6855 104.542 68.7855 104.631 68.9723C104.715 69.1465 104.898 69.2439 105.081 69.2528C105.84 69.2957 106.598 69.343 107.354 69.3484C107.797 69.3511 108.195 69.1947 108.517 68.8865C108.593 68.8141 108.64 68.6462 108.811 68.7346C108.884 68.9312 108.631 69.1304 108.841 69.2939C109.038 69.4485 109.204 69.2582 109.372 69.1974C109.607 69.1125 109.783 69.0473 109.992 69.3368C110.17 69.5825 110.456 69.5637 110.697 69.4181C110.922 69.2832 111.146 69.3055 111.421 69.3422C111.811 69.3949 112.212 69.5727 112.611 69.4351C112.85 69.3547 113.168 69.1706 113.138 69.721C113.13 69.8729 113.266 69.8479 113.357 69.8487C113.514 69.8487 113.652 69.8747 113.698 70.065C113.753 70.2955 113.565 70.3187 113.435 70.3964C112.912 70.7065 112.314 70.8047 111.72 70.9173C111.621 70.9361 111.468 70.9406 111.467 71.0862C111.466 71.2434 111.614 71.2533 111.721 71.2684C112.025 71.3167 112.067 71.5016 111.974 71.7331C111.873 71.9841 111.784 72.2566 111.62 72.4559C111.317 72.8222 111.531 72.8776 111.853 72.9106C111.951 72.9213 112.047 72.9321 112.145 72.9428C112.416 72.9741 112.707 72.9303 112.946 73.1242C113.345 73.4503 112.891 73.6352 112.848 73.88C112.748 74.442 112.491 74.5242 111.983 74.2312C111.839 74.1481 111.708 74.0364 111.575 73.9345C111.008 73.5012 110.56 73.5816 110.193 74.224C110.413 74.2052 110.604 74.2044 110.789 74.1722C111.19 74.1025 111.546 74.249 111.812 74.5546C112.13 74.9182 112.625 74.9218 112.946 75.2756C113.054 75.3935 113.221 75.2756 113.331 75.1836C113.692 74.887 114.143 74.7878 114.577 74.643C114.914 74.5305 115.093 74.6153 115.168 74.979C115.207 75.1684 115.306 75.2819 115.511 75.2568C115.641 75.2417 115.717 75.1648 115.735 75.046C115.774 74.7914 115.575 74.7994 115.421 74.761C115.264 74.7226 115.143 74.6368 115.112 74.467C115.075 74.2651 115.241 74.2187 115.37 74.1847C115.874 74.0507 116.385 73.9363 116.893 73.8121C116.978 73.7907 117.095 73.8014 117.099 73.8836C117.12 74.2258 117.311 74.4527 117.551 74.6743C117.616 74.7333 117.473 74.9826 117.715 74.9272C117.901 74.8834 117.893 74.6975 117.774 74.5733C117.302 74.0846 117.544 73.7067 117.842 73.3306C118.221 73.7112 118.946 73.5012 119.267 72.9178C119.189 72.7936 118.959 72.9267 118.952 72.7498C118.944 72.5631 119.146 72.5693 119.277 72.5452C119.746 72.4567 120.218 72.3808 120.689 72.3031C120.823 72.2816 120.959 72.2593 120.913 72.0735C120.876 71.9216 120.705 71.8099 120.618 71.8519C120.175 72.0654 119.818 71.7045 119.44 71.5856C119.122 71.4847 118.808 71.2345 118.859 70.803C118.916 70.3026 119.98 69.4726 120.492 69.5432C121.16 69.6361 121.767 69.5477 122.288 69.142C122.415 69.0428 122.567 68.9767 122.734 69.0143C123.157 69.1099 122.955 69.7773 123.467 69.8434C123.579 69.8577 123.524 70.1141 123.457 70.241C123.353 70.4366 123.229 70.6198 123.12 70.8128C122.966 71.0871 122.713 71.3399 122.753 71.6768C122.783 71.9377 122.773 72.144 122.607 72.3352C122.854 72.2298 122.949 72.0243 123.028 71.7956C123.133 71.4936 123.242 71.1898 123.383 70.9075C123.545 70.5823 123.818 70.5313 124.084 70.8208C124.297 71.0522 124.501 71.0531 124.746 70.9995C125.041 70.937 125.337 70.878 125.636 70.836C125.77 70.8173 125.935 70.7887 126.014 70.9808C126.146 71.306 126.252 71.1049 126.328 70.979C126.622 70.4902 127.124 70.3955 127.496 70.7645C127.869 71.1362 128.161 70.9915 128.505 70.9852C128.688 70.9817 128.839 71.0915 129.004 71.1746C129.573 71.4605 130.159 71.7027 130.773 71.8403C130.789 71.8438 130.804 71.8322 130.82 71.8287C130.941 71.9913 131.063 72.1539 131.186 72.3174C131.338 72.6337 131.281 72.8713 130.948 72.9741C131.108 73.1662 131.588 72.9508 131.417 73.394C131.291 73.713 131.386 73.796 131.67 73.8577C131.773 73.88 131.918 73.9024 131.927 74.0525C131.937 74.207 131.812 74.266 131.694 74.3178C131.384 74.4563 131.041 74.4483 130.705 74.4581C130.174 74.4742 130.141 74.9665 129.983 75.2953C129.842 75.591 130.258 75.5812 130.396 75.7393C130.576 75.9439 130.909 76.0592 130.78 76.4192C130.628 76.8374 130.063 77.1805 129.608 77.1438C129.267 77.117 128.936 77.0232 128.604 76.9151C128.333 76.8284 128.161 76.9776 128.109 77.226C128.041 77.5548 128.332 77.4271 128.467 77.4905C128.647 77.5763 128.841 77.629 129.02 77.7174C129.66 78.031 129.682 78.1829 129.12 78.5957C129.547 78.7708 129.839 79.2417 130.403 78.9986C130.587 78.9182 130.836 78.8995 131.021 78.7646C131.175 78.6529 131.393 78.4831 131.532 78.6448C131.878 79.0505 132.372 78.9986 132.77 79.2318C133.056 79.3998 133.063 79.5258 132.889 79.7179C132.606 80.0324 132.311 80.3362 132.02 80.6435C131.852 80.8213 131.681 80.9973 131.757 81.319C132.241 81.159 132.627 80.9482 132.796 80.4639C132.928 80.086 133.253 80.1003 133.558 80.1896C133.887 80.2852 134.061 80.606 134.145 80.8981C134.22 81.1572 133.924 81.1974 133.748 81.285C133.452 81.4315 133.152 81.5682 132.863 81.7246C132.579 81.8801 132.25 82.3286 132.309 82.4143C132.719 83.0138 132.079 82.7878 131.958 82.9343C131.862 83.0487 131.642 83.0326 131.521 83.2033C131.872 83.0773 132.195 82.9513 132.525 82.8477C132.856 82.744 133.194 82.6556 133.532 82.5716C133.682 82.5332 133.867 82.4644 133.975 82.6484C134.096 82.8557 133.891 82.9352 133.779 83.0246C133.548 83.2113 133.305 83.3846 133.058 83.5499C132.83 83.7036 132.743 83.8555 133.032 84.0717C133.182 84.1843 133.273 84.3013 133.105 84.4711C132.537 85.0518 131.934 85.1447 131.262 84.6283C130.854 84.3156 130.657 84.4461 130.451 84.7597C130.392 84.8472 130.271 84.9321 130.341 85.0545C130.408 85.1724 130.548 85.1278 130.656 85.1296C131.237 85.1358 131.815 85.1662 132.397 85.2788C132.617 85.3208 132.744 85.386 132.852 85.5942C133.069 86.0141 133.244 86.0373 133.536 85.7157C133.832 85.3878 134.136 85.0661 134.592 84.9696C134.763 84.9339 135.001 84.8285 135.088 85.0965C135.16 85.3208 135.203 85.5825 134.888 85.696C134.561 85.8122 134.249 85.9632 133.941 86.1195C133.509 86.3384 133.381 86.8084 133.641 87.2167C133.722 87.3427 133.689 87.4088 133.585 87.4365C133.448 87.4749 133.303 87.4892 133.161 87.5044C132.844 87.5374 132.837 87.6884 133.022 87.9288C133.506 88.5551 134.189 88.5738 134.471 87.9073C134.861 86.988 135.714 86.5564 136.355 85.9024C136.498 85.7559 136.799 85.7246 136.989 85.8729C137.158 86.0025 137.349 86.0355 137.494 86.1356C137.704 86.2803 137.915 86.4376 138.128 86.5886C137.893 86.8146 138.173 87.2694 137.854 87.4311ZM46.8541 64.8087C46.9758 64.5068 47.1064 64.2217 47.3811 64.1288C47.4348 64.1101 47.5252 64.1422 47.4876 63.951C47.4062 63.5427 47.4116 63.3783 47.5825 63.2925L49.2566 64.3513C49.2136 64.379 49.1707 64.4121 49.1277 64.4558C48.9908 64.5952 48.8396 64.7668 48.6553 64.7578C48.4235 64.7471 48.2768 64.9142 48.1157 65.0947C47.8035 65.4458 47.5386 65.8648 47.153 66.1052C46.9114 66.2544 46.8443 66.0757 46.8255 65.872C46.7951 65.5566 47.0331 65.2322 46.8201 64.907C46.813 64.8954 46.8407 64.8418 46.8541 64.8087ZM51.4371 65.729C51.4166 65.7344 51.3951 65.7388 51.3736 65.7397C51.2922 65.7424 51.2582 65.6799 51.2385 65.603L51.4371 65.729ZM77.2828 0C46.2421 0 15.5307 8.56379 0.332031 17.1267V68.0681C0.332031 139.211 67.2219 161.388 77.2828 166C87.5575 161.828 154.233 140.968 154.233 68.5077V17.1267C139.249 8.56379 108.536 0 77.2828 0Z" fill="#008566"/>
<path d="M265.27 121.575C259.046 121.575 253.982 119.541 250.078 115.473C246.174 111.378 244.222 105.912 244.222 99.0765V97.6359C244.222 93.0882 245.085 89.0349 246.811 85.4759C248.565 81.8886 250.998 79.0922 254.11 77.0867C257.25 75.053 260.645 74.0361 264.294 74.0361C270.263 74.0361 274.903 75.9992 278.213 79.9254C281.523 83.8517 283.178 89.4727 283.178 96.7885V100.051H252.073C252.186 104.57 253.501 108.228 256.019 111.025C258.565 113.793 261.791 115.177 265.695 115.177C268.467 115.177 270.815 114.612 272.739 113.482C274.663 112.352 276.346 110.855 277.789 108.991L282.584 112.719C278.736 118.623 272.965 121.575 265.27 121.575ZM264.294 80.4763C261.126 80.4763 258.466 81.6343 256.316 83.9506C254.166 86.2385 252.837 89.4586 252.327 93.6108H275.327V93.0176C275.101 89.0349 274.026 85.956 272.102 83.7811C270.179 81.5779 267.576 80.4763 264.294 80.4763Z" fill="black"/>
<path d="M295.08 74.8835L295.335 80.6457C298.843 76.2393 303.426 74.0361 309.084 74.0361C318.788 74.0361 323.682 79.5018 323.767 90.4331V105.58V120.727H315.916V90.3907C315.888 87.0859 315.124 84.6426 313.625 83.0608C312.154 81.479 309.848 80.6881 306.708 80.6881C304.161 80.6881 301.927 81.366 300.003 82.7218C298.079 84.0777 296.58 85.8572 295.505 88.0604V120.727H287.654V74.8835H295.08Z" fill="black"/>
<path d="M343.265 110.516H370.296V120.727H330.534V59.0373H343.265V110.516Z" fill="black"/>
<path d="M393.317 121.575C386.584 121.575 381.095 119.513 376.852 115.389C372.636 111.265 370.529 105.771 370.529 98.907V97.7206C370.529 93.1165 371.42 89.0066 373.202 85.3911C374.984 81.7473 377.502 78.9509 380.756 77.002C384.037 75.0247 387.772 74.0361 391.959 74.0361C398.239 74.0361 403.176 76.0133 406.769 79.9678C410.39 83.9223 412.201 89.5292 412.201 96.7885V101.788H382.962C383.358 104.782 384.547 107.183 386.527 108.991C388.536 110.799 391.068 111.703 394.123 111.703C398.847 111.703 402.539 109.994 405.199 106.576L411.225 113.313C409.386 115.911 406.896 117.945 403.756 119.414C400.616 120.854 397.136 121.575 393.317 121.575ZM391.916 83.9506C389.483 83.9506 387.503 84.7697 385.975 86.408C384.476 88.0463 383.514 90.3907 383.09 93.4413H400.149V92.4668C400.092 89.7552 399.357 87.6649 397.942 86.1961C396.528 84.6991 394.519 83.9506 391.916 83.9506Z" fill="black"/>
<path d="M416.424 97.4664C416.424 90.3201 418.022 84.6285 421.219 80.3915C424.444 76.1546 428.843 74.0361 434.416 74.0361C438.886 74.0361 442.578 75.7026 445.492 79.0357V55.6477H457.798V120.727H446.723L446.129 115.855C443.073 119.668 439.141 121.575 434.332 121.575C428.928 121.575 424.585 119.456 421.304 115.219C418.05 110.954 416.424 105.036 416.424 97.4664ZM428.688 98.3562C428.688 102.65 429.437 105.94 430.937 108.228C432.436 110.516 434.614 111.66 437.472 111.66C441.263 111.66 443.936 110.064 445.492 106.872V88.7807C443.964 85.5888 441.319 83.9929 437.557 83.9929C431.644 83.9929 428.688 88.7807 428.688 98.3562Z" fill="black"/>
<path d="M460.874 97.4664C460.874 90.4331 462.543 84.7697 465.881 80.4763C469.248 76.1828 473.774 74.0361 479.461 74.0361C484.497 74.0361 488.415 75.7591 491.215 79.2052L491.725 74.8835H502.843V119.202C502.843 123.213 501.923 126.701 500.085 129.667C498.274 132.633 495.714 134.893 492.404 136.446C489.094 138 485.218 138.777 480.776 138.777C477.41 138.777 474.128 138.099 470.931 136.743C467.734 135.415 465.316 133.692 463.675 131.574L469.107 124.117C472.162 127.535 475.868 129.244 480.225 129.244C483.478 129.244 486.01 128.368 487.821 126.617C489.631 124.894 490.537 122.436 490.537 119.244V116.787C487.707 119.979 483.987 121.575 479.376 121.575C473.859 121.575 469.389 119.428 465.966 115.134C462.571 110.813 460.874 105.093 460.874 97.9748V97.4664ZM473.138 98.3562C473.138 102.508 473.972 105.771 475.642 108.144C477.311 110.488 479.602 111.66 482.516 111.66C486.251 111.66 488.924 110.262 490.537 107.466V88.1875C488.896 85.3911 486.251 83.9929 482.601 83.9929C479.659 83.9929 477.339 85.1934 475.642 87.5943C473.972 89.9953 473.138 93.5825 473.138 98.3562Z" fill="black"/>
<path d="M528.791 121.575C522.058 121.575 516.57 119.513 512.326 115.389C508.111 111.265 506.003 105.771 506.003 98.907V97.7206C506.003 93.1165 506.894 89.0066 508.677 85.3911C510.459 81.7473 512.977 78.9509 516.23 77.002C519.512 75.0247 523.246 74.0361 527.433 74.0361C533.714 74.0361 538.65 76.0133 542.243 79.9678C545.864 83.9223 547.675 89.5292 547.675 96.7885V101.788H518.437C518.833 104.782 520.021 107.183 522.001 108.991C524.01 110.799 526.542 111.703 529.597 111.703C534.322 111.703 538.014 109.994 540.673 106.576L546.699 113.313C544.86 115.911 542.371 117.945 539.23 119.414C536.09 120.854 532.61 121.575 528.791 121.575ZM527.391 83.9506C524.958 83.9506 522.978 84.7697 521.45 86.408C519.95 88.0463 518.989 90.3907 518.564 93.4413H535.623V92.4668C535.567 89.7552 534.831 87.6649 533.417 86.1961C532.002 84.6991 529.994 83.9506 527.391 83.9506Z" fill="black"/>
<path d="M575.83 86.3656C574.161 86.1396 572.69 86.0267 571.417 86.0267C566.777 86.0267 563.736 87.5943 562.293 90.7297V120.727H550.029V74.8835H561.614L561.954 80.3491C564.415 76.1404 567.824 74.0361 572.181 74.0361C573.539 74.0361 574.812 74.2197 576 74.5869L575.83 86.3656Z" fill="black"/>
<path d="M208.213 114.075H243.562V120.727H198.58V114.626L232.444 65.7317H199.132V59.0373H242.204V65.0114L208.213 114.075Z" fill="black"/>
</svg>
