<svg width="39" height="42" viewBox="0 0 39 42" fill="none" xmlns="http://www.w3.org/2000/svg">
<path fill-rule="evenodd" clip-rule="evenodd" d="M34.8494 22.0944C34.7295 22.1534 34.6256 22.2319 34.5174 22.3067C34.4242 22.3709 34.2985 22.3778 34.1834 22.3974C34.148 22.4034 34.0877 22.4003 34.0874 22.431C34.0856 22.5612 34.023 22.6887 34.0413 22.8057C34.0567 22.9096 34.1016 23.004 34.02 23.1197C34.0803 23.0956 34.1127 23.0828 34.1452 23.0698C34.3314 22.9932 34.4668 23.0283 34.6099 23.1883C34.6553 23.2386 34.6796 23.2852 34.6218 23.3344C34.5691 23.3794 34.5914 23.4238 34.631 23.4717C34.6687 23.5171 34.7045 23.5648 34.7361 23.6142C34.7625 23.655 34.7792 23.7199 34.7389 23.7365C34.6411 23.7764 34.6669 23.8499 34.6758 23.9245C34.6794 23.9527 34.6806 23.9852 34.6535 24.0011C34.6231 24.0189 34.5988 23.994 34.5798 23.9715C34.5311 23.9139 34.4903 23.9168 34.4536 23.9739C34.41 24.0412 34.3608 24.018 34.3129 23.9693C34.2422 23.898 34.1969 23.8183 34.1862 23.7173C34.1738 23.5983 34.1214 23.5526 33.9974 23.5295C34.0139 23.561 34.0306 23.5899 34.0448 23.6199C34.0851 23.7049 34.1558 23.7938 34.0068 23.8373C33.9579 23.8516 33.9762 23.9106 34.001 23.9435C34.0902 24.0606 33.9941 24.109 33.9285 24.1491C33.8543 24.1939 33.7689 24.1765 33.7194 24.0831C33.6825 24.0136 33.6432 23.9812 33.5783 24.037C33.518 24.0884 33.4964 24.0443 33.4749 23.9918C33.4331 23.8878 33.3964 23.7837 33.4255 23.6641C33.3667 23.6833 33.3234 23.7022 33.277 23.7115C33.202 23.7267 33.1361 23.6915 33.1262 23.6175C33.1105 23.4986 33.1229 23.3841 33.2466 23.3218C33.2983 23.2956 33.3553 23.2715 33.392 23.2227C33.4176 23.189 33.4255 23.1512 33.4027 23.1095C33.3844 23.0758 33.3523 23.0548 33.3203 23.0687C33.2337 23.1058 33.1959 23.0603 33.1647 22.9853C33.1541 22.9606 33.1331 22.9303 33.0986 22.9359C33.0608 22.9416 33.075 22.9798 33.0667 23.0043C33.0357 23.0921 33.0266 23.1918 32.9387 23.2486C32.8883 23.2814 32.9222 23.3132 32.9516 23.3481C33.1179 23.5445 33.1062 23.6703 32.9116 23.7956C32.8855 23.8124 32.8477 23.8245 32.8601 23.8651C32.8751 23.9143 32.9182 23.9075 32.9534 23.9013C33.1237 23.8704 33.2484 23.9448 33.3467 24.0864C33.3708 24.1213 33.3961 24.156 33.4257 24.1857C33.4975 24.2581 33.4856 24.3107 33.4136 24.3658C33.3236 24.4344 33.3236 24.483 33.4222 24.5565C33.535 24.6406 33.6444 24.7244 33.7207 24.8447C33.7331 24.8639 33.7582 24.8798 33.7805 24.8877C33.8132 24.8996 33.8535 24.9098 33.8459 24.9488C33.837 24.9936 33.7914 25.0069 33.7488 24.9956C33.6852 24.9789 33.6214 24.9566 33.5603 24.9296C33.3649 24.8431 33.1749 24.7458 33.0203 24.5763C33.0107 24.6015 33.0046 24.6114 33.0031 24.6225C32.9772 24.801 32.8624 24.8458 32.7129 24.7357C32.6822 24.7129 32.6521 24.6887 32.6184 24.6723C32.4177 24.5728 32.3731 24.4481 32.4828 24.2672C32.5203 24.2049 32.5026 24.169 32.4397 24.1438C32.3358 24.1021 32.2494 24.0317 32.1724 23.9547C32.1131 23.8947 32.0743 23.905 32.0158 23.939C31.8133 24.0562 31.6308 24.1999 31.4451 24.3391C31.3708 24.3952 31.2705 24.3332 31.1957 24.3861C31.1823 24.3956 31.1542 24.3579 31.1501 24.334C31.1288 24.2103 31.161 24.0772 31.0536 23.9682C31.0457 23.9602 31.0693 23.9258 31.0723 23.9024C31.0782 23.8561 31.067 23.8095 31.0249 23.7815C30.9806 23.7519 30.9626 23.7943 30.9368 23.8168C30.8503 23.8918 30.6717 23.9015 30.5607 23.8358C30.4986 23.7987 30.4413 23.7713 30.3831 23.8274C30.3615 23.8477 30.3324 23.8605 30.308 23.8313C30.2026 23.7069 30.0379 23.667 29.9262 23.5498C29.8828 23.5041 29.8306 23.4416 29.7554 23.4875C29.6882 23.5286 29.7384 23.5891 29.744 23.642C29.7518 23.7164 29.8116 23.8141 29.6715 23.8212C29.6449 23.8225 29.6434 23.8457 29.6512 23.8671C29.6892 23.9677 29.7706 24.0626 29.7146 24.1754C29.824 24.3058 29.7181 24.4062 29.69 24.5161C29.6702 24.5931 29.616 24.6103 29.5392 24.5722C29.4254 24.5152 29.3073 24.5119 29.1885 24.5223C28.8408 24.5523 28.4936 24.5834 28.1454 24.6097C28.041 24.6178 28 24.6505 28.0704 24.7513C28.1462 24.8595 28.077 24.9508 28.0274 25.0126C27.9782 25.0737 27.8705 25.0545 27.7881 25.0069C27.7324 24.9749 27.6799 24.9371 27.6189 24.8976C27.627 24.9941 27.6381 25.0682 27.7116 25.1331C27.7864 25.199 27.7141 25.2514 27.6779 25.2964C27.6353 25.3487 27.5983 25.2991 27.5667 25.268C27.5094 25.2116 27.4579 25.1492 27.3984 25.0954C27.2651 24.9744 27.1516 24.8484 27.184 24.6569C27.1931 24.6037 27.1589 24.6077 27.1224 24.62C26.9934 24.6651 26.8705 24.7198 26.7765 24.8197C26.624 24.9817 26.5343 24.9934 26.3298 24.8734C26.2755 24.8412 26.2269 24.7977 26.1714 24.7685C26.0576 24.709 25.9261 24.6584 25.8136 24.6918C25.3334 24.8343 24.8299 24.8628 24.3284 24.9001C24.1529 24.9129 23.9989 24.963 23.859 25.0585C23.7084 25.1609 23.5191 25.151 23.3586 25.0373C23.315 25.0067 23.2683 24.9925 23.218 24.9928C23.2103 24.993 23.2026 24.9936 23.1949 24.9936C23.4148 25.4695 24.6191 25.8585 24.2365 26.2932C24.1833 26.3542 24.1234 26.4024 24.0855 26.4804C23.9663 26.7259 23.8524 26.9638 23.5207 27.0314C23.3432 27.0673 23.2001 27.2206 23.3023 27.4466C22.9645 27.5689 25.397 27.9396 25.2088 28.1535C25.129 28.2442 25.0927 28.3338 25.0803 28.4257L28.7709 29.3571L29.243 29.8167C30.3757 29.9185 31.5031 30.0363 32.6255 30.1714C31.7294 31.3498 30.6884 32.4543 29.5025 33.483C25.7462 36.74 21.548 38.3739 19.5422 39.1193C17.6004 38.3341 13.1721 36.5257 9.34052 33.1014C8.29184 32.1644 7.35969 31.171 6.54273 30.1237C7.54631 30.0067 8.55394 29.9039 9.56568 29.8133L10.7459 28.6645L17.1566 27.1586C17.2836 27.0255 17.4632 26.9529 17.7138 27.009C17.9698 27.0665 18.458 26.6333 18.5398 26.292C18.5956 26.0598 18.7287 25.9274 18.9377 25.8412C19.442 25.6332 20.7558 25.2618 21.0451 24.8312C21.2954 24.4594 21.2621 23.9717 20.7594 23.8164C20.4873 23.7323 20.2773 23.5332 20.0703 23.3331C19.8585 23.1285 19.6715 22.8229 19.2633 22.999C19.174 23.0374 19.008 22.952 18.8971 22.89C18.4625 22.6472 17.9335 22.5236 17.7074 22.0082C17.6723 21.928 17.5938 21.8466 17.5142 21.8076C16.9601 21.537 16.4048 21.2673 15.8399 21.0195C15.6554 20.9385 15.4592 20.8869 15.3044 20.7505C15.2325 20.6874 15.1558 20.6281 15.0445 20.6923C15.0477 20.8286 15.1878 20.8238 15.2604 20.8849C15.3776 20.9831 15.4128 21.0824 15.3243 21.2175C15.2327 21.3572 15.1001 21.3874 14.9964 21.2755C14.6119 20.8602 14.1904 20.8973 13.7113 21.0484C13.6768 21.0191 13.6419 20.9898 13.6072 20.9604C13.5968 21.2203 13.5872 21.4803 13.5766 21.7405C13.5729 21.7422 13.57 21.7405 13.5664 21.7429C13.5122 21.7789 13.4566 21.7923 13.395 21.7714C13.3496 21.7561 13.3013 21.7528 13.2539 21.7515C13.1421 21.7486 13.0392 21.7087 12.9446 21.6321C12.8875 21.586 12.8272 21.5544 12.7601 21.5408C12.7233 21.5335 12.6778 21.5302 12.6571 21.4869C12.5959 21.3591 12.4968 21.3121 12.3989 21.2554C12.2721 21.1819 12.227 21.1859 12.1474 21.3362C12.0458 21.5284 11.8932 21.6385 11.7574 21.776C11.7195 21.8144 11.6787 21.8146 11.6408 21.7714C11.6143 21.7418 11.5878 21.725 11.5502 21.7431C11.4105 21.8113 11.2642 21.8239 11.1168 21.823C11.0017 21.8223 10.8946 21.8665 10.7899 21.9243C10.762 21.9397 10.7525 21.9671 10.7504 22.0044C10.747 22.0706 10.7312 22.1311 10.6985 22.1834C10.6838 22.2072 10.6677 22.2284 10.6466 22.1992C10.618 22.1598 10.6017 22.1794 10.5776 22.2092C10.5536 22.2394 10.5073 22.2617 10.4949 22.2107C10.4763 22.1346 10.3915 22.0834 10.4389 21.9795C10.4434 21.9691 10.4328 21.9446 10.4266 21.9283C10.4126 21.8894 10.4112 21.8493 10.4242 21.8115C10.4407 21.7647 10.4389 21.7153 10.4457 21.6672C10.4586 21.5781 10.4273 21.5893 10.3856 21.6147C10.3105 21.6604 10.2305 21.6961 10.1623 21.7557C10.0892 21.8195 10.0276 21.7998 9.95932 21.753C9.97587 21.7195 10.0024 21.727 10.0239 21.7184C10.0945 21.6904 10.1557 21.6003 10.1427 21.5299C10.1253 21.4328 10.0933 21.3382 10.162 21.2259C10.1307 21.2415 10.1237 21.2433 10.118 21.2479C10.0029 21.3479 9.97156 21.332 9.9464 21.1559C9.94049 21.1144 9.92597 21.0945 9.8947 21.0796C9.80104 21.0354 9.70989 20.9831 9.63212 20.8997C9.57837 20.8421 9.52011 20.8337 9.47181 20.8966C9.41127 20.9758 9.32375 20.9359 9.26027 20.995C9.24326 21.0107 9.23282 20.9847 9.22489 20.9639C9.18658 20.8657 9.23305 20.8245 9.3056 20.7911C9.27002 20.7806 9.24281 20.8088 9.22558 20.7801C9.19451 20.7294 9.15074 20.7335 9.10926 20.7256C9.01129 20.707 9.0122 20.7066 9.02761 20.8337C9.03782 20.9171 9.03466 20.9966 9.00359 21.0769C8.9766 21.146 8.93737 21.1753 8.88365 21.1886C8.87389 21.1908 8.86165 21.1996 8.86322 21.2208C8.96345 21.1669 8.88907 21.2872 8.91492 21.3082C8.93783 21.2453 8.98045 21.2131 9.0673 21.1906C9.10176 21.1817 9.13465 21.1793 9.15574 21.2239C9.17819 21.2713 9.14416 21.2963 9.12829 21.3278C9.11377 21.3572 9.07523 21.3735 9.08929 21.4183C9.11015 21.484 9.08749 21.5284 9.0453 21.5403C9.00176 21.5529 8.97138 21.5094 8.95982 21.4529C8.94622 21.3863 8.91061 21.3611 8.8537 21.3519C8.87004 21.3922 8.87638 21.4282 8.85892 21.4609C8.82762 21.5191 8.87569 21.5564 8.88545 21.6004C8.89338 21.6359 8.93081 21.5834 8.9562 21.5745C8.96707 21.5705 8.97751 21.5591 8.98952 21.575C8.99135 21.6206 8.96231 21.635 8.9392 21.6538C8.87138 21.7096 8.86708 21.7751 8.92853 21.8475C8.96527 21.8907 9.0029 21.9331 9.03874 21.9773C9.06707 22.0119 9.10244 22.0638 9.08204 22.1039C9.04781 22.1705 9.07343 22.2178 9.08704 22.2736C9.09134 22.2921 9.1029 22.3164 9.08658 22.3341C9.07138 22.3504 9.05414 22.3374 9.04054 22.3266C8.99158 22.2882 8.94351 22.2482 8.89498 22.209C8.9063 22.2482 8.92513 22.2758 8.941 22.306C8.95415 22.3303 8.97614 22.3595 8.95777 22.3881C8.94122 22.4142 8.91789 22.3886 8.89951 22.378C8.82445 22.3345 8.76052 22.273 8.71447 22.1818C8.6959 22.145 8.67821 22.1046 8.62583 22.0827C8.65736 22.1421 8.68024 22.1838 8.70201 22.2266C8.7256 22.2734 8.74714 22.3215 8.74759 22.38C8.74805 22.4356 8.7535 22.4991 8.71313 22.5327C8.67436 22.5651 8.63647 22.5265 8.60067 22.5033C8.59 22.4961 8.58047 22.4868 8.57028 22.4802C8.551 22.468 8.53876 22.474 8.53468 22.5038C8.51268 22.677 8.46053 22.826 8.33854 22.9195C8.32562 22.9295 8.31928 22.9617 8.29954 22.9447C8.28413 22.931 8.28459 22.9023 8.29252 22.8847C8.33492 22.7882 8.25872 22.7088 8.27098 22.6168C8.27301 22.6022 8.25783 22.5923 8.24602 22.5889C8.20431 22.5779 8.16191 22.5731 8.14331 22.6366C8.1109 22.7487 8.06623 22.8447 7.98052 22.9021C7.95761 22.9173 7.94786 22.9694 7.91248 22.9506C7.88076 22.9339 7.85534 22.9052 7.85648 22.8535C7.85785 22.7981 7.83337 22.7774 7.79526 22.7719C7.77009 22.7681 7.74062 22.7732 7.73269 22.728C7.72496 22.6841 7.73722 22.649 7.7633 22.6216C7.79776 22.5859 7.83246 22.5506 7.87485 22.5073C7.82838 22.4852 7.78846 22.4733 7.75854 22.4376C7.74153 22.417 7.71454 22.3915 7.73132 22.3614C7.75945 22.3116 7.776 22.2547 7.81908 22.2114C7.85671 22.1739 7.96985 22.1613 7.9023 22.0298C7.89933 22.0238 7.90931 22.0077 7.91114 21.996C7.91679 21.9525 7.90387 21.9241 7.87009 21.9135C7.82407 21.8991 7.7778 21.8857 7.732 21.8698C7.66602 21.8473 7.64947 21.7974 7.68211 21.718C7.69095 21.6966 7.70524 21.6793 7.71612 21.659C7.74561 21.6041 7.75126 21.5584 7.69118 21.5313C7.63723 21.5072 7.62066 21.4538 7.63246 21.3832C7.63654 21.3589 7.64425 21.3271 7.62476 21.3152C7.54017 21.2634 7.45604 21.172 7.36127 21.208C7.28689 21.2364 7.24926 21.2038 7.20889 21.1444C7.19848 21.1294 7.19531 21.106 7.18917 21.0866C7.17263 21.0359 7.13885 21.0109 7.1021 20.9997C7.06604 20.9886 7.07466 21.0381 7.0647 21.0623C7.06174 21.0696 7.05426 21.08 7.04972 21.0791C6.98102 21.0665 6.91775 21.1296 6.8434 21.0879C6.71641 21.0173 6.71097 21.0266 6.61913 21.1647C6.58966 21.2091 6.57605 21.2614 6.57197 21.317C6.56472 21.4201 6.52027 21.4655 6.44476 21.4821C6.37629 21.4971 6.3119 21.4664 6.22437 21.4591C6.28944 21.501 6.33572 21.5315 6.38242 21.5602C6.46336 21.6101 6.53343 21.6599 6.54273 21.8031C6.54818 21.8835 6.53071 21.8923 6.48444 21.8982C6.44022 21.9044 6.40145 21.8685 6.34976 21.8618C6.36881 21.9108 6.38468 21.9452 6.39534 21.9823C6.41098 22.0366 6.41825 22.107 6.37472 22.1302C6.33252 22.1527 6.31803 22.1862 6.30102 22.2306C6.27518 22.2961 6.24434 22.3012 6.20873 22.2463C6.15658 22.1655 6.10646 22.0814 6.10081 21.9704C6.09875 21.9358 6.08991 21.9236 6.06429 21.9166C5.94412 21.8846 5.94435 21.8835 5.93776 21.7202C5.93685 21.7025 5.93459 21.6851 5.93323 21.6659C5.80875 21.7327 5.80944 21.7332 5.82983 21.8963C5.84253 21.9989 5.82735 22.0986 5.80852 22.1986C5.79469 22.2705 5.77246 22.216 5.75115 22.2039C5.74912 22.2484 5.74821 22.2853 5.7457 22.3222C5.74368 22.3564 5.74231 22.3943 5.70559 22.3943C5.67292 22.3945 5.67112 22.3599 5.66704 22.3292C5.65455 22.2443 5.65435 22.1593 5.66976 22.0695C5.6396 22.1194 5.60263 22.1456 5.5634 22.1099C5.52645 22.0761 5.54186 22.0205 5.54936 21.9722C5.55866 21.911 5.57678 21.8541 5.59992 21.7996C5.6099 21.7756 5.62374 21.7517 5.60967 21.7224C5.58517 21.6716 5.61284 21.6378 5.63689 21.6114C5.6709 21.5739 5.71012 21.5438 5.74821 21.5129C5.7922 21.4776 5.83052 21.4368 5.85591 21.3715C5.75412 21.3764 5.66 21.4256 5.57952 21.5123C5.51898 21.5778 5.46817 21.6548 5.42463 21.7407C5.41308 21.7639 5.39108 21.8093 5.37408 21.7608C5.35391 21.7027 5.33531 21.729 5.30855 21.7402C5.26977 21.7566 5.23214 21.759 5.19246 21.7294C5.16501 21.7089 5.12987 21.7038 5.09746 21.6968C5.05121 21.6864 5.02331 21.7124 5.02376 21.7764C5.02422 21.8766 4.97729 21.9031 4.91221 21.9009C4.87276 21.8996 4.83262 21.9036 4.79678 21.8737C4.78454 21.9055 4.81832 21.943 4.78295 21.96C4.75485 21.9733 4.74032 21.943 4.72332 21.9225C4.69023 21.8826 4.6528 21.8475 4.62561 21.8018C4.58501 21.7343 4.55032 21.7405 4.50904 21.7967C4.46211 21.861 4.40453 21.891 4.33581 21.8779C4.30862 21.8727 4.28751 21.8621 4.28434 21.8168C4.27005 21.6083 4.34397 21.4801 4.50293 21.4428C4.62923 21.413 4.63285 21.4075 4.6308 21.2393C4.62946 21.144 4.60042 21.1098 4.52039 21.1003C4.44784 21.0917 4.45734 21.1592 4.45235 21.2161C4.45078 21.2373 4.44487 21.2583 4.43988 21.2788C4.39908 21.443 4.32131 21.4743 4.21518 21.3693C4.16916 21.3238 4.12971 21.2806 4.08934 21.3858C4.07348 21.4278 4.02518 21.4531 3.98324 21.4443C3.94127 21.4355 4.01157 21.3956 3.97528 21.3764C3.92473 21.4022 3.90975 21.4951 3.86305 21.509C3.77894 21.5337 3.74174 21.6158 3.69187 21.6877C3.67033 21.7193 3.64402 21.7751 3.60637 21.7497C3.57396 21.7279 3.56671 21.7506 3.54879 21.7687C3.50004 21.8175 3.44991 21.863 3.39436 21.9152C3.3878 21.8546 3.41182 21.8298 3.42634 21.7994C3.43336 21.7842 3.44629 21.7559 3.44335 21.7526C3.39459 21.695 3.44449 21.6535 3.45604 21.607C3.46375 21.5747 3.48688 21.539 3.48121 21.5125C3.46306 21.4247 3.50683 21.3816 3.54448 21.3311C3.61159 21.24 3.6921 21.1782 3.78482 21.1424C3.80955 21.133 3.83494 21.1213 3.85625 21.1034C3.91702 21.0526 3.93311 20.9628 3.93357 20.8843C3.93357 20.82 3.8669 20.834 3.82835 20.8209C3.78641 20.8068 3.76624 20.7812 3.7964 20.732C3.83155 20.6742 3.80387 20.6612 3.76873 20.6446C3.64902 20.5888 3.53065 20.6126 3.41251 20.6541C3.32635 20.6841 3.24653 20.7428 3.15674 20.7596V20.7408C3.17646 20.6841 3.25833 20.6823 3.23588 20.5879C3.29368 20.6199 3.42429 20.6053 3.43134 20.5568C3.44064 20.4926 3.46557 20.4877 3.50797 20.4959C3.44857 20.4314 3.45128 20.3681 3.51091 20.3251C3.54018 20.3041 3.57213 20.2895 3.60571 20.2884C3.73018 20.2845 3.84082 20.198 3.96441 20.1863C3.98843 20.1838 4.01633 20.1653 4.00997 20.1287C4.00158 20.0792 3.97189 20.111 3.95194 20.1163C3.93131 20.1221 3.91135 20.1331 3.8914 20.1432C3.77212 20.2044 3.6531 20.2661 3.55558 20.0905C3.55422 20.0883 3.55173 20.0872 3.54968 20.0859C3.50683 20.0561 3.50275 20.0349 3.55173 20.0018C3.58303 19.9802 3.61704 19.9358 3.60865 19.8844C3.59935 19.8279 3.55356 19.8253 3.51544 19.8193C3.41887 19.8047 3.36241 19.703 3.37419 19.5569C3.41296 19.5878 3.4531 19.5968 3.4769 19.537C3.50229 19.473 3.4862 19.4163 3.42883 19.3605C3.5361 19.3656 3.59436 19.2811 3.65375 19.2074C3.6794 19.2431 3.65173 19.2636 3.65763 19.2855C3.65989 19.2947 3.67213 19.3003 3.68006 19.3062C3.68097 19.3067 3.68733 19.2985 3.68665 19.2969C3.6685 19.2453 3.68845 19.2166 3.72428 19.2116C3.76713 19.2052 3.74719 19.1425 3.77575 19.1275C3.82405 19.1021 3.87121 19.0659 3.92133 19.0562C3.96441 19.048 3.9839 19.0297 3.99163 18.9767C3.99796 18.9348 4.02404 18.9236 4.05171 18.9331C4.07687 18.9417 4.10024 18.9461 4.105 19.0004C4.11134 19.0747 4.08301 19.1359 4.07348 19.2118C4.12201 19.1601 4.16349 19.2288 4.20839 19.2036C4.24874 19.1811 4.28774 19.1994 4.31156 19.2537C4.3408 19.3206 4.36619 19.3053 4.39341 19.2489C4.45917 19.1118 4.56096 19.0449 4.67662 19.0048C4.70746 18.994 4.73194 18.9935 4.72355 19.0471C4.71562 19.0973 4.70449 19.1383 4.76594 19.1325C4.7868 19.1306 4.77978 19.1654 4.77116 19.1842C4.75938 19.2096 4.73784 19.2177 4.71901 19.2308C4.573 19.3334 4.43286 19.4492 4.30023 19.5796C4.25735 19.6216 4.24557 19.6622 4.29524 19.7085C4.31746 19.6911 4.28502 19.6377 4.31994 19.6348C4.34827 19.6324 4.36279 19.6683 4.37709 19.6973C4.39635 19.7365 4.40202 19.788 4.43423 19.8224C4.45146 19.7822 4.45349 19.7451 4.45486 19.7087C4.46031 19.5765 4.47392 19.5518 4.56937 19.511C4.58501 19.5044 4.60133 19.496 4.61742 19.4947C4.68455 19.4889 4.72355 19.4417 4.74803 19.3618C4.76549 19.3047 4.79316 19.2526 4.82968 19.2118C4.89475 19.1394 4.97364 19.1674 4.99338 19.2753C5.00562 19.3413 5.02399 19.3281 5.0564 19.3038C5.14099 19.2413 5.18022 19.265 5.21423 19.3793C5.22036 19.4013 5.18701 19.4514 5.23394 19.4466C5.25913 19.4439 5.28564 19.4322 5.30447 19.4064C5.32421 19.3795 5.32963 19.3389 5.29631 19.3375C5.2217 19.3349 5.18587 19.2484 5.12467 19.2197C5.10516 19.2107 5.09178 19.1979 5.09723 19.1654C5.1029 19.1348 5.10493 19.0986 5.13395 19.095C5.16661 19.0913 5.18293 19.0657 5.20221 19.0372C5.22578 19.0026 5.26161 18.9953 5.29428 19.0028C5.36432 19.0187 5.43348 19.0419 5.48722 19.1103C5.50197 19.1288 5.5167 19.1606 5.54006 19.1438C5.56568 19.1257 5.56839 19.0893 5.56206 19.0538C5.54913 18.9816 5.53666 18.909 5.52214 18.8375C5.5099 18.7768 5.51715 18.7345 5.57158 18.7223C5.5879 18.7186 5.61444 18.719 5.61307 18.6839C5.6117 18.6517 5.5897 18.6402 5.56953 18.6299C5.51943 18.604 5.46637 18.6157 5.4149 18.6093C5.3759 18.6043 5.33145 18.6159 5.30289 18.5679C5.27317 18.5169 5.30039 18.4474 5.27183 18.3924C5.26275 18.375 5.28678 18.3666 5.30107 18.3728C5.35662 18.3964 5.40717 18.3968 5.46001 18.3518C5.48882 18.3271 5.52894 18.3346 5.56274 18.3569C5.59561 18.379 5.63144 18.3792 5.66704 18.3776C5.68516 18.3767 5.7083 18.3829 5.71466 18.3516C5.72054 18.322 5.69991 18.3077 5.68496 18.2944C5.63235 18.2481 5.5854 18.1912 5.52374 18.1609C5.48337 18.1411 5.44551 18.1075 5.43393 18.0349C5.4836 18.0391 5.52486 18.1011 5.5693 18.0468C5.57384 18.057 5.57635 18.0707 5.58291 18.0762C5.6083 18.0974 5.63892 18.0852 5.65977 18.0718C5.68314 18.057 5.66 18.0283 5.64958 18.0111C5.58246 17.9001 5.4913 17.8502 5.38632 17.8315C5.22036 17.8017 5.05552 17.844 4.88999 17.8372C4.86662 17.8363 4.83125 17.8564 4.82694 17.8065C4.82332 17.7675 4.84894 17.7491 4.87772 17.7432C4.89179 17.7406 4.9054 17.7335 4.91946 17.7315C4.94734 17.7275 4.963 17.7227 4.97569 17.6752C5.00539 17.562 5.10176 17.5238 5.18633 17.5766C5.23985 17.6103 5.29314 17.6057 5.34167 17.564C5.45775 17.464 5.61986 17.5539 5.64028 17.7324C5.64436 17.7688 5.64482 17.8061 5.6473 17.8431C5.65116 17.9038 5.68222 17.9575 5.72077 17.9491C5.80262 17.9314 5.83029 18.0274 5.88313 18.0656C5.90535 18.0815 5.90715 18.0824 5.92007 18.0652C5.96792 18.0003 6.03231 17.9764 6.09399 17.946C6.11484 17.9358 6.14297 17.918 6.15658 17.9557C6.16859 17.9897 6.15453 18.0243 6.13142 18.0442C6.09196 18.0784 6.05182 18.1104 6.0058 18.1296C5.95205 18.1521 5.90127 18.1947 5.8888 18.266C5.88039 18.3147 5.87405 18.36 5.84866 18.4001C5.93188 18.3558 5.93913 18.2159 6.02075 18.1691C6.04774 18.2755 6.07904 18.3651 6.17903 18.3668C6.22323 18.3677 6.26745 18.3845 6.31167 18.3966C6.32822 18.4012 6.34976 18.4046 6.34727 18.4482C6.3162 18.444 6.28582 18.4423 6.25612 18.4361C6.16497 18.4165 6.07405 18.3968 5.98084 18.4072C5.94683 18.4112 5.91508 18.4211 5.89106 18.4549C5.87314 18.48 5.87337 18.5122 5.87905 18.5427C5.88493 18.5725 5.90489 18.5665 5.9203 18.5606C6.02846 18.5213 6.1339 18.4974 6.22391 18.6307C6.09944 18.7106 5.95228 18.6552 5.82053 18.7184C5.82758 18.7331 5.82915 18.7404 5.83234 18.7426C5.87565 18.7689 5.96227 18.7781 5.85728 18.8589C5.84504 18.8682 5.84547 18.885 5.85728 18.8971C5.86861 18.9086 5.88652 18.9218 5.89537 18.905C5.92327 18.8512 5.96566 18.8671 6.00375 18.8567C6.04774 18.8448 6.09265 18.826 6.11804 18.7726C6.15861 18.6872 6.22323 18.6466 6.29172 18.6268C6.32799 18.6159 6.35543 18.5976 6.38718 18.5743C6.35135 18.533 6.31734 18.5937 6.28422 18.5674C6.34796 18.4813 6.4382 18.4663 6.46245 18.5418C6.49035 18.6294 6.53933 18.6504 6.60258 18.6532C6.67017 18.6566 6.68943 18.6976 6.6579 18.7689C6.83341 18.8011 6.84451 18.8157 6.94405 18.6365C6.95381 18.619 6.96288 18.6007 6.97378 18.5848C6.99712 18.5513 7.02524 18.5233 7.06062 18.5429C7.09554 18.5623 7.0978 18.606 7.10119 18.6522C7.10912 18.7662 7.07377 18.8591 7.02365 18.9481C7.06196 18.9357 7.0817 18.9011 7.10165 18.8669C7.16741 18.7536 7.17965 18.7554 7.23973 18.8702C7.26241 18.913 7.29143 18.958 7.33679 18.9476C7.38623 18.9364 7.4268 18.8865 7.44312 18.8349C7.45493 18.798 7.43019 18.6998 7.41319 18.6961C7.29779 18.6707 7.36127 18.5926 7.37715 18.5277C7.38463 18.4972 7.42158 18.4738 7.38192 18.4346C7.34925 18.4019 7.32566 18.3448 7.27556 18.3893C7.23839 18.4222 7.20096 18.4551 7.16581 18.4915C7.13474 18.5233 7.10981 18.5149 7.0851 18.4818C7.05651 18.4434 7.07762 18.4162 7.09643 18.3867C7.10889 18.367 7.13771 18.3664 7.13611 18.3293C6.96085 18.262 6.79441 18.2898 6.63365 18.3959C6.58309 18.4295 6.53137 18.4613 6.47083 18.4332C6.4314 18.4149 6.41506 18.3902 6.43888 18.3384C6.45451 18.3042 6.46904 18.2693 6.48764 18.2269C6.36291 18.2887 6.36291 18.2887 6.3119 18.2362C6.33321 18.207 6.36314 18.2046 6.38967 18.1958C6.42596 18.1841 6.45768 18.1691 6.47083 18.1177C6.48875 18.0475 6.52527 18.0349 6.58013 18.0393C6.63433 18.0442 6.69941 18.0468 6.73636 17.98C6.78603 17.8901 6.83364 17.7977 6.87672 17.7011C6.90482 17.6379 6.91278 17.598 6.85267 17.5662C6.83567 17.5572 6.80848 17.5466 6.81821 17.508C6.82637 17.4751 6.85156 17.4819 6.87082 17.4724C6.91866 17.4486 6.96062 17.5093 7.02162 17.4815C6.90982 17.3822 6.81889 17.2676 6.68965 17.2306C6.73887 17.1948 6.78058 17.2125 6.82209 17.2365C6.85655 17.2564 6.89056 17.2793 6.92956 17.2809C6.94496 17.2813 6.9588 17.2745 6.96311 17.2542C6.96833 17.229 6.95335 17.2235 6.93908 17.2182C6.92728 17.214 6.91572 17.2094 6.91957 17.1822C6.95654 17.1657 6.98736 17.1694 7.01934 17.212C7.05902 17.2657 7.14404 17.2524 7.1504 17.3608C7.15086 17.3692 7.16581 17.3639 7.1742 17.3548C7.20912 17.3168 7.20458 17.3632 7.2098 17.3848C7.21887 17.4221 7.18327 17.4307 7.17785 17.462C7.24541 17.4839 7.23362 17.4294 7.22886 17.3789C7.21639 17.2491 7.29165 17.1132 7.3878 17.1118C7.43427 17.1112 7.46377 17.088 7.49415 17.0551C7.5388 17.0066 7.56556 16.9333 7.62476 16.904C7.64584 16.8934 7.64379 16.8568 7.64356 16.8287C7.64265 16.759 7.64719 16.6965 7.69708 16.648C7.72792 16.6182 7.72701 16.5776 7.67623 16.5697C7.65514 16.5661 7.62248 16.556 7.62565 16.5304C7.63746 16.4326 7.58234 16.4783 7.56263 16.4836C7.46762 16.509 7.37396 16.5432 7.27987 16.5739C7.2488 16.584 7.16127 16.524 7.16356 16.4865C7.16786 16.4216 7.21525 16.4595 7.2411 16.4441C7.247 16.4403 7.25243 16.4355 7.25993 16.4295C7.22932 16.4211 7.20005 16.4194 7.17488 16.4048C7.0402 16.3274 6.89147 16.3419 6.75313 16.2892C6.74021 16.2843 6.72435 16.285 6.71142 16.2898C6.60144 16.332 6.49126 16.3137 6.38151 16.2918C6.32345 16.2804 6.27426 16.2448 6.23549 16.1859C6.21712 16.1581 6.206 16.1254 6.19604 16.0921C6.26996 16.0745 6.34342 16.0453 6.4146 15.9999C6.55294 15.9109 6.68263 15.8136 6.80848 15.7126C6.8307 15.7423 6.84996 15.7761 6.86063 15.8205C6.87535 15.8807 6.9089 15.8862 6.9368 15.8659C6.97603 15.8375 7.00958 15.8483 7.04496 15.8646C7.11708 15.8977 7.18735 15.8995 7.25901 15.8582C7.32977 15.818 7.40141 15.8302 7.46172 15.8884C7.51139 15.9363 7.56262 15.9473 7.62088 15.9476C7.76353 15.948 7.76011 15.9478 7.82407 15.7777C7.84672 15.717 7.84333 15.6934 7.79414 15.6788C7.73948 15.6625 7.69594 15.6353 7.6608 15.589C7.79391 15.6232 7.93448 15.6625 8.09841 15.7055C8.16077 15.7218 8.22745 15.7267 8.295 15.726C8.36213 15.7505 8.42721 15.7803 8.46575 15.8719C8.47505 15.8935 8.48615 15.8794 8.495 15.8706C8.5306 15.8337 8.56076 15.8509 8.58977 15.8847C8.60178 15.8984 8.61813 15.9282 8.63037 15.91C8.67889 15.8377 8.70791 15.9019 8.73239 15.9368C8.77661 15.9994 8.81607 16.0012 8.86277 15.9471C8.84214 15.8931 8.76619 15.8772 8.78388 15.8147C8.81335 15.7104 8.80043 15.5832 8.88545 15.5042C8.93352 15.4597 8.96707 15.4182 9.02444 15.4802C9.07954 15.5395 9.13713 15.5524 9.19043 15.4652C9.21105 15.4319 9.24983 15.4202 9.28249 15.4325C9.3852 15.4707 9.4616 15.5801 9.56659 15.6152C9.58565 15.6214 9.60037 15.6536 9.60082 15.6819C9.60379 15.788 9.62781 15.7532 9.66613 15.7055C9.68995 15.6755 9.73166 15.6353 9.76068 15.6649C9.80898 15.7141 9.86772 15.6989 9.91533 15.7282C10.0004 15.7812 10.0804 15.7613 10.1629 15.7293C10.1924 15.7179 10.2212 15.7068 10.2532 15.7203C10.2892 15.7355 10.3024 15.7516 10.2849 15.8061C10.2611 15.8812 10.2128 15.9176 10.1679 15.9624C10.1502 15.98 10.1187 15.9955 10.13 16.031C10.1423 16.0687 10.1759 16.0612 10.1999 16.0526C10.2591 16.0314 10.3153 15.9997 10.3686 15.9602C10.3867 15.9469 10.3992 15.9293 10.4214 15.9632C10.4829 16.0581 10.5697 16.0963 10.659 16.1246C10.6819 16.1316 10.6985 16.1182 10.7176 16.1031C10.8085 16.031 10.8976 15.9913 11.0001 16.0835C11.0536 16.1316 11.1023 16.1802 11.1422 16.2464C11.2216 16.3774 11.3048 16.5045 11.3824 16.6374C11.4411 16.7385 11.5044 16.8237 11.6057 16.8486C11.6315 16.8548 11.6572 16.8819 11.6765 16.9077C11.7084 16.9505 11.744 16.9775 11.788 16.9958C11.8257 17.0112 11.8522 17.0604 11.8477 17.1105C11.842 17.1688 11.7973 17.1293 11.7511 17.1509C11.805 17.1456 11.8331 17.1635 11.8542 17.1953C11.8778 17.1743 11.8549 17.1072 11.8857 17.1233C11.9377 17.1507 12.0143 17.1295 12.0381 17.1672C12.1091 17.2791 12.1998 17.269 12.29 17.286C12.3444 17.2961 12.403 17.3118 12.4002 17.4126C12.3995 17.4382 12.4161 17.4287 12.4258 17.4298C12.4855 17.4365 12.5324 17.3508 12.5129 17.2632C12.5023 17.2158 12.5066 17.1741 12.5326 17.1449C12.5564 17.1185 12.5859 17.1291 12.6102 17.1564C12.6238 17.1723 12.6415 17.1668 12.6574 17.171C12.7376 17.1926 12.8272 17.1935 12.8961 17.2431C12.9925 17.3124 13.0621 17.2189 13.1376 17.197C13.1988 17.1796 13.2777 17.1293 13.3129 17.0293C13.3194 17.0095 13.346 16.9989 13.3657 16.9898L13.4272 17.0278C13.4267 17.043 13.4213 17.0582 13.4133 17.0704C13.3906 17.1061 13.3641 17.137 13.3408 17.1716C13.3306 17.1864 13.3133 17.2169 13.3387 17.2211C13.3775 17.2277 13.4011 17.2632 13.4317 17.2842C13.5036 17.3334 13.5802 17.3312 13.6564 17.3303C13.6553 17.3793 13.6543 17.4283 13.6539 17.4773C13.6049 17.4402 13.5553 17.4468 13.5045 17.4422C13.4664 17.4382 13.4306 17.4254 13.3947 17.408C13.3485 17.3855 13.3002 17.3698 13.2659 17.3564C13.2224 17.3491 13.2 17.3561 13.1977 17.4036C13.1922 17.5108 13.1501 17.5923 13.0904 17.6611C13.075 17.6794 13.0544 17.6964 13.068 17.7306C13.0802 17.7609 13.0925 17.7909 13.1263 17.7842C13.155 17.7783 13.1825 17.788 13.2093 17.8034C13.2526 17.8282 13.2959 17.8312 13.3387 17.8003C13.3802 17.7703 13.4247 17.7765 13.4612 17.8052C13.5045 17.8401 13.5222 17.8542 13.5344 17.7679C13.5453 17.6911 13.6033 17.6448 13.6516 17.6534C13.6525 17.8295 13.6586 18.0053 13.667 18.181C13.8113 18.1214 13.9366 18.0513 13.965 17.9961C14.0974 17.7383 14.2405 17.5889 14.5328 17.841C14.7139 17.9972 14.8371 17.7266 14.8296 17.6929C14.7366 17.2588 15.0316 16.9797 15.2522 16.6923V16.6621L15.2862 16.6489C15.5168 16.3421 15.8132 16.0886 16.2046 15.9694C16.159 15.9352 16.1143 15.9511 16.0674 15.9604C16.0093 15.9718 15.9472 15.9734 15.9166 15.9162C15.8978 15.8807 15.874 15.8703 15.8409 15.8628C15.8034 15.854 15.7504 15.845 15.7531 15.8048C15.756 15.7675 15.8111 15.7781 15.8445 15.7708C15.8658 15.766 15.8944 15.7688 15.9005 15.7426C15.9057 15.7178 15.8928 15.6934 15.8728 15.6781C15.7885 15.6148 15.7048 15.5508 15.618 15.4912C15.567 15.4566 15.5073 15.442 15.4434 15.4488C15.4282 15.4506 15.408 15.4643 15.396 15.4418C15.4044 15.4153 15.4511 15.4144 15.4411 15.3811C15.4316 15.3498 15.396 15.3566 15.3713 15.35C15.3368 15.3405 15.3105 15.3334 15.3116 15.2869C15.3123 15.2476 15.2776 15.2273 15.237 15.2235C15.1994 15.2202 15.1751 15.2004 15.1466 15.1752C15.1062 15.1392 15.0751 15.0896 15.0171 15.0728C14.9824 15.0627 14.9296 15.0569 14.9808 15.0018C14.9949 14.9868 14.9772 14.9788 14.9665 14.9718C14.9484 14.9594 14.9345 14.9459 14.9461 14.9225C14.9595 14.8941 14.9833 14.9064 15.0051 14.9086C15.0926 14.917 15.1704 14.9534 15.249 14.9879C15.262 14.9936 15.2801 15.0051 15.2928 14.9901C15.3066 14.9737 15.2901 14.9612 15.2792 14.9512C15.2481 14.9225 15.2595 14.8998 15.2903 14.883C15.3239 14.8649 15.3577 14.8436 15.3942 14.8354C15.4608 14.8208 15.4409 14.7983 15.4064 14.77C15.396 14.7615 15.3858 14.7524 15.3756 14.7438C15.3468 14.7195 15.3094 14.7014 15.2985 14.6626C15.2806 14.5975 15.3493 14.6138 15.3756 14.5915C15.4359 14.541 15.4728 14.5523 15.506 14.6224C15.5155 14.6421 15.5209 14.6639 15.5275 14.6851C15.5556 14.7742 15.6143 14.8007 15.7127 14.7623C15.6855 14.7473 15.6635 14.7326 15.639 14.7215C15.5867 14.6975 15.5583 14.6544 15.554 14.6021C15.5488 14.5395 15.4917 14.5004 15.4853 14.4388C15.4833 14.4179 15.4536 14.4174 15.4327 14.4183C15.3651 14.4212 15.3046 14.3962 15.2416 14.3775C15.1928 14.3629 15.1794 14.3402 15.2026 14.2963C15.2144 14.2738 15.2125 14.2541 15.1867 14.2407C15.1706 14.2323 15.1552 14.2343 15.1427 14.2453C15.116 14.2689 15.1398 14.2835 15.1545 14.2996C15.169 14.3157 15.1756 14.3342 15.1647 14.3541C15.1511 14.3779 15.128 14.37 15.1101 14.3636C15.0402 14.3382 14.9711 14.3104 14.9014 14.2835C14.8901 14.2791 14.8774 14.2689 14.8838 14.2601C14.911 14.2228 14.9087 14.1844 14.9003 14.1427C14.8981 14.1314 14.9361 14.1166 14.903 14.1034C14.8779 14.0935 14.8627 14.1136 14.8656 14.1358C14.8779 14.2232 14.8171 14.244 14.7498 14.2599C14.7391 14.1908 14.6368 14.1559 14.5493 14.1919C14.5475 14.2109 14.5856 14.2151 14.5708 14.2338C14.5557 14.2539 14.5328 14.2376 14.5155 14.2299C14.4536 14.2025 14.3924 14.1736 14.3312 14.1451C14.3142 14.1367 14.296 14.1286 14.2854 14.1515C14.2765 14.1703 14.2865 14.1952 14.3003 14.1976C14.3702 14.21 14.3802 14.2751 14.4135 14.3172C14.4416 14.3523 14.4564 14.4029 14.4128 14.4439C14.3627 14.4916 14.1675 14.4949 14.1144 14.4479C14.0453 14.3861 13.9673 14.3479 13.8716 14.3495C13.8485 14.3499 13.8251 14.3453 13.809 14.3283C13.7682 14.2852 13.8498 14.2316 13.7961 14.1848C13.7845 14.1745 13.8133 14.1522 13.8319 14.1442C13.8609 14.1319 13.8911 14.1226 13.9203 14.1109C13.962 14.0941 14.0133 14.0877 14.038 14.0496C14.0571 14.02 14.0763 13.9993 14.1122 13.9922C14.0743 13.984 14.0455 13.9984 14.0165 14.0158C13.9781 14.039 13.9391 14.0621 13.8983 14.0807C13.8514 14.1019 13.8151 14.0857 13.8097 14.0352C13.8051 13.9944 13.7816 13.9785 13.7485 13.9648C13.7092 13.9485 13.6698 13.9315 13.6315 13.9125C13.6142 13.9041 13.5927 13.8942 13.6002 13.8682C13.6131 13.8238 13.5834 13.8366 13.5636 13.8437C13.4872 13.8715 13.4208 13.8423 13.4099 13.7753C13.3988 13.7073 13.3526 13.6998 13.3124 13.6735C13.2909 13.6596 13.2829 13.6364 13.2709 13.6148C13.2299 13.5409 13.1829 13.4701 13.124 13.4078C13.1226 13.4065 13.1197 13.4063 13.1176 13.4056V13.3262C13.1276 13.2812 13.1546 13.2611 13.202 13.2761C13.2002 13.2439 13.1258 13.2286 13.1845 13.196C13.2267 13.1724 13.2229 13.1565 13.1954 13.128C13.1854 13.1177 13.1707 13.1042 13.1825 13.0879C13.195 13.0706 13.2145 13.0744 13.2326 13.0784C13.2804 13.0881 13.3194 13.1157 13.3593 13.1406C13.4222 13.1803 13.4686 13.1318 13.5153 13.1097C13.5575 13.0899 13.5086 13.0585 13.506 13.0314C13.5029 12.9961 13.4745 12.9581 13.521 12.9308C13.5748 12.899 13.67 12.9071 13.7194 12.9464C13.7566 12.9758 13.7865 13.0115 13.8156 13.0484C13.8394 13.0786 13.8722 13.0766 13.8999 13.0545C13.9364 13.0256 13.8915 13.0161 13.8813 12.9991C13.8682 12.9764 13.8505 12.9557 13.8373 12.9325C13.7904 12.8498 13.8011 12.8323 13.9017 12.8332C13.8677 12.7818 13.8748 12.7101 13.7883 12.6918C13.76 12.6853 13.7296 12.6682 13.6965 12.6677C13.6689 12.6673 13.6289 12.6679 13.6272 12.6403C13.6222 12.5713 13.5605 12.5379 13.5346 12.4826C13.516 12.4431 13.5265 12.4294 13.563 12.423C13.6233 12.4122 13.6836 12.4038 13.7441 12.3943C13.7788 12.389 13.814 12.3839 13.8332 12.3444C13.7634 12.3235 13.7004 12.3153 13.6387 12.3526C13.5906 12.3815 13.5541 12.3548 13.5267 12.3219C13.4968 12.2862 13.5047 12.2392 13.5203 12.2021C13.5339 12.1692 13.5718 12.1882 13.5997 12.193C13.6466 12.2005 13.6933 12.21 13.7405 12.216C13.7865 12.2222 13.8636 12.201 13.8643 12.1873C13.8691 12.0931 13.9235 12.1666 13.95 12.1606C13.9711 12.1562 13.9952 12.1749 14.0239 12.1668C13.9725 12.1522 13.9244 12.1405 13.877 12.1253C13.8296 12.1105 13.7829 12.0933 13.7364 12.0759C13.7158 12.0679 13.6883 12.0606 13.6918 12.0333C13.6958 12.0024 13.7265 12.0101 13.7473 12.0094C13.7902 12.0079 13.8332 12.0088 13.8763 12.0108C13.916 12.0125 13.9394 12.0035 13.9246 11.9585C13.9172 11.9351 13.9167 11.9159 13.9507 11.9112C14.067 11.8949 14.1448 11.9322 14.1777 12.0386C14.1979 12.1028 14.2319 12.1046 14.2831 12.088C14.2972 12.0834 14.3187 12.084 14.3212 12.0659C14.3239 12.0483 14.3038 12.0419 14.2913 12.0335C14.2246 11.9876 14.1605 11.9393 14.1029 11.8823C14.0809 11.8607 14.072 11.8442 14.0777 11.8139C14.0888 11.7535 14.0706 11.7371 14.0092 11.7482C13.9462 11.7592 13.8831 11.7691 13.8221 11.7435C13.7992 11.734 13.7623 11.7265 13.7756 11.6917C13.7865 11.6628 13.8045 11.6321 13.8509 11.6449C13.8988 11.6581 13.948 11.6667 13.9972 11.6745C14.0663 11.6855 14.1219 11.6464 14.1271 11.5835C14.1287 11.5641 14.1382 11.5601 14.1529 11.5652C14.172 11.5719 14.1899 11.5816 14.2078 11.591C14.2473 11.6122 14.2611 11.5972 14.2604 11.5577C14.2588 11.4549 14.1818 11.3997 14.0911 11.447C13.9661 11.5125 13.8299 11.4909 13.699 11.5092C13.6698 11.5134 13.6321 11.4931 13.6228 11.4628C13.6149 11.4361 13.5956 11.4178 13.5872 11.3962C13.5757 11.3646 13.5648 11.332 13.5535 11.2997C13.5999 11.2945 13.6072 11.2252 13.6582 11.2333C13.7337 11.2452 13.8088 11.2439 13.8845 11.2459C13.9496 11.2475 14.0094 11.283 14.0688 11.3101C14.0872 11.3185 14.1135 11.3384 14.1246 11.3256C14.1711 11.2711 14.2446 11.2366 14.2772 11.1819C14.3067 11.1332 14.3194 11.0797 14.3974 11.0561C14.3613 11.0475 14.3421 11.0429 14.3228 11.0385C14.2108 11.0135 14.1614 10.9571 14.1521 10.8456C14.1491 10.8105 14.1541 10.7834 14.1981 10.7803C14.238 10.7776 14.2432 10.7521 14.2421 10.7198C14.2409 10.6889 14.2412 10.658 14.2441 10.6274C14.2466 10.602 14.2616 10.5693 14.2861 10.5751C14.3446 10.5881 14.3586 10.5492 14.3808 10.515C14.3892 10.5022 14.3999 10.4879 14.4178 10.4897C14.438 10.4917 14.4405 10.5095 14.4412 10.5247C14.4432 10.564 14.4627 10.5753 14.4997 10.5625C14.5432 10.5477 14.5577 10.5724 14.5622 10.6077C14.5695 10.6596 14.5622 10.7068 14.5316 10.7527C14.4951 10.807 14.5033 10.8423 14.5516 10.8902C14.5552 10.8719 14.5579 10.8542 14.5618 10.8374C14.5734 10.7893 14.5722 10.73 14.6557 10.7573C14.6831 10.7664 14.6956 10.7359 14.6956 10.7148C14.696 10.6377 14.7568 10.6468 14.8008 10.6503C14.8504 10.6541 14.8835 10.6878 14.8731 10.7423C14.8656 10.7827 14.8722 10.8085 14.9216 10.8052C14.9672 10.8019 14.9615 10.8268 14.9527 10.8558C14.9355 10.9125 14.9157 10.9676 14.8602 11.0091C14.894 11.0193 14.9203 11.0246 14.9448 11.0347C14.9844 11.0513 15.0021 11.0864 14.9806 11.1206C14.9461 11.1757 14.9001 11.2203 14.8216 11.2084C14.7885 11.2035 14.7543 11.196 14.7205 11.2055C14.6969 11.2119 14.6799 11.2254 14.6756 11.2499C14.6722 11.2697 14.6795 11.2883 14.699 11.2925C14.7516 11.3035 14.7529 11.3342 14.7407 11.3754C14.7368 11.3891 14.7359 11.4083 14.7534 11.4165C14.7729 11.4258 14.7797 11.4055 14.7924 11.3975C14.8371 11.3699 14.8765 11.3309 14.9366 11.3337C14.9713 11.3357 14.9665 11.3117 14.9656 11.2878C14.9586 11.1541 15.0082 11.1047 15.1411 11.1115C15.159 11.1124 15.1806 11.1192 15.1892 11.0983C15.1996 11.0729 15.1774 11.0625 15.159 11.0544C15.0706 11.0151 15.04 10.9453 15.0447 10.8551C15.0459 10.8333 15.0466 10.8107 15.0434 10.7893C15.0361 10.7366 15.0602 10.7181 15.1123 10.717C15.1776 10.7158 15.1944 10.6953 15.1754 10.6338C15.1536 10.5638 15.133 10.4952 15.1402 10.4208C15.1416 10.4089 15.1357 10.3943 15.1282 10.3844C15.1175 10.3692 15.1026 10.3524 15.1198 10.3385C15.1395 10.3222 15.1651 10.3306 15.1806 10.3482C15.2037 10.3751 15.225 10.404 15.2434 10.4343C15.3023 10.5309 15.3547 10.6302 15.366 10.7492C15.3792 10.7415 15.3855 10.739 15.3901 10.7348C15.4647 10.6678 15.5329 10.6841 15.5622 10.7765C15.5683 10.7953 15.5735 10.8149 15.583 10.8324C15.64 10.9359 15.6166 11.0021 15.5028 11.0447C15.4638 11.0592 15.4592 11.08 15.479 11.11C15.5118 11.1594 15.5266 11.2154 15.5345 11.2717C15.5409 11.3152 15.562 11.3227 15.6007 11.3264C15.7343 11.3395 15.8681 11.3348 16.0018 11.3331C16.0553 11.3324 16.0796 11.3894 16.1322 11.39C16.1417 11.3902 16.1413 11.4147 16.1349 11.426C16.1009 11.4847 16.0395 11.5308 16.0504 11.6098C16.0513 11.6158 16.0284 11.623 16.0186 11.6319C15.9998 11.6497 15.9885 11.6725 15.9977 11.6976C16.0075 11.7237 16.0306 11.7111 16.0506 11.7095C16.1163 11.7047 16.2014 11.7552 16.2288 11.8172C16.2442 11.8521 16.261 11.8812 16.307 11.8753C16.324 11.8735 16.3417 11.8768 16.3429 11.8967C16.3472 11.9816 16.4082 12.0492 16.4181 12.1328C16.4218 12.1655 16.4238 12.2076 16.4744 12.2114C16.5193 12.2147 16.5175 12.1738 16.5338 12.15C16.5562 12.1162 16.5633 12.0567 16.6297 12.0966C16.6426 12.1043 16.6515 12.0951 16.6553 12.0836C16.6732 12.0295 16.6696 11.9646 16.7347 11.9342C16.7306 11.8457 16.814 11.8358 16.8655 11.798C16.9018 11.7718 16.9326 11.7811 16.9542 11.8208C16.9864 11.8797 17.039 11.9174 17.0968 11.9494C17.2662 12.0439 17.4358 12.1374 17.604 12.2332C17.6546 12.2619 17.6847 12.2606 17.6877 12.1963C17.6913 12.1277 17.755 12.1105 17.7995 12.0997C17.8435 12.0889 17.8859 12.1304 17.9065 12.1756C17.9208 12.2063 17.9319 12.2383 17.9455 12.2736C17.9757 12.2305 17.9967 12.1961 17.9861 12.146C17.9752 12.095 18.0264 12.0953 18.0589 12.0873C18.0965 12.0783 18.0961 12.1107 18.0997 12.1335C18.1058 12.1749 18.1076 12.2171 18.1158 12.2581C18.1341 12.3502 18.1416 12.438 18.0595 12.5088C18.0369 12.5285 18.0539 12.5373 18.075 12.5433C18.1496 12.564 18.2248 12.5786 18.3028 12.5653C18.4296 12.5441 18.4745 12.5666 18.5257 12.6801C18.5393 12.7105 18.5464 12.7436 18.5613 12.773C18.5924 12.833 18.6346 12.895 18.6976 12.9153C18.9672 13.0029 19.2071 13.1455 19.449 13.2838C19.5339 13.3324 19.6218 13.3586 19.7191 13.3615C19.8239 13.3644 19.9071 13.4271 19.9404 13.5241C19.9495 13.5504 19.9658 13.5707 19.9889 13.5859C20.0526 13.6285 20.1179 13.6682 20.1894 13.6974C20.2055 13.704 20.2198 13.7088 20.2327 13.7126C20.2125 13.9878 20.1853 14.2713 20.1538 14.5545C20.1338 14.5589 20.1129 14.564 20.0907 14.5648C20.1105 14.5754 20.1309 14.5812 20.1504 14.5865C20.1463 14.6213 20.1424 14.6564 20.1383 14.6913C20.0848 14.7078 20.0263 14.7138 19.981 14.7497C19.9812 14.7497 19.9812 14.7497 19.9812 14.75C20.1726 14.7228 20.3644 14.6959 20.5553 14.6668C20.6206 14.7875 20.7131 14.8575 20.856 14.8102C20.8762 14.8038 20.8964 14.7972 20.9165 14.7906C21.3208 14.3203 21.4972 13.6367 21.8929 12.7383C22.0704 12.3351 22.1444 11.9757 22.1559 11.6625C22.1455 11.6745 22.1344 11.6864 22.1253 11.6976C22.0872 11.7448 22.0534 11.7001 22.0251 11.6723C21.9734 11.6213 21.9269 11.5648 21.8732 11.5162C21.753 11.4072 21.6507 11.2938 21.6802 11.121C21.6881 11.0731 21.6571 11.0764 21.6244 11.0879C21.5081 11.1285 21.3977 11.1777 21.3129 11.2678C21.1748 11.4141 21.0943 11.4244 20.9097 11.3161C20.8608 11.2872 20.817 11.2481 20.7671 11.2216C20.6642 11.168 20.5456 11.1223 20.4445 11.1523C20.0114 11.281 19.5576 11.3066 19.1051 11.3404C18.947 11.3518 18.8083 11.3971 18.6817 11.4831C18.5461 11.5754 18.3756 11.5665 18.2307 11.4642C18.1913 11.4364 18.1493 11.4238 18.104 11.424C17.9788 11.4246 17.8541 11.4304 17.733 11.4564C17.7058 11.4622 17.6822 11.4686 17.6621 11.4756C17.3975 11.08 17.1326 10.6662 16.8739 10.2491C16.8948 10.2249 16.9159 10.1984 16.9428 10.177C16.9065 10.1807 16.8748 10.1913 16.8449 10.2021C16.8129 10.1507 16.7809 10.0991 16.7494 10.0474C16.7995 9.97527 16.8671 9.91348 16.8866 9.82256C16.8363 9.80668 16.7857 9.79366 16.7365 9.77511C16.6852 9.75592 16.6161 9.74775 16.6075 9.68022C16.5991 9.61645 16.6589 9.60012 16.7154 9.58953C16.6766 9.54497 16.6449 9.51163 16.617 9.47544C16.5927 9.4441 16.5805 9.4097 16.6018 9.37304C16.624 9.33555 16.6594 9.33533 16.6977 9.34326C16.7379 9.35165 16.7778 9.36334 16.8183 9.3704C16.88 9.38144 16.9435 9.42469 17.0072 9.38255C16.8569 9.22122 16.8376 9.18042 16.878 9.17444C16.9274 9.16715 16.9705 9.13915 17.026 9.14752C17.0916 9.15767 17.0775 9.23248 17.1222 9.2594C17.1589 9.20314 17.1609 9.15283 17.1211 9.10007C17.0825 9.04867 17.0877 9.01182 17.1498 8.99238C17.1689 8.98665 17.2152 8.98312 17.1802 8.95003C17.1188 8.89132 17.1811 8.90589 17.2018 8.90742C17.2342 8.90964 17.2687 8.9317 17.2993 8.92817C17.3639 8.92133 17.4519 8.98334 17.4879 8.88294C17.5068 8.83085 17.5269 8.77943 17.5478 8.72472C17.3614 8.72119 17.3646 8.7203 17.2986 8.54576C17.2632 8.45306 17.2991 8.40606 17.3814 8.40275C17.4614 8.39966 17.5394 8.37363 17.6283 8.41732C17.6782 8.44202 17.7509 8.41599 17.8128 8.40892C17.8344 8.40695 17.8335 8.38598 17.8321 8.36568C17.8233 8.2282 17.8518 8.19202 17.9951 8.18362C18.0638 8.17942 18.1183 8.15008 18.123 8.09204C18.1369 7.93449 18.2432 7.89697 18.3731 7.878C18.4341 7.86916 18.4997 7.86916 18.5577 7.82613C18.4793 7.78377 18.4006 7.76058 18.3489 7.70963C18.27 7.63217 18.2314 7.65025 18.1704 7.71711C18.109 7.78464 18.028 7.7608 17.9258 7.65732C17.8723 7.60325 17.9253 7.56287 17.9489 7.52404C17.9804 7.47084 18.0194 7.42275 18.0661 7.3572C17.9509 7.37088 17.8865 7.45518 17.787 7.4512C17.6705 7.44636 17.6403 7.56353 17.5566 7.60567C17.531 7.61849 17.5174 7.67211 17.4802 7.64077C17.441 7.60789 17.4798 7.57588 17.4961 7.54587C17.5587 7.42937 17.621 7.3124 17.6922 7.1789C17.6439 7.18708 17.6197 7.19125 17.5949 7.195C17.5235 7.20649 17.4365 7.24025 17.385 7.17801C17.3381 7.12175 17.4201 7.07077 17.4412 7.01604C17.4562 6.9761 17.4775 6.94278 17.409 6.94829C17.3068 6.95646 17.3322 6.90593 17.3621 6.86024C17.4464 6.73049 17.5575 6.63824 17.7276 6.63649C17.7902 6.63582 17.8532 6.63935 17.9131 6.6217C17.9362 6.61485 17.97 6.61463 17.9675 6.58109C17.9652 6.54997 17.9332 6.54357 17.9088 6.53587C17.7557 6.48686 17.6108 6.47716 17.4789 6.57272C17.3745 6.64817 17.2829 6.73533 17.197 6.82978C17.17 6.85982 17.1446 6.89467 17.0982 6.89489C17.075 6.86135 17.0929 6.83951 17.1027 6.81832C17.1855 6.642 17.3088 6.50497 17.4902 6.42618C17.5299 6.40896 17.5773 6.39773 17.5986 6.36107C17.6525 6.26729 17.7382 6.26309 17.8355 6.27811C17.8791 6.28473 17.9167 6.30968 17.8906 6.21918C17.8648 6.12826 17.98 6.14284 18.0285 6.15518C18.1147 6.17704 18.1695 6.14703 18.2278 6.10379C18.3017 6.04883 18.3754 5.99279 18.4527 5.94248C18.514 5.90274 18.6092 5.9098 18.6232 5.97446C18.647 6.08215 18.699 6.03448 18.7414 6.02589C18.8389 6.00603 18.9196 5.94312 19.0327 5.95836C19.2033 5.98086 19.233 5.94952 19.245 5.77453C19.2509 5.68625 19.298 5.65647 19.3817 5.66948C19.4028 5.67279 19.425 5.69245 19.4434 5.67148C19.4543 5.65933 19.4502 5.64323 19.4395 5.6311C19.4169 5.60507 19.393 5.62028 19.3681 5.62337C19.2962 5.63285 19.2391 5.68339 19.1615 5.67877C19.1189 5.67655 19.0699 5.70216 19.0389 5.65382C19.0078 5.60485 19.062 5.59623 19.084 5.57284C19.0899 5.56644 19.093 5.55253 19.0906 5.54372C19.0593 5.4347 19.1332 5.40755 19.2096 5.37821C19.303 5.34267 19.4026 5.32834 19.4987 5.30384C19.6526 5.26455 19.8057 5.22374 19.964 5.19858C20.0352 5.18709 20.103 5.17165 20.1755 5.22661C20.2225 5.26213 20.2993 5.21446 20.2941 5.1637C20.2819 5.04478 20.1325 4.87682 20.0005 4.84659C19.895 4.82234 19.7873 4.8113 19.6808 4.79561C19.6327 4.78858 19.5846 4.78415 19.5397 4.7601C19.5121 4.74553 19.4856 4.72633 19.4912 4.69168C19.496 4.6619 19.5243 4.65594 19.5499 4.65483C19.6193 4.6513 19.6896 4.65219 19.7588 4.64821C19.8075 4.64557 19.849 4.63939 19.8492 4.56987C19.8495 4.51736 20.0438 4.39401 20.0921 4.41387C20.1415 4.43417 20.1776 4.42842 20.2152 4.40394C20.2921 4.35341 20.3551 4.41827 20.3982 4.46132C20.4336 4.49661 20.3807 4.54384 20.349 4.57649C20.3193 4.60694 20.2871 4.63564 20.261 4.66874C20.1907 4.75857 20.1973 4.88589 20.276 4.95803C20.2735 4.89009 20.2635 4.82431 20.2776 4.75943C20.2891 4.70714 20.3222 4.66565 20.3694 4.66963C20.4689 4.67844 20.5084 4.61247 20.5594 4.55532C20.6209 4.48579 20.6979 4.42644 20.7966 4.47653C20.8582 4.50787 20.8991 4.50014 20.949 4.48006C21.0057 4.45734 21.0821 4.42071 21.1208 4.47873C21.1567 4.53193 21.0757 4.56856 21.0415 4.60939C21.0195 4.63564 20.98 4.65792 21.0007 4.69964C21.0197 4.73846 21.0614 4.75988 21.1031 4.7623C21.2766 4.77158 21.4498 4.78215 21.6228 4.78326C21.7237 4.78393 21.8149 4.74906 21.8884 4.68067C21.9056 4.66454 21.9165 4.62682 21.9555 4.64668C21.9725 4.6906 21.9144 4.73473 21.9623 4.77136C22.0074 4.80557 22.0453 4.76318 22.0838 4.7495C22.1373 4.73076 22.1777 4.71618 22.2255 4.78084C22.2661 4.83558 22.3314 4.83138 22.3867 4.79895C22.438 4.76892 22.4892 4.77378 22.552 4.78196C22.6409 4.79386 22.7328 4.83313 22.8239 4.8029C22.8783 4.78482 22.9509 4.74377 22.9443 4.86648C22.9425 4.90002 22.9733 4.89493 22.9942 4.89493C23.03 4.89493 23.0618 4.90044 23.0724 4.94282C23.0849 4.99446 23.042 4.99953 23.0123 5.01674C22.8926 5.0858 22.7559 5.10766 22.6201 5.13283C22.5974 5.13678 22.5625 5.13789 22.5625 5.17054C22.5622 5.20542 22.5963 5.20762 22.6203 5.21115C22.6899 5.22174 22.6996 5.26301 22.6783 5.31444C22.6552 5.37026 22.635 5.43094 22.5974 5.47552C22.5282 5.5574 22.5772 5.5693 22.6509 5.57681C22.6731 5.57901 22.6951 5.58146 22.7173 5.5841C22.7795 5.59094 22.8457 5.58101 22.9006 5.62426C22.9917 5.69663 22.8879 5.73812 22.8779 5.79263C22.8554 5.91775 22.7965 5.93606 22.6804 5.87053C22.6475 5.8522 22.6178 5.82751 22.5872 5.80476C22.4577 5.70811 22.355 5.72599 22.2713 5.8692C22.3214 5.86522 22.3652 5.8648 22.4074 5.85774C22.4992 5.84228 22.5804 5.87495 22.6412 5.9429C22.7137 6.02389 22.8271 6.02477 22.9006 6.10334C22.925 6.1296 22.9631 6.10334 22.9883 6.08304C23.0708 6.01682 23.174 5.99477 23.2731 5.96234C23.3502 5.93739 23.391 5.95636 23.4082 6.03735C23.4171 6.07973 23.4398 6.10487 23.4867 6.09937C23.5162 6.09583 23.5336 6.07906 23.5377 6.05236C23.5465 5.99543 23.501 5.99741 23.4658 5.98904C23.4302 5.98042 23.4023 5.961 23.3953 5.92348C23.3869 5.87826 23.4246 5.86811 23.4543 5.8606C23.5695 5.83081 23.6862 5.8052 23.8021 5.77761C23.8216 5.77277 23.8481 5.77519 23.8492 5.79352C23.8542 5.86964 23.898 5.91995 23.9524 5.9694C23.9672 5.98264 23.9347 6.03824 23.9898 6.02589C24.0327 6.01618 24.0309 5.97469 24.0034 5.9471C23.8957 5.83808 23.9511 5.754 24.0191 5.67015C24.1057 5.75489 24.2714 5.70811 24.3445 5.57815C24.3268 5.55056 24.2742 5.58012 24.2726 5.54085C24.2712 5.49936 24.317 5.50089 24.3472 5.49516C24.4542 5.47552 24.5621 5.45875 24.6696 5.44154C24.7 5.43667 24.7313 5.43161 24.7209 5.39011C24.7125 5.35635 24.6733 5.33143 24.6533 5.34091C24.5522 5.38836 24.4705 5.30826 24.3841 5.28154C24.3116 5.25926 24.2397 5.20344 24.2513 5.10721C24.2644 4.996 24.508 4.8113 24.6245 4.82696C24.7771 4.84748 24.9156 4.82807 25.0351 4.7376C25.0641 4.71529 25.0988 4.70075 25.1367 4.70912C25.2335 4.73009 25.1873 4.87882 25.3042 4.89382C25.3301 4.8969 25.3174 4.95408 25.3022 4.98209C25.2784 5.02578 25.2499 5.06639 25.2254 5.10941C25.19 5.17076 25.1322 5.22705 25.1413 5.30184C25.1483 5.36011 25.1458 5.40602 25.1079 5.4486C25.1644 5.42521 25.1859 5.3793 25.204 5.32834C25.2279 5.26124 25.253 5.19351 25.2852 5.1306C25.3222 5.05801 25.3848 5.04675 25.4454 5.11119C25.4938 5.16284 25.5406 5.16284 25.5964 5.15135C25.6636 5.13722 25.7315 5.12398 25.8001 5.11472C25.8308 5.11052 25.8683 5.10413 25.8863 5.14693C25.9165 5.21932 25.9408 5.17452 25.9583 5.14629C26.0254 5.03793 26.14 5.0163 26.2251 5.09884C26.3103 5.18136 26.3769 5.14915 26.4555 5.14782C26.4973 5.14715 26.532 5.17143 26.5695 5.18998C26.6997 5.25397 26.8335 5.3076 26.9739 5.33827C26.9772 5.33891 26.9808 5.33672 26.9843 5.33583C27.0125 5.37204 27.0403 5.40844 27.0682 5.44462C27.1029 5.51524 27.09 5.568 27.0137 5.59094C27.0502 5.63352 27.1602 5.58541 27.1207 5.6845C27.0923 5.75556 27.1138 5.77386 27.1787 5.78754C27.202 5.79263 27.2355 5.79747 27.2375 5.83104C27.2395 5.86544 27.2109 5.87868 27.1843 5.89017C27.1133 5.92084 27.0348 5.91906 26.9582 5.92129C26.8368 5.92504 26.8292 6.0347 26.7933 6.10774C26.7608 6.17373 26.8558 6.17153 26.8875 6.20661C26.9288 6.2523 27.0049 6.27789 26.9752 6.35799C26.9407 6.45113 26.8115 6.52769 26.7076 6.51974C26.6296 6.51379 26.554 6.49259 26.478 6.46856C26.4167 6.44935 26.3769 6.48244 26.365 6.53784C26.3495 6.6111 26.4162 6.58265 26.4468 6.59677C26.4881 6.61552 26.532 6.62765 26.5728 6.64731C26.7195 6.71703 26.7243 6.75102 26.5961 6.84282C26.6934 6.88165 26.7603 6.98669 26.8893 6.93241C26.9311 6.91452 26.9881 6.91035 27.0304 6.88054C27.0659 6.8554 27.1156 6.81788 27.147 6.85384C27.2261 6.94411 27.3391 6.93263 27.4303 6.9845C27.4952 7.02179 27.497 7.05002 27.4572 7.09282C27.3926 7.1628 27.3249 7.23032 27.2585 7.29894C27.2203 7.33845 27.181 7.37773 27.1985 7.44945C27.3089 7.41369 27.3976 7.36691 27.4362 7.25878C27.4661 7.17492 27.5403 7.17779 27.61 7.19765C27.6853 7.21906 27.725 7.29056 27.7443 7.35567C27.7615 7.41324 27.6936 7.42231 27.6536 7.44172C27.5859 7.47437 27.517 7.5046 27.4511 7.5397C27.3865 7.57413 27.3115 7.67409 27.3247 7.69308C27.4184 7.8268 27.2722 7.77627 27.2443 7.80914C27.2225 7.83453 27.1724 7.831 27.1447 7.86871C27.2248 7.84093 27.2986 7.81289 27.3741 7.78995C27.4498 7.76656 27.5269 7.74692 27.6042 7.72793C27.6384 7.71956 27.6809 7.70454 27.7053 7.74559C27.7326 7.7917 27.6863 7.80936 27.6609 7.829C27.6077 7.87094 27.5522 7.90932 27.4957 7.94639C27.4435 7.98038 27.424 8.01414 27.4899 8.06247C27.5241 8.08742 27.5449 8.11368 27.5066 8.15142C27.3766 8.28049 27.239 8.30124 27.0854 8.18649C26.9924 8.11654 26.9471 8.14566 26.9002 8.21541C26.887 8.23505 26.8594 8.25401 26.8749 8.28094C26.8903 8.30741 26.9222 8.29771 26.9468 8.29771C27.0796 8.29926 27.2119 8.30633 27.3449 8.33125C27.3954 8.34053 27.424 8.35508 27.4486 8.40144C27.4985 8.495 27.5383 8.50006 27.6049 8.42856C27.6728 8.35553 27.742 8.28358 27.8464 8.26241C27.8852 8.25446 27.9399 8.23085 27.9597 8.29042C27.9762 8.34053 27.9861 8.39877 27.9138 8.42394C27.8393 8.44997 27.7681 8.48374 27.6977 8.51839C27.5986 8.56714 27.5697 8.67174 27.629 8.76266C27.6475 8.79092 27.6399 8.80527 27.6161 8.81189C27.5849 8.82026 27.5517 8.82335 27.5193 8.82688C27.4471 8.83416 27.4455 8.8677 27.4873 8.92133C27.5983 9.0608 27.7542 9.065 27.8186 8.91671C27.9078 8.71171 28.1029 8.61548 28.2493 8.47005C28.2818 8.43718 28.3507 8.43034 28.394 8.46321C28.4326 8.49236 28.4764 8.49984 28.5093 8.52192C28.5575 8.55435 28.6056 8.58923 28.6543 8.62277C28.6006 8.67308 28.6649 8.77459 28.5914 8.81055C28.4835 8.86353 28.39 8.93437 28.2924 9.00187C28.2085 9.05991 28.0953 9.06609 27.9911 9.08375C27.9594 9.08906 27.9047 9.08639 27.9047 9.1142C27.9029 9.23137 27.8467 9.34634 27.8629 9.45161C27.8771 9.54561 27.9176 9.6308 27.8439 9.73495C27.8981 9.71334 27.9275 9.70186 27.9564 9.68995C28.1247 9.62109 28.2466 9.65266 28.3758 9.79675C28.4166 9.8422 28.4389 9.88413 28.3867 9.92849C28.3391 9.96932 28.3593 10.0093 28.3948 10.0525C28.4288 10.0933 28.4609 10.1364 28.4896 10.1809C28.5134 10.2178 28.5286 10.2761 28.4921 10.291C28.4039 10.327 28.4275 10.3934 28.4351 10.4605C28.4384 10.4861 28.4394 10.5155 28.4153 10.5296C28.3875 10.5455 28.3657 10.5232 28.3484 10.5031C28.3046 10.451 28.2681 10.4537 28.2346 10.5051C28.1954 10.566 28.1513 10.545 28.1079 10.5011C28.0443 10.4367 28.0035 10.3652 27.9939 10.2738C27.9828 10.1664 27.9354 10.1255 27.8236 10.1044C27.8386 10.1328 27.8533 10.1591 27.8662 10.186C27.9024 10.2626 27.9668 10.3427 27.832 10.3822C27.7879 10.395 27.8044 10.4484 27.8267 10.4775C27.9072 10.5835 27.8208 10.6269 27.7615 10.6629C27.6946 10.7035 27.6173 10.6878 27.5727 10.6035C27.5398 10.5411 27.5038 10.5117 27.4455 10.5618C27.391 10.6084 27.3718 10.5689 27.3525 10.5212C27.3148 10.4277 27.2816 10.3337 27.3077 10.226C27.2547 10.2432 27.2154 10.2604 27.1741 10.2688C27.1065 10.2825 27.0469 10.2507 27.0383 10.1838C27.0236 10.0768 27.035 9.9733 27.1463 9.91701C27.1934 9.89362 27.2446 9.87178 27.2775 9.82787C27.3006 9.79742 27.3077 9.76343 27.2872 9.72547C27.2709 9.69524 27.242 9.67647 27.2129 9.68884C27.1351 9.72238 27.1009 9.68133 27.0725 9.61358C27.0634 9.59153 27.0441 9.56438 27.013 9.569C26.979 9.57431 26.9919 9.60874 26.9841 9.63102C26.9565 9.71023 26.9478 9.80006 26.869 9.85126C26.8232 9.8806 26.8541 9.90928 26.8807 9.94084C27.0307 10.1181 27.0198 10.2313 26.8444 10.3444C26.8209 10.3597 26.7867 10.3703 26.7978 10.4071C26.8115 10.4515 26.8505 10.4453 26.8819 10.4396C27.0355 10.412 27.1483 10.4789 27.2367 10.6066C27.2583 10.6379 27.2813 10.6693 27.3079 10.6962C27.3725 10.7615 27.3619 10.8088 27.297 10.8584C27.2157 10.9204 27.2159 10.9641 27.3051 11.0305C27.4068 11.1065 27.5051 11.1819 27.5743 11.2903C27.5854 11.3077 27.6077 11.322 27.6277 11.3293C27.6574 11.3399 27.6936 11.3492 27.687 11.3843C27.6832 11.4035 27.6713 11.4152 27.6561 11.4224C27.663 11.4196 27.669 11.4178 27.6756 11.4149C27.6964 11.4061 27.7223 11.4057 27.7456 11.4059C27.7552 11.4061 27.7643 11.4189 27.8297 11.469C27.3637 11.5732 27.1675 12.0492 26.6873 12.0917C26.5951 12.1001 26.5611 12.1946 26.5267 12.2668C26.4329 12.4634 26.2819 12.609 26.1017 12.7284C26.0343 12.773 25.9033 12.8491 25.8967 12.8403C25.6134 12.476 25.1864 12.9544 24.9689 12.7302C24.7267 12.481 24.4644 12.3323 24.1533 12.2189C24.0456 12.1798 24.0619 12.0986 24.1232 12.0218C24.1801 11.9507 24.3136 11.9666 24.3329 11.8269C24.1363 11.7817 24.0236 11.8832 23.9515 12.0348C23.827 12.2976 23.6529 12.5571 23.6109 12.8343C23.547 13.254 23.3962 13.6457 23.2706 14.0414C23.0359 14.7791 22.689 15.4683 21.9652 15.8851C21.7151 16.0292 21.439 16.0806 21.1405 16.0648C20.3991 16.025 19.6746 16.0725 18.9563 16.3207C18.6686 16.42 18.3053 16.3247 17.9766 16.3993C17.6278 16.4785 17.2904 16.5882 16.9564 16.708C16.466 17.2339 15.9476 18.2243 16.3281 19.9254C16.4213 19.9757 16.532 19.9994 16.6705 19.9938C16.683 19.9934 16.6943 19.9956 16.7063 19.9958C16.7227 20.0029 16.7413 20.0075 16.7583 20.0139L17.6238 19.8934V19.9658C17.7573 19.9658 17.9797 20.0091 18.3355 20.1243C19.7583 20.5859 19.7583 20.5859 20.4698 21.2786C21.1816 21.9709 22.1301 22.2017 22.1301 22.2017V22.3107C22.1385 22.3056 22.1471 22.3003 22.1598 22.2961C22.1811 22.2897 22.2323 22.286 22.1938 22.2489C22.1253 22.184 22.1945 22.2001 22.2174 22.2019C22.2534 22.2043 22.2915 22.2286 22.3255 22.2251C22.3972 22.2174 22.4951 22.286 22.5348 22.1747C22.5555 22.1172 22.5783 22.06 22.601 21.9993C22.3945 21.9953 22.3981 21.9945 22.3249 21.8007C22.2856 21.6979 22.3253 21.6458 22.4167 21.6423C22.5056 21.639 22.5917 21.6101 22.6903 21.6586C22.7457 21.6857 22.8266 21.6568 22.8951 21.6491C22.9189 21.6467 22.918 21.6235 22.9166 21.6012C22.9067 21.4485 22.9384 21.4086 23.0974 21.3993C23.1733 21.3947 23.2336 21.3618 23.2393 21.2976C23.2545 21.123 23.3724 21.0811 23.5166 21.0604C23.5842 21.0506 23.6568 21.0506 23.7214 21.0028C23.6341 20.956 23.547 20.9299 23.4896 20.8739C23.4023 20.7876 23.3592 20.8077 23.2917 20.8818C23.2237 20.9569 23.1339 20.9304 23.0205 20.8156C22.9609 20.7556 23.02 20.7108 23.0459 20.6676C23.081 20.6088 23.1243 20.5552 23.1763 20.4824C23.0484 20.4978 22.9772 20.5912 22.8665 20.5868C22.7373 20.5817 22.7042 20.7117 22.611 20.7582C22.5824 20.7726 22.5672 20.8315 22.5262 20.7971C22.4827 20.7605 22.5257 20.7252 22.5436 20.6921C22.6133 20.5627 22.6824 20.433 22.7611 20.2851C22.7078 20.294 22.6808 20.2986 22.6536 20.303C22.5743 20.3153 22.4777 20.3529 22.4205 20.284C22.3688 20.2218 22.4595 20.1651 22.4829 20.1042C22.4997 20.06 22.5233 20.023 22.4473 20.0291C22.3339 20.0382 22.3623 19.9821 22.3951 19.9314C22.4888 19.7875 22.6119 19.6851 22.8006 19.6834C22.8699 19.6827 22.94 19.6867 23.0062 19.6668C23.0323 19.6593 23.0692 19.6591 23.0665 19.622C23.064 19.5874 23.0287 19.5803 23.0015 19.5717C22.8319 19.5174 22.6711 19.5064 22.5248 19.6125C22.4092 19.6964 22.3074 19.793 22.2126 19.8978C22.1822 19.9309 22.1541 19.9698 22.1024 19.97C22.077 19.9327 22.0967 19.9084 22.1079 19.885C22.1992 19.6895 22.336 19.5375 22.5375 19.4501C22.5815 19.4309 22.6341 19.4188 22.6575 19.3777C22.7173 19.2742 22.8123 19.2692 22.9203 19.2859C22.9688 19.2934 23.0103 19.321 22.9815 19.2206C22.9527 19.12 23.0806 19.1361 23.1343 19.1495C23.23 19.1738 23.2908 19.1405 23.3556 19.0926C23.4375 19.0317 23.5189 18.9695 23.6048 18.9136C23.6726 18.8697 23.7785 18.8775 23.7939 18.949C23.8202 19.0688 23.8781 19.0158 23.9248 19.0061C24.0329 18.9838 24.1225 18.9145 24.2483 18.9311C24.437 18.9562 24.4701 18.9216 24.4832 18.7274C24.4898 18.6294 24.5422 18.5963 24.6351 18.6111C24.6585 18.6146 24.6828 18.6363 24.7036 18.6133C24.7156 18.5998 24.7109 18.5817 24.6991 18.5683C24.6741 18.5396 24.6476 18.5564 24.6202 18.5599C24.5401 18.5703 24.4769 18.6263 24.391 18.6215C24.3438 18.6186 24.2894 18.6471 24.2549 18.5934C24.2202 18.5394 24.2805 18.5299 24.3048 18.5036C24.3114 18.4964 24.315 18.4813 24.312 18.4714C24.2774 18.3505 24.3594 18.3203 24.4442 18.2878C24.5476 18.2485 24.6581 18.2326 24.7646 18.2055C24.9356 18.162 25.1052 18.1166 25.2807 18.0886C25.3597 18.076 25.435 18.0587 25.5156 18.1197C25.5675 18.1592 25.6527 18.1062 25.6468 18.0501C25.6334 17.918 25.4674 17.7317 25.3212 17.6982C25.2043 17.6715 25.085 17.6589 24.9667 17.6417C24.9134 17.6339 24.8599 17.6289 24.8104 17.6026C24.7798 17.5861 24.7503 17.5649 24.7564 17.5265C24.7619 17.4934 24.7932 17.4868 24.8215 17.4854C24.8986 17.4819 24.9764 17.4828 25.0535 17.4784C25.1075 17.4751 25.1533 17.4685 25.1535 17.3914C25.1537 17.333 25.3693 17.1964 25.4231 17.2182C25.4778 17.2409 25.5176 17.2348 25.5591 17.2074C25.6445 17.1516 25.715 17.2233 25.7624 17.271C25.8014 17.31 25.7434 17.3625 25.7076 17.3989C25.6747 17.4325 25.6395 17.4643 25.6103 17.5013C25.532 17.6009 25.5394 17.7416 25.6268 17.8218C25.624 17.7467 25.6131 17.6737 25.6288 17.602C25.6415 17.5435 25.6783 17.4976 25.7305 17.502C25.8409 17.5117 25.8848 17.4387 25.9413 17.3751C26.0095 17.2983 26.0949 17.2323 26.2043 17.2879C26.2728 17.3226 26.3179 17.314 26.3731 17.2917C26.4362 17.2668 26.5211 17.2259 26.5642 17.2901C26.6037 17.3495 26.5137 17.3901 26.476 17.4353C26.4514 17.4645 26.4078 17.4892 26.4304 17.5353C26.4517 17.5784 26.498 17.6024 26.5444 17.6046C26.7367 17.6152 26.9288 17.6269 27.1204 17.6282C27.2327 17.6289 27.3335 17.5903 27.4151 17.5141C27.4344 17.4963 27.4463 17.4548 27.4896 17.4766C27.5081 17.5252 27.444 17.5744 27.4972 17.6148C27.5471 17.6529 27.5892 17.6059 27.6318 17.5909C27.6913 17.57 27.7359 17.5539 27.7889 17.6254C27.834 17.686 27.9065 17.6814 27.9676 17.6454C28.0246 17.6121 28.0813 17.6176 28.151 17.6267C28.2499 17.6397 28.3515 17.6836 28.4526 17.6496C28.5131 17.6298 28.5937 17.5843 28.5861 17.7202C28.5841 17.7578 28.6186 17.7516 28.6416 17.7518C28.6814 17.7518 28.7164 17.7582 28.728 17.8052C28.742 17.8621 28.6943 17.8679 28.6614 17.8871C28.5289 17.9637 28.3773 17.9879 28.2268 18.0157C28.2017 18.0204 28.1629 18.0215 28.1627 18.0574C28.1624 18.0963 28.1999 18.0987 28.227 18.1024C28.3041 18.1144 28.3147 18.16 28.2912 18.2172C28.2656 18.2792 28.243 18.3465 28.2015 18.3957C28.1247 18.4862 28.1789 18.4999 28.2605 18.508C28.2853 18.5107 28.3097 18.5134 28.3345 18.516C28.4032 18.5237 28.4769 18.5129 28.5375 18.5608C28.6386 18.6413 28.5235 18.687 28.5126 18.7475C28.4873 18.8863 28.4222 18.9066 28.2934 18.8342C28.2569 18.8137 28.2238 18.7861 28.19 18.7609C28.0464 18.6539 27.9328 18.6738 27.8398 18.8324C27.8956 18.8278 27.944 18.8276 27.9909 18.8196C28.0925 18.8024 28.1827 18.8386 28.2501 18.9141C28.3307 19.0039 28.4561 19.0048 28.5375 19.0922C28.5648 19.1213 28.6072 19.0922 28.635 19.0694C28.7265 18.9962 28.8408 18.9717 28.9508 18.9359C29.0362 18.9081 29.0815 18.9291 29.1005 19.0189C29.1104 19.0657 29.1355 19.0937 29.1875 19.0875C29.2204 19.0838 29.2397 19.0648 29.2442 19.0355C29.2541 18.9726 29.2037 18.9746 29.1647 18.9651C29.1249 18.9556 29.0942 18.9344 29.0864 18.8925C29.077 18.8426 29.119 18.8311 29.1517 18.8227C29.2795 18.7896 29.4089 18.7614 29.5377 18.7307C29.5592 18.7254 29.5889 18.7281 29.5899 18.7484C29.5952 18.8329 29.6436 18.8889 29.7044 18.9437C29.7209 18.9582 29.6847 19.0198 29.746 19.0061C29.7931 18.9953 29.7911 18.9494 29.7609 18.9187C29.6413 18.798 29.7027 18.7047 29.7782 18.6118C29.8742 18.7058 30.0579 18.6539 30.1393 18.5098C30.1195 18.4791 30.0612 18.512 30.0595 18.4683C30.0574 18.4222 30.1086 18.4237 30.1418 18.4178C30.2607 18.3959 30.3803 18.3772 30.4996 18.358C30.5336 18.3527 30.568 18.3472 30.5564 18.3013C30.547 18.2638 30.5037 18.2362 30.4816 18.2466C30.3694 18.2993 30.2789 18.2101 30.1831 18.1808C30.1025 18.1559 30.023 18.0941 30.0359 17.9875C30.0503 17.8639 30.32 17.6589 30.4497 17.6763C30.619 17.6993 30.7728 17.6774 30.9048 17.5772C30.937 17.5527 30.9755 17.5364 31.0178 17.5457C31.125 17.5693 31.0739 17.7342 31.2036 17.7505C31.232 17.754 31.218 17.8173 31.2011 17.8487C31.1747 17.897 31.1433 17.9422 31.1157 17.9899C31.0766 18.0577 31.0125 18.1201 31.0227 18.2033C31.0303 18.2677 31.0277 18.3187 30.9857 18.3659C31.0483 18.3399 31.0723 18.2891 31.0924 18.2326C31.119 18.1581 31.1466 18.083 31.1823 18.0133C31.2234 17.933 31.2925 17.9204 31.36 17.9919C31.4139 18.049 31.4656 18.0493 31.5277 18.036C31.6025 18.0206 31.6775 18.006 31.7532 17.9956C31.7872 17.991 31.829 17.984 31.849 18.0314C31.8825 18.1117 31.9093 18.0621 31.9286 18.031C32.0031 17.9102 32.1303 17.8868 32.2246 17.978C32.3191 18.0698 32.3931 18.034 32.4803 18.0325C32.5267 18.0316 32.5649 18.0587 32.6067 18.0793C32.7509 18.1499 32.8994 18.2097 33.055 18.2437C33.0591 18.2446 33.0629 18.2417 33.0669 18.2408C33.0976 18.281 33.1285 18.3211 33.1597 18.3615C33.1982 18.4396 33.1837 18.4983 33.0994 18.5237C33.1399 18.5712 33.2615 18.518 33.2182 18.6274C33.1863 18.7062 33.2103 18.7267 33.2823 18.742C33.3084 18.7475 33.3452 18.753 33.3474 18.7901C33.35 18.8282 33.3183 18.8428 33.2884 18.8556C33.2098 18.8898 33.1229 18.8878 33.0378 18.8903C32.9032 18.8942 32.8949 19.0158 32.8548 19.097C32.8191 19.1701 32.9245 19.1676 32.9595 19.2067C33.0051 19.2572 33.0895 19.2857 33.0568 19.3746C33.0183 19.4779 32.8751 19.5627 32.7598 19.5536C32.6734 19.547 32.5895 19.5238 32.5054 19.4971C32.4367 19.4757 32.3931 19.5125 32.3799 19.5739C32.3627 19.6551 32.4364 19.6236 32.4706 19.6392C32.5163 19.6604 32.5654 19.6734 32.6108 19.6953C32.773 19.7727 32.7785 19.8102 32.6361 19.9122C32.7443 19.9554 32.8183 20.0717 32.9612 20.0117C33.0079 19.9918 33.071 19.9872 33.1179 19.9539C33.1569 19.9263 33.2121 19.8844 33.2473 19.9243C33.335 20.0245 33.4602 20.0117 33.5611 20.0693C33.6335 20.1108 33.6353 20.1419 33.5912 20.1894C33.5195 20.267 33.4448 20.3421 33.371 20.418C33.3284 20.4619 33.2851 20.5054 33.3044 20.5848C33.427 20.5453 33.5248 20.4932 33.5677 20.3736C33.6011 20.2803 33.6835 20.2838 33.7608 20.3059C33.8441 20.3295 33.8882 20.4087 33.9095 20.4809C33.9285 20.5449 33.8535 20.5548 33.8089 20.5764C33.7339 20.6126 33.6579 20.6464 33.5846 20.685C33.5127 20.7234 33.4293 20.8342 33.4442 20.8553C33.5481 21.0034 33.386 20.9476 33.3553 20.9838C33.331 21.012 33.2752 21.0081 33.2446 21.0502C33.3335 21.0191 33.4154 20.988 33.499 20.9624C33.5829 20.9368 33.6685 20.9149 33.7542 20.8942C33.7922 20.8847 33.8391 20.8677 33.8664 20.9132C33.8971 20.9644 33.8451 20.984 33.8168 21.0061C33.7582 21.0522 33.6966 21.095 33.634 21.1358C33.5763 21.1738 33.5542 21.2113 33.6275 21.2647C33.6655 21.2925 33.6885 21.3214 33.646 21.3633C33.502 21.5068 33.3492 21.5297 33.1789 21.4022C33.0755 21.3249 33.0256 21.3572 32.9734 21.4346C32.9585 21.4562 32.9278 21.4772 32.9455 21.5074C32.9625 21.5366 32.998 21.5255 33.0254 21.526C33.1726 21.5275 33.3191 21.535 33.4665 21.5628C33.5223 21.5732 33.5545 21.5893 33.5818 21.6407C33.6368 21.7444 33.6812 21.7502 33.7552 21.6707C33.8302 21.5898 33.9072 21.5103 34.0228 21.4865C34.0661 21.4776 34.1264 21.4516 34.1485 21.5178C34.1667 21.5732 34.1776 21.6378 34.0978 21.6659C34.0149 21.6946 33.9359 21.7319 33.8578 21.7705C33.7483 21.8245 33.7159 21.9406 33.7818 22.0415C33.8023 22.0726 33.794 22.0889 33.7676 22.0958C33.7329 22.1052 33.6961 22.1088 33.6601 22.1125C33.5798 22.1207 33.578 22.158 33.6249 22.2174C33.7476 22.372 33.9207 22.3767 33.9921 22.212C34.0909 21.985 34.3071 21.8784 34.4695 21.7169C34.5058 21.6807 34.5821 21.6729 34.6302 21.7096C34.673 21.7416 34.7214 21.7497 34.7582 21.7745C34.8114 21.8102 34.8649 21.849 34.9188 21.8863C34.8593 21.9422 34.9302 22.0545 34.8494 22.0944ZM11.7891 16.507C11.82 16.4324 11.8531 16.362 11.9227 16.339C11.9363 16.3344 11.9592 16.3424 11.9497 16.2951C11.9291 16.1943 11.9304 16.1537 11.9737 16.1325L12.398 16.394C12.3871 16.4008 12.3762 16.409 12.3653 16.4198C12.3306 16.4542 12.2923 16.4966 12.2456 16.4944C12.1868 16.4918 12.1497 16.533 12.1088 16.5776C12.0297 16.6643 11.9626 16.7678 11.8649 16.8272C11.8037 16.864 11.7867 16.8199 11.7819 16.7696C11.7742 16.6917 11.8345 16.6116 11.7805 16.5312C11.7787 16.5284 11.7857 16.5151 11.7891 16.507ZM12.9505 16.7343C12.9453 16.7356 12.9399 16.7367 12.9344 16.7369C12.9138 16.7376 12.9052 16.7221 12.9002 16.7031L12.9505 16.7343ZM19.5001 0.5C11.6341 0.5 3.85149 2.61515 0 4.73009V17.312C0 34.8834 16.9505 40.3609 19.5001 41.5C22.1038 40.4696 39 35.3174 39 17.4206V4.73009C35.2029 2.61515 27.4199 0.5 19.5001 0.5Z" fill="#008566"/>
</svg>
