 <svg width="51" height="50" viewBox="0 0 51 50" fill="none">
    <path d="M25.0134 50C38.828 50 50.0268 38.8071 50.0268 25C50.0268 11.1929 38.828 0 25.0134 0C11.1989 0 0 11.1929 0 25C0 38.8071 11.1989 50 25.0134 50Z" fill="#11D7A3"/>
    <path fill-rule="evenodd" clip-rule="evenodd" d="M36.5436 13.4734H10.5973V10.5908H39.4295L36.5436 13.4734ZM10.5973 15.772H34.2382L31.3557 18.6546H10.5973V15.772ZM10.5973 20.9599H29.0537L26.1711 23.8391H10.5973V20.9599ZM20.9731 29.0338L23.8557 26.1546H39.4295V29.0338H20.9731ZM18.6644 31.3391L15.7852 34.2284H39.4295V31.3391H18.6644ZM13.4798 36.5271L10.5973 39.4096H39.4295V36.5271H13.4798Z" fill="white"/>
    </svg>