<svg width="20" height="20" viewBox="0 0 20 20" fill="none" xmlns="http://www.w3.org/2000/svg">
<path d="M11.7391 13.9129H10.4348V9.13034C10.4348 8.89023 10.2403 8.69556 10 8.69556H8.26087C8.02055 8.69556 7.82609 8.89023 7.82609 9.13034C7.82609 9.37045 8.02055 9.56512 8.26087 9.56512H9.56522V13.9129H8.26087C8.02055 13.9129 7.82609 14.1076 7.82609 14.3477C7.82609 14.5878 8.02055 14.7825 8.26087 14.7825H11.7391C11.9794 14.7825 12.1739 14.5878 12.1739 14.3477C12.1739 14.1076 11.9794 13.9129 11.7391 13.9129Z" fill="white"/>
<ellipse cx="10" cy="6.52166" rx="0.869565" ry="0.869565" fill="white"/>
<path d="M2.8 11.5999H0.4C0.1788 11.5999 0 11.3317 0 10.9999C0 10.6681 0.1788 10.3999 0.4 10.3999H2.8C3.0212 10.3999 3.2 10.6681 3.2 10.9999C3.2 11.3317 3.0212 11.5999 2.8 11.5999Z" fill="#444444"/>
<path d="M5.14718 5.99995C5.0313 5.99995 4.91497 5.95562 4.8267 5.86741L2.93235 3.9721C2.75581 3.79478 2.75581 3.5089 2.9328 3.33204C3.10979 3.15607 3.39632 3.15562 3.5733 3.33249L5.46766 5.2278C5.64419 5.40512 5.64419 5.691 5.46721 5.86787C5.37849 5.95607 5.26261 5.99995 5.14718 5.99995Z" fill="#444444"/>
<path d="M14.8528 5.99995C14.7369 5.99995 14.6211 5.95562 14.5328 5.86787C14.3558 5.691 14.3558 5.40512 14.5323 5.2278L16.4267 3.33249C16.6037 3.15562 16.8902 3.15607 17.0672 3.33204C17.2442 3.5089 17.2442 3.79478 17.0677 3.9721L15.1733 5.86741C15.085 5.95607 14.9687 5.99995 14.8528 5.99995Z" fill="#444444"/>
<path d="M3.25253 18.8C3.13673 18.8 3.02047 18.7556 2.93226 18.6673C2.75584 18.4898 2.75584 18.2037 2.93271 18.0267L4.82765 16.1322C5.00453 15.9561 5.29087 15.9556 5.46774 16.1327C5.64416 16.3102 5.64416 16.5963 5.46729 16.7734L3.57235 18.6678C3.48414 18.7556 3.36834 18.8 3.25253 18.8Z" fill="#444444"/>
<path d="M16.7475 18.8C16.6317 18.8 16.5159 18.7556 16.4277 18.6678L14.5327 16.7734C14.3558 16.5963 14.3558 16.3102 14.5323 16.1327C14.7091 15.9556 14.9955 15.9561 15.1724 16.1322L17.0673 18.0267C17.2442 18.2037 17.2442 18.4898 17.0677 18.6673C16.9795 18.7556 16.8633 18.8 16.7475 18.8Z" fill="#444444"/>
<path d="M19.6 11.5999H17.2C16.9788 11.5999 16.8 11.3317 16.8 10.9999C16.8 10.6681 16.9788 10.3999 17.2 10.3999H19.6C19.8212 10.3999 20 10.6681 20 10.9999C20 11.3317 19.8212 11.5999 19.6 11.5999Z" fill="#444444"/>
<path d="M13.5255 3.67248C13.456 3.62539 13.3751 3.6001 13.2917 3.6001C13.2913 3.6001 13.2913 3.6001 13.2908 3.6001L6.69139 3.61056C6.60838 3.61056 6.52664 3.63629 6.4576 3.68338C4.20189 5.22915 2.8 8.1393 2.8 11.2792C2.8 16.0879 6.02984 20.0001 10 20.0001C13.9702 20.0001 17.2 16.0879 17.2 11.2792C17.2 8.12971 15.7922 5.2152 13.5255 3.67248Z" fill="#E86C60"/>
<path d="M15.072 0.125676C14.9014 -0.0418921 14.6256 -0.0418921 14.455 0.125676L12.8431 1.70879C12.1677 1.17609 11.3163 0.857235 10.4 0.857235C9.48366 0.857235 8.63233 1.17609 7.95685 1.70879L6.34496 0.125676C6.17435 -0.0418921 5.89857 -0.0418921 5.72796 0.125676C5.55734 0.293245 5.55734 0.564097 5.72796 0.731665L7.33767 2.31264C6.90437 2.84534 6.60939 3.49419 6.51252 4.20946C6.50336 4.27632 6.51078 4.34489 6.5339 4.40917C6.65827 4.75545 8.74098 6 10.4 6C12.059 6 14.1417 4.75545 14.2661 4.40917C14.2892 4.34532 14.2962 4.27632 14.2875 4.20946C14.1902 3.49419 13.8956 2.84534 13.4623 2.31264L15.072 0.731665C15.2427 0.564097 15.2427 0.293245 15.072 0.125676Z" fill="#444444"/>
<path d="M10.2 20.0001C10.4028 20.0001 10.6002 19.9844 10.8 19.9747V6.02363C10.8 5.78942 10.5318 5.6001 10.2 5.6001C9.8682 5.6001 9.6 5.78942 9.6 6.02363V19.9747C9.7998 19.9844 9.9972 20.0001 10.2 20.0001Z" fill="#444444"/>
<ellipse cx="6.2" cy="9.4" rx="1.4" ry="1.4" fill="#444444"/>
<circle cx="7" cy="14.6001" r="1" fill="#444444"/>
<ellipse cx="13.8" cy="9.4" rx="1.4" ry="1.4" fill="#444444"/>
<ellipse cx="13" cy="14.6001" rx="1" ry="1" fill="#444444"/>
</svg>
