<svg width="18" height="18" viewBox="0 0 18 18" fill="none" xmlns="http://www.w3.org/2000/svg">
<path d="M17.6143 0.385714C17.1 -0.128571 16.3286 -0.128571 15.8143 0.385714L9 7.2L2.18571 0.385714C1.67143 -0.128571 0.9 -0.128571 0.385714 0.385714C-0.128571 0.9 -0.128571 1.67143 0.385714 2.18571L7.2 9L0.385714 15.8143C-0.128571 16.3286 -0.128571 17.1 0.385714 17.6143C0.642857 17.8714 0.9 18 1.28571 18C1.67143 18 1.92857 17.8714 2.18571 17.6143L9 10.8L15.8143 17.6143C16.0714 17.8714 16.4571 18 16.7143 18C16.9714 18 17.3571 17.8714 17.6143 17.6143C18.1286 17.1 18.1286 16.3286 17.6143 15.8143L10.8 9L17.6143 2.18571C18.1286 1.67143 18.1286 0.9 17.6143 0.385714Z" fill="#9BA3AE"/>
</svg>
