<svg width="20" height="20" viewBox="0 0 20 20" fill="none" xmlns="http://www.w3.org/2000/svg">
<path d="M11.7391 13.9131H10.4348V9.13046C10.4348 8.89035 10.2403 8.69568 10 8.69568H8.26087C8.02055 8.69568 7.82609 8.89035 7.82609 9.13046C7.82609 9.37057 8.02055 9.56524 8.26087 9.56524H9.56522V13.9131H8.26087C8.02055 13.9131 7.82609 14.1077 7.82609 14.3479C7.82609 14.588 8.02055 14.7826 8.26087 14.7826H11.7391C11.9794 14.7826 12.1739 14.588 12.1739 14.3479C12.1739 14.1077 11.9794 13.9131 11.7391 13.9131Z" fill="white"/>
<ellipse cx="10" cy="6.52179" rx="0.869565" ry="0.869565" fill="white"/>
<path d="M20 11.9467C20 8.88834 16.7702 6.40002 12.8 6.40002C8.82983 6.40002 5.6 8.88834 5.6 11.9467C5.6 15.005 8.82983 17.4934 12.8 17.4934C13.2739 17.4934 13.7364 17.4558 14.1849 17.388L17.693 19.1548C17.7528 19.1851 17.8176 19.2 17.8824 19.2C17.9599 19.2 18.0369 19.1787 18.1051 19.1365C18.2296 19.0584 18.3059 18.9214 18.3059 18.7734V15.5136C19.3613 14.5481 20 13.3043 20 11.9467Z" fill="#ECEFFD"/>
<path d="M9.2 0.400024C4.12686 0.400024 0 3.61097 0 7.55792C0 9.07497 0.605009 10.5213 1.75238 11.7516V15.979C1.75238 16.1251 1.83124 16.2602 1.96004 16.3373C2.03057 16.379 2.1103 16.4 2.19048 16.4C2.2575 16.4 2.32453 16.3853 2.3863 16.3558L6.47373 14.3916C7.36526 14.6068 8.28131 14.7158 9.2 14.7158C14.2731 14.7158 18.4 11.5049 18.4 7.55792C18.4 3.61097 14.2731 0.400024 9.2 0.400024Z" fill="#4F6EF7"/>
</svg>
