<svg width="36" height="36" viewBox="0 0 36 36" fill="none" xmlns="http://www.w3.org/2000/svg">
<g id="heart-face">
<path id="Shape" d="M18 36C8.05887 36 0 27.9411 0 18C0 8.05887 8.05887 0 18 0C27.9411 0 36 8.05887 36 18C35.9887 27.9365 27.9365 35.9887 18 36Z" fill="#FFD764"/>
<path id="Shape_2" d="M27.4909 24.5454C27.7037 23.7445 27.8137 22.9196 27.8181 22.0909C27.8181 21.639 27.4518 21.2727 26.9999 21.2727H8.99994C8.54808 21.2727 8.18176 21.639 8.18176 22.0909C8.18489 22.9195 8.29349 23.7443 8.50494 24.5454H27.4909Z" fill="white"/>
<path id="Shape_3" d="M8.50903 24.5454C9.62836 28.8715 13.5314 31.8932 17.9999 31.8932C22.4684 31.8932 26.3715 28.8715 27.4909 24.5454H8.50903Z" fill="#AE453E"/>
<path id="Shape_4" d="M13.1024 30.5878C16.1298 32.3498 19.8703 32.3498 22.8977 30.5878C21.8642 28.8691 20.0055 27.818 18.0001 27.818C15.9946 27.818 14.1359 28.8691 13.1024 30.5878Z" fill="#E86C60"/>
<path id="Shape_5" d="M11.6681 8.27433C10.741 8.52357 9.99785 9.21619 9.684 10.1234C8.74372 9.28189 7.36343 9.15502 6.2855 9.81104C5.20757 10.4671 4.68609 11.7513 5.00155 12.9731C5.72728 15.7435 11.889 18.5728 11.889 18.5728C11.889 18.5728 15.8842 13.091 15.1617 10.3198C14.7571 8.79379 13.1969 7.88031 11.6681 8.27433Z" fill="#FA645A"/>
<path id="Shape_6" d="M20.8382 10.3222C20.1158 13.0934 24.111 18.5752 24.111 18.5752C24.111 18.5752 30.2727 15.7434 30.9984 12.9731C31.3139 11.7513 30.7924 10.467 29.7145 9.81098C28.6365 9.15495 27.2562 9.28183 26.316 10.1234C25.9066 8.92981 24.7643 8.14485 23.5033 8.19062C22.2424 8.23639 21.16 9.1021 20.8382 10.3222Z" fill="#FA645A"/>
</g>
</svg>
