<svg width="24" height="24" viewBox="0 0 24 24" fill="none" xmlns="http://www.w3.org/2000/svg">
<path fill-rule="evenodd" clip-rule="evenodd" d="M12 0C5.383 0 0 5.383 0 12C0 18.617 5.383 24 12 24C18.617 24 24 18.617 24 12C24 5.383 18.617 0 12 0ZM11.5 19C10.672 19 10 18.328 10 17.5C10 16.672 10.672 16 11.5 16C12.328 16 13 16.672 13 17.5C13 18.328 12.328 19 11.5 19ZM14.049 11.796C14.915 11.178 15.502 10.622 15.811 10.127C16.522 8.989 16.514 7.032 15.148 5.919C13.287 4.404 9.883 4.951 7.726 6.16L8.737 8.19C9.924 7.584 10.981 7.281 11.908 7.281C12.817 7.281 13.595 7.605 13.595 8.514C13.595 9.47947 12.8163 10.0358 12.0113 10.6109L12 10.619C11.326 11.113 10.862 11.58 10.609 12.019C10.2279 12.6782 10.2284 13.2244 10.229 13.9178C10.229 13.945 10.229 13.9724 10.229 14H12.686C12.686 13.9754 12.686 13.9513 12.6859 13.9277C12.685 13.0494 12.6847 12.8048 14.049 11.796Z" fill="#2240C4"/>
</svg>
