<svg width="20" height="18" viewBox="0 0 20 18" fill="none" xmlns="http://www.w3.org/2000/svg">
<path d="M10.9998 12.0016C10.9981 11.0394 11.2746 10.0973 11.7958 9.28862C12.3171 8.47992 13.0609 7.83907 13.9378 7.44319C14.8147 7.04731 15.7874 6.91327 16.7387 7.0572C17.69 7.20112 18.5794 7.61689 19.3 8.25445C19.9665 7.02416 20.1475 5.58867 19.8072 4.23144C19.4669 2.87422 18.6301 1.69391 17.462 0.923586C16.2939 0.153265 14.8794 -0.151071 13.4979 0.0706714C12.1163 0.292414 10.8681 1.02412 9.99974 2.1213C9.50723 1.50346 8.89016 0.996236 8.18867 0.632635C7.48719 0.269033 6.717 0.0571977 5.92824 0.0109127C5.13948 -0.0353722 4.34981 0.0849299 3.61061 0.363992C2.87141 0.643053 2.19925 1.07462 1.63786 1.63062C1.11885 2.14578 0.706925 2.75856 0.425823 3.43365C0.144721 4.10873 0 4.83278 0 5.56405C0 6.29532 0.144721 7.01937 0.425823 7.69446C0.706925 8.36954 1.11885 8.98232 1.63786 9.49749L9.7714 17.5734C9.83203 17.6335 9.91399 17.6673 9.99941 17.6673C10.0848 17.6673 10.1668 17.6335 10.2274 17.5734L12.3781 15.4383C11.4938 14.5126 11.0001 13.2818 10.9998 12.0016Z" fill="#FF647C"/>
<path d="M15.9999 8.00134C15.2088 8.00134 14.4354 8.23595 13.7776 8.67548C13.1198 9.11502 12.6071 9.73975 12.3043 10.4707C12.0016 11.2016 11.9223 12.0059 12.0767 12.7818C12.231 13.5578 12.612 14.2705 13.1714 14.8299C13.7309 15.3894 14.4436 15.7703 15.2196 15.9247C15.9955 16.079 16.7998 15.9998 17.5307 15.6971C18.2616 15.3943 18.8864 14.8816 19.3259 14.2238C19.7654 13.566 20 12.7926 20 12.0014C20 10.9406 19.5786 9.92311 18.8284 9.17295C18.0783 8.42278 17.0608 8.00134 15.9999 8.00134ZM17.6666 12.3348H16.3333V13.6682C16.3333 13.7566 16.2982 13.8414 16.2356 13.9039C16.1731 13.9664 16.0883 14.0015 15.9999 14.0015C15.9115 14.0015 15.8267 13.9664 15.7642 13.9039C15.7017 13.8414 15.6666 13.7566 15.6666 13.6682V12.3348H14.3332C14.2448 12.3348 14.16 12.2997 14.0975 12.2372C14.035 12.1746 13.9999 12.0899 13.9999 12.0014C13.9999 11.913 14.035 11.8283 14.0975 11.7657C14.16 11.7032 14.2448 11.6681 14.3332 11.6681H15.6666V10.3347C15.6666 10.2463 15.7017 10.1615 15.7642 10.099C15.8267 10.0365 15.9115 10.0014 15.9999 10.0014C16.0883 10.0014 16.1731 10.0365 16.2356 10.099C16.2982 10.1615 16.3333 10.2463 16.3333 10.3347V11.6681H17.6666C17.7551 11.6681 17.8398 11.7032 17.9024 11.7657C17.9649 11.8283 18 11.913 18 12.0014C18 12.0899 17.9649 12.1746 17.9024 12.2372C17.8398 12.2997 17.7551 12.3348 17.6666 12.3348Z" fill="#2FCFA4"/>
</svg>
