<svg width="36" height="36" viewBox="0 0 36 36" fill="none" xmlns="http://www.w3.org/2000/svg">
<path d="M18 36C8.05887 36 0 27.9411 0 18C0 8.05887 8.05887 0 18 0C27.9411 0 36 8.05887 36 18C35.9887 27.9365 27.9365 35.9887 18 36Z" fill="#FFD764"/>
<path d="M9.81814 18.8182C8.82537 18.8182 7.93036 18.2202 7.55044 17.303C7.17052 16.3858 7.38052 15.33 8.08252 14.628C8.78451 13.9261 9.84026 13.7161 10.7575 14.096C11.6747 14.4759 12.2727 15.3709 12.2727 16.3637C12.2727 17.7193 11.1738 18.8182 9.81814 18.8182Z" fill="#444444"/>
<path d="M26.1818 18.8182C25.189 18.8182 24.294 18.2202 23.9141 17.303C23.5342 16.3858 23.7442 15.33 24.4462 14.628C25.1482 13.9261 26.2039 13.7161 27.1211 14.096C28.0383 14.4759 28.6363 15.3709 28.6363 16.3637C28.6363 17.7193 27.5374 18.8182 26.1818 18.8182Z" fill="#444444"/>
<path d="M23.7162 26.9261L12.7622 30.2751C12.3301 30.4072 11.8727 30.164 11.7406 29.7319C11.6084 29.2998 11.8516 28.8424 12.2838 28.7102L23.2378 25.3613C23.6699 25.2292 24.1273 25.4724 24.2595 25.9045C24.3916 26.3366 24.1484 26.794 23.7162 26.9261Z" fill="#444444"/>
</svg>
