<svg width="21" height="21" viewBox="0 0 21 21" fill="none" xmlns="http://www.w3.org/2000/svg">
<path d="M19.8289 6.62033L14.1772 5.79817L11.6544 0.677965C11.5345 0.471724 11.3626 0.300562 11.1558 0.181589C10.949 0.062616 10.7147 0 10.4761 0C10.2375 0 10.0032 0.062616 9.79641 0.181589C9.58964 0.300562 9.41772 0.471724 9.29784 0.677965L6.77505 5.79948L1.12332 6.62033C0.881298 6.65505 0.653833 6.75684 0.466689 6.91418C0.279544 7.07152 0.1402 7.27812 0.0644382 7.51058C-0.0113236 7.74304 -0.0204747 7.99208 0.0380213 8.22948C0.0965172 8.46687 0.220323 8.68314 0.395414 8.8538L4.48398 12.8403L3.51912 18.4697C3.47787 18.7105 3.50479 18.958 3.59686 19.1842C3.68892 19.4105 3.84245 19.6065 4.04008 19.75C4.23771 19.8936 4.47156 19.979 4.7152 19.9966C4.95883 20.0142 5.20253 19.9633 5.41874 19.8496L10.4761 17.1907L15.5308 19.847C15.7471 19.9607 15.9908 20.0116 16.2344 19.994C16.478 19.9764 16.7119 19.891 16.9095 19.7474C17.1071 19.6039 17.2607 19.4079 17.3527 19.1816C17.4448 18.9554 17.4717 18.7079 17.4305 18.4671L16.4656 12.8376L20.5568 8.8538C20.7314 8.68326 20.855 8.4673 20.9134 8.23029C20.9718 7.99327 20.9627 7.74465 20.8873 7.5125C20.8119 7.28034 20.673 7.0739 20.4865 6.91648C20.2999 6.75906 20.073 6.65694 19.8315 6.62164L19.8289 6.62033Z" fill="#FDB455"/>
</svg>
