<svg width="361" height="381" viewBox="0 0 361 381" fill="none" xmlns="http://www.w3.org/2000/svg">
  <path transform="translate(-75, -70) scale(0.9)" opacity="0.15" fill-rule="evenodd" clip-rule="evenodd" d="M218.649 130.369C228.033 159.158 179.835 172.528 164.65 177.735L148.207 126.494C163.093 121.474 208.859 100.28 218.649 130.369V130.369ZM256.779 205.822C267.152 237.493 209.305 253.787 191.412 259.906L173.053 203.634C191.238 197.332 245.83 172.563 256.779 205.822ZM185.971 80.7008L172.364 38.5929L145.76 47.8217L159.142 88.9037C152.078 91.3702 145.014 93.8367 138.127 96.5871L124.741 55.4988L97.8448 64.9101L111.456 107.024C105.741 109.034 100.21 111.323 94.4944 113.333L57.8296 126.129L66.6306 153.334C66.6306 153.334 86.2924 146.102 85.8789 146.755C96.7077 143.102 102.148 147.879 104.655 152.541L120.237 200.425C120.999 200.343 121.889 199.787 123.119 199.791C122.062 200.065 121.471 200.434 120.415 200.709L142.48 267.508C143.055 271.044 142.555 276.804 135.203 279.46C135.669 279.555 115.659 286.216 115.659 286.216L120.38 318.699L154.932 306.452C161.411 304.35 167.707 301.969 173.888 300.055L187.672 342.446L214.277 333.218L200.67 291.11C208.199 288.738 215.263 286.272 222.035 283.988L235.469 325.818L262.073 316.589L248.292 274.204C292.273 256.065 320.107 234.382 310.674 192.394C303.253 158.87 282.844 149.822 255.155 152.719C268.672 139.597 273.922 123.087 264.621 101.642C251.653 72.3634 221.39 71.8069 185.971 80.7008Z" fill="white"/>
</svg>
