<svg width="361" height="381" viewBox="0 0 361 381" fill="none" xmlns="http://www.w3.org/2000/svg">
  <path
    d="M110.574859,29.9541109 C122.379944,29.9541109 132.779661,32.332696 141.492938,36.792543 C150.206215,41.2523901 157.233051,47.1988528 163.135593,54.9292543 C168.757062,62.6596558 172.973164,71.5793499 175.783898,81.6883365 C178.594633,91.7973231 180,102.798279 180,114.691205 C180,132.827916 176.908192,149.775335 170.443503,166.128107 C163.978814,182.183556 155.54661,196.455067 144.584746,208.347992 C133.622881,220.240918 120.693503,229.755258 105.79661,236.59369 C90.8997175,243.432122 74.8785311,247 57.4519774,247 C55.2033898,247 51.2683616,247 45.6468927,246.702677 C40.0254237,246.702677 33.5607345,246.108031 26.5338983,244.918738 C19.2259887,243.729446 11.6370056,242.24283 3.76694915,240.161568 C-4.38418079,238.080306 -11.9731638,235.107075 -19,231.539197 L45.3658192,-54.4856597 L102.985876,-64 L80.2189266,37.3871893 C85.2782486,35.0086042 89.7754237,33.2246654 94.8347458,32.0353728 C99.6129944,30.5487572 104.95339,29.9541109 110.574859,29.9541109 L110.574859,29.9541109 Z M62.8913314,197.179588 C71.5406598,197.179588 79.631967,195.092753 87.1652531,190.322844 C94.6985391,185.851055 101.394793,179.88867 106.975005,172.435688 C112.555217,164.982706 117.019387,156.337247 120.088503,147.095549 C123.15762,137.555732 124.831683,127.717796 124.831683,117.581741 C124.831683,105.060731 122.878609,95.2227953 118.972461,88.0679326 C115.066312,80.91307 106.975005,77.633758 96.3726026,77.633758 C93.0244755,77.633758 89.3973378,77.9318772 83.8171259,79.4224736 C78.2369141,80.6149507 73.493734,83.5961435 69.0295645,87.7698134 L45.0346535,195.987111 C52.2889289,197.179588 54.5210136,197.477707 56.4740878,197.477707 C57.8691408,197.179588 60.1012255,197.179588 62.8913314,197.179588 L62.8913314,197.179588 Z"
    id="b_2_"
    fill="#FFFFFF"
    opacity="0.08"></path>
</svg>
