<svg width="220" height="279" viewBox="0 0 220 279" fill="none" xmlns="http://www.w3.org/2000/svg">
  <path transform="translate(-2.69, -25) scale(0.9)" opacity="0.15" fill-rule="evenodd" clip-rule="evenodd" d="M168.704 110.942C161.982 138.218 117.802 125.035 103.398 121.666L115.566 73.2452C129.646 76.615 175.744 82.4432 168.704 110.942V110.942ZM161.657 189.09C154.3 219.121 101.155 203.494 84.1898 199.51L97.3174 146.187C114.6 150.171 169.339 157.525 161.657 189.09ZM218.64 110.942C222.802 81.5178 199.432 66.1948 167.42 55.7746L177.345 15.9376L152.057 10.1164L142.456 49.035C135.734 47.502 129.011 45.969 122.289 44.7468L131.889 5.82122L106.283 0L96.3581 39.8439C90.9123 38.6148 85.4737 37.6964 80.028 36.4672L45.1388 28.5053L38.7337 54.2485C38.7337 54.2485 57.6245 58.226 56.9825 58.5368C67.2249 60.9882 69.1436 67.424 68.8262 72.3268L57.6245 117.681C58.2592 117.992 59.2257 117.992 60.1851 118.6C59.2257 118.296 58.5838 118.296 57.6245 117.992L42.2536 181.425C40.9769 184.491 37.7743 188.779 30.7345 187.253C31.0519 187.557 12.1683 182.958 12.1683 182.958L0 210.848L32.9705 218.203C39.0583 219.736 45.1388 220.958 50.902 222.491L40.9769 262.639L66.2656 268.46L76.1906 228.623C83.2305 230.46 89.953 231.993 96.3581 233.526L86.4331 273.059L111.722 278.88L121.647 238.739C164.86 246.093 197.188 242.717 210.316 205.027C220.883 174.989 209.357 157.829 186.311 146.49C203.276 142.81 215.437 132.397 218.64 110.942V110.942Z" fill="white"/>
</svg>
