<svg width="185" height="304" viewBox="0 0 185 304" fill="none" xmlns="http://www.w3.org/2000/svg">
  <path transform="translate(-10, -35) scale(0.85)" opacity="0.15" fill-rule="evenodd" clip-rule="evenodd" d="M89.3118 2.9408C88.6432 4.55782 68.4399 38.8402 44.4156 79.1241C20.3912 119.407 0.534956 152.895 0.289288 153.541C-0.0297513 154.382 13.022 162.587 46.0545 182.311L92.2673 209.905L138.467 182.296C171.658 162.461 184.54 154.353 184.218 153.504C182.549 149.107 92.71 0 91.7298 0C91.0686 0 89.9804 1.32294 89.3118 2.9408M0.398229 173.388C2.17891 176.464 91.8849 304.012 92.26 304C92.8799 303.981 184.595 173.01 184.24 172.651C183.906 172.313 98.1783 223.336 94.6021 226.001L92.41 227.636L48.024 201.154C23.6114 186.589 2.7362 174.084 1.63481 173.367C-0.191209 172.178 -0.300853 172.18 0.398229 173.388" fill="white"/>
</svg>
