<svg width="263" height="263" viewBox="0 0 263 263" fill="none" xmlns="http://www.w3.org/2000/svg">
  <path transform="translate(-17, -17) scale(.9)" opacity="0.15" fill-rule="evenodd" clip-rule="evenodd" d="M81.3753 81.3753C86.3259 35.5824 125.621 0 171.878 0C222.158 0 263 40.8424 263 91.1218C263 137.379 227.418 176.674 181.625 181.625C176.829 227.418 137.379 263 91.1218 263C40.8424 263 0 222.158 0 171.878C0 125.621 35.5824 86.3259 81.3753 81.3753ZM182.242 160.737C212.719 156.251 237.163 131.807 241.649 101.33H182.242V160.737ZM21.3515 161.667L21.3743 161.512H80.7585V102.105C50.3328 106.584 25.9203 130.953 21.3743 161.512H21.3515V161.667ZM91.1238 242.423C126.242 242.423 155.791 216.742 160.896 182.242H21.3515C26.4567 216.742 56.0056 242.423 91.1238 242.423ZM161.665 101.33V161.511H101.33V101.33H161.665ZM102.105 80.7573H241.65C236.545 46.2579 206.996 20.5768 171.878 20.5768C136.76 20.5768 107.211 46.2579 102.105 80.7573Z" fill="white"/>
</svg>
