<svg width="32" height="32" viewBox="0 0 32 32" fill="none" xmlns="http://www.w3.org/2000/svg">
<circle cx="16" cy="16" r="16" fill="#2240C4"/>
<g clip-path="url(#clip0_427_20704)">
<path d="M17.5 19H14.5V22H17.5V19Z" fill="white"/>
<path d="M17.5 10H14.5V13H17.5V10Z" fill="white"/>
<path d="M22 19H19V22H22V19Z" fill="white"/>
<path d="M13 19H10V22H13V19Z" fill="white"/>
<path d="M12.25 16.75H15.25V18.25H16.75V16.75H19.75V18.25H21.25V16C21.25 15.55 20.95 15.25 20.5 15.25H16.75V13.75H15.25V15.25H11.5C11.05 15.25 10.75 15.55 10.75 16V18.25H12.25V16.75Z" fill="white"/>
</g>
<defs>
<clipPath id="clip0_427_20704">
<rect width="12" height="12" fill="white" transform="translate(10 10)"/>
</clipPath>
</defs>
</svg>
