<svg width="20" height="20" viewBox="0 0 20 20" fill="none" xmlns="http://www.w3.org/2000/svg">
<path d="M19.7336 3.90273L16.0973 0.266364C15.9268 0.0958642 15.6956 5.14886e-05 15.4545 0H4.54545C4.30437 5.14886e-05 4.07318 0.0958642 3.90273 0.266364L0.266364 3.90273C0.0958642 4.07318 5.14886e-05 4.30437 0 4.54545V17.2727C0 17.996 0.287337 18.6897 0.7988 19.2012C1.31026 19.7127 2.00396 20 2.72727 20H17.2727C17.996 20 18.6897 19.7127 19.2012 19.2012C19.7127 18.6897 20 17.996 20 17.2727V4.54545C19.9999 4.30437 19.9041 4.07318 19.7336 3.90273ZM10 16.3636L5.45455 10.9091H8.18182V7.27273H11.8182V10.9091H14.5455L10 16.3636ZM3.10364 3.63636L4.92182 1.81818H15.0782L16.8964 3.63636H3.10364Z" fill="#2240C4"/>
</svg>
