<svg width="205" height="207" viewBox="0 0 205 207" fill="none" xmlns="http://www.w3.org/2000/svg">
<path d="M47.7187 180.102C44.8601 180.102 40.8829 178.169 38.8798 175.804L5.22234 136.125C3.21927 133.764 2.27322 129.898 3.12463 127.533L17.4176 87.8538C18.269 85.4929 21.3004 83.5557 24.159 83.5557H72.1052C74.9597 83.5557 78.9372 85.4888 80.9444 87.8538L114.598 127.533C116.601 129.894 117.547 133.76 116.695 136.125L102.406 175.804C101.551 178.165 98.5196 180.102 95.6651 180.102H47.7187Z" fill="#335CFF" stroke="#111E4C" stroke-linecap="round" stroke-linejoin="round"/>
<path d="M114.598 127.533L80.9448 87.8538C78.9377 85.4929 74.9602 83.5557 72.1057 83.5557H24.1595C22.2963 83.5557 20.359 84.3783 19.0017 85.6081C18.3066 86.2333 17.7636 86.9037 17.4181 87.8538L13.9342 97.5278L11.6104 103.985H57.1546C60.0091 103.985 63.9865 105.919 65.9937 108.284L99.6469 147.963C101.65 150.323 102.596 154.19 101.745 156.555L93.2634 180.106H95.6656C98.5736 180.106 101.568 178.128 102.407 175.808L116.696 136.129C117.547 133.768 116.605 129.902 114.598 127.537V127.533Z" fill="#335CFF" stroke="#111E4C" stroke-linecap="round" stroke-linejoin="round"/>
<path d="M24.1632 83.5598C22.3 83.5598 20.3627 84.3824 19.0054 85.6122C18.3103 86.2374 17.7673 86.9079 17.4218 87.858L13.9381 97.532L11.6143 103.99H57.1585L72.1096 83.5639H24.1632V83.5598Z" fill="#111E4C" stroke="#111E4C" stroke-linecap="round" stroke-linejoin="round"/>
<path d="M62.481 114.856C56.2332 112.952 46.0738 112.94 39.7849 114.836C36.6301 115.786 35.0508 117.036 35.0508 118.287V171.292L38.8801 175.808C40.8832 178.169 44.8604 180.106 47.719 180.106H67.1451V118.291C67.1451 117.053 65.5903 115.811 62.4767 114.861L62.481 114.856Z" fill="#335CFF"/>
<path d="M41.862 114.313C41.1381 114.47 40.4388 114.638 39.789 114.836C36.6342 115.786 35.0547 117.036 35.0547 118.287V171.292L38.884 175.808C39.649 176.709 40.698 177.544 41.862 178.239V114.322V114.313Z" fill="#111E4C"/>
<path d="M35.0508 121.861C35.0508 120.623 36.6056 119.381 39.7192 118.431C40.3896 118.225 41.1094 118.044 41.8621 117.884" stroke="#335CFF" stroke-linecap="round" stroke-linejoin="round"/>
<path d="M35.0508 125.435C35.0508 124.197 36.6056 122.955 39.7192 122.005C40.3896 121.799 41.1094 121.618 41.8621 121.458" stroke="#335CFF" stroke-linecap="round" stroke-linejoin="round"/>
<path d="M35.0508 129.005C35.0508 127.767 36.6056 126.525 39.7192 125.575C40.3896 125.369 41.1094 125.188 41.8621 125.028" stroke="#335CFF" stroke-linecap="round" stroke-linejoin="round"/>
<path d="M35.0508 132.58C35.0508 131.342 36.6056 130.099 39.7192 129.149C40.3896 128.944 41.1094 128.763 41.8621 128.602" stroke="#335CFF" stroke-linecap="round" stroke-linejoin="round"/>
<path d="M35.0508 136.154C35.0508 134.916 36.6056 133.674 39.7192 132.724C40.3896 132.518 41.1094 132.337 41.8621 132.177" stroke="#335CFF" stroke-linecap="round" stroke-linejoin="round"/>
<path d="M35.0508 139.728C35.0508 138.49 36.6056 137.248 39.7192 136.298C40.3896 136.092 41.1094 135.911 41.8621 135.751" stroke="#335CFF" stroke-linecap="round" stroke-linejoin="round"/>
<path d="M35.0508 143.302C35.0508 142.064 36.6056 140.822 39.7192 139.872C40.3896 139.666 41.1094 139.485 41.8621 139.325" stroke="#335CFF" stroke-linecap="round" stroke-linejoin="round"/>
<path d="M35.0508 146.873C35.0508 145.635 36.6056 144.392 39.7192 143.442C40.3896 143.237 41.1094 143.056 41.8621 142.895" stroke="#335CFF" stroke-linecap="round" stroke-linejoin="round"/>
<path d="M35.0508 150.447C35.0508 149.209 36.6056 147.967 39.7192 147.017C40.3896 146.811 41.1094 146.63 41.8621 146.469" stroke="#335CFF" stroke-linecap="round" stroke-linejoin="round"/>
<path d="M35.0508 154.021C35.0508 152.783 36.6056 151.541 39.7192 150.591C40.3896 150.385 41.1094 150.204 41.8621 150.044" stroke="#335CFF" stroke-linecap="round" stroke-linejoin="round"/>
<path d="M35.0508 157.595C35.0508 156.357 36.6056 155.115 39.7192 154.165C40.3896 153.959 41.1094 153.778 41.8621 153.618" stroke="#335CFF" stroke-linecap="round" stroke-linejoin="round"/>
<path d="M35.0508 161.166C35.0508 159.928 36.6056 158.685 39.7192 157.735C40.3896 157.53 41.1094 157.349 41.8621 157.188" stroke="#335CFF" stroke-linecap="round" stroke-linejoin="round"/>
<path d="M35.0508 164.74C35.0508 163.502 36.6056 162.26 39.7192 161.309C40.3896 161.104 41.1094 160.923 41.8621 160.762" stroke="#335CFF" stroke-linecap="round" stroke-linejoin="round"/>
<path d="M35.0508 168.314C35.0508 167.076 36.6056 165.834 39.7192 164.884C40.3896 164.678 41.1094 164.497 41.8621 164.337" stroke="#335CFF" stroke-linecap="round" stroke-linejoin="round"/>
<path d="M65.3721 116.062V180.098H67.1491V118.287C67.1491 117.522 66.5566 116.757 65.3721 116.062Z" fill="white"/>
<path d="M63.1753 115.083C62.9532 115.004 62.7229 114.93 62.4802 114.856C60.2098 114.165 57.417 113.725 54.4844 113.532C54.834 158.768 62.871 173.127 63.1713 115.083H63.1753Z" fill="white"/>
<path d="M62.481 114.856C56.2332 112.952 46.0738 112.94 39.7849 114.836C36.6301 115.786 35.0508 117.036 35.0508 118.287V171.292L38.8801 175.808C40.8832 178.169 44.8604 180.106 47.719 180.106H67.1451V118.291C67.1451 117.053 65.5903 115.811 62.4767 114.861L62.481 114.856Z" stroke="#111E4C" stroke-linecap="round" stroke-linejoin="round"/>
<path d="M62.4808 118.431C58.0305 117.073 51.5934 116.679 45.9873 117.246" stroke="white" stroke-linecap="round" stroke-linejoin="round"/>
<path d="M62.4815 125.579C56.8836 123.873 48.1391 123.687 41.8584 125.028" stroke="white" stroke-linecap="round" stroke-linejoin="round"/>
<path d="M62.481 129.149C59.0137 128.092 54.3372 127.619 49.7881 127.73" stroke="white" stroke-linecap="round" stroke-linejoin="round"/>
<path d="M66.0557 134.386C65.2783 133.781 64.0856 133.213 62.4814 132.724" stroke="white" stroke-linecap="round" stroke-linejoin="round"/>
<path d="M66.1091 141.575C65.3317 140.954 64.1267 140.374 62.4814 139.872" stroke="white" stroke-linecap="round" stroke-linejoin="round"/>
<path d="M60.8815 143.015C57.4512 142.213 53.1982 141.892 49.1016 142.044" stroke="white" stroke-linecap="round" stroke-linejoin="round"/>
<path d="M62.48 150.591C60.1026 149.867 57.1618 149.415 54.0811 149.242" stroke="white" stroke-linecap="round" stroke-linejoin="round"/>
<path d="M46.978 142.212C40.7302 140.308 30.5708 140.296 24.2819 142.192C21.1272 143.142 19.5479 144.392 19.5479 145.643V153.009L38.8834 175.804C40.8865 178.165 44.8639 180.102 47.7225 180.102H51.6464V145.643C51.6464 144.405 50.0916 143.162 46.978 142.212Z" fill="#335CFF"/>
<path d="M26.5814 141.62C25.7711 141.789 24.998 141.974 24.2782 142.192C21.1235 143.142 19.5439 144.392 19.5439 145.643V153.009L26.5814 161.305V141.62Z" fill="#111E4C"/>
<path d="M46.9784 142.212C45.074 141.632 42.8077 141.229 40.3975 141.003C42.162 162.831 46.1106 167.454 47.6283 142.426C47.4185 142.356 47.2046 142.282 46.9784 142.217V142.212Z" fill="white"/>
<path d="M49.6797 143.311V180.102H51.6416V145.643C51.6416 144.841 50.9835 144.034 49.6797 143.311Z" fill="white"/>
<path d="M51.6418 149.213C51.6418 148.637 51.3087 148.061 50.6382 147.518C50.1981 147.16 49.614 146.815 48.886 146.49C48.3307 146.243 47.6932 146.009 46.9734 145.787C44.8223 145.133 42.2104 144.701 39.4505 144.495C36.9457 144.306 34.3176 144.306 31.8086 144.491" stroke="white" stroke-linecap="round" stroke-linejoin="round"/>
<path d="M51.6418 152.787C51.6418 152.211 51.3087 151.635 50.6382 151.093C50.1981 150.735 49.614 150.389 48.886 150.064C48.3307 149.817 47.6932 149.583 46.9734 149.361C44.8223 148.707 42.2104 148.275 39.4505 148.069C36.9457 147.88 34.3176 147.88 31.8086 148.065" stroke="white" stroke-linecap="round" stroke-linejoin="round"/>
<path d="M51.6434 156.361C51.6434 155.785 51.3103 155.21 50.6398 154.667C50.1997 154.309 49.6156 153.963 48.8876 153.638C48.3323 153.392 47.6948 153.157 46.975 152.935C44.8239 152.281 42.212 151.849 39.4521 151.644" stroke="white" stroke-linecap="round" stroke-linejoin="round"/>
<path d="M51.6425 163.506C51.6425 162.93 51.3094 162.354 50.6389 161.811C50.1988 161.453 49.6147 161.108 48.8866 160.783C48.3314 160.536 47.6939 160.302 46.9741 160.08C44.9134 159.45 42.4293 159.031 39.7969 158.813" stroke="white" stroke-linecap="round" stroke-linejoin="round"/>
<path d="M46.9784 163.65C45.1481 163.09 42.9803 162.696 40.677 162.465C38.604 162.255 36.4201 162.177 34.2607 162.235" stroke="white" stroke-linecap="round" stroke-linejoin="round"/>
<path d="M51.642 177.803C51.642 176.565 50.0872 175.323 46.9736 174.373" stroke="white" stroke-linecap="round" stroke-linejoin="round"/>
<path d="M26.5814 145.19C25.7711 145.359 24.998 145.548 24.2782 145.766C23.5502 145.984 22.9045 146.223 22.341 146.469C21.6047 146.794 21.0123 147.144 20.564 147.506C19.8812 148.057 19.5439 148.637 19.5439 149.217" stroke="#335CFF" stroke-linecap="round" stroke-linejoin="round"/>
<path d="M26.5814 148.764C25.7711 148.933 24.998 149.122 24.2782 149.34C23.5502 149.558 22.9045 149.797 22.341 150.044C21.6047 150.369 21.0123 150.718 20.564 151.08C19.8812 151.631 19.5439 152.211 19.5439 152.791" stroke="#335CFF" stroke-linecap="round" stroke-linejoin="round"/>
<path d="M26.5811 152.339C25.7708 152.508 24.9977 152.697 24.2779 152.915C23.8419 153.046 23.4388 153.182 23.0645 153.322C22.6326 153.486 22.2419 153.655 21.8882 153.828C21.4646 154.038 21.0985 154.256 20.79 154.478" stroke="#335CFF" stroke-linecap="round" stroke-linejoin="round"/>
<path d="M26.5818 155.909C25.7715 156.078 24.9984 156.267 24.2786 156.485C24.1182 156.534 23.9618 156.583 23.8137 156.633C23.6656 156.682 23.5013 156.736 23.3532 156.789C23.1969 156.847 23.0446 156.9 22.8965 156.958" stroke="#335CFF" stroke-linecap="round" stroke-linejoin="round"/>
<path d="M26.5817 159.483C26.1375 159.574 25.7057 159.672 25.2861 159.779" stroke="#335CFF" stroke-linecap="round" stroke-linejoin="round"/>
<path d="M46.978 142.212C40.7302 140.308 30.5708 140.296 24.2819 142.192C21.1272 143.142 19.5479 144.392 19.5479 145.643V153.009L38.8834 175.804C40.8865 178.165 44.8639 180.102 47.7225 180.102H51.6464V145.643C51.6464 144.405 50.0916 143.162 46.978 142.212Z" stroke="#111E4C" stroke-linecap="round" stroke-linejoin="round"/>
<path d="M88.1552 180.098V164.222C88.1552 162.983 86.6004 161.741 83.4868 160.791C77.239 158.887 67.0798 158.875 60.7909 160.771C57.6362 161.721 56.0566 162.971 56.0566 164.222V180.098H88.1552Z" fill="#335CFF"/>
<path d="M78.2383 159.726V180.098H84.2597V161.046C84.0129 160.96 83.7581 160.873 83.4907 160.791C81.9401 160.318 80.1508 159.964 78.2423 159.726H78.2383Z" fill="white"/>
<path d="M63.098 160.199C62.2877 160.368 61.5144 160.553 60.7946 160.771C57.6399 161.721 56.0605 162.971 56.0605 164.222V180.098H63.098V160.195V160.199Z" fill="#111E4C"/>
<path d="M88.1592 164.222C88.1592 163.419 87.5011 162.613 86.1973 161.889V180.098H88.1592V164.222Z" fill="white"/>
<path d="M88.1596 167.796C88.1596 167.22 87.8262 166.644 87.1558 166.101C86.7157 165.743 86.1317 165.398 85.4037 165.073C84.8485 164.826 84.211 164.592 83.4912 164.37C81.34 163.716 78.7282 163.284 75.9683 163.078C73.4635 162.889 70.8352 162.889 68.3262 163.074" stroke="white" stroke-linecap="round" stroke-linejoin="round"/>
<path d="M88.1596 171.37C88.1596 170.794 87.8262 170.218 87.1558 169.676C86.7157 169.318 86.1317 168.972 85.4037 168.647C84.8485 168.4 84.211 168.166 83.4912 167.944C81.34 167.29 78.7282 166.858 75.9683 166.652C73.4635 166.463 70.8352 166.463 68.3262 166.648" stroke="white" stroke-linecap="round" stroke-linejoin="round"/>
<path d="M88.159 174.94C88.159 174.365 87.8257 173.789 87.1553 173.246C86.7152 172.888 86.1312 172.542 85.4032 172.217C84.8479 171.971 84.2104 171.736 83.4906 171.514C81.3395 170.86 78.7277 170.428 75.9678 170.223" stroke="white" stroke-linecap="round" stroke-linejoin="round"/>
<path d="M63.098 163.773C62.2877 163.942 61.5144 164.131 60.7946 164.349C60.0666 164.567 59.4209 164.806 58.8574 165.053C58.1211 165.378 57.5289 165.727 57.0806 166.089C56.3978 166.64 56.0605 167.22 56.0605 167.8" stroke="#335CFF" stroke-linecap="round" stroke-linejoin="round"/>
<path d="M63.098 167.344C62.2877 167.512 61.5144 167.701 60.7946 167.919C60.0666 168.137 59.4209 168.376 58.8574 168.623C58.1211 168.948 57.5289 169.297 57.0806 169.659C56.3978 170.21 56.0605 170.79 56.0605 171.37" stroke="#335CFF" stroke-linecap="round" stroke-linejoin="round"/>
<path d="M63.0979 170.918C62.2876 171.087 61.5143 171.276 60.7945 171.494C60.3585 171.625 59.9554 171.761 59.5811 171.901C59.1492 172.066 58.7585 172.234 58.4048 172.407C57.9812 172.617 57.6151 172.835 57.3066 173.057" stroke="#335CFF" stroke-linecap="round" stroke-linejoin="round"/>
<path d="M63.0984 174.492C62.2881 174.661 61.5148 174.85 60.795 175.068C60.6346 175.117 60.4784 175.166 60.3303 175.216C60.1822 175.265 60.0177 175.319 59.8696 175.372C59.7133 175.43 59.5612 175.483 59.4131 175.541" stroke="#335CFF" stroke-linecap="round" stroke-linejoin="round"/>
<path d="M63.0983 178.066C62.6541 178.157 62.2223 178.256 61.8027 178.363" stroke="#335CFF" stroke-linecap="round" stroke-linejoin="round"/>
<path d="M88.1552 180.098V164.222C88.1552 162.983 86.6004 161.741 83.4868 160.791C77.239 158.887 67.0798 158.875 60.7909 160.771C57.6362 161.721 56.0566 162.971 56.0566 164.222V180.098H88.1552Z" stroke="#111E4C" stroke-linecap="round" stroke-linejoin="round"/>
<path d="M173.288 125.18L192.603 79.2657L148.971 31.5415L101.856 33.5487L87.1719 75.4528L136.397 122.893L173.288 125.18Z" fill="#111E4C"/>
<path d="M163.836 27.1032L152.978 41.9391C152.069 40.8656 150.263 39.9936 148.972 39.9936L159.83 25.1577C161.126 25.1577 162.927 26.0338 163.836 27.1032Z" fill="#111E4C" stroke="#111E4C" stroke-linecap="round" stroke-linejoin="round"/>
<path d="M197.489 66.7781L186.631 81.6141L152.978 41.9392L163.836 27.1033L197.489 66.7781Z" fill="#111E4C" stroke="#111E4C" stroke-linecap="round" stroke-linejoin="round"/>
<path d="M198.44 70.6734L187.581 85.5093C187.964 84.4399 187.536 82.6836 186.631 81.6142L197.489 66.7783C198.394 67.8477 198.822 69.604 198.44 70.6734Z" fill="#111E4C" stroke="#111E4C" stroke-linecap="round" stroke-linejoin="round"/>
<path d="M159.83 25.1577L148.971 39.9936H101.029L111.888 25.1577H159.83Z" fill="#111E4C" stroke="#111E4C" stroke-linecap="round" stroke-linejoin="round"/>
<path d="M98.2812 41.3715L109.14 26.5356C109.724 25.7377 110.834 25.1577 111.887 25.1577L101.029 39.9936C99.9716 39.9936 98.8612 40.5777 98.2812 41.3715Z" fill="#111E4C" stroke="#111E4C" stroke-linecap="round" stroke-linejoin="round"/>
<path d="M184.146 110.344L173.287 125.18L187.58 85.5093L198.439 70.6733L184.146 110.344Z" fill="#111E4C" stroke="#111E4C" stroke-linecap="round" stroke-linejoin="round"/>
<path d="M201.175 64.4298L167.521 24.755C165.518 22.3941 161.541 20.4568 158.686 20.4568H110.74C107.886 20.4568 104.854 22.3899 104.003 24.755L93.5557 53.7564L98.4092 56.0515L108.836 27.1077C109.222 26.0341 110.6 25.1622 111.892 25.1622H159.834C161.13 25.1622 162.931 26.0382 163.84 27.1077L197.489 66.7825C198.394 67.8519 198.822 69.6082 198.439 70.6776L188.371 98.6302L193.224 100.925L203.272 73.0262C204.124 70.6612 203.178 66.7949 201.175 64.434V64.4298Z" fill="white"/>
<path d="M193.224 100.921L203.272 73.0221C204.124 70.657 203.178 66.7908 201.175 64.4298L167.521 24.755C165.518 22.3941 161.541 20.4568 158.686 20.4568H110.74C107.886 20.4568 104.854 22.3899 104.003 24.755L93.5557 53.7564" stroke="#111E4C" stroke-linecap="round" stroke-linejoin="round"/>
<path d="M98.4043 56.0514L108.831 27.1076C109.218 26.0341 110.596 25.1621 111.887 25.1621H159.829C161.125 25.1621 162.926 26.0382 163.835 27.1076L197.485 66.7825C198.389 67.8519 198.817 69.6082 198.435 70.6776L188.366 98.6301" stroke="#111E4C" stroke-linecap="round" stroke-linejoin="round"/>
<path d="M110.515 72.1253C115.306 70.3196 124.096 71.352 130.142 74.4245L169.159 94.2702C175.205 97.3467 176.225 101.304 171.434 103.109C166.638 104.915 157.852 103.882 151.806 100.81L112.789 80.9643C106.743 77.8877 105.723 73.9309 110.515 72.1253Z" fill="#335CFF" stroke="#111E4C" stroke-linecap="round" stroke-linejoin="round"/>
<path d="M113.677 56.6106C118.468 54.805 127.258 55.8374 133.304 58.9098L172.321 78.7555C178.367 81.8321 179.388 85.7889 174.596 87.5945C169.8 89.4002 161.014 88.3678 154.968 85.2953L115.951 65.4497C109.905 62.3731 108.885 58.4163 113.677 56.6106Z" fill="#335CFF" stroke="#111E4C" stroke-linecap="round" stroke-linejoin="round"/>
<path d="M177.114 79.8784C176.176 84.4892 163.985 84.5838 155.265 80.1499L152.028 78.5047C151.432 78.2003 150.831 78.4882 150.695 79.1463L150.444 80.372C150.309 81.0301 150.691 81.8157 151.288 82.1201L154.525 83.7653C163.339 88.2486 175.444 88.0429 176.373 83.4939L177.11 79.8743L177.114 79.8784Z" fill="#111E4C" stroke="#111E4C" stroke-linecap="round" stroke-linejoin="round"/>
<path d="M173.954 95.3931C173.017 100.004 160.825 100.098 152.106 95.6646L148.869 94.0193C148.272 93.715 147.672 94.0029 147.536 94.661L147.285 95.8867C147.149 96.5448 147.532 97.3304 148.128 97.6347L151.365 99.28C160.18 103.763 172.284 103.558 173.214 99.0085L173.95 95.389L173.954 95.3931Z" fill="#111E4C" stroke="#111E4C" stroke-linecap="round" stroke-linejoin="round"/>
<path d="M109.757 70.6775C109.375 72.5571 111.189 74.8481 115.001 76.7895L120.151 79.4095C120.747 79.7139 121.13 80.4995 120.994 81.1576L120.743 82.3833C120.607 83.0414 120.011 83.3293 119.411 83.0249L114.261 80.4049C110.448 78.4635 108.634 76.1725 109.017 74.2929L109.753 70.6733L109.757 70.6775Z" fill="#111E4C" stroke="#111E4C" stroke-linecap="round" stroke-linejoin="round"/>
<path d="M112.92 55.167C112.538 57.0466 114.352 59.3376 118.164 61.279L123.314 63.899C123.91 64.2034 124.293 64.989 124.157 65.6471L123.906 66.8728C123.771 67.5309 123.174 67.8188 122.574 67.5145L117.424 64.8944C113.611 62.953 111.797 60.662 112.18 58.7824L112.916 55.1628L112.92 55.167Z" fill="#111E4C" stroke="#111E4C" stroke-linecap="round" stroke-linejoin="round"/>
<path d="M116.835 41.1004C121.627 39.2947 130.416 40.3271 136.463 43.3996L175.479 63.2453C181.526 66.3218 182.546 70.2786 177.754 72.0843C172.962 73.8899 164.173 72.8575 158.126 69.7851L119.11 49.9394C113.063 46.8628 112.043 42.906 116.835 41.1004Z" fill="#335CFF" stroke="#111E4C" stroke-linecap="round" stroke-linejoin="round"/>
<path d="M155.701 81.6799C161.747 84.7565 170.532 85.7889 175.328 83.9791C177.097 83.3128 178.076 82.3503 178.298 81.2522L180.72 69.3571C180.494 70.4594 179.519 71.4177 177.751 72.0841C172.955 73.8897 164.169 72.8573 158.123 69.7849L119.106 49.9392C115.293 47.9978 113.48 45.7068 113.862 43.8271L111.439 55.7222C111.057 57.6019 112.871 59.8929 116.684 61.8343L121.833 64.4543C122.43 64.7587 122.812 65.5443 122.677 66.2024L122.426 67.4281C122.29 68.0862 121.693 68.3741 121.093 68.0697L115.943 65.4497C112.131 63.5083 110.317 61.2173 110.699 59.3376L108.277 71.2327C107.894 73.1124 109.708 75.4033 113.521 77.3447L118.67 79.9648C119.267 80.2691 119.649 81.0547 119.514 81.7128L119.263 82.9385C119.127 83.5966 118.531 83.8845 117.93 83.5802L112.78 80.9601C108.968 79.0187 107.154 76.7277 107.536 74.8481L105.114 86.7431C104.731 88.6228 106.545 90.9138 110.358 92.8552L149.374 112.701C155.421 115.777 164.206 116.81 169.002 115C170.771 114.334 171.75 113.371 171.972 112.273L174.394 100.378C174.168 101.48 173.194 102.439 171.425 103.105C166.629 104.911 157.843 103.878 151.797 100.806L146.648 98.1857C146.051 97.8814 145.669 97.0958 145.804 96.4377L146.055 95.212C146.191 94.5539 146.788 94.266 147.388 94.5703L152.537 97.1904C158.584 100.267 167.369 101.299 172.165 99.4896C173.934 98.8233 174.913 97.8608 175.135 96.7626L177.557 84.8676C177.331 85.9699 176.356 86.9282 174.588 87.5945C169.792 89.4002 161.006 88.3678 154.96 85.2953L149.81 82.6753C149.214 82.3709 148.832 81.5853 148.967 80.9272L149.218 79.7015C149.354 79.0434 149.95 78.7555 150.551 79.0599L155.701 81.6799Z" fill="#335CFF"/>
<path d="M174.399 100.386C174.173 101.489 173.198 102.447 171.429 103.113C170.718 103.381 169.912 103.586 169.044 103.73L166.621 115.625C167.489 115.481 168.291 115.276 169.007 115.008C170.775 114.342 171.754 113.379 171.976 112.281L174.399 100.386Z" fill="#111E4C"/>
<path d="M175.138 96.7669L177.561 84.8718C177.335 85.9741 176.36 86.9325 174.591 87.5988C173.88 87.8661 173.074 88.0718 172.206 88.2158L169.783 100.111C170.651 99.9669 171.453 99.7612 172.169 99.4939C173.938 98.8275 174.916 97.8651 175.138 96.7669Z" fill="#111E4C"/>
<path d="M172.942 84.6003C173.81 84.4564 174.612 84.2507 175.328 83.9834C177.097 83.3171 178.076 82.3546 178.298 81.2564L180.72 69.3613C180.494 70.4636 179.519 71.422 177.751 72.0883C177.039 72.3557 176.233 72.5613 175.365 72.7053L172.942 84.6003Z" fill="#111E4C"/>
<path d="M166.369 100.382C166.916 100.382 167.455 100.362 167.977 100.325L170.4 88.4297C169.878 88.4667 169.343 88.4832 168.792 88.4873L166.369 100.382Z" fill="#111E4C"/>
<path d="M169.528 84.8676C170.075 84.8676 170.614 84.847 171.137 84.81L173.251 74.4409C172.292 74.5067 171.499 75.206 171.309 76.1478L169.533 84.8676H169.528Z" fill="#111E4C"/>
<path d="M167.238 103.944C166.715 103.981 166.181 103.998 165.629 104.002L163.207 115.897C163.754 115.897 164.293 115.876 164.815 115.839L167.238 103.944Z" fill="#111E4C"/>
<path d="M127.81 101.735L120.414 67.7243L115.947 65.4498C115.589 65.2688 115.252 65.0796 114.927 64.8904L112.505 76.7854C112.83 76.9746 113.163 77.1597 113.525 77.3448L118.674 79.9649C119.271 80.2692 119.653 81.0548 119.517 81.7129L119.267 82.9386C119.131 83.5967 118.534 83.8846 117.934 83.5803L112.784 80.9602C112.426 80.7793 112.089 80.59 111.764 80.4008L109.342 92.2959C109.667 92.4851 110 92.6702 110.362 92.8553L127.81 101.731V101.735Z" fill="white"/>
<path d="M116.683 61.8343L119.439 63.2369L118.563 59.2143C117.905 56.1829 116.786 55.7716 116.021 59.5228L115.663 61.2791C115.988 61.4683 116.321 61.6534 116.683 61.8384V61.8343Z" fill="white"/>
<path d="M114.228 60.3413L115.993 51.6873C116.445 49.458 115.441 48.6519 115.441 48.6519L113.229 59.5186C113.529 59.7942 113.862 60.0698 114.232 60.3413H114.228Z" fill="white"/>
<path d="M110.065 75.0332C110.366 75.3088 110.699 75.5844 111.069 75.8559L113.492 63.9608C113.121 63.6893 112.788 63.4138 112.488 63.1382L110.065 75.0332Z" fill="white"/>
<path d="M110.332 79.4752C109.962 79.2037 109.629 78.9282 109.329 78.6526L106.906 90.5476C107.207 90.8232 107.54 91.0988 107.91 91.3703L110.332 79.4752Z" fill="white"/>
<path d="M137.61 76.625C136.899 74.7494 135.2 73.6554 133.814 74.1777C132.428 74.7042 131.885 76.6497 132.592 78.5253C132.761 78.9695 132.987 79.3684 133.246 79.7139L131.918 86.2373C131.753 87.0476 132.222 88.0142 132.954 88.3885C133.686 88.7627 134.427 88.409 134.591 87.5987L135.92 81.0877C136.076 81.0672 136.236 81.0343 136.389 80.9767C137.775 80.4502 138.318 78.5047 137.61 76.6291V76.625Z" fill="#111E4C"/>
<path d="M155.701 81.6799C161.747 84.7565 170.532 85.7889 175.328 83.9791C177.097 83.3128 178.076 82.3503 178.298 81.2522L180.72 69.3571C180.494 70.4594 179.519 71.4177 177.751 72.0841C172.955 73.8897 164.169 72.8573 158.123 69.7849L119.106 49.9392C115.293 47.9978 113.48 45.7068 113.862 43.8271L111.439 55.7222C111.057 57.6019 112.871 59.8929 116.684 61.8343L121.833 64.4543C122.43 64.7587 122.812 65.5443 122.677 66.2024L122.426 67.4281C122.29 68.0862 121.693 68.3741 121.093 68.0697L115.943 65.4497C112.131 63.5083 110.317 61.2173 110.699 59.3376L108.277 71.2327C107.894 73.1124 109.708 75.4033 113.521 77.3447L118.67 79.9648C119.267 80.2691 119.649 81.0547 119.514 81.7128L119.263 82.9385C119.127 83.5966 118.531 83.8845 117.93 83.5802L112.78 80.9601C108.968 79.0187 107.154 76.7277 107.536 74.8481L105.114 86.7431C104.731 88.6228 106.545 90.9138 110.358 92.8552L149.374 112.701C155.421 115.777 164.206 116.81 169.002 115C170.771 114.334 171.75 113.371 171.972 112.273L174.394 100.378C174.168 101.48 173.194 102.439 171.425 103.105C166.629 104.911 157.843 103.878 151.797 100.806L146.648 98.1857C146.051 97.8814 145.669 97.0958 145.804 96.4377L146.055 95.212C146.191 94.5539 146.788 94.266 147.388 94.5703L152.537 97.1904C158.584 100.267 167.369 101.299 172.165 99.4896C173.934 98.8233 174.913 97.8608 175.135 96.7626L177.557 84.8676C177.331 85.9699 176.356 86.9282 174.588 87.5945C169.792 89.4002 161.006 88.3678 154.96 85.2953L149.81 82.6753C149.214 82.3709 148.832 81.5853 148.967 80.9272L149.218 79.7015C149.354 79.0434 149.95 78.7555 150.551 79.0599L155.701 81.6799Z" stroke="#111E4C" stroke-linecap="round" stroke-linejoin="round"/>
<path d="M173.991 39.2904C176.517 27.0745 169.722 13.0653 158.608 7.40981C152.871 4.48951 146.59 4.25918 141.383 6.77228C136.176 9.28538 132.453 14.3445 131.166 20.654L125.881 46.587C125.642 47.7551 127.76 49.17 130.611 49.75C133.461 50.3299 135.962 49.8569 136.2 48.6888L141.486 22.7557C142.119 19.6504 143.707 17.3429 145.961 16.2571C148.211 15.1712 151.007 15.3604 153.833 16.8C160.706 20.2961 165.214 29.6369 163.672 37.1927L158.386 63.1257C158.152 64.2815 160.245 65.6841 163.067 66.2599C165.889 66.8357 168.467 66.3833 168.706 65.2316L173.991 39.2986V39.2904Z" fill="white" stroke="#111E4C" stroke-linecap="round" stroke-linejoin="round"/>
<path d="M138.129 18.2356C136.052 22.7312 136.003 23.9611 134.502 31.3276L130.977 48.6273C131.651 48.7548 132.33 48.8288 132.947 48.8288C134.325 48.8288 134.929 48.5121 135.065 48.3928L137.167 31.6649L136.258 28.831L137.627 22.5996L140.338 22.5215C141.046 19.05 142.859 16.4506 145.451 15.2002C149.769 13.1148 154.261 15.702 154.364 15.7513C159.147 18.1863 162.849 23.2783 164.379 28.761C167.015 35.7697 171.762 34.6592 169.286 26.433C163.741 8.00227 142.411 8.97296 138.133 18.2356H138.129Z" fill="#335CFF"/>
<path d="M173.292 35.6833C170.63 39.599 166.624 44.1933 165.341 50.4864L162.408 64.8863C162.688 64.9644 162.984 65.0426 163.301 65.1043C164.025 65.2523 164.765 65.3305 165.44 65.3305C166.805 65.3305 167.426 65.0302 167.574 64.911L172.843 39.052C173.156 37.5137 173.292 35.6833 173.292 35.6833Z" fill="#335CFF"/>
<path d="M165.942 17.6885C171.125 24.615 171.45 31.7841 170.38 37.5712C169.578 41.9064 169.492 41.7994 168.27 47.7963L164.704 65.2975C164.955 65.3181 165.206 65.3304 165.445 65.3304C166.81 65.3304 167.431 65.0302 167.579 64.9109L172.848 39.0519C174.699 29.9784 171.256 19.8767 164.63 13.2505C164.63 13.2505 163.532 14.4597 165.946 17.6926L165.942 17.6885Z" fill="#111E4C"/>
<path d="M136.257 28.8268L132.189 48.7917C132.449 48.8123 132.704 48.8288 132.95 48.8288C134.328 48.8288 134.933 48.512 135.069 48.3928L139.367 27.2885C139.951 24.4258 136.821 26.0628 136.257 28.8268Z" fill="#111E4C"/>
<path d="M142.155 15.34C139.901 16.4259 138.314 18.7374 137.68 21.8387L137.647 21.995C136.829 26.0094 139.889 24.7055 140.292 22.7312L140.337 22.5174C141.045 19.0459 142.858 16.4464 145.45 15.1961C145.824 15.0151 146.211 14.867 146.61 14.7477C145.006 14.5051 143.484 14.6943 142.155 15.34Z" fill="#111E4C"/>
<path d="M168.195 29.5537C168.604 29.4312 168.537 28.0018 168.046 26.361C167.555 24.7202 166.825 23.4894 166.416 23.6119C166.007 23.7344 166.073 25.1639 166.564 26.8047C167.056 28.4455 167.786 29.6763 168.195 29.5537Z" fill="white"/>
<path d="M182.242 116.995H134.296C131.441 116.995 127.464 115.062 125.461 112.696L91.8074 73.0216C89.8043 70.6566 88.8583 66.7903 89.7097 64.4294L104.003 24.7545C104.159 24.3185 104.389 23.8949 104.682 23.5L93.8228 38.3359C93.5308 38.7349 93.3005 39.1544 93.1442 39.5904L78.8512 79.2653C77.9998 81.6262 78.9458 85.4966 80.9489 87.8575L114.602 127.532C116.605 129.893 120.583 131.831 123.437 131.831H171.383C173.711 131.831 176.159 130.543 177.442 128.791L188.301 113.955C187.017 115.711 184.57 116.995 182.242 116.995Z" fill="white"/>
<path d="M182.241 116.995H134.295C132.757 116.995 130.894 116.431 129.187 115.543L118.328 130.379C120.035 131.267 121.898 131.831 123.437 131.831H171.383C173.711 131.831 176.158 130.543 177.442 128.791L188.3 113.955C187.017 115.712 184.569 116.995 182.241 116.995Z" fill="#D7DCE0"/>
<path d="M184.146 110.344C183.76 111.417 182.382 112.289 181.09 112.289H133.148C131.852 112.289 130.051 111.413 129.142 110.344L95.4926 70.6691C94.5877 69.5997 94.1558 67.8434 94.5425 66.774L98.4089 56.0471L93.5554 53.752L89.7096 64.4295C88.8582 66.7904 89.8042 70.6609 91.8073 73.0218L125.461 112.697C127.464 115.058 131.441 116.995 134.296 116.995H182.242C185.096 116.995 188.128 115.062 188.979 112.697L193.224 100.917L188.37 98.6217L184.15 110.344H184.146Z" fill="white"/>
<path d="M93.5515 53.752L89.7057 64.4295C88.8543 66.7904 89.8003 70.6609 91.8034 73.0218L125.457 112.697C127.46 115.058 131.437 116.995 134.292 116.995H182.238C185.092 116.995 188.124 115.062 188.975 112.697L193.22 100.917" stroke="#111E4C" stroke-linecap="round" stroke-linejoin="round"/>
<path d="M188.37 98.6259L184.15 110.348C183.763 111.422 182.385 112.294 181.094 112.294H133.152C131.856 112.294 130.055 111.418 129.146 110.348L95.4963 70.6733C94.5915 69.6039 94.1596 67.8476 94.5462 66.7782L98.4125 56.0513" stroke="#111E4C" stroke-linecap="round" stroke-linejoin="round"/>
<path d="M182.242 116.995H134.296C131.441 116.995 127.464 115.062 125.461 112.696L91.8074 73.0216C89.8043 70.6566 88.8583 66.7903 89.7097 64.4294L104.003 24.7545C104.159 24.3185 104.389 23.8949 104.682 23.5L93.8228 38.3359C93.5308 38.7349 93.3005 39.1544 93.1442 39.5904L78.8512 79.2653C77.9998 81.6262 78.9458 85.4966 80.9489 87.8575L114.602 127.532C116.605 129.893 120.583 131.831 123.437 131.831H171.383C173.711 131.831 176.159 130.543 177.442 128.791L188.301 113.955C187.017 115.711 184.57 116.995 182.242 116.995Z" stroke="#111E4C" stroke-linecap="round" stroke-linejoin="round"/>
<path d="M58.7707 0.5C61.6293 0.5 65.6066 2.43316 67.6097 4.79818L91.988 33.5405C93.991 35.9014 94.9371 39.7718 94.0857 42.1327L83.7331 70.875C82.8816 73.2359 79.8502 75.1731 76.9916 75.1731H42.2607C39.4063 75.1731 35.4289 73.24 33.4258 70.875L9.04754 42.1327C7.04446 39.7718 6.09841 35.9014 6.94982 33.5405L17.3026 4.79818C18.154 2.43727 21.1853 0.5 24.0398 0.5H58.7707Z" fill="white" stroke="#111E4C" stroke-linecap="round" stroke-linejoin="round"/>
<path d="M37.7443 19.6135L36.9217 20.6418H33.6807L34.5033 19.6135H37.7443Z" fill="#111E4D" stroke="#111E4C" stroke-linecap="round" stroke-linejoin="round"/>
<path d="M30.3203 22.1554L31.1429 21.1271C31.8915 20.1935 33.0719 19.6135 34.5033 19.6135L33.6807 20.6418C32.2493 20.6418 31.0689 21.2217 30.3203 22.1554Z" fill="#111E4D" stroke="#111E4C" stroke-linecap="round" stroke-linejoin="round"/>
<path d="M27.9063 20.2224L28.7289 19.1941C27.6101 20.5884 27.1207 22.4887 27.5197 24.5822L26.697 25.6105C26.2981 23.5211 26.7875 21.6208 27.9063 20.2224Z" fill="#111E4D" stroke="#111E4C" stroke-linecap="round" stroke-linejoin="round"/>
<path d="M37.2145 16.833L37.7451 19.6135H34.504C31.703 19.6135 29.8481 21.8386 30.3705 24.578L30.975 27.7409H28.1288L27.524 24.578C26.7097 20.3086 29.6011 16.833 33.9775 16.833H37.2187H37.2145Z" fill="white" stroke="#111E4C" stroke-linecap="round" stroke-linejoin="round"/>
<path d="M30.9708 27.741L30.1482 28.7692H27.3018L28.1244 27.741H30.9708Z" fill="#111E4D" stroke="#111E4C" stroke-linecap="round" stroke-linejoin="round"/>
<path d="M28.1244 27.7411L27.3018 28.7694L26.6973 25.6064L27.5239 24.5781L28.1244 27.7411Z" fill="#111E4D" stroke="#111E4C" stroke-linecap="round" stroke-linejoin="round"/>
<path d="M58.0833 43.6011L60.2878 45.7646C58.4328 47.4921 55.8622 48.4381 53.053 48.4381C50.2437 48.4381 47.3151 47.4879 44.7979 45.7646L46.1758 43.6011C48.1377 44.9461 50.3301 45.6576 52.5223 45.6576C54.7146 45.6576 56.6353 44.9502 58.0873 43.6011H58.0833Z" fill="white" stroke="#111E4C" stroke-linecap="round" stroke-linejoin="round"/>
<path d="M60.2843 45.7646L59.4616 46.7929C57.6066 48.5204 55.0358 49.4664 52.2266 49.4664C49.4173 49.4664 46.4889 48.5163 43.9717 46.7929L44.7943 45.7646C47.3115 47.4921 50.24 48.4382 53.0492 48.4382C55.8584 48.4382 58.4293 47.488 60.2843 45.7646Z" fill="#111E4D" stroke="#111E4C" stroke-linecap="round" stroke-linejoin="round"/>
<path d="M44.7943 45.7646L43.9717 46.7887L45.3496 44.6293L46.1722 43.6011L44.7943 45.7646Z" fill="#111E4D" stroke="#111E4C" stroke-linecap="round" stroke-linejoin="round"/>
<path d="M32.3772 50.067L31.5546 51.0953L30.9541 47.9323L31.7767 46.9041L32.3772 50.067Z" fill="#111E4D" stroke="#111E4C" stroke-linecap="round" stroke-linejoin="round"/>
<path d="M45.0204 57.8079L44.1978 58.8361H40.9609L41.7836 57.8079H45.0204Z" fill="#111E4D" stroke="#111E4C" stroke-linecap="round" stroke-linejoin="round"/>
<path d="M34.6226 46.9041L35.2271 50.067C35.7495 52.8022 38.4519 55.0274 41.2529 55.0274H44.494L45.0246 57.8079H41.7835C37.4113 57.8079 33.1953 54.3364 32.3809 50.067L31.7764 46.9041H34.6226Z" fill="white" stroke="#111E4C" stroke-linecap="round" stroke-linejoin="round"/>
<path d="M41.7839 57.8077L40.9613 58.836C36.589 58.836 32.373 55.3646 31.5586 51.0952L32.3812 50.0669C33.1956 54.3363 37.4117 57.8077 41.7839 57.8077Z" fill="#111E4D" stroke="#111E4C" stroke-linecap="round" stroke-linejoin="round"/>
<path d="M71.4928 50.067L70.6701 51.0953L70.0654 47.9323L70.888 46.9041L71.4928 50.067Z" fill="#111E4D" stroke="#111E4C" stroke-linecap="round" stroke-linejoin="round"/>
<path d="M70.7191 53.5178L69.8965 54.5461C70.6122 53.6535 70.9249 52.436 70.6699 51.0952L71.4925 50.0669C71.7475 51.4078 71.4348 52.6211 70.7191 53.5178Z" fill="#111E4D" stroke="#111E4C" stroke-linecap="round" stroke-linejoin="round"/>
<path d="M73.1342 55.4509L72.3116 56.4792C71.1476 57.9352 69.3008 58.836 67.0674 58.836L67.89 57.8077C70.1234 57.8077 71.9702 56.9028 73.1342 55.4509Z" fill="#111E4D" stroke="#111E4C" stroke-linecap="round" stroke-linejoin="round"/>
<path d="M73.7378 46.9041L74.3423 50.067C75.1567 54.3364 72.2652 57.8079 67.8889 57.8079H64.6478L64.1172 55.0274H67.3583C70.1634 55.0274 72.0144 52.8022 71.492 50.067L70.8873 46.9041H73.7335H73.7378Z" fill="white" stroke="#111E4C" stroke-linecap="round" stroke-linejoin="round"/>
<path d="M67.8862 57.8079L67.0635 58.8361H63.8223L64.6491 57.8079H67.8862Z" fill="#111E4D" stroke="#111E4C" stroke-linecap="round" stroke-linejoin="round"/>
<path d="M64.6481 57.8078L63.8213 58.8361L63.2949 56.0556L64.1175 55.0273L64.6481 57.8078Z" fill="#111E4D" stroke="#111E4C" stroke-linecap="round" stroke-linejoin="round"/>
<path d="M66.6356 24.578L65.8129 25.6063C65.2906 22.867 62.5922 20.6418 59.7871 20.6418L60.6097 19.6135C63.4149 19.6135 66.1132 21.8387 66.6356 24.578Z" fill="#111E4D" stroke="#111E4C" stroke-linecap="round" stroke-linejoin="round"/>
<path d="M60.6086 19.6135L59.782 20.6418H56.5449L57.3675 19.6135H60.6086Z" fill="#111E4D" stroke="#111E4C" stroke-linecap="round" stroke-linejoin="round"/>
<path d="M57.3679 19.6135L56.5453 20.6417L56.0146 17.8613L56.8373 16.833L57.3679 19.6135Z" fill="#111E4D" stroke="#111E4C" stroke-linecap="round" stroke-linejoin="round"/>
<path d="M60.0782 16.833C64.4504 16.833 68.6704 20.3086 69.4806 24.578L70.0852 27.7409H67.2389L66.6344 24.578C66.1121 21.8386 63.4137 19.6135 60.6086 19.6135H57.3675L56.8369 16.833H60.0782Z" fill="white" stroke="#111E4C" stroke-linecap="round" stroke-linejoin="round"/>
<path d="M70.085 27.741L69.2624 28.7692H66.4121L67.2387 27.741H70.085Z" fill="#111E4D" stroke="#111E4C" stroke-linecap="round" stroke-linejoin="round"/>
<path d="M67.2396 27.7411L66.413 28.7694L65.8125 25.6064L66.6351 24.5781L67.2396 27.7411Z" fill="#111E4D" stroke="#111E4C" stroke-linecap="round" stroke-linejoin="round"/>
<path d="M50.3557 36.5676L49.5331 37.5959L47.8672 28.8474L48.6898 27.8191L50.3557 36.5676Z" fill="#111E4D" stroke="#111E4C" stroke-linecap="round" stroke-linejoin="round"/>
<path d="M50.1703 37.4026L49.3477 38.4309C49.5204 38.217 49.5945 37.9209 49.5328 37.6L50.3554 36.5718C50.4171 36.8967 50.343 37.1887 50.1703 37.4026Z" fill="#111E4D" stroke="#111E4C" stroke-linecap="round" stroke-linejoin="round"/>
<path d="M52.5803 39.3315L51.7577 40.3598C51.1613 41.1084 50.211 41.5732 49.0635 41.5732L49.8861 40.5449C51.0336 40.5449 51.9798 40.0801 52.5803 39.3315Z" fill="#111E4D" stroke="#111E4C" stroke-linecap="round" stroke-linejoin="round"/>
<path d="M51.5361 27.8191L53.2018 36.5676C53.6214 38.7599 52.1324 40.5409 49.8866 40.5409H47.756L47.2256 37.7604H49.356C50.0306 37.7604 50.4789 37.2257 50.3514 36.5676L48.6857 27.8191H51.5319H51.5361Z" fill="white" stroke="#111E4C" stroke-linecap="round" stroke-linejoin="round"/>
<path d="M49.8908 40.5449L49.0682 41.5732H46.9375L47.7601 40.5449H49.8908Z" fill="#111E4D" stroke="#111E4C" stroke-linecap="round" stroke-linejoin="round"/>
<path d="M47.7604 40.5449L46.9378 41.5731L46.4072 38.7927L47.2298 37.7644L47.7604 40.5449Z" fill="#111E4D" stroke="#111E4C" stroke-linecap="round" stroke-linejoin="round"/>
<path d="M38.9205 29.3327L39.7432 28.3044C39.5087 28.5965 39.4059 28.9913 39.4923 29.4273L38.6697 30.4556C38.5874 30.0196 38.6902 29.6206 38.9205 29.3327Z" fill="#111E4D" stroke="#111E4C" stroke-linecap="round" stroke-linejoin="round"/>
<path d="M40.0684 32.4751L39.2458 33.5034L38.666 30.4597L39.4886 29.4314L40.0684 32.4751Z" fill="#111E4D" stroke="#111E4C" stroke-linecap="round" stroke-linejoin="round"/>
<path d="M43.1367 33.6062L42.3141 34.6345C42.0715 34.9388 41.685 35.128 41.2202 35.128C40.303 35.128 39.4186 34.4 39.25 33.5034L40.0726 32.4751C40.2413 33.3718 41.1297 34.0998 42.0428 34.0998C42.5117 34.0998 42.8941 33.9106 43.1367 33.6062Z" fill="#111E4D" stroke="#111E4C" stroke-linecap="round" stroke-linejoin="round"/>
<path d="M40.8463 27.8108C41.7635 27.8108 42.6438 28.5347 42.8124 29.4313L43.3923 32.475C43.5609 33.3717 42.9605 34.0997 42.0433 34.0997C41.126 34.0997 40.2417 33.3717 40.0731 32.475L39.4931 29.4313C39.3244 28.5347 39.9291 27.8108 40.8463 27.8108Z" fill="white" stroke="#111E4C" stroke-linecap="round" stroke-linejoin="round"/>
<path d="M55.4723 29.3327L56.2949 28.3044C56.0605 28.5965 55.9577 28.9913 56.0441 29.4314L55.2215 30.4597C55.1392 30.0196 55.242 29.6247 55.4723 29.3327Z" fill="#111E4D" stroke="#111E4C" stroke-linecap="round" stroke-linejoin="round"/>
<path d="M56.6234 32.4751L55.7968 33.5034L55.2168 30.4597L56.0436 29.4314L56.6234 32.4751Z" fill="#111E4D" stroke="#111E4C" stroke-linecap="round" stroke-linejoin="round"/>
<path d="M59.6919 33.6062L58.8692 34.6345C58.6266 34.9388 58.2401 35.128 57.7671 35.128C56.8498 35.128 55.9696 34.4 55.7969 33.5034L56.6195 32.4751C56.7881 33.3718 57.6725 34.0998 58.5897 34.0998C59.0586 34.0998 59.4451 33.9106 59.6919 33.6062Z" fill="#111E4D" stroke="#111E4C" stroke-linecap="round" stroke-linejoin="round"/>
<path d="M57.3923 27.8108C58.3137 27.8108 59.1939 28.5347 59.3625 29.4313L59.9425 32.475C60.1112 33.3717 59.5106 34.0997 58.5893 34.0997C57.6721 34.0997 56.7919 33.3717 56.6191 32.475L56.0391 29.4313C55.8705 28.5347 56.4711 27.8108 57.3883 27.8108H57.3923Z" fill="white" stroke="#111E4C" stroke-linecap="round" stroke-linejoin="round"/>
<path d="M76.9916 75.1732H42.2607C39.4062 75.1732 35.4289 73.24 33.4258 70.875L9.04752 42.1327C7.04444 39.7718 6.09839 35.9014 6.9498 33.5405L17.3026 4.79819C17.4589 4.36221 17.6892 3.93856 17.9812 3.5437L11.8445 11.9303C11.5525 12.3293 11.322 12.7488 11.1657 13.1848L0.813103 41.9271C-0.0383064 44.288 0.907744 48.1584 2.91082 50.5193L27.2891 79.2616C29.2922 81.6225 33.2695 83.5598 36.124 83.5598H70.8549C73.187 83.5598 75.6303 82.2723 76.9177 80.5202L83.0544 72.1336C81.7711 73.8899 79.3237 75.1732 76.9916 75.1732Z" fill="white"/>
<path d="M83.0544 72.1294C81.7711 73.8857 79.3237 75.169 76.9916 75.169H42.2607C40.5908 75.169 38.5426 74.5068 36.7287 73.4867L30.5918 81.8733C32.4098 82.8934 34.4582 83.5556 36.124 83.5556H70.8549C73.187 83.5556 75.6303 82.2682 76.9177 80.516L83.0544 72.1294Z" fill="#D7DCE0"/>
<path d="M76.9916 75.1732H42.2607C39.4062 75.1732 35.4289 73.24 33.4258 70.875L9.04752 42.1327C7.04444 39.7718 6.09839 35.9014 6.9498 33.5405L17.3026 4.79819C17.4589 4.36221 17.6892 3.93856 17.9812 3.5437L11.8445 11.9303C11.5525 12.3293 11.322 12.7488 11.1657 13.1848L0.813103 41.9271C-0.0383064 44.288 0.907744 48.1584 2.91082 50.5193L27.2891 79.2616C29.2922 81.6225 33.2695 83.5598 36.124 83.5598H70.8549C73.187 83.5598 75.6303 82.2723 76.9177 80.5202L83.0544 72.1336C81.7711 73.8899 79.3237 75.1732 76.9916 75.1732Z" stroke="#111E4C" stroke-linecap="round" stroke-linejoin="round"/>
<path d="M164.305 123.444C167.164 123.444 171.141 125.377 173.144 127.743L197.522 156.485C199.525 158.846 200.471 162.716 199.62 165.077L189.267 193.819C188.416 196.18 185.384 198.117 182.526 198.117H147.795C144.94 198.117 140.963 196.184 138.96 193.819L114.582 165.077C112.579 162.716 111.633 158.846 112.484 156.485L122.837 127.743C123.688 125.382 126.72 123.444 129.574 123.444H164.305Z" fill="white" stroke="#111E4C" stroke-linecap="round" stroke-linejoin="round"/>
<path d="M182.521 198.113H147.79C144.936 198.113 140.958 196.18 138.955 193.815L114.577 165.073C112.574 162.712 111.628 158.842 112.479 156.481L122.832 127.738C122.988 127.302 123.218 126.879 123.51 126.484L117.374 134.87C117.082 135.269 116.851 135.689 116.695 136.125L106.342 164.867C105.491 167.228 106.437 171.099 108.44 173.459L132.818 202.202C134.821 204.563 138.799 206.5 141.653 206.5H176.384C178.716 206.5 181.159 205.213 182.447 203.46L188.584 195.074C187.3 196.83 184.853 198.113 182.521 198.113Z" fill="white"/>
<path d="M188.583 195.074C187.3 196.83 184.853 198.113 182.521 198.113H147.79C146.12 198.113 144.072 197.451 142.258 196.431L136.121 204.818C137.939 205.838 139.987 206.5 141.653 206.5H176.384C178.716 206.5 181.159 205.213 182.447 203.46L188.583 195.074Z" fill="#D7DCE0"/>
<path d="M182.521 198.113H147.79C144.936 198.113 140.958 196.18 138.955 193.815L114.577 165.073C112.574 162.712 111.628 158.842 112.479 156.481L122.832 127.738C122.988 127.302 123.218 126.879 123.51 126.484L117.374 134.87C117.082 135.269 116.851 135.689 116.695 136.125L106.342 164.867C105.491 167.228 106.437 171.099 108.44 173.459L132.818 202.202C134.821 204.563 138.799 206.5 141.653 206.5H176.384C178.716 206.5 181.159 205.213 182.447 203.46L188.584 195.074C187.3 196.83 184.853 198.113 182.521 198.113Z" stroke="#111E4C" stroke-linecap="round" stroke-linejoin="round"/>
<path d="M174.286 150.093H132.596C130.494 150.093 129.244 151.948 129.803 154.235L132.995 167.323C133.554 169.61 135.71 171.465 137.807 171.465H179.498C181.599 171.465 182.85 169.61 182.29 167.323L179.099 154.235C178.539 151.948 176.384 150.093 174.286 150.093Z" fill="#D7DCE0"/>
<path d="M163.979 171.465L159.755 154.157C159.422 152.791 157.999 151.677 156.596 151.677H131.021C130.618 151.677 130.248 151.746 129.915 151.874C129.647 152.544 129.594 153.359 129.808 154.239L132.999 167.327C133.559 169.614 135.714 171.469 137.812 171.469H163.979V171.465Z" fill="#335CFF"/>
<path d="M140.111 162.938L140.798 161.359L138.951 160.758L139.087 159.574L140.872 160.174L140.379 158.151H141.592L142.085 160.174L143.562 159.574L144.278 160.758L142.756 161.359L144.195 162.938L143.422 163.712L141.945 162.046L141.279 163.712L140.115 162.938H140.111Z" fill="#111E4C"/>
<path d="M147.236 162.938L147.923 161.359L146.076 160.758L146.212 159.574L147.997 160.174L147.504 158.151H148.717L149.21 160.174L150.687 159.574L151.403 160.758L149.881 161.359L151.32 162.938L150.547 163.712L149.071 162.046L148.404 163.712L147.24 162.938H147.236Z" fill="#111E4C"/>
<path d="M154.359 162.938L155.046 161.359L153.199 160.758L153.335 159.574L155.12 160.174L154.626 158.151H155.84L156.333 160.174L157.81 159.574L158.526 160.758L157.004 161.359L158.443 162.938L157.67 163.712L156.193 162.046L155.527 163.712L154.363 162.938H154.359Z" fill="#111E4C"/>
<path d="M161.478 162.938L162.165 161.359L160.318 160.758L160.454 159.574L162.239 160.174L161.745 158.151H162.959L163.452 160.174L164.929 159.574L165.645 160.758L164.123 161.359L165.563 162.938L164.789 163.712L163.313 162.046L162.646 163.712L161.482 162.938H161.478Z" fill="#111E4C"/>
<path d="M168.602 162.938L169.289 161.359L167.442 160.758L167.578 159.574L169.363 160.174L168.87 158.151H170.083L170.577 160.174L172.053 159.574L172.769 160.758L171.247 161.359L172.687 162.938L171.913 163.712L170.437 162.046L169.77 163.712L168.606 162.938H168.602Z" fill="#111E4C"/>
<path d="M174.286 150.093H132.596C130.494 150.093 129.244 151.948 129.803 154.235L132.995 167.323C133.554 169.61 135.71 171.465 137.807 171.465H179.498C181.599 171.465 182.85 169.61 182.29 167.323L179.099 154.235C178.539 151.948 176.384 150.093 174.286 150.093Z" stroke="#111E4C" stroke-linecap="round" stroke-linejoin="round"/>
</svg>
