<svg width="29" height="29" viewBox="0 0 29 29" fill="none" xmlns="http://www.w3.org/2000/svg">
<g clip-path="url(#clip0_12633_14129)">
<path d="M14.124 25.2942C11.0023 25.2942 8.35799 24.2108 6.19121 22.0441C4.02467 19.8775 2.94141 17.2333 2.94141 14.1112C2.94141 11.0128 4.02467 8.3765 6.19121 6.20227C8.35799 4.02803 11.0023 2.94092 14.124 2.94092C17.2227 2.94092 19.859 4.02803 22.033 6.20227C24.2072 8.3765 25.2943 11.0128 25.2943 14.1112C25.2943 17.2333 24.2072 19.8775 22.033 22.0441C19.859 24.2108 17.2227 25.2942 14.124 25.2942ZM14.1177 23.0589C16.6014 23.0589 18.7125 22.1896 20.4511 20.451C22.1897 18.7124 23.059 16.6013 23.059 14.1176C23.059 11.6339 22.1897 9.52273 20.4511 7.78414C18.7125 6.04555 16.6014 5.17625 14.1177 5.17625C11.634 5.17625 9.52284 6.04555 7.78425 7.78414C6.04566 9.52273 5.17636 11.6339 5.17636 14.1176C5.17636 16.6013 6.04566 18.7124 7.78425 20.451C9.52284 22.1896 11.634 23.0589 14.1177 23.0589ZM17.6514 19.2816L19.2448 17.6885L15.2354 13.6791V8.38581H13V14.5933L17.6514 19.2816Z" fill="#4989FF"/>
</g>
<defs>
<clipPath id="clip0_12633_14129">
<rect width="28.2353" height="28.2353" fill="white"/>
</clipPath>
</defs>
</svg>
