<svg width="29" height="29" viewBox="0 0 29 29" fill="none" xmlns="http://www.w3.org/2000/svg">
<path d="M18.2038 19.4435L19.4438 18.2035L15.0002 13.76V8.23528H13.2355V14.475L18.2038 19.4435ZM14.1199 25.2941C12.5741 25.2941 11.121 25.0008 9.76082 24.4141C8.40062 23.8274 7.21748 23.0313 6.21141 22.0256C5.20533 21.0199 4.40876 19.8372 3.8217 18.4776C3.23484 17.118 2.94141 15.6654 2.94141 14.1197C2.94141 12.5738 3.23474 11.1208 3.82141 9.76057C4.40807 8.40038 5.20425 7.21724 6.20994 6.21116C7.21562 5.20508 8.39827 4.40851 9.75788 3.82146C11.1175 3.23459 12.5701 2.94116 14.1158 2.94116C15.6617 2.94116 17.1147 3.23449 18.4749 3.82116C19.8351 4.40783 21.0183 5.20401 22.0243 6.20969C23.0304 7.21538 23.827 8.39803 24.4141 9.75763C25.0009 11.1172 25.2943 12.5699 25.2943 14.1156C25.2943 15.6615 25.001 17.1145 24.4143 18.4747C23.8277 19.8349 23.0315 21.018 22.0258 22.0241C21.0201 23.0302 19.8375 23.8267 18.4779 24.4138C17.1183 25.0007 15.6656 25.2941 14.1199 25.2941Z" fill="#2240C4"/>
</svg>
