<svg width="29" height="29" viewBox="0 0 29 29" fill="none" xmlns="http://www.w3.org/2000/svg">
<path d="M18.2038 19.4438L19.4438 18.2038L15.0002 13.7602V8.23552H13.2355V14.4752L18.2038 19.4438ZM14.1199 25.2943C12.5741 25.2943 11.121 25.001 9.76082 24.4143C8.40062 23.8277 7.21748 23.0315 6.21141 22.0258C5.20533 21.0201 4.40876 19.8375 3.8217 18.4779C3.23484 17.1183 2.94141 15.6656 2.94141 14.1199C2.94141 12.5741 3.23474 11.121 3.82141 9.76082C4.40807 8.40062 5.20425 7.21748 6.20994 6.21141C7.21562 5.20533 8.39827 4.40876 9.75788 3.8217C11.1175 3.23484 12.5701 2.94141 14.1158 2.94141C15.6617 2.94141 17.1147 3.23474 18.4749 3.82141C19.8351 4.40807 21.0183 5.20425 22.0243 6.20994C23.0304 7.21562 23.827 8.39827 24.4141 9.75788C25.0009 11.1175 25.2943 12.5701 25.2943 14.1158C25.2943 15.6617 25.001 17.1147 24.4143 18.4749C23.8277 19.8351 23.0315 21.0183 22.0258 22.0243C21.0201 23.0304 19.8375 23.827 18.4779 24.4141C17.1183 25.0009 15.6656 25.2943 14.1199 25.2943Z" fill="#4989FF"/>
</svg>
