<svg width="60" height="60" viewBox="0 0 60 60" fill="none" xmlns="http://www.w3.org/2000/svg">
<circle cx="30" cy="30" r="30" fill="#B51B16"/>
<path d="M32.7748 36.339L33.5643 12.9102H26.4126L27.2021 36.339H32.7748Z" fill="white"/>
<path d="M29.9884 47.0899C31.1184 47.0899 32.0279 46.757 32.7167 46.0914C33.4056 45.4258 33.75 44.5821 33.75 43.5604C33.75 42.5233 33.4056 41.6719 32.7167 41.0063C32.0279 40.3406 31.1184 40.0078 29.9884 40.0078C28.8738 40.0078 27.9721 40.3445 27.2833 41.0179C26.5944 41.6912 26.25 42.5388 26.25 43.5604C26.25 44.5821 26.5944 45.4258 27.2833 46.0914C27.9721 46.757 28.8738 47.0899 29.9884 47.0899Z" fill="white"/>
</svg>
