<svg width="121" height="71" viewBox="0 0 121 71" fill="none" xmlns="http://www.w3.org/2000/svg">
<g id="Group 5">
<g id="coinbase_avatar">
<rect id="Rectangle" x="68.5" y="18.5" width="52" height="52" rx="12" fill="#393939"/>
<g id="ledger-square 1" clip-path="url(#clip0_10815_98955)">
<path id="Vector" d="M80.5 50.1174V57.5H91.4081V55.8628H82.0893V50.1174H80.5ZM107.911 50.1174V55.8628H98.5919V57.4996H109.5V50.1174H107.911ZM91.424 38.8826V50.117H98.5919V48.6405H93.0133V38.8826H91.424ZM80.5 31.5V38.8826H82.0893V33.1369H91.4081V31.5H80.5ZM98.5919 31.5V33.1369H107.911V38.8826H109.5V31.5H98.5919Z" fill="white"/>
</g>
</g>
<g id="Group">
<circle id="Base" cx="26.5" cy="26.5" r="26" fill="#214497"/>
<rect id="gradient 3" x="0.5" y="0.5" width="52" height="52" rx="22.5" fill="url(#paint0_linear_10815_98955)"/>
<rect id="gradient 2" x="0.5" y="0.5" width="52" height="52" rx="22.5" fill="url(#paint1_linear_10815_98955)"/>
<rect id="gradient 1" x="0.5" y="0.5" width="52" height="52" rx="12" fill="url(#paint2_linear_10815_98955)"/>
<path id="Shape" fill-rule="evenodd" clip-rule="evenodd" d="M33.1078 20.8357C32.1699 20.374 31.059 20.1428 29.7733 20.1428C29.157 20.1428 28.5814 20.2109 28.0461 20.3466C27.5099 20.483 27.005 20.6587 26.4697 20.9031L28.93 10.4031L22.7031 11.381L15.7534 41.0078C16.5299 41.3886 17.3531 41.6872 18.224 41.9042C19.0939 42.1215 19.9175 42.2844 20.6943 42.3933C21.4708 42.5017 22.1608 42.5626 22.7635 42.5768C23.3661 42.59 23.7879 42.5971 24.0288 42.5971C25.9032 42.5971 27.6443 42.2367 29.2511 41.517C30.8581 40.7976 32.2503 39.8197 33.4291 38.5831C34.6074 37.3469 35.5381 35.8934 36.2211 34.2226C36.9042 32.5517 37.2455 30.779 37.2455 28.9043C37.2455 27.682 37.0978 26.5409 36.8034 25.4814C36.5085 24.4215 36.0533 23.4984 35.4376 22.7101C34.8213 21.9223 34.0448 21.2978 33.1078 20.8357ZM27.2022 36.892C26.372 37.354 25.4881 37.5846 24.551 37.5846H23.8279C23.6401 37.5846 23.3719 37.5689 22.5972 37.4313L25.2165 26.2525C25.6984 25.8181 26.2182 25.5362 26.8208 25.3998C27.4234 25.264 27.8115 25.2274 28.1869 25.2274C29.3378 25.2274 30.2284 25.5626 30.6572 26.2965C31.0854 27.0297 31.2999 28.0486 31.2999 29.3525C31.2999 30.4123 31.1254 31.4312 30.7777 32.4092C30.4293 33.3871 29.9541 34.2632 29.3518 35.0377C28.7492 35.8118 28.0321 36.4302 27.2022 36.892Z" fill="white"/>
</g>
<g id="Group 2">
<g id="Rectangle_2" filter="url(#filter0_d_10815_98955)">
<rect x="44.5" y="24.5" width="32" height="22" rx="11" fill="white"/>
</g>
<g id="Group 4">
<path id="Path" d="M56.5 35.5C56.5 36.0523 56.9477 36.5 57.5 36.5H63.5C64.0523 36.5 64.5 36.0523 64.5 35.5C64.5 34.9477 64.0523 34.5 63.5 34.5H57.5C56.9477 34.5 56.5 34.9477 56.5 35.5Z" fill="#4F6EF7"/>
<path id="Shape_2" fill-rule="evenodd" clip-rule="evenodd" d="M65.2238 29.5001C68.3198 29.4251 70.9878 31.6707 71.4495 34.7401C71.6684 36.4584 71.1358 38.1877 69.9886 39.4832C68.8413 40.7787 67.1914 41.5141 65.4632 41.5001H63.4678C62.9168 41.5001 62.4701 41.0524 62.4701 40.5001C62.4701 39.9478 62.9168 39.5001 63.4678 39.5001H65.4632C66.5889 39.505 67.6642 39.0331 68.4242 38.2009C69.1842 37.3687 69.5582 36.2535 69.4541 35.1301C69.1975 33.0154 67.3783 31.4433 65.2537 31.5001H63.4678C62.9168 31.5001 62.4701 31.0524 62.4701 30.5001C62.4701 29.9501 62.9091 29.5001 63.7173 29.5001H65.2238ZM55.6957 39.5001H57.4816C58.0326 39.5001 58.4793 39.9478 58.4793 40.5001C58.4793 41.0524 58.0326 41.5001 57.4816 41.5001H55.4862C53.7608 41.5008 52.119 40.7551 50.9818 39.4544C49.8446 38.1537 49.3227 36.4245 49.5499 34.7101C50.017 31.6811 52.6381 29.4592 55.6957 29.5001H57.4816C58.0326 29.5001 58.4793 29.9478 58.4793 30.5001C58.4793 31.0524 58.0326 31.5001 57.4816 31.5001H55.4862C54.3606 31.4953 53.2853 31.9671 52.5253 32.7993C51.7653 33.6315 51.3913 34.7467 51.4954 35.8701C51.752 37.9848 53.5711 39.557 55.6957 39.5001Z" fill="#4F6EF7"/>
</g>
</g>
</g>
<defs>
<filter id="filter0_d_10815_98955" x="34.5" y="14.5" width="52" height="42" filterUnits="userSpaceOnUse" color-interpolation-filters="sRGB">
<feFlood flood-opacity="0" result="BackgroundImageFix"/>
<feColorMatrix in="SourceAlpha" type="matrix" values="0 0 0 0 0 0 0 0 0 0 0 0 0 0 0 0 0 0 127 0" result="hardAlpha"/>
<feOffset/>
<feGaussianBlur stdDeviation="5"/>
<feColorMatrix type="matrix" values="0 0 0 0 0 0 0 0 0 0 0 0 0 0 0 0 0 0 0.1 0"/>
<feBlend mode="normal" in2="BackgroundImageFix" result="effect1_dropShadow_10815_98955"/>
<feBlend mode="normal" in="SourceGraphic" in2="effect1_dropShadow_10815_98955" result="shape"/>
</filter>
<linearGradient id="paint0_linear_10815_98955" x1="51.8235" y1="2.9999" x2="4.82328" y2="2.9999" gradientUnits="userSpaceOnUse">
<stop stop-color="#253483"/>
<stop offset="1" stop-color="#16225C"/>
</linearGradient>
<linearGradient id="paint1_linear_10815_98955" x1="6.88066" y1="13.2613" x2="6.88066" y2="52.5" gradientUnits="userSpaceOnUse">
<stop stop-color="#142F94"/>
<stop offset="1" stop-color="#081A52"/>
</linearGradient>
<linearGradient id="paint2_linear_10815_98955" x1="0.5" y1="0.5" x2="0.5" y2="52.5" gradientUnits="userSpaceOnUse">
<stop stop-color="#060F3C"/>
<stop offset="1" stop-color="#142F94"/>
</linearGradient>
<clipPath id="clip0_10815_98955">
<rect width="29" height="26" fill="white" transform="translate(80.5 31.5)"/>
</clipPath>
</defs>
</svg>
