<svg width="17" height="17" viewBox="0 0 17 17" fill="none" xmlns="http://www.w3.org/2000/svg">
<path opacity="0.5" d="M15.7727 4.86365H13.5909V12.8636C13.5909 13.2651 13.2651 13.5909 12.8636 13.5909H4.86365V15.7727C4.86365 16.1742 5.18947 16.5 5.59092 16.5H15.7727C16.1742 16.5 16.5 16.1742 16.5 15.7727V5.59092C16.5 5.18947 16.1742 4.86365 15.7727 4.86365Z" fill="#4F6EF7"/>
<path d="M11.4091 12.1364H1.22727C0.825091 12.1364 0.5 11.8113 0.5 11.4091V1.22727C0.5 0.825818 0.825091 0.5 1.22727 0.5H11.4091C11.8113 0.5 12.1364 0.825818 12.1364 1.22727V11.4091C12.1364 11.8113 11.8113 12.1364 11.4091 12.1364Z" fill="#4F6EF7"/>
</svg>
