<svg width="20" height="20" viewBox="0 0 20 20" fill="none" xmlns="http://www.w3.org/2000/svg">
<path fill-rule="evenodd" clip-rule="evenodd" d="M19.1667 3.33333H14.1667V1.66667C14.1667 0.746192 13.4205 0 12.5 0H7.5C6.57952 0 5.83333 0.746192 5.83333 1.66667V3.33333H0.833333C0.373096 3.33333 0 3.70643 0 4.16667C0 4.6269 0.373096 5 0.833333 5H19.1667C19.6269 5 20 4.6269 20 4.16667C20 3.70643 19.6269 3.33333 19.1667 3.33333ZM7.5 1.66667H12.5V3.33333H7.5V1.66667ZM5.71833 20C4.40853 19.9958 3.32247 18.9845 3.225 17.6783L2.43833 6.66667H17.5617L16.775 17.6783C16.6775 18.9845 15.5915 19.9958 14.2817 20H5.71833Z" fill="#2240C4"/>
</svg>
