<svg width="22" height="22" viewBox="0 0 22 22" fill="none" xmlns="http://www.w3.org/2000/svg">
<path fill-rule="evenodd" clip-rule="evenodd" d="M8 14.0001L11.354 13.1461L21.482 3.01808C21.8137 2.68666 22.0001 2.23699 22.0001 1.76808C22.0001 1.29918 21.8137 0.849506 21.482 0.518085C21.1506 0.186376 20.7009 0 20.232 0C19.7631 0 19.3134 0.186376 18.982 0.518085L8.854 10.6461L8 14.0001ZM1 22.0001H20C20.5523 22.0001 21 21.5524 21 21.0001V10.0001H19V20.0001H2V3.00008H12V1.00008H1C0.447715 1.00008 0 1.4478 0 2.00008V21.0001C0 21.5524 0.447715 22.0001 1 22.0001Z" fill="#2240C4"/>
</svg>
