<svg width="30" height="30" viewBox="0 0 30 30" fill="none" xmlns="http://www.w3.org/2000/svg">
<path d="M2.72727 8.18182H0V1.36364C0 1.00198 0.143668 0.655131 0.3994 0.3994C0.655131 0.143668 1.00198 0 1.36364 0H8.18182V2.72727H2.72727V8.18182Z" fill="#2240C4"/>
<path d="M30 8.18182H27.2727V2.72727H21.8182V0H28.6364C28.998 0 29.3449 0.143668 29.6006 0.3994C29.8563 0.655131 30 1.00198 30 1.36364V8.18182Z" fill="#2240C4"/>
<path d="M8.18182 30H1.36364C1.00198 30 0.655131 29.8563 0.3994 29.6006C0.143668 29.3449 0 28.998 0 28.6364V21.8182H2.72727V27.2727H8.18182V30Z" fill="#2240C4"/>
<path d="M28.6364 30H21.8182V27.2727H27.2727V21.8182H30V28.6364C30 28.998 29.8563 29.3449 29.6006 29.6006C29.3449 29.8563 28.998 30 28.6364 30Z" fill="#2240C4"/>
<path d="M23.5118 23.2227L19.7932 22.2941C19.5354 22.2297 19.302 22.0913 19.1218 21.8961C18.9415 21.7008 18.8223 21.4571 18.7786 21.195L18.4391 19.1618C19.4619 18.3217 20.2927 17.272 20.8756 16.0837C21.4585 14.8953 21.7799 13.5958 21.8182 12.2727V10.9091C21.8182 9.1008 21.0998 7.36657 19.8212 6.08791C18.5425 4.80925 16.8083 4.09091 15 4.09091C13.1917 4.09091 11.4575 4.80925 10.1788 6.08791C8.90017 7.36657 8.18183 9.1008 8.18183 10.9091V12.2727C8.22009 13.5958 8.5415 14.8953 9.12439 16.0837C9.70728 17.272 10.5381 18.3217 11.5609 19.1618L11.2214 21.195C11.1778 21.457 11.0588 21.7005 10.8788 21.8957C10.6988 22.091 10.4657 22.2294 10.2082 22.2941L6.48819 23.2227C6.16556 23.3036 5.88361 23.4996 5.69539 23.7738C5.50718 24.048 5.42568 24.3816 5.46623 24.7117C5.50679 25.0418 5.6666 25.3458 5.91559 25.5663C6.16458 25.7868 6.48558 25.9087 6.81819 25.9091H23.1818C23.5144 25.9087 23.8354 25.7868 24.0844 25.5663C24.3334 25.3458 24.4932 25.0418 24.5338 24.7117C24.5743 24.3816 24.4928 24.048 24.3046 23.7738C24.1164 23.4996 23.8345 23.3036 23.5118 23.2227Z" fill="#2240C4"/>
</svg>
