<svg width="30" height="31" viewBox="0 0 30 31" fill="none" xmlns="http://www.w3.org/2000/svg">
<path d="M1.22811 18.8968C0.786539 18.8968 0.391825 18.5868 0.301429 18.1377C-0.599693 13.6685 0.541381 9.07958 3.43264 5.54846C3.76393 5.1438 4.36026 5.08512 4.76444 5.41546C5.16862 5.74676 5.22825 6.34309 4.89696 6.74727C2.36681 9.8373 1.3682 13.8526 2.15668 17.7628C2.25985 18.2754 1.92856 18.7747 1.416 18.8779C1.35305 18.8906 1.29011 18.8968 1.22811 18.8968Z" fill="#4F6EF7"/>
<path d="M6.63386 4.72782C6.34611 4.72782 6.06167 4.5972 5.87567 4.3492C5.56188 3.93082 5.64707 3.33733 6.06498 3.02355C7.87243 1.66855 9.91936 0.753706 12.1485 0.304565C16.205 -0.51326 20.3173 0.328702 23.7268 2.67663C24.1575 2.97338 24.2663 3.56261 23.9696 3.9933C23.6733 4.42256 23.0831 4.53189 22.6534 4.23609C19.6703 2.18159 16.0734 1.44375 12.5229 2.16076C10.5715 2.55358 8.78112 3.3539 7.20085 4.53851C7.03047 4.6663 6.83169 4.72782 6.63386 4.72782Z" fill="#4F6EF7"/>
<path d="M29.0517 13.2861C28.6101 13.2861 28.2154 12.9761 28.125 12.527C27.6574 10.2079 26.5797 8.05685 25.0094 6.30619C24.6606 5.91716 24.6928 5.31846 25.0818 4.96965C25.4708 4.62037 26.0695 4.65161 26.4188 5.04159C28.2149 7.04309 29.4468 9.50224 29.9812 12.1521C30.0844 12.6647 29.7531 13.164 29.2405 13.2672C29.1766 13.2799 29.1137 13.2861 29.0517 13.2861Z" fill="#4F6EF7"/>
<path d="M11.4765 29.8035C11.2545 29.8035 11.0321 29.7259 10.8522 29.5683C10.4594 29.2232 10.4206 28.625 10.7656 28.2322C13.894 24.6717 15.152 19.9692 14.2168 15.3311C14.1136 14.8185 14.4449 14.3192 14.9574 14.2161C15.47 14.1143 15.9693 14.4442 16.0725 14.9567C17.1255 20.1789 15.7095 25.4734 12.1878 29.4816C12.0004 29.6951 11.7392 29.8035 11.4765 29.8035Z" fill="#4F6EF7"/>
<path d="M7.96568 28.3345C7.71295 28.3345 7.4607 28.2337 7.27422 28.0344C6.9169 27.6525 6.93725 27.0538 7.31871 26.6969C10.1385 24.0589 11.3212 20.4085 10.7391 16.14L10.7206 16.0018C10.4935 14.8328 10.7306 13.6449 11.3903 12.6524C12.0558 11.651 13.0714 10.968 14.2503 10.73C16.6849 10.2396 19.0631 11.8199 19.5544 14.2535C19.5605 14.2843 19.5653 14.3155 19.5686 14.3458C19.6779 14.9019 19.7655 15.4661 19.8284 16.0241C19.8871 16.5437 19.5132 17.0123 18.994 17.0709C18.4753 17.131 18.0063 16.7562 17.9476 16.2366C17.8875 15.7017 17.8023 15.1613 17.6949 14.6293C17.6897 14.6033 17.6854 14.5777 17.6826 14.5517C17.365 13.1849 16.0109 12.3055 14.6257 12.5862C13.9422 12.7239 13.3535 13.1195 12.9678 13.7003C12.582 14.281 12.4457 14.9767 12.5835 15.6601C12.5887 15.6852 12.5925 15.7098 12.5953 15.7354L12.6152 15.8844C13.2839 20.7867 11.8996 25.0036 8.61218 28.0789C8.4295 28.2498 8.19759 28.3345 7.96568 28.3345Z" fill="#4F6EF7"/>
<path d="M15.5931 30.2763C15.409 30.2763 15.223 30.2228 15.0597 30.1106C14.6281 29.8153 14.5178 29.2266 14.8131 28.7949C16.7166 26.0135 17.8298 22.7758 18.0314 19.4335C18.0631 18.9115 18.5127 18.5082 19.0333 18.5456C19.5554 18.5769 19.9524 19.0255 19.9212 19.5471C19.6988 23.232 18.4725 26.7996 16.3754 29.8645C16.1918 30.1324 15.895 30.2763 15.5931 30.2763Z" fill="#4F6EF7"/>
<path d="M5.10379 26.1248C4.82977 26.1248 4.5581 26.0065 4.37116 25.7783C4.03986 25.3742 4.0995 24.7774 4.50368 24.4465C6.75553 22.6022 7.81378 19.701 7.28277 16.85C7.26999 16.8126 7.26005 16.7747 7.252 16.7359C6.9988 15.4798 7.04329 14.2209 7.38405 12.9942C7.52366 12.4906 8.04569 12.1953 8.54926 12.3354C9.05283 12.4754 9.34768 12.997 9.20759 13.5006C8.9577 14.4003 8.91652 15.3241 9.08548 16.247C9.09779 16.2839 9.1082 16.3213 9.11577 16.3596C9.83705 19.9367 8.52938 23.5961 5.70296 25.9109C5.52738 26.0547 5.31488 26.1248 5.10379 26.1248Z" fill="#4F6EF7"/>
<path d="M20.2317 29.3392C20.0925 29.3392 19.9515 29.3089 19.8176 29.2436C19.3476 29.015 19.1521 28.448 19.3812 27.9781C21.5209 23.5865 22.1404 18.7278 21.173 13.9283C21.1612 13.8715 19.7679 7.92716 13.9243 9.11083C12.7151 9.35457 11.6209 9.94569 10.759 10.8198C10.3927 11.1923 9.79258 11.197 9.42058 10.8298C9.04811 10.463 9.04338 9.86381 9.41064 9.49134C10.538 8.34696 11.9692 7.57315 13.5499 7.25416C19.9638 5.96353 22.6075 11.5056 23.0278 13.5497C24.079 18.7638 23.406 24.038 21.0831 28.8063C20.9193 29.1437 20.5824 29.3392 20.2317 29.3392Z" fill="#4F6EF7"/>
<path d="M2.92625 23.3215C2.6579 23.3215 2.39097 23.2079 2.20355 22.9869C1.86563 22.5879 1.91486 21.9911 2.31383 21.6527C3.51217 20.6376 4.07632 19.0634 3.79898 17.5248C3.78998 17.4955 3.78241 17.4661 3.77673 17.4358C2.57839 11.4915 6.21411 5.57642 12.0539 3.96917C12.5598 3.8305 13.079 4.12724 13.2177 4.63081C13.3564 5.13438 13.0601 5.65546 12.5565 5.7946C7.70163 7.13067 4.66839 12.0258 5.61352 16.9673C5.62299 16.9971 5.63104 17.0288 5.63719 17.06C6.08964 19.3029 5.2846 21.6163 3.53725 23.0972C3.35977 23.2482 3.14207 23.3215 2.92625 23.3215Z" fill="#4F6EF7"/>
<path d="M25.2157 26.0887C25.1348 26.0887 25.0529 26.0783 24.9711 26.0565C24.4661 25.9217 24.1655 25.4029 24.3004 24.8979C25.3175 21.0838 25.4391 17.1774 24.6629 13.2837C24.6577 13.2652 24.6535 13.2468 24.6497 13.2279C23.7661 8.84577 20.0348 5.64831 15.5765 5.4519C15.054 5.42871 14.6493 4.98714 14.6725 4.46464C14.6952 3.94214 15.1378 3.54033 15.6598 3.56068C20.9695 3.79448 25.4159 7.5878 26.4936 12.7939C26.4988 12.8137 26.5035 12.8336 26.5073 12.8535C27.3545 17.0534 27.2272 21.2698 26.1301 25.3859C26.0165 25.809 25.6341 26.0887 25.2157 26.0887Z" fill="#4F6EF7"/>
</svg>
