<svg width="12" height="12" viewBox="0 0 12 12" fill="none" xmlns="http://www.w3.org/2000/svg">
<path d="M2 10.5V2.33337C2 2.10837 2.08263 1.91321 2.24788 1.74788C2.41321 1.58263 2.60838 1.5 2.83337 1.5H6.075C6.3 1.5 6.49513 1.58263 6.66038 1.74788C6.82571 1.91321 6.90837 2.10837 6.90837 2.33337V5.9H7.61663C7.82288 5.9 7.99946 5.97342 8.14638 6.12025C8.29321 6.26717 8.36663 6.44375 8.36663 6.65V9.225C8.36663 9.39267 8.42567 9.53321 8.54375 9.64662C8.66183 9.75996 8.80558 9.81663 8.975 9.81663C9.14442 9.81663 9.28817 9.75996 9.40625 9.64662C9.52433 9.53321 9.58337 9.39267 9.58337 9.225V5.56663C9.49721 5.61388 9.40692 5.64792 9.3125 5.66875C9.21808 5.68958 9.12225 5.7 9.025 5.7C8.689 5.7 8.405 5.584 8.173 5.352C7.941 5.12 7.825 4.836 7.825 4.5C7.825 4.2355 7.89929 3.99783 8.04788 3.787C8.19654 3.57625 8.39446 3.43337 8.64163 3.35837L7.5 2.21663L7.975 1.75L9.86663 3.625C9.98613 3.74442 10.0799 3.87775 10.1479 4.025C10.216 4.17225 10.25 4.33058 10.25 4.5V9.225C10.25 9.582 10.1269 9.88375 9.88075 10.1302C9.6345 10.3767 9.33308 10.5 8.9765 10.5C8.61992 10.5 8.31804 10.3767 8.07087 10.1302C7.82363 9.88375 7.7 9.582 7.7 9.225V6.56663H6.90837V10.5H2ZM2.83337 5.06663H6.075V2.33337H2.83337V5.06663ZM9.025 5.03337C9.17225 5.03337 9.29796 4.98129 9.40212 4.87712C9.50629 4.77296 9.55837 4.64725 9.55837 4.5C9.55837 4.35275 9.50629 4.22704 9.40212 4.12288C9.29796 4.01871 9.17225 3.96663 9.025 3.96663C8.87775 3.96663 8.75204 4.01871 8.64788 4.12288C8.54371 4.22704 8.49163 4.35275 8.49163 4.5C8.49163 4.64725 8.54371 4.77296 8.64788 4.87712C8.75204 4.98129 8.87775 5.03337 9.025 5.03337Z" fill="#4989FF"/>
</svg>
