<svg xmlns="http://www.w3.org/2000/svg" width="24" height="22" viewBox="0 0 24 22">
  <g>
    <path
      fill="rgb(155,163,174)"
      fill-rule="evenodd"
      d="M15 10h-1c-1.1045695 0-2-.8954305-2-2V2c0-1.1045695.8954305-2 2-2h8c1.1045695 0 2 .8954305 2 2v6c0 1.1045695-.8954305 2-2 2h-3l-4 3v-3z"
    />
    <path
      fill="rgb(155,163,174)"
      fill-rule="evenodd"
      d="M21 22H1c-.55228475 0-1-.44771525-1-1V5c0-.55228475.44771525-1 1-1h9v2H2v14h18v-8h2v9c0 .55228475-.44771525 1-1 1z"
    />
    <ellipse cx="8" cy="11" fill="rgb(155,163,174)" rx="2" ry="2" />
    <path
      fill="rgb(155,163,174)"
      fill-rule="evenodd"
      d="M8 14c2.209139 0 4 1.790861 4 4H4c0-2.209139 1.790861-4 4-4z"
    />
  </g>
</svg>