<svg xmlns="http://www.w3.org/2000/svg" width="20.13" height="20.13" viewBox="0 0 20.13 20.13">
  <path
    fill="rgb(155,163,174)"
    fill-rule="evenodd"
    d="M10.0652174.0652174c-5.51416684 0-10 4.48583316-10 10 0 5.51416682 4.48583316 10 10 10 5.51416682 0 10-4.48583318 10-10 0-5.51416684-4.48583318-10-10-10zm1.70750045 9.82999992c.72166634-.5149994 1.2108326-.97833348 1.46833324-1.3908329.59249974-.94833375.58583355-2.57916737-.55250072-3.50666714-1.55083275-1.26250005-4.38749981-.80666685-6.18499947.20083332l.84249974 1.6916666q1.48375034-.7574997 2.64249992-.7574997c.75750065 0 1.40583324.26999951 1.40583324 1.02750016 0 .80833292-.65499973 1.27250004-1.3291664 1.7541666-.5616665.41166687-.94833375.80083275-1.15916634 1.16666603-.3175621.54931736-.3171835 1.00448895-.31670475 1.58235455.00001907.02263355.00003814.04545498.00003814.06847858h2.04749966l-.00004292-.06028747c-.00079345-.73189068-.00101375-.93568135 1.13587666-1.77637863zM9.6485504 15.8985504c-.68999958 0-1.25-.56000042-1.25-1.25s.56000042-1.25 1.25-1.25 1.25.56000042 1.25 1.25-.56000042 1.25-1.25 1.25z"
  />
</svg>