<svg width="60" height="60" viewBox="0 0 60 60" fill="none" xmlns="http://www.w3.org/2000/svg">
<circle cx="30" cy="30" r="30" fill="#2240C4"/>
<path d="M40.5 26.5H33.5V33.5H35.8333V35.2092L31.1667 38.3207V21.8333H34.6667L30.049 16L25.3333 21.8333H28.8333V37.154L24.1667 34.0425V30.952C25.7253 30.3955 26.7858 28.7808 26.4312 26.9667C26.1628 25.5958 25.0335 24.4805 23.6592 24.2273C21.4413 23.8202 19.5 25.5212 19.5 27.6667C19.5 29.1857 20.4788 30.469 21.8333 30.952V34.6667C21.8333 35.0563 22.0282 35.4215 22.3525 35.6373L28.8333 39.9575V44H31.1667V41.1242L37.6475 36.804C37.9718 36.5882 38.1667 36.223 38.1667 35.8333V33.5H40.5V26.5Z" fill="white"/>
</svg>
