<svg width="60" height="60" viewBox="0 0 60 60" fill="none" xmlns="http://www.w3.org/2000/svg">
<circle cx="30" cy="30" r="30" fill="#2FCFA4"/>
<path d="M22.8826 40.1583C22.045 38.7076 22.5421 36.8526 23.9928 36.015L40.9884 26.2025C41.4921 25.9118 42.1361 26.0843 42.4269 26.588L44.407 30.0176C44.6978 30.5212 44.5252 31.1653 44.0215 31.456L27.0259 41.2685C25.5752 42.1061 23.7201 41.609 22.8826 40.1583Z" stroke="white" stroke-width="2"/>
<path fill-rule="evenodd" clip-rule="evenodd" d="M25.3356 42.7111C23.1082 42.7111 21.3025 40.9054 21.3025 38.6779V19.053C21.3025 17.9192 22.2217 17 23.3556 17H27.3157C28.4495 17 29.3687 17.9192 29.3687 19.053L29.3687 38.6779C29.3687 40.9054 27.563 42.7111 25.3356 42.7111ZM27.8563 21.0331C27.8563 22.4252 26.7278 23.5538 25.3356 23.5538C23.9435 23.5538 22.8149 22.4252 22.8149 21.0331C22.8149 19.6409 23.9435 18.5124 25.3356 18.5124C26.7278 18.5124 27.8563 19.6409 27.8563 21.0331ZM25.3356 23.0496C26.4493 23.0496 27.3522 22.1468 27.3522 21.0331C27.3522 19.9194 26.4493 19.0165 25.3356 19.0165C24.2219 19.0165 23.3191 19.9194 23.3191 21.0331C23.3191 22.1468 24.2219 23.0496 25.3356 23.0496ZM25.3356 40.6945C26.4493 40.6945 27.3522 39.7916 27.3522 38.6779C27.3522 37.5642 26.4493 36.6614 25.3356 36.6614C24.2219 36.6614 23.3191 37.5642 23.3191 38.6779C23.3191 39.7916 24.2219 40.6945 25.3356 40.6945Z" fill="white"/>
</svg>
