<svg width="28" height="28" viewBox="0 0 28 28" fill="none" xmlns="http://www.w3.org/2000/svg">
<g clip-path="url(#clip0_1026_3584)">
<path d="M22.8125 15.8748V12.1248H19.0625V10.8748H22.8125V7.12484H24.0625V10.8748H27.8125V12.1248H24.0625V15.8748H22.8125ZM11.25 13.2305C10.2188 13.2305 9.33594 12.8633 8.60156 12.1289C7.86719 11.3945 7.5 10.5117 7.5 9.48047C7.5 8.44922 7.86719 7.56641 8.60156 6.83203C9.33594 6.09766 10.2188 5.73047 11.25 5.73047C12.2812 5.73047 13.1641 6.09766 13.8984 6.83203C14.6328 7.56641 15 8.44922 15 9.48047C15 10.5117 14.6328 11.3945 13.8984 12.1289C13.1641 12.8633 12.2812 13.2305 11.25 13.2305ZM2.5 22.2692V20.2114C2.5 19.6954 2.65021 19.2126 2.95062 18.763C3.25125 18.3136 3.65552 17.9646 4.16344 17.7161C5.34302 17.1505 6.52333 16.7262 7.70437 16.4433C8.88542 16.1606 10.0673 16.0192 11.25 16.0192C12.4327 16.0192 13.6146 16.1606 14.7956 16.4433C15.9767 16.7262 17.157 17.1505 18.3366 17.7161C18.8445 17.9646 19.2488 18.3136 19.5494 18.763C19.8498 19.2126 20 19.6954 20 20.2114V22.2692H2.5Z" fill="#2240C4"/>
</g>
<defs>
<clipPath id="clip0_1026_3584">
<rect width="28" height="28" fill="white"/>
</clipPath>
</defs>
</svg>
