<svg width="16" height="16" viewBox="0 0 16 16" fill="none" xmlns="http://www.w3.org/2000/svg">
<mask id="mask0_827_26731" style="mask-type:alpha" maskUnits="userSpaceOnUse" x="0" y="0" width="16" height="16">
<rect width="16" height="16" fill="#D9D9D9"/>
</mask>
<g mask="url(#mask0_827_26731)">
<path d="M7.99989 11.3315C8.18877 11.3315 8.34711 11.2676 8.47488 11.1398C8.60266 11.0121 8.66655 10.8537 8.66655 10.6648C8.66655 10.476 8.60266 10.3176 8.47488 10.1898C8.34711 10.0621 8.18877 9.99818 7.99989 9.99818C7.811 9.99818 7.65266 10.0621 7.52489 10.1898C7.39711 10.3176 7.33322 10.476 7.33322 10.6648C7.33322 10.8537 7.39711 11.0121 7.52489 11.1398C7.65266 11.2676 7.811 11.3315 7.99989 11.3315ZM7.33322 8.66484H8.66655V4.66484H7.33322V8.66484ZM7.99989 15.5315L5.76655 13.3315H2.66655V10.2315L0.466553 7.99818L2.66655 5.76484V2.66484H5.76655L7.99989 0.464844L10.2332 2.66484H13.3332V5.76484L15.5332 7.99818L13.3332 10.2315V13.3315H10.2332L7.99989 15.5315ZM7.99989 13.6648L9.66655 11.9982H11.9999V9.66484L13.6666 7.99818L11.9999 6.33151V3.99818H9.66655L7.99989 2.33151L6.33322 3.99818H3.99989V6.33151L2.33322 7.99818L3.99989 9.66484V11.9982H6.33322L7.99989 13.6648Z" fill="#B51B16"/>
</g>
</svg>
