<svg width="30" height="30" viewBox="0 0 30 30" fill="none" xmlns="http://www.w3.org/2000/svg">
<circle cx="15" cy="15" r="15" fill="#2240C4"/>
<path fill-rule="evenodd" clip-rule="evenodd" d="M18.8461 8L13.994 12.878C11.9458 12.2691 9.74769 13.1349 8.65607 14.9805C7.56444 16.8262 7.85754 19.1812 9.36784 20.6995C10.8781 22.2179 13.2206 22.5125 15.0565 21.4151C16.8923 20.3177 17.7536 18.1079 17.1479 16.0487L18.5047 14.6847V12.6853H20.4935L22 11.1708V8H18.8461ZM12.6792 19.1275C11.714 19.1275 10.9315 18.3409 10.9315 17.3706C10.9315 16.4002 11.714 15.6136 12.6792 15.6136C13.6444 15.6136 14.4269 16.4002 14.4269 17.3706C14.4269 18.3409 13.6444 19.1275 12.6792 19.1275Z" fill="white"/>
</svg>
