<svg width="17" height="17" viewBox="0 0 17 17" fill="none" xmlns="http://www.w3.org/2000/svg">
<path fill-rule="evenodd" clip-rule="evenodd" d="M13.3178 0H16.7168C16.8731 0 16.9998 0.126643 17 0.282967V3.68197C17 3.75709 16.9701 3.82913 16.917 3.88223L15.784 5.01524C15.7309 5.06836 15.6589 5.09821 15.5838 5.09823H13.601V7.08098C13.601 7.23742 13.4742 7.36423 13.3178 7.36423H11.3351V9.34699C11.3351 9.42109 11.3061 9.49228 11.2543 9.54526L10.1259 10.6995C10.6484 12.9309 9.62778 15.2382 7.62526 16.3525C5.62274 17.4669 3.12405 17.118 1.50334 15.4977C-0.117368 13.8775 -0.466989 11.3788 0.646751 9.37597C1.76049 7.37309 4.06746 6.35175 6.29893 6.87364L13.1195 0.0824259C13.1722 0.0299932 13.2434 0.000388266 13.3178 0ZM3.1209 12.3214C3.1209 13.1818 3.81838 13.8793 4.67876 13.8793C5.53914 13.8793 6.23662 13.1818 6.23662 12.3214C6.23662 11.461 5.53914 10.7635 4.67876 10.7635C3.81838 10.7635 3.1209 11.461 3.1209 12.3214Z" fill="#9BA3AE"/>
</svg>
