<svg width="272px" height="229px" viewBox="0 0 272 229" version="1.1" xmlns="http://www.w3.org/2000/svg" xmlns:xlink="http://www.w3.org/1999/xlink">
    <title>Group 5</title>
    <defs>
        <linearGradient x1="0%" y1="49.993965%" x2="100%" y2="49.993965%" id="linearGradient-1">
            <stop stop-color="#4F6EF7" stop-opacity="0" offset="13%"></stop>
            <stop stop-color="#4F6EF7" stop-opacity="0.04" offset="22%"></stop>
            <stop stop-color="#4F6EF7" stop-opacity="0.14" offset="36%"></stop>
            <stop stop-color="#4F6EF7" stop-opacity="0.3" offset="55%"></stop>
            <stop stop-color="#4F6EF7" stop-opacity="0.52" offset="76%"></stop>
            <stop stop-color="#4F6EF7" stop-opacity="0.8" offset="99%"></stop>
        </linearGradient>
        <linearGradient x1="50%" y1="12.7200118%" x2="50%" y2="84.4327762%" id="linearGradient-2">
            <stop stop-color="#3753E3" offset="0%"></stop>
            <stop stop-color="#474CF2" offset="47%"></stop>
            <stop stop-color="#5447FF" offset="100%"></stop>
        </linearGradient>
        <linearGradient x1="50%" y1="12.7187865%" x2="50%" y2="84.4383155%" id="linearGradient-3">
            <stop stop-color="#3753E3" offset="0%"></stop>
            <stop stop-color="#474CF2" offset="47%"></stop>
            <stop stop-color="#5447FF" offset="100%"></stop>
        </linearGradient>
        <linearGradient x1="49.9934175%" y1="3.51892759%" x2="49.9934175%" y2="105.895361%" id="linearGradient-4">
            <stop stop-color="#2FCFA4" offset="0%"></stop>
            <stop stop-color="#2CBF96" offset="30%"></stop>
            <stop stop-color="#29B28B" offset="64%"></stop>
        </linearGradient>
        <linearGradient x1="63.2681606%" y1="15.1726759%" x2="21.0178444%" y2="87.4839802%" id="linearGradient-5">
            <stop stop-color="#227F66" offset="0%"></stop>
            <stop stop-color="#126852" offset="86%"></stop>
        </linearGradient>
        <linearGradient x1="50.1434783%" y1="-0.307103716%" x2="50.1434783%" y2="108.720926%" id="linearGradient-6">
            <stop stop-color="#2FCFA4" offset="0%"></stop>
            <stop stop-color="#2ECAA0" offset="5%"></stop>
            <stop stop-color="#25A77F" offset="43%"></stop>
            <stop stop-color="#229A73" offset="64%"></stop>
        </linearGradient>
        <linearGradient x1="50.0148622%" y1="10.7401299%" x2="50.0148622%" y2="130.445083%" id="linearGradient-7">
            <stop stop-color="#2FCFA4" offset="0%"></stop>
            <stop stop-color="#2CBF96" offset="30%"></stop>
            <stop stop-color="#29B28B" offset="64%"></stop>
        </linearGradient>
        <linearGradient x1="20.9186071%" y1="94.202401%" x2="57.7302801%" y2="51.0800557%" id="linearGradient-8">
            <stop stop-color="#3B8A72" offset="0%"></stop>
            <stop stop-color="#0B7A5A" offset="49%"></stop>
        </linearGradient>
    </defs>
    <g id="Easy-Route" stroke="none" stroke-width="1" fill="none" fill-rule="evenodd">
        <g id="Card---Refer-Friend---Simple" transform="translate(-23.000000, -114.000000)">
            <g id="Group-5" transform="translate(23.934783, 114.000000)">
                <g id="present3-2" transform="translate(0.000000, 33.000000)" fill-rule="nonzero">
                    <g id="present3" transform="translate(0.065217, 0.000000)">
                        <polygon id="Path" fill="url(#linearGradient-1)" points="167.74248 195.418894 57.62304 195.418894 0 154.613467 57.62304 113.817889 167.74248 113.817889"></polygon>
                        <polygon id="Path" fill="#0E1744" points="90.00648 149.245628 90.00648 62.2373869 167.74248 108.410653 167.74248 195.418894"></polygon>
                        <polygon id="Path" fill="url(#linearGradient-2)" points="245.47848 149.245628 245.47848 62.2373869 167.74248 108.410653 167.74248 195.418894"></polygon>
                        <polygon id="Path" fill="url(#linearGradient-3)" points="90.00648 62.2373869 167.74248 15.561809 245.47848 62.2373869 167.74248 108.410653"></polygon>
                        <polygon id="Path" fill="#22A079" points="193.32648 180.260905 219.56976 164.669548 219.56976 77.6613065 193.32648 93.2526633"></polygon>
                        <polygon id="Path" fill="#29B28B" points="115.93488 46.5573869 193.32648 93.2526633 219.56976 77.6613065 142.06992 30.7394975"></polygon>
                        <polygon id="Path" fill="#127051" points="141.83376 180.123015 115.59048 164.541508 115.59048 77.5332663 141.83376 93.1147739"></polygon>
                        <polygon id="Path" fill="#127051" points="219.56976 46.5573869 142.17816 93.2526633 115.93488 77.6613065 193.43472 30.7394975"></polygon>
                        <polygon id="Path" fill="#2FCFA4" points="213.54768 38.8060302 224.61768 39.7417085 184.1064 61.7941709"></polygon>
                        <polygon id="Path" fill="#29B28B" points="224.61768 39.7417085 224.73576 42.6866332 184.21464 64.7390955 184.1064 61.7941709"></polygon>
                        <path d="M184.77552,62.1487437 L170.01552,50.841809 C170.01552,50.841809 163.80648,27.4596985 173.37096,11.878191 C182.93544,-3.70331658 193.92672,0.52201005 193.92672,0.52201005 L215.57472,15.1579899 L184.77552,62.1487437 Z" id="Path" fill="url(#linearGradient-4)"></path>
                        <path d="M184.77552,62.1487437 C184.77552,62.1487437 178.23192,26.5929648 196.3572,15.9065327 C214.48248,5.2201005 229.59672,21.7372864 216.22416,39.2196985 C208.150705,49.7188705 197.23541,57.6771568 184.77552,62.1487437 Z" id="Path" fill="#29B28B"></path>
                        <path d="M191.29944,52.0631156 C191.29944,52.0631156 187.14696,29.478794 198.64992,22.7222111 C210.15288,15.9656281 219.74688,26.4255276 211.25496,37.4960804 C206.133892,44.1642059 199.207598,49.2202289 191.29944,52.0631156 L191.29944,52.0631156 Z" id="Path" fill="url(#linearGradient-5)"></path>
                        <path d="M169.16928,45.158794 C174.0204,43.9473367 183.03384,45.0701508 184.91328,52.319196 C186.79272,59.5682412 185.96616,63.5768844 185.3856,64.2072362 C184.80504,64.8375879 167.46696,74.6671357 167.46696,74.6671357 L159.408,51.2160804 C159.408,51.2160804 164.328,46.3702513 169.16928,45.158794 Z" id="Path" fill="url(#linearGradient-6)"></path>
                        <polygon id="Path" fill="#2FCFA4" points="127.21152 77.5037186 112.93368 87.441608 127.54608 85.8558794 129.21888 97.4188945 167.34888 71.4464322"></polygon>
                        <polygon id="Path" fill="#29B28B" points="112.93368 87.441608 113.0616 90.6721608 128.00856 89.0470352 127.54608 85.8558794"></polygon>
                        <polygon id="Path" fill="#29B28B" points="129.21888 97.4188945 129.3468 100.639598 167.4768 74.6671357 166.8864 71.761608"></polygon>
                        <path d="M126.936,80.2713568 L110.28672,71.5350754 C110.28672,71.5350754 102.26712,53.638995 115.5216,38.4120603 C128.77608,23.1851256 135.48696,27.7650251 135.48696,27.7650251 L151.8804,37.9885427 L126.936,80.2713568 Z" id="Path" fill="url(#linearGradient-7)"></path>
                        <path d="M167.28,73.9382915 C167.28,73.9382915 162.77328,27.2036181 142.94568,38.5893467 C123.11808,49.9750754 119.76264,68.4621106 127.15248,80.0054271 C134.54232,91.5487437 167.28,73.9382915 167.28,73.9382915 Z" id="Path" fill="#29B28B"></path>
                        <path d="M159.654,69.4470352 C159.654,69.4470352 157.12512,43.2086432 145.99608,49.600804 C134.86704,55.9929648 132.97776,66.3445226 137.14008,72.8548744 C141.3024,79.3652261 159.654,69.4470352 159.654,69.4470352 Z" id="Path" fill="url(#linearGradient-8)"></path>
                        <path d="M159.63432,69.200804 C159.34896,66.6203015 156.5052,43.5927638 145.99608,49.600804 C143.306337,51.1105925 140.925919,53.1156318 138.98016,55.5103518 L159.63432,69.200804 Z" id="Path" fill="#127051"></path>
                    </g>
                </g>
                <circle id="Oval" stroke="#DBDBDB" stroke-width="3" cx="247.065217" cy="71" r="5.5"></circle>
                <circle id="Oval" stroke="#DBDBDB" stroke-width="3" cx="192.065217" cy="19" r="5.5"></circle>
                <circle id="Oval" stroke="#DBDBDB" stroke-width="3" cx="126.065217" cy="48" r="5.5"></circle>
                <circle id="Oval" fill="#BEBDBD" cx="128.065217" cy="16" r="5"></circle>
                <circle id="Oval" fill="#BEBDBD" cx="265.065217" cy="91" r="5"></circle>
                <circle id="Oval" fill="#BEBDBD" cx="229.065217" cy="19" r="5"></circle>
                <circle id="Oval" fill="#BEBDBD" cx="94.0652174" cy="68" r="5"></circle>
                <circle id="Oval" fill="#BEBDBD" cx="226.565217" cy="43.5" r="2.5"></circle>
                <circle id="Oval" fill="#BEBDBD" cx="160.565217" cy="2.5" r="2.5"></circle>
                <circle id="Oval" fill="#BEBDBD" cx="98.5652174" cy="41.5" r="2.5"></circle>
                <circle id="Oval" fill="#BEBDBD" cx="67.5652174" cy="51.5" r="2.5"></circle>
                <circle id="Oval" fill="#BEBDBD" cx="79.5652174" cy="98.5" r="2.5"></circle>
                <g id="Group-4" transform="translate(155.565217, 31.500000) rotate(-315.000000) translate(-155.565217, -31.500000) translate(150.065217, 26.000000)" fill="#DBDBDB">
                    <rect id="Rectangle" x="0" y="4" width="11" height="3" rx="1.5"></rect>
                    <rect id="Rectangle" x="4" y="0" width="3" height="11" rx="1.5"></rect>
                </g>
                <g id="Group-4" transform="translate(259.565217, 49.500000) rotate(-315.000000) translate(-259.565217, -49.500000) translate(254.065217, 44.000000)" fill="#DBDBDB">
                    <rect id="Rectangle" x="0" y="4" width="11" height="3" rx="1.5"></rect>
                    <rect id="Rectangle" x="4" y="0" width="3" height="11" rx="1.5"></rect>
                </g>
                <g id="Group-4" transform="translate(59.565217, 85.500000) rotate(-315.000000) translate(-59.565217, -85.500000) translate(54.065217, 80.000000)" fill="#DBDBDB">
                    <rect id="Rectangle" x="0" y="4" width="11" height="3" rx="1.5"></rect>
                    <rect id="Rectangle" x="4" y="0" width="3" height="11" rx="1.5"></rect>
                </g>
            </g>
        </g>
    </g>
</svg>
