<svg width="16" height="16" viewBox="0 0 16 16" fill="none" xmlns="http://www.w3.org/2000/svg">
<path fill-rule="evenodd" clip-rule="evenodd" d="M9.51531 6.09094C9.62792 6.36282 9.89319 6.54011 10.1875 6.54017C10.3804 6.54013 10.5655 6.46344 10.7019 6.32696L15.7957 1.23321C16.0715 0.947681 16.0676 0.493823 15.7869 0.213132C15.5062 -0.067558 15.0523 -0.0715019 14.7668 0.204268L9.67299 5.29802C9.46494 5.50613 9.40271 5.81907 9.51531 6.09094ZM5.61687 13.4699L4.45257 14.6341L5.24211 14.8779C5.33162 14.9085 7.85523 15.722 9.60822 13.969L13.9285 9.64954C15.6829 7.89511 14.8687 5.37225 14.8323 5.26528L14.595 4.49103L13.4308 5.65531L13.4468 5.70771C13.457 5.739 14.0107 7.50726 12.9003 8.61842L8.58073 12.9387C7.46883 14.0505 5.70055 13.4961 5.68309 13.4902L5.61687 13.4699ZM1.36573 11.5473L2.53003 10.383L2.50965 10.3168C2.50383 10.2994 1.94933 8.5311 3.06124 7.41921L7.38223 3.09825C8.49341 1.98781 10.2617 2.54157 10.293 2.55176L10.3454 2.56777L11.5097 1.40348L10.7354 1.16626C10.6284 1.12988 8.10555 0.315603 6.3511 2.07004L2.03229 6.38954C0.279297 8.14252 1.09285 10.6661 1.12341 10.7556L1.36573 11.5473ZM0.0554043 15.5508C0.168009 15.8226 0.433278 15.9999 0.727551 16C0.920529 16 1.10559 15.9233 1.24202 15.7868L6.33582 10.693C6.61159 10.4075 6.60765 9.95365 6.32696 9.67296C6.04626 9.39227 5.5924 9.38833 5.30687 9.6641L0.213078 14.7579C0.00502665 14.966 -0.0572006 15.2789 0.0554043 15.5508Z" fill="#9BA3AE"/>
</svg>
