<svg xmlns="http://www.w3.org/2000/svg" width="20" height="20" viewBox="0 0 15 20">
  <path
    fill="#9BA3AE"
    fill-rule="evenodd"
    d="M7.5 0c-2.75 0-5 2.25-5 5v1.875C1 8.25 0 10.25 0 12.5 0 16.625 3.375 20 7.5 20s7.5-3.375 7.5-7.5c0-2.25-1-4.25-2.5-5.625V5c0-2.75-2.25-5-5-5zm0 5c.875 0 1.75.125 2.5.5V5c0-1.375-1.125-2.5-2.5-2.5S5 3.625 5 5v.5c.75-.375 1.625-.5 2.5-.5zm2.5 6.25c0-1.375-1.125-2.5-2.5-2.5S5 9.875 5 11.25c0 .875.5 1.75 1.25 2.125v2.875h2.5v-2.875C9.5 13 10 12.125 10 11.25z"
  />
</svg>