<svg xmlns="http://www.w3.org/2000/svg" width="19" height="16" viewBox="0 0 19 16">
    <path fill="#9BA3AE"
          d="M9.12,5.05263158 L11.7894737,7.71368421 C11.7894737,7.67157895 11.7894737,7.62105263 11.7894737,7.57894737 C11.7894737,6.18370168 10.6584036,5.05263158 9.26315789,5.05263158 C9.21263158,5.05263158 9.17052632,5.05263158 9.12,5.05263158 L9.12,5.05263158 Z M5.49894737,5.72631579 L6.80421053,7.03157895 C6.76210526,7.20842105 6.73684211,7.38526316 6.73684211,7.57894737 C6.73684211,8.97419305 7.86791221,10.1052632 9.26315789,10.1052632 C9.44842105,10.1052632 9.63368421,10.08 9.81052632,10.0378947 L11.1157895,11.3431579 C10.5515789,11.6210526 9.92842105,11.7894737 9.26315789,11.7894737 C6.93774842,11.7894737 5.05263158,9.90435684 5.05263158,7.57894737 C5.05263158,6.91368421 5.22105263,6.29052632 5.49894737,5.72631579 L5.49894737,5.72631579 Z M0.842105263,1.06947368 L2.76210526,2.98947368 L3.14105263,3.36842105 C1.75157895,4.46315789 0.656842105,5.89473684 0,7.57894737 C1.45684211,11.2757895 5.05263158,13.8947368 9.26315789,13.8947368 C10.5684211,13.8947368 11.8147368,13.6421053 12.9515789,13.1873684 L13.3136842,13.5410526 L15.7726316,16 L16.8421053,14.9305263 L1.91157895,0 L0.842105263,1.06947368 Z M9.26315789,3.36842105 C11.5885674,3.36842105 13.4736842,5.2535379 13.4736842,7.57894737 C13.4736842,8.11789474 13.3642105,8.64 13.1705263,9.11157895 L15.6378947,11.5789474 C16.9010526,10.5263158 17.9115789,9.14526316 18.5263158,7.57894737 C17.0694737,3.88210526 13.4736842,1.26315789 9.26315789,1.26315789 C8.08421053,1.26315789 6.95578947,1.47368421 5.89473684,1.85263158 L7.72210526,3.66315789 C8.20210526,3.47789474 8.71578947,3.36842105 9.26315789,3.36842105 Z"
          transform="translate(.44)"/>
</svg>
