<svg xmlns="http://www.w3.org/2000/svg" width="20" height="14" viewBox="0 0 20 14">
    <path fill="#9BA3AE"
          d="M9.77777778,4.44444444 C8.30501844,4.44444444 7.11111111,5.63835178 7.11111111,7.11111111 C7.11111111,8.58387044 8.30501844,9.77777778 9.77777778,9.77777778 C11.2505371,9.77777778 12.4444444,8.58387044 12.4444444,7.11111111 C12.4444444,5.63835178 11.2505371,4.44444444 9.77777778,4.44444444 L9.77777778,4.44444444 Z M9.77777778,11.5555556 C7.32317889,11.5555556 5.33333333,9.56571 5.33333333,7.11111111 C5.33333333,4.65651222 7.32317889,2.66666667 9.77777778,2.66666667 C12.2323767,2.66666667 14.2222222,4.65651222 14.2222222,7.11111111 C14.2222222,9.56571 12.2323767,11.5555556 9.77777778,11.5555556 L9.77777778,11.5555556 Z M9.77777778,0.444444444 C5.33333333,0.444444444 1.53777778,3.20888889 0,7.11111111 C1.53777778,11.0133333 5.33333333,13.7777778 9.77777778,13.7777778 C14.2222222,13.7777778 18.0177778,11.0133333 19.5555556,7.11111111 C18.0177778,3.20888889 14.2222222,0.444444444 9.77777778,0.444444444 Z"
          transform="translate(.44)"/>
</svg>
