<svg width="34" height="34" viewBox="0 0 34 34" fill="none" xmlns="http://www.w3.org/2000/svg">
<circle cx="17" cy="17" r="16.5" stroke="#E1E4E7"/>
<path d="M21.5767 23.2124H11.3067C10.6703 23.2124 10.0811 23.1055 9.53911 22.8917C8.99715 22.6779 8.52231 22.387 8.11459 22.0191C7.71185 21.6462 7.3986 21.2161 7.17485 20.7288C6.95111 20.2415 6.83923 19.7244 6.83923 19.1775C6.83923 18.5709 6.94862 18.0115 7.1674 17.4994C7.39114 16.9873 7.70687 16.5622 8.11459 16.224C8.52728 15.8859 9.01455 15.6721 9.57641 15.5826C9.58635 15.0606 9.70568 14.5907 9.9344 14.173C10.1631 13.7504 10.4639 13.4023 10.8368 13.1289C11.2098 12.8504 11.6224 12.6665 12.0749 12.577C12.5324 12.4825 12.9898 12.5024 13.4472 12.6366C13.7456 12.1991 14.1036 11.8013 14.5212 11.4433C14.9438 11.0804 15.4261 10.792 15.9681 10.5782C16.515 10.3594 17.1266 10.25 17.8028 10.25C18.5686 10.25 19.2796 10.3917 19.9359 10.6751C20.5972 10.9536 21.174 11.3513 21.6662 11.8684C22.1634 12.3806 22.5488 12.9872 22.8222 13.6882C23.0957 14.3843 23.2324 15.1476 23.2324 15.9779C23.7197 16.1818 24.1399 16.4627 24.4929 16.8207C24.8459 17.1737 25.1169 17.5814 25.3058 18.0439C25.4948 18.5013 25.5892 18.9911 25.5892 19.5131C25.5892 20.0253 25.4873 20.5051 25.2834 20.9526C25.0796 21.4001 24.7937 21.7929 24.4258 22.131C24.0628 22.4691 23.6377 22.7326 23.1504 22.9215C22.6631 23.1155 22.1386 23.2124 21.5767 23.2124ZM20.4356 17.5964C20.4356 17.1737 20.3337 16.7884 20.1298 16.4403C19.926 16.0923 19.65 15.8163 19.3019 15.6125C18.9589 15.4086 18.576 15.3067 18.1534 15.3067C17.6711 15.3067 17.2335 15.4409 16.8407 15.7094C16.4529 15.973 16.1745 16.3285 16.0054 16.776H12.4627C12.3782 16.776 12.3011 16.8083 12.2315 16.8729L11.6349 17.4696C11.6001 17.5044 11.5827 17.5466 11.5827 17.5964C11.5827 17.6411 11.6001 17.6834 11.6349 17.7232L12.7611 18.8568C12.8008 18.9016 12.8456 18.9239 12.8953 18.9239C12.945 18.9239 12.9873 18.9016 13.0221 18.8568L13.7232 18.1483L14.6928 19.1253C14.7226 19.1651 14.7599 19.1825 14.8046 19.1775C14.8544 19.1725 14.9016 19.1502 14.9463 19.1104L15.9084 18.1557C16.1272 18.7126 16.433 19.1402 16.8258 19.4385C17.2186 19.7319 17.6611 19.8786 18.1534 19.8786C18.571 19.8786 18.9539 19.7767 19.3019 19.5728C19.65 19.3689 19.926 19.0955 20.1298 18.7524C20.3337 18.4043 20.4356 18.019 20.4356 17.5964ZM19.3392 17.5889C19.3392 17.7828 19.2696 17.9494 19.1304 18.0886C18.9912 18.2229 18.8271 18.29 18.6382 18.29C18.4343 18.29 18.2652 18.2229 18.131 18.0886C17.9968 17.9494 17.9296 17.7828 17.9296 17.5889C17.9296 17.395 17.9968 17.2309 18.131 17.0967C18.2652 16.9574 18.4343 16.8878 18.6382 16.8878C18.8271 16.8878 18.9912 16.955 19.1304 17.0892C19.2696 17.2234 19.3392 17.39 19.3392 17.5889Z" fill="#606367"/>
</svg>
