<svg width="13" height="13" viewBox="0 0 13 13" fill="none" xmlns="http://www.w3.org/2000/svg">
<path d="M1.61572 10.7704V9.26228C1.61572 8.95705 1.69427 8.67652 1.85137 8.42067C2.00847 8.16482 2.21719 7.96956 2.47753 7.8349C3.03412 7.55661 3.59968 7.34789 4.17422 7.20875C4.74876 7.0696 5.33228 7.00003 5.92477 7.00003C6.10432 7.00003 6.28386 7.00676 6.4634 7.02022C6.64295 7.03369 6.82249 7.05389 7.00204 7.08082C6.96613 7.6015 7.06039 8.093 7.28482 8.55532C7.50925 9.01765 7.83691 9.39694 8.26782 9.69318V10.7704H1.61572ZM10.2338 12.3863L9.42588 11.5784V9.07376C9.03088 8.95705 8.7077 8.73487 8.45634 8.4072C8.20498 8.07953 8.0793 7.70025 8.0793 7.26934C8.0793 6.74866 8.26333 6.30429 8.6314 5.93623C8.99946 5.56816 9.44383 5.38413 9.96451 5.38413C10.4852 5.38413 10.9296 5.56816 11.2976 5.93623C11.6657 6.30429 11.8497 6.74866 11.8497 7.26934C11.8497 7.67332 11.7353 8.0324 11.5063 8.3466C11.2774 8.66081 10.9879 8.88524 10.6378 9.01989L11.3111 9.69318L10.5031 10.5011L11.3111 11.3091L10.2338 12.3863ZM5.92477 6.46139C5.33228 6.46139 4.82507 6.25043 4.40314 5.8285C3.98121 5.40657 3.77025 4.89936 3.77025 4.30687C3.77025 3.71437 3.98121 3.20716 4.40314 2.78524C4.82507 2.36331 5.33228 2.15234 5.92477 2.15234C6.51727 2.15234 7.02448 2.36331 7.44641 2.78524C7.86833 3.20716 8.0793 3.71437 8.0793 4.30687C8.0793 4.89936 7.86833 5.40657 7.44641 5.8285C7.02448 6.25043 6.51727 6.46139 5.92477 6.46139ZM9.96451 7.53866C10.1171 7.53866 10.245 7.48704 10.3483 7.3838C10.4515 7.28056 10.5031 7.15264 10.5031 7.00003C10.5031 6.84741 10.4515 6.71949 10.3483 6.61625C10.245 6.51301 10.1171 6.46139 9.96451 6.46139C9.8119 6.46139 9.68397 6.51301 9.58073 6.61625C9.4775 6.71949 9.42588 6.84741 9.42588 7.00003C9.42588 7.15264 9.4775 7.28056 9.58073 7.3838C9.68397 7.48704 9.8119 7.53866 9.96451 7.53866Z" fill="#4989FF"/>
</svg>
