<svg width="36" height="36" viewBox="0 0 36 36" fill="none" xmlns="http://www.w3.org/2000/svg">
<path d="M6 28.4985V26.0291C6 25.4098 6.18025 24.8306 6.54075 24.2913C6.9015 23.7518 7.38662 23.3331 7.99612 23.0351C9.41162 22.3561 10.828 21.847 12.2453 21.5077C13.6625 21.1682 15.0808 20.9985 16.5 20.9985C17.053 20.9985 17.6059 21.0268 18.1586 21.0836C18.7116 21.1403 19.2645 21.2255 19.8173 21.339C19.8328 22.462 20.0905 23.5133 20.5905 24.4931C21.0905 25.4728 21.777 26.308 22.65 26.9985V28.4985H6ZM28.0384 32.0756L26.2879 30.3401V24.96C25.4319 24.7095 24.7356 24.2288 24.1991 23.5181C23.6626 22.8076 23.3944 21.9966 23.3944 21.0851C23.3944 19.9616 23.7914 19.0028 24.5854 18.2088C25.3794 17.4148 26.338 17.0178 27.4613 17.0178C28.5845 17.0178 29.5385 17.4152 30.3233 18.21C31.1077 19.0047 31.5 19.9643 31.5 21.0888C31.5 21.9613 31.2581 22.7293 30.7744 23.3928C30.2909 24.0561 29.6674 24.5368 28.9039 24.8351L30.3461 26.2773L28.6155 28.0166L30.3461 29.7562L28.0384 32.0756ZM16.5 17.6523C15.2625 17.6523 14.2031 17.2117 13.3219 16.3305C12.4406 15.4492 12 14.3898 12 13.1523C12 11.9148 12.4406 10.8555 13.3219 9.97422C14.2031 9.09297 15.2625 8.65234 16.5 8.65234C17.7375 8.65234 18.7969 9.09297 19.6781 9.97422C20.5594 10.8555 21 11.9148 21 13.1523C21 14.3898 20.5594 15.4492 19.6781 16.3305C18.7969 17.2117 17.7375 17.6523 16.5 17.6523ZM27.4616 21.6618C27.7711 21.6618 28.0408 21.5422 28.2705 21.303C28.5005 21.0635 28.6155 20.7888 28.6155 20.4791C28.6155 20.1696 28.5005 19.9 28.2705 19.6702C28.0408 19.4402 27.7711 19.3252 27.4616 19.3252C27.1519 19.3252 26.8774 19.4402 26.6381 19.6702C26.3986 19.9 26.2789 20.1696 26.2789 20.4791C26.2789 20.7888 26.3986 21.0635 26.6381 21.303C26.8774 21.5422 27.1519 21.6618 27.4616 21.6618Z" fill="#2240C4"/>
</svg>
