<svg width="31" height="30" viewBox="0 0 31 30" fill="none" xmlns="http://www.w3.org/2000/svg">
<path d="M15.002 8C17.208 8 19.002 6.20557 19.002 4C19.002 1.79443 17.208 0 15.002 0C12.7959 0 11.002 1.79443 11.002 4C11.002 6.20557 12.7959 8 15.002 8Z" fill="#4F6EF7"/>
<path d="M26.002 8C28.208 8 30.002 6.20557 30.002 4C30.002 1.79443 28.208 0 26.002 0C23.7959 0 22.002 1.79443 22.002 4C22.002 6.20557 23.7959 8 26.002 8Z" fill="#4F6EF7"/>
<path d="M26.002 11C23.7959 11 22.002 12.7944 22.002 15C22.002 17.2056 23.7959 19 26.002 19C28.208 19 30.002 17.2056 30.002 15C30.002 12.7944 28.208 11 26.002 11Z" fill="#4F6EF7"/>
<path d="M4.00195 22C1.7959 22 0.00195312 23.7944 0.00195312 26C0.00195312 28.2056 1.7959 30 4.00195 30C6.208 30 8.00195 28.2056 8.00195 26C8.00195 23.7944 6.208 22 4.00195 22Z" fill="#4F6EF7"/>
<path d="M26.002 22C24.1433 22 22.5911 23.2797 22.144 25H18.8599C18.4963 23.6012 17.4009 22.5056 16.002 22.142V18.858C17.7225 18.4108 19.002 16.8583 19.002 15C19.002 12.7944 17.208 11 15.002 11C13.1433 11 11.5911 12.2797 11.144 14H7.85992C7.49633 12.6012 6.40094 11.5056 5.00195 11.142V7.85803C6.72247 7.41083 8.00195 5.85834 8.00195 4C8.00195 1.79443 6.208 0 4.00195 0C1.7959 0 0.00195312 1.79443 0.00195312 4C0.00195312 5.85834 1.28143 7.41083 3.00195 7.85803V11.142C1.28143 11.5892 0.00195312 13.1417 0.00195312 15C0.00195312 17.2056 1.7959 19 4.00195 19C5.86065 19 7.41278 17.7203 7.85992 16H11.144C11.5076 17.3988 12.603 18.4944 14.002 18.858V22.142C12.2814 22.5892 11.002 24.1417 11.002 26C11.002 28.2056 12.7959 30 15.002 30C16.8607 30 18.4128 28.7203 18.8599 27H22.144C22.5911 28.7203 24.1433 30 26.002 30C28.208 30 30.002 28.2056 30.002 26C30.002 23.7944 28.208 22 26.002 22Z" fill="#4F6EF7"/>
</svg>
