<svg width="30" height="30" viewBox="0 0 30 30" fill="none" xmlns="http://www.w3.org/2000/svg">
<path d="M15 8C17.206 8 19 6.20557 19 4C19 1.79443 17.206 0 15 0C12.794 0 11 1.79443 11 4C11 6.20557 12.794 8 15 8Z" fill="#2240C4"/>
<path d="M26 8C28.206 8 30 6.20557 30 4C30 1.79443 28.206 0 26 0C23.794 0 22 1.79443 22 4C22 6.20557 23.794 8 26 8Z" fill="#2240C4"/>
<path d="M26 11C23.794 11 22 12.7944 22 15C22 17.2056 23.794 19 26 19C28.206 19 30 17.2056 30 15C30 12.7944 28.206 11 26 11Z" fill="#2240C4"/>
<path d="M4 22C1.79395 22 0 23.7944 0 26C0 28.2056 1.79395 30 4 30C6.20605 30 8 28.2056 8 26C8 23.7944 6.20605 22 4 22Z" fill="#2240C4"/>
<path d="M26 22C24.1413 22 22.5892 23.2797 22.142 25H18.858C18.4944 23.6012 17.399 22.5056 16 22.142V18.858C17.7205 18.4108 19 16.8583 19 15C19 12.7944 17.206 11 15 11C13.1413 11 11.5892 12.2797 11.142 14H7.85797C7.49438 12.6012 6.39899 11.5056 5 11.142V7.85803C6.72052 7.41083 8 5.85834 8 4C8 1.79443 6.20605 0 4 0C1.79395 0 0 1.79443 0 4C0 5.85834 1.27948 7.41083 3 7.85803V11.142C1.27948 11.5892 0 13.1417 0 15C0 17.2056 1.79395 19 4 19C5.8587 19 7.41083 17.7203 7.85797 16H11.142C11.5056 17.3988 12.601 18.4944 14 18.858V22.142C12.2795 22.5892 11 24.1417 11 26C11 28.2056 12.794 30 15 30C16.8587 30 18.4108 28.7203 18.858 27H22.142C22.5892 28.7203 24.1413 30 26 30C28.206 30 30 28.2056 30 26C30 23.7944 28.206 22 26 22Z" fill="#2240C4"/>
</svg>
