<svg width="20px" height="20px" viewBox="0 0 20 20" version="1.1" xmlns="http://www.w3.org/2000/svg" xmlns:xlink="http://www.w3.org/1999/xlink">
    <title>Group 6</title>
    <g id="Easy-Route" stroke="none" stroke-width="1" fill="none" fill-rule="evenodd">
        <g id="Card---Refer-Friend---Simple" transform="translate(-251.000000, -868.000000)" fill="#43D3AC" fill-rule="nonzero">
            <g id="Group-6" transform="translate(251.000000, 868.000000)">
                <polygon id="Path" points="8.19808468 7.93650794 1.93548387 14.0997024 1.93548387 18.28125 12.4470766 7.93650794"></polygon>
                <path d="M7.28578629,7.93650794 L2.25806452,7.93650794 C2.0797631,7.93650794 1.93548387,8.07865203 1.93548387,8.25396825 L1.93548387,13.2018849 L7.28578629,7.93650794 Z" id="Path"></path>
                <polygon id="Path" points="18.0645161 8.38541667 6.26260081 20 11.156754 20 18.0645161 13.2018849"></polygon>
                <path d="M12.0690524,20 L17.7419355,20 C17.9202369,20 18.0645161,19.8578559 18.0645161,19.6825397 L18.0645161,14.0997024 L12.0690524,20 Z" id="Path"></path>
                <path d="M17.6083669,7.93650794 L13.359375,7.93650794 L1.93548387,19.1790675 L1.93548387,19.6825397 C1.93548387,19.8578559 2.0797631,20 2.25806452,20 L5.35030242,20 L17.6083669,7.93650794 Z" id="Path"></path>
                <path d="M19.6774194,4.12698413 L15.8974137,4.12698413 C16.2448612,3.6948746 16.4516129,3.1457907 16.4516129,2.53968254 C16.4516129,1.11560641 15.3181704,2.2759572e-14 13.8709677,2.2759572e-14 C11.8617692,2.2759572e-14 10.6509104,1.52487133 10,2.75578575 C9.34908958,1.52487133 8.13823084,2.2759572e-14 6.12903226,2.2759572e-14 C4.68182965,2.2759572e-14 3.5483871,1.11560641 3.5483871,2.53968254 C3.5483871,3.1457907 3.75513877,3.6948746 4.10258632,4.12698413 L0.322580645,4.12698413 C0.144279226,4.12698413 0,4.26912822 0,4.44444444 L0,6.98412698 C0,7.15944321 0.144279226,7.3015873 0.322580645,7.3015873 L19.6774194,7.3015873 C19.8557208,7.3015873 20,7.15944321 20,6.98412698 L20,4.44444444 C20,4.26912822 19.8557208,4.12698413 19.6774194,4.12698413 Z M13.8709677,1.26984127 C14.6065398,1.26984127 15.1612903,1.81578622 15.1612903,2.53968254 C15.1612903,3.26357886 14.6065398,3.80952381 13.8709677,3.80952381 L10.9208039,3.80952381 C11.3564768,2.82164559 12.2920867,1.26984127 13.8709677,1.26984127 Z M6.12903226,1.26984127 C7.70791329,1.26984127 8.64383819,2.82195562 9.07919606,3.80952381 L6.12903226,3.80952381 C5.39346019,3.80952381 4.83870968,3.26357886 4.83870968,2.53968254 C4.83870968,1.81578622 5.39346019,1.26984127 6.12903226,1.26984127 Z" id="Shape"></path>
            </g>
        </g>
    </g>
</svg>