<svg width="24" height="24" viewBox="0 0 24 24" fill="none" xmlns="http://www.w3.org/2000/svg">
<path d="M4 7.64V4H7.64V5.3334H5.3334V7.64H4ZM4 20V16.36H5.3334V18.6666H7.64V20H4ZM16.36 20V18.6666H18.6666V16.36H20V20H16.36ZM18.6666 7.64V5.3334H16.36V4H20V7.64H18.6666ZM16.5066 16.52H17.7466V17.76H16.5066V16.52ZM16.5066 14.04H17.7466V15.28H16.5066V14.04ZM15.2666 15.28H16.5066V16.52H15.2666V15.28ZM14.0266 16.52H15.2666V17.76H14.0266V16.52ZM12.7866 15.28H14.0266V16.52H12.7866V15.28ZM15.2666 12.8H16.5066V14.04H15.2666V12.8ZM14.0266 14.04H15.2666V15.28H14.0266V14.04ZM12.7866 12.8H14.0266V14.04H12.7866V12.8ZM17.7466 6.24V11.2H12.7866V6.24H17.7466ZM11.2 12.8V17.76H6.24V12.8H11.2ZM11.2 6.24V11.2H6.24V6.24H11.2ZM10.1334 16.6934V13.8666H7.3066V16.6934H10.1334ZM10.1334 10.1334V7.3066H7.3066V10.1334H10.1334ZM16.68 10.1334V7.3066H13.8534V10.1334H16.68Z" fill="#9BA3AE"/>
</svg>
