<svg width="21" height="21" viewBox="0 0 21 21" fill="none" xmlns="http://www.w3.org/2000/svg">
<path fill-rule="evenodd" clip-rule="evenodd" d="M10.5 0C4.71012 0 0 4.71012 0 10.5C0 16.2899 4.71012 21 10.5 21C16.2899 21 21 16.2899 21 10.5C21 4.71012 16.2899 0 10.5 0ZM10.0625 16.625C9.338 16.625 8.75 16.037 8.75 15.3125C8.75 14.588 9.338 14 10.0625 14C10.787 14 11.375 14.588 11.375 15.3125C11.375 16.037 10.787 16.625 10.0625 16.625ZM12.2929 10.3215C13.0506 9.78075 13.5642 9.29425 13.8346 8.86112C14.4567 7.86538 14.4497 6.153 13.2545 5.17912C11.6261 3.8535 8.64762 4.33212 6.76025 5.39L7.64488 7.16625C8.6835 6.636 9.60837 6.37087 10.4195 6.37087C11.2149 6.37087 11.8956 6.65438 11.8956 7.44975C11.8956 8.29454 11.2143 8.78132 10.5099 9.28455L10.5 9.29163C9.91025 9.72388 9.50425 10.1325 9.28288 10.5166C8.94943 11.0934 8.94983 11.5713 8.95033 12.1781C8.95035 12.2019 8.95037 12.2258 8.95037 12.25H11.1002C11.1002 12.2285 11.1002 12.2074 11.1002 12.1867C11.0994 11.4182 11.0991 11.2042 12.2929 10.3215Z" fill="#2240C4"/>
</svg>
