<svg width="20" height="20" viewBox="0 0 20 20" fill="none" xmlns="http://www.w3.org/2000/svg">
<path fill-rule="evenodd" clip-rule="evenodd" d="M10 0C4.48583 0 0 4.48583 0 10C0 15.5142 4.48583 20 10 20C15.5142 20 20 15.5142 20 10C20 4.48583 15.5142 0 10 0ZM9.58333 15.8333C8.89333 15.8333 8.33333 15.2733 8.33333 14.5833C8.33333 13.8933 8.89333 13.3333 9.58333 13.3333C10.2733 13.3333 10.8333 13.8933 10.8333 14.5833C10.8333 15.2733 10.2733 15.8333 9.58333 15.8333ZM11.7075 9.83C12.4292 9.315 12.9183 8.85167 13.1758 8.43917C13.7683 7.49083 13.7617 5.86 12.6233 4.9325C11.0725 3.67 8.23583 4.12583 6.43833 5.13333L7.28083 6.825C8.27 6.32 9.15083 6.0675 9.92333 6.0675C10.6808 6.0675 11.3292 6.3375 11.3292 7.095C11.3292 7.89956 10.6803 8.36316 10.0094 8.84242L10 8.84917C9.43833 9.26083 9.05167 9.65 8.84083 10.0158C8.52327 10.5652 8.52365 11.0203 8.52413 11.5982C8.52415 11.6208 8.52417 11.6436 8.52417 11.6667H10.5717C10.5717 11.6462 10.5716 11.6261 10.5716 11.6064C10.5708 10.8745 10.5706 10.6707 11.7075 9.83Z" fill="#2240C4"/>
</svg>
