<svg width="24" height="24" viewBox="0 0 24 24" fill="none" xmlns="http://www.w3.org/2000/svg">
<path d="M12.0391 19.5C9.94523 19.5 8.17181 18.7736 6.71881 17.3207C5.26565 15.8679 4.53906 14.0948 4.53906 12.0015C4.53906 9.90817 5.26565 8.13458 6.71881 6.68075C8.17181 5.22692 9.94523 4.5 12.0391 4.5C13.2082 4.5 14.3146 4.75992 15.3583 5.27975C16.4018 5.79975 17.2697 6.53342 17.9621 7.48075V4.5H19.4621V10.6152H13.3468V9.1155H17.2968C16.7698 8.15 16.039 7.38942 15.1043 6.83375C14.1698 6.27792 13.1481 6 12.0391 6C10.3724 6 8.95573 6.58333 7.78906 7.75C6.6224 8.91667 6.03906 10.3333 6.03906 12C6.03906 13.6667 6.6224 15.0833 7.78906 16.25C8.95573 17.4167 10.3724 18 12.0391 18C13.3224 18 14.4807 17.6333 15.5141 16.9C16.5474 16.1667 17.2724 15.2 17.6891 14H19.2698C18.816 15.632 17.9221 16.9567 16.5881 17.974C15.2541 18.9913 13.7377 19.5 12.0391 19.5Z" fill="#4989FF"/>
</svg>
