<svg width="24" height="24" viewBox="0 0 24 24" fill="none" xmlns="http://www.w3.org/2000/svg">
<path fill-rule="evenodd" clip-rule="evenodd" d="M17.328 15.206L23.061 20.939L20.939 23.061L15.206 17.328C11.3812 20.0494 6.10904 19.3857 3.07813 15.8012C0.0472237 12.2167 0.26898 6.90755 3.58825 3.58828C6.90752 0.269011 12.2167 0.0472543 15.8012 3.07816C19.3857 6.10907 20.0494 11.3812 17.328 15.206ZM9.99998 3.00001C6.13399 3.00001 2.99998 6.13402 2.99998 10C3.00439 13.8642 6.13582 16.9956 9.99998 17C13.866 17 17 13.866 17 10C17 6.13402 13.866 3.00001 9.99998 3.00001Z" fill="#9BA3AE"/>
</svg>
