<svg width="61" height="62" viewBox="0 0 61 62" fill="none" xmlns="http://www.w3.org/2000/svg">
<path d="M14.7527 53.3117C13.9201 53.3117 12.7617 52.7487 12.1783 52.0599L2.37527 40.5029C1.79186 39.8152 1.51631 38.6891 1.76429 38.0003L5.92726 26.4433C6.17524 25.7557 7.05816 25.1914 7.89076 25.1914H21.8555C22.6869 25.1914 23.8454 25.7545 24.43 26.4433L34.2318 38.0003C34.8153 38.6879 35.0908 39.814 34.8428 40.5029L30.681 52.0599C30.4319 52.7475 29.549 53.3117 28.7176 53.3117H14.7527Z" fill="#335CFF" stroke="#111E4C" stroke-width="0.5" stroke-linecap="round" stroke-linejoin="round"/>
<path d="M34.2317 38.0003L24.4299 26.4433C23.8453 25.7557 22.6868 25.1914 21.8554 25.1914H7.89065C7.34797 25.1914 6.78372 25.431 6.38839 25.7892C6.18593 25.9713 6.02778 26.1666 5.92715 26.4433L4.91244 29.261L4.2356 31.1418H17.5008C18.3322 31.1418 19.4907 31.7049 20.0753 32.3937L29.8771 43.9507C30.4605 44.6383 30.736 45.7644 30.4881 46.4533L28.0178 53.3129H28.7175C29.5645 53.3129 30.4365 52.7367 30.6809 52.061L34.8427 40.5041C35.0907 39.8164 34.8164 38.6903 34.2317 38.0015V38.0003Z" fill="#335CFF" stroke="#111E4C" stroke-width="0.5" stroke-linecap="round" stroke-linejoin="round"/>
<path d="M7.89181 25.1914C7.34913 25.1914 6.78488 25.431 6.38955 25.7892C6.18709 25.9713 6.02894 26.1666 5.92831 26.4433L4.91366 29.261L4.23682 31.1418H17.502L21.8567 25.1926H7.89181V25.1914Z" fill="#111E4C" stroke="#111E4C" stroke-width="0.5" stroke-linecap="round" stroke-linejoin="round"/>
<path d="M19.0525 34.3087C17.2328 33.7541 14.2738 33.7505 12.4421 34.3027C11.5232 34.5795 11.0632 34.9437 11.0632 35.3079V50.7463L12.1786 52.0617C12.762 52.7493 13.9204 53.3136 14.753 53.3136H20.411V35.3091C20.411 34.9485 19.9582 34.5867 19.0513 34.3099L19.0525 34.3087Z" fill="#335CFF"/>
<path d="M13.0467 34.1484C12.8358 34.194 12.6321 34.2431 12.4429 34.3006C11.524 34.5773 11.064 34.9415 11.064 35.3057V50.7441L12.1793 52.0595C12.4021 52.3219 12.7076 52.5651 13.0467 52.7675V34.1508V34.1484Z" fill="#111E4C"/>
<path d="M11.063 36.346C11.063 35.9854 11.5158 35.6236 12.4227 35.3468C12.618 35.2869 12.8276 35.2342 13.0468 35.1875" stroke="#335CFF" stroke-width="0.5" stroke-linecap="round" stroke-linejoin="round"/>
<path d="M11.063 37.385C11.063 37.0244 11.5158 36.6626 12.4227 36.3859C12.618 36.326 12.8276 36.2733 13.0468 36.2266" stroke="#335CFF" stroke-width="0.5" stroke-linecap="round" stroke-linejoin="round"/>
<path d="M11.063 38.428C11.063 38.0674 11.5158 37.7056 12.4227 37.4289C12.618 37.369 12.8276 37.3163 13.0468 37.2695" stroke="#335CFF" stroke-width="0.5" stroke-linecap="round" stroke-linejoin="round"/>
<path d="M11.063 39.467C11.063 39.1065 11.5158 38.7447 12.4227 38.4679C12.618 38.408 12.8276 38.3553 13.0468 38.3086" stroke="#335CFF" stroke-width="0.5" stroke-linecap="round" stroke-linejoin="round"/>
<path d="M11.063 40.51C11.063 40.1494 11.5158 39.7876 12.4227 39.5109C12.618 39.451 12.8276 39.3983 13.0468 39.3516" stroke="#335CFF" stroke-width="0.5" stroke-linecap="round" stroke-linejoin="round"/>
<path d="M11.063 41.5491C11.063 41.1885 11.5158 40.8267 12.4227 40.55C12.618 40.4901 12.8276 40.4373 13.0468 40.3906" stroke="#335CFF" stroke-width="0.5" stroke-linecap="round" stroke-linejoin="round"/>
<path d="M11.063 42.592C11.063 42.2315 11.5158 41.8697 12.4227 41.5929C12.618 41.533 12.8276 41.4803 13.0468 41.4336" stroke="#335CFF" stroke-width="0.5" stroke-linecap="round" stroke-linejoin="round"/>
<path d="M11.063 43.6311C11.063 43.2705 11.5158 42.9087 12.4227 42.632C12.618 42.5721 12.8276 42.5194 13.0468 42.4727" stroke="#335CFF" stroke-width="0.5" stroke-linecap="round" stroke-linejoin="round"/>
<path d="M11.063 44.6702C11.063 44.3096 11.5158 43.9478 12.4227 43.6711C12.618 43.6112 12.8276 43.5584 13.0468 43.5117" stroke="#335CFF" stroke-width="0.5" stroke-linecap="round" stroke-linejoin="round"/>
<path d="M11.063 45.7131C11.063 45.3525 11.5158 44.9908 12.4227 44.714C12.618 44.6541 12.8276 44.6014 13.0468 44.5547" stroke="#335CFF" stroke-width="0.5" stroke-linecap="round" stroke-linejoin="round"/>
<path d="M11.063 46.7522C11.063 46.3916 11.5158 46.0298 12.4227 45.7531C12.618 45.6932 12.8276 45.6405 13.0468 45.5938" stroke="#335CFF" stroke-width="0.5" stroke-linecap="round" stroke-linejoin="round"/>
<path d="M11.063 47.7952C11.063 47.4346 11.5158 47.0728 12.4227 46.796C12.618 46.7361 12.8276 46.6834 13.0468 46.6367" stroke="#335CFF" stroke-width="0.5" stroke-linecap="round" stroke-linejoin="round"/>
<path d="M11.063 48.8342C11.063 48.4736 11.5158 48.1118 12.4227 47.8351C12.618 47.7752 12.8276 47.7225 13.0468 47.6758" stroke="#335CFF" stroke-width="0.5" stroke-linecap="round" stroke-linejoin="round"/>
<path d="M11.063 49.8772C11.063 49.5166 11.5158 49.1548 12.4227 48.8781C12.618 48.8182 12.8276 48.7655 13.0468 48.7188" stroke="#335CFF" stroke-width="0.5" stroke-linecap="round" stroke-linejoin="round"/>
<path d="M19.8943 34.6602V53.3116H20.4119V35.3083C20.4119 35.0854 20.2393 34.8626 19.8943 34.6602Z" fill="white"/>
<path d="M19.2549 34.3735C19.1903 34.3508 19.1232 34.3292 19.0525 34.3076C18.3912 34.1064 17.5778 33.9782 16.7236 33.9219C16.8255 47.0973 19.1663 51.2795 19.2538 34.3735H19.2549Z" fill="white"/>
<path d="M19.0525 34.3087C17.2328 33.7541 14.2738 33.7505 12.4421 34.3027C11.5232 34.5795 11.0632 34.9437 11.0632 35.3079V50.7463L12.1786 52.0617C12.762 52.7493 13.9204 53.3136 14.753 53.3136H20.411V35.3091C20.411 34.9485 19.9582 34.5867 19.0513 34.3099L19.0525 34.3087Z" stroke="#111E4C" stroke-width="0.5" stroke-linecap="round" stroke-linejoin="round"/>
<path d="M19.0522 35.3478C17.756 34.9525 15.8811 34.8375 14.2483 35.0028" stroke="white" stroke-width="0.5" stroke-linecap="round" stroke-linejoin="round"/>
<path d="M19.0523 37.4297C17.4219 36.9326 14.875 36.8787 13.0457 37.2692" stroke="white" stroke-width="0.5" stroke-linecap="round" stroke-linejoin="round"/>
<path d="M19.0524 38.4687C18.0425 38.1608 16.6804 38.023 15.3555 38.0554" stroke="white" stroke-width="0.5" stroke-linecap="round" stroke-linejoin="round"/>
<path d="M20.0935 39.9957C19.8671 39.8196 19.5197 39.6543 19.0525 39.5117" stroke="white" stroke-width="0.5" stroke-linecap="round" stroke-linejoin="round"/>
<path d="M20.1091 42.0897C19.8827 41.9088 19.5317 41.7399 19.0525 41.5938" stroke="white" stroke-width="0.5" stroke-linecap="round" stroke-linejoin="round"/>
<path d="M18.5863 42.5083C17.5872 42.2746 16.3485 42.1812 15.1553 42.2255" stroke="white" stroke-width="0.5" stroke-linecap="round" stroke-linejoin="round"/>
<path d="M19.0522 44.7133C18.3598 44.5024 17.5032 44.3706 16.606 44.3203" stroke="white" stroke-width="0.5" stroke-linecap="round" stroke-linejoin="round"/>
<path d="M14.5371 42.2736C12.7174 41.7189 9.7584 41.7153 7.92669 42.2676C7.00785 42.5443 6.54785 42.9085 6.54785 43.2727V45.4183L12.1795 52.0575C12.7629 52.7452 13.9214 53.3094 14.754 53.3094H15.8969V43.2727C15.8969 42.9121 15.444 42.5503 14.5371 42.2736Z" fill="#335CFF"/>
<path d="M8.59635 42.1016C8.36035 42.1507 8.13518 42.2046 7.92553 42.2681C7.00668 42.5448 6.54663 42.909 6.54663 43.2732V45.4188L8.59635 47.8351V42.1016Z" fill="#111E4C"/>
<path d="M14.5371 42.2741C13.9825 42.1052 13.3224 41.9878 12.6204 41.9219C13.1343 48.2796 14.2844 49.6261 14.7264 42.3364C14.6653 42.316 14.603 42.2945 14.5371 42.2753V42.2741Z" fill="white"/>
<path d="M15.324 42.5938V53.3097H15.8954V43.273C15.8954 43.0394 15.7037 42.8046 15.324 42.5938Z" fill="white"/>
<path d="M15.8955 44.3101C15.8955 44.1424 15.7985 43.9747 15.6032 43.8165C15.475 43.7123 15.3049 43.6117 15.0928 43.517C14.9311 43.4452 14.7454 43.3769 14.5358 43.3122C13.9092 43.1217 13.1485 42.9959 12.3447 42.936C11.6151 42.8809 10.8497 42.8809 10.1189 42.9348" stroke="white" stroke-width="0.5" stroke-linecap="round" stroke-linejoin="round"/>
<path d="M15.8955 45.3492C15.8955 45.1814 15.7985 45.0137 15.6032 44.8556C15.475 44.7514 15.3049 44.6507 15.0928 44.5561C14.9311 44.4842 14.7454 44.4159 14.5358 44.3512C13.9092 44.1608 13.1485 44.035 12.3447 43.9751C11.6151 43.92 10.8497 43.92 10.1189 43.9739" stroke="white" stroke-width="0.5" stroke-linecap="round" stroke-linejoin="round"/>
<path d="M15.8955 46.3897C15.8955 46.222 15.7985 46.0543 15.6032 45.8961C15.4751 45.7919 15.3049 45.6913 15.0929 45.5966C14.9312 45.5248 14.7455 45.4565 14.5358 45.3918C13.9093 45.2013 13.1486 45.0755 12.3447 45.0156" stroke="white" stroke-width="0.5" stroke-linecap="round" stroke-linejoin="round"/>
<path d="M15.8955 48.4724C15.8955 48.3047 15.7984 48.1369 15.6032 47.9788C15.475 47.8746 15.3048 47.7739 15.0928 47.6793C14.9311 47.6074 14.7454 47.5391 14.5357 47.4745C13.9356 47.2912 13.212 47.169 12.4453 47.1055" stroke="white" stroke-width="0.5" stroke-linecap="round" stroke-linejoin="round"/>
<path d="M14.5369 48.5151C14.0038 48.3522 13.3724 48.2372 12.7016 48.1701C12.0978 48.109 11.4617 48.0862 10.8328 48.103" stroke="white" stroke-width="0.5" stroke-linecap="round" stroke-linejoin="round"/>
<path d="M15.8954 52.6358C15.8954 52.2752 15.4425 51.9135 14.5356 51.6367" stroke="white" stroke-width="0.5" stroke-linecap="round" stroke-linejoin="round"/>
<path d="M8.59611 43.1367C8.36011 43.1858 8.13493 43.2409 7.92529 43.3044C7.71325 43.3679 7.52517 43.4374 7.36105 43.5093C7.14661 43.6039 6.97406 43.7058 6.84348 43.8112C6.64462 43.9717 6.54639 44.1406 6.54639 44.3095" stroke="#335CFF" stroke-width="0.5" stroke-linecap="round" stroke-linejoin="round"/>
<path d="M8.59611 44.1797C8.36011 44.2288 8.13493 44.2839 7.92529 44.3474C7.71325 44.4109 7.52517 44.4804 7.36105 44.5523C7.14661 44.6469 6.97406 44.7487 6.84348 44.8542C6.64462 45.0147 6.54639 45.1836 6.54639 45.3525" stroke="#335CFF" stroke-width="0.5" stroke-linecap="round" stroke-linejoin="round"/>
<path d="M8.59613 45.2227C8.36012 45.2718 8.13495 45.3269 7.92531 45.3904C7.79832 45.4287 7.68089 45.4682 7.57188 45.509C7.44609 45.5569 7.3323 45.606 7.22927 45.6563C7.10588 45.7174 6.99927 45.7809 6.90942 45.8456" stroke="#335CFF" stroke-width="0.5" stroke-linecap="round" stroke-linejoin="round"/>
<path d="M8.59584 46.2578C8.35984 46.3069 8.13467 46.362 7.92502 46.4255C7.8783 46.4399 7.83273 46.4543 7.78961 46.4687C7.74648 46.483 7.69861 46.4986 7.65548 46.5142C7.60996 46.531 7.56559 46.5465 7.52246 46.5633" stroke="#335CFF" stroke-width="0.5" stroke-linecap="round" stroke-linejoin="round"/>
<path d="M8.59586 47.3008C8.46648 47.3271 8.3407 47.3559 8.21851 47.387" stroke="#335CFF" stroke-width="0.5" stroke-linecap="round" stroke-linejoin="round"/>
<path d="M14.5371 42.2736C12.7174 41.7189 9.7584 41.7153 7.92669 42.2676C7.00785 42.5443 6.54785 42.9085 6.54785 43.2727V45.4183L12.1795 52.0575C12.7629 52.7452 13.9214 53.3094 14.754 53.3094H15.8969V43.2727C15.8969 42.9121 15.444 42.5503 14.5371 42.2736Z" stroke="#111E4C" stroke-width="0.5" stroke-linecap="round" stroke-linejoin="round"/>
<path d="M26.5302 53.311V48.6868C26.5302 48.3262 26.0773 47.9644 25.1704 47.6876C23.3507 47.133 20.3918 47.1294 18.5601 47.6816C17.6412 47.9584 17.1812 48.3226 17.1812 48.6868V53.311H26.5302Z" fill="#335CFF"/>
<path d="M23.6418 47.3789V53.3125H25.3956V47.7635C25.3238 47.7383 25.2495 47.7131 25.1717 47.6892C24.72 47.5514 24.1989 47.4484 23.643 47.3789H23.6418Z" fill="white"/>
<path d="M19.2318 47.5129C18.9958 47.562 18.7706 47.6159 18.561 47.6794C17.6421 47.9562 17.1821 48.3204 17.1821 48.6845V53.3088H19.2318V47.5117V47.5129Z" fill="#111E4C"/>
<path d="M26.5312 48.6871C26.5312 48.4535 26.3395 48.2187 25.9597 48.0078V53.3113H26.5312V48.6871Z" fill="white"/>
<path d="M26.5311 49.7281C26.5311 49.5604 26.434 49.3926 26.2387 49.2345C26.1105 49.1303 25.9404 49.0296 25.7284 48.935C25.5667 48.8631 25.381 48.7948 25.1713 48.7301C24.5448 48.5397 23.7841 48.4139 22.9802 48.354C22.2507 48.2989 21.4852 48.2989 20.7544 48.3528" stroke="white" stroke-width="0.5" stroke-linecap="round" stroke-linejoin="round"/>
<path d="M26.5311 50.7671C26.5311 50.5994 26.434 50.4317 26.2387 50.2736C26.1105 50.1693 25.9404 50.0687 25.7284 49.9741C25.5667 49.9022 25.381 49.8339 25.1713 49.7692C24.5448 49.5787 23.7841 49.4529 22.9802 49.393C22.2507 49.3379 21.4852 49.3379 20.7544 49.3918" stroke="white" stroke-width="0.5" stroke-linecap="round" stroke-linejoin="round"/>
<path d="M26.531 51.8077C26.531 51.64 26.434 51.4722 26.2387 51.3141C26.1105 51.2099 25.9404 51.1093 25.7284 51.0146C25.5666 50.9427 25.381 50.8744 25.1713 50.8098C24.5448 50.6193 23.7841 50.4935 22.9802 50.4336" stroke="white" stroke-width="0.5" stroke-linecap="round" stroke-linejoin="round"/>
<path d="M19.2318 48.5547C18.9958 48.6038 18.7706 48.6589 18.561 48.7224C18.3489 48.7859 18.1609 48.8554 17.9967 48.9273C17.7823 49.0219 17.6098 49.1237 17.4792 49.2292C17.2804 49.3897 17.1821 49.5586 17.1821 49.7275" stroke="#335CFF" stroke-width="0.5" stroke-linecap="round" stroke-linejoin="round"/>
<path d="M19.2318 49.5977C18.9958 49.6468 18.7706 49.7019 18.561 49.7654C18.3489 49.8289 18.1609 49.8983 17.9967 49.9702C17.7823 50.0649 17.6098 50.1667 17.4792 50.2721C17.2804 50.4327 17.1821 50.6016 17.1821 50.7705" stroke="#335CFF" stroke-width="0.5" stroke-linecap="round" stroke-linejoin="round"/>
<path d="M19.2319 50.6367C18.9959 50.6858 18.7707 50.7409 18.561 50.8044C18.4341 50.8428 18.3166 50.8823 18.2076 50.923C18.0818 50.971 17.968 51.0201 17.865 51.0704C17.7416 51.1315 17.635 51.195 17.5452 51.2597" stroke="#335CFF" stroke-width="0.5" stroke-linecap="round" stroke-linejoin="round"/>
<path d="M19.2318 51.6797C18.9958 51.7288 18.7706 51.7839 18.561 51.8474C18.5142 51.8618 18.4687 51.8762 18.4256 51.8905C18.3825 51.9049 18.3345 51.9205 18.2914 51.9361C18.2459 51.9528 18.2016 51.9684 18.1584 51.9852" stroke="#335CFF" stroke-width="0.5" stroke-linecap="round" stroke-linejoin="round"/>
<path d="M19.2318 52.7188C19.1025 52.7451 18.9767 52.7739 18.8545 52.805" stroke="#335CFF" stroke-width="0.5" stroke-linecap="round" stroke-linejoin="round"/>
<path d="M26.5302 53.311V48.6868C26.5302 48.3262 26.0773 47.9644 25.1704 47.6876C23.3507 47.133 20.3918 47.1294 18.5601 47.6816C17.6412 47.9584 17.1812 48.3226 17.1812 48.6868V53.311H26.5302Z" stroke="#111E4C" stroke-width="0.5" stroke-linecap="round" stroke-linejoin="round"/>
<path d="M51.3259 37.3124L56.9516 23.9393L44.2435 10.0391L30.5207 10.6237L26.2439 22.8288L40.5813 36.6463L51.3259 37.3124Z" fill="#111E4C"/>
<path d="M48.5732 8.75024L45.4105 13.0714C45.1458 12.7587 44.6198 12.5047 44.2437 12.5047L47.4064 8.18359C47.7837 8.18359 48.3084 8.43876 48.5732 8.75024Z" fill="#111E4C" stroke="#111E4C" stroke-width="0.5" stroke-linecap="round" stroke-linejoin="round"/>
<path d="M58.3749 20.3058L55.2122 24.6269L45.4104 13.0711L48.573 8.75L58.3749 20.3058Z" fill="#111E4C" stroke="#111E4C" stroke-width="0.5" stroke-linecap="round" stroke-linejoin="round"/>
<path d="M58.6518 21.4392L55.4891 25.7603C55.6006 25.4488 55.476 24.9373 55.2124 24.6258L58.375 20.3047C58.6386 20.6162 58.7632 21.1277 58.6518 21.4392Z" fill="#111E4C" stroke="#111E4C" stroke-width="0.5" stroke-linecap="round" stroke-linejoin="round"/>
<path d="M47.4064 8.18359L44.2436 12.5047H30.28L33.4427 8.18359H47.4064Z" fill="#111E4C" stroke="#111E4C" stroke-width="0.5" stroke-linecap="round" stroke-linejoin="round"/>
<path d="M29.4797 12.9061L32.6424 8.58492C32.8125 8.35251 33.136 8.18359 33.4427 8.18359L30.2799 12.5047C29.9721 12.5047 29.6487 12.6748 29.4797 12.9061Z" fill="#111E4C" stroke="#111E4C" stroke-width="0.5" stroke-linecap="round" stroke-linejoin="round"/>
<path d="M54.4888 32.996L51.3262 37.3171L55.4891 25.7625L58.6518 21.4414L54.4888 32.996Z" fill="#111E4C" stroke="#111E4C" stroke-width="0.5" stroke-linecap="round" stroke-linejoin="round"/>
<path d="M59.4486 19.6202L49.6467 8.0644C49.0633 7.37675 47.9049 6.8125 47.0735 6.8125H33.1087C32.2773 6.8125 31.3943 7.37555 31.1464 8.0644L28.1035 16.5114L29.5172 17.1799L32.554 8.74964C32.6666 8.43697 33.0679 8.183 33.4441 8.183H47.4077C47.7851 8.183 48.3098 8.43817 48.5746 8.74964L58.3752 20.3054C58.6387 20.6169 58.7633 21.1284 58.6519 21.4399L55.7193 29.5814L57.1329 30.2499L60.0595 22.124C60.3075 21.4351 60.032 20.309 59.4486 19.6214V19.6202Z" fill="white"/>
<path d="M57.1329 30.2487L60.0595 22.1228C60.3075 21.4339 60.032 20.3078 59.4486 19.6202L49.6467 8.0644C49.0633 7.37675 47.9049 6.8125 47.0735 6.8125H33.1087C32.2773 6.8125 31.3943 7.37555 31.1464 8.0644L28.1035 16.5114" stroke="#111E4C" stroke-width="0.5" stroke-linecap="round" stroke-linejoin="round"/>
<path d="M29.5159 17.1805L32.5528 8.75024C32.6654 8.43757 33.0667 8.18359 33.4429 8.18359H47.4065C47.7839 8.18359 48.3085 8.43876 48.5733 8.75024L58.3739 20.306C58.6375 20.6175 58.7621 21.129 58.6507 21.4405L55.718 29.582" stroke="#111E4C" stroke-width="0.5" stroke-linecap="round" stroke-linejoin="round"/>
<path d="M33.0426 21.8605C34.4382 21.3346 36.9983 21.6353 38.7594 22.5302L50.1233 28.3105C51.8844 29.2066 52.1815 30.3591 50.7859 30.885C49.389 31.4109 46.8301 31.1102 45.0691 30.2153L33.7051 24.435C31.9441 23.5389 31.6469 22.3865 33.0426 21.8605Z" fill="#335CFF" stroke="#111E4C" stroke-width="0.5" stroke-linecap="round" stroke-linejoin="round"/>
<path d="M33.964 17.3449C35.3596 16.819 37.9197 17.1197 39.6807 18.0146L51.0447 23.7949C52.8058 24.691 53.1029 25.8434 51.7072 26.3694C50.3104 26.8953 47.7515 26.5946 45.9905 25.6997L34.6265 19.9194C32.8655 19.0233 32.5683 17.8708 33.964 17.3449Z" fill="#335CFF" stroke="#111E4C" stroke-width="0.5" stroke-linecap="round" stroke-linejoin="round"/>
<path d="M52.4404 24.123C52.1673 25.4659 48.6165 25.4935 46.0768 24.202L45.134 23.7229C44.9603 23.6342 44.7854 23.7181 44.7458 23.9097L44.6728 24.2667C44.6332 24.4584 44.7447 24.6872 44.9184 24.7759L45.8612 25.2551C48.4284 26.5609 51.9541 26.501 52.2248 25.176L52.4393 24.1218L52.4404 24.123Z" fill="#111E4C" stroke="#111E4C" stroke-width="0.5" stroke-linecap="round" stroke-linejoin="round"/>
<path d="M51.5205 28.6386C51.2474 29.9815 47.6966 30.0091 45.1568 28.7177L44.214 28.2385C44.0403 28.1498 43.8654 28.2337 43.8259 28.4254L43.7529 28.7824C43.7133 28.974 43.8247 29.2029 43.9984 29.2915L44.9412 29.7707C47.5085 31.0765 51.0341 31.0166 51.3048 29.6916L51.5193 28.6374L51.5205 28.6386Z" fill="#111E4C" stroke="#111E4C" stroke-width="0.5" stroke-linecap="round" stroke-linejoin="round"/>
<path d="M32.8222 21.4426C32.7108 21.9901 33.2391 22.6574 34.3497 23.2228L35.8495 23.9859C36.0232 24.0746 36.1346 24.3034 36.0951 24.4951L36.022 24.8521C35.9825 25.0438 35.8088 25.1276 35.6339 25.039L34.1341 24.2758C33.0235 23.7104 32.4952 23.0431 32.6066 22.4956L32.8211 21.4414L32.8222 21.4426Z" fill="#111E4C" stroke="#111E4C" stroke-width="0.5" stroke-linecap="round" stroke-linejoin="round"/>
<path d="M33.7436 16.9231C33.6322 17.4706 34.1605 18.1378 35.2711 18.7033L36.7709 19.4664C36.9446 19.555 37.056 19.7839 37.0165 19.9755L36.9434 20.3325C36.9039 20.5242 36.7302 20.6081 36.5553 20.5194L35.0554 19.7563C33.9449 19.1909 33.4166 18.5236 33.528 17.9761L33.7425 16.9219L33.7436 16.9231Z" fill="#111E4C" stroke="#111E4C" stroke-width="0.5" stroke-linecap="round" stroke-linejoin="round"/>
<path d="M34.8841 12.8254C36.2798 12.2995 38.8399 12.6002 40.6009 13.4951L51.9649 19.2754C53.7259 20.1714 54.023 21.3239 52.6273 21.8498C51.2317 22.3757 48.6717 22.075 46.9106 21.1802L35.5467 15.3999C33.7856 14.5038 33.4885 13.3513 34.8841 12.8254Z" fill="#335CFF" stroke="#111E4C" stroke-width="0.5" stroke-linecap="round" stroke-linejoin="round"/>
<path d="M46.2039 24.6462C47.9649 25.5423 50.5237 25.843 51.9206 25.3158C52.4357 25.1218 52.7208 24.8414 52.7855 24.5216L53.4911 21.057C53.4252 21.3781 53.1413 21.6572 52.6262 21.8513C51.2293 22.3772 48.6704 22.0765 46.9094 21.1816L35.5454 15.4013C34.4349 14.8359 33.9066 14.1686 34.018 13.6211L33.3124 17.0857C33.201 17.6331 33.7293 18.3004 34.8398 18.8659L36.3397 19.629C36.5134 19.7176 36.6248 19.9465 36.5853 20.1381L36.5122 20.4951C36.4726 20.6868 36.299 20.7707 36.1241 20.682L34.6242 19.9189C33.5137 19.3535 32.9854 18.6862 33.0968 18.1387L32.3911 21.6033C32.2797 22.1508 32.808 22.818 33.9186 23.3835L35.4184 24.1466C35.5921 24.2353 35.7036 24.4641 35.6641 24.6557L35.5909 25.0127C35.5514 25.2044 35.3777 25.2883 35.2028 25.1996L33.703 24.4365C32.5924 23.8711 32.0641 23.2038 32.1755 22.6563L31.4699 26.1209C31.3585 26.6684 31.8868 27.3356 32.9973 27.9011L44.3613 33.6814C46.1223 34.5775 48.6812 34.8782 50.0781 34.3511C50.5932 34.157 50.8783 33.8766 50.943 33.5568L51.6486 30.0922C51.5827 30.4133 51.2988 30.6924 50.7837 30.8865C49.3869 31.4124 46.828 31.1117 45.0669 30.2168L43.5671 29.4537C43.3934 29.365 43.282 29.1362 43.3215 28.9445L43.3946 28.5875C43.4341 28.3959 43.6078 28.312 43.7827 28.4007L45.2826 29.1638C47.0436 30.0599 49.6025 30.3606 50.9993 29.8334C51.5145 29.6394 51.7996 29.359 51.8643 29.0392L52.5699 25.5746C52.504 25.8957 52.2201 26.1748 51.705 26.3689C50.3081 26.8948 47.7492 26.5941 45.9882 25.6992L44.4883 24.9361C44.3146 24.8474 44.2032 24.6186 44.2428 24.4269L44.3158 24.0699C44.3553 23.8783 44.5291 23.7944 44.704 23.883L46.2039 24.6462Z" fill="#335CFF"/>
<path d="M51.6497 30.0938C51.5838 30.4148 51.2998 30.6939 50.7847 30.888C50.5775 30.9659 50.3427 31.0258 50.0899 31.0677L49.3843 34.5323C49.6371 34.4904 49.8706 34.4305 50.0791 34.3526C50.5942 34.1585 50.8794 33.8782 50.944 33.5583L51.6497 30.0938Z" fill="#111E4C"/>
<path d="M51.8654 29.0388L52.5711 25.5742C52.5052 25.8953 52.2212 26.1744 51.7061 26.3685C51.4988 26.4463 51.2641 26.5062 51.0113 26.5482L50.3057 30.0128C50.5584 29.9708 50.7921 29.9109 51.0005 29.8331C51.5157 29.639 51.8007 29.3587 51.8654 29.0388Z" fill="#111E4C"/>
<path d="M51.2256 25.4971C51.4784 25.4552 51.7119 25.3953 51.9204 25.3174C52.4355 25.1234 52.7207 24.843 52.7854 24.5232L53.4909 21.0586C53.425 21.3797 53.1411 21.6588 52.626 21.8529C52.4188 21.9307 52.1839 21.9906 51.9312 22.0326L51.2256 25.4971Z" fill="#111E4C"/>
<path d="M49.3115 30.0946C49.4709 30.0946 49.6277 30.0886 49.7799 30.0779L50.4855 26.6133C50.3334 26.6241 50.1776 26.6289 50.0171 26.6301L49.3115 30.0946Z" fill="#111E4C"/>
<path d="M50.2312 25.576C50.3905 25.576 50.5475 25.57 50.6996 25.5592L51.3154 22.5391C51.0363 22.5582 50.805 22.7619 50.7499 23.0362L50.2324 25.576H50.2312Z" fill="#111E4C"/>
<path d="M49.5641 31.1328C49.412 31.1436 49.2562 31.1484 49.0957 31.1496L48.3901 34.6142C48.5495 34.6142 48.7064 34.6082 48.8585 34.5974L49.5641 31.1328Z" fill="#111E4C"/>
<path d="M38.0801 30.4855L35.9261 20.5793L34.6251 19.9168C34.5208 19.8641 34.4226 19.809 34.328 19.7539L33.6224 23.2185C33.717 23.2736 33.8141 23.3275 33.9195 23.3814L35.4194 24.1445C35.5931 24.2332 35.7045 24.462 35.6649 24.6537L35.5919 25.0107C35.5523 25.2023 35.3786 25.2862 35.2037 25.1976L33.7038 24.4344C33.5996 24.3817 33.5014 24.3266 33.4067 24.2715L32.7012 27.7361C32.7958 27.7912 32.8928 27.8451 32.9983 27.899L38.0801 30.4843V30.4855Z" fill="white"/>
<path d="M34.8396 18.8653L35.6422 19.2738L35.3871 18.1022C35.1954 17.2193 34.8695 17.0995 34.6467 18.192L34.5425 18.7036C34.6371 18.7587 34.7342 18.8126 34.8396 18.8665V18.8653Z" fill="white"/>
<path d="M34.1246 18.432L34.6386 15.9115C34.7703 15.2621 34.478 15.0273 34.478 15.0273L33.8335 18.1924C33.9209 18.2727 34.018 18.353 34.1258 18.432H34.1246Z" fill="white"/>
<path d="M32.9121 22.7107C32.9996 22.7909 33.0966 22.8712 33.2044 22.9503L33.91 19.4857C33.8022 19.4066 33.7052 19.3264 33.6177 19.2461L32.9121 22.7107Z" fill="white"/>
<path d="M32.9899 24.0052C32.882 23.9262 32.785 23.8459 32.6976 23.7656L31.9919 27.2302C32.0794 27.3105 32.1764 27.3907 32.2842 27.4698L32.9899 24.0052Z" fill="white"/>
<path d="M40.935 23.1726C40.7277 22.6264 40.2329 22.3077 39.8292 22.4598C39.4255 22.6132 39.2674 23.1798 39.4734 23.7261C39.5225 23.8555 39.5884 23.9717 39.6639 24.0723L39.2769 25.9723C39.229 26.2083 39.3656 26.4899 39.5788 26.5989C39.7921 26.7079 40.0077 26.6049 40.0556 26.3689L40.4425 24.4725C40.4881 24.4665 40.5348 24.4569 40.5791 24.4401C40.9829 24.2868 41.141 23.7201 40.935 23.1738V23.1726Z" fill="#111E4C"/>
<path d="M46.2039 24.6462C47.9649 25.5423 50.5237 25.843 51.9206 25.3158C52.4357 25.1218 52.7208 24.8414 52.7855 24.5216L53.4911 21.057C53.4252 21.3781 53.1413 21.6572 52.6262 21.8513C51.2293 22.3772 48.6704 22.0765 46.9094 21.1816L35.5454 15.4013C34.4349 14.8359 33.9066 14.1686 34.018 13.6211L33.3124 17.0857C33.201 17.6331 33.7293 18.3004 34.8398 18.8659L36.3397 19.629C36.5134 19.7176 36.6248 19.9465 36.5853 20.1381L36.5122 20.4951C36.4726 20.6868 36.299 20.7707 36.1241 20.682L34.6242 19.9189C33.5137 19.3535 32.9854 18.6862 33.0968 18.1387L32.3911 21.6033C32.2797 22.1508 32.808 22.818 33.9186 23.3835L35.4184 24.1466C35.5921 24.2353 35.7036 24.4641 35.6641 24.6557L35.5909 25.0127C35.5514 25.2044 35.3777 25.2883 35.2028 25.1996L33.703 24.4365C32.5924 23.8711 32.0641 23.2038 32.1755 22.6563L31.4699 26.1209C31.3585 26.6684 31.8868 27.3356 32.9973 27.9011L44.3613 33.6814C46.1223 34.5775 48.6812 34.8782 50.0781 34.3511C50.5932 34.157 50.8783 33.8766 50.943 33.5568L51.6486 30.0922C51.5827 30.4133 51.2988 30.6924 50.7837 30.8865C49.3869 31.4124 46.828 31.1117 45.0669 30.2168L43.5671 29.4537C43.3934 29.365 43.282 29.1362 43.3215 28.9445L43.3946 28.5875C43.4341 28.3959 43.6078 28.312 43.7827 28.4007L45.2826 29.1638C47.0436 30.0599 49.6025 30.3606 50.9993 29.8334C51.5145 29.6394 51.7996 29.359 51.8643 29.0392L52.5699 25.5746C52.504 25.8957 52.2201 26.1748 51.7049 26.3689C50.3081 26.8948 47.7492 26.5941 45.9882 25.6992L44.4883 24.9361C44.3146 24.8474 44.2032 24.6186 44.2428 24.4269L44.3158 24.0699C44.3553 23.8783 44.5291 23.7944 44.704 23.883L46.2039 24.6462Z" stroke="#111E4C" stroke-width="0.5" stroke-linecap="round" stroke-linejoin="round"/>
<path d="M51.5315 12.2999C52.267 8.74187 50.288 4.66153 47.051 3.0143C45.3799 2.16373 43.5506 2.09664 42.0339 2.82861C40.5173 3.56058 39.4331 5.0341 39.0581 6.87182L37.5188 14.4251C37.4493 14.7653 38.0662 15.1775 38.8964 15.3464C39.7266 15.5153 40.455 15.3775 40.5245 15.0373L42.0639 7.48399C42.2484 6.57951 42.7108 5.90744 43.3673 5.59117C44.0226 5.2749 44.8372 5.33001 45.6602 5.7493C47.662 6.76759 48.975 9.48822 48.5258 11.6889L46.9863 19.2422C46.9181 19.5789 47.5278 19.9874 48.3496 20.1551C49.1714 20.3228 49.9226 20.191 49.9921 19.8556L51.5315 12.3023V12.2999Z" fill="white" stroke="#111E4C" stroke-width="0.5" stroke-linecap="round" stroke-linejoin="round"/>
<path d="M41.086 6.16856C40.481 7.47796 40.4667 7.83616 40.0294 9.98175L39.0027 15.0205C39.1992 15.0576 39.3968 15.0792 39.5765 15.0792C39.9778 15.0792 40.1539 14.9869 40.1935 14.9522L40.8057 10.08L40.5409 9.25457L40.9398 7.43962L41.7293 7.41686C41.9354 6.40576 42.4636 5.64863 43.2184 5.28444C44.4762 4.67707 45.7845 5.4306 45.8144 5.44497C47.2077 6.15418 48.2858 7.63729 48.7314 9.23421C49.4993 11.2756 50.8818 10.9521 50.1607 8.55615C48.5458 3.18797 42.3331 3.47069 41.0872 6.16856H41.086Z" fill="#335CFF"/>
<path d="M51.3276 11.25C50.5525 12.3905 49.3857 13.7286 49.0119 15.5616L48.1577 19.7557C48.2392 19.7785 48.3255 19.8012 48.4177 19.8192C48.6286 19.8623 48.8442 19.8851 49.0406 19.8851C49.4384 19.8851 49.6193 19.7976 49.6624 19.7629L51.197 12.2312C51.288 11.7831 51.3276 11.25 51.3276 11.25Z" fill="#335CFF"/>
<path d="M49.1867 6.00747C50.6961 8.02488 50.7908 10.113 50.4793 11.7985C50.2457 13.0612 50.2205 13.0301 49.8647 14.7767L48.8261 19.8742C48.8991 19.8802 48.9722 19.8838 49.0417 19.8838C49.4395 19.8838 49.6203 19.7963 49.6635 19.7616L51.1981 12.2298C51.7372 9.58706 50.7345 6.6448 48.8045 4.71484C48.8045 4.71484 48.4846 5.06705 49.1878 6.00867L49.1867 6.00747Z" fill="#111E4C"/>
<path d="M40.541 9.25225L39.3562 15.0673C39.4317 15.0733 39.506 15.0781 39.5778 15.0781C39.9792 15.0781 40.1553 14.9858 40.1948 14.9511L41.4467 8.8042C41.6168 7.9704 40.7051 8.4472 40.541 9.25225Z" fill="#111E4C"/>
<path d="M42.2586 5.32323C41.6021 5.6395 41.1397 6.31277 40.9552 7.21605L40.9456 7.26158C40.7072 8.43081 41.5985 8.05105 41.7159 7.47602L41.7291 7.41372C41.9351 6.40262 42.4634 5.64549 43.2181 5.28131C43.3272 5.22859 43.4398 5.18546 43.556 5.15072C43.0888 5.08004 42.6455 5.13515 42.2586 5.32323Z" fill="#111E4C"/>
<path d="M49.8432 9.46289C49.9623 9.42721 49.9429 9.01088 49.7998 8.53297C49.6567 8.05507 49.4441 7.69657 49.3249 7.73226C49.2058 7.76794 49.2251 8.18429 49.3682 8.6622C49.5113 9.1401 49.724 9.49858 49.8432 9.46289Z" fill="white"/>
<path d="M53.934 34.9306H39.9692C39.1378 34.9306 37.9794 34.3676 37.3959 33.6788L27.5941 22.123C27.0107 21.4341 26.7351 20.308 26.9831 19.6204L31.1461 8.0646C31.1916 7.93762 31.2587 7.81423 31.3438 7.69922L28.1811 12.0204C28.096 12.1366 28.0289 12.2588 27.9834 12.3857L23.8204 23.9415C23.5725 24.6292 23.848 25.7565 24.4314 26.4441L34.2332 37.9999C34.8167 38.6875 35.9751 39.2518 36.8065 39.2518H50.7713C51.4494 39.2518 52.1622 38.8768 52.536 38.3665L55.6986 34.0453C55.3248 34.5569 54.612 34.9306 53.934 34.9306Z" fill="white"/>
<path d="M53.9342 34.9322H39.9694C39.5214 34.9322 38.9787 34.7681 38.4816 34.5093L35.3188 38.8304C35.816 39.0892 36.3587 39.2533 36.8067 39.2533H50.7716C51.4496 39.2533 52.1624 38.8784 52.5362 38.368L55.6988 34.0469C55.3251 34.5584 54.6123 34.9322 53.9342 34.9322Z" fill="#D7DCE0"/>
<path d="M54.4886 32.9948C54.376 33.3075 53.9747 33.5615 53.5985 33.5615H39.6349C39.2575 33.5615 38.7328 33.3063 38.4681 32.9948L28.6674 21.439C28.4038 21.1276 28.2781 20.616 28.3907 20.3045L29.5168 17.1802L28.1032 16.5117L26.983 19.6217C26.7351 20.3093 27.0106 21.4366 27.594 22.1243L37.3959 33.6801C37.9793 34.3677 39.1378 34.932 39.9691 34.932H53.9339C54.7653 34.932 55.6482 34.3689 55.8962 33.6801L57.1326 30.249L55.7189 29.5806L54.4898 32.9948H54.4886Z" fill="white"/>
<path d="M28.1022 16.5117L26.9821 19.6217C26.7341 20.3093 27.0096 21.4366 27.593 22.1243L37.3949 33.6801C37.9783 34.3677 39.1367 34.932 39.9681 34.932H53.933C54.7644 34.932 55.6473 34.3689 55.8952 33.6801L57.1315 30.249" stroke="#111E4C" stroke-width="0.5" stroke-linecap="round" stroke-linejoin="round"/>
<path d="M55.7192 29.58L54.4901 32.9943C54.3775 33.307 53.9761 33.561 53.6 33.561H39.6363C39.259 33.561 38.7343 33.3058 38.4695 32.9943L28.6689 21.4385C28.4053 21.1271 28.2795 20.6155 28.3922 20.304L29.5182 17.1797" stroke="#111E4C" stroke-width="0.5" stroke-linecap="round" stroke-linejoin="round"/>
<path d="M53.934 34.9306H39.9692C39.1378 34.9306 37.9794 34.3676 37.3959 33.6788L27.5941 22.123C27.0107 21.4341 26.7351 20.308 26.9831 19.6204L31.1461 8.0646C31.1916 7.93762 31.2587 7.81423 31.3438 7.69922L28.1811 12.0204C28.096 12.1366 28.0289 12.2588 27.9834 12.3857L23.8204 23.9415C23.5725 24.6292 23.848 25.7565 24.4314 26.4441L34.2332 37.9999C34.8167 38.6875 35.9751 39.2518 36.8065 39.2518H50.7713C51.4494 39.2518 52.1622 38.8768 52.536 38.3665L55.6986 34.0453C55.3248 34.5569 54.612 34.9306 53.934 34.9306Z" stroke="#111E4C" stroke-width="0.5" stroke-linecap="round" stroke-linejoin="round"/>
<path d="M17.9721 1C18.8047 1 19.9631 1.56306 20.5465 2.2519L27.647 10.6234C28.2304 11.3111 28.5059 12.4384 28.2579 13.126L25.2426 21.4975C24.9947 22.1852 24.1117 22.7494 23.2791 22.7494H13.1634C12.332 22.7494 11.1736 22.1864 10.5902 21.4975L3.48977 13.126C2.90636 12.4384 2.63081 11.3111 2.87879 10.6234L5.89415 2.2519C6.14213 1.56425 7.02502 1 7.85642 1H17.9721Z" fill="white" stroke="#111E4C" stroke-width="0.5" stroke-linecap="round" stroke-linejoin="round"/>
<path d="M11.8476 6.56641L11.6081 6.8659H10.6641L10.9037 6.56641H11.8476Z" fill="#111E4D" stroke="#111E4C" stroke-width="0.5" stroke-linecap="round" stroke-linejoin="round"/>
<path d="M9.6853 7.30676L9.9249 7.00727C10.1429 6.73532 10.4867 6.56641 10.9036 6.56641L10.664 6.8659C10.2471 6.8659 9.90333 7.03482 9.6853 7.30676Z" fill="#111E4D" stroke="#111E4C" stroke-width="0.5" stroke-linecap="round" stroke-linejoin="round"/>
<path d="M8.98208 6.74481L9.22168 6.44531C8.89583 6.85143 8.75327 7.4049 8.86948 8.01467L8.62988 8.31417C8.51368 7.70559 8.65623 7.15212 8.98208 6.74481Z" fill="#111E4D" stroke="#111E4C" stroke-width="0.5" stroke-linecap="round" stroke-linejoin="round"/>
<path d="M11.6932 5.75781L11.8478 6.56765H10.9038C10.088 6.56765 9.54771 7.21576 9.69986 8.01362L9.87593 8.93487H9.04694L8.87081 8.01362C8.63361 6.77011 9.47578 5.75781 10.7504 5.75781H11.6945H11.6932Z" fill="white" stroke="#111E4C" stroke-width="0.5" stroke-linecap="round" stroke-linejoin="round"/>
<path d="M9.8748 8.93359L9.6352 9.23309H8.80615L9.04575 8.93359H9.8748Z" fill="#111E4D" stroke="#111E4C" stroke-width="0.5" stroke-linecap="round" stroke-linejoin="round"/>
<path d="M9.04579 8.93688L8.8062 9.23637L8.63013 8.31512L8.87089 8.01562L9.04579 8.93688Z" fill="#111E4D" stroke="#111E4C" stroke-width="0.5" stroke-linecap="round" stroke-linejoin="round"/>
<path d="M17.7718 13.5547L18.4139 14.1848C17.8737 14.688 17.1249 14.9635 16.3067 14.9635C15.4885 14.9635 14.6355 14.6868 13.9023 14.1848L14.3037 13.5547C14.8751 13.9464 15.5137 14.1537 16.1522 14.1537C16.7907 14.1537 17.3501 13.9476 17.773 13.5547H17.7718Z" fill="white" stroke="#111E4C" stroke-width="0.5" stroke-linecap="round" stroke-linejoin="round"/>
<path d="M18.4128 14.1836L18.1732 14.4831C17.6329 14.9862 16.8842 15.2618 16.0659 15.2618C15.2477 15.2618 14.3948 14.985 13.6616 14.4831L13.9012 14.1836C14.6344 14.6867 15.4873 14.9623 16.3055 14.9623C17.1238 14.9623 17.8725 14.6856 18.4128 14.1836Z" fill="#111E4D" stroke="#111E4C" stroke-width="0.5" stroke-linecap="round" stroke-linejoin="round"/>
<path d="M13.9015 14.1848L13.6619 14.4831L14.0632 13.8542L14.3028 13.5547L13.9015 14.1848Z" fill="#111E4D" stroke="#111E4C" stroke-width="0.5" stroke-linecap="round" stroke-linejoin="round"/>
<path d="M10.2846 15.4369L10.045 15.7364L9.87012 14.8151L10.1097 14.5156L10.2846 15.4369Z" fill="#111E4D" stroke="#111E4C" stroke-width="0.5" stroke-linecap="round" stroke-linejoin="round"/>
<path d="M13.9673 17.6914L13.7277 17.9909H12.7849L13.0245 17.6914H13.9673Z" fill="#111E4D" stroke="#111E4C" stroke-width="0.5" stroke-linecap="round" stroke-linejoin="round"/>
<path d="M10.9389 14.5156L11.1149 15.4369C11.2671 16.2335 12.0542 16.8816 12.87 16.8816H13.814L13.9685 17.6915H13.0245C11.7511 17.6915 10.5231 16.6804 10.2859 15.4369L10.1099 14.5156H10.9389Z" fill="white" stroke="#111E4C" stroke-width="0.5" stroke-linecap="round" stroke-linejoin="round"/>
<path d="M13.0246 17.6921L12.785 17.9916C11.5116 17.9916 10.2836 16.9805 10.0464 15.737L10.286 15.4375C10.5232 16.681 11.7511 17.6921 13.0246 17.6921Z" fill="#111E4D" stroke="#111E4C" stroke-width="0.5" stroke-linecap="round" stroke-linejoin="round"/>
<path d="M21.6774 15.4369L21.4378 15.7364L21.2617 14.8151L21.5013 14.5156L21.6774 15.4369Z" fill="#111E4D" stroke="#111E4C" stroke-width="0.5" stroke-linecap="round" stroke-linejoin="round"/>
<path d="M21.452 16.4426L21.2124 16.7421C21.4209 16.4821 21.5119 16.1275 21.4377 15.737L21.6773 15.4375C21.7515 15.828 21.6604 16.1815 21.452 16.4426Z" fill="#111E4D" stroke="#111E4C" stroke-width="0.5" stroke-linecap="round" stroke-linejoin="round"/>
<path d="M22.1554 17.0039L21.9158 17.3034C21.5768 17.7275 21.0389 17.9899 20.3884 17.9899L20.628 17.6904C21.2785 17.6904 21.8164 17.4268 22.1554 17.0039Z" fill="#111E4D" stroke="#111E4C" stroke-width="0.5" stroke-linecap="round" stroke-linejoin="round"/>
<path d="M22.3314 14.5156L22.5074 15.4369C22.7446 16.6804 21.9025 17.6915 20.6278 17.6915H19.6838L19.5293 16.8816H20.4733C21.2903 16.8816 21.8294 16.2335 21.6773 15.4369L21.5012 14.5156H22.3302H22.3314Z" fill="white" stroke="#111E4C" stroke-width="0.5" stroke-linecap="round" stroke-linejoin="round"/>
<path d="M20.6268 17.6914L20.3872 17.9909H19.4431L19.6839 17.6914H20.6268Z" fill="#111E4D" stroke="#111E4C" stroke-width="0.5" stroke-linecap="round" stroke-linejoin="round"/>
<path d="M19.6839 17.6927L19.4431 17.9921L19.2898 17.1823L19.5294 16.8828L19.6839 17.6927Z" fill="#111E4D" stroke="#111E4C" stroke-width="0.5" stroke-linecap="round" stroke-linejoin="round"/>
<path d="M20.2623 8.01238L20.0227 8.31187C19.8705 7.51401 19.0846 6.8659 18.2676 6.8659L18.5072 6.56641C19.3242 6.56641 20.1101 7.21452 20.2623 8.01238Z" fill="#111E4D" stroke="#111E4C" stroke-width="0.5" stroke-linecap="round" stroke-linejoin="round"/>
<path d="M18.5071 6.56641L18.2663 6.8659H17.3235L17.5631 6.56641H18.5071Z" fill="#111E4D" stroke="#111E4C" stroke-width="0.5" stroke-linecap="round" stroke-linejoin="round"/>
<path d="M17.5633 6.56765L17.3237 6.86715L17.1692 6.05731L17.4088 5.75781L17.5633 6.56765Z" fill="#111E4D" stroke="#111E4C" stroke-width="0.5" stroke-linecap="round" stroke-linejoin="round"/>
<path d="M18.3527 5.75781C19.6262 5.75781 20.8553 6.77011 21.0913 8.01362L21.2674 8.93487H20.4384L20.2623 8.01362C20.1102 7.21576 19.3242 6.56765 18.5072 6.56765H17.5632L17.4087 5.75781H18.3527Z" fill="white" stroke="#111E4C" stroke-width="0.5" stroke-linecap="round" stroke-linejoin="round"/>
<path d="M21.2673 8.93359L21.0277 9.23309H20.1975L20.4383 8.93359H21.2673Z" fill="#111E4D" stroke="#111E4C" stroke-width="0.5" stroke-linecap="round" stroke-linejoin="round"/>
<path d="M20.4386 8.93688L20.1978 9.23637L20.0229 8.31512L20.2625 8.01562L20.4386 8.93688Z" fill="#111E4D" stroke="#111E4C" stroke-width="0.5" stroke-linecap="round" stroke-linejoin="round"/>
<path d="M15.521 11.5051L15.2814 11.8046L14.7961 9.25653L15.0357 8.95703L15.521 11.5051Z" fill="#111E4D" stroke="#111E4C" stroke-width="0.5" stroke-linecap="round" stroke-linejoin="round"/>
<path d="M15.4669 11.7498L15.2273 12.0493C15.2776 11.987 15.2992 11.9008 15.2812 11.8073L15.5208 11.5078C15.5388 11.6025 15.5172 11.6875 15.4669 11.7498Z" fill="#111E4D" stroke="#111E4C" stroke-width="0.5" stroke-linecap="round" stroke-linejoin="round"/>
<path d="M16.1691 12.3086L15.9295 12.6081C15.7558 12.8261 15.479 12.9615 15.1448 12.9615L15.3844 12.662C15.7186 12.662 15.9942 12.5266 16.1691 12.3086Z" fill="#111E4D" stroke="#111E4C" stroke-width="0.5" stroke-linecap="round" stroke-linejoin="round"/>
<path d="M15.8649 8.95703L16.35 11.5051C16.4722 12.1437 16.0385 12.6624 15.3844 12.6624H14.7639L14.6094 11.8526H15.2299C15.4264 11.8526 15.5569 11.6968 15.5198 11.5051L15.0346 8.95703H15.8636H15.8649Z" fill="white" stroke="#111E4C" stroke-width="0.5" stroke-linecap="round" stroke-linejoin="round"/>
<path d="M15.3853 12.6641L15.1457 12.9636H14.5251L14.7647 12.6641H15.3853Z" fill="#111E4D" stroke="#111E4C" stroke-width="0.5" stroke-linecap="round" stroke-linejoin="round"/>
<path d="M14.765 12.6653L14.5254 12.9648L14.3708 12.155L14.6104 11.8555L14.765 12.6653Z" fill="#111E4D" stroke="#111E4C" stroke-width="0.5" stroke-linecap="round" stroke-linejoin="round"/>
<path d="M12.1904 9.40106L12.43 9.10156C12.3617 9.18662 12.3318 9.30163 12.3569 9.42861L12.1173 9.72811C12.0934 9.60112 12.1233 9.48492 12.1904 9.40106Z" fill="#111E4D" stroke="#111E4C" stroke-width="0.5" stroke-linecap="round" stroke-linejoin="round"/>
<path d="M12.5249 10.3162L12.2853 10.6157L12.1165 9.72918L12.3561 9.42969L12.5249 10.3162Z" fill="#111E4D" stroke="#111E4C" stroke-width="0.5" stroke-linecap="round" stroke-linejoin="round"/>
<path d="M13.4184 10.6459L13.1788 10.9453C13.1082 11.034 12.9956 11.0891 12.8602 11.0891C12.5931 11.0891 12.3355 10.8771 12.2864 10.6159L12.526 10.3164C12.5751 10.5776 12.8339 10.7896 13.0998 10.7896C13.2364 10.7896 13.3477 10.7345 13.4184 10.6459Z" fill="#111E4D" stroke="#111E4C" stroke-width="0.5" stroke-linecap="round" stroke-linejoin="round"/>
<path d="M12.751 8.95703C13.0181 8.95703 13.2745 9.16788 13.3237 9.42904L13.4925 10.3155C13.5416 10.5767 13.3668 10.7888 13.0996 10.7888C12.8325 10.7888 12.5749 10.5767 12.5258 10.3155L12.3568 9.42904C12.3077 9.16788 12.4838 8.95703 12.751 8.95703Z" fill="white" stroke="#111E4C" stroke-width="0.5" stroke-linecap="round" stroke-linejoin="round"/>
<path d="M17.0114 9.40106L17.251 9.10156C17.1827 9.18662 17.1528 9.30163 17.178 9.42981L16.9384 9.72931C16.9144 9.60112 16.9443 9.48612 17.0114 9.40106Z" fill="#111E4D" stroke="#111E4C" stroke-width="0.5" stroke-linecap="round" stroke-linejoin="round"/>
<path d="M17.3467 10.3162L17.1059 10.6157L16.937 9.72918L17.1778 9.42969L17.3467 10.3162Z" fill="#111E4D" stroke="#111E4C" stroke-width="0.5" stroke-linecap="round" stroke-linejoin="round"/>
<path d="M18.2404 10.6459L18.0008 10.9453C17.9301 11.034 17.8176 11.0891 17.6798 11.0891C17.4126 11.0891 17.1563 10.8771 17.106 10.6159L17.3456 10.3164C17.3947 10.5776 17.6522 10.7896 17.9194 10.7896C18.056 10.7896 18.1685 10.7345 18.2404 10.6459Z" fill="#111E4D" stroke="#111E4C" stroke-width="0.5" stroke-linecap="round" stroke-linejoin="round"/>
<path d="M17.5706 8.95703C17.839 8.95703 18.0953 9.16788 18.1444 9.42904L18.3134 10.3155C18.3625 10.5767 18.1876 10.7888 17.9192 10.7888C17.6521 10.7888 17.3957 10.5767 17.3454 10.3155L17.1765 9.42904C17.1274 9.16788 17.3023 8.95703 17.5694 8.95703H17.5706Z" fill="white" stroke="#111E4C" stroke-width="0.5" stroke-linecap="round" stroke-linejoin="round"/>
<path d="M23.2789 22.7497H13.1632C12.3318 22.7497 11.1734 22.1866 10.59 21.4978L3.48955 13.1262C2.90613 12.4386 2.63058 11.3113 2.87857 10.6236L5.89392 2.2521C5.93944 2.12512 6.00652 2.00173 6.09158 1.88672L4.3042 4.32941C4.21915 4.44562 4.15201 4.56781 4.10649 4.6948L1.09119 13.0663C0.843213 13.754 1.11876 14.8813 1.70217 15.5689L8.80258 23.9405C9.386 24.6281 10.5444 25.1923 11.3758 25.1923H21.4915C22.1708 25.1923 22.8824 24.8174 23.2574 24.307L25.0448 21.8643C24.671 22.3759 23.9582 22.7497 23.2789 22.7497Z" fill="white"/>
<path d="M25.0446 21.8633C24.6709 22.3748 23.958 22.7486 23.2788 22.7486H13.1631C12.6767 22.7486 12.0801 22.5557 11.5518 22.2586L9.7644 24.7013C10.2939 24.9984 10.8905 25.1913 11.3757 25.1913H21.4914C22.1707 25.1913 22.8823 24.8163 23.2573 24.306L25.0446 21.8633Z" fill="#D7DCE0"/>
<path d="M23.2789 22.7497H13.1632C12.3318 22.7497 11.1734 22.1866 10.59 21.4978L3.48955 13.1262C2.90613 12.4386 2.63058 11.3113 2.87857 10.6236L5.89392 2.2521C5.93944 2.12512 6.00652 2.00173 6.09158 1.88672L4.3042 4.32941C4.21915 4.44562 4.15201 4.56781 4.10649 4.6948L1.09119 13.0663C0.843213 13.754 1.11876 14.8813 1.70217 15.5689L8.80258 23.9405C9.386 24.6281 10.5444 25.1923 11.3758 25.1923H21.4915C22.1708 25.1923 22.8824 24.8174 23.2574 24.307L25.0448 21.8643C24.671 22.3759 23.9582 22.7497 23.2789 22.7497Z" stroke="#111E4C" stroke-width="0.5" stroke-linecap="round" stroke-linejoin="round"/>
<path d="M48.7092 36.8086C49.5418 36.8086 50.7002 37.3716 51.2836 38.0605L58.384 46.432C58.9674 47.1197 59.243 48.247 58.995 48.9346L55.9797 57.3061C55.7317 57.9938 54.8488 58.558 54.0162 58.558H43.9005C43.0691 58.558 41.9107 57.995 41.3272 57.3061L34.2268 48.9346C33.6434 48.247 33.3679 47.1197 33.6159 46.432L36.6311 38.0605C36.8791 37.3728 37.7621 36.8086 38.5935 36.8086H48.7092Z" fill="white" stroke="#111E4C" stroke-width="0.5" stroke-linecap="round" stroke-linejoin="round"/>
<path d="M54.015 58.5583H43.8993C43.0679 58.5583 41.9095 57.9952 41.326 57.3064L34.2256 48.9348C33.6422 48.2472 33.3667 47.1199 33.6147 46.4322L36.63 38.0607C36.6755 37.9337 36.7426 37.8103 36.8276 37.6953L35.0402 40.138C34.9552 40.2542 34.8881 40.3764 34.8426 40.5034L31.8273 48.8749C31.5793 49.5626 31.8548 50.6899 32.4382 51.3775L39.5386 59.7491C40.122 60.4367 41.2805 61.0009 42.1119 61.0009H52.2276C52.9069 61.0009 53.6185 60.626 53.9934 60.1156L55.7808 57.6729C55.407 58.1845 54.6943 58.5583 54.015 58.5583Z" fill="white"/>
<path d="M55.7807 57.6719C55.4069 58.1834 54.6941 58.5572 54.0149 58.5572H43.8992C43.4128 58.5572 42.8162 58.3643 42.2879 58.0672L40.5005 60.5099C41.03 60.807 41.6266 60.9999 42.1117 60.9999H52.2275C52.9067 60.9999 53.6183 60.6249 53.9933 60.1146L55.7807 57.6719Z" fill="#D7DCE0"/>
<path d="M54.015 58.5583H43.8993C43.0679 58.5583 41.9095 57.9952 41.326 57.3064L34.2256 48.9348C33.6422 48.2472 33.3667 47.1199 33.6147 46.4322L36.63 38.0607C36.6755 37.9337 36.7426 37.8103 36.8276 37.6953L35.0402 40.138C34.9552 40.2542 34.8881 40.3764 34.8426 40.5034L31.8273 48.8749C31.5793 49.5626 31.8548 50.6899 32.4382 51.3775L39.5386 59.7491C40.122 60.4367 41.2805 61.0009 42.1119 61.0009H52.2276C52.9069 61.0009 53.6185 60.626 53.9934 60.1156L55.7808 57.6729C55.407 58.1845 54.6943 58.5583 54.015 58.5583Z" stroke="#111E4C" stroke-width="0.5" stroke-linecap="round" stroke-linejoin="round"/>
<path d="M51.6168 44.5703H39.4741C38.8619 44.5703 38.4978 45.1106 38.6607 45.7767L39.5903 49.5887C39.7532 50.2548 40.381 50.795 40.992 50.795H53.1346C53.7468 50.795 54.111 50.2548 53.9481 49.5887L53.0184 45.7767C52.8555 45.1106 52.2278 44.5703 51.6168 44.5703Z" fill="#D7DCE0"/>
<path d="M48.6148 50.7948L47.3845 45.7536C47.2874 45.3559 46.8729 45.0312 46.4644 45.0312H39.0154C38.898 45.0312 38.7901 45.0516 38.6931 45.0888C38.6152 45.284 38.5997 45.5212 38.662 45.7776L39.5916 49.5896C39.7545 50.2557 40.3823 50.796 40.9932 50.796H48.6148V50.7948Z" fill="#335CFF"/>
<path d="M41.663 48.3124L41.8631 47.8524L41.3252 47.6775L41.3647 47.3325L41.8846 47.5074L41.7409 46.918H42.0943L42.2381 47.5074L42.6681 47.3325L42.8766 47.6775L42.4333 47.8524L42.8526 48.3124L42.6274 48.5376L42.1973 48.0525L42.0033 48.5376L41.6642 48.3124H41.663Z" fill="#111E4C"/>
<path d="M43.7378 48.3124L43.9378 47.8524L43.3999 47.6775L43.4394 47.3325L43.9594 47.5074L43.8156 46.918H44.1691L44.3128 47.5074L44.7428 47.3325L44.9513 47.6775L44.508 47.8524L44.9273 48.3124L44.7021 48.5376L44.2721 48.0525L44.078 48.5376L43.7389 48.3124H43.7378Z" fill="#111E4C"/>
<path d="M45.8127 48.3124L46.0127 47.8524L45.4749 47.6775L45.5144 47.3325L46.0343 47.5074L45.8905 46.918H46.2439L46.3877 47.5074L46.8178 47.3325L47.0262 47.6775L46.583 47.8524L47.0023 48.3124L46.7771 48.5376L46.347 48.0525L46.1529 48.5376L45.8139 48.3124H45.8127Z" fill="#111E4C"/>
<path d="M47.8861 48.3124L48.0862 47.8524L47.5483 47.6775L47.5878 47.3325L48.1078 47.5074L47.964 46.918H48.3174L48.4612 47.5074L48.8913 47.3325L49.0997 47.6775L48.6565 47.8524L49.0758 48.3124L48.8505 48.5376L48.4204 48.0525L48.2264 48.5376L47.8873 48.3124H47.8861Z" fill="#111E4C"/>
<path d="M49.9613 48.3124L50.1615 47.8524L49.6235 47.6775L49.6631 47.3325L50.183 47.5074L50.0393 46.918H50.3926L50.5364 47.5074L50.9665 47.3325L51.1749 47.6775L50.7317 47.8524L51.151 48.3124L50.9257 48.5376L50.4956 48.0525L50.3016 48.5376L49.9626 48.3124H49.9613Z" fill="#111E4C"/>
<path d="M51.6168 44.5703H39.4741C38.8619 44.5703 38.4978 45.1106 38.6607 45.7767L39.5903 49.5887C39.7532 50.2548 40.381 50.795 40.992 50.795H53.1346C53.7468 50.795 54.111 50.2548 53.9481 49.5887L53.0184 45.7767C52.8555 45.1106 52.2278 44.5703 51.6168 44.5703Z" stroke="#111E4C" stroke-width="0.5" stroke-linecap="round" stroke-linejoin="round"/>
</svg>
