<svg width="20" height="20" viewBox="0 0 20 20" fill="none" xmlns="http://www.w3.org/2000/svg">
<path d="M19.0822 0.739555C18.9893 0.661506 18.8611 0.640547 18.7482 0.684934L0.210234 7.96769C0.0970874 8.01209 0.0173737 8.11493 0.00258679 8.23558C-0.0122001 8.35622 0.0403184 8.47527 0.139393 8.54568L3.13261 10.6742L10.7034 7.16791L4.63451 11.7425V18.869C4.63394 18.9951 4.70506 19.1106 4.81794 19.1668C4.93082 19.223 5.06584 19.2102 5.16615 19.1338L9.92643 15.5057L15.0359 19.1388C15.0919 19.1788 15.1589 19.2002 15.2276 19.2C15.2692 19.2 15.3104 19.1922 15.3491 19.1772C15.4533 19.1359 15.5295 19.0447 15.5517 18.9349L19.1931 1.059C19.2174 0.940248 19.1748 0.817702 19.0822 0.739555Z" fill="#2240C4"/>
</svg>
