<svg width="20" height="20" viewBox="0 0 20 20" fill="none" xmlns="http://www.w3.org/2000/svg">
<path d="M19.8773 0.739677C19.7805 0.661629 19.647 0.640669 19.5293 0.685056L0.218989 7.96782C0.101128 8.01222 0.0180925 8.11505 0.00268949 8.2357C-0.0127135 8.35634 0.0419932 8.47539 0.145196 8.5458L3.26313 10.6744L11.1493 7.16804L4.82761 11.7426V18.8691C4.82701 18.9952 4.9011 19.1107 5.01868 19.1669C5.13626 19.2232 5.27691 19.2104 5.3814 19.1339L10.34 15.5058L15.6624 19.1389C15.7207 19.1789 15.7905 19.2003 15.8621 19.2001C15.9054 19.2001 15.9483 19.1924 15.9886 19.1773C16.0972 19.136 16.1766 19.0448 16.1997 18.935L19.9928 1.05913C20.0181 0.94037 19.9738 0.817824 19.8773 0.739677Z" fill="#4F6EF7"/>
</svg>
