<svg width="272" height="292" viewBox="0 0 272 292" fill="none" xmlns="http://www.w3.org/2000/svg">
<circle cx="89.9229" cy="48.4028" r="39.5207" transform="rotate(15 89.9229 48.4028)" fill="white" stroke="#111E4C"/>
<path d="M58.6842 60.8542C61.1688 65.6847 72.6454 70.5328 86.865 72.3739C100.791 74.1769 112.907 72.5207 116.814 68.6581C111.13 76.2251 102.3 81.3585 92.1155 82.0199C77.1873 82.9893 63.904 74.0555 58.6842 60.8542Z" fill="#ACB7C0" stroke="#111E4C"/>
<path fill-rule="evenodd" clip-rule="evenodd" d="M107.501 72.357C105.965 75.032 103.063 77.9689 97.968 79.6777C89.8977 82.3846 90.3206 79.5605 93.4621 72.9827C98.7345 73.2691 103.551 73.0337 107.501 72.357Z" fill="#D9D9D9"/>
<ellipse cx="30.1953" cy="10.0747" rx="30.1953" ry="10.0747" transform="matrix(-0.991723 -0.128399 -0.128399 0.991723 119.397 56.2686)" fill="#D7DCE0" stroke="#111E4C"/>
<path d="M95.2211 28.4546L93.0099 32.7111L97.8765 37.5777L100.088 33.3213L95.2211 28.4546Z" fill="#111E4C" stroke="#111E4C" stroke-linejoin="round"/>
<path d="M97.5937 35.2344L94.2348 42.5356L99.1015 47.4023L102.46 40.101L97.5937 35.2344Z" fill="#111E4C" stroke="#111E4C" stroke-linejoin="round"/>
<path d="M95.2019 28.4503L93.3963 32.3218L105.38 26.7339L102.352 33.2276L97.7976 35.351L94.6258 42.1533L99.1798 40.0299L96.1514 46.5236L84.1678 52.1115L81.7924 57.2072L72.578 61.5038L85.9875 32.7469L95.2019 28.4503Z" fill="#335CFF" stroke="#111E4C" stroke-miterlimit="10"/>
<path d="M77.4982 66.4239L72.5801 61.5058L81.682 57.0703L86.6001 61.9884L77.4982 66.4239Z" fill="#111E4C" stroke="#111E4C" stroke-linejoin="round"/>
<path d="M102.511 40.1526L97.7588 35.4004L102.254 33.0972L107.172 38.0154L102.511 40.1526Z" fill="#111E4C" stroke="#111E4C" stroke-linejoin="round"/>
<path d="M89.0187 56.9416L84.1006 52.0234L96.0225 46.4359L100.941 51.354L89.0187 56.9416Z" fill="#111E4C" stroke="#111E4C" stroke-linejoin="round"/>
<path d="M84.1019 52.0231L81.7071 57.0958L86.5738 61.9625L88.9686 56.8897L84.1019 52.0231Z" fill="#111E4C" stroke="#111E4C" stroke-linejoin="round"/>
<path d="M105.356 26.7478L102.305 33.1487L107.172 38.0153L110.222 31.6145L105.356 26.7478Z" fill="#111E4C" stroke="#111E4C" stroke-linejoin="round"/>
<path d="M99.1751 40.0407L96.0741 46.4872L100.941 51.3538L104.042 44.9074L99.1751 40.0407Z" fill="#111E4C" stroke="#111E4C" stroke-linejoin="round"/>
<circle cx="47.8649" cy="47.8649" r="47.8649" transform="matrix(-1 0 0 1 271.4 42.9229)" fill="white" stroke="#111E4C"/>
<path d="M256.178 115.147C251.757 120.019 236.811 122.093 219.599 119.79C202.743 117.534 189.087 111.798 185.728 106.055C190.005 116.689 198.726 125.462 210.433 129.428C227.593 135.242 245.933 128.954 256.178 115.147Z" fill="#ACB7C0" stroke="#111E4C"/>
<path fill-rule="evenodd" clip-rule="evenodd" d="M195.458 113.303C196.417 116.914 198.891 121.259 204.316 124.855C212.908 130.551 213.299 127.115 211.686 118.436C205.428 117.118 199.867 115.333 195.458 113.303Z" fill="#D9D9D9"/>
<ellipse cx="221.217" cy="107.696" rx="36.5706" ry="12.2018" transform="rotate(7.62292 221.217 107.696)" fill="#D7DCE0" stroke="#111E4C"/>
<rect width="14.0219" height="6.50055" transform="matrix(-0.866025 -0.5 -0.5 0.866025 223.768 69.6582)" fill="#111E4C" stroke="#111E4C" stroke-linejoin="round"/>
<path d="M244.096 98.5578L247.812 92.123L242.604 94.1606L240.363 96.4022L244.096 98.5578Z" fill="#111E4C" stroke="#111E4C" stroke-linejoin="round"/>
<path fill-rule="evenodd" clip-rule="evenodd" d="M244.627 81.0889C236.823 71.7883 220.803 62.5394 208.846 60.4311C196.89 58.323 193.524 64.1536 201.328 73.4541C207.993 81.3979 220.653 89.3028 231.655 92.7541L237.626 99.8723L249.753 102.01L243.401 94.4395C249.98 93.6591 250.817 88.4664 244.627 81.0889ZM213.063 64.9284C215.224 65.3095 218.119 66.9811 219.53 68.6621C220.94 70.3432 220.332 71.3972 218.171 71.0162C216.009 70.635 213.114 68.9635 211.704 67.2825C210.293 65.6014 210.902 64.5473 213.063 64.9284Z" fill="#335CFF" stroke="#111E4C" stroke-miterlimit="10"/>
<path d="M245.545 109.298L249.757 102.003L237.633 99.8716L233.407 107.191L245.545 109.298Z" fill="#111E4C" stroke="#111E4C" stroke-linejoin="round"/>
<path d="M239.584 108.264L241.729 104.55L235.556 103.465L233.404 107.191L239.584 108.264Z" fill="#335CFF" stroke="#111E4C" stroke-linejoin="round"/>
<path d="M247.437 105.824L249.581 102.109L243.408 101.024L241.257 104.751L247.437 105.824Z" fill="#335CFF" stroke="#111E4C" stroke-linejoin="round"/>
<path d="M227.447 100.047L231.659 92.7516L237.632 99.8717L233.406 107.191L227.447 100.047Z" fill="#111E4C" stroke="#111E4C" stroke-linejoin="round"/>
<path d="M193.468 69.9522C192.748 71.1986 192.692 72.7981 193.293 74.651C193.856 76.3877 195 78.3652 196.747 80.5257L197.104 80.96C203.749 88.9026 216.351 96.7786 227.324 100.223L227.336 100.237L231.656 92.7555L231.644 92.7408C220.67 89.2965 208.068 81.4209 201.424 73.4785L201.066 73.0438C199.319 70.8834 198.175 68.9057 197.613 67.1691C196.833 64.1244 197.259 63.8052 197.728 62.5739C196.54 64.6319 194.64 67.9213 193.468 69.9522Z" fill="#111E4C" stroke="#111E4C" stroke-linejoin="round"/>
<path d="M194.521 89.6347V84.3642L176.569 100.729V105.228L194.521 89.6347Z" fill="#335CFF" stroke="#111E4C" stroke-linejoin="round"/>
<path d="M148.695 257.42L148.693 257.421C146.08 257.421 143.433 257.047 141.354 256.276L141.352 256.275L141.159 256.202L141.154 256.2L64.1299 226.166C63.076 225.755 62.233 225.259 61.6426 224.688C60.7802 223.855 60.873 222.81 60.873 221.805V138.755C60.873 138.479 61.0972 138.255 61.373 138.255H148.695V257.42Z" fill="#335CFF"/>
<path d="M148.695 257.42L148.919 257.867C149.088 257.782 149.195 257.609 149.195 257.42H148.695ZM148.693 257.421L148.693 257.921C148.771 257.921 148.848 257.903 148.917 257.868L148.693 257.421ZM141.354 256.276L141.528 255.808C141.523 255.806 141.518 255.804 141.513 255.802L141.354 256.276ZM141.352 256.275L141.174 256.743C141.18 256.745 141.187 256.748 141.193 256.75L141.352 256.275ZM141.159 256.202L140.973 256.666L140.981 256.669L141.159 256.202ZM141.154 256.2L141.34 255.736L141.336 255.734L141.154 256.2ZM64.1299 226.166L63.9482 226.632L63.9482 226.632L64.1299 226.166ZM61.6426 224.688L61.2951 225.048L61.2952 225.048L61.6426 224.688ZM60.873 221.805L61.373 221.805V221.805H60.873ZM60.873 138.755H60.373H60.873ZM61.373 138.255V137.755L61.3724 137.755L61.373 138.255ZM148.695 138.255H149.195C149.195 137.979 148.971 137.755 148.695 137.755V138.255ZM148.695 257.42L148.472 256.973L148.47 256.974L148.693 257.421L148.917 257.868L148.919 257.867L148.695 257.42ZM148.693 257.421L148.693 256.921C146.12 256.921 143.536 256.552 141.528 255.808L141.354 256.276L141.181 256.745C143.331 257.542 146.04 257.921 148.693 257.921L148.693 257.421ZM141.354 256.276L141.513 255.802L141.51 255.801L141.352 256.275L141.193 256.75L141.196 256.751L141.354 256.276ZM141.352 256.275L141.529 255.808L141.337 255.735L141.159 256.202L140.981 256.669L141.174 256.743L141.352 256.275ZM141.159 256.202L141.345 255.738L141.34 255.736L141.154 256.2L140.969 256.664L140.973 256.666L141.159 256.202ZM141.154 256.2L141.336 255.734L64.3115 225.7L64.1299 226.166L63.9482 226.632L140.973 256.666L141.154 256.2ZM64.1299 226.166L64.3116 225.7C63.2953 225.304 62.5171 224.838 61.99 224.329L61.6426 224.688L61.2952 225.048C61.9489 225.68 62.8568 226.206 63.9482 226.632L64.1299 226.166ZM61.6426 224.688L61.99 224.329C61.3117 223.673 61.373 222.885 61.373 221.805L60.873 221.805L60.373 221.805C60.373 222.735 60.2487 224.037 61.2951 225.048L61.6426 224.688ZM60.873 221.805H61.373V138.755H60.873H60.373V221.805H60.873ZM60.873 138.755H61.373L61.3737 138.755L61.373 138.255L61.3724 137.755C60.8216 137.756 60.373 138.202 60.373 138.755H60.873ZM61.373 138.255V138.755H148.695V138.255V137.755H61.373V138.255ZM148.695 138.255H148.195V257.42H148.695H149.195V138.255H148.695Z" fill="#111E4C"/>
<path d="M65.5519 148.071C72.0961 150.59 122.523 170.208 136.857 175.785C139.163 176.682 140.646 178.888 140.646 181.363V240.955C140.646 245.166 136.421 248.067 132.491 246.555L66.0994 221.003C65.4785 220.761 65.043 220.179 65.043 219.513V148.453L65.0541 148.355C65.0758 148.261 65.1288 148.177 65.2045 148.12C65.3058 148.044 65.4357 148.026 65.5519 148.071Z" fill="#335CFF" stroke="#111E4C" stroke-linecap="round" stroke-linejoin="round"/>
<path d="M236.092 138.357C236.265 138.395 236.395 138.559 236.395 138.755V221.713C236.524 222.011 236.596 222.326 236.597 222.654L236.592 222.793C236.555 223.393 236.283 223.941 235.859 224.416L235.653 224.63C235.112 225.152 234.352 225.614 233.401 226.004L233.398 226.006L233.21 226.08L233.207 226.082L156.182 256.117C154.225 256.88 151.717 257.276 149.199 257.322L148.696 257.326V138.349H236.016L236.092 138.357Z" fill="#2040C4" stroke="#111E4C" stroke-linecap="round" stroke-linejoin="round"/>
<path d="M64.384 142.122C60.3746 140.557 60.3746 137.999 64.384 136.435L141.409 106.401C145.418 104.836 151.976 104.836 155.986 106.401L233.01 136.435C237.02 137.999 237.02 140.557 233.01 142.122L155.986 172.156C151.976 173.72 145.418 173.72 141.409 172.156L64.384 142.122Z" fill="#335CFF" stroke="#111E4C" stroke-linecap="round" stroke-linejoin="round"/>
<path d="M83.6411 140.924C81.9461 140.257 81.9529 137.856 83.6518 137.198L147.919 112.322C148.383 112.143 148.897 112.142 149.361 112.322L213.733 137.198C215.433 137.855 215.44 140.258 213.743 140.925L149.372 166.227C148.902 166.412 148.378 166.411 147.908 166.226L83.6411 140.924Z" fill="#111E4C" stroke="#111E4C" stroke-linecap="round" stroke-linejoin="round"/>
<path d="M83.1816 136.403C81.794 135.857 81.4708 134.039 82.5849 133.048L139.795 82.1559C140.355 81.6578 141.146 81.5145 141.845 81.7846L207.54 107.172C208.934 107.711 209.266 109.531 208.154 110.528L150.838 161.855C150.275 162.359 149.475 162.503 148.771 162.226L83.1816 136.403Z" fill="white" stroke="#111E4C" stroke-linecap="round" stroke-linejoin="round"/>
<path d="M164.559 90.496L178.469 78.1221L194.521 84.3254L180.585 96.8055L164.559 90.496Z" fill="#335CFF" stroke="#111E4C" stroke-linecap="round" stroke-linejoin="round"/>
<path d="M207.289 106.588C209.03 107.261 209.446 109.537 208.056 110.782L174.235 141.067C177.022 133.328 180.249 121.334 181.458 108.818C181.845 104.811 182.022 100.759 181.917 96.7822L207.289 106.588Z" fill="#335CFF"/>
<path d="M83.1816 136.403C81.794 135.857 81.4708 134.039 82.5849 133.048L139.795 82.1559C140.355 81.6578 141.146 81.5145 141.845 81.7846L207.54 107.172C208.934 107.711 209.266 109.531 208.154 110.528L150.838 161.855C150.275 162.359 149.475 162.503 148.771 162.226L83.1816 136.403Z" stroke="#111E4C" stroke-linecap="round" stroke-linejoin="round"/>
<path d="M80.2256 140.262V135.12L149.773 162.244V166.871L80.2256 140.262Z" fill="#111E4C" stroke="#111E4C" stroke-linejoin="round"/>
<path d="M209.673 113.653V108.383L149.843 162.389V166.888L209.673 113.653Z" fill="#335CFF" stroke="#111E4C" stroke-linejoin="round"/>
<path d="M180.449 139.119L152.5 164.203V160.326L180.449 135.12V139.119Z" fill="white"/>
<ellipse cx="32.0512" cy="34.042" rx="32.0512" ry="34.042" transform="matrix(0.931686 0.363264 0 1 69.3359 150.234)" fill="#335CFF" stroke="#111E4C" stroke-linecap="round" stroke-linejoin="round"/>
<ellipse cx="32.0512" cy="34.042" rx="32.0512" ry="34.042" transform="matrix(0.931686 0.363264 0 1 63.6064 154.07)" fill="#2040C4" stroke="#111E4C" stroke-linecap="round" stroke-linejoin="round"/>
<path d="M105.418 172.879C105.781 173.189 106.141 173.504 106.497 173.826C100.985 182.419 92.0375 192.477 80.6748 202.285L79.5283 203.268C76.1918 206.102 72.8243 208.762 69.4795 211.229C69.2764 210.833 69.0765 210.436 68.8828 210.036C72.452 207.39 76.0498 204.519 79.6094 201.446C91.0854 191.541 100.032 181.414 105.418 172.879ZM74.8066 166.172C80.0274 163.351 86.6967 163.034 93.9736 165.871C97.5185 167.253 100.919 169.272 104.078 171.775C99.2085 178.874 91.5537 187.242 81.9971 195.491C77.1291 199.693 72.2008 203.489 67.4297 206.777C65.0194 200.882 63.6465 194.648 63.6465 188.589C63.6465 179.782 66.5446 172.866 71.3174 168.62C72.4879 167.774 73.6526 166.959 74.8066 166.172Z" fill="white"/>
<path d="M87.7082 180.252C85.8112 179.513 84.3561 180.864 84.6304 183.111L86.892 201.63C85.0845 202.397 83.9064 204.349 83.9064 207.075C83.9064 211.557 87.0938 216.433 91.0254 217.966C94.9571 219.499 98.1445 217.108 98.1445 212.626C98.1445 209.901 96.9664 207.03 95.1594 204.854L97.4205 188.098C97.6948 186.065 96.2397 183.579 94.3427 182.839L87.7082 180.252Z" fill="#335CFF" stroke="#111E4C" stroke-linecap="round" stroke-linejoin="round"/>
<path d="M84.159 182.773C83.9792 180.422 85.4993 179.01 87.5044 179.664L87.7071 179.737L94.3417 182.324C96.5137 183.172 98.1795 186.019 97.8655 188.346L96.1022 198.093L84.6714 203.425C85.1587 202.699 85.7891 202.139 86.5299 201.776L84.1824 183.011L84.159 182.773Z" fill="#111E4C" stroke="#111E4C" stroke-linecap="round" stroke-linejoin="round"/>
<path d="M230.594 148.071C224.049 150.59 173.623 170.208 159.288 175.785C156.983 176.682 155.499 178.879 155.499 181.353C155.499 201.474 155.499 227.598 155.499 240.969C155.499 245.18 159.724 248.067 163.654 246.555L230.046 221.003C230.667 220.761 231.103 220.179 231.103 219.513V148.453L231.091 148.355C231.07 148.261 231.017 148.177 230.941 148.12C230.84 148.044 230.71 148.026 230.594 148.071Z" fill="#2040C4" stroke="#111E4C" stroke-linecap="round" stroke-linejoin="round"/>
<ellipse cx="32.0512" cy="34.042" rx="32.0512" ry="34.042" transform="matrix(-0.931686 0.363264 0 1 226.809 150.234)" fill="#335CFF" stroke="#111E4C" stroke-linecap="round" stroke-linejoin="round"/>
<ellipse cx="32.0512" cy="34.042" rx="32.0512" ry="34.042" transform="matrix(-0.931686 0.363264 0 1 232.54 154.07)" fill="#2040C4" stroke="#111E4C" stroke-linecap="round" stroke-linejoin="round"/>
<path d="M208.437 180.252C210.334 179.513 211.789 180.864 211.515 183.111L209.253 201.63C211.061 202.397 212.239 204.349 212.239 207.075C212.239 211.557 209.052 216.433 205.12 217.966C201.188 219.499 198.001 217.108 198.001 212.626C198.001 209.901 199.179 207.03 200.986 204.854L198.725 188.098C198.451 186.065 199.906 183.579 201.803 182.839L208.437 180.252Z" fill="#335CFF" stroke="#111E4C" stroke-linecap="round" stroke-linejoin="round"/>
<path d="M211.987 182.773C212.166 180.422 210.646 179.01 208.641 179.664L208.438 179.737L201.804 182.324C199.632 183.172 197.966 186.019 198.28 188.346L200.043 198.093L211.474 203.425C210.987 202.699 210.356 202.139 209.616 201.776L211.963 183.011L211.987 182.773Z" fill="black" stroke="#111E4C" stroke-linecap="round" stroke-linejoin="round"/>
<path d="M98.5957 141.747C119.892 108.397 146.059 83.7387 155.49 89.3691C164.655 94.8384 157.391 124.285 139.345 157.64L98.5957 141.747Z" fill="#335CFF"/>
<path d="M130.959 105.312L132.907 108.118L128.01 104.073L126.062 101.272L130.959 105.312Z" fill="#111E4C"/>
<path d="M122.443 113.138L124.391 115.939L119.391 111.787L117.442 108.981L122.443 113.138Z" fill="#111E4C"/>
<path d="M116.093 124.455L118.041 127.26L114.742 124.565L112.794 121.76L116.093 124.455Z" fill="#111E4C"/>
<path d="M145.491 104.659C145.378 104.498 145.237 104.347 145.071 104.206C144.968 104.123 144.861 104.045 144.748 103.981C144.714 103.962 144.675 103.942 144.641 103.923C144.563 103.879 144.485 103.84 144.402 103.805C144.358 103.786 144.319 103.771 144.275 103.757C144.197 103.727 144.114 103.703 144.031 103.679C143.987 103.669 143.948 103.654 143.904 103.644C143.806 103.62 143.703 103.605 143.601 103.591C143.572 103.591 143.547 103.581 143.523 103.581C143.391 103.566 143.259 103.562 143.122 103.562C143.088 103.562 143.049 103.562 143.01 103.566C142.908 103.566 142.81 103.576 142.702 103.586C142.654 103.591 142.605 103.601 142.551 103.605C142.502 103.61 142.453 103.615 142.405 103.625C142.366 103.63 142.327 103.644 142.287 103.649C142.214 103.664 142.136 103.679 142.063 103.698C142.024 103.708 141.985 103.713 141.946 103.723C141.902 103.732 141.853 103.752 141.809 103.762C141.745 103.781 141.677 103.796 141.614 103.815C141.579 103.825 141.545 103.835 141.511 103.845C141.448 103.864 141.384 103.888 141.321 103.913C141.267 103.932 141.218 103.947 141.164 103.966C141.145 103.976 141.125 103.981 141.101 103.986C141.003 104.02 140.906 104.064 140.808 104.103C140.769 104.118 140.735 104.132 140.7 104.147C140.696 104.147 140.686 104.152 140.681 104.157C140.534 104.22 140.388 104.284 140.241 104.357C140.237 104.357 140.232 104.362 140.227 104.367C140.168 104.396 140.11 104.425 140.046 104.454C139.949 104.503 139.851 104.552 139.753 104.601C139.743 104.606 139.734 104.611 139.724 104.615C139.631 104.664 139.538 104.718 139.446 104.767C139.372 104.806 139.299 104.845 139.226 104.889C139.216 104.889 139.211 104.898 139.201 104.903C139.011 105.015 138.816 105.133 138.62 105.25C138.611 105.255 138.606 105.259 138.596 105.264C138.567 105.284 138.542 105.298 138.513 105.318C138.322 105.435 138.137 105.562 137.946 105.689C137.917 105.708 137.883 105.728 137.854 105.747C137.829 105.767 137.8 105.786 137.776 105.801C137.512 105.982 137.253 106.167 136.989 106.357C136.975 106.367 136.96 106.377 136.945 106.387C136.926 106.401 136.906 106.416 136.887 106.43C136.521 106.704 136.159 106.982 135.803 107.265C135.783 107.279 135.769 107.289 135.749 107.304C135.73 107.318 135.71 107.338 135.686 107.353C135.417 107.567 135.153 107.787 134.89 108.001C134.846 108.041 134.802 108.075 134.758 108.114C134.499 108.328 134.25 108.548 134.001 108.758C133.986 108.772 133.972 108.782 133.957 108.797C133.908 108.841 133.864 108.88 133.816 108.919C133.728 108.992 133.645 109.07 133.562 109.143C133.493 109.207 133.425 109.265 133.352 109.329C133.269 109.402 133.186 109.475 133.107 109.548C133.039 109.607 132.976 109.665 132.912 109.724C132.834 109.797 132.756 109.865 132.678 109.934C132.609 109.992 132.546 110.056 132.478 110.114C132.404 110.182 132.331 110.246 132.263 110.309C132.204 110.363 132.141 110.422 132.082 110.475C131.994 110.553 131.911 110.631 131.823 110.709C131.716 110.807 131.618 110.895 131.521 110.987C131.481 111.022 131.442 111.056 131.408 111.09C131.335 111.158 131.267 111.217 131.198 111.28C131.164 111.314 131.125 111.349 131.086 111.378C130.988 111.466 130.891 111.549 130.803 111.627L132.751 114.432C132.839 114.354 132.932 114.271 133.034 114.183C133.073 114.149 133.112 114.115 133.151 114.076C133.215 114.017 133.283 113.959 133.352 113.895C133.405 113.847 133.459 113.798 133.518 113.749C133.576 113.695 133.64 113.637 133.703 113.583C133.811 113.486 133.923 113.383 134.04 113.276C134.094 113.227 134.152 113.173 134.211 113.12C134.284 113.051 134.362 112.983 134.436 112.915C134.499 112.861 134.563 112.803 134.626 112.744C134.704 112.671 134.787 112.602 134.865 112.529C134.929 112.471 134.992 112.412 135.061 112.354C135.144 112.28 135.227 112.207 135.31 112.134C135.378 112.076 135.442 112.017 135.51 111.958C135.598 111.88 135.686 111.802 135.774 111.729C135.832 111.675 135.891 111.627 135.954 111.573C136.198 111.358 136.452 111.144 136.711 110.924C136.755 110.89 136.794 110.851 136.838 110.817C137.097 110.597 137.365 110.382 137.634 110.163C137.673 110.134 137.707 110.104 137.746 110.075C138.103 109.792 138.469 109.509 138.835 109.241C138.869 109.216 138.904 109.192 138.933 109.168C139.192 108.977 139.455 108.792 139.719 108.611C139.778 108.572 139.831 108.533 139.89 108.499C140.08 108.372 140.266 108.25 140.456 108.128C140.491 108.104 140.53 108.084 140.564 108.06C140.759 107.938 140.95 107.821 141.145 107.714C141.223 107.665 141.306 107.626 141.384 107.582C141.477 107.528 141.57 107.479 141.662 107.431C141.77 107.372 141.877 107.318 141.985 107.265C142.043 107.235 142.107 107.201 142.165 107.177C142.327 107.099 142.483 107.031 142.639 106.962C142.678 106.948 142.717 106.933 142.751 106.918C142.869 106.87 142.986 106.821 143.103 106.782C143.157 106.762 143.205 106.748 143.259 106.728C143.357 106.694 143.454 106.66 143.552 106.63C143.62 106.611 143.684 106.591 143.752 106.572C143.84 106.548 143.923 106.528 144.006 106.508C144.079 106.489 144.158 106.474 144.231 106.46C144.319 106.445 144.407 106.43 144.495 106.416C144.543 106.411 144.592 106.401 144.646 106.396C144.748 106.387 144.851 106.382 144.954 106.377C144.988 106.377 145.027 106.377 145.061 106.372C145.198 106.372 145.33 106.372 145.461 106.391C145.491 106.391 145.515 106.401 145.544 106.401C145.647 106.416 145.749 106.43 145.847 106.455C145.891 106.465 145.93 106.474 145.974 106.489C146.057 106.513 146.14 106.538 146.218 106.567C146.262 106.582 146.301 106.601 146.345 106.616C146.428 106.65 146.506 106.689 146.584 106.733C146.619 106.752 146.658 106.772 146.692 106.791C146.804 106.86 146.912 106.933 147.014 107.016C147.185 107.157 147.327 107.309 147.434 107.47L145.486 104.664L145.491 104.659Z" fill="#111E4C"/>
<path d="M156.932 102.088C156.932 102.088 156.932 102.053 156.932 102.039C156.937 101.941 156.942 101.849 156.942 101.751C156.942 101.712 156.942 101.673 156.942 101.634C156.942 101.624 156.942 101.614 156.942 101.605C156.942 101.531 156.932 101.463 156.927 101.39C156.927 101.336 156.927 101.287 156.917 101.234C156.917 101.224 156.917 101.219 156.917 101.209C156.912 101.156 156.902 101.102 156.893 101.053C156.883 100.995 156.878 100.931 156.863 100.873C156.863 100.863 156.858 100.853 156.858 100.843C156.849 100.795 156.834 100.746 156.824 100.702C156.81 100.648 156.8 100.59 156.785 100.536C156.785 100.521 156.775 100.507 156.771 100.492C156.756 100.443 156.736 100.399 156.722 100.351C156.707 100.302 156.692 100.253 156.673 100.209C156.663 100.19 156.653 100.17 156.649 100.151C156.629 100.102 156.605 100.053 156.58 100.004C156.561 99.9652 156.546 99.9262 156.526 99.8872C156.517 99.8628 156.502 99.8432 156.487 99.8188C156.458 99.7652 156.429 99.7164 156.399 99.6627C156.38 99.6286 156.36 99.5944 156.341 99.5603C156.312 99.5115 156.282 99.4676 156.248 99.4236L154.3 96.6182C154.354 96.6962 154.402 96.7792 154.451 96.8572C154.48 96.9109 154.51 96.9597 154.539 97.0134C154.573 97.0768 154.603 97.1353 154.632 97.1988C154.656 97.2476 154.676 97.2964 154.7 97.3451C154.73 97.4135 154.754 97.4769 154.773 97.5452C154.788 97.594 154.808 97.6379 154.822 97.6867C154.842 97.755 154.861 97.8282 154.881 97.9014C154.891 97.9502 154.905 97.9941 154.915 98.0429C154.93 98.1112 154.939 98.1844 154.949 98.2575C154.959 98.3112 154.969 98.36 154.974 98.4137C154.979 98.4722 154.983 98.5308 154.988 98.5942C154.988 98.6625 154.998 98.7357 154.998 98.8089C154.998 98.8577 154.998 98.9065 154.998 98.9504C154.998 99.0431 154.998 99.1407 154.988 99.2334C154.988 99.2821 154.979 99.3309 154.974 99.3748C154.964 99.4968 154.944 99.6188 154.925 99.7408C154.915 99.7847 154.91 99.8286 154.9 99.8774C154.856 100.102 154.803 100.326 154.734 100.556C154.72 100.599 154.705 100.648 154.69 100.692C154.647 100.839 154.593 100.985 154.539 101.131C154.524 101.165 154.515 101.205 154.5 101.239C154.427 101.419 154.349 101.605 154.266 101.79C154.246 101.834 154.222 101.883 154.197 101.931C154.129 102.078 154.056 102.224 153.978 102.371C153.948 102.424 153.919 102.478 153.89 102.532C153.787 102.722 153.68 102.912 153.562 103.107L155.511 105.913C155.628 105.718 155.735 105.527 155.838 105.337C155.867 105.283 155.897 105.23 155.926 105.176C156.004 105.03 156.077 104.878 156.15 104.732C156.17 104.688 156.194 104.639 156.219 104.595C156.307 104.41 156.385 104.225 156.453 104.044C156.468 104.01 156.478 103.976 156.492 103.937C156.551 103.79 156.6 103.644 156.649 103.498C156.658 103.468 156.668 103.444 156.678 103.415C156.683 103.395 156.688 103.381 156.692 103.361C156.761 103.132 156.819 102.902 156.858 102.683C156.858 102.668 156.868 102.649 156.868 102.634C156.873 102.605 156.873 102.576 156.878 102.546C156.898 102.424 156.912 102.302 156.927 102.18C156.927 102.151 156.937 102.117 156.942 102.088H156.932Z" fill="#111E4C"/>
<path d="M159.149 113.373L157.201 110.567C157.084 110.401 156.942 110.245 156.766 110.104C156.654 110.011 156.537 109.933 156.415 109.86C156.375 109.84 156.341 109.821 156.302 109.801C156.214 109.752 156.122 109.709 156.029 109.67C155.99 109.655 155.946 109.635 155.907 109.621C155.794 109.582 155.677 109.548 155.56 109.523C155.54 109.523 155.521 109.513 155.497 109.508C155.36 109.479 155.213 109.46 155.067 109.45C155.028 109.45 154.984 109.45 154.945 109.445C154.837 109.44 154.725 109.44 154.613 109.445C154.564 109.445 154.515 109.445 154.466 109.45C154.344 109.46 154.222 109.469 154.1 109.489C154.066 109.489 154.027 109.499 153.993 109.504C153.983 109.504 153.968 109.504 153.958 109.504C153.88 109.518 153.802 109.538 153.724 109.552C153.631 109.572 153.538 109.587 153.446 109.611C153.436 109.611 153.426 109.611 153.416 109.616C153.27 109.655 153.119 109.699 152.967 109.743C152.953 109.743 152.938 109.752 152.923 109.757C152.772 109.806 152.616 109.86 152.459 109.918C152.44 109.923 152.42 109.933 152.401 109.943C152.342 109.962 152.288 109.987 152.23 110.011C152.147 110.045 152.064 110.074 151.981 110.109C151.942 110.123 151.903 110.143 151.864 110.162C151.786 110.196 151.712 110.231 151.634 110.265C151.576 110.294 151.517 110.314 151.458 110.343C151.405 110.367 151.356 110.396 151.302 110.421C151.219 110.465 151.131 110.504 151.048 110.548C150.999 110.572 150.955 110.592 150.907 110.621C150.853 110.65 150.799 110.679 150.745 110.709C150.633 110.767 150.526 110.831 150.413 110.889C150.365 110.914 150.321 110.938 150.272 110.967C150.228 110.992 150.184 111.021 150.14 111.045C149.989 111.133 149.837 111.226 149.686 111.319C149.632 111.353 149.583 111.377 149.53 111.411C149.505 111.426 149.481 111.445 149.456 111.46C149.198 111.621 148.939 111.792 148.68 111.968C148.67 111.972 148.66 111.982 148.651 111.987C148.626 112.002 148.607 112.021 148.582 112.036C148.255 112.26 147.928 112.494 147.601 112.734C147.586 112.743 147.567 112.758 147.552 112.768C147.547 112.768 147.542 112.777 147.532 112.782C147.069 113.124 146.605 113.48 146.151 113.841C146.136 113.851 146.126 113.861 146.112 113.87C146.082 113.895 146.053 113.919 146.024 113.944C145.682 114.217 145.34 114.495 145.008 114.773C144.969 114.802 144.935 114.836 144.896 114.866C144.559 115.149 144.227 115.432 143.909 115.71C143.9 115.715 143.895 115.724 143.885 115.729C143.821 115.783 143.763 115.837 143.699 115.89C143.582 115.993 143.465 116.095 143.348 116.198C143.265 116.271 143.187 116.339 143.108 116.412C143.006 116.505 142.899 116.598 142.796 116.691C142.718 116.764 142.64 116.832 142.562 116.9C142.459 116.993 142.361 117.081 142.264 117.169C142.19 117.237 142.117 117.3 142.044 117.369C141.946 117.461 141.849 117.549 141.751 117.637C141.683 117.7 141.614 117.759 141.551 117.822C141.434 117.925 141.326 118.027 141.214 118.13C141.106 118.227 141.004 118.32 140.906 118.413C140.843 118.471 140.774 118.53 140.716 118.588C140.618 118.676 140.53 118.754 140.442 118.837C140.403 118.871 140.364 118.91 140.325 118.945C140.203 119.057 140.086 119.159 139.974 119.257L141.922 122.062C142.029 121.965 142.147 121.862 142.269 121.75C142.317 121.706 142.366 121.662 142.415 121.618C142.493 121.545 142.571 121.477 142.659 121.399C142.728 121.335 142.801 121.272 142.874 121.204C142.962 121.126 143.055 121.043 143.143 120.955C143.26 120.852 143.377 120.74 143.499 120.628C143.567 120.565 143.636 120.506 143.704 120.443C143.797 120.36 143.895 120.272 143.992 120.184C144.066 120.116 144.139 120.052 144.217 119.984C144.315 119.896 144.417 119.803 144.52 119.711C144.593 119.642 144.671 119.574 144.749 119.506C144.857 119.413 144.964 119.315 145.071 119.218C145.15 119.15 145.223 119.081 145.301 119.013C145.418 118.906 145.54 118.803 145.667 118.696C145.731 118.637 145.799 118.584 145.862 118.525C146.185 118.247 146.512 117.964 146.849 117.681C146.888 117.652 146.922 117.618 146.961 117.588C147.293 117.31 147.635 117.032 147.977 116.759C148.021 116.725 148.06 116.691 148.104 116.656C148.558 116.295 149.022 115.939 149.486 115.598C149.51 115.583 149.53 115.563 149.554 115.549C149.881 115.31 150.208 115.08 150.535 114.856C150.57 114.832 150.599 114.812 150.633 114.788C150.892 114.612 151.151 114.446 151.41 114.28C151.488 114.231 151.561 114.188 151.639 114.139C151.79 114.046 151.942 113.953 152.093 113.866C152.186 113.812 152.274 113.758 152.367 113.709C152.479 113.646 152.586 113.587 152.699 113.529C152.801 113.475 152.904 113.422 153.006 113.368C153.089 113.324 153.177 113.28 153.26 113.241C153.372 113.187 153.48 113.134 153.592 113.085C153.67 113.051 153.744 113.017 153.822 112.982C153.944 112.929 154.066 112.88 154.188 112.831C154.247 112.807 154.3 112.782 154.359 112.763C154.535 112.695 154.71 112.631 154.886 112.577C154.901 112.577 154.911 112.573 154.925 112.568C155.091 112.514 155.252 112.47 155.414 112.431C155.506 112.407 155.599 112.392 155.687 112.373C155.78 112.353 155.868 112.333 155.96 112.319C155.995 112.314 156.034 112.309 156.068 112.304C156.19 112.29 156.312 112.275 156.434 112.265C156.483 112.265 156.532 112.265 156.581 112.26C156.693 112.26 156.805 112.26 156.913 112.26C156.952 112.26 156.996 112.26 157.035 112.265C157.181 112.275 157.323 112.294 157.464 112.324C157.484 112.324 157.503 112.333 157.528 112.338C157.645 112.363 157.762 112.397 157.875 112.441C157.914 112.455 157.958 112.47 157.997 112.49C158.089 112.529 158.182 112.573 158.27 112.621C158.309 112.641 158.343 112.66 158.382 112.68C158.504 112.753 158.622 112.831 158.734 112.924C158.822 112.997 158.9 113.07 158.973 113.148C159.046 113.226 159.11 113.304 159.169 113.387L159.149 113.373Z" fill="#111E4C"/>
<path d="M139.294 134.119L137.345 131.314L131.139 126.264L129.806 124.351C129.806 124.351 129.796 124.351 129.791 124.356C129.777 124.366 129.757 124.375 129.743 124.385C129.723 124.395 129.708 124.405 129.694 124.419C129.674 124.434 129.655 124.444 129.64 124.458C129.621 124.473 129.601 124.488 129.581 124.507C129.562 124.522 129.547 124.536 129.533 124.551C129.498 124.58 129.464 124.61 129.435 124.634C129.415 124.649 129.396 124.668 129.376 124.683C129.342 124.712 129.308 124.737 129.274 124.761L123.571 120.048C123.492 120.014 123.409 119.984 123.321 119.955C123.307 119.955 123.297 119.945 123.287 119.945C123.199 119.921 123.112 119.901 123.014 119.887C122.994 119.887 122.98 119.882 122.96 119.877C122.863 119.862 122.76 119.857 122.648 119.857C122.628 119.857 122.613 119.857 122.594 119.857C122.477 119.857 122.36 119.872 122.233 119.892C122.233 119.892 122.233 119.892 122.228 119.892C122.198 119.892 122.169 119.906 122.14 119.911C122.091 119.921 122.037 119.931 121.988 119.945C121.984 119.945 121.979 119.945 121.974 119.945C121.905 119.965 121.837 119.984 121.764 120.004C121.764 120.004 121.759 120.004 121.754 120.004C121.744 120.004 121.73 120.014 121.72 120.014C121.671 120.028 121.622 120.048 121.573 120.062C121.549 120.072 121.529 120.082 121.505 120.092C121.486 120.101 121.466 120.106 121.446 120.116C121.427 120.126 121.412 120.131 121.393 120.136C121.334 120.16 121.276 120.189 121.212 120.218C121.207 120.218 121.202 120.223 121.197 120.228C121.188 120.233 121.173 120.238 121.163 120.248C121.119 120.267 121.075 120.292 121.031 120.316C120.992 120.336 120.958 120.355 120.919 120.379C120.904 120.389 120.885 120.399 120.87 120.404C120.86 120.409 120.851 120.414 120.841 120.419C120.773 120.458 120.709 120.497 120.641 120.54C120.626 120.55 120.611 120.56 120.597 120.57C120.572 120.584 120.553 120.599 120.528 120.614C120.494 120.638 120.455 120.658 120.421 120.682C120.377 120.711 120.338 120.741 120.294 120.77C120.27 120.789 120.24 120.804 120.216 120.823C120.201 120.833 120.192 120.843 120.177 120.848C120.084 120.916 119.991 120.984 119.899 121.063C119.884 121.072 119.869 121.087 119.859 121.097C119.767 121.175 119.669 121.253 119.571 121.336C119.562 121.346 119.547 121.355 119.537 121.365C119.537 121.365 119.532 121.365 119.527 121.37C119.523 121.37 119.518 121.38 119.508 121.385C119.503 121.385 119.493 121.394 119.488 121.399C119.469 121.414 119.449 121.428 119.425 121.448C119.425 121.448 119.415 121.458 119.41 121.463C119.313 121.541 119.166 121.668 118.99 121.819C118.985 121.819 118.981 121.829 118.976 121.833C118.912 121.887 118.844 121.946 118.775 122.009C118.751 122.029 118.732 122.048 118.707 122.068C118.649 122.121 118.585 122.175 118.517 122.234C118.487 122.258 118.463 122.282 118.434 122.307C118.36 122.37 118.292 122.434 118.219 122.497C118.199 122.517 118.18 122.531 118.155 122.551C118.063 122.634 117.97 122.717 117.877 122.8C117.848 122.824 117.823 122.848 117.794 122.873C117.731 122.926 117.667 122.985 117.608 123.039C117.564 123.078 117.521 123.117 117.477 123.161C117.428 123.204 117.384 123.244 117.34 123.283C117.291 123.326 117.242 123.37 117.198 123.409C117.125 123.478 117.052 123.541 116.983 123.605C116.949 123.634 116.915 123.663 116.881 123.697C116.827 123.746 116.778 123.79 116.73 123.834C116.695 123.863 116.666 123.892 116.637 123.917C116.607 123.941 116.578 123.966 116.554 123.995C116.5 124.044 116.446 124.092 116.402 124.132C116.227 124.288 116.109 124.4 116.08 124.424L118.028 127.23C118.072 127.191 118.292 126.991 118.6 126.713C118.624 126.688 118.653 126.664 118.678 126.639C118.741 126.581 118.81 126.517 118.883 126.454C118.893 126.444 118.902 126.434 118.912 126.425C119 126.347 119.093 126.264 119.186 126.181C119.2 126.166 119.22 126.151 119.234 126.137C119.308 126.073 119.381 126.005 119.459 125.937C119.488 125.912 119.518 125.883 119.547 125.859C119.63 125.786 119.713 125.707 119.801 125.634C119.811 125.625 119.816 125.62 119.825 125.61C119.928 125.522 120.026 125.429 120.123 125.342C120.133 125.332 120.143 125.322 120.157 125.312C120.24 125.239 120.318 125.171 120.397 125.102C120.421 125.078 120.45 125.054 120.475 125.034C120.543 124.971 120.616 124.912 120.68 124.854C120.694 124.839 120.714 124.824 120.729 124.81C120.807 124.741 120.88 124.678 120.948 124.619C121.036 124.541 121.119 124.473 121.193 124.41C121.193 124.41 121.197 124.405 121.202 124.4C121.266 124.346 121.324 124.297 121.368 124.263C121.407 124.229 121.442 124.205 121.466 124.185C121.49 124.166 121.505 124.161 121.505 124.161C121.617 124.068 121.725 123.975 121.832 123.892C121.842 123.883 121.857 123.873 121.866 123.863C121.974 123.775 122.081 123.697 122.184 123.619C122.208 123.6 122.237 123.585 122.262 123.566C122.34 123.507 122.423 123.453 122.496 123.405C122.521 123.39 122.54 123.375 122.565 123.361C122.657 123.302 122.75 123.244 122.838 123.195C122.853 123.185 122.867 123.175 122.887 123.17C122.97 123.126 123.053 123.082 123.131 123.043C123.141 123.039 123.155 123.034 123.165 123.024C123.253 122.985 123.336 122.946 123.414 122.912C123.434 122.902 123.453 122.897 123.473 122.887C123.546 122.858 123.619 122.834 123.688 122.809C123.697 122.809 123.712 122.8 123.722 122.795C123.805 122.77 123.883 122.746 123.956 122.726C124.01 122.712 124.059 122.707 124.108 122.697C124.142 122.692 124.176 122.682 124.205 122.678C124.332 122.658 124.454 122.648 124.567 122.643C124.586 122.643 124.606 122.643 124.62 122.643C124.728 122.643 124.835 122.648 124.933 122.663C124.952 122.663 124.967 122.663 124.987 122.673C125.084 122.687 125.177 122.707 125.26 122.731C125.275 122.731 125.284 122.741 125.299 122.741C125.387 122.77 125.47 122.8 125.548 122.834L131.251 127.547C131.251 127.547 131.261 127.542 131.266 127.537C131.266 127.537 131.276 127.532 131.281 127.527L131.305 127.566L139.333 134.099L139.294 134.119Z" fill="#111E4C"/>
<mask id="mask0_12224_40530" style="mask-type:luminance" maskUnits="userSpaceOnUse" x="137" y="131" width="3" height="4">
<path d="M137.361 131.343L139.31 134.148C139.31 134.148 139.295 134.129 139.29 134.124L137.342 131.318C137.342 131.318 137.356 131.338 137.361 131.343Z" fill="white"/>
</mask>
<g mask="url(#mask0_12224_40530)">
<path d="M137.361 131.343L139.31 134.148C139.31 134.148 139.295 134.129 139.29 134.124L137.342 131.318C137.342 131.318 137.356 131.338 137.361 131.343Z" fill="#858585"/>
</g>
<path d="M170.311 109.489C170.321 109.367 170.321 109.245 170.326 109.118C170.326 109.06 170.33 109.001 170.33 108.943C170.33 108.928 170.33 108.918 170.33 108.904C170.33 108.728 170.316 108.552 170.301 108.382C170.301 108.362 170.296 108.347 170.291 108.333C170.286 108.289 170.277 108.24 170.272 108.196C170.257 108.094 170.247 107.991 170.228 107.889C170.218 107.835 170.199 107.777 170.189 107.723C170.174 107.664 170.16 107.606 170.145 107.547C170.13 107.503 170.125 107.455 170.111 107.406C170.076 107.289 170.033 107.172 169.989 107.054C169.979 107.02 169.969 106.991 169.954 106.957C169.954 106.947 169.95 106.937 169.945 106.928C169.881 106.767 169.808 106.606 169.725 106.445C169.715 106.425 169.701 106.406 169.691 106.386C169.661 106.327 169.627 106.274 169.593 106.215C169.539 106.123 169.495 106.03 169.437 105.942C169.388 105.869 169.344 105.796 169.29 105.722L167.342 102.917C167.454 103.078 167.552 103.244 167.645 103.41C167.679 103.468 167.713 103.522 167.742 103.581C167.84 103.766 167.928 103.956 168.001 104.151C168.016 104.186 168.021 104.215 168.035 104.249C168.094 104.41 168.148 104.576 168.192 104.742C168.206 104.8 168.221 104.859 168.236 104.917C168.27 105.074 168.299 105.23 168.324 105.391C168.328 105.435 168.338 105.483 168.343 105.527C168.367 105.727 168.377 105.932 168.382 106.142C168.382 106.201 168.382 106.259 168.377 106.318C168.377 106.469 168.367 106.625 168.353 106.781C168.343 106.893 168.324 107.011 168.309 107.123C168.289 107.255 168.275 107.386 168.245 107.518C168.236 107.567 168.226 107.62 168.211 107.669C168.167 107.874 168.114 108.079 168.05 108.284C168.05 108.299 168.045 108.308 168.04 108.323C167.967 108.557 167.884 108.796 167.791 109.04C167.762 109.109 167.733 109.182 167.703 109.25C167.63 109.421 167.562 109.596 167.479 109.767C167.435 109.86 167.386 109.958 167.337 110.05C167.259 110.201 167.186 110.358 167.103 110.509C167.044 110.611 166.986 110.719 166.927 110.821C166.844 110.967 166.761 111.114 166.668 111.265C166.6 111.377 166.531 111.485 166.458 111.597C166.365 111.743 166.273 111.89 166.17 112.041C166.092 112.153 166.014 112.27 165.936 112.382C165.833 112.529 165.726 112.68 165.618 112.826C165.535 112.944 165.447 113.061 165.36 113.178C165.247 113.329 165.13 113.48 165.013 113.631C164.92 113.749 164.827 113.866 164.735 113.988C164.549 114.217 164.363 114.451 164.168 114.685C163.904 114.998 163.626 115.32 163.343 115.642C163.284 115.71 163.221 115.778 163.157 115.847C162.874 116.159 162.586 116.476 162.283 116.798C162.215 116.871 162.142 116.949 162.068 117.022C161.898 117.203 161.722 117.383 161.546 117.569C161.453 117.666 161.356 117.764 161.263 117.862C161.097 118.032 160.931 118.203 160.76 118.374C160.662 118.472 160.565 118.569 160.467 118.667C160.286 118.847 160.101 119.028 159.915 119.208C159.827 119.296 159.734 119.384 159.647 119.472C159.407 119.706 159.163 119.94 158.919 120.174C158.875 120.218 158.831 120.257 158.787 120.301L160.735 123.107C160.735 123.107 160.755 123.087 160.765 123.077C160.799 123.043 160.833 123.014 160.867 122.98C161.111 122.746 161.356 122.511 161.595 122.282C161.688 122.189 161.78 122.102 161.868 122.014C162.054 121.833 162.234 121.653 162.41 121.477C162.508 121.379 162.61 121.277 162.708 121.179C162.879 121.009 163.045 120.838 163.211 120.672C163.304 120.574 163.402 120.477 163.494 120.379C163.67 120.199 163.846 120.013 164.017 119.833C164.075 119.769 164.134 119.711 164.193 119.647C164.207 119.633 164.217 119.618 164.232 119.608C164.529 119.291 164.822 118.974 165.101 118.657C165.164 118.589 165.228 118.515 165.286 118.447C165.57 118.125 165.848 117.808 166.112 117.496C166.263 117.32 166.405 117.14 166.551 116.964C166.595 116.905 166.639 116.852 166.683 116.798C166.776 116.681 166.868 116.564 166.956 116.447C167.073 116.295 167.191 116.139 167.308 115.988C167.396 115.871 167.479 115.754 167.567 115.642C167.674 115.49 167.782 115.344 167.884 115.193C167.962 115.081 168.04 114.963 168.118 114.851C168.216 114.705 168.314 114.558 168.407 114.407C168.475 114.295 168.548 114.188 168.616 114.075C168.709 113.924 168.792 113.778 168.875 113.631C168.934 113.529 168.997 113.422 169.051 113.319C169.134 113.163 169.212 113.012 169.285 112.856C169.334 112.763 169.383 112.665 169.427 112.573C169.51 112.397 169.583 112.221 169.652 112.051C169.681 111.982 169.715 111.914 169.74 111.846C169.832 111.607 169.915 111.372 169.989 111.143V111.133C169.989 111.119 169.993 111.109 169.998 111.094C170.062 110.889 170.111 110.685 170.155 110.48C170.164 110.431 170.179 110.377 170.189 110.328C170.199 110.284 170.208 110.241 170.218 110.197C170.233 110.109 170.238 110.021 170.252 109.933C170.267 109.821 170.286 109.704 170.296 109.592C170.296 109.562 170.306 109.528 170.311 109.499V109.489Z" fill="#111E4C"/>
<path d="M153.616 129.498C153.953 129.205 154.29 128.913 154.617 128.625C155.096 128.205 155.569 127.786 156.033 127.381L154.085 124.575C153.621 124.98 153.148 125.4 152.669 125.819C152.342 126.107 152.005 126.4 151.668 126.693C151.561 126.785 151.458 126.878 151.351 126.971C150.98 127.293 150.604 127.615 150.218 127.942L152.166 130.747C152.552 130.42 152.928 130.093 153.299 129.776C153.323 129.757 153.348 129.737 153.367 129.718C153.45 129.645 153.533 129.571 153.616 129.498Z" fill="#111E4C"/>
<path d="M145.363 136.68C145.773 136.314 146.183 135.958 146.588 135.602C146.832 135.392 147.072 135.182 147.316 134.977L145.367 132.172C145.167 132.343 144.967 132.513 144.767 132.689C144.728 132.723 144.684 132.762 144.645 132.796C144.24 133.153 143.829 133.509 143.419 133.875C143.072 134.182 142.721 134.489 142.369 134.797C142.228 134.924 142.081 135.046 141.94 135.173L135.719 140.72L137.667 143.526L143.888 137.978C143.956 137.919 144.02 137.866 144.088 137.807C144.166 137.739 144.244 137.671 144.323 137.602C144.674 137.295 145.026 136.988 145.372 136.68H145.363Z" fill="#111E4C"/>
<path d="M135.715 140.72L137.668 143.525L134.963 139.671L133.015 136.87L135.715 140.72Z" fill="#808080"/>
<path d="M159.035 128.713L160.984 131.513L156.037 127.381L154.089 124.575L159.035 128.713Z" fill="#111E4C"/>
<path d="M164.062 124.253L166.01 127.054L160.984 131.513L159.036 128.713L164.062 124.253Z" fill="#111E4C"/>
<path d="M150.412 136.343L152.365 139.149L147.316 134.977L145.368 132.172L150.412 136.343Z" fill="#111E4C"/>
<path d="M152.668 95.1451C155.691 96.9943 155.539 99.8144 153.557 103.113C158.918 99.5997 163.479 98.5214 166.775 102.215C169.832 105.601 168.284 109.773 164.163 114.686C162.673 116.462 160.852 118.331 158.786 120.297L163.835 124.468L159.036 128.713L154.089 124.576C152.863 125.649 151.589 126.776 150.217 127.947L155.217 132.104L150.417 136.349L145.368 132.177C144.24 133.134 143.112 134.163 141.935 135.178L135.715 140.726L133.009 136.871C133.18 136.725 136.408 133.909 136.535 133.763C136.725 133.587 136.882 133.426 137.013 133.27C137.795 132.338 137.599 131.675 137.341 131.324C132.707 127.553 128.159 123.858 123.561 120.058C122.809 119.711 121.466 119.677 119.508 121.395C119.552 121.263 116.207 124.293 116.026 124.454L112.794 121.77L119.405 115.91C120.436 114.993 121.412 114.061 122.443 113.144L117.443 108.987L122.291 104.684L127.189 108.728C128.415 107.582 129.689 106.45 130.959 105.323L126.061 101.278L130.861 97.0333L135.861 101.19C142.433 95.9892 148.498 92.6519 152.668 95.1451ZM156.765 110.104C152.78 106.845 143.249 116.345 139.963 119.243L146.677 124.776C148.41 123.254 152.273 120.038 154.9 116.906C157.17 114.198 158.518 111.544 156.765 110.104ZM145.07 104.206C141.486 101.244 133.522 109.265 130.822 111.622L136.886 116.691C138.307 115.437 141.389 112.881 143.537 110.319C145.529 107.948 146.721 105.567 145.07 104.206Z" fill="white"/>
<path d="M155.415 131.881L157.363 134.686L152.365 139.149L150.412 136.343L155.415 131.881Z" fill="#111E4C"/>
<path d="M144.976 94.8193C147.805 93.6585 150.47 93.3693 152.709 94.5928L152.925 94.7158L152.929 94.7188C154.553 95.7124 155.383 97.0143 155.488 98.5518C155.557 99.559 155.31 100.628 154.834 101.733C156.621 100.695 158.336 99.9526 159.955 99.6152C159.994 104.212 159.045 109.993 157.221 116.604C156.443 119.422 155.503 122.395 154.413 125.498L154.097 125.233C153.107 126.102 152.078 127.006 150.99 127.94L152.93 129.553C152.047 131.875 151.087 134.259 150.051 136.694L145.374 132.831C144.353 133.708 143.352 134.614 142.268 135.55L142.269 135.551L136.047 141.099L135.628 141.473L135.306 141.013L132.601 137.158L132.339 136.787L132.685 136.491C132.769 136.419 133.615 135.682 134.459 134.941C134.881 134.571 135.301 134.202 135.623 133.916C135.784 133.773 135.92 133.652 136.019 133.562C136.134 133.458 136.167 133.425 136.157 133.436L136.176 133.414L136.196 133.396C136.375 133.231 136.516 133.084 136.632 132.947C136.971 132.543 137.058 132.244 137.067 132.054C137.076 131.888 137.026 131.759 136.964 131.661C132.371 127.923 127.859 124.257 123.298 120.488C122.764 120.269 121.644 120.187 119.838 121.771L118.449 122.988L118.465 122.939C118.373 123.021 118.279 123.104 118.185 123.188C117.361 123.922 116.426 124.768 116.359 124.827L116.038 125.113L115.707 124.839L112.475 122.155L112.046 121.798C112.074 121.762 112.101 121.726 112.129 121.69L112.462 121.396L119.074 115.536C119.585 115.081 120.083 114.622 120.585 114.159C120.946 113.826 121.31 113.493 121.679 113.159L120.196 111.927C121.884 110.005 123.558 108.175 125.21 106.445L127.17 108.064C128.16 107.147 129.177 106.238 130.191 105.337L128.039 103.561C129.006 102.602 129.963 101.68 130.908 100.799C131.758 100.006 132.6 99.2463 133.43 98.5186L135.871 100.548C139.055 98.0517 142.145 95.9805 144.976 94.8193ZM156.447 110.49C155.643 109.834 154.51 109.771 153.072 110.227C151.64 110.681 150.022 111.618 148.391 112.772C145.394 114.894 142.475 117.649 140.727 119.225L146.668 124.12C148.533 122.498 152.07 119.502 154.517 116.585C155.641 115.244 156.497 113.96 156.868 112.868C157.052 112.327 157.105 111.863 157.039 111.479C156.975 111.106 156.795 110.777 156.447 110.491V110.49ZM144.752 104.591C144.036 103.999 143.063 103.914 141.85 104.264C140.635 104.614 139.272 105.377 137.9 106.33C135.421 108.053 133.042 110.302 131.587 111.609L136.879 116.033C138.415 114.694 141.184 112.347 143.154 109.998V109.997C144.139 108.825 144.883 107.697 145.193 106.73C145.347 106.252 145.384 105.843 145.316 105.499C145.259 105.208 145.121 104.938 144.868 104.694L144.752 104.591Z" fill="#335CFF"/>
<path d="M152.668 95.1451C155.691 96.9943 155.539 99.8144 153.557 103.113C158.918 99.5997 163.479 98.5214 166.775 102.215C169.832 105.601 168.284 109.773 164.163 114.686C162.673 116.462 160.852 118.331 158.786 120.297L163.835 124.468L159.036 128.713L154.089 124.576C152.863 125.649 151.589 126.776 150.217 127.947L155.217 132.104L150.417 136.349L145.368 132.177C144.24 133.134 143.112 134.163 141.935 135.178L135.715 140.726L133.009 136.871C133.18 136.725 136.408 133.909 136.535 133.763C136.725 133.587 136.882 133.426 137.013 133.27C137.795 132.338 137.599 131.675 137.341 131.324C134.608 129.099 131.904 126.902 129.203 124.693C127.325 123.157 125.447 121.616 123.561 120.058C122.809 119.711 121.466 119.677 119.508 121.395C119.552 121.263 116.207 124.293 116.026 124.454L112.794 121.77L119.405 115.91C120.436 114.993 121.412 114.061 122.443 113.144L117.443 108.987L122.291 104.684L127.189 108.728C128.415 107.582 129.689 106.45 130.959 105.323L126.061 101.278L130.861 97.0333L135.861 101.19C142.433 95.9892 148.498 92.6519 152.668 95.1451ZM156.765 110.104C152.78 106.845 143.249 116.345 139.963 119.243L146.677 124.776C148.41 123.254 152.273 120.038 154.9 116.906C157.17 114.198 158.518 111.544 156.765 110.104ZM145.07 104.206C141.486 101.244 133.522 109.265 130.822 111.622L136.886 116.691C138.307 115.437 141.389 112.881 143.537 110.319C145.529 107.948 146.721 105.567 145.07 104.206Z" stroke="#111E4C" stroke-linejoin="round"/>
<path d="M154.788 123.968C153.341 125.235 151.837 126.565 150.218 127.947" stroke="#111E4C" stroke-linecap="round" stroke-linejoin="round"/>
<path d="M145.881 131.682C144.435 132.948 142.931 134.279 141.312 135.66" stroke="#111E4C" stroke-linecap="round" stroke-linejoin="round"/>
<path d="M156.765 110.105C152.781 106.845 143.249 116.345 139.963 119.243" stroke="white" stroke-linecap="round"/>
<path d="M145.072 104.205C141.488 101.244 133.524 109.265 130.823 111.622" stroke="white" stroke-linecap="round"/>
<path d="M137.358 131.406C135.48 129.87 125.447 121.616 123.561 120.058C122.809 119.711 121.466 119.677 119.508 121.395C119.552 121.263 116.207 124.293 116.026 124.454L113.154 122.036" stroke="white" stroke-linecap="round"/>
<mask id="path-76-inside-1_12224_40530" fill="white">
<path d="M144.879 167.45C144.78 167.707 144.491 167.836 144.234 167.738L118.773 157.977C118.426 157.844 118.195 157.558 118.056 157.23C117.919 156.904 117.854 156.502 117.852 156.05C117.847 155.146 118.087 154.089 118.461 153.112C118.836 152.134 119.364 151.188 119.972 150.519C120.276 150.185 120.592 149.929 120.913 149.778C121.236 149.627 121.599 149.568 121.945 149.701L147.406 159.462L147.497 159.507C147.693 159.632 147.781 159.882 147.694 160.107L144.879 167.45Z"/>
</mask>
<path d="M144.879 167.45C144.78 167.707 144.491 167.836 144.234 167.738L118.773 157.977C118.426 157.844 118.195 157.558 118.056 157.23C117.919 156.904 117.854 156.502 117.852 156.05C117.847 155.146 118.087 154.089 118.461 153.112C118.836 152.134 119.364 151.188 119.972 150.519C120.276 150.185 120.592 149.929 120.913 149.778C121.236 149.627 121.599 149.568 121.945 149.701L147.406 159.462L147.497 159.507C147.693 159.632 147.781 159.882 147.694 160.107L144.879 167.45Z" fill="#335CFF"/>
<path d="M144.879 167.45L145.813 167.809L145.813 167.808L144.879 167.45ZM144.234 167.738L143.876 168.671L143.876 168.671L144.234 167.738ZM118.773 157.977L118.415 158.911L118.415 158.911L118.773 157.977ZM118.056 157.23L117.135 157.619L117.135 157.619L118.056 157.23ZM117.852 156.05L116.852 156.056L116.852 156.056L117.852 156.05ZM118.461 153.112L117.528 152.754L117.528 152.754L118.461 153.112ZM119.972 150.519L119.232 149.846L119.232 149.846L119.972 150.519ZM120.913 149.778L120.488 148.873L120.488 148.873L120.913 149.778ZM121.945 149.701L122.303 148.767L122.303 148.767L121.945 149.701ZM147.406 159.462L147.853 158.567C147.824 158.552 147.794 158.539 147.764 158.528L147.406 159.462ZM147.497 159.507L148.034 158.664C148.005 158.645 147.974 158.628 147.943 158.612L147.497 159.507ZM147.694 160.107L146.76 159.75L147.694 160.107ZM144.879 167.45L143.946 167.091C144.045 166.834 144.333 166.705 144.591 166.804L144.234 167.738L143.876 168.671C144.65 168.968 145.516 168.58 145.813 167.809L144.879 167.45ZM144.234 167.738L144.591 166.804L119.131 157.043L118.773 157.977L118.415 158.911L143.876 168.671L144.234 167.738ZM118.773 157.977L119.131 157.043C119.114 157.037 119.047 157.004 118.977 156.84L118.056 157.23L117.135 157.619C117.344 158.112 117.739 158.651 118.415 158.911L118.773 157.977ZM118.056 157.23L118.977 156.841C118.908 156.675 118.854 156.415 118.852 156.044L117.852 156.05L116.852 156.056C116.855 156.588 116.929 157.132 117.135 157.619L118.056 157.23ZM117.852 156.05L118.852 156.044C118.847 155.301 119.049 154.372 119.395 153.47L118.461 153.112L117.528 152.754C117.124 153.807 116.846 154.99 116.852 156.056L117.852 156.05ZM118.461 153.112L119.395 153.47C119.741 152.568 120.212 151.741 120.712 151.191L119.972 150.519L119.232 149.846C118.516 150.634 117.932 151.7 117.528 152.754L118.461 153.112ZM119.972 150.519L120.712 151.191C120.961 150.917 121.175 150.76 121.338 150.683L120.913 149.778L120.488 148.873C120.01 149.097 119.591 149.452 119.232 149.846L119.972 150.519ZM120.913 149.778L121.338 150.683C121.499 150.608 121.57 150.628 121.588 150.635L121.945 149.701L122.303 148.767C121.627 148.508 120.973 148.645 120.488 148.873L120.913 149.778ZM121.945 149.701L121.587 150.635L147.048 160.395L147.406 159.462L147.764 158.528L122.303 148.767L121.945 149.701ZM147.406 159.462L146.96 160.356L147.05 160.402L147.497 159.507L147.943 158.612L147.853 158.567L147.406 159.462ZM147.497 159.507L146.959 160.35C146.762 160.224 146.674 159.976 146.76 159.75L147.694 160.107L148.628 160.465C148.888 159.788 148.623 159.039 148.034 158.664L147.497 159.507ZM147.694 160.107L146.76 159.75L143.946 167.092L144.879 167.45L145.813 167.808L148.628 160.465L147.694 160.107Z" fill="#111E4C" mask="url(#path-76-inside-1_12224_40530)"/>
<path d="M143.735 165.778C143.726 164.13 144.617 161.805 145.725 160.586C146.291 159.963 146.804 159.749 147.172 159.908C147.525 160.06 147.745 160.555 147.75 161.362C147.759 163.01 146.868 165.334 145.759 166.554C145.217 167.15 144.722 167.372 144.358 167.249C143.978 167.121 143.74 166.619 143.735 165.778Z" fill="#335CFF" stroke="#111E4C" stroke-linecap="round" stroke-linejoin="round"/>
<path d="M138.273 164.917C137.894 164.789 137.655 164.287 137.65 163.445C137.641 161.797 138.532 159.473 139.641 158.254C140.206 157.631 140.72 157.417 141.088 157.576" stroke="#111E4C" stroke-linecap="round" stroke-linejoin="round"/>
<path d="M125.769 160.122C125.389 159.994 125.15 159.492 125.145 158.65C125.136 157.002 126.027 154.678 127.136 153.459C127.702 152.836 128.215 152.622 128.583 152.781" stroke="#111E4C" stroke-linecap="round" stroke-linejoin="round"/>
<mask id="path-81-inside-2_12224_40530" fill="white">
<path d="M103.715 151.671C103.616 151.929 103.327 152.058 103.069 151.959L77.6105 142.2C77.2639 142.066 77.0329 141.781 76.894 141.452C76.7564 141.126 76.692 140.724 76.6895 140.272C76.6844 139.368 76.9245 138.312 77.2992 137.334C77.674 136.356 78.2016 135.41 78.8099 134.741C79.1137 134.407 79.4302 134.151 79.7506 134C80.0736 133.849 80.4364 133.791 80.7831 133.924L106.242 143.683L106.333 143.728C106.529 143.853 106.616 144.104 106.53 144.329L103.715 151.671Z"/>
</mask>
<path d="M103.715 151.671C103.616 151.929 103.327 152.058 103.069 151.959L77.6105 142.2C77.2639 142.066 77.0329 141.781 76.894 141.452C76.7564 141.126 76.692 140.724 76.6895 140.272C76.6844 139.368 76.9245 138.312 77.2992 137.334C77.674 136.356 78.2016 135.41 78.8099 134.741C79.1137 134.407 79.4302 134.151 79.7506 134C80.0736 133.849 80.4364 133.791 80.7831 133.924L106.242 143.683L106.333 143.728C106.529 143.853 106.616 144.104 106.53 144.329L103.715 151.671Z" fill="#335CFF"/>
<path d="M103.715 151.671L104.649 152.03L104.649 152.029L103.715 151.671ZM103.069 151.959L102.712 152.893L103.069 151.959ZM77.6105 142.2L77.2521 143.133L77.2525 143.133L77.6105 142.2ZM76.894 141.452L75.9728 141.841L75.9729 141.841L76.894 141.452ZM76.6895 140.272L75.6895 140.278L75.6895 140.278L76.6895 140.272ZM77.2992 137.334L76.3655 136.976L76.3655 136.976L77.2992 137.334ZM78.8099 134.741L78.07 134.068L78.07 134.068L78.8099 134.741ZM79.7506 134L79.3258 133.095L79.3256 133.095L79.7506 134ZM80.7831 133.924L81.1411 132.99L81.1406 132.99L80.7831 133.924ZM106.242 143.683L106.689 142.789C106.66 142.774 106.63 142.761 106.6 142.75L106.242 143.683ZM106.333 143.728L106.87 142.885C106.841 142.866 106.81 142.849 106.779 142.834L106.333 143.728ZM106.53 144.329L107.464 144.687L107.464 144.687L106.53 144.329ZM103.715 151.671L102.782 151.313C102.88 151.056 103.169 150.927 103.427 151.026L103.069 151.959L102.712 152.893C103.485 153.19 104.352 152.803 104.649 152.03L103.715 151.671ZM103.069 151.959L103.427 151.026L77.9684 141.266L77.6105 142.2L77.2525 143.133L102.712 152.893L103.069 151.959ZM77.6105 142.2L77.9689 141.266C77.9513 141.259 77.8843 141.227 77.8151 141.063L76.894 141.452L75.9729 141.841C76.1815 142.335 76.5766 142.874 77.2521 143.133L77.6105 142.2ZM76.894 141.452L77.8153 141.063C77.7454 140.898 77.6916 140.637 77.6894 140.267L76.6895 140.272L75.6895 140.278C75.6925 140.811 75.7673 141.355 75.9728 141.841L76.894 141.452ZM76.6895 140.272L77.6894 140.267C77.6853 139.524 77.8873 138.594 78.233 137.692L77.2992 137.334L76.3655 136.976C75.9616 138.03 75.6835 139.213 75.6895 140.278L76.6895 140.272ZM77.2992 137.334L78.233 137.692C78.5787 136.79 79.0499 135.964 79.5498 135.414L78.8099 134.741L78.07 134.068C77.3533 134.857 76.7694 135.923 76.3655 136.976L77.2992 137.334ZM78.8099 134.741L79.5498 135.414C79.7991 135.14 80.0131 134.982 80.1757 134.906L79.7506 134L79.3256 133.095C78.8473 133.32 78.4283 133.674 78.07 134.068L78.8099 134.741ZM79.7506 134L80.1755 134.906C80.3364 134.83 80.408 134.851 80.4256 134.857L80.7831 133.924L81.1406 132.99C80.4649 132.731 79.8109 132.868 79.3258 133.095L79.7506 134ZM80.7831 133.924L80.4252 134.857L105.884 144.617L106.242 143.683L106.6 142.75L81.1411 132.99L80.7831 133.924ZM106.242 143.683L105.796 144.578L105.886 144.623L106.333 143.728L106.779 142.834L106.689 142.789L106.242 143.683ZM106.333 143.728L105.795 144.572C105.597 144.446 105.51 144.197 105.596 143.972L106.53 144.329L107.464 144.687C107.723 144.01 107.46 143.261 106.87 142.885L106.333 143.728ZM106.53 144.329L105.596 143.971L102.782 151.313L103.715 151.671L104.649 152.029L107.464 144.687L106.53 144.329Z" fill="#111E4C" mask="url(#path-81-inside-2_12224_40530)"/>
<path d="M102.575 150C102.566 148.352 103.457 146.028 104.565 144.808C105.131 144.186 105.644 143.972 106.012 144.13C106.365 144.283 106.585 144.778 106.589 145.584C106.599 147.232 105.708 149.557 104.599 150.776C104.056 151.373 103.562 151.595 103.198 151.472C102.818 151.344 102.58 150.841 102.575 150Z" fill="#335CFF" stroke="#111E4C" stroke-linecap="round" stroke-linejoin="round"/>
<path d="M97.1123 149.14C96.7325 149.012 96.494 148.509 96.4892 147.668C96.4798 146.02 97.3709 143.696 98.4795 142.476C99.0453 141.854 99.5585 141.64 99.9266 141.798" stroke="#111E4C" stroke-linecap="round" stroke-linejoin="round"/>
<path d="M84.6064 144.346C84.2266 144.218 83.9881 143.715 83.9833 142.874C83.974 141.226 84.865 138.902 85.9736 137.682C86.5395 137.06 87.0526 136.846 87.4207 137.004" stroke="#111E4C" stroke-linecap="round" stroke-linejoin="round"/>
<path d="M176.585 79.7041C178.51 82.9119 179.757 88.0232 179.757 93.7812C179.757 94.6839 179.725 95.5705 179.666 96.4365L165.248 90.7607C165.087 90.6971 164.97 90.5542 164.939 90.3838C164.909 90.2127 164.97 90.0374 165.1 89.9219L176.585 79.7041Z" fill="white"/>
<ellipse cx="179.757" cy="86.675" rx="4.96603" ry="3.508" fill="#111E4C" stroke="#111E4C" stroke-linejoin="round"/>
<ellipse cx="179.757" cy="85.0949" rx="4.96603" ry="3.508" fill="#335CFF" stroke="#111E4C" stroke-linecap="round" stroke-linejoin="round"/>
<circle cx="197.269" cy="242.707" r="39.5207" transform="rotate(-15 197.269 242.707)" fill="white" stroke="#111E4C"/>
<path d="M176.439 269.11C181.006 272.051 193.369 270.511 206.604 264.996C219.566 259.594 229.231 252.102 230.683 246.803C229.544 256.199 224.464 265.059 215.974 270.724C203.531 279.028 187.56 277.933 176.439 269.11Z" fill="#ACB7C0" stroke="#111E4C"/>
<path fill-rule="evenodd" clip-rule="evenodd" d="M224.469 254.664C224.476 257.749 223.431 261.743 219.873 265.771C214.238 272.15 213.192 269.493 212.624 262.226C217.333 259.837 221.386 257.225 224.469 254.664Z" fill="#D9D9D9"/>
<ellipse cx="30.1953" cy="10.0747" rx="30.1953" ry="10.0747" transform="matrix(-0.923056 0.384665 0.384665 0.923056 226.726 234.782)" fill="#D7DCE0" stroke="#111E4C"/>
<path d="M203.87 238.385L210.405 246.173L186.213 241.908L179.678 234.12L203.87 238.385Z" fill="#335CFF" stroke="#111E4C" stroke-miterlimit="10"/>
<path d="M176.287 239.994L179.676 234.124L186.205 241.913L182.804 247.803L176.287 239.994Z" fill="#111E4C" stroke="#111E4C" stroke-linejoin="round"/>
<path d="M179.606 243.792L181.239 240.964L184.385 244.717L182.746 247.555L179.606 243.792Z" fill="#335CFF" stroke="#111E4C" stroke-linejoin="round"/>
<path d="M178.098 237.202L179.73 234.374L182.876 238.127L181.238 240.965L178.098 237.202Z" fill="#335CFF" stroke="#111E4C" stroke-linejoin="round"/>
<path d="M182.819 247.776L186.208 241.906L210.424 246.218L207.023 252.108L182.819 247.776Z" fill="#111E4C" stroke="#111E4C" stroke-linejoin="round"/>
<circle cx="41.8918" cy="154.352" r="34.2045" transform="rotate(-15 41.8918 154.352)" fill="white" stroke="#111E4C"/>
<path d="M23.8662 177.203C27.8188 179.749 38.5189 178.416 49.9736 173.643C61.1918 168.968 69.5567 162.483 70.8135 157.897C69.8275 166.029 65.431 173.697 58.0833 178.601C47.3136 185.787 33.4914 184.839 23.8662 177.203Z" fill="#ACB7C0" stroke="#111E4C"/>
<path fill-rule="evenodd" clip-rule="evenodd" d="M65.4328 164.7C65.439 167.37 64.5349 170.827 61.4556 174.313C56.578 179.834 55.6728 177.534 55.181 171.245C59.2569 169.178 62.7651 166.917 65.4328 164.7Z" fill="#D9D9D9"/>
<ellipse cx="26.1335" cy="8.71946" rx="26.1335" ry="8.71946" transform="matrix(-0.923056 0.384665 0.384665 0.923056 67.3867 147.493)" fill="#D7DCE0" stroke="#111E4C"/>
<path d="M34.6603 155.743L35.4272 164.508L47.6217 147.093L46.8548 138.327L34.6603 155.743Z" fill="#335CFF" stroke="#111E4C" stroke-miterlimit="10"/>
<path d="M52.5262 139.847L46.8594 138.328L47.6305 147.091L53.3165 148.614L52.5262 139.847Z" fill="#111E4C" stroke="#111E4C" stroke-linejoin="round"/>
<path d="M52.8191 144.202L50.0889 143.471L50.4604 147.693L53.1999 148.427L52.8191 144.202Z" fill="#335CFF" stroke="#111E4C" stroke-linejoin="round"/>
<path d="M49.7088 139.246L46.9785 138.515L47.35 142.736L50.0896 143.471L49.7088 139.246Z" fill="#335CFF" stroke="#111E4C" stroke-linejoin="round"/>
<path d="M53.2896 148.607L47.6228 147.088L35.4424 164.547L41.1284 166.071L53.2896 148.607Z" fill="#111E4C" stroke="#111E4C" stroke-linejoin="round"/>
</svg>
