<svg width="15" height="15" viewBox="0 0 15 15" fill="none" xmlns="http://www.w3.org/2000/svg">
<path fill-rule="evenodd" clip-rule="evenodd" d="M7.30014 0.199773L14.8001 7.69977C15.0666 7.96636 15.0666 8.39795 14.8001 8.66386L8.66376 14.8002C8.53081 14.9332 8.35627 15 8.18172 15C8.00718 15 7.83264 14.9339 7.69968 14.8002L0.19977 7.30023C0.0715901 7.17273 0 6.99886 0 6.81818V0.681818C0 0.305455 0.305451 0 0.68181 0H6.8181C6.99878 0 7.17265 0.0722727 7.30014 0.199773ZM2.72724 4.09091C2.72724 4.84432 3.33746 5.45455 4.09086 5.45455C4.84426 5.45455 5.45448 4.84432 5.45448 4.09091C5.45448 3.3375 4.84426 2.72727 4.09086 2.72727C3.33746 2.72727 2.72724 3.3375 2.72724 4.09091Z" fill="#2240C4"/>
</svg>
