<svg version="1.1" id="Capa_1" x="0px" y="0px"
	 viewBox="0 0 199.328 199.328" style="enable-background:new 0 0 199.328 199.328;">
  <g>
    <path d="M99.664,0h-4.066v39.149h8.131V8.228c48.594,2.144,87.456,42.338,87.456,91.436
      c0,50.473-41.053,91.533-91.522,91.533S8.142,150.136,8.142,99.664c0-20.657,6.707-40.144,19.412-56.363l-6.413-5.018
      C7.308,55.952,0,77.178,0,99.664c0,54.957,44.714,99.664,99.664,99.664c54.957,0,99.664-44.703,99.664-99.664
      C199.328,44.714,154.621,0,99.664,0z"/>
    <path d="M85.953,97.119c-0.497,1.657-0.748,3.135-0.748,4.542c0,8.808,7.183,15.98,15.99,15.98
      c8.808,0,15.98-7.172,15.98-15.98s-7.172-15.99-15.98-15.99c-1.668,0-3.368,0.308-5.218,0.952l-0.816,0.286L55.823,59.255
      l30.395,36.984L85.953,97.119z"/>
  </g>
</svg>
