<svg width="18" height="18" viewBox="0 0 18 18" fill="none" xmlns="http://www.w3.org/2000/svg">
<rect x="1" y="1" width="16" height="16" rx="8" stroke="#E1E4E7"/>
<path fill-rule="evenodd" clip-rule="evenodd" d="M11.6999 8.00007H10.7999V6.80309C10.8082 5.81677 10.0163 5.01002 9.02995 5.00012H9.00295C8.52879 4.99453 8.07195 5.17815 7.73356 5.51034C7.39517 5.84254 7.20314 6.29591 7.19998 6.77009V8.00007H6.29999C6.13431 8.00007 6 8.13439 6 8.30007V11.9C6 12.0657 6.13431 12.2 6.29999 12.2H11.6999C11.8656 12.2 11.9999 12.0657 11.9999 11.9V8.30007C11.9999 8.13439 11.8656 8.00007 11.6999 8.00007ZM8.99995 10.7C8.66858 10.7 8.39996 10.4314 8.39996 10.1C8.39996 9.76867 8.66858 9.50005 8.99995 9.50005C9.33131 9.50005 9.59994 9.76867 9.59994 10.1C9.59994 10.4314 9.33131 10.7 8.99995 10.7ZM7.79997 8.00007H10.1999V6.80009C10.2071 6.14494 9.6821 5.60786 9.02695 5.60011H8.98765C8.33728 5.59974 7.80769 6.12277 7.79997 6.77309V8.00007Z" fill="#434D5A"/>
</svg>
