<svg width="14" height="14" viewBox="0 0 14 14" fill="none" xmlns="http://www.w3.org/2000/svg">
<path d="M8.59812 8.64927C8.47061 8.64927 8.35959 8.60196 8.26506 8.50733C8.17043 8.4128 8.12312 8.30178 8.12312 8.17427V6.51813C8.12312 6.39062 8.17043 6.27956 8.26506 6.18493C8.35959 6.09039 8.47061 6.04313 8.59812 6.04313H8.67489V5.49668C8.67489 5.21016 8.77489 4.9669 8.97489 4.7669C9.17489 4.56681 9.41815 4.46676 9.70467 4.46676C9.99129 4.46676 10.2346 4.56681 10.4346 4.7669C10.6346 4.9669 10.7346 5.21016 10.7346 5.49668V6.04313H10.8112C10.9387 6.04313 11.048 6.09039 11.1391 6.18493C11.2302 6.27956 11.2757 6.39062 11.2757 6.51813V8.17427C11.2757 8.30178 11.2284 8.4128 11.1339 8.50733C11.0393 8.60196 10.9282 8.64927 10.8007 8.64927H8.59812ZM9.15823 6.04313H10.2511V5.49668C10.2511 5.34185 10.1988 5.21207 10.094 5.10733C9.98928 5.0026 9.8595 4.95023 9.70467 4.95023C9.54985 4.95023 9.42007 5.0026 9.31533 5.10733C9.21059 5.21207 9.15823 5.34185 9.15823 5.49668V6.04313ZM3.99333 12.2957C3.72084 12.2957 3.48805 12.1992 3.29497 12.0062C3.10199 11.8132 3.00549 11.5804 3.00549 11.3079V1.80815C3.00549 1.53566 3.10199 1.30287 3.29497 1.10979C3.48805 0.916806 3.72084 0.820312 3.99333 0.820312H9.12148C9.39397 0.820312 9.62676 0.916806 9.81984 1.10979C10.0128 1.30287 10.1093 1.53566 10.1093 1.80815V3.80474H9.28965V3.14272H3.82517V9.97332H9.28965V9.3113H10.1093V11.3079C10.1093 11.5804 10.0128 11.8132 9.81984 12.0062C9.62676 12.1992 9.39397 12.2957 9.12148 12.2957H3.99333ZM3.82517 10.793V11.3079C3.82517 11.35 3.8427 11.3885 3.87776 11.4235C3.91273 11.4585 3.95126 11.4761 3.99333 11.4761H9.12148C9.16355 11.4761 9.20208 11.4585 9.23705 11.4235C9.27211 11.3885 9.28965 11.35 9.28965 11.3079V10.793H3.82517ZM3.82517 2.32304H9.28965V1.80815C9.28965 1.76608 9.27211 1.72755 9.23705 1.69258C9.20208 1.65752 9.16355 1.63998 9.12148 1.63998H3.99333C3.95126 1.63998 3.91273 1.65752 3.87776 1.69258C3.8427 1.72755 3.82517 1.76608 3.82517 1.80815V2.32304Z" fill="#4989FF"/>
</svg>
