<svg width="20" height="20" viewBox="0 0 20 20" fill="none" xmlns="http://www.w3.org/2000/svg">
  <path fill-rule="evenodd" clip-rule="evenodd" d="M7.50016 12.5L10.2952 11.7883L18.7352 3.34832C19.0116 3.07214 19.1669 2.69741 19.1669 2.30666C19.1669 1.9159 19.0116 1.54117 18.7352 1.26499C18.459 0.988565 18.0842 0.833252 17.6935 0.833252C17.3027 0.833252 16.928 0.988565 16.6518 1.26499L8.21183 9.70499L7.50016 12.5ZM1.66683 19.1667H17.5002C17.9604 19.1667 18.3335 18.7936 18.3335 18.3333V9.16666H16.6668V17.5H2.50016V3.33333H10.8335V1.66666H1.66683C1.20659 1.66666 0.833496 2.03976 0.833496 2.49999V18.3333C0.833496 18.7936 1.20659 19.1667 1.66683 19.1667Z" fill="#9BA3AE"/>
</svg>