<svg width="40" height="40" viewBox="0 0 40 40" fill="none" xmlns="http://www.w3.org/2000/svg">
<circle cx="20" cy="20" r="20" fill="#B51B16"/>
<path d="M21.8499 24.226L22.3762 8.60681H17.6084L18.1347 24.226H21.8499Z" fill="white"/>
<path d="M19.9923 31.3932C20.7456 31.3932 21.3519 31.1714 21.8111 30.7276C22.2704 30.2838 22.5 29.7214 22.5 29.0403C22.5 28.3489 22.2704 27.7813 21.8111 27.3375C21.3519 26.8938 20.7456 26.6719 19.9923 26.6719C19.2492 26.6719 18.6481 26.8963 18.1889 27.3452C17.7296 27.7942 17.5 28.3592 17.5 29.0403C17.5 29.7214 17.7296 30.2838 18.1889 30.7276C18.6481 31.1714 19.2492 31.3932 19.9923 31.3932Z" fill="white"/>
</svg>
