<svg width="30" height="30" viewBox="0 0 30 30" fill="none" xmlns="http://www.w3.org/2000/svg">
<path fill-rule="evenodd" clip-rule="evenodd" d="M0 15C0 6.71573 6.71573 0 15 0C23.2843 0 30 6.71573 30 15C30 23.2843 23.2843 30 15 30C6.71573 30 0 23.2843 0 15Z" fill="#E1E4E7"/>
<path d="M15.4675 8L15.4637 8.00001L15.4607 8C15.4523 8 15.444 8.00019 15.4358 8.00057C14.9756 8.01727 14.6076 8.39563 14.6076 8.85993L14.6076 10.0599C13.9816 10.1829 13.4689 10.451 13.0696 10.8644C12.6077 11.3427 12.3767 11.9668 12.3767 12.7367C12.3767 13.3062 12.4933 13.7823 12.7266 14.1649C12.9642 14.5476 13.2961 14.8688 13.7222 15.1284C14.1483 15.3881 14.6506 15.6205 15.2291 15.8255C15.8166 16.035 16.2292 16.2651 16.4669 16.5156C16.7046 16.7662 16.8235 17.0874 16.8235 17.4791C16.8235 17.88 16.6934 18.2058 16.4333 18.4563C16.1732 18.7069 15.7964 18.8322 15.3031 18.8322C15.0385 18.8322 14.7806 18.7798 14.5295 18.675C14.2783 18.5657 14.072 18.3812 13.9106 18.1215C13.7491 17.8573 13.6684 17.4928 13.6684 17.0281H12C12 17.7434 12.1345 18.3242 12.4036 18.7707C12.6727 19.2171 13.0203 19.5542 13.4464 19.782C13.8135 19.9743 14.2005 20.1024 14.6076 20.1662L14.6076 21.1401C14.6076 21.4051 14.7275 21.6421 14.916 21.7999C15.0124 21.9218 15.1617 22 15.3292 22C15.3497 22 15.3699 21.9988 15.3898 21.9965C15.4154 21.9988 15.4413 22 15.4675 22C15.9425 22 16.3275 21.615 16.3275 21.1401V20.1151C16.9133 19.9847 17.3971 19.7347 17.7788 19.3652C18.2586 18.8959 18.4986 18.2627 18.4986 17.4655C18.4986 16.896 18.382 16.4222 18.1488 16.0441C17.92 15.666 17.5926 15.3471 17.1666 15.0874C16.745 14.8232 16.2449 14.5841 15.6664 14.3699C15.0475 14.1422 14.6214 13.9075 14.3882 13.6661C14.1595 13.4246 14.0451 13.1126 14.0451 12.7299C14.0451 12.3381 14.1527 12.0147 14.368 11.7596C14.5878 11.4999 14.9309 11.3701 15.3973 11.3701C15.8323 11.3701 16.1732 11.5318 16.4198 11.8552C16.671 12.1787 16.7966 12.6251 16.7966 13.1946H18.4582C18.4582 12.2789 18.2362 11.55 17.7922 11.0079C17.4199 10.5447 16.9316 10.2385 16.3275 10.0893V8.85993C16.3275 8.385 15.9425 8 15.4675 8Z" fill="#9BA3AE"/>
</svg>
