<svg width="19" height="15" viewBox="0 0 19 15" fill="none" xmlns="http://www.w3.org/2000/svg">
<path d="M3.5 15C2.53467 15 1.71 14.658 1.026 13.974C0.342 13.29 0 12.4653 0 11.5V3.5C0 2.53467 0.342 1.71 1.026 1.026C1.71 0.341999 2.53467 0 3.5 0H15.5C16.4653 0 17.29 0.341999 17.974 1.026C18.658 1.71 19 2.53467 19 3.5V11.5C19 12.4653 18.658 13.29 17.974 13.974C17.29 14.658 16.4653 15 15.5 15H3.5ZM3.5 3.75H15.5C15.8795 3.75 16.2375 3.8045 16.574 3.9135C16.9105 4.0225 17.2192 4.18792 17.5 4.40975V3.5C17.5 2.95 17.3042 2.47917 16.9125 2.0875C16.5208 1.69583 16.05 1.5 15.5 1.5H3.5C2.95 1.5 2.47917 1.69583 2.0875 2.0875C1.69583 2.47917 1.5 2.95 1.5 3.5V4.40975C1.78083 4.18792 2.0895 4.0225 2.426 3.9135C2.7625 3.8045 3.1205 3.75 3.5 3.75ZM1.59225 6.7405L12.823 9.46925C12.9602 9.50258 13.099 9.50417 13.2395 9.474C13.3798 9.44383 13.5071 9.382 13.6212 9.2885L17.2213 6.2635C17.0571 5.96217 16.8221 5.71792 16.5163 5.53075C16.2106 5.34358 15.8718 5.25 15.5 5.25H3.5C3.02817 5.25 2.61858 5.38817 2.27125 5.6645C1.92375 5.94067 1.69742 6.29933 1.59225 6.7405Z" fill="#9BA3AE"/>
</svg>
