<?xml version="1.0" encoding="UTF-8"?>
<svg width="50px" height="50px" viewBox="0 0 20 20" version="1.1" xmlns="http://www.w3.org/2000/svg" xmlns:xlink="http://www.w3.org/1999/xlink">
    <!-- Generator: Sketch 60 (88103) - https://sketch.com -->
    <title>Currency/Large/Ethereum (alt)</title>
    <desc>Created with Sketch.</desc>
    <defs>
        <path d="M10,20 C15.5228475,20 20,15.5228475 20,10 C20,4.4771525 15.5228475,0 10,0 C4.4771525,0 0,4.4771525 0,10 C0,15.5228475 4.4771525,20 10,20 Z" id="path-1"></path>
    </defs>
    <g id="Dashboard-(Desktop)" stroke="none" stroke-width="1" fill="none" fill-rule="evenodd">
        <g id="Personal-Dashboard---Activity/Payments---With-Refund-Available---Style-1" transform="translate(-1072.000000, -912.000000)">
            <g id="Currency/Large/Ethereum-(alt)" transform="translate(1072.000000, 912.000000)">
                <g id="item-ico-backup">
                    <mask id="mask-2" fill="white">
                        <use xlink:href="#path-1"></use>
                    </mask>
                    <use id="Mask" fill="#6B71D6" xlink:href="#path-1"></use>
                </g>
                <g id="path0" transform="translate(6.000000, 3.200000)" fill="#E9ECFF">
                    <path d="M4.14265959,0.327691399 C4.11362899,0.39790455 3.23637502,1.88648846 2.19320633,3.6356677 C1.15003764,5.38481077 0.287853815,6.83888497 0.27718659,6.86695576 C0.263333516,6.90345502 0.830056688,7.25972979 2.26436889,8.1161783 L4.27098845,9.31432357 L6.27703528,8.11552717 C7.71822032,7.25426756 8.2776053,6.90222511 8.26360905,6.86532794 C8.19112203,6.67440316 4.29021094,0.19999824 4.24764942,0.19999824 C4.21894099,0.19999824 4.17169019,0.257442075 4.14265959,0.327691399 M0.281947465,7.72864945 C0.359266948,7.86223893 4.25441488,13.4005047 4.27070208,13.3999982 C4.29762072,13.3991662 8.28000364,7.71222659 8.26465584,7.69663573 C8.25007814,7.68198538 4.52768198,9.89747978 4.37239868,10.0131994 L4.27721697,10.0841722 L2.34992147,8.93428269 C1.28989284,8.3018579 0.383465083,7.75889067 0.335641551,7.72774511 C0.256353285,7.67612524 0.251592409,7.67619759 0.281947465,7.72864945" id="Shape"></path>
                </g>
            </g>
        </g>
    </g>
</svg>
