<svg
    width="40px"
    height="40px"
    viewBox="0 0 40 40"
    version="1.1"
    xmlns="http://www.w3.org/2000/svg"
    xmlns:xlink="http://www.w3.org/1999/xlink"
  >
    <g id="Dashboard-(Desktop)" stroke="none" stroke-width="1" fill="none" fill-rule="evenodd">
      <g id="Personal-Dashboard---Activity/Payments---Fee" fill="#9BA3AE">
        <g id="fee-ico" opacity="0.100000001">
          <path id="Oval-204" d="M20,40 C31.045695,40 40,31.045695 40,20 C40,8.954305 31.045695,0 20,0 C8.954305,0 0,8.954305 0,20 C0,31.045695 8.954305,40 20,40 Z" />
        </g>
        <g id="Group" transform="translate(9.000000, 9.000000)" fill-rule="nonzero">
          <path id="Path" d="M15.84,20.16 L6.24,20.16 C5.97504,20.16 5.76,20.37456 5.76,20.64 C5.76,20.90544 5.97504,21.12 6.24,21.12 L15.84,21.12 C16.10496,21.12 16.32,20.90544 16.32,20.64 C16.32,20.37456 16.10496,20.16 15.84,20.16 Z" />
          <path id="Shape" d="M21.99072,9.80112 L17.19504,3.08736 C17.14512,3.01584 17.07552,2.95632 16.98912,2.91888 C16.92432,2.89056 16.86,2.88288 16.78944,2.88 L12.39168,2.88 C12.2472,2.47296 11.92704,2.1528 11.52,2.00832 L11.52,0.48 C11.52,0.21456 11.30496,-9.05941988e-14 11.04,-9.05941988e-14 C10.77504,-9.05941988e-14 10.56,0.21456 10.56,0.48 L10.56,2.00832 C10.15296,2.1528 9.8328,2.47296 9.68832,2.88 L5.29056,2.88 C5.22864,2.88048 5.15616,2.89056 5.09088,2.91888 C5.00448,2.95584 4.9344,3.01536 4.88496,3.08736 L0.08928,9.80112 C0.0312,9.88224 0,9.98016 0,10.08 C0,12.46224 1.93824,14.4 4.32,14.4 C6.70176,14.4 8.64,12.46224 8.64,10.08 C8.64,10.01472 8.62704,9.9504 8.60112,9.89088 L6.00816,3.84 L9.68832,3.84 C9.83328,4.24704 10.15296,4.5672 10.56,4.71168 L10.56,19.2 L11.52,19.2 L11.52,4.71168 C11.92704,4.56672 12.2472,4.24704 12.39168,3.84 L16.07184,3.84 L13.47888,9.89088 C13.45296,9.9504 13.44,10.01472 13.44,10.08 C13.44,12.46224 15.37824,14.4 17.76,14.4 C20.14176,14.4 22.08,12.46224 22.08,10.08 C22.08,9.98016 22.0488,9.88224 21.99072,9.80112 Z M7.43184,9.6 L1.41264,9.6 L5.17488,4.33296 L7.43184,9.6 Z M14.64816,9.6 L16.90512,4.33296 L20.66736,9.6 L14.64816,9.6 Z" />
        </g>
      </g>
    </g>
  </svg>
  