<svg width="40" height="40" viewBox="0 0 41 41" fill="none" xmlns="http://www.w3.org/2000/svg">
  <path opacity="0.101872" fill-rule="evenodd" clip-rule="evenodd" d="M20.5 41C9.17816 41 -2.38419e-07 31.8218 -2.38419e-07 20.5C-2.38419e-07 9.17816 9.17816 0 20.5 0C31.8218 0 41 9.17816 41 20.5C41 31.8218 31.8218 41 20.5 41Z" fill="#2FCFA4"/>
  <path d="M19.0448 18.8335L13.9873 23.8107V27.1877L22.4762 18.8335H19.0448Z" fill="#43D3AC"/>
  <path d="M18.3081 18.8335H14.2478C14.1038 18.8335 13.9873 18.9483 13.9873 19.0899V23.0857L18.3081 18.8335Z" fill="#43D3AC"/>
  <path d="M27.0126 19.196L17.4817 28.5757H21.4341L27.0126 23.0857V19.196Z" fill="#43D3AC"/>
  <path d="M22.1711 28.5759H26.7524C26.8964 28.5759 27.0129 28.4611 27.0129 28.3195V23.8109L22.1711 28.5759Z" fill="#43D3AC"/>
  <path d="M26.6443 18.8335H23.213L13.9873 27.9127V28.3193C13.9873 28.4609 14.1038 28.5757 14.2478 28.5757H16.745L26.6443 18.8335Z" fill="#43D3AC"/>
  <path fill-rule="evenodd" clip-rule="evenodd" d="M28.3153 15.757H25.2627C25.5433 15.4081 25.7102 14.9647 25.7102 14.4752C25.7102 13.3251 24.7949 12.4242 23.6262 12.4242C22.0036 12.4242 21.0257 13.6556 20.5001 14.6497C19.9744 13.6556 18.9966 12.4242 17.374 12.4242C16.2052 12.4242 15.2899 13.3251 15.2899 14.4752C15.2899 14.9647 15.4569 15.4081 15.7375 15.757H12.6848C12.5408 15.757 12.4243 15.8718 12.4243 16.0134V18.0644C12.4243 18.206 12.5408 18.3208 12.6848 18.3208H28.3153C28.4593 18.3208 28.5758 18.206 28.5758 18.0644V16.0134C28.5758 15.8718 28.4593 15.757 28.3153 15.757ZM23.6259 13.4498C24.22 13.4498 24.668 13.8907 24.668 14.4753C24.668 15.0599 24.22 15.5008 23.6259 15.5008H21.2435C21.5953 14.703 22.3509 13.4498 23.6259 13.4498ZM19.7565 15.5008C19.4049 14.7032 18.6491 13.4498 17.374 13.4498C16.78 13.4498 16.332 13.8907 16.332 14.4753C16.332 15.0599 16.78 15.5008 17.374 15.5008H19.7565Z" fill="#43D3AC"/>
</svg>
