
<svg width="211" height="187" viewBox="0 0 211 187" fill="none" xmlns="http://www.w3.org/2000/svg">
    <path opacity="0.6" d="M79 63H197V186H79V63Z" fill="url(#paint0_linear_17:3820)"/>
    <path fill-rule="evenodd" clip-rule="evenodd" d="M188.009 166.468L188.199 166.413L188.081 166.446L188.009 166.468Z" fill="#192A7E"/>
    <path fill-rule="evenodd" clip-rule="evenodd" d="M74.0573 53.2998L17.8108 20.8326L0 31.1163L68.7916 70.7928C68.7957 70.7918 68.8 70.7918 68.8041 70.7928L69.2244 71.043L69.432 71.1506L69.5946 71.2281C69.7022 71.2781 69.8072 71.3232 69.9148 71.3682C70.0724 71.4332 70.23 71.4908 70.3826 71.5408C70.4326 71.5583 70.4801 71.5733 70.5302 71.5858C70.8056 71.668 71.0877 71.7257 71.3732 71.7584H71.8535C72.4414 71.7677 73.021 71.6191 73.532 71.3282L78.4775 68.4539L78.57 68.4014C79.7182 67.736 80.4287 66.3201 80.4337 64.3039C80.4387 60.2865 77.5869 55.336 74.0573 53.2998Z" fill="url(#paint1_linear_17:3820)"/>
    <path fill-rule="evenodd" clip-rule="evenodd" d="M63.4584 64.0388C63.5334 64.2264 63.611 64.4165 63.6935 64.6041C63.6085 64.4115 63.5384 64.2239 63.4584 64.0388Z" fill="#986C33"/>
    <path fill-rule="evenodd" clip-rule="evenodd" d="M67.9361 59.3309C67.9561 59.421 67.9811 59.5135 68.0036 59.6036C67.9786 59.5135 67.9561 59.421 67.9336 59.3309H67.9361Z" fill="#986C33"/>
    <path fill-rule="evenodd" clip-rule="evenodd" d="M67.9361 59.3309C67.9136 59.2308 67.8911 59.1308 67.8711 59.0307C67.8886 59.1308 67.9136 59.2308 67.9361 59.3309Z" fill="#936831"/>
    <path fill-rule="evenodd" clip-rule="evenodd" d="M67.6634 56.4342C67.6784 56.2215 67.701 56.0139 67.7335 55.8188C67.701 56.0139 67.6784 56.2215 67.6634 56.4342Z" fill="#8E6530"/>
    <path fill-rule="evenodd" clip-rule="evenodd" d="M67.8511 55.2484C67.8336 55.311 67.8185 55.371 67.806 55.4336C67.8185 55.371 67.8311 55.311 67.8486 55.2509L67.8511 55.2484Z" fill="#8E6530"/>
    <path fill-rule="evenodd" clip-rule="evenodd" d="M67.9011 55.0608C67.8836 55.1234 67.8661 55.1859 67.8511 55.2484C67.8636 55.1859 67.8811 55.1234 67.9011 55.0608Z" fill="#89612E"/>
    <path fill-rule="evenodd" clip-rule="evenodd" d="M78.5625 68.4289L73.5445 71.3532C73.0338 71.6447 72.454 71.7934 71.866 71.7835H71.3857C71.1011 71.7498 70.82 71.692 70.5452 71.6108L70.3951 71.5658C70.2425 71.5158 70.0849 71.4583 69.9273 71.3932C69.8222 71.3482 69.7147 71.3032 69.6071 71.2531L69.4445 71.1731C69.3745 71.1406 69.3069 71.1055 69.2394 71.068L68.9892 70.9354L68.7916 70.7929C68.7466 70.7678 68.7041 70.7378 68.659 70.7103C68.5665 70.6528 68.4739 70.5902 68.3814 70.5277L68.2013 70.4001L68.1737 70.3826L68.0237 70.27C67.9636 70.2275 67.9061 70.1825 67.8485 70.135L67.6609 69.9849C67.5984 69.9348 67.5359 69.8798 67.4758 69.8273C67.3057 69.6822 67.1406 69.5321 66.9755 69.3745C66.8104 69.2169 66.5928 68.9943 66.4077 68.7916L66.2301 68.5965L66.165 68.5215L65.9549 68.2713C65.8799 68.1813 65.8073 68.0912 65.7348 67.9987C65.6622 67.9061 65.5897 67.8161 65.5221 67.7235C65.4021 67.5659 65.2845 67.4033 65.1719 67.2407C65.1344 67.1882 65.0969 67.1331 65.0619 67.0781C64.9443 66.908 64.8317 66.7354 64.7242 66.5578C64.6416 66.4252 64.5641 66.2951 64.4865 66.1575C64.409 66.02 64.3539 65.9274 64.2889 65.8098V65.7848C64.2439 65.7023 64.1988 65.6172 64.1563 65.5347C63.9962 65.2295 63.8486 64.9218 63.716 64.6091C63.6335 64.4215 63.556 64.2314 63.4809 64.0438L63.4059 63.8461C63.3608 63.7211 63.3183 63.596 63.2758 63.4759C63.1774 63.1941 63.094 62.9114 63.0256 62.6279C63.0081 62.5704 62.9931 62.5103 62.9781 62.4503C62.9631 62.3903 62.9456 62.3277 62.9306 62.2652L62.8855 62.0526C62.8855 62 62.863 61.9475 62.853 61.8975C62.843 61.8474 62.8205 61.7374 62.808 61.6473C62.7955 61.5573 62.7755 61.4772 62.763 61.3972C62.7355 61.2196 62.7129 61.042 62.6954 60.8668C62.6954 60.8168 62.6954 60.7668 62.6829 60.7168C62.6704 60.6667 62.6704 60.5717 62.6629 60.4991C62.6554 60.4266 62.6629 60.2915 62.6629 60.1864V59.7862V59.5135C62.6629 59.4235 62.6629 59.3434 62.6804 59.2634C62.6979 59.1833 62.6979 59.0633 62.7079 58.9682C62.7179 58.8731 62.7405 58.718 62.763 58.6005L62.7855 58.4729C62.7855 58.4229 62.8105 58.3703 62.8205 58.3203C62.8305 58.2703 62.843 58.2202 62.8555 58.1727C62.8705 58.1102 62.888 58.0501 62.9081 57.9876C62.9281 57.9251 62.9456 57.8625 62.9656 57.8025C63.0081 57.6824 63.0506 57.5648 63.1007 57.4523C63.1232 57.3972 63.1482 57.3397 63.1757 57.2872C63.1957 57.2418 63.2183 57.1975 63.2433 57.1546C63.2998 57.0429 63.3625 56.9343 63.4309 56.8294C63.4734 56.7669 63.5159 56.7068 63.561 56.6468C63.606 56.5868 63.6235 56.5617 63.6585 56.5192L63.7536 56.4066L63.8286 56.3266L63.9412 56.2165C63.9763 56.1806 64.0139 56.1471 64.0538 56.1165C64.1084 56.0663 64.166 56.0196 64.2264 55.9764C64.2664 55.9439 64.3089 55.9164 64.3514 55.8863H64.3689C64.4165 55.8538 64.4665 55.8213 64.5165 55.7938L69.5471 52.8695C69.492 52.902 69.442 52.932 69.3895 52.9696L69.2969 53.0321C69.2619 53.0571 69.2244 53.0846 69.1919 53.1122C69.1568 53.1367 69.1234 53.1634 69.0918 53.1922C69.0443 53.2322 68.9992 53.2748 68.9542 53.3198C68.9092 53.3648 68.8667 53.4048 68.8241 53.4499C68.8213 53.4552 68.817 53.4595 68.8116 53.4624C68.7766 53.4999 68.7416 53.5424 68.7066 53.5849C68.7001 53.592 68.6943 53.5995 68.6891 53.6075C68.654 53.6475 68.6215 53.69 68.589 53.7325C68.5565 53.7751 68.5014 53.8526 68.4614 53.9151C68.3837 54.0354 68.3127 54.1598 68.2488 54.2879C68.2288 54.3279 68.2063 54.3704 68.1888 54.4104C68.1205 54.5517 68.0612 54.6971 68.0111 54.8457L67.9736 54.9633L67.9361 55.0783C67.9161 55.1409 67.8986 55.2034 67.8836 55.2685C67.8686 55.3335 67.8536 55.3885 67.841 55.4511C67.8285 55.5136 67.811 55.5761 67.801 55.6387C67.791 55.7012 67.7785 55.7688 67.7685 55.8363C67.736 56.0314 67.7135 56.239 67.6985 56.4517C67.6985 56.5943 67.6834 56.7393 67.6809 56.8894V57.2772C67.6809 57.3722 67.6809 57.4848 67.696 57.5899C67.711 57.6949 67.696 57.735 67.7135 57.8075L67.7285 57.9551C67.746 58.1327 67.7685 58.3078 67.796 58.4879C67.811 58.5705 67.8235 58.658 67.8385 58.7381C67.8561 58.8356 67.8761 58.9357 67.8961 59.0357C67.9161 59.1358 67.9386 59.2359 67.9611 59.3359C67.9836 59.436 68.0061 59.5185 68.0312 59.6086C68.0762 59.7937 68.1287 59.9763 68.1863 60.1589C68.2138 60.2515 68.2438 60.344 68.2738 60.4341C68.3038 60.5241 68.3363 60.6242 68.3689 60.7193C68.4014 60.8143 68.4314 60.8944 68.4664 60.9694L68.5715 61.2421L68.6766 61.4922C68.6991 61.5498 68.7241 61.6073 68.7491 61.6623C68.8091 61.8024 68.8742 61.9425 68.9392 62.0801C69.0042 62.2177 69.0593 62.3302 69.1268 62.4653C69.2219 62.6579 69.3244 62.848 69.432 63.0357C69.4645 63.0982 69.502 63.1632 69.5396 63.2233C69.5771 63.2833 69.6096 63.3483 69.6471 63.4084C69.6847 63.4684 69.7272 63.546 69.7697 63.6135C69.8122 63.681 69.8373 63.7236 69.8748 63.7761C69.9498 63.8962 70.0274 64.0263 70.1099 64.1363C70.1499 64.1964 70.1875 64.2539 70.23 64.3139C70.32 64.444 70.4126 64.5641 70.5077 64.6992C70.5402 64.7442 70.5727 64.7867 70.6102 64.8317C70.877 65.187 71.1589 65.5263 71.4557 65.8499L71.7059 66.1L71.8535 66.2501C72.0136 66.4102 72.1762 66.5628 72.3413 66.7104L72.5064 66.858C72.6364 66.968 72.7565 67.0756 72.8991 67.1807C73.0417 67.2857 73.1192 67.3508 73.2318 67.4308C73.3444 67.5109 73.3844 67.5434 73.4644 67.5934L73.7146 67.761L73.7521 67.7835C73.8497 67.8461 73.9447 67.9036 74.0448 67.9611C74.1449 68.0187 74.1724 68.0337 74.2374 68.0662C74.2739 68.0881 74.3114 68.1082 74.35 68.1262C74.3975 68.1538 74.4425 68.1763 74.4901 68.1988C74.6602 68.2838 74.8253 68.3589 74.9904 68.4264L75.2655 68.5315L75.4557 68.594L75.5957 68.6365C75.869 68.7167 76.1484 68.7736 76.4312 68.8067H76.9115C77.4854 68.827 78.0546 68.6968 78.5625 68.4289Z" fill="#FDB455"/>
    <path fill-rule="evenodd" clip-rule="evenodd" d="M78.5625 68.4289L73.5445 71.3532C73.0338 71.6447 72.454 71.7934 71.866 71.7835H71.3857C71.1011 71.7498 70.82 71.692 70.5452 71.6108L70.3951 71.5658C70.2425 71.5158 70.0849 71.4583 69.9273 71.3932C69.8222 71.3482 69.7147 71.3032 69.6071 71.2531L69.4445 71.1731C69.3745 71.1406 69.3069 71.1055 69.2394 71.068L68.9892 70.9354L68.7916 70.7929C68.7466 70.7678 68.7041 70.7378 68.659 70.7103C68.5665 70.6528 68.4739 70.5902 68.3814 70.5277L68.2013 70.4001L68.1737 70.3826L68.0237 70.27C67.9636 70.2275 67.9061 70.1825 67.8485 70.135L67.6609 69.9849C67.5984 69.9348 67.5359 69.8798 67.4758 69.8273C67.3057 69.6822 67.1406 69.5321 66.9755 69.3745C66.8104 69.2169 66.5928 68.9943 66.4077 68.7916L66.2301 68.5965L66.165 68.5215L65.9549 68.2713C65.8799 68.1813 65.8073 68.0912 65.7348 67.9987C65.6622 67.9061 65.5897 67.8161 65.5221 67.7235C65.4021 67.5659 65.2845 67.4033 65.1719 67.2407C65.1344 67.1882 65.0969 67.1331 65.0619 67.0781C64.9443 66.908 64.8317 66.7354 64.7242 66.5578C64.6416 66.4252 64.5641 66.2951 64.4865 66.1575C64.409 66.02 64.3539 65.9274 64.2889 65.8098V65.7848C64.2439 65.7023 64.1988 65.6172 64.1563 65.5347C63.9962 65.2295 63.8486 64.9218 63.716 64.6091C63.6335 64.4215 63.556 64.2314 63.4809 64.0438L63.4059 63.8461C63.3608 63.7211 63.3183 63.596 63.2758 63.4759C63.1774 63.1941 63.094 62.9114 63.0256 62.6279C63.0081 62.5704 62.9931 62.5103 62.9781 62.4503C62.9631 62.3903 62.9456 62.3277 62.9306 62.2652L62.8855 62.0526C62.8855 62 62.863 61.9475 62.853 61.8975C62.843 61.8474 62.8205 61.7374 62.808 61.6473C62.7955 61.5573 62.7755 61.4772 62.763 61.3972C62.7355 61.2196 62.7129 61.042 62.6954 60.8668C62.6954 60.8168 62.6954 60.7668 62.6829 60.7168C62.6704 60.6667 62.6704 60.5717 62.6629 60.4991C62.6554 60.4266 62.6629 60.2915 62.6629 60.1864V59.7862V59.5135C62.6629 59.4235 62.6629 59.3434 62.6804 59.2634C62.6979 59.1833 62.6979 59.0633 62.7079 58.9682C62.7179 58.8731 62.7405 58.718 62.763 58.6005L62.7855 58.4729C62.7855 58.4229 62.8105 58.3703 62.8205 58.3203C62.8305 58.2703 62.843 58.2202 62.8555 58.1727C62.8705 58.1102 62.888 58.0501 62.9081 57.9876C62.9281 57.9251 62.9456 57.8625 62.9656 57.8025C63.0081 57.6824 63.0506 57.5648 63.1007 57.4523C63.1232 57.3972 63.1482 57.3397 63.1757 57.2872C63.1957 57.2418 63.2183 57.1975 63.2433 57.1546C63.2998 57.0429 63.3625 56.9343 63.4309 56.8294C63.4734 56.7669 63.5159 56.7068 63.561 56.6468C63.606 56.5868 63.6235 56.5617 63.6585 56.5192L63.7536 56.4066L63.8286 56.3266L63.9412 56.2165C63.9763 56.1806 64.0139 56.1471 64.0538 56.1165C64.1084 56.0663 64.166 56.0196 64.2264 55.9764C64.2664 55.9439 64.3089 55.9164 64.3514 55.8863H64.3689C64.4165 55.8538 64.4665 55.8213 64.5165 55.7938L69.5471 52.8695C69.492 52.902 69.442 52.932 69.3895 52.9696L69.2969 53.0321C69.2619 53.0571 69.2244 53.0846 69.1919 53.1122C69.1568 53.1367 69.1234 53.1634 69.0918 53.1922C69.0443 53.2322 68.9992 53.2748 68.9542 53.3198C68.9092 53.3648 68.8667 53.4048 68.8241 53.4499C68.8213 53.4552 68.817 53.4595 68.8116 53.4624C68.7766 53.4999 68.7416 53.5424 68.7066 53.5849C68.7001 53.592 68.6943 53.5995 68.6891 53.6075C68.654 53.6475 68.6215 53.69 68.589 53.7325C68.5565 53.7751 68.5014 53.8526 68.4614 53.9151C68.3837 54.0354 68.3127 54.1598 68.2488 54.2879C68.2288 54.3279 68.2063 54.3704 68.1888 54.4104C68.1205 54.5517 68.0612 54.6971 68.0111 54.8457L67.9736 54.9633L67.9361 55.0783C67.9161 55.1409 67.8986 55.2034 67.8836 55.2685C67.8686 55.3335 67.8536 55.3885 67.841 55.4511C67.8285 55.5136 67.811 55.5761 67.801 55.6387C67.791 55.7012 67.7785 55.7688 67.7685 55.8363C67.736 56.0314 67.7135 56.239 67.6985 56.4517C67.6985 56.5943 67.6834 56.7393 67.6809 56.8894V57.2772C67.6809 57.3722 67.6809 57.4848 67.696 57.5899C67.711 57.6949 67.696 57.735 67.7135 57.8075L67.7285 57.9551C67.746 58.1327 67.7685 58.3078 67.796 58.4879C67.811 58.5705 67.8235 58.658 67.8385 58.7381C67.8561 58.8356 67.8761 58.9357 67.8961 59.0357C67.9161 59.1358 67.9386 59.2359 67.9611 59.3359C67.9836 59.436 68.0061 59.5185 68.0312 59.6086C68.0762 59.7937 68.1287 59.9763 68.1863 60.1589C68.2138 60.2515 68.2438 60.344 68.2738 60.4341C68.3038 60.5241 68.3363 60.6242 68.3689 60.7193C68.4014 60.8143 68.4314 60.8944 68.4664 60.9694L68.5715 61.2421L68.6766 61.4922C68.6991 61.5498 68.7241 61.6073 68.7491 61.6623C68.8091 61.8024 68.8742 61.9425 68.9392 62.0801C69.0042 62.2177 69.0593 62.3302 69.1268 62.4653C69.2219 62.6579 69.3244 62.848 69.432 63.0357C69.4645 63.0982 69.502 63.1632 69.5396 63.2233C69.5771 63.2833 69.6096 63.3483 69.6471 63.4084C69.6847 63.4684 69.7272 63.546 69.7697 63.6135C69.8122 63.681 69.8373 63.7236 69.8748 63.7761C69.9498 63.8962 70.0274 64.0263 70.1099 64.1363C70.1499 64.1964 70.1875 64.2539 70.23 64.3139C70.32 64.444 70.4126 64.5641 70.5077 64.6992C70.5402 64.7442 70.5727 64.7867 70.6102 64.8317C70.877 65.187 71.1589 65.5263 71.4557 65.8499L71.7059 66.1L71.8535 66.2501C72.0136 66.4102 72.1762 66.5628 72.3413 66.7104L72.5064 66.858C72.6364 66.968 72.7565 67.0756 72.8991 67.1807C73.0417 67.2857 73.1192 67.3508 73.2318 67.4308C73.3444 67.5109 73.3844 67.5434 73.4644 67.5934L73.7146 67.761L73.7521 67.7835C73.8497 67.8461 73.9447 67.9036 74.0448 67.9611C74.1449 68.0187 74.1724 68.0337 74.2374 68.0662C74.2739 68.0881 74.3114 68.1082 74.35 68.1262C74.3975 68.1538 74.4425 68.1763 74.4901 68.1988C74.6602 68.2838 74.8253 68.3589 74.9904 68.4264L75.2655 68.5315L75.4557 68.594L75.5957 68.6365C75.869 68.7167 76.1484 68.7736 76.4312 68.8067H76.9115C77.4854 68.827 78.0546 68.6968 78.5625 68.4289Z" fill="url(#paint2_linear_17:3820)"/>
    <path fill-rule="evenodd" clip-rule="evenodd" d="M74.0573 53.2972C77.5869 55.336 80.4387 60.274 80.4262 64.3314C80.4137 68.3889 77.5469 70.0224 74.0173 67.9836C70.4877 65.9449 67.6359 61.0069 67.6459 56.952C67.6559 52.897 70.5277 51.261 74.0573 53.2972Z" fill="#F6AF53"/>
    <path fill-rule="evenodd" clip-rule="evenodd" d="M204.731 177.047V177.285C204.731 177.357 204.731 177.412 204.714 177.475V177.512C204.704 177.587 204.691 177.662 204.676 177.738V177.76C204.676 177.77 204.659 177.835 204.649 177.873C204.644 177.903 204.637 177.933 204.629 177.963C204.606 178.04 204.586 178.115 204.559 178.188C204.536 178.262 204.509 178.334 204.479 178.405L204.456 178.46C204.439 178.501 204.424 178.541 204.406 178.578C204.396 178.595 204.387 178.613 204.379 178.631C204.344 178.701 204.314 178.768 204.276 178.838C204.269 178.847 204.263 178.857 204.259 178.868C204.221 178.936 204.179 179.003 204.139 179.071C204.099 179.138 204.051 179.206 204.006 179.273L203.983 179.301C203.941 179.364 203.896 179.421 203.851 179.481C203.801 179.546 203.751 179.609 203.698 179.671C203.646 179.734 203.571 179.816 203.501 179.889C203.49 179.901 203.478 179.913 203.466 179.924C203.411 179.981 203.356 180.039 203.298 180.094L203.135 180.249L202.933 180.422L202.853 180.484C202.833 180.499 202.813 180.519 202.79 180.534C202.725 180.587 202.658 180.639 202.585 180.692C202.513 180.744 202.39 180.832 202.287 180.899C202.132 181.005 201.972 181.107 201.802 181.205L201.777 181.22C201.685 181.272 201.592 181.325 201.497 181.375L201.372 181.442L201.294 181.482C201.219 181.522 201.139 181.56 201.059 181.597L200.947 181.65C200.847 181.697 200.746 181.742 200.644 181.785C200.621 181.798 200.599 181.805 200.576 181.815C200.563 181.823 200.549 181.828 200.534 181.83C200.419 181.878 200.301 181.925 200.181 181.97L200.141 181.983C200.014 182.033 199.891 182.08 199.748 182.125L199.358 182.25L199.263 182.28H199.231L199.04 182.335L198.965 182.355L198.715 182.418L198.56 182.455L198.495 182.47H198.478C198.408 182.49 198.333 182.503 198.262 182.523L198.197 182.538H198.162C198.115 182.55 198.067 182.563 198.02 182.57C197.935 182.588 197.847 182.608 197.77 182.623L197.567 182.661L197.362 182.696C197.224 182.718 197.087 182.741 196.949 182.758C196.812 182.776 196.672 182.796 196.529 182.811L196.111 182.853C195.971 182.866 195.829 182.878 195.688 182.886L195.333 182.906H194.978C194.943 182.908 194.908 182.908 194.873 182.906H194.83C194.795 182.908 194.759 182.908 194.723 182.906H193.747L193.407 182.888C193.317 182.888 193.227 182.888 193.137 182.868L192.887 182.846H192.724L192.376 182.806L192.181 182.778C192.107 182.771 192.034 182.76 191.961 182.746H191.904C191.834 182.746 191.764 182.726 191.696 182.711H191.611C191.283 182.656 190.958 182.593 190.64 182.515L190.238 182.413L190.095 182.375L189.752 182.275C189.637 182.243 189.52 182.205 189.407 182.165C189.335 182.143 189.26 182.118 189.187 182.09L188.899 181.988L188.859 181.97L188.587 181.86L188.464 181.81L188.054 181.627C188.014 181.607 187.974 181.59 187.936 181.567L187.656 181.43C187.574 181.387 187.493 181.342 187.406 181.297C187.381 181.285 187.357 181.272 187.333 181.257L187.261 181.22L100.781 131.329C97.0796 129.195 94.8013 125.246 94.8074 120.973L95.0575 29.01C95.0636 27.1191 96.0766 25.3745 97.7159 24.4319C99.3552 23.4893 101.372 23.4913 103.01 24.4373L123.397 36.2094L123.197 109.066C123.19 113.323 125.227 117.324 128.673 119.822L202.468 173.322C203.988 174.418 204.731 175.734 204.731 177.047Z" fill="#0A1C43"/>
    <path fill-rule="evenodd" clip-rule="evenodd" d="M200.979 63.636C200.954 63.6154 200.928 63.5962 200.902 63.5785L200.979 63.636Z" fill="#172672"/>
    <path fill-rule="evenodd" clip-rule="evenodd" d="M201.064 63.706L200.979 63.6385L201.064 63.706Z" fill="#162570"/>
    <path fill-rule="evenodd" clip-rule="evenodd" d="M203.446 175.231C203.426 175.171 203.401 175.108 203.381 175.048C203.403 175.106 203.426 175.173 203.446 175.231Z" fill="#121D58"/>
    <path fill-rule="evenodd" clip-rule="evenodd" d="M203.738 176.497V176.514C203.732 176.439 203.722 176.364 203.708 176.289C203.722 176.358 203.732 176.427 203.738 176.497Z" fill="#101B51"/>
    <path fill-rule="evenodd" clip-rule="evenodd" d="M210.34 68.9392V69.0418L210.035 176.97C210.036 176.961 210.036 176.953 210.035 176.945V176.822V176.759C210.035 176.677 210.035 176.589 210.015 176.509C210.015 176.467 210.015 176.427 210 176.387C209.985 176.347 209.982 176.259 209.972 176.197C209.952 176.077 209.93 175.946 209.902 175.844C209.89 175.781 209.874 175.724 209.857 175.666C209.794 175.425 209.714 175.189 209.619 174.958C209.606 174.918 209.59 174.879 209.572 174.841V174.828C209.283 174.183 208.9 173.584 208.436 173.05C208.339 172.932 208.239 172.822 208.128 172.707C208.076 172.652 208.023 172.597 207.966 172.542C207.908 172.487 207.858 172.434 207.803 172.379L207.781 172.362L207.756 172.334L207.683 172.272C207.662 172.249 207.639 172.227 207.616 172.207L207.433 172.042L207.398 172.012L207.253 171.889C207.053 171.724 206.845 171.564 206.628 171.404L132.58 117.749C129.27 115.348 127.316 111.502 127.327 107.412L127.577 16.2598C127.569 14.2787 128.679 12.4624 130.446 11.567C132.222 10.6381 134.371 10.8001 135.987 11.9847L206.915 63.3909C207.003 63.4534 207.088 63.5159 207.165 63.581C207.192 63.5987 207.218 63.6179 207.243 63.6385L207.328 63.706C207.451 63.8011 207.578 63.8987 207.683 63.9962C207.788 64.0938 207.933 64.2289 208.066 64.3464C208.198 64.464 208.316 64.5741 208.414 64.6941C208.511 64.8142 208.626 64.9218 208.726 65.0393C208.826 65.1569 208.916 65.2695 209.004 65.3871C209.092 65.5046 209.179 65.6197 209.254 65.7348C209.334 65.8548 209.407 65.9699 209.479 66.0875C209.552 66.2101 209.619 66.3376 209.682 66.4527C209.744 66.5678 209.804 66.7029 209.859 66.8229C209.867 66.84 209.874 66.8576 209.88 66.8755C209.902 66.9206 209.922 66.9674 209.937 67.0155C209.966 67.0791 209.991 67.1443 210.012 67.2107C210.06 67.3432 210.1 67.4758 210.137 67.6084C210.155 67.6709 210.172 67.731 210.185 67.796C210.197 67.8611 210.222 67.9536 210.237 68.0337C210.267 68.1838 210.287 68.3338 210.305 68.4814C210.305 68.5715 210.32 68.6615 210.322 68.7541C210.334 68.8225 210.34 68.8842 210.34 68.9392Z" fill="#0A1C43"/>
    <path fill-rule="evenodd" clip-rule="evenodd" d="M209.965 176.202C209.965 176.264 209.985 176.327 209.992 176.392L209.977 176.289C209.975 176.259 209.97 176.229 209.965 176.202Z" fill="#0A1C43"/>
    <path fill-rule="evenodd" clip-rule="evenodd" d="M210.035 176.98C210.07 179.313 208.534 181.642 205.507 183.406C199.453 186.923 189.57 186.923 183.474 183.406L97.7091 133.889C93.6012 131.514 91.0751 127.126 91.0851 122.382L91.3503 31.1263C91.3566 29.2818 92.34 27.5787 93.9343 26.6511L97.559 24.5423C96.0131 25.5037 95.0751 27.197 95.08 29.0175L94.8074 120.973C94.8013 125.246 97.0796 129.195 100.781 131.329L187.213 181.235L187.286 181.272C187.309 181.287 187.333 181.3 187.358 181.312C187.436 181.357 187.516 181.402 187.609 181.445L187.889 181.582C187.926 181.605 187.966 181.622 188.006 181.642L188.417 181.825L188.539 181.875L188.812 181.985L188.852 182.003L189.139 182.105C189.212 182.133 189.287 182.158 189.36 182.18C189.472 182.22 189.59 182.258 189.705 182.29L190.047 182.39L190.19 182.428L190.593 182.53C190.911 182.608 191.236 182.671 191.563 182.726H191.648C191.716 182.741 191.786 182.751 191.856 182.761H191.914C191.986 182.775 192.06 182.786 192.134 182.793L192.329 182.821L192.677 182.861H192.839C192.923 182.871 193.006 182.878 193.089 182.883C193.179 182.883 193.269 182.898 193.359 182.903C193.45 182.908 193.585 182.918 193.7 182.921H194.675C194.711 182.923 194.747 182.923 194.783 182.921H194.825C194.86 182.923 194.895 182.923 194.93 182.921H195.286C195.403 182.921 195.523 182.921 195.641 182.901C195.758 182.881 195.924 182.881 196.064 182.868C196.204 182.856 196.344 182.841 196.481 182.826C196.619 182.811 196.764 182.791 196.902 182.773C197.039 182.756 197.179 182.733 197.314 182.711L197.52 182.676L197.722 182.638C197.81 182.623 197.897 182.603 197.972 182.585C198.02 182.585 198.067 182.565 198.115 182.553H198.15L198.215 182.538C198.285 182.523 198.36 182.505 198.43 182.485H198.448L198.513 182.47L198.668 182.433L198.918 182.37L198.993 182.35L199.183 182.295H199.216L199.311 182.265L199.701 182.14C199.833 182.095 199.966 182.048 200.094 181.998L200.134 181.985C200.254 181.94 200.371 181.893 200.486 181.845C200.501 181.843 200.516 181.838 200.529 181.83C200.551 181.83 200.574 181.813 200.596 181.8C200.699 181.757 200.799 181.712 200.899 181.665L201.012 181.612C201.092 181.575 201.172 181.537 201.247 181.497L201.324 181.457C201.367 181.435 201.409 181.415 201.449 181.39C201.544 181.34 201.637 181.287 201.73 181.235L201.755 181.22C201.925 181.122 202.085 181.02 202.24 180.914C202.342 180.847 202.442 180.774 202.538 180.707C202.633 180.639 202.678 180.602 202.743 180.549C202.765 180.534 202.785 180.514 202.805 180.499L202.885 180.437L203.088 180.264L203.25 180.109C203.308 180.054 203.366 179.996 203.418 179.939C203.43 179.928 203.442 179.916 203.453 179.904C203.523 179.831 203.588 179.756 203.651 179.686C203.713 179.616 203.753 179.561 203.803 179.496C203.848 179.439 203.893 179.379 203.936 179.316L203.958 179.288C204.006 179.221 204.051 179.153 204.091 179.086C204.131 179.018 204.174 178.951 204.211 178.883C204.215 178.872 204.221 178.862 204.229 178.853C204.266 178.786 204.299 178.718 204.331 178.646C204.339 178.628 204.349 178.61 204.359 178.593C204.376 178.556 204.391 178.516 204.409 178.475L204.431 178.42C204.462 178.349 204.488 178.277 204.511 178.203C204.539 178.13 204.559 178.055 204.581 177.978C204.59 177.948 204.596 177.918 204.601 177.888C204.601 177.85 204.621 177.81 204.629 177.775C204.636 177.74 204.629 177.76 204.629 177.753C204.644 177.678 204.656 177.602 204.666 177.527V177.49C204.666 177.427 204.666 177.362 204.684 177.3C204.701 177.237 204.684 177.157 204.684 177.085V177.062C204.684 175.749 203.933 174.433 202.432 173.335L128.673 119.822C125.227 117.324 123.19 113.323 123.197 109.066L123.42 36.2219L123.475 18.186C123.481 16.1248 124.683 14.2544 126.554 13.3906L130.461 11.577C128.697 12.4708 127.587 14.2823 127.592 16.2598L127.527 38.5783L127.327 107.412C127.316 111.502 129.27 115.348 132.58 117.749L204.754 170.06L206.613 171.409C206.83 171.569 207.038 171.729 207.238 171.894L207.418 172.047L207.601 172.212C207.624 172.232 207.647 172.254 207.668 172.277C207.702 172.305 207.735 172.335 207.766 172.367L207.788 172.384C207.843 172.439 207.898 172.492 207.951 172.547C208.003 172.602 208.061 172.657 208.113 172.712C208.221 172.827 208.324 172.942 208.421 173.055C208.885 173.589 209.268 174.188 209.557 174.833C209.574 174.878 209.592 174.921 209.612 174.963C209.707 175.194 209.786 175.43 209.849 175.671C209.867 175.729 209.882 175.789 209.895 175.849C209.922 175.961 209.945 176.082 209.965 176.202C209.965 176.264 209.985 176.327 209.992 176.392C210 176.457 209.992 176.472 210.007 176.514C210.007 176.599 210.022 176.687 210.027 176.764V176.95C210.031 176.959 210.034 176.969 210.035 176.98Z" fill="url(#paint3_linear_17:3820)"/>
    <path fill-rule="evenodd" clip-rule="evenodd" d="M153.225 39.2513L154.143 39.9016L153.873 40.6221L153.46 41.7027C153.426 41.7885 153.4 41.8772 153.383 41.9679C153.366 42.0504 153.366 42.1355 153.383 42.218C153.405 42.3094 153.447 42.3948 153.505 42.4682C153.583 42.5637 153.674 42.6479 153.776 42.7183C153.833 42.7584 153.888 42.7959 153.943 42.8284C153.998 42.8609 154.026 42.8734 154.066 42.891C154.116 42.9162 154.168 42.938 154.221 42.956L154.331 42.6733L155.116 40.5871L156.014 41.2249L155.832 41.6927L154.896 44.1717C154.832 44.39 154.73 44.5951 154.594 44.7771C154.482 44.9083 154.333 45.0018 154.166 45.0448C153.976 45.0774 153.781 45.0566 153.603 44.9847C153.468 44.9326 153.338 44.8699 153.213 44.7971C153.096 44.7312 152.983 44.6585 152.875 44.5795C152.727 44.4769 152.597 44.3718 152.48 44.2718L152.747 43.5664C152.843 43.6503 152.943 43.7288 153.048 43.8015C153.103 43.839 153.153 43.874 153.203 43.9016C153.332 43.9933 153.49 44.0351 153.648 44.0191C153.798 43.9732 153.913 43.853 153.953 43.7014H153.933C153.859 43.6678 153.786 43.6303 153.716 43.5889C153.62 43.5338 153.52 43.4688 153.41 43.3913C153.162 43.225 152.944 43.0177 152.765 42.7784C152.628 42.5915 152.529 42.38 152.472 42.1555C152.425 41.9495 152.417 41.7367 152.447 41.5276C152.478 41.3182 152.532 41.1127 152.607 40.9148L153.225 39.2513V39.2513Z" fill="#3753E3"/>
    <path fill-rule="evenodd" clip-rule="evenodd" d="M151.894 41.4075C151.896 41.1566 151.94 40.9077 152.027 40.6721L152.705 38.8835L151.312 37.8979C151.251 37.8532 151.187 37.8123 151.121 37.7753C150.778 37.5369 150.337 37.4862 149.948 37.6403C149.744 37.7277 149.574 37.8774 149.46 38.068C149.321 38.304 149.235 38.568 149.21 38.841C149.189 39.0447 149.189 39.2501 149.21 39.4539C149.232 39.6613 149.282 39.865 149.358 40.0592C149.439 40.2607 149.546 40.4507 149.676 40.6246C149.817 40.8098 149.986 40.9725 150.176 41.1074C150.226 41.1424 150.273 41.1724 150.321 41.1999C150.423 41.261 150.533 41.3058 150.649 41.3325C150.782 41.3573 150.918 41.3573 151.051 41.3325C151.062 41.483 151.09 41.6316 151.136 41.7753L152.004 42.4081C151.931 42.0797 151.894 41.7441 151.894 41.4075ZM151.529 38.9736L151.184 39.8866H151.181C151.151 39.9767 151.114 40.0767 151.084 40.1868C151.054 40.2969 151.026 40.4044 151.006 40.5095C150.927 40.5424 150.841 40.5544 150.756 40.5445C150.666 40.524 150.581 40.4848 150.506 40.4295C150.346 40.3253 150.226 40.1688 150.168 39.9867C150.117 39.7968 150.104 39.5989 150.128 39.4038C150.144 39.2468 150.189 39.0941 150.261 38.9536C150.317 38.8399 150.404 38.7439 150.511 38.6759C150.612 38.6089 150.733 38.5797 150.854 38.5933C150.942 38.6058 151.028 38.6365 151.104 38.6834C151.196 38.7384 151.322 38.826 151.529 38.9736Z" fill="#3753E3"/>
    <path fill-rule="evenodd" clip-rule="evenodd" d="M142.821 31.8943L143.717 32.5272L142.524 35.6916L141.623 35.0537L142.821 31.8943Z" fill="#3753E3"/>
    <path fill-rule="evenodd" clip-rule="evenodd" d="M143.164 30.9788L144.065 31.6166L143.857 32.167L142.959 31.5291L143.164 30.9788H143.164Z" fill="#3753E3"/>
    <path fill-rule="evenodd" clip-rule="evenodd" d="M145.518 32.6447L145.165 33.5478L146.193 34.2757L145.913 34.9912L144.89 34.2657L144.477 35.3464C144.443 35.4321 144.417 35.5209 144.4 35.6115C144.368 35.7959 144.417 35.985 144.532 36.1318C144.609 36.2274 144.7 36.3116 144.8 36.382C144.858 36.422 144.913 36.457 144.968 36.4896L145.09 36.5546C145.152 36.5882 145.216 36.6159 145.283 36.6372L145.003 37.3751C144.985 37.3695 144.967 37.3628 144.95 37.3551C144.883 37.3251 144.81 37.2875 144.735 37.245C144.66 37.2025 144.537 37.1224 144.427 37.0449C144.179 36.8801 143.96 36.6736 143.782 36.4345C143.645 36.247 143.545 36.0346 143.489 35.8092C143.442 35.6032 143.434 35.3903 143.464 35.1813C143.496 34.9726 143.549 34.768 143.624 34.5709L144.54 32.1344L145.518 32.6447Z" fill="#3753E3"/>
    <path fill-rule="evenodd" clip-rule="evenodd" d="M149.048 37.8929C149.071 37.6864 149.066 37.4777 149.033 37.2726C148.998 37.0535 148.935 36.8399 148.845 36.6372C148.747 36.4212 148.622 36.2186 148.472 36.0343C148.307 35.8314 148.114 35.6521 147.899 35.5015L146.699 34.651L145.123 38.8185L146.021 39.4564L146.429 38.4207C146.56 38.5394 146.696 38.6513 146.839 38.756C146.924 38.816 147.006 38.8685 147.089 38.916C147.262 39.0183 147.449 39.095 147.644 39.1437C147.865 39.2057 148.099 39.1969 148.315 39.1187C148.519 39.0379 148.689 38.8896 148.798 38.6984C148.94 38.452 149.026 38.1768 149.048 37.8929ZM148.09 36.7722C148.15 36.955 148.171 37.1487 148.15 37.3401L148.14 37.3351C148.126 37.509 148.079 37.6787 148.002 37.8354C147.947 37.9477 147.86 38.0416 147.752 38.1055C147.639 38.1586 147.511 38.1727 147.389 38.1456C147.281 38.1221 147.177 38.0807 147.081 38.023C147.036 37.998 146.991 37.968 146.944 37.9354C146.854 37.8749 146.77 37.8053 146.694 37.7278L147.354 36.0218L147.712 36.2719C147.889 36.3927 148.022 36.5686 148.09 36.7722Z" fill="#3753E3"/>
    <path fill-rule="evenodd" clip-rule="evenodd" d="M141.793 32.7398C141.816 32.5361 141.816 32.3306 141.793 32.1269C141.766 31.9186 141.713 31.7145 141.636 31.5191C141.558 31.3215 141.456 31.1348 141.331 30.9637C141.19 30.7803 141.021 30.6207 140.83 30.4909L140.705 30.4084C140.658 30.3834 140.613 30.3609 140.57 30.3434C140.49 30.3084 140.406 30.2832 140.32 30.2683L140.87 28.7874L139.917 28.2871L138.341 32.4546C138.45 32.5988 138.568 32.7359 138.694 32.8649C138.819 32.99 138.939 33.105 139.057 33.2076C139.153 33.2981 139.256 33.3817 139.364 33.4577L139.554 33.6003C139.629 33.6534 139.705 33.7026 139.785 33.7479C139.963 33.854 140.157 33.9317 140.36 33.9781C140.586 34.0336 140.824 34.0206 141.043 33.9405C141.25 33.8531 141.425 33.7037 141.543 33.5128C141.687 33.2786 141.772 33.0137 141.793 32.7398ZM140.85 31.6016C140.902 31.7879 140.917 31.9826 140.893 32.1745L140.9 32.167C140.884 32.324 140.84 32.4767 140.768 32.6172C140.706 32.7327 140.616 32.8302 140.505 32.8999C140.396 32.9607 140.271 32.9869 140.147 32.975C140.036 32.9662 139.929 32.931 139.835 32.8724C139.805 32.8549 139.772 32.8349 139.737 32.8099L139.647 32.7498H139.632C139.599 32.7273 139.564 32.6948 139.447 32.5897L140.04 31.0163C140.124 30.9963 140.213 31.0069 140.29 31.0463C140.334 31.0636 140.377 31.0845 140.417 31.1088L140.5 31.1614C140.662 31.2655 140.785 31.4202 140.85 31.6016Z" fill="#3753E3"/>
    <path fill-rule="evenodd" clip-rule="evenodd" d="M111.47 83.7081L28.3071 35.7091L1.97369 50.9108L103.683 109.566L103.703 109.579L104.313 109.942L104.618 110.099L104.868 110.214C105.026 110.289 105.184 110.357 105.341 110.422C105.576 110.517 105.807 110.604 106.034 110.672L106.252 110.74C106.661 110.858 107.079 110.942 107.503 110.99C107.56 110.99 107.618 110.99 107.675 111.01H108.223C109.092 111.023 109.949 110.804 110.704 110.374L118.014 106.122L118.151 106.042C119.848 105.059 120.903 102.962 120.903 99.983C120.903 94.0244 116.686 86.72 111.47 83.7081Z" fill="url(#paint4_linear_17:3820)"/>
    <path fill-rule="evenodd" clip-rule="evenodd" d="M111.47 83.7082C116.688 86.71 120.903 94.0244 120.886 100.021C120.868 106.017 116.633 108.436 111.407 105.421C106.182 102.407 101.974 95.1051 101.992 89.1089C102.009 83.1128 106.249 80.6938 111.47 83.7082Z" fill="#2FCF6E"/>
    <path fill-rule="evenodd" clip-rule="evenodd" d="M95.808 99.5828C95.9181 99.8613 96.0331 100.139 96.1532 100.416C96.0206 100.138 95.908 99.8629 95.808 99.5828Z" fill="#986C33"/>
    <path fill-rule="evenodd" clip-rule="evenodd" d="M102.417 92.6261C102.449 92.7611 102.485 92.8987 102.517 93.0313C102.482 92.8987 102.449 92.7611 102.414 92.6261H102.417Z" fill="#986C33"/>
    <path fill-rule="evenodd" clip-rule="evenodd" d="M102.417 92.6261C102.382 92.4785 102.352 92.3309 102.322 92.1833C102.349 92.3309 102.384 92.4785 102.417 92.6261Z" fill="#936831"/>
    <path fill-rule="evenodd" clip-rule="evenodd" d="M94.5572 93.3065C94.5572 93.1689 94.5572 93.0363 94.5697 92.9012V93.304L94.5572 93.3065Z" fill="#8E6530"/>
    <path fill-rule="evenodd" clip-rule="evenodd" d="M102.017 88.3435C102.037 88.0308 102.069 87.7256 102.117 87.4354C102.062 87.7256 102.037 88.0308 102.017 88.3435Z" fill="#8E6530"/>
    <path fill-rule="evenodd" clip-rule="evenodd" d="M102.292 86.5924C102.267 86.6825 102.247 86.7725 102.224 86.8651C102.244 86.7725 102.264 86.6825 102.289 86.5949L102.292 86.5924Z" fill="#8E6530"/>
    <path fill-rule="evenodd" clip-rule="evenodd" d="M102.367 86.3022C102.342 86.3948 102.314 86.4873 102.292 86.5824C102.312 86.4999 102.339 86.4048 102.367 86.3022Z" fill="#89612E"/>
    <path fill-rule="evenodd" clip-rule="evenodd" d="M118.129 106.079L110.692 110.404C109.936 110.833 109.079 111.052 108.21 111.04H107.96C107.888 111.04 107.815 111.04 107.745 111.027H107.663L107.49 111.01C107.067 110.962 106.648 110.878 106.239 110.76L106.019 110.689C105.792 110.619 105.561 110.532 105.326 110.439C105.169 110.374 105.011 110.304 104.853 110.232C104.771 110.194 104.693 110.154 104.603 110.114L104.298 109.959C104.181 109.897 104.063 109.829 103.943 109.761C103.823 109.694 103.75 109.649 103.655 109.586C103.56 109.524 103.525 109.509 103.458 109.466C103.32 109.381 103.185 109.289 103.05 109.196C102.96 109.136 102.87 109.074 102.782 109.006C102.769 108.999 102.756 108.991 102.745 108.981C102.667 108.928 102.592 108.873 102.52 108.813C102.432 108.751 102.344 108.686 102.269 108.616L101.994 108.393L101.719 108.163C101.469 107.945 101.219 107.725 100.969 107.49C100.682 107.215 100.401 106.928 100.126 106.63C100.038 106.534 99.953 106.437 99.8755 106.339C99.8429 106.302 99.8079 106.267 99.7779 106.229L99.4677 105.867C99.3576 105.734 99.2501 105.604 99.145 105.466C99.0399 105.329 98.9299 105.194 98.8273 105.056C98.6497 104.826 98.4796 104.586 98.312 104.346L98.1494 104.095C97.9743 103.845 97.8092 103.595 97.6491 103.325C97.5265 103.13 97.4115 102.935 97.2964 102.735C97.1813 102.535 97.1013 102.389 97.0062 102.217C96.9989 102.206 96.993 102.194 96.9887 102.182C96.9212 102.059 96.8536 101.932 96.7911 101.807C96.5559 101.356 96.3383 100.9 96.1382 100.438C96.0181 100.16 95.903 99.8821 95.793 99.6053C95.753 99.5077 95.7179 99.4102 95.6829 99.3126C95.6179 99.1275 95.5503 98.9449 95.4878 98.7623C95.3452 98.347 95.2176 97.9268 95.1101 97.5115L95.0425 97.2489C95.0175 97.1563 94.995 97.0637 94.9725 96.9712C94.95 96.8786 94.925 96.7636 94.9049 96.6585C94.8849 96.5534 94.8724 96.5059 94.8574 96.4284C94.8299 96.3108 94.8099 96.1932 94.7899 96.0756C94.7699 95.9581 94.7448 95.8255 94.7248 95.6979C94.6823 95.4353 94.6523 95.1726 94.6248 94.9124C94.6248 94.8374 94.6098 94.7674 94.6048 94.6923C94.5998 94.6173 94.5848 94.4772 94.5772 94.3721C94.5772 94.2145 94.5597 94.0619 94.5572 93.9093C94.5547 93.7567 94.5572 93.6267 94.5572 93.4866V93.4541V93.3315V92.9287C94.5572 92.7962 94.5572 92.6786 94.5797 92.556C94.6023 92.4334 94.6073 92.2633 94.6223 92.1208C94.6448 91.9356 94.6698 91.753 94.7048 91.5779C94.7048 91.5154 94.7248 91.4528 94.7398 91.3903C94.7574 91.3128 94.7724 91.2377 94.7899 91.1627C94.8074 91.0876 94.8224 91.0151 94.8424 90.945V90.9325C94.8649 90.84 94.8924 90.7524 94.9175 90.6624C94.9425 90.5723 94.975 90.4773 95.005 90.3872C95.065 90.2096 95.1326 90.037 95.2026 89.8694C95.2376 89.7868 95.2752 89.7043 95.3152 89.6192C95.3552 89.5342 95.3777 89.4892 95.4153 89.4241C95.4979 89.2577 95.5906 89.0965 95.6929 88.9413C95.7555 88.8488 95.818 88.7612 95.883 88.6737C95.9481 88.5861 95.9781 88.5461 96.0281 88.4861C96.0782 88.426 96.1232 88.371 96.1707 88.3185L96.2833 88.2009L96.4459 88.0383C96.4972 87.9843 96.5524 87.9342 96.611 87.8882C96.6935 87.8156 96.7811 87.7456 96.8611 87.6806C96.921 87.6335 96.9837 87.5901 97.0487 87.5505L97.0713 87.533C97.1438 87.4854 97.2163 87.4379 97.2914 87.3954L104.746 83.0503C104.668 83.0953 104.591 83.1428 104.516 83.1954C104.441 83.2479 104.423 83.2554 104.378 83.2904C104.333 83.3254 104.273 83.3655 104.223 83.4055C104.173 83.4428 104.124 83.4828 104.078 83.5256C104.005 83.584 103.936 83.6467 103.87 83.7132C103.805 83.7732 103.743 83.8382 103.678 83.9083C103.674 83.9145 103.669 83.9196 103.663 83.9233C103.61 83.9808 103.558 84.0409 103.508 84.1059C103.496 84.1155 103.486 84.1264 103.478 84.1384C103.428 84.1985 103.38 84.261 103.333 84.3235C103.285 84.3861 103.202 84.5036 103.142 84.5962C103.027 84.7724 102.923 84.9554 102.83 85.144C102.797 85.2066 102.765 85.2666 102.74 85.3266C102.644 85.5361 102.561 85.7507 102.49 85.9695C102.47 86.0296 102.452 86.0871 102.432 86.1446L102.379 86.3122C102.352 86.4048 102.324 86.4998 102.302 86.5949C102.279 86.69 102.257 86.7725 102.237 86.8651C102.217 86.9576 102.194 87.0502 102.179 87.1452C102.164 87.2403 102.144 87.3354 102.129 87.4354C102.082 87.7256 102.049 88.0308 102.029 88.3435C102.017 88.5561 102.004 88.7687 102.002 88.9914V89.5667C102.002 89.7093 102.002 89.8719 102.022 90.027C102.022 90.1371 102.037 90.2421 102.049 90.3497C102.049 90.4197 102.062 90.4948 102.069 90.5673C102.094 90.83 102.129 91.0901 102.169 91.3553C102.189 91.4779 102.212 91.6054 102.232 91.7305V91.743C102.259 91.8881 102.289 92.0357 102.319 92.1833C102.349 92.3309 102.379 92.4785 102.414 92.6261C102.45 92.7736 102.482 92.8987 102.517 93.0313C102.587 93.304 102.662 93.5766 102.747 93.8443C102.787 93.9819 102.832 94.117 102.877 94.252C102.922 94.3871 102.97 94.5322 103.02 94.6723C103.07 94.8124 103.112 94.9224 103.162 95.06C103.212 95.1976 103.265 95.3302 103.318 95.4653C103.37 95.6004 103.42 95.7154 103.473 95.843L103.58 96.0932C103.668 96.3008 103.763 96.5059 103.86 96.7085C103.958 96.9111 104.04 97.0888 104.138 97.2789C104.281 97.564 104.431 97.8467 104.588 98.1244C104.638 98.2169 104.691 98.312 104.746 98.3996C104.801 98.4871 104.853 98.5847 104.908 98.6747C104.964 98.7648 105.026 98.8773 105.089 98.9774C105.151 99.0775 105.191 99.14 105.244 99.2276C105.354 99.4077 105.469 99.5853 105.591 99.7604C105.649 99.8479 105.706 99.9355 105.772 100.023C105.902 100.216 106.039 100.406 106.179 100.593L106.329 100.791C106.725 101.314 107.145 101.817 107.58 102.292C107.703 102.422 107.83 102.555 107.95 102.682C108.02 102.755 108.093 102.83 108.165 102.9C108.403 103.137 108.643 103.365 108.888 103.583L109.139 103.8C109.329 103.963 109.521 104.126 109.716 104.278C109.912 104.431 110.044 104.528 110.217 104.648C110.332 104.731 110.444 104.813 110.559 104.898L110.932 105.149L110.987 105.181C111.13 105.274 111.272 105.359 111.417 105.444C111.512 105.499 111.608 105.551 111.703 105.601C111.758 105.634 111.813 105.661 111.868 105.689C111.923 105.716 112.008 105.762 112.078 105.797C112.328 105.922 112.578 106.032 112.828 106.132C112.966 106.187 113.101 106.239 113.236 106.287C113.329 106.322 113.421 106.349 113.516 106.379C113.611 106.409 113.654 106.424 113.724 106.442C114.127 106.561 114.539 106.645 114.957 106.692L115.13 106.71H115.678C116.536 106.719 117.382 106.502 118.129 106.079Z" fill="#35AE64"/>
    <path fill-rule="evenodd" clip-rule="evenodd" d="M95.808 99.5828C95.9181 99.8613 96.0331 100.139 96.1532 100.416C96.0206 100.138 95.908 99.8629 95.808 99.5828Z" fill="url(#paint5_linear_17:3820)"/>
    <path fill-rule="evenodd" clip-rule="evenodd" d="M102.417 92.6261C102.449 92.7611 102.485 92.8987 102.517 93.0313C102.482 92.8987 102.449 92.7611 102.414 92.6261H102.417Z" fill="url(#paint6_linear_17:3820)"/>
    <path fill-rule="evenodd" clip-rule="evenodd" d="M102.417 92.626C102.382 92.4785 102.352 92.3309 102.322 92.1833C102.349 92.3309 102.384 92.4785 102.417 92.626Z" fill="url(#paint7_linear_17:3820)"/>
    <path fill-rule="evenodd" clip-rule="evenodd" d="M94.5572 93.3065C94.5572 93.1689 94.5572 93.0363 94.5697 92.9012V93.304L94.5572 93.3065Z" fill="url(#paint8_linear_17:3820)"/>
    <path fill-rule="evenodd" clip-rule="evenodd" d="M102.017 88.3435C102.037 88.0308 102.069 87.7256 102.117 87.4354C102.062 87.7256 102.037 88.0308 102.017 88.3435Z" fill="url(#paint9_linear_17:3820)"/>
    <path fill-rule="evenodd" clip-rule="evenodd" d="M102.292 86.5924C102.267 86.6825 102.247 86.7725 102.224 86.8651C102.244 86.7725 102.264 86.6825 102.289 86.5949L102.292 86.5924Z" fill="url(#paint10_linear_17:3820)"/>
    <path fill-rule="evenodd" clip-rule="evenodd" d="M102.367 86.3022C102.342 86.3948 102.314 86.4873 102.292 86.5824C102.312 86.4998 102.339 86.4048 102.367 86.3022Z" fill="url(#paint11_linear_17:3820)"/>
    <path fill-rule="evenodd" clip-rule="evenodd" d="M99.6278 36.2719L36.8098 0L16.9177 11.4844L93.7467 55.7838H93.7617L94.232 56.0539L94.4621 56.1715L94.6448 56.259C94.7648 56.3166 94.8824 56.3666 95 56.4166C95.1776 56.4892 95.3527 56.5542 95.5253 56.6093L95.6904 56.6593C95.9977 56.7508 96.3124 56.8152 96.631 56.8519L96.7585 56.8669H97.1663C97.8223 56.878 98.4693 56.713 99.0399 56.3891L104.563 53.2122L104.666 53.1522C105.949 52.4017 106.742 50.8258 106.75 48.5744C106.755 44.0517 103.563 38.5233 99.6278 36.2719Z" fill="url(#paint12_linear_17:3820)"/>
    <path fill-rule="evenodd" clip-rule="evenodd" d="M99.6278 36.2569C103.57 38.5333 106.755 44.0492 106.742 48.5794C106.73 53.1096 103.523 54.9357 99.5828 52.6594C95.6429 50.383 92.4559 44.8672 92.4685 40.3369C92.481 35.8067 95.6854 33.9806 99.6278 36.2569Z" fill="#6B71D6"/>
    <path fill-rule="evenodd" clip-rule="evenodd" d="M87.8031 48.2492C87.8857 48.4568 87.9732 48.6695 88.0658 48.8796C87.9582 48.6695 87.8732 48.4593 87.8031 48.2492Z" fill="#986C33"/>
    <path fill-rule="evenodd" clip-rule="evenodd" d="M92.7911 42.9935C92.8136 43.0961 92.8412 43.1986 92.8662 43.3012C92.8386 43.1986 92.8136 43.0961 92.7886 42.9935H92.7911Z" fill="#986C33"/>
    <path fill-rule="evenodd" clip-rule="evenodd" d="M92.7911 42.9935C92.7661 42.8834 92.7411 42.7709 92.7186 42.6583C92.7386 42.7759 92.7636 42.8834 92.7911 42.9935Z" fill="#936831"/>
    <path fill-rule="evenodd" clip-rule="evenodd" d="M92.4884 39.7591C92.5035 39.5239 92.5285 39.2913 92.5635 39.0736C92.5285 39.2913 92.5035 39.5239 92.4884 39.7591Z" fill="#8E6530"/>
    <path fill-rule="evenodd" clip-rule="evenodd" d="M92.6961 38.4357C92.6761 38.5058 92.661 38.5733 92.646 38.6434C92.6585 38.5733 92.6761 38.5058 92.6936 38.4382L92.6961 38.4357Z" fill="#8E6530"/>
    <path fill-rule="evenodd" clip-rule="evenodd" d="M92.7536 38.2256C92.7336 38.2957 92.7136 38.3657 92.6961 38.4358C92.7111 38.3682 92.7311 38.2957 92.7536 38.2256Z" fill="#89612E"/>
    <path fill-rule="evenodd" clip-rule="evenodd" d="M104.658 53.1572L99.0424 56.4216C98.4711 56.7464 97.8233 56.9122 97.1663 56.9019H96.761L96.631 56.8894C96.3125 56.8524 95.9978 56.788 95.6904 56.6968L95.5253 56.6443C95.3527 56.5917 95.1776 56.5267 95 56.4542C94.8824 56.4041 94.7623 56.3516 94.6448 56.2966L94.4621 56.209L94.232 56.0914L93.9643 55.9413C93.8893 55.9013 93.8193 55.8563 93.7467 55.8113C93.6742 55.7662 93.6466 55.7512 93.5966 55.7187C93.4941 55.6562 93.3915 55.5861 93.2889 55.5161L93.0863 55.371C93.0755 55.3669 93.066 55.36 93.0588 55.351C92.9995 55.313 92.9427 55.2712 92.8887 55.2259C92.8203 55.1792 92.7553 55.1292 92.6936 55.0758C92.6235 55.0208 92.5535 54.9657 92.4834 54.9057C92.4134 54.8457 92.3434 54.7906 92.2758 54.7331C92.0857 54.5705 91.9006 54.4029 91.718 54.2328C91.5354 54.0627 91.2902 53.8076 91.0826 53.5824L90.885 53.3648L90.8124 53.2797C90.7349 53.1897 90.6548 53.0996 90.5773 53.0071C90.4922 52.907 90.4122 52.8069 90.3271 52.7044C90.2421 52.6018 90.1645 52.4993 90.077 52.3942C89.9444 52.2191 89.8143 52.039 89.6893 51.8564C89.6467 51.7963 89.6042 51.7363 89.5667 51.6763C89.4341 51.4836 89.3165 51.291 89.1864 51.0934C89.0964 50.9458 89.0063 50.7982 88.9213 50.6481C88.8362 50.498 88.7737 50.398 88.7037 50.2554C88.6972 50.248 88.6921 50.2395 88.6886 50.2304C88.6361 50.1378 88.5861 50.0428 88.5386 49.9477C88.3609 49.6075 88.1958 49.2623 88.0383 48.9146C87.9457 48.7045 87.8581 48.4918 87.7756 48.2842C87.7456 48.2092 87.7181 48.1366 87.693 48.0616C87.643 47.924 87.593 47.7864 87.5455 47.6488C87.4379 47.3336 87.3428 47.0159 87.2603 46.7008L87.2078 46.5031L87.1552 46.2955C87.1377 46.2155 87.1202 46.1379 87.1052 46.0454L87.0677 45.8727C87.0477 45.7827 87.0326 45.6951 87.0176 45.6051C87.0026 45.515 86.9826 45.415 86.9701 45.3199C86.9376 45.1198 86.9126 44.9247 86.8926 44.7271C86.8926 44.6695 86.8801 44.617 86.8776 44.562C86.875 44.5069 86.8625 44.3969 86.8575 44.3118C86.8575 44.1942 86.8425 44.0792 86.8425 43.9641V43.6189V43.5288V43.2236C86.8425 43.1236 86.8425 43.0335 86.86 42.941C86.8776 42.8484 86.8801 42.7208 86.8926 42.6133C86.9051 42.5057 86.9276 42.3356 86.9551 42.203C86.9551 42.1555 86.9701 42.108 86.9801 42.0604C86.9951 42.0029 87.0051 41.9454 87.0176 41.8878C87.0301 41.8303 87.0452 41.7778 87.0577 41.7227C87.0752 41.6527 87.0952 41.5852 87.1152 41.5176C87.1352 41.4501 87.1577 41.3775 87.1802 41.31C87.2278 41.1774 87.2778 41.0448 87.3303 40.9198C87.3553 40.8572 87.3854 40.7947 87.4154 40.7346C87.4379 40.6842 87.4629 40.6349 87.4904 40.5871C87.553 40.4612 87.6232 40.3392 87.7005 40.2218C87.7481 40.1518 87.7956 40.0842 87.8456 40.0192C87.8957 39.9542 87.9157 39.9241 87.9532 39.8766L88.0608 39.7515L88.1458 39.6615L88.2684 39.5389C88.3084 39.4989 88.3509 39.4614 88.3935 39.4263C88.436 39.3913 88.521 39.3188 88.5886 39.2688C88.6561 39.2187 88.6811 39.2012 88.7287 39.1712L88.7462 39.1587C88.8012 39.1237 88.8562 39.0861 88.9138 39.0536L94.5572 35.7716C94.4972 35.8042 94.4396 35.8417 94.3821 35.8792L94.2795 35.9517L94.162 36.0393C94.1236 36.0672 94.0868 36.0972 94.0519 36.1294C93.9978 36.1742 93.9461 36.2218 93.8968 36.2719C93.846 36.3186 93.7975 36.3679 93.7517 36.4195H93.7392C93.6992 36.4646 93.6592 36.5096 93.6216 36.5571C93.6128 36.5651 93.6052 36.5744 93.5991 36.5846C93.5616 36.6272 93.5266 36.6747 93.4891 36.7222C93.4515 36.7697 93.3915 36.8598 93.3465 36.9273C93.2599 37.0614 93.1806 37.2 93.1088 37.3426C93.0838 37.3876 93.0613 37.4351 93.0413 37.4802C92.9653 37.6377 92.8993 37.7997 92.8437 37.9655C92.8287 38.0105 92.8136 38.0555 92.8011 38.098C92.7855 38.1398 92.7722 38.1824 92.7611 38.2256C92.7386 38.2957 92.7186 38.3682 92.7011 38.4383C92.6836 38.5083 92.6661 38.5733 92.6535 38.6434C92.641 38.7134 92.621 38.781 92.6085 38.8535C92.596 38.926 92.5835 38.9961 92.571 39.0736C92.536 39.2913 92.511 39.5239 92.496 39.759C92.496 39.9191 92.4784 40.0817 92.4759 40.2594V40.6921C92.4759 40.7997 92.4759 40.9248 92.4909 41.0423C92.4909 41.1224 92.4909 41.2024 92.511 41.2925C92.531 41.3825 92.511 41.4025 92.5285 41.4576C92.5485 41.6544 92.5735 41.852 92.6035 42.0504C92.6185 42.1455 92.636 42.2406 92.651 42.3356C92.6711 42.4457 92.6936 42.5582 92.7161 42.6683C92.7386 42.7784 92.7636 42.8934 92.7886 43.0035C92.8136 43.1136 92.8387 43.2086 92.8662 43.3112C92.9187 43.5163 92.9762 43.7214 93.0388 43.9241C93.0688 44.0291 93.1038 44.1292 93.1363 44.2318C93.1689 44.3343 93.2064 44.4444 93.2439 44.5494C93.2814 44.6545 93.3139 44.7446 93.3515 44.8421C93.389 44.9397 93.429 45.0472 93.469 45.1473C93.5091 45.2474 93.5466 45.3399 93.5866 45.4325L93.6692 45.6226C93.7342 45.7802 93.8067 45.9353 93.8818 46.0879C93.9568 46.2405 94.0169 46.3756 94.0894 46.5181C94.197 46.7333 94.312 46.9484 94.4296 47.156C94.4696 47.2261 94.5072 47.2986 94.5497 47.3662C94.5922 47.4337 94.6297 47.5062 94.6723 47.5738C94.7148 47.6413 94.7623 47.7264 94.8099 47.8014C94.8574 47.8765 94.8849 47.924 94.9249 47.984C95.0075 48.1191 95.095 48.2517 95.1751 48.3868L95.3102 48.5844C95.4102 48.7295 95.5128 48.8721 95.6203 49.0147C95.6554 49.0647 95.6929 49.1147 95.7329 49.1622C96.0331 49.56 96.3483 49.9377 96.6785 50.3004L96.9587 50.5931L97.1212 50.7607C97.3014 50.9383 97.484 51.1109 97.6691 51.276L97.8542 51.4386C97.9976 51.5637 98.1427 51.6838 98.2895 51.7988C98.4145 51.8964 98.5396 51.989 98.6622 52.0815C98.7472 52.1415 98.8348 52.2041 98.9123 52.2616C98.9899 52.3192 99.0999 52.3867 99.1925 52.4467L99.235 52.4742C99.3426 52.5418 99.4502 52.6068 99.5602 52.6694C99.6303 52.7119 99.7028 52.7519 99.7754 52.7894C99.8157 52.8144 99.8574 52.8369 99.9004 52.857L100.058 52.937C100.246 53.0321 100.431 53.1146 100.618 53.1872C100.721 53.2297 100.823 53.2697 100.924 53.3047C101.024 53.3398 101.066 53.3523 101.136 53.3748C101.206 53.3973 101.241 53.4098 101.294 53.4223C101.598 53.5132 101.909 53.5777 102.224 53.6149H102.762C103.424 53.6348 104.079 53.4767 104.658 53.1572Z" fill="#474DB1"/>
    <path fill-rule="evenodd" clip-rule="evenodd" d="M87.8031 48.2492C87.8857 48.4568 87.9732 48.6695 88.0658 48.8796C87.9582 48.6695 87.8732 48.4593 87.8031 48.2492Z" fill="url(#paint13_linear_17:3820)"/>
    <path fill-rule="evenodd" clip-rule="evenodd" d="M92.7912 42.9935C92.8137 43.0961 92.8412 43.1987 92.8662 43.3012C92.8387 43.1987 92.8137 43.0961 92.7886 42.9935H92.7912Z" fill="url(#paint14_linear_17:3820)"/>
    <path fill-rule="evenodd" clip-rule="evenodd" d="M92.7912 42.9935C92.7661 42.8835 92.7411 42.7709 92.7186 42.6583C92.7386 42.7759 92.7636 42.8835 92.7912 42.9935Z" fill="url(#paint15_linear_17:3820)"/>
    <path fill-rule="evenodd" clip-rule="evenodd" d="M92.4885 39.7591C92.5035 39.5239 92.5285 39.2913 92.5635 39.0736C92.5285 39.2913 92.5035 39.5239 92.4885 39.7591Z" fill="url(#paint16_linear_17:3820)"/>
    <path fill-rule="evenodd" clip-rule="evenodd" d="M92.6961 38.4358C92.6761 38.5058 92.6611 38.5734 92.6461 38.6434C92.6586 38.5734 92.6761 38.5058 92.6936 38.4383L92.6961 38.4358Z" fill="url(#paint17_linear_17:3820)"/>
    <path fill-rule="evenodd" clip-rule="evenodd" d="M92.7536 38.2256C92.7336 38.2957 92.7136 38.3657 92.6961 38.4358C92.7111 38.3682 92.7311 38.2957 92.7536 38.2256Z" fill="url(#paint18_linear_17:3820)"/>
    <path fill-rule="evenodd" clip-rule="evenodd" d="M140.973 94.955C141.059 95.0012 141.143 95.053 141.223 95.1101C141.447 95.2674 141.651 95.4513 141.831 95.6579C141.995 95.8453 142.137 96.051 142.254 96.2708C142.356 96.466 142.432 96.6737 142.481 96.8886C142.525 97.0737 142.538 97.2648 142.519 97.454L142.494 97.6741L141.743 97.1438L141.761 96.9962C141.771 96.7955 141.725 96.5959 141.626 96.4208C141.507 96.1972 141.336 96.0064 141.125 95.8655C141.081 95.8332 141.035 95.8031 140.988 95.7755C140.893 95.7117 140.782 95.6762 140.668 95.6729C140.548 95.6729 140.482 95.7529 140.465 95.8955C140.459 95.971 140.464 96.0471 140.482 96.1207C140.51 96.21 140.551 96.2945 140.605 96.3708C140.679 96.4805 140.763 96.5835 140.855 96.6785C140.96 96.7936 141.09 96.9287 141.253 97.0762C141.607 97.3887 141.911 97.753 142.156 98.1569C142.347 98.4828 142.428 98.8619 142.386 99.2376V99.3101C142.375 99.4782 142.32 99.6404 142.226 99.7804C142.149 99.8908 142.031 99.9657 141.898 99.988C141.735 100.013 141.568 99.9919 141.416 99.928C141.3 99.8869 141.189 99.835 141.083 99.7729C140.995 99.7203 140.903 99.6628 140.808 99.5953C140.561 99.4198 140.336 99.2157 140.137 98.9874C139.958 98.7815 139.805 98.5537 139.682 98.3095C139.567 98.0858 139.483 97.8477 139.432 97.6016C139.386 97.3744 139.376 97.1416 139.399 96.9111L139.419 96.726L140.17 97.2564L140.155 97.4039C140.128 97.6618 140.175 97.9221 140.29 98.1544C140.435 98.43 140.646 98.6648 140.905 98.8373C140.958 98.8748 141.008 98.9074 141.053 98.9349C141.16 99.013 141.292 99.0487 141.423 99.0349C141.542 99.0095 141.628 98.9061 141.631 98.7848C141.64 98.7109 141.64 98.636 141.631 98.5621C141.611 98.4738 141.578 98.3893 141.531 98.312C141.469 98.2042 141.397 98.1028 141.315 98.0093C141.203 97.8783 141.083 97.7546 140.955 97.6391C140.769 97.471 140.592 97.2931 140.425 97.1063C140.272 96.94 140.137 96.759 140.02 96.5659C139.91 96.3896 139.825 96.1984 139.77 95.9981C139.718 95.7989 139.705 95.5919 139.73 95.3877V95.3527C139.738 95.2021 139.791 95.0574 139.882 94.9374C139.962 94.838 140.075 94.7705 140.2 94.7473C140.354 94.7242 140.511 94.7405 140.658 94.7949C140.768 94.8375 140.873 94.8911 140.973 94.955Z" fill="#3753E3"/>
    <path fill-rule="evenodd" clip-rule="evenodd" d="M146.669 102.907L146.564 102.83C146.458 102.769 146.402 102.65 146.421 102.53L146.656 100.423L145.946 99.923L145.906 100.288L145.803 100.218C145.754 100.022 145.67 99.8359 145.553 99.6703C145.422 99.4938 145.263 99.3399 145.083 99.215L144.94 99.125C144.836 99.064 144.723 99.0185 144.605 98.9899C144.467 98.9585 144.322 98.9716 144.192 99.0274C144.058 99.0923 143.947 99.1983 143.877 99.3301C143.782 99.5092 143.725 99.7059 143.709 99.908V100.008C143.68 100.248 143.689 100.491 143.734 100.728C143.778 100.962 143.849 101.19 143.947 101.406C144.041 101.616 144.162 101.812 144.305 101.992C144.438 102.16 144.595 102.308 144.77 102.432C144.817 102.467 144.865 102.498 144.915 102.527C145.019 102.592 145.135 102.635 145.255 102.652C145.401 102.67 145.542 102.599 145.616 102.472L145.718 102.545C145.706 102.684 145.735 102.824 145.803 102.947C145.874 103.085 145.977 103.203 146.103 103.293L146.589 103.638L146.669 102.907ZM145.673 100.648C145.782 100.883 145.823 101.143 145.791 101.399H145.793V101.471C145.768 101.727 145.683 101.887 145.543 101.947C145.4 101.994 145.244 101.969 145.123 101.879C145.087 101.86 145.053 101.838 145.02 101.814C144.816 101.668 144.653 101.47 144.55 101.241C144.441 101.007 144.401 100.747 144.432 100.491V100.416C144.457 100.161 144.54 100.003 144.683 99.943C144.825 99.8964 144.982 99.9215 145.103 100.011C145.137 100.03 145.171 100.052 145.203 100.076C145.408 100.221 145.57 100.419 145.673 100.648Z" fill="#3753E3"/>
    <path fill-rule="evenodd" clip-rule="evenodd" d="M149.28 100.949L149.988 101.449L149.851 102.7L150.851 103.415L150.771 104.148L149.771 103.43L149.616 104.813C149.598 104.928 149.65 105.042 149.748 105.104L150.499 105.641L150.418 106.374L149.233 105.529C149.105 105.438 149.002 105.315 148.935 105.174C148.868 105.042 148.839 104.893 148.853 104.746L149.055 102.927L148.227 102.339L148.31 101.606L149.138 102.197L149.28 100.949V100.949Z" fill="#3753E3"/>
    <path fill-rule="evenodd" clip-rule="evenodd" d="M155.259 108.15C155.287 107.9 155.272 107.646 155.214 107.4C155.157 107.148 155.067 106.905 154.946 106.677C154.829 106.449 154.685 106.235 154.516 106.042C154.359 105.852 154.178 105.684 153.978 105.541C153.917 105.496 153.852 105.454 153.786 105.416C153.67 105.348 153.546 105.293 153.418 105.254C153.257 105.199 153.084 105.19 152.918 105.226C152.765 105.267 152.633 105.36 152.542 105.489C152.431 105.662 152.364 105.861 152.35 106.067V106.137C152.323 106.388 152.338 106.641 152.395 106.887C152.452 107.137 152.541 107.378 152.66 107.605C152.781 107.831 152.926 108.043 153.093 108.238C153.252 108.425 153.432 108.593 153.63 108.738C153.695 108.783 153.761 108.826 153.823 108.863C153.94 108.93 154.063 108.985 154.191 109.026C154.352 109.08 154.525 109.091 154.691 109.056C154.843 109.02 154.976 108.931 155.069 108.806C155.181 108.631 155.247 108.43 155.259 108.223V108.15ZM154.531 107.235C154.559 107.36 154.566 107.488 154.551 107.615H154.549L154.536 107.738C154.528 107.843 154.494 107.944 154.438 108.033C154.394 108.1 154.328 108.148 154.251 108.17C154.169 108.193 154.083 108.193 154.001 108.17C153.933 108.151 153.869 108.123 153.808 108.088L153.706 108.02C153.603 107.948 153.509 107.864 153.425 107.77C153.339 107.671 153.265 107.562 153.205 107.445C153.147 107.328 153.103 107.205 153.075 107.077C153.045 106.953 153.038 106.824 153.053 106.697L153.068 106.574C153.073 106.47 153.106 106.368 153.163 106.279C153.208 106.212 153.275 106.162 153.353 106.139C153.435 106.116 153.521 106.116 153.603 106.139C153.67 106.161 153.735 106.189 153.796 106.224C153.828 106.244 153.863 106.264 153.898 106.289C154.001 106.361 154.095 106.445 154.178 106.539C154.264 106.64 154.338 106.75 154.398 106.867C154.457 106.984 154.502 107.107 154.531 107.235Z" fill="#3753E3"/>
    <path fill-rule="evenodd" clip-rule="evenodd" d="M158.071 108.476C158.128 108.508 158.183 108.546 158.241 108.586C158.404 108.701 158.555 108.834 158.691 108.981C158.807 109.11 158.911 109.25 159.001 109.399C159.077 109.528 159.141 109.665 159.191 109.806C159.234 109.923 159.268 110.042 159.291 110.164L158.618 109.987C158.596 109.85 158.546 109.72 158.471 109.604C158.392 109.475 158.286 109.364 158.161 109.279L158.066 109.216C158.011 109.18 157.948 109.159 157.883 109.156C157.822 109.156 157.773 109.205 157.773 109.266C157.769 109.381 157.813 109.493 157.893 109.576C158.045 109.748 158.213 109.907 158.393 110.049C158.659 110.267 158.885 110.529 159.061 110.825C159.215 111.072 159.285 111.362 159.259 111.653V111.69C159.226 111.99 159.098 112.157 158.876 112.19C158.648 112.201 158.423 112.137 158.236 112.008C158.149 111.96 158.066 111.906 157.986 111.848C157.61 111.588 157.3 111.246 157.078 110.847C156.993 110.699 156.926 110.541 156.88 110.377C156.841 110.245 156.816 110.109 156.805 109.972L157.485 110.204C157.527 110.587 157.738 110.931 158.061 111.142C158.109 111.178 158.159 111.21 158.211 111.24C158.276 111.287 158.355 111.313 158.436 111.315C158.501 111.31 158.552 111.257 158.556 111.192C158.561 111.148 158.555 111.104 158.541 111.062C158.523 111.003 158.496 110.948 158.461 110.897C158.409 110.823 158.35 110.755 158.286 110.692C158.195 110.604 158.1 110.52 158.001 110.442C157.715 110.219 157.471 109.948 157.278 109.641C157.114 109.388 157.042 109.086 157.073 108.786V108.751C157.077 108.628 157.124 108.51 157.205 108.418C157.278 108.348 157.374 108.305 157.475 108.298C157.598 108.29 157.72 108.312 157.833 108.361C157.916 108.391 157.995 108.43 158.071 108.476Z" fill="#3753E3"/>
    <path fill-rule="evenodd" clip-rule="evenodd" d="M161.423 109.604L162.133 110.104L161.94 111.835L162.041 111.905C162.12 111.782 162.257 111.708 162.403 111.708C162.54 111.714 162.673 111.756 162.789 111.83C162.836 111.858 162.884 111.89 162.934 111.925C163.074 112.023 163.2 112.139 163.309 112.27C163.42 112.403 163.515 112.549 163.589 112.706C163.667 112.871 163.72 113.046 163.749 113.226C163.782 113.422 163.787 113.622 163.764 113.819L163.549 115.72L162.841 115.22L163.031 113.499C163.056 113.291 163.027 113.081 162.946 112.888C162.862 112.694 162.725 112.528 162.551 112.408C162.52 112.385 162.487 112.363 162.453 112.343C162.34 112.253 162.185 112.236 162.056 112.3C161.912 112.427 161.831 112.61 161.833 112.801L161.655 114.372L160.947 113.871L161.423 109.604Z" fill="#3753E3"/>
    <path fill-rule="evenodd" clip-rule="evenodd" d="M167.019 117.406L167.829 117.984L167.749 118.717L165.28 116.958L165.363 116.225L166.308 116.901L166.483 115.34L165.603 114.714L165.685 113.981L167.276 115.115L167.019 117.406Z" fill="#3753E3"/>
    <path fill-rule="evenodd" clip-rule="evenodd" d="M166.601 114.104C166.557 114.02 166.525 113.931 166.506 113.839C166.486 113.757 166.48 113.673 166.488 113.589C166.495 113.518 166.518 113.451 166.556 113.391C166.588 113.343 166.636 113.308 166.691 113.291C166.751 113.276 166.814 113.276 166.873 113.291C166.925 113.303 166.974 113.323 167.019 113.351C167.043 113.364 167.066 113.379 167.089 113.396C167.165 113.45 167.232 113.515 167.289 113.589C167.351 113.666 167.404 113.75 167.446 113.839C167.49 113.923 167.522 114.012 167.541 114.104C167.562 114.186 167.568 114.27 167.559 114.354C167.553 114.425 167.529 114.494 167.491 114.554C167.459 114.602 167.411 114.638 167.356 114.654C167.296 114.671 167.232 114.671 167.171 114.654C167.118 114.641 167.068 114.62 167.021 114.592C166.999 114.58 166.978 114.567 166.959 114.552C166.882 114.498 166.814 114.433 166.756 114.359C166.696 114.28 166.644 114.194 166.601 114.104Z" fill="#3753E3"/>
    <path fill-rule="evenodd" clip-rule="evenodd" d="M138.824 103.37L140.277 104.406L140.31 108.601L140.41 108.673L140.843 104.808L141.586 105.339L141.11 109.604L139.657 108.568L139.624 104.376L139.524 104.301L139.092 108.168L138.349 107.638L138.824 103.37V103.37Z" fill="#3753E3"/>
    <path fill-rule="evenodd" clip-rule="evenodd" d="M145.648 112.048L145.541 111.973C145.443 111.907 145.393 111.791 145.413 111.675L145.648 109.566L144.938 109.066L144.898 109.431L144.795 109.361C144.747 109.165 144.662 108.979 144.545 108.813C144.416 108.637 144.258 108.484 144.077 108.361C144.031 108.327 143.984 108.296 143.935 108.268C143.831 108.206 143.718 108.161 143.599 108.135C143.461 108.102 143.315 108.114 143.184 108.17C143.051 108.237 142.941 108.344 142.871 108.476C142.775 108.653 142.718 108.85 142.704 109.051L142.691 109.151C142.665 109.391 142.675 109.634 142.719 109.871C142.761 110.106 142.833 110.335 142.932 110.552C143.026 110.76 143.147 110.956 143.289 111.135C143.423 111.303 143.58 111.452 143.754 111.578C143.805 111.613 143.852 111.643 143.9 111.67C144.003 111.735 144.119 111.777 144.24 111.795C144.386 111.812 144.528 111.742 144.603 111.615L144.703 111.688C144.69 111.827 144.72 111.968 144.788 112.09C144.858 112.228 144.961 112.347 145.088 112.436L145.566 112.781L145.648 112.048ZM144.653 109.804C144.76 110.034 144.801 110.29 144.77 110.542V110.617C144.745 110.872 144.66 111.03 144.52 111.09C144.378 111.136 144.221 111.112 144.1 111.025L143.997 110.957C143.792 110.811 143.629 110.612 143.527 110.382C143.421 110.151 143.381 109.896 143.409 109.644V109.571C143.434 109.314 143.519 109.156 143.659 109.096C143.803 109.049 143.96 109.074 144.082 109.164C144.117 109.183 144.15 109.205 144.182 109.229C144.389 109.374 144.551 109.573 144.653 109.804Z" fill="#3753E3"/>
    <path fill-rule="evenodd" clip-rule="evenodd" d="M147.734 109.719L148.445 110.224L148.182 112.578L148.317 112.673L149.185 112.095L149.963 112.648L149.958 112.683L148.903 113.426L148.89 113.536L149.718 115.698L149.713 115.738L148.903 115.157L148.235 113.406L148.1 113.309L147.967 114.492L147.257 113.986L147.734 109.719V109.719Z" fill="#3753E3"/>
    <path fill-rule="evenodd" clip-rule="evenodd" d="M154.236 118.169L154.131 118.091C154.026 118.032 153.97 117.915 153.988 117.796L154.223 115.688L153.513 115.187L153.473 115.552L153.37 115.48C153.321 115.284 153.236 115.098 153.12 114.932C152.989 114.756 152.83 114.603 152.65 114.479C152.606 114.447 152.56 114.418 152.512 114.392C152.407 114.328 152.292 114.281 152.172 114.254C152.034 114.22 151.889 114.234 151.759 114.292C151.625 114.357 151.514 114.463 151.444 114.594C151.349 114.773 151.292 114.97 151.277 115.172V115.27C151.249 115.511 151.257 115.754 151.302 115.993C151.345 116.226 151.416 116.454 151.514 116.671C151.61 116.879 151.73 117.074 151.872 117.253C152.005 117.422 152.162 117.571 152.337 117.696C152.385 117.731 152.432 117.761 152.477 117.789C152.584 117.853 152.702 117.895 152.825 117.914C152.97 117.93 153.111 117.86 153.185 117.734L153.285 117.809C153.273 117.949 153.304 118.089 153.373 118.212C153.443 118.349 153.545 118.467 153.671 118.557L154.156 118.899L154.236 118.169ZM153.24 115.923C153.347 116.153 153.388 116.408 153.36 116.661V116.746C153.335 117.001 153.25 117.161 153.11 117.221C152.966 117.267 152.809 117.241 152.687 117.151C152.653 117.133 152.621 117.112 152.59 117.088C152.383 116.943 152.22 116.744 152.117 116.513C152.008 116.279 151.968 116.019 151.999 115.763V115.69C152.024 115.435 152.11 115.275 152.25 115.215C152.392 115.168 152.549 115.193 152.67 115.282L152.77 115.347C152.975 115.494 153.138 115.692 153.24 115.923Z" fill="#3753E3"/>
    <path fill-rule="evenodd" clip-rule="evenodd" d="M155.722 116.753L156.432 117.253L156.397 117.546L156.5 117.619C156.524 117.533 156.597 117.471 156.685 117.459C156.773 117.453 156.861 117.477 156.935 117.526L157.015 117.579C157.14 117.665 157.244 117.778 157.32 117.909C157.393 118.03 157.442 118.164 157.463 118.304L157.565 118.377C157.604 118.291 157.691 118.237 157.785 118.242C157.883 118.244 157.977 118.273 158.058 118.327C158.091 118.345 158.123 118.366 158.153 118.389C158.341 118.522 158.49 118.704 158.583 118.914C158.68 119.129 158.716 119.366 158.689 119.6L158.438 121.939L157.73 121.438L157.966 119.317C157.977 119.238 157.963 119.157 157.928 119.085C157.895 119.015 157.844 118.954 157.78 118.909L157.74 118.884C157.699 118.853 157.646 118.842 157.595 118.854C157.545 118.874 157.515 118.932 157.505 119.03L157.273 121.113L156.562 120.613L156.8 118.492C156.812 118.406 156.797 118.319 156.757 118.242C156.717 118.173 156.662 118.114 156.595 118.071L156.56 118.051C156.519 118.021 156.466 118.011 156.417 118.024C156.365 118.041 156.335 118.099 156.325 118.194L156.092 120.28L155.382 119.78L155.722 116.753V116.753Z" fill="#3753E3"/>
    <path fill-rule="evenodd" clip-rule="evenodd" d="M162.826 123.412C162.854 123.161 162.839 122.907 162.781 122.662C162.724 122.413 162.636 122.173 162.518 121.946C162.4 121.718 162.256 121.505 162.088 121.311C161.93 121.123 161.749 120.955 161.55 120.811C161.483 120.763 161.418 120.721 161.353 120.683C161.238 120.615 161.115 120.561 160.987 120.523C160.827 120.467 160.653 120.457 160.487 120.495C160.334 120.534 160.2 120.627 160.112 120.758C159.998 120.929 159.931 121.128 159.919 121.333V121.406C159.89 121.657 159.904 121.911 159.962 122.156C160.02 122.405 160.11 122.646 160.229 122.872C160.46 123.319 160.792 123.706 161.198 124.003C161.26 124.047 161.325 124.088 161.393 124.125C161.508 124.194 161.63 124.249 161.758 124.29C161.92 124.342 162.092 124.352 162.258 124.32C162.409 124.284 162.542 124.195 162.633 124.07C162.747 123.896 162.813 123.695 162.826 123.487V123.412ZM162.098 122.497C162.126 122.621 162.133 122.75 162.118 122.877L162.133 122.879L162.121 123.002C162.113 123.108 162.079 123.21 162.023 123.3C161.978 123.366 161.91 123.415 161.833 123.437C161.751 123.46 161.665 123.46 161.583 123.437C161.516 123.417 161.452 123.388 161.393 123.352C161.357 123.333 161.323 123.311 161.29 123.287C161.186 123.215 161.092 123.131 161.007 123.037C160.922 122.936 160.848 122.826 160.787 122.709C160.728 122.593 160.684 122.469 160.657 122.342C160.629 122.217 160.621 122.088 160.635 121.961V121.839C160.643 121.734 160.676 121.633 160.732 121.544C160.777 121.476 160.845 121.427 160.922 121.403C161.004 121.382 161.091 121.382 161.173 121.403C161.24 121.425 161.306 121.454 161.368 121.489C161.401 121.508 161.434 121.53 161.465 121.554C161.569 121.624 161.663 121.708 161.745 121.804C161.831 121.903 161.905 122.012 161.966 122.129C162.024 122.246 162.069 122.369 162.098 122.497Z" fill="#3753E3"/>
    <path fill-rule="evenodd" clip-rule="evenodd" d="M165.435 122.324L166.146 122.824L166.005 124.075L167.006 124.793L166.923 125.523L165.923 124.806L165.77 126.181C165.752 126.297 165.804 126.412 165.903 126.474L166.653 127.012L166.571 127.742L165.388 126.899C165.264 126.81 165.165 126.69 165.1 126.552C165.032 126.42 165.003 126.272 165.015 126.124L165.22 124.308L164.389 123.717L164.472 122.984L165.3 123.575L165.435 122.324V122.324Z" fill="#3753E3"/>
    <path fill-rule="evenodd" clip-rule="evenodd" d="M171.414 129.533C171.442 129.282 171.427 129.029 171.369 128.783C171.31 128.536 171.219 128.298 171.099 128.075C170.981 127.847 170.836 127.634 170.668 127.44C170.509 127.252 170.329 127.084 170.13 126.939C170.068 126.893 170.003 126.851 169.935 126.814C169.821 126.745 169.698 126.69 169.57 126.652C169.409 126.597 169.236 126.588 169.07 126.624C168.919 126.662 168.786 126.75 168.692 126.874C168.58 127.048 168.515 127.246 168.502 127.452V127.525C168.475 127.776 168.49 128.029 168.547 128.275C168.605 128.523 168.695 128.763 168.815 128.988C168.933 129.216 169.078 129.429 169.245 129.623C169.404 129.81 169.585 129.978 169.783 130.124C169.848 130.169 169.913 130.211 169.978 130.249C170.094 130.316 170.218 130.371 170.346 130.411C170.507 130.466 170.68 130.476 170.846 130.439C170.997 130.404 171.131 130.315 171.221 130.189C171.335 130.015 171.401 129.814 171.414 129.606V129.533ZM170.686 128.618C170.714 128.743 170.72 128.871 170.706 128.998L170.693 129.001V129.121C170.688 129.227 170.654 129.33 170.596 129.418C170.552 129.486 170.485 129.535 170.408 129.556C170.326 129.578 170.24 129.578 170.158 129.556C170.09 129.533 170.025 129.504 169.963 129.468C169.929 129.449 169.897 129.428 169.865 129.406C169.762 129.334 169.668 129.25 169.585 129.156C169.5 129.055 169.426 128.945 169.365 128.828C169.305 128.712 169.26 128.588 169.232 128.46C169.204 128.336 169.196 128.207 169.21 128.08L169.225 127.957C169.232 127.852 169.265 127.751 169.322 127.662C169.366 127.594 169.433 127.544 169.51 127.522C169.592 127.5 169.678 127.5 169.76 127.522C169.827 127.543 169.891 127.571 169.95 127.607C169.986 127.627 170.02 127.649 170.053 127.672C170.157 127.744 170.251 127.828 170.336 127.922C170.421 128.023 170.494 128.133 170.553 128.25C170.614 128.366 170.658 128.49 170.686 128.618Z" fill="#3753E3"/>
    <defs>
        <linearGradient id="paint0_linear_17:3820" x1="197" y1="131" x2="94.5907" y2="131" gradientUnits="userSpaceOnUse">
            <stop stop-color="#2240C4"/>
            <stop offset="1" stop-color="#2240C4" stop-opacity="0"/>
        </linearGradient>
        <linearGradient id="paint1_linear_17:3820" x1="194.9" y1="59.3068" x2="118.836" y2="-50.5038" gradientUnits="userSpaceOnUse">
            <stop stop-color="#FDB455"/>
            <stop offset="1" stop-color="#FDB455" stop-opacity="0.01"/>
        </linearGradient>
        <linearGradient id="paint2_linear_17:3820" x1="63.7628" y1="52.747" x2="63.7628" y2="68.987" gradientUnits="userSpaceOnUse">
            <stop stop-color="#FDB455" stop-opacity="0.01"/>
            <stop offset="1" stop-color="#FDB455"/>
        </linearGradient>
        <linearGradient id="paint3_linear_17:3820" x1="284.452" y1="75.959" x2="72.4727" y2="-44.4391" gradientUnits="userSpaceOnUse">
            <stop stop-color="#3753E3"/>
            <stop offset="1" stop-color="#91A1F0"/>
        </linearGradient>
        <linearGradient id="paint4_linear_17:3820" x1="206.078" y1="87.7696" x2="138.622" y2="-12.5489" gradientUnits="userSpaceOnUse">
            <stop stop-color="#2FCF6E"/>
            <stop offset="1" stop-color="#2FCF6E" stop-opacity="0.01"/>
        </linearGradient>
        <linearGradient id="paint5_linear_17:3820" x1="120.36" y1="108.474" x2="104.991" y2="74.1775" gradientUnits="userSpaceOnUse">
            <stop stop-color="#FDB455" stop-opacity="0.01"/>
            <stop offset="1" stop-color="#FDB455"/>
        </linearGradient>
        <linearGradient id="paint6_linear_17:3820" x1="128.45" y1="104.85" x2="113.078" y2="70.551" gradientUnits="userSpaceOnUse">
            <stop stop-color="#FDB455" stop-opacity="0.01"/>
            <stop offset="1" stop-color="#FDB455"/>
        </linearGradient>
        <linearGradient id="paint7_linear_17:3820" x1="128.524" y1="104.817" x2="113.152" y2="70.519" gradientUnits="userSpaceOnUse">
            <stop stop-color="#FDB455" stop-opacity="0.01"/>
            <stop offset="1" stop-color="#FDB455"/>
        </linearGradient>
        <linearGradient id="paint8_linear_17:3820" x1="121.756" y1="107.847" x2="106.387" y2="73.5525" gradientUnits="userSpaceOnUse">
            <stop stop-color="#FDB455" stop-opacity="0.01"/>
            <stop offset="1" stop-color="#FDB455"/>
        </linearGradient>
        <linearGradient id="paint9_linear_17:3820" x1="129.957" y1="104.176" x2="114.588" y2="69.8775" gradientUnits="userSpaceOnUse">
            <stop stop-color="#FDB455" stop-opacity="0.01"/>
            <stop offset="1" stop-color="#FDB455"/>
        </linearGradient>
        <linearGradient id="paint10_linear_17:3820" x1="130.549" y1="103.909" x2="115.18" y2="69.6125" gradientUnits="userSpaceOnUse">
            <stop stop-color="#FDB455" stop-opacity="0.01"/>
            <stop offset="1" stop-color="#FDB455"/>
        </linearGradient>
        <linearGradient id="paint11_linear_17:3820" x1="130.71" y1="103.838" x2="115.341" y2="69.5395" gradientUnits="userSpaceOnUse">
            <stop stop-color="#FDB455" stop-opacity="0.01"/>
            <stop offset="1" stop-color="#FDB455"/>
        </linearGradient>
        <linearGradient id="paint12_linear_17:3820" x1="200.123" y1="50.8219" x2="143.619" y2="-46.4665" gradientUnits="userSpaceOnUse">
            <stop stop-color="#6B71D6"/>
            <stop offset="1" stop-color="#6B71D6" stop-opacity="0.01"/>
        </linearGradient>
        <linearGradient id="paint13_linear_17:3820" x1="106.344" y1="54.964" x2="94.7345" y2="29.059" gradientUnits="userSpaceOnUse">
            <stop stop-color="#FDB455" stop-opacity="0.01"/>
            <stop offset="1" stop-color="#FDB455"/>
        </linearGradient>
        <linearGradient id="paint14_linear_17:3820" x1="112.453" y1="52.227" x2="100.841" y2="26.321" gradientUnits="userSpaceOnUse">
            <stop stop-color="#FDB455" stop-opacity="0.01"/>
            <stop offset="1" stop-color="#FDB455"/>
        </linearGradient>
        <linearGradient id="paint15_linear_17:3820" x1="112.51" y1="52.2035" x2="100.901" y2="26.2945" gradientUnits="userSpaceOnUse">
            <stop stop-color="#FDB455" stop-opacity="0.01"/>
            <stop offset="1" stop-color="#FDB455"/>
        </linearGradient>
        <linearGradient id="paint16_linear_17:3820" x1="113.592" y1="51.7175" x2="101.983" y2="25.8095" gradientUnits="userSpaceOnUse">
            <stop stop-color="#FDB455" stop-opacity="0.01"/>
            <stop offset="1" stop-color="#FDB455"/>
        </linearGradient>
        <linearGradient id="paint17_linear_17:3820" x1="114.04" y1="51.5175" x2="102.431" y2="25.6095" gradientUnits="userSpaceOnUse">
            <stop stop-color="#FDB455" stop-opacity="0.01"/>
            <stop offset="1" stop-color="#FDB455"/>
        </linearGradient>
        <linearGradient id="paint18_linear_17:3820" x1="114.163" y1="51.462" x2="102.553" y2="25.554" gradientUnits="userSpaceOnUse">
            <stop stop-color="#FDB455" stop-opacity="0.01"/>
            <stop offset="1" stop-color="#FDB455"/>
        </linearGradient>
    </defs>
</svg>
