<svg width="9" height="21" viewBox="0 0 9 21" fill="none" xmlns="http://www.w3.org/2000/svg">
<path fill-rule="evenodd" clip-rule="evenodd" d="M4.80223 0.805603L4.79692 0.805615L4.79275 0.805603C4.7812 0.805603 4.7697 0.80587 4.75828 0.806399C4.12091 0.829525 3.6113 1.35352 3.6113 1.99653L3.6113 3.65842C2.7443 3.82869 2.03432 4.20006 1.48137 4.77254C0.841615 5.435 0.521739 6.29936 0.521739 7.3656C0.521739 8.15425 0.68323 8.81355 1.00621 9.34352C1.3354 9.87349 1.79503 10.3183 2.38509 10.6779C2.97516 11.0375 3.67081 11.3593 4.47205 11.6432C5.28571 11.9334 5.85714 12.252 6.18634 12.599C6.51553 12.946 6.68012 13.3908 6.68012 13.9334C6.68012 14.4886 6.5 14.9397 6.13975 15.2867C5.7795 15.6337 5.25776 15.8072 4.57453 15.8072C4.20807 15.8072 3.85093 15.7347 3.50311 15.5896C3.15528 15.4382 2.86957 15.1826 2.64596 14.823C2.42236 14.4571 2.31056 13.9524 2.31056 13.3088H0C0 14.2994 0.186335 15.1038 0.559006 15.7221C0.931677 16.3404 1.41304 16.8072 2.00311 17.1227C2.51151 17.3891 3.04757 17.5664 3.6113 17.6548L3.6113 19.0035C3.6113 19.3705 3.77735 19.6988 4.03842 19.9173C4.17198 20.0861 4.37865 20.1944 4.61063 20.1944C4.639 20.1944 4.667 20.1928 4.69453 20.1896C4.73 20.1928 4.76593 20.1944 4.80223 20.1944C5.45997 20.1944 5.99316 19.6612 5.99316 19.0035V17.584C6.80457 17.4034 7.47455 17.0572 8.00311 16.5454C8.6677 15.8956 9 15.0186 9 13.9145C9 13.1259 8.83851 12.4697 8.51553 11.946C8.19876 11.4224 7.74534 10.9807 7.15528 10.6211C6.57143 10.2552 5.87888 9.92396 5.07764 9.62743C4.2205 9.31198 3.63043 8.98705 3.30745 8.65267C2.99068 8.31828 2.8323 7.88611 2.8323 7.35614C2.8323 6.81355 2.98137 6.3656 3.2795 6.01229C3.58385 5.65267 4.05901 5.47286 4.70497 5.47286C5.30745 5.47286 5.7795 5.69683 6.12112 6.14478C6.46894 6.59273 6.64286 7.21103 6.64286 7.99967H8.9441C8.9441 6.73153 8.63665 5.72207 8.02174 4.97128C7.50604 4.32986 6.82985 3.9058 5.99316 3.69912V1.99653C5.99316 1.3388 5.45997 0.805603 4.80223 0.805603Z" fill="#2240C4"/>
</svg>
