<svg width="13" height="17" viewBox="0 0 13 17" fill="none" xmlns="http://www.w3.org/2000/svg">
<path fill-rule="evenodd" clip-rule="evenodd" d="M7.86536 12.7592L10.4752 10.1493C10.9423 9.68222 11.6997 9.68222 12.1668 10.1493C12.6339 10.6164 12.6339 11.3738 12.1668 11.8409L7.52223 16.4855C7.49556 16.5126 7.46761 16.5385 7.43848 16.5629C7.35839 16.6304 7.27154 16.6856 7.18038 16.7287C7.02539 16.802 6.8521 16.8431 6.66924 16.8431C6.49542 16.8431 6.33026 16.806 6.18124 16.7393C6.0654 16.6876 5.95609 16.6166 5.85822 16.5261C5.84522 16.5142 5.8325 16.5019 5.82004 16.4893L1.17162 11.8409C0.704511 11.3738 0.704511 10.6164 1.17162 10.1493C1.63874 9.68222 2.39608 9.68222 2.86319 10.1493L5.47312 12.7593V1.69154C5.47312 1.03094 6.00864 0.495422 6.66924 0.495422C7.32984 0.495422 7.86535 1.03094 7.86536 1.69154V12.7592Z" fill="#2240C4"/>
</svg>
