<svg width="13" height="17" viewBox="0 0 13 17" fill="none" xmlns="http://www.w3.org/2000/svg">
<path fill-rule="evenodd" clip-rule="evenodd" d="M5.47327 4.57932L2.86339 7.1892C2.39627 7.65631 1.63893 7.65631 1.17182 7.1892C0.704706 6.72209 0.704706 5.96475 1.17182 5.49763L5.81631 0.853139C5.84375 0.825228 5.87254 0.798659 5.90259 0.773535C5.98103 0.707867 6.0659 0.653832 6.15494 0.611428C6.31077 0.537076 6.48522 0.495453 6.66938 0.495453C6.8432 0.495453 7.00836 0.532528 7.15738 0.599202C7.27322 0.650919 7.38253 0.721983 7.4804 0.812388C7.4934 0.824381 7.50613 0.836661 7.51858 0.849213L12.167 5.49763C12.6341 5.96475 12.6341 6.72208 12.167 7.1892C11.6999 7.65631 10.9425 7.65631 10.4754 7.1892L7.8655 4.57927L7.8655 15.647C7.8655 16.3076 7.32998 16.8431 6.66938 16.8431C6.00879 16.8431 5.47327 16.3076 5.47327 15.647L5.47327 4.57932Z" fill="#2240C4"/>
</svg>
