<svg width="21" height="21" viewBox="0 0 21 21" fill="none" xmlns="http://www.w3.org/2000/svg">
<path d="M0.989399 10L0.989401 9.99335L0.989258 9.97468L0.989538 9.94858C1.00119 7.7932 1.74472 5.70511 3.09907 4.02705C4.4642 2.33564 6.36752 1.16289 8.49211 0.704062C10.6167 0.245236 12.8344 0.528027 14.7758 1.50535C15.8658 2.05401 16.8317 2.80298 17.6281 3.70473V2.84084C17.6281 2.1831 18.1613 1.64991 18.819 1.64991C19.4767 1.64991 20.0099 2.1831 20.0099 2.84084V6.64198C20.0099 7.0124 19.8408 7.34331 19.5756 7.56174C19.4287 7.68268 19.2524 7.76914 19.059 7.80871C18.9815 7.82457 18.9012 7.83291 18.819 7.83291L15.0178 7.83291C14.3601 7.83291 13.8269 7.29971 13.8269 6.64198C13.8269 5.98425 14.3601 5.45105 15.0178 5.45105H15.9741C15.3528 4.70334 14.5804 4.08554 13.7001 3.64236C12.247 2.91091 10.5873 2.69926 8.99715 3.04266C7.40705 3.38606 5.98255 4.26378 4.96085 5.52967C3.93915 6.79557 3.38191 8.37325 3.38191 10H3.3744C3.36091 10.647 2.8322 11.1674 2.18196 11.1674C1.53172 11.1674 1.00288 10.647 0.989399 10Z" fill="#2240C4"/>
<path d="M2.18031 13.1404L2.1925 13.1404H5.98148C6.63921 13.1404 7.17241 13.6736 7.17241 14.3314C7.17241 14.9891 6.63921 15.5223 5.98148 15.5223H5.00301C5.62808 16.282 6.40826 16.9092 7.29911 17.3577C8.75215 18.0891 10.4119 18.3008 12.002 17.9574C13.5921 17.614 15.0166 16.7363 16.0383 15.4704C17.06 14.2045 17.6173 12.6268 17.6173 11H17.6248C17.6382 10.353 18.167 9.83261 18.8172 9.83261C19.4675 9.83261 19.9962 10.353 20.0097 11L20.0098 11.0066L20.0099 11.0253L20.0096 11.0514C19.998 13.2068 19.2545 15.2949 17.9001 16.973C16.535 18.6644 14.6317 19.8372 12.5071 20.296C10.3825 20.7548 8.16481 20.472 6.22335 19.4947C5.13349 18.9461 4.16759 18.1972 3.37124 17.2955V18.1324C3.37124 18.7902 2.83805 19.3234 2.18031 19.3234C1.52258 19.3234 0.989384 18.7902 0.989384 18.1324L0.989384 14.3313C0.989384 13.6736 1.52258 13.1404 2.18031 13.1404Z" fill="#2240C4"/>
</svg>
