<svg width="106" height="168" viewBox="0 0 106 168" fill="none" xmlns="http://www.w3.org/2000/svg">
	<path d="M20.4489 0.878707C21.6205 -0.292881 23.52 -0.292906 24.6916 0.878652L43.7837 19.9703C44.9553 21.1418 44.9553 23.0413 43.7838 24.2129C42.6122 25.3845 40.7127 25.3845 39.5411 24.213L22.5703 7.24264L5.6 24.2134C4.42844 25.385 2.52895 25.385 1.35735 24.2135C0.185768 23.0419 0.185745 21.1424 1.3573 19.9708L20.4489 0.878707ZM25.5703 2.99996C25.5706 27.2928 30.7716 42.893 38.2595 54.2957C45.8068 65.7888 55.8128 73.2673 66.1487 81.2185C76.3934 89.0996 86.9262 97.4256 94.4118 110.458C101.93 123.548 106.215 141.07 104.757 167.167L98.7665 166.833C100.179 141.558 96.0003 125.27 89.209 113.446C82.3846 101.565 72.7609 93.8752 62.4903 85.9742C52.3107 78.1432 41.4425 70.0736 33.2442 57.5891C24.9865 45.0141 19.5706 28.2072 19.5703 3.00004L25.5703 2.99996Z" fill="white"/>
</svg>
