
<svg width="375" height="344" viewBox="0 0 375 344" fill="none" xmlns="http://www.w3.org/2000/svg">
    <path fill-rule="evenodd" clip-rule="evenodd" d="M184.44 69.6208C191.286 54.0735 193.718 33.3743 187.121 1.61007L192.996 0.389954C199.76 32.9581 197.429 55.0106 189.931 72.0388C182.603 88.6806 170.464 100.167 158.265 111.71C158.054 111.91 157.842 112.11 157.631 112.31C145.138 124.134 132.511 136.236 123.526 154.444C115.173 171.372 109.868 193.807 111.206 226.466L124.104 211.683C125.193 210.434 127.088 210.305 128.337 211.394C129.585 212.484 129.714 214.379 128.625 215.627L110.875 235.972C109.785 237.221 107.89 237.35 106.642 236.261L86.2966 218.51C85.0482 217.421 84.9191 215.526 86.0083 214.277C87.0976 213.029 88.9927 212.9 90.2412 213.989L105.225 227.062C103.804 193.43 109.229 169.859 118.146 151.789C127.659 132.51 141.036 119.755 153.507 107.952L153.795 107.68C166.235 95.9056 177.604 85.1465 184.44 69.6208Z" fill="white"/>
    <rect y="274" width="375" height="69.7464" fill="white"/>
    <path d="M58.6212 306.813L47.6212 298.661C47.2529 298.388 46.7234 298.388 46.3552 298.661L35.3552 306.813C34.9376 307.132 34.8801 307.696 35.2259 308.079C35.5718 308.462 36.193 308.523 36.6212 308.215L37.9882 307.203V317.478C37.9882 317.978 38.4359 318.384 38.9882 318.384H44.9882V312.949H48.9882V318.384H54.9882C55.5404 318.384 55.9882 317.978 55.9882 317.478V307.203L57.3552 308.215C57.631 308.426 58.0109 308.486 58.3491 308.372C58.6873 308.258 58.9314 307.988 58.9878 307.665C59.0441 307.342 58.904 307.016 58.6212 306.813Z" fill="#C2C7D3"/>
    <path d="M122.107 311.129L111.761 300.784C111.663 300.686 111.53 300.631 111.392 300.631H102.522C102.383 300.631 102.251 300.686 102.153 300.783C102.055 300.881 102 301.014 102 301.152V310.023C102 310.161 102.055 310.294 102.153 310.391L112.499 320.737C112.988 321.226 113.652 321.5 114.343 321.5C115.035 321.5 115.698 321.226 116.188 320.737L122.107 314.819C122.595 314.329 122.869 313.666 122.869 312.974C122.869 312.282 122.595 311.619 122.107 311.129ZM107.74 308.457C107.327 308.457 106.923 308.335 106.58 308.106C106.237 307.876 105.969 307.55 105.811 307.169C105.653 306.788 105.612 306.368 105.693 305.963C105.773 305.558 105.972 305.186 106.264 304.894C106.556 304.602 106.927 304.404 107.332 304.323C107.737 304.243 108.157 304.284 108.538 304.442C108.92 304.6 109.246 304.867 109.475 305.211C109.704 305.554 109.827 305.957 109.827 306.37C109.827 306.924 109.607 307.455 109.215 307.846C108.824 308.237 108.293 308.457 107.74 308.457Z" fill="#4F6EF7"/>
    <path d="M111.392 299.587C111.598 299.586 111.801 299.627 111.991 299.705C112.181 299.784 112.354 299.9 112.499 300.046L122.475 310.023L124.041 308.457L113.542 297.958C113.249 297.665 112.851 297.5 112.435 297.5H104.609C104.47 297.5 104.338 297.555 104.24 297.653C104.142 297.751 104.087 297.883 104.087 298.022V299.587H111.392Z" fill="#4F6EF7"/>
    <path fill-rule="evenodd" clip-rule="evenodd" d="M333.5 309.663C333.497 310.044 333.462 310.425 333.393 310.801L335.143 312.388C335.418 312.637 335.476 313.031 335.285 313.342L334.035 315.378C333.886 315.62 333.611 315.769 333.313 315.769C333.235 315.769 333.158 315.759 333.083 315.739L330.75 315.113C330.119 315.596 329.409 315.98 328.648 316.249L328.058 318.465C327.966 318.813 327.633 319.058 327.25 319.058H324.75C324.369 319.057 324.037 318.813 323.944 318.465L323.355 316.25C322.592 315.981 321.881 315.597 321.249 315.114L318.916 315.74C318.841 315.76 318.764 315.77 318.687 315.77C318.389 315.77 318.113 315.621 317.964 315.378L316.714 313.343C316.523 313.032 316.582 312.639 316.857 312.389L318.607 310.801C318.539 310.425 318.503 310.044 318.5 309.663C318.503 309.282 318.539 308.902 318.607 308.526L316.857 306.938C316.582 306.688 316.523 306.295 316.714 305.983L317.964 303.948C318.158 303.638 318.549 303.49 318.917 303.587L321.25 304.213C321.881 303.73 322.591 303.346 323.353 303.077L323.942 300.862C324.034 300.513 324.368 300.268 324.75 300.268H327.25C327.633 300.268 327.966 300.513 328.058 300.862L328.644 303.077C329.407 303.346 330.118 303.73 330.75 304.213L333.083 303.587C333.451 303.49 333.843 303.638 334.036 303.948L335.286 305.983C335.477 306.294 335.418 306.687 335.143 306.937L333.393 308.526C333.462 308.901 333.497 309.282 333.5 309.663ZM322.667 309.663C322.667 311.393 324.159 312.795 326 312.795C326.884 312.795 327.732 312.465 328.357 311.878C328.982 311.29 329.333 310.494 329.333 309.663C329.333 307.934 327.841 306.531 326 306.531C324.159 306.531 322.667 307.934 322.667 309.663Z" fill="#C2C7D3"/>
    <path fill-rule="evenodd" clip-rule="evenodd" d="M267 298H251V322H267C268.654 322 270 320.654 270 319V301C270 299.346 268.654 298 267 298ZM260.5 304C261.881 304 263 305.119 263 306.5C263 307.881 261.881 309 260.5 309C259.119 309 258 307.881 258 306.5C258 305.119 259.119 304 260.5 304ZM256 313.379V315H265V313.379C265 312.488 264.415 311.709 263.56 311.457C262.765 311.222 261.697 311 260.5 311C259.303 311 258.235 311.222 257.44 311.457C256.585 311.709 256 312.488 256 313.379ZM271 302H274V307H271V302ZM274 309H271V314H274V309Z" fill="#C2C7D3"/>
    <rect x="167" y="291.21" width="36.2319" height="36.2319" rx="18.1159" fill="#2240C4"/>
    <path fill-rule="evenodd" clip-rule="evenodd" d="M185.461 305.221L179.44 311.242C179.081 311.601 178.498 311.601 178.139 311.242C177.78 310.883 177.78 310.3 178.139 309.941L184.16 303.92H181.32C180.812 303.92 180.4 303.508 180.4 303C180.4 302.492 180.812 302.08 181.32 302.08H186.381C186.506 302.08 186.625 302.105 186.733 302.15C186.842 302.194 186.944 302.261 187.032 302.349C187.198 302.516 187.301 302.746 187.301 303V308.061C187.301 308.569 186.889 308.981 186.381 308.981C185.873 308.981 185.461 308.569 185.461 308.061V305.221ZM186.072 314.732H188.912C189.42 314.732 189.832 315.144 189.832 315.652C189.832 316.16 189.42 316.572 188.912 316.572H183.851C183.598 316.572 183.368 316.47 183.202 316.305C183.201 316.304 183.199 316.302 183.198 316.301C183.111 316.213 183.045 316.112 183 316.005C182.955 315.896 182.931 315.777 182.931 315.652V310.591C182.931 310.083 183.343 309.671 183.851 309.671C184.359 309.671 184.771 310.083 184.771 310.591V313.431L190.792 307.41C191.151 307.051 191.734 307.051 192.093 307.41C192.452 307.77 192.452 308.352 192.093 308.712L186.072 314.732Z" fill="white"/>
</svg>
