<svg width="13" height="16" viewBox="0 0 13 16" fill="none" xmlns="http://www.w3.org/2000/svg">
    <path fill-rule="evenodd" clip-rule="evenodd" d="M4 6.34264H12.125C12.4702 6.34264 12.75 6.62246 12.75 6.96764V14.4676C12.75 14.8128 12.4702 15.0926 12.125 15.0926H0.875C0.529822 15.0926 0.25 14.8128 0.25 14.4676V6.96764C0.25 6.62246 0.529822 6.34264 0.875 6.34264H2.75V3.78014C2.75658 2.79223 3.15665 1.8477 3.86164 1.15561C4.56663 0.463524 5.51839 0.0809717 6.50625 0.0926358H6.5625C8.61734 0.11325 10.2673 1.79401 10.25 3.84889L9 3.83639C9.01215 2.4736 7.919 1.35809 6.55625 1.34264H6.47437C5.11941 1.34186 4.01609 2.43151 4 3.78639V6.34264ZM5.25 10.7176C5.25 11.408 5.80964 11.9676 6.5 11.9676C7.19036 11.9676 7.75 11.408 7.75 10.7176C7.75 10.0273 7.19036 9.46763 6.5 9.46763C5.80964 9.46763 5.25 10.0273 5.25 10.7176Z" fill="#2240C4"/>
</svg>
