<svg width="16" height="16" viewBox="0 0 16 16" fill="none" xmlns="http://www.w3.org/2000/svg">
    <path fill-rule="evenodd" clip-rule="evenodd" d="M8 4.53235C9.03553 4.53235 9.875 3.69288 9.875 2.65735C9.875 1.62181 9.03553 0.782349 8 0.782349C6.96447 0.782349 6.125 1.62181 6.125 2.65735C6.125 3.69288 6.96447 4.53235 8 4.53235ZM4.25 13.9073C4.25 14.9429 3.41053 15.7823 2.375 15.7823C1.33947 15.7823 0.5 14.9429 0.5 13.9073C0.5 12.8718 1.33947 12.0323 2.375 12.0323C3.41053 12.0323 4.25 12.8718 4.25 13.9073ZM15.5 13.9073C15.5 14.9429 14.6605 15.7823 13.625 15.7823C12.5895 15.7823 11.75 14.9429 11.75 13.9073C11.75 12.8718 12.5895 12.0323 13.625 12.0323C14.6605 12.0323 15.5 12.8718 15.5 13.9073ZM4.25 2.65735C4.25 3.69288 3.41053 4.53235 2.375 4.53235C1.33947 4.53235 0.5 3.69288 0.5 2.65735C0.5 1.62181 1.33947 0.782349 2.375 0.782349C3.41053 0.782349 4.25 1.62181 4.25 2.65735ZM13.625 4.53235C14.6605 4.53235 15.5 3.69288 15.5 2.65735C15.5 1.62181 14.6605 0.782349 13.625 0.782349C12.5895 0.782349 11.75 1.62181 11.75 2.65735C11.75 3.69288 12.5895 4.53235 13.625 4.53235ZM9.875 8.28235C9.875 9.31788 9.03553 10.1573 8 10.1573C6.96447 10.1573 6.125 9.31788 6.125 8.28235C6.125 7.24681 6.96447 6.40735 8 6.40735C9.03553 6.40735 9.875 7.24681 9.875 8.28235ZM2.375 10.1573C3.41053 10.1573 4.25 9.31788 4.25 8.28235C4.25 7.24681 3.41053 6.40735 2.375 6.40735C1.33947 6.40735 0.5 7.24681 0.5 8.28235C0.5 9.31788 1.33947 10.1573 2.375 10.1573ZM15.5 8.28235C15.5 9.31788 14.6605 10.1573 13.625 10.1573C12.5895 10.1573 11.75 9.31788 11.75 8.28235C11.75 7.24681 12.5895 6.40735 13.625 6.40735C14.6605 6.40735 15.5 7.24681 15.5 8.28235ZM8 15.7823C9.03553 15.7823 9.875 14.9429 9.875 13.9073C9.875 12.8718 9.03553 12.0323 8 12.0323C6.96447 12.0323 6.125 12.8718 6.125 13.9073C6.125 14.9429 6.96447 15.7823 8 15.7823Z" fill="#2240C4"/>
</svg>
