<svg width="15" height="15" viewBox="0 0 15 15" fill="none" xmlns="http://www.w3.org/2000/svg">
    <path fill-rule="evenodd" clip-rule="evenodd" d="M7.5 2.29167V0.833333C7.5 0.718274 7.63991 0.625 7.8125 0.625C7.98509 0.625 8.125 0.718274 8.125 0.833333V2.29167C8.125 2.40673 7.98509 2.5 7.8125 2.5C7.63991 2.5 7.5 2.40673 7.5 2.29167ZM8.05556 6.46277V14.1489C8.05556 14.2738 7.94674 14.375 7.8125 14.375C7.67826 14.375 7.56944 14.2738 7.56944 14.1489V6.46277H5.86806C5.73382 6.46277 5.625 6.36155 5.625 6.2367V3.97606C5.625 3.85121 5.73382 3.75 5.86806 3.75H9.75694C9.89118 3.75 10 3.85121 10 3.97606V6.2367C10 6.36155 9.89118 6.46277 9.75694 6.46277H8.05556ZM3.68056 14.15V11.45H5.38194C5.51618 11.45 5.625 11.3493 5.625 11.225V8.975C5.625 8.85074 5.51618 8.75 5.38194 8.75H1.49306C1.35882 8.75 1.25 8.85074 1.25 8.975V11.225C1.25 11.3493 1.35882 11.45 1.49306 11.45H3.19444V14.15C3.19444 14.2743 3.30326 14.375 3.4375 14.375C3.57174 14.375 3.68056 14.2743 3.68056 14.15ZM3.75 0.846774V7.27823C3.75 7.40071 3.61009 7.5 3.4375 7.5C3.26491 7.5 3.125 7.40071 3.125 7.27823V0.846774C3.125 0.724292 3.26491 0.625 3.4375 0.625C3.61009 0.625 3.75 0.724292 3.75 0.846774ZM11.875 0.846774V7.27823C11.875 7.40071 12.0149 7.5 12.1875 7.5C12.3601 7.5 12.5 7.40071 12.5 7.27823V0.846774C12.5 0.724292 12.3601 0.625 12.1875 0.625C12.0149 0.625 11.875 0.724292 11.875 0.846774ZM10 11.225V8.975C10 8.85074 10.1088 8.75 10.2431 8.75H14.1319C14.2662 8.75 14.375 8.85074 14.375 8.975V11.225C14.375 11.3493 14.2662 11.45 14.1319 11.45H12.4306V14.15C12.4306 14.2743 12.3217 14.375 12.1875 14.375C12.0533 14.375 11.9444 14.2743 11.9444 14.15V11.45H10.2431C10.1088 11.45 10 11.3493 10 11.225Z" fill="#2240C4"/>
</svg>
