<svg width="292" height="248" viewBox="0 0 292 248" fill="none" xmlns="http://www.w3.org/2000/svg">
  <path transform="translate(-22, -22)" opacity="0.15" fill-rule="evenodd" clip-rule="evenodd" d="M34.7904 246.98V247.813L34.7503 247.843V247.983H131.336C142.268 248.134 153.16 247.261 163.902 245.334C175.215 243.116 186.237 239.623 196.748 234.886C201.306 232.772 205.679 230.217 210.09 227.639C211.207 226.986 212.327 226.332 213.452 225.683C218.643 221.98 223.613 217.965 228.342 213.7C241.288 201.978 251.309 187.355 257.571 171.046C257.992 169.22 259.776 168.045 261.61 168.397H287.913C290.007 168.397 290.698 167.694 290.698 165.326V148.455C290.839 146.839 290.839 145.203 290.698 143.587C290.698 143.165 290.807 142.744 290.915 142.324C291.131 141.485 291.346 140.649 290.698 139.814H268.724C266.069 139.814 266.069 139.533 266.069 137.164C266.83 128.674 266.83 120.153 266.069 111.662C265.928 109.153 266.489 109.153 268.433 109.153H287.642C289.877 109.153 290.709 108.591 290.709 106.363V83.5008C290.568 80.4298 290.568 80.4298 287.372 80.4298H262.461C260.517 80.761 258.654 79.4462 258.303 77.4992C255.447 70.0223 251.81 62.8665 247.431 56.1724C243.022 49.5686 238.052 43.3662 232.541 37.6356C225.216 30.3092 216.989 23.9463 208.051 18.6773C194.574 10.839 179.834 5.34927 164.493 2.50904C157.048 1.13409 149.523 0.301085 141.947 0H37.5761C34.7904 0 34.7904 0.562025 34.7904 2.79005V77.9207C34.7904 80.5703 34.2293 80.5703 32.1451 80.5703H2.2245C0 80.5703 0 80.9818 0 82.5173V107.046C0 109.274 0.6914 109.274 2.36479 109.274H32.5659C34.7904 109.274 34.7904 109.685 34.7904 111.361V137.566C34.7904 139.934 34.089 139.934 32.2854 139.934H0V166.42C0 168.648 0.6914 168.648 2.36479 168.648H32.5659C34.7904 168.648 34.7904 168.919 34.7904 170.735V203.493V214.503V246.98ZM226.99 78.1819C227.231 78.8042 227.231 79.4967 226.99 80.129H227.661C227.381 80.962 225.988 81.243 225.988 81.243H65.3929C62.7476 81.243 62.7476 80.6809 62.7476 78.5934V29.1152C62.7476 27.2986 63.0281 26.4656 65.1123 26.4656H139.844C147.8 26.3954 155.736 27.2284 163.501 28.9747C178.893 32.6278 193.212 39.894 205.256 50.161C207.661 51.9575 209.805 54.0751 211.659 56.4336C215.587 60.3376 219.034 64.6833 221.96 69.4003C223.904 72.1602 225.577 75.1008 226.99 78.1819ZM233.654 139.782H149.043H66.0947C64.4034 139.782 63.5693 139.782 63.1581 139.365C62.758 138.959 62.758 138.159 62.758 136.58V111.771C62.758 109.814 63.3191 109.121 65.4033 109.121H233.794C235.608 109.121 236.44 109.814 236.44 111.49C237.131 120.121 237.131 128.792 236.44 137.413C236.309 139.782 235.458 139.782 233.654 139.782ZM226.99 168.779C224.626 168.519 222.241 168.519 219.876 168.779H65.5436C63.4594 168.779 62.758 168.779 62.758 171.57V219.944C62.758 222.172 62.758 222.734 65.5436 222.734H136.798C140.205 222.995 143.612 222.754 146.948 222.041C157.289 221.299 167.46 219.051 177.16 215.347C180.687 214.123 184.094 212.527 187.31 210.61H188.282C204.986 201.909 218.553 188.24 227.111 171.459C227.111 171.459 228.083 169.352 226.99 168.8V168.779Z" fill="#FEFEFD"/>
</svg>
