<svg width="232" height="266" viewBox="0 0 232 266" fill="none" xmlns="http://www.w3.org/2000/svg">
  <g opacity="0.2944" transform="translate(10, -50)">
    <path fill-rule="evenodd" clip-rule="evenodd" d="M187.864 156.549C188.704 157.317 189.592 158.086 190.408 158.854C191.224 159.622 192.062 160.392 192.902 161.16L195.398 163.535C195.806 163.944 196.238 164.303 196.646 164.713C197.054 165.073 197.534 165.481 197.942 165.842C201.254 168.989 204.585 172.135 207.851 175.283C204.468 172.184 201.156 169.108 197.772 165.963L196.597 164.785C196.189 164.378 195.757 164.017 195.349 163.608L192.855 161.302C192.015 160.534 191.199 159.765 190.359 158.927C189.519 158.09 188.703 157.318 187.863 156.552L187.864 156.549ZM231.822 157.024C231.822 157.024 219.777 155.776 213.898 154.935C208.452 154.165 191.415 151.548 191.415 151.548L231.822 157.024ZM231.822 157.024C228.439 156.736 225.056 156.376 221.672 156.015C219.945 155.847 218.289 155.656 216.633 155.488L214.091 155.198C213.251 155.079 212.435 154.959 211.595 154.839L201.516 153.23L196.479 152.389C194.823 152.101 193.166 151.787 191.439 151.499C193.095 151.667 194.823 151.908 196.479 152.148L201.516 152.869L211.595 154.357C212.435 154.478 213.251 154.647 214.091 154.766L216.634 155.059C218.291 155.227 220.018 155.467 221.674 155.661C225.057 156.068 228.44 156.501 231.824 157.029L231.822 157.024ZM192.614 148.406C192.614 148.406 205.475 145.138 209.819 143.889C214.089 142.712 227.023 138.772 227.023 138.772L192.616 148.405L192.614 148.406Z" fill="#CFB66C"/>
    <path fill-rule="evenodd" clip-rule="evenodd" d="M192.616 148.407C195.471 147.566 198.31 146.749 201.206 145.979L209.797 143.674C212.652 142.833 215.491 142.016 218.338 141.175L222.609 139.998C224.024 139.59 225.464 139.23 226.927 138.82C225.513 139.295 224.072 139.781 222.656 140.19L218.385 141.558C215.53 142.448 212.691 143.289 209.844 144.177C206.942 144.898 204.085 145.667 201.183 146.364C198.424 147.061 195.52 147.756 192.616 148.405V148.405V148.407ZM225.223 130.846C223.809 131.375 207.492 138.988 203.7 140.766C201.802 141.656 196.285 143.617 196.285 143.617L225.223 130.846Z" fill="#CFB66C"/>
    <path fill-rule="evenodd" clip-rule="evenodd" d="M225.223 130.845C223.977 131.32 222.8 131.901 221.601 132.454L218.05 134.112L210.923 137.547C208.55 138.676 206.244 139.922 203.797 140.983C202.549 141.51 201.301 141.942 200.055 142.351L198.157 142.951C197.51 143.119 196.909 143.312 196.259 143.48C198.631 142.351 201.129 141.39 203.505 140.286C205.877 139.108 208.304 138.147 210.752 137.091L217.998 133.897C220.431 132.91 222.803 131.854 225.225 130.845V130.845H225.223ZM223.642 124.194C223.642 124.194 208.862 132.866 203.775 135.653C201.112 137.141 192.497 141.418 192.497 141.418L223.642 124.194Z" fill="#CFB66C"/>
    <path fill-rule="evenodd" clip-rule="evenodd" d="M223.64 124.191C221.146 125.729 218.602 127.29 216.059 128.875L212.263 131.182C210.967 131.95 209.719 132.671 208.398 133.439C207.103 134.208 205.855 134.976 204.536 135.697C203.908 136.085 203.25 136.422 202.568 136.706L200.553 137.714C197.889 139.011 195.226 140.333 192.418 141.462C194.962 139.852 197.578 138.482 200.192 137.067C201.488 136.346 202.809 135.697 204.104 134.976C205.399 134.256 206.647 133.486 207.968 132.79C209.264 132.022 210.512 131.301 211.831 130.604L215.742 128.467L223.637 124.191V124.191H223.64ZM192.616 139.518C192.616 139.518 201.806 132.456 204.781 130.198C207.756 127.94 216.514 121.598 216.514 121.598L192.616 139.518V139.518Z" fill="#CFB66C"/>
    <path fill-rule="evenodd" clip-rule="evenodd" d="M139.875 82.5628L144.577 91.4748L141.842 102.621L122.335 110.163L130.637 127.218L126.534 144.441L118.831 159.865L95.0282 163.611L77.5375 180.306L39.7691 177.448L32.3556 137.02L46.6322 86.1178L54.7654 59.7651L87.7348 58.5157L103.043 69.1331L120.967 76.6294L139.875 82.5628V82.5628Z" fill="#E2CC85"/>
    <path fill-rule="evenodd" clip-rule="evenodd" d="M82.0473 82.8505C82.0473 82.8505 86.6074 80.7603 94.3847 81.2417C96.6355 84.2678 112.399 85.685 112.399 85.685C112.399 85.685 114.367 86.2851 117.846 84.8442C121.348 83.419 124.66 83.5948 127.756 82.8268C130.851 82.0588 133.925 86.0935 136.297 86.9344C138.67 87.8227 141.816 89.9605 141.816 89.9605L148.459 90.6097L161.799 96.2549L182.993 117.393L188.752 108.367L190.528 97.1971L184.121 83.9606L166.869 68.2269L133.229 59.676L113.289 65.5571L88.3109 76.127L82.0473 82.8521V82.8505Z" fill="#F1D789"/>
    <path fill-rule="evenodd" clip-rule="evenodd" d="M201.565 157.557L197.295 170.504L192.206 178.865L175.82 180.234L180.739 165.869L194.438 141.462L188.752 119.675L198.829 114.631L201.926 119.387L204.42 130.292L204.588 142.544L201.565 157.557V157.557Z" fill="#F4ECB4"/>
    <path fill-rule="evenodd" clip-rule="evenodd" d="M183.186 83.7395L186.328 88.1353C186.328 88.1353 187.168 90.2255 186.688 92.0513C186.213 93.9008 186.281 94.0212 186.52 94.7179C186.759 95.4146 188.775 97.8168 188.655 99.8833C188.537 101.974 188.823 102.67 187.289 104.327C185.682 105.935 186.161 108.722 186.161 108.722L184.073 107.426L183.598 108.146C183.598 108.146 182.831 107.546 182.831 106.608C182.664 107.905 183.36 113.912 181.776 115.28C180.193 116.648 177.385 108.867 177.385 108.867L179.113 120.157L183.553 131.734L191.447 142.304L191.921 153.955V154.964C191.921 154.964 195.545 149.39 196.553 144.988C197.272 141.962 195.545 138.286 195.904 133.938C196.194 129.614 196.553 129.951 195.498 128.237C194.443 126.524 191.874 123.001 192.882 120.455C193.769 118.268 196.793 119.805 196.793 119.805C196.793 119.805 197.393 118.029 198.209 117.379C198.497 118.436 198.808 119.109 199.384 119.755C199.433 119.346 199.552 118.793 199.552 118.793C199.552 118.793 200.08 120.451 200.608 122.542C201.326 125.327 202.095 129.002 202.791 130.972C203.079 129.843 203.799 126.409 203.799 126.409L203.39 121.123L201.423 113.869L199.525 109.118L197.677 103.305L196.072 99.4003L194.776 96.4218L193.649 89.7188L188.203 83.9548L185.299 82.6564L183.189 83.7379V83.7379L183.186 83.7395Z" fill="#F3E19D"/>
    <path fill-rule="evenodd" clip-rule="evenodd" d="M198.71 168.127C198.71 168.127 202.622 161.476 203.748 154.772C204.874 148.067 205.883 140.983 205.171 131.855C204.452 122.654 203.084 117.01 201.979 112.974C200.081 106.271 195.165 96.9501 195.165 96.9501L194.998 97.3112C195.824 98.8792 196.484 100.53 196.965 102.236C197.614 104.782 197.854 107.808 198.454 109.178C198.982 110.546 199.869 111.724 200.301 113.406C200.709 115.015 200.776 117.561 202.029 119.458C202.557 120.228 203.205 122.245 203.397 124.262C203.637 127.29 203.276 130.677 203.564 133.463C204.093 138.099 204.452 141.245 203.972 143.673C203.493 146.1 200.996 152.992 199.46 158.469C198.452 161.977 199.053 164.932 197.206 167.983C195.358 171.009 194.229 173.676 193.823 175.525C193.348 177.207 198.716 168.127 198.716 168.127V168.127H198.71Z" fill="#F2E8B0"/>
    <path fill-rule="evenodd" clip-rule="evenodd" d="M180.161 170.793C180.161 170.793 182.176 170.192 183.137 169.136C184.097 168.127 184.505 167.286 185.8 165.581C187.096 163.875 187.168 162.482 188.225 160.344C189.28 158.254 191.608 155.107 191.896 153.978C192.184 152.849 192.663 147.565 193.263 145.066C193.791 142.568 192.663 139.492 192.663 139.492L191.297 139.782C191.297 139.782 191.297 138.004 189.928 136.802C188.562 135.625 188.321 140.791 188.321 140.791L183.211 158.062L175.509 163.299L174.67 167.527L180.164 170.793V170.793H180.161Z" fill="#F5EEC0"/>
    <path fill-rule="evenodd" clip-rule="evenodd" d="M176.419 162.962C176.419 162.962 180.042 162.723 181.817 161.425C182.537 160.897 182.825 160.465 183.592 159.816C185.008 158.639 186.448 157.558 187.143 156.015C187.912 154.479 188.751 152.148 189.327 147.753C189.568 145.903 189.568 144.198 189.735 142.708C189.976 140.69 190.335 139.081 190.143 137.957C189.903 135.651 187.527 134.45 187.296 131.832L182.377 134.329L177.746 152.611L167.908 158.786L173.475 165.032L176.425 162.973V162.973L176.419 162.962Z" fill="#E6DB9D"/>
    <path fill-rule="evenodd" clip-rule="evenodd" d="M202.37 39.8587C202.349 40.0392 202.329 40.2198 202.308 40.405C201.59 46.5807 201.468 51.2615 200.942 54.1926C200.175 58.3477 199.646 59.8932 199.766 61.4482C199.934 63.9454 200.126 65.7712 199.885 67.6935C199.526 70.2398 197.03 73.2659 197.101 75.3561C197.15 77.014 197.99 78.094 198.71 79.1027C199.43 80.1114 200.005 80.9522 200.005 80.9522C200.005 80.9522 195.086 84.3393 195.134 97.9844C195.033 97.956 194.937 97.9156 194.846 97.864L192.423 90.971L190.766 88.9537L184.408 77.0869L176.226 69.1345L164.133 60.9922L156.551 52.731L155.784 30.7029L165.693 17.8274L167.316 14.8853C180.209 21.3652 192.032 29.7883 202.372 39.8603L202.37 39.8587Z" fill="#E5CB7A"/>
    <path fill-rule="evenodd" clip-rule="evenodd" d="M172.099 18.786C172.099 18.786 171.932 21.5239 169.676 23.3021C169.316 22.702 169.077 22.124 169.148 21.6933C168.74 22.4122 165.885 27.0249 159.43 28.2268C152.975 29.4034 151.415 34.1111 151.415 34.1111L137.716 46.578L122.047 61.0148L102.996 67.7178L94.092 69.9046C94.092 69.9046 93.9244 69.2554 94.2597 67.8144C92.6052 67.9332 88.934 68.774 85.1189 70.12C83.5831 70.7201 82.1421 70.9608 81.375 70.1675C80.2472 69.1113 80.0796 66.6125 80.0084 65.124C78.1609 65.5326 76.0256 67.3093 74.3142 67.1414C71.5778 66.8532 69.1546 63.634 66.3708 63.634C62.6996 63.634 61.0451 65.892 58.4764 67.6703C56.9406 68.7265 54.7341 70.0456 53.4861 70.9371C50.5109 73.1239 19.0299 82.7563 19.0299 82.7563L7.99263 82.0359L6.21635 70.1691L7.16538 39.1482C7.28243 39.0358 7.39948 38.9186 7.51811 38.8062L57.703 12.566L127.267 1.89C142.85 4.43878 157.887 9.61701 171.739 17.2041L172.095 18.7876V18.7876L172.099 18.786Z" fill="#D8C173"/>
    <path fill-rule="evenodd" clip-rule="evenodd" d="M198.152 35.9125C197.163 37.9821 196.274 39.7129 196.118 40.332C195.994 39.0842 195.768 36.3464 195.313 33.4359C196.269 34.2498 197.215 35.0759 198.152 35.9141V35.9125Z" fill="#F1D789"/>
    <path fill-rule="evenodd" clip-rule="evenodd" d="M147.336 6.71927L138.339 9.22437L137.572 8.98368C137.572 8.98368 137.164 8.74299 137.164 7.92748C136.036 8.57514 135.076 8.45637 134.38 8.88709C134.021 8.11909 133.662 5.57281 132.077 5.26086C130.423 4.89982 128.646 5.98136 126.846 7.3495C125.072 8.76674 123.05 10.545 121.521 11.2655C120.959 10.2325 120.462 9.16581 120.032 8.07158C118.017 9.68042 114.514 16.214 109.523 16.0952C108.081 19.5076 105.671 22.4221 102.592 24.4783C97.9608 27.6247 95.0584 27.8654 91.4347 27.5772C89.9954 29.4489 88.2218 31.0371 86.2039 32.2612C85.6044 32.0205 83.9484 31.0118 81.8842 31.973C79.7964 32.9326 77.4459 36.657 74.3505 37.1368C72.6824 37.3666 70.9864 37.0101 69.5515 36.1281C69.5515 36.1281 60.5357 45.0891 54.3148 48.0677C54.5553 48.7882 55.0345 51.5023 47.7412 57.5086C47.3331 57.1475 47.621 56.1388 47.3331 56.0834C47.2145 56.0834 45.435 56.8514 43.1827 58.5822C40.3988 60.6708 37.0646 62.8576 35.0495 63.4578C31.2533 64.5868 27.2263 62.2812 27.2263 62.2812C26.8838 62.5217 26.5022 62.7006 26.0985 62.8101C25.14 62.978 24.444 63.0983 23.9157 63.2852C23.9632 62.0358 23.2672 59.8981 23.9157 58.0485C23.1645 57.6256 22.3688 57.2873 21.5431 57.0398C21.9497 56.1515 22.8386 53.8934 24.3254 52.8119C23.079 52.2117 22.9113 51.515 21.1351 50.9117C21.8547 49.903 23.0331 48.1722 23.5583 47.1113C24.0866 45.9822 25.983 41.2982 26.8229 39.5215C27.7103 37.7433 28.9092 34.4765 29.4865 33.8209C30.0639 33.1654 32.1502 30.3863 33.7572 29.0182C32.3337 29.5471 26.5098 31.3237 24.0391 31.9967C24.7746 30.9168 28.5027 25.3793 32.0869 20.0539C66.8031 -0.777455 108.795 -5.64424 147.347 6.69552L147.336 6.71927Z" fill="#E0CD81"/>
    <path fill-rule="evenodd" clip-rule="evenodd" d="M175.826 163.611C175.826 163.611 177.912 163.611 178.32 163.323C178.729 163.035 176.233 162.433 175.465 162.145C174.698 161.857 173.042 160.536 172.61 159.478C172.202 158.47 157.614 152.585 157.614 152.585L147.297 153.114L143.739 158.034L150.506 163.968L145.761 177.972L152.046 176.963L167.163 167.938L174.746 165.03L175.826 163.611V163.611Z" fill="#DFC57C"/>
    <path fill-rule="evenodd" clip-rule="evenodd" d="M153.168 158.975C152.864 158.483 152.322 158.19 151.744 158.207C149.609 158.207 147.643 157.678 146.827 156.598C145.459 154.867 141.667 149.342 141.667 149.342L132.598 146.075L132.012 156.767L141.922 163.66L153.199 159.505V158.976H153.174L153.168 158.975Z" fill="#E5CC7C"/>
    <path fill-rule="evenodd" clip-rule="evenodd" d="M154.947 155.011C154.947 155.011 153.293 154.891 151.205 155.661C149.117 156.43 145.686 158.087 144.198 157.437C142.111 156.549 142.543 153.762 140.286 151.262C138.92 149.724 136.424 149.772 135.008 148.114C133.592 146.456 128.722 147.225 128.722 147.225L126.875 137.249L134.288 127.736L136.713 115.918H146.738L155.896 119.555L160.407 130.481L158.152 141.531L154.947 155.011V155.011Z" fill="#D2C281"/>
    <path fill-rule="evenodd" clip-rule="evenodd" d="M135.555 154.531C135.306 154.454 135.048 154.414 134.788 154.411C135.076 154.17 135.677 153.643 135.436 152.273C135.196 150.903 134.429 149.174 135.076 148.118C134.559 147.553 134.174 146.88 133.948 146.148C133.54 144.97 133.42 143.89 130.758 143.72C131.142 143.484 131.496 143.201 131.813 142.88C131.813 142.88 129.965 141.271 129.029 139.782C128.07 139.823 125.527 140.615 125.527 140.615L124.999 140.254L123.871 140.729C123.871 140.729 124.926 141.138 124.159 143.708C123.439 145.966 122.791 145.846 122.735 146.013C122.68 146.181 122.207 148.56 122.207 149.521C121.848 150.769 121.56 154.564 121.56 154.564L122.327 162.947L126.645 165.567L130.157 168.96L133.469 162.715L135.65 160.537L135.818 155.133L135.555 154.531V154.531Z" fill="#E2C270"/>
    <path fill-rule="evenodd" clip-rule="evenodd" d="M125.167 161.545C125.167 161.545 124.4 159.359 124.11 157.678C124.008 158.005 123.952 158.344 123.942 158.686C123.942 158.686 123.343 155.371 123.224 154.001C122.984 154.05 122.75 154.121 122.696 153.882C122.642 153.643 122.095 150.975 122.222 149.486C121.222 151.137 119.84 152.521 118.191 153.521C117.231 154.123 116.103 154.77 114.927 154.82C113.079 154.867 111.736 153.641 109.528 153.641C104.203 153.641 99.3784 157.557 95.8274 158.758C93.2128 159.648 90.9573 160.295 89.374 161.738C88.6053 162.386 87.2371 163.827 85.9907 165.966C84.3346 168.816 82.6074 171.297 80.8786 171.609C81.6607 171.466 82.4565 171.409 83.2511 171.442C83.2511 171.442 82.7228 171.97 81.8276 172.691C80.9323 173.411 79.8599 174.3 78.3257 174.3C75.5893 174.3 74.2227 173.893 72.6868 173.893C71.151 173.94 70.2636 174.3 70.2636 174.3C70.2636 174.3 68.655 173.171 65.0329 173.171C61.4092 173.123 58.986 172.811 57.0895 172.642C55.193 172.472 48.836 173.171 47.0123 173.117C45.8233 173.071 44.6558 172.785 43.58 172.276L49.4592 189.378L70.5784 207.857L83.1515 198.945L102.493 179.584L121.208 172.642L125.119 168.246V161.545H125.167Z" fill="#CCB360"/>
    <path fill-rule="evenodd" clip-rule="evenodd" d="M83.1751 171.346C83.1751 171.346 82.6468 171.874 81.761 172.594C80.8753 173.315 79.7918 174.205 78.2575 174.205C75.5227 174.205 74.1545 173.796 72.6187 173.796C71.0828 173.844 70.1955 174.205 70.1955 174.205C70.1955 174.205 68.5853 173.077 64.9647 173.077C61.341 173.03 58.9178 172.718 57.0213 172.55C55.1249 172.382 48.7679 173.077 46.9442 173.025C45.7555 172.98 44.5884 172.694 43.5134 172.184L46.1771 179.896L49.2709 185.78L58.1017 195.462C58.1017 195.462 68.6992 201.707 68.7799 201.754C68.8273 201.802 72.451 202.763 72.451 202.763L82.0489 196.95L90.7579 174.393L90.9255 169.643L85.2883 166.976C83.8726 169.351 82.3115 171.251 80.8484 171.492C82.1691 171.348 83.1767 171.348 83.1767 171.348V171.348L83.1751 171.346Z" fill="#D5B457"/>
    <path fill-rule="evenodd" clip-rule="evenodd" d="M83.2953 169.736C84.1352 169.689 84.8295 169.856 85.0225 170.457C85.7422 172.474 86.3179 172.762 86.9206 172.762C87.5232 172.762 88.3362 171.465 88.8186 171.346C89.3011 171.228 89.8737 172.835 89.8737 172.835L90.4019 173.076C90.4019 173.076 93.4974 171.058 95.6802 168.68C97.8629 166.301 101.439 162.265 103.046 161.546C104.653 160.827 110.173 160.585 112.062 160.176C113.951 159.768 116.045 158.398 116.333 158.086C116.621 157.774 115.491 157.439 115.324 157.127C115.156 156.838 117.173 156.959 117.34 156.652C117.459 156.411 116.866 155.043 116.572 154.346C116.057 154.602 115.492 154.742 114.917 154.755C113.07 154.802 111.725 153.576 109.519 153.576C104.191 153.576 99.3687 157.492 95.8178 158.694C93.2016 159.583 90.9461 160.232 89.3628 161.673C88.5956 162.321 87.2274 163.763 85.9795 165.901C85.0684 167.366 84.1795 168.735 83.2905 169.744V169.744L83.2953 169.736Z" fill="#D2B257"/>
    <path fill-rule="evenodd" clip-rule="evenodd" d="M159.693 50.8531C159.693 50.8531 160.167 52.6314 164.564 57.2188C165.812 58.5157 166.579 59.5941 167.419 60.3652C169.507 62.3367 170.731 62.864 172.218 63.9931C175.481 66.419 179.032 66.419 181.767 69.3975C184.502 72.3761 187.689 78.0672 189.903 83.8834C192.086 89.6965 192.687 91.546 192.687 91.7139C192.687 91.8817 192.086 93.0108 191.319 92.8429C190.552 92.675 190.552 91.1866 190.359 90.8255C189.977 90.2363 189.543 89.682 189.064 89.1692C187.936 87.8707 186.329 86.3189 185.513 84.0038C185.68 85.9737 186.352 88.1589 186.352 88.1589C186.352 88.1589 182.129 85.4923 178.531 82.7069C174.907 79.9199 173.42 78.9587 172.362 77.1821C171.304 75.4054 168.811 70.7198 167.617 69.35C166.423 67.9803 150.06 62.8165 150.06 62.8165L142.276 57.0066L138.412 48.527L141.436 43.7765L147.243 42.5271L156.673 46.755L159.693 50.8547V50.8547V50.8531Z" fill="#D2B159"/>
    <path fill-rule="evenodd" clip-rule="evenodd" d="M180.643 80.0642C180.643 80.0642 178.675 76.9177 173.876 73.9392C169.556 71.3201 162.719 68.9416 156.623 67.5244C153.121 66.6836 149.617 66.0359 146.474 65.9868C138.004 65.8681 132.174 68.2924 124.95 69.0857C121.039 69.4943 116.24 69.8062 111.249 70.9859C104.843 72.5235 101.052 74.2543 95.8924 76.6866C92.15 78.4157 88.7177 79.7126 85.9354 81.3706C82.0238 83.6761 79.1688 86.2462 75.8567 87.0142C76.2648 85.8851 76.6966 83.8677 79.9597 81.7775C78.2325 81.8266 75.8567 81.9454 75.8567 81.9454C75.8567 81.9454 78.1597 80.5772 82.2152 77.5021C84.7112 75.6019 88.0217 72.3858 91.405 70.248C93.5894 68.8783 95.9651 67.8728 97.5247 67.0525C101.321 64.9623 102.852 63.9061 105.346 61.3519C104.459 61.3994 104.386 61.3519 104.386 61.3519C104.386 61.3519 107.531 60.9434 109.785 59.7431C110.259 59.7431 111.082 59.9109 112.521 59.5024C113.649 59.1429 115.137 58.3242 116.671 57.8935C118.856 57.2443 119.574 57.5325 119.574 57.5325L119.215 56.812C119.215 56.812 122.062 56.8611 123.011 56.7645C122.843 56.717 122.891 56.6441 122.891 56.6441C123.057 56.6162 123.218 56.5594 123.365 56.4763C123.822 56.1801 124.324 55.9613 124.852 55.8286C125.14 55.7811 125.38 55.7811 125.741 55.7083C125.621 55.4201 124.684 53.8081 124.253 52.858C124.612 52.6173 130.012 48.5334 130.012 48.5334C129.844 48.2696 129.707 47.9875 129.604 47.6926C129.436 47.1653 129.363 46.3957 129.196 46.0363C128.789 45.3158 128.549 45.1954 128.549 45.1954C128.549 45.1954 129.196 45.0751 130.325 44.7869C131.283 44.5462 132.46 44.1392 134.121 43.8985C134.631 43.8322 135.143 43.792 135.657 43.7782C135.416 43.2493 134.361 41.2319 136.305 38.9026C138.249 36.5732 138.849 36.2344 139.448 34.7459C139.75 34.9743 140.071 35.1757 140.408 35.3476C141.055 35.6358 141.944 36.0665 142.256 36.6445C142.437 35.8744 142.678 35.1195 142.975 34.3864C143.575 32.7776 144.462 31.1909 144.63 29.9906C145.278 30.7111 146.477 32.1283 148.133 31.8402C149.79 31.552 151.109 29.2939 151.397 28.6446C151.397 29.0532 151.684 29.3651 151.756 28.8853C151.805 28.3564 152.716 22.8332 157.803 18.3645C157.85 19.4936 157.85 21.9923 157.97 22.8078C158.445 22.3328 159.025 21.6313 162.481 20.1412C165.865 18.6527 165.328 17.1627 165.328 17.1627C165.328 17.1627 165.616 19.5379 163.793 22.0398C161.945 24.537 160.817 25.7152 160.817 25.9068C160.847 26.1019 160.93 26.285 161.058 26.4357C161.298 26.6763 161.777 26.9645 161.777 27.1562C161.49 27.2749 158.635 28.6446 158.802 31.4807C158.97 34.0254 160.049 35.3476 160.817 36.2835C160.936 36.4038 159.688 37.2922 159.857 37.5804C159.977 37.7482 161.512 38.8788 161.705 39.4806C161.659 39.8397 161.579 40.1934 161.464 40.5368C161.297 41.0656 161.176 41.4267 161.224 41.7861C161.344 42.3863 161.993 44.0442 162.184 44.2121C162.016 44.1646 160.817 44.2121 160.817 44.2121C160.817 44.2121 161.776 45.7496 161.945 46.4701C162.114 47.1906 162.473 49.0893 162.665 49.4487C162.257 49.4012 161.249 49.3299 161.249 49.4487C161.2 49.8098 162.136 50.4099 161.724 50.8739C161.436 50.8264 160.884 50.5857 160.357 49.9127C160.645 50.6823 161.124 52.1708 162.133 52.7709C161.659 52.9388 160.045 53.3726 158.63 52.5318C157.214 51.6909 156.732 50.5144 156.732 50.5144C156.732 50.5144 155.892 49.8652 154.595 48.904C153.108 47.7274 151.213 46.0537 148.189 44.8692C147.54 44.5082 145.886 44.5082 144.685 44.7489C144.163 44.8736 143.661 45.0759 143.198 45.349C143.031 45.4476 142.854 45.5283 142.67 45.5897C142.928 46.108 143.225 46.6061 143.558 47.0798C143.149 47.0798 142.67 47.0307 142.67 47.0307C142.67 47.0307 142.382 47.6799 143.678 48.9309C143.39 49.2191 143.029 49.406 143.029 49.8921C143.437 49.9396 144.157 50.5397 144.325 50.7804C144.086 50.9483 143.725 51.5009 143.317 51.6688C143.678 51.957 144.565 53.1589 144.973 53.2776C144.583 53.4225 144.206 53.5994 143.845 53.8065C143.845 53.8065 145.861 54.3354 146.509 54.7677C147.158 55.2427 148.116 56.0646 148.692 56.3053C149.293 56.546 150.348 56.6647 150.78 57.1461C150.373 57.0258 149.725 57.1461 149.244 57.1461C148.885 57.1461 148.716 57.0986 148.597 57.0986C148.644 57.2665 148.644 57.6275 147.708 57.7463C147.258 57.8142 146.821 57.9521 146.413 58.1548C146.413 58.1548 147.301 58.2023 148.311 59.1635C149.32 60.1247 150.158 60.8927 150.734 61.013C151.333 61.1334 152.461 60.6045 153.157 60.6536C154.117 60.7723 154.525 61.2537 154.525 61.2537C154.525 61.2537 157.716 60.9655 164.794 65.2885C170.913 69.0366 173.577 72.3509 173.577 72.3509C174.15 72.559 174.703 72.8165 175.232 73.1205C177.534 74.3208 180.726 76.8196 180.63 80.0879V80.0879L180.643 80.0642Z" fill="#C2A44D"/>
    <path fill-rule="evenodd" clip-rule="evenodd" d="M92.3662 224.242C91.8111 224.061 91.3178 223.728 90.9427 223.281C89.8149 221.984 89.0952 219.534 91.6623 216.915C90.6548 216.555 90.2388 216.44 89.3594 216.555C90.2467 215.498 92.2618 213.24 92.382 211.27C92.5022 209.661 91.4947 209.18 91.4947 209.18C91.4947 209.18 93.0305 207.403 93.1017 204.429C92.3764 205.248 91.5827 206.003 90.7291 206.687C88.9529 208.104 86.5059 209.713 84.8499 210.722C84.8724 210.299 84.8155 209.876 84.6822 209.474C84.6822 209.474 81.5884 212.02 78.988 210.89C77.8128 210.361 78.3411 208.704 78.3411 208.704C78.3411 208.704 76.7325 209.305 75.6047 208.176C74.4769 207.047 72.8826 204.134 72.0648 203.005C71.7058 202.477 70.7694 201.468 69.8109 199.907C68.5014 197.721 67.408 195.412 66.5462 193.014C66.4987 194.263 66.1871 196.207 62.6346 194.983C59.0836 193.734 55.0534 191.115 51.6701 185.957C48.2868 180.8 47.4485 174.977 45.745 172.761C44.0177 170.623 42.2415 167.068 42.1212 165.578C42.001 164.088 42.6495 159.285 39.0986 146.289C38.091 150.324 36.5552 159.285 36.5552 159.285L35.7153 167.188L34.7552 191.642L60.262 212.856L80.2012 227.342L93.1824 226.093L92.3678 224.243V224.243L92.3662 224.242Z" fill="#CAA13E"/>
    <path fill-rule="evenodd" clip-rule="evenodd" d="M44.9766 187.85C44.9766 187.85 45.3372 190.225 51.3351 194.263C57.3346 198.25 62.0133 198.25 66.3314 201.637C69.6435 204.304 73.098 210.43 75.3472 212.448C77.5316 214.441 77.8906 220.207 77.8906 220.207L70.5245 226.383L59.5695 242.235L50.3086 252.444L45.8703 246.268L39.7015 239.014L36.2708 224.457L35.0228 203.149L44.9877 187.848L44.9766 187.85Z" fill="#B59544"/>
    <path fill-rule="evenodd" clip-rule="evenodd" d="M37.5615 162.31C37.38 165.541 37.7786 168.779 38.7383 171.869C40.3201 176.794 43.7761 185.538 45.3816 188.813C46.0301 192.441 45.5492 192.729 44.8533 193.137C44.1573 193.546 41.5412 195.038 40.1081 200.271C38.6751 205.504 34.2289 205.675 34.2289 205.675L31.4941 207.693L27.342 197.292L23.7199 187.899L22.5921 180.716L21.7522 174.591L23.7199 161.643L33.4364 152.851L37.5631 162.31V162.31H37.5615Z" fill="#C89D3A"/>
    <path fill-rule="evenodd" clip-rule="evenodd" d="M173.154 17.9905V18.2566C172.952 18.3829 172.774 18.5437 172.628 18.7316C172.46 18.9723 172.338 19.2605 172.219 19.3318C171.979 19.4521 170.851 19.8068 170.252 19.6928C169.652 19.5788 168.067 18.9248 167.228 18.9723C165.5 19.0198 163.485 20.342 160.293 19.7403C155.494 18.852 154.367 15.5852 151.583 13.7357C149.685 12.4372 147.72 13.0152 147.432 13.0152H146.785C146.665 13.0152 145.778 14.0239 145.297 13.9748C144.337 13.9273 144.242 13.1339 143.643 13.0864C142.227 12.9186 139.491 13.8069 138.122 13.4459C137.299 13.1876 136.654 12.5424 136.395 11.7183C136.107 10.8299 136.348 9.70089 137.044 9.05165C138.53 7.68351 139.946 6.38503 140.234 5.25125C139.868 4.97175 139.516 4.67366 139.181 4.35815C151.053 7.38638 162.475 11.965 173.154 17.9763V17.9905Z" fill="#CEB052"/>
    <path fill-rule="evenodd" clip-rule="evenodd" d="M45.3845 65.9865C45.3845 65.9865 41.6422 70.9824 40.3452 73.4575C39.0497 76.0085 44.4481 108.312 44.4481 108.312L33.6023 143.887L33.8917 155.466C33.8917 155.466 33.3634 166.156 32.1155 170.792C30.6271 168.126 25.9958 164.906 24.9882 163.201C24.5137 166.469 22.9019 173.362 23.1408 180.713C22.2534 179.345 20.1181 165.579 20.1181 165.579L17.9828 156.308L15.199 146.459L12.1035 136.057L10.2561 128.874L9.20107 127.145L8.31214 124.118L7.47225 120.85L5.04905 113.188L3.6255 106.895L2.49773 95.484C2.25242 94.6103 2.07579 93.7187 1.96944 92.8174C1.92199 91.568 2.1371 90.8475 2.1371 90.6306C2.1371 90.4136 1.72902 87.8927 1.89668 85.9941C2.1371 84.0938 2.1371 82.6069 3.6255 81.2435C5.1139 79.8801 6.0487 71.7314 6.0487 71.7314L8.71232 73.5081C8.71232 73.5081 8.18402 75.9356 9.432 78.1446C10.68 80.3536 13.1032 80.8112 14.4714 80.4502C15.838 80.162 18.5728 79.7313 19.4617 78.9617C20.3016 78.1937 22.3642 75.8153 24.2606 74.7338C26.6332 73.3086 30.4989 73.1962 32.5615 72.7164C34.6494 72.2413 36.9524 70.8162 39.3771 69.1614C41.2783 67.9292 43.2856 66.8693 45.375 65.9944V65.9944L45.3845 65.9865Z" fill="#CCA847"/>
    <path fill-rule="evenodd" clip-rule="evenodd" d="M45.3845 13.4994C45.3845 13.4994 45.2263 13.3965 44.9211 13.2286C27.874 21.2244 12.5998 32.5584 0.000196124 46.5614C0.137806 51.4227 0.316539 56.406 0.512673 58.2524C0.919175 62.1684 0.631301 66.1556 0.751512 68.4612C0.871722 70.7668 2.16716 80.1601 2.76663 82.5861C3.41513 85.012 4.66469 86.2139 4.8545 86.2139C5.02216 86.1648 6.0313 81.6486 6.0313 80.5133C6.0313 79.3779 6.27172 76.6448 6.27172 75.948C6.43938 75.9971 6.51056 76.4231 6.51056 76.5973C6.75098 75.9971 7.03886 74.9393 7.15907 74.819C7.27928 74.6986 6.99141 75.8277 7.15907 76.0684C7.32673 76.3091 7.63358 76.1887 7.56715 76.7889C7.53874 77.1447 7.48269 77.4979 7.39949 77.8451C7.39949 77.8451 8.11917 76.7889 8.64588 74.0985C9.17418 71.4319 9.17418 71.359 9.36557 71.1199C9.53323 70.8301 10.4933 69.8705 10.5424 69.5095C10.5898 68.8618 9.65344 68.2126 9.58226 67.8531C9.53481 67.2514 10.4222 64.466 10.71 63.1026C10.9979 61.7392 10.8777 59.0679 11.1845 57.6981C11.425 56.4488 11.6591 55.7283 12.48 55.201C11.8805 55.0806 11.3048 54.9128 11.3048 54.9128C11.3048 54.9128 10.4649 51.3578 12.6002 48.3301C13.3673 47.2739 13.5587 46.7926 14.3749 45.8314C15.9835 44.0547 17.2315 42.031 17.3517 40.7151C17.4347 41.1034 17.4907 41.4971 17.5193 41.8932C17.5193 41.8932 20.0137 38.9859 21.0703 37.328C22.4369 35.1902 24.3334 35.3106 24.8664 34.7817C25.3995 34.2528 25.5149 33.2932 25.341 32.5236C25.8155 32.4048 26.7076 32.2354 27.3086 30.3859C27.5965 29.4263 28.3162 28.4857 29.4439 27.8396C30.5717 27.1935 31.9399 26.9988 32.6358 26.8309C32.0364 26.6631 31.796 26.6631 31.5081 26.4715C31.8671 25.8713 33.5232 24.9339 35.3706 23.732C37.2181 22.603 38.107 20.9466 38.5626 19.8651C39.0371 18.8564 39.7378 18.2071 40.8655 18.0868C40.391 17.7986 39.6887 17.1272 39.3297 16.9103C39.858 16.7899 40.7532 16.7899 42.3524 15.4202C44.0322 14.0267 44.6079 13.6182 45.3766 13.4978V13.4978L45.3845 13.4994Z" fill="#C39D3C"/>
    <path fill-rule="evenodd" clip-rule="evenodd" d="M78.7716 2.36754C77.8528 3.01228 76.8577 3.54045 75.8091 3.93995C72.0667 5.42845 68.1077 5.71665 66.5481 6.19645C65.0597 6.6715 63.8845 7.32707 62.037 7.68652C62.0861 7.26531 62.1272 6.86944 62.1715 6.49573C67.6181 4.78152 73.1645 3.40287 78.7795 2.36754H78.7716Z" fill="#D2BA6B"/>
    <path fill-rule="evenodd" clip-rule="evenodd" d="M9.74504 100.914C9.74504 100.914 10.5122 96.7587 11.8804 94.1396C13.2486 91.5205 14.7275 87.8942 14.7275 87.8942C14.7185 88.7114 14.622 89.5252 14.4396 90.3218C16.1668 89.3131 20.3663 86.8855 21.5573 85.8056C22.6851 84.7969 24.5816 83.0186 25.0608 82.1778C23.9331 85.4921 22.7579 88.4706 22.5649 89.8404C24.2921 88.591 32.3557 81.9371 36.5536 77.5413L49.6313 66.9477C51.1404 66.1326 52.6946 65.4041 54.2863 64.7656C56.5403 63.806 59.2039 62.9889 61.1715 62.2193C60.6432 63.6365 59.8049 64.8875 58.6281 66.0878C57.3802 67.2644 53.6378 71.3245 53.0621 73.2136C52.5338 75.1835 52.4136 76.36 53.1095 78.0179C53.758 77.8501 55.2448 77.7772 56.2524 77.489C57.2599 77.2008 58.3403 76.1209 58.3403 76.1209C58.3403 76.1209 57.5731 80.5167 55.9171 84.6718C57.165 84.6243 59.3004 84.2648 59.3004 84.2648C59.3004 84.2648 56.3251 89.2608 51.2336 92.7429C52.7929 92.4107 54.3187 91.9368 55.7921 91.3273C58.7673 90.0779 62.0304 88.2284 64.4536 87.2197C63.087 89.1199 53.4891 102.833 47.7775 115.613C42.0833 128.369 39.9559 131.635 38.7079 138.481C38.061 141.868 38.2334 146.873 38.061 151.356C37.8934 155.801 37.3413 159.788 37.7004 162.455C36.2136 160.606 30.6459 155.393 30.4545 143.741C30.2869 132.091 35.7802 116.356 41.612 107.878C40.1884 107.47 36.4999 106.988 32.7101 113.579C28.9202 120.169 28.9661 122.009 27.5979 124.749C27.4303 123.379 27.4793 122.899 27.4793 122.899C27.4793 122.899 21.9591 129.601 19.3445 138.033C18.8162 134.405 17.2566 131.209 19.7051 124.556C21.8879 118.551 24.7429 117.085 24.7429 117.085C24.7429 117.085 23.3273 117.325 21.241 118.575C20.8804 117.686 20.9515 116.674 20.3521 116.317C19.7526 115.959 18.9364 115.355 18.8162 114.779C18.1693 115.74 17.1617 116.966 16.8486 117.878C17.089 115.978 17.2566 107.669 16.374 103.441C14.525 103.609 12.6301 103.729 11.3347 107.069C12.222 103.801 12.222 101.832 11.6225 99.0453C10.6387 99.7167 9.75137 100.919 9.75137 100.919V100.919L9.74504 100.914Z" fill="#C0993A"/>
    <path fill-rule="evenodd" clip-rule="evenodd" d="M72.0904 233.322C72.0904 233.322 73.9378 232.554 77.0807 232.554C79.8155 232.554 79.0484 233.61 83.319 233.61C89.8926 233.61 112.856 229.809 116.888 229.863C119.504 229.911 108.059 228.734 108.059 228.734L78.8079 228.326L72.9303 228.801L70.7459 233.25L72.0904 233.322Z" fill="#A88F33"/>
    <path fill-rule="evenodd" clip-rule="evenodd" d="M147.937 176.078C147.937 176.078 151.681 173.22 153.264 171.033C154.847 168.846 155.687 167.407 157.487 165.629C157.065 165.613 156.643 165.669 156.239 165.797C156.239 165.797 156.239 165.322 156.527 165.196C156.023 165.253 155.521 165.078 155.161 164.721C155.689 164.433 157.128 162.991 156 161.285C155.161 159.988 153.384 159.87 153.384 159.87C153.384 159.87 153.792 158.691 152.089 158.812C148.418 158.98 144.315 160.59 142.42 160.181C140.522 159.706 139.443 159.532 138.1 157.201C136.677 154.896 135.437 154.535 135.437 154.535C135.437 154.535 134.597 156.674 134.788 159.868C134.099 161.59 133.718 163.419 133.66 165.272L134.908 174.473L140.354 181.367L147.409 177.451L147.937 176.083V176.078Z" fill="#E3C571"/>
    <path fill-rule="evenodd" clip-rule="evenodd" d="M141.243 177.448C141.243 177.448 140.715 176.198 138.507 176.08C138.747 175.551 138.747 175.478 138.674 175.071C138.627 174.662 138.556 174.062 138.556 174.062C138.312 174.18 138.093 174.341 137.907 174.537C137.787 174.009 138.027 173.169 137.907 172.568C137.833 172.202 137.712 171.847 137.548 171.511C137.513 171.593 137.473 171.673 137.428 171.75C137.38 171.871 136.953 170.454 135.772 169.375C135.773 169.541 135.732 169.704 135.653 169.85C135.635 169.549 135.536 169.258 135.365 169.009C135.454 169.052 135.534 169.108 135.604 169.177C135.604 169.177 135.485 165.377 134.837 163.412C134.729 163.539 134.632 163.675 134.549 163.82C134.549 163.939 134.597 162.762 134.717 161.92C134.884 161.079 134.764 159.903 134.764 159.903C134.332 160.244 133.856 160.526 133.35 160.743C132.63 161.033 131.452 161.922 130.734 163.892C130.317 165.007 129.996 166.156 129.774 167.326C129.542 166.879 129.382 166.398 129.299 165.901C129.25 165.301 128.123 165.613 128.123 165.613L127.882 168.232L126.459 174.165L125.163 177.841L118.925 187.568L107.653 196.258L97.8152 194L89.5143 205.291L103.815 213.891L117.348 212.473L129.63 195.443L139.467 179.996L141.243 177.449V177.449V177.448Z" fill="#D8B65B"/>
    <path fill-rule="evenodd" clip-rule="evenodd" d="M70.3628 202.093C70.3628 202.093 71.2027 201.925 73.6259 200.668C76.049 199.411 77.7288 199.012 78.6652 197.162C79.6016 195.313 79.6728 193.846 79.6728 193.846C79.6728 193.846 78.0167 194.567 77.0566 194.808C76.0491 195.047 74.9213 194.975 75.0415 194.567C75.1569 194.287 75.3172 194.027 75.516 193.799C75.516 193.799 73.6179 193.846 73.6686 192.909C73.7192 191.972 74.0276 190.939 74.3867 190.483C74.7473 190.008 76.2341 189.305 76.4018 188.752C76.8099 187.623 76.2341 187.576 76.4508 186.664C76.6185 185.774 77.4093 184.045 80.0018 181.018C82.6654 177.991 83.7979 175.853 83.7979 175.853C83.7979 175.853 85.0933 178.279 85.7656 180.369C86.2401 180.13 88.7882 178.713 88.7882 178.713L94.6912 199.298L94.5726 200.668C94.5726 200.668 94.0443 201.316 93.9241 202.518C94.8114 202.806 94.9316 203.047 96.1084 204.174C97.2852 205.301 98.2438 206.673 100.21 207.61C100.498 208.139 100.858 208.858 102.298 209.148C103.737 209.438 104.601 209.675 104.601 209.675C104.601 209.675 103.834 209.965 103.473 210.565C104.362 210.445 105.08 210.157 107.024 210.204C108.992 210.253 109.208 210.324 110.287 210.157C111.366 209.989 112.66 209.507 113.142 211.165C113.67 211.574 114.798 211.213 115.758 209.797C116.718 208.381 117.054 207.251 118.901 206.698C119.031 205.883 119.316 205.1 119.741 204.393C120.269 203.503 121.109 202.614 122.237 201.294C124.013 199.203 123.725 195.769 126.557 193.15C129.412 190.532 126.082 200.405 126.082 200.405L121.524 211.331L108.542 224.039L88.3865 225.407L86.4188 214.956L76.5805 211.569L70.3659 202.081V202.081L70.3628 202.093Z" fill="#D3AE4D"/>
    <path fill-rule="evenodd" clip-rule="evenodd" d="M67.171 199.788L75.6411 212.014L81.5678 216.579C81.5678 216.579 85.791 224.36 86.0789 224.601C86.3193 224.769 90.3021 225.201 92.8455 225.369L92.3709 224.193C91.8158 224.012 91.3226 223.679 90.9474 223.231C89.8196 221.935 89.0999 219.485 91.6671 216.866C90.6595 216.506 90.2435 216.391 89.3641 216.506C90.2514 215.448 92.2666 213.19 92.3868 211.221C92.507 209.612 91.4994 209.132 91.4994 209.132C91.4994 209.132 93.0353 207.354 93.1064 204.381C92.3811 205.2 91.5874 205.956 90.7339 206.639C88.9576 208.065 86.5107 209.667 84.8546 210.676C84.8772 210.253 84.8203 209.829 84.6869 209.426C84.6869 209.426 81.5931 211.973 78.9927 210.844C77.8175 210.315 78.3458 208.657 78.3458 208.657C78.3458 208.657 76.7372 209.257 75.6094 208.128C74.4817 206.999 72.8746 204.093 72.0585 202.963C71.6994 202.434 70.7631 201.425 69.8045 199.865C68.4947 197.679 67.4013 195.37 66.5399 192.971C66.4924 193.932 66.2994 195.276 64.6418 195.276L67.1615 199.792L67.171 199.788Z" fill="#CAA13E"/>
    <path fill-rule="evenodd" clip-rule="evenodd" d="M194.15 165.052C194.15 165.052 194.75 166.542 194.15 169.448C193.551 172.354 192.614 173.723 192.303 177.999C191.991 182.274 189.207 187.607 189.207 187.607L181.506 191.113L176.059 189.625L174.452 182.322L181.338 178.521C181.338 178.521 181.697 176.912 183.641 175.616C185.585 174.319 188.273 173.31 188.92 171.988C189.306 171.178 189.589 170.322 189.759 169.441C189.759 169.441 191.727 169.85 192.902 168.553C194.15 167.231 194.103 166.054 194.15 165.046V165.052Z" fill="#F4EFC8"/>
    <path fill-rule="evenodd" clip-rule="evenodd" d="M178.602 166.998C178.602 166.998 179.251 166.59 179.73 165.573C180.204 166.341 181.339 170.907 181.386 175.014C181.433 179.122 181.679 180.14 180.73 181.556C179.781 182.971 176.059 184.463 176.587 187.012C177.115 189.438 179.323 190.447 182.034 189.75C183.933 189.275 185.345 185.234 187.313 183.217C188.801 181.679 190.576 181.92 191.055 181.079C191.704 179.95 191.104 178.821 191.295 178.1C191.345 177.86 191.944 176.563 193.024 175.001C195.207 171.855 198.902 167.41 199.383 163.423C199.215 165.681 199.334 165.728 198.734 168.227L199.095 168.827L196.722 176.61L195.187 183.023L191.754 193.763L185.709 204.74L179.83 211.322L173.711 210.914L172.992 201.714L169.488 184.441L162.122 175.361L173.928 167.407L178.607 166.998V166.998H178.602Z" fill="#EBCC73"/>
    <path fill-rule="evenodd" clip-rule="evenodd" d="M174.93 163.735C174.93 163.735 175.938 163.494 176.298 163.685C176.659 163.877 177.017 164.094 176.898 164.335C176.779 164.575 176.131 164.982 176.131 165.176C176.103 165.539 176.369 165.858 176.73 165.896C177.282 165.967 177.45 165.608 177.45 165.608C177.45 165.608 177.978 166.015 178.409 166.083C178.154 166.114 177.898 166.131 177.641 166.132C178.304 166.433 179.008 166.635 179.729 166.732C179.13 167.092 177.953 168.149 177.186 168.149C176.419 168.149 175.938 168.268 176.058 168.677C176.178 169.085 176.778 169.685 177.425 169.926C177.186 170.214 177.017 170.647 177.592 171.826C178.193 173.003 177.953 173.796 177.76 174.083C177.592 174.444 176.993 175.091 176.705 175.5C176.417 175.909 176.177 176.461 175.697 176.749C175.457 176.917 174.69 177.224 173.921 177.517C173.081 177.806 172.385 178.167 171.906 177.806C171.378 177.446 171.618 176.965 171.618 176.965C171.618 176.965 169.962 177.566 168.475 176.797C166.987 176.078 163.363 175.62 163.363 175.62L162.065 173.001L170.655 165.627L174.206 163.849L174.926 163.73V163.73L174.93 163.735Z" fill="#E5C66B"/>
    <path fill-rule="evenodd" clip-rule="evenodd" d="M163.006 175.79C163.006 175.79 165.67 174.012 166.269 173.364C165.91 173.315 165.311 173.074 165.551 172.715C165.839 172.355 167.566 171.106 168.526 169.928C169.534 168.751 170.494 167.261 170.829 166.541C171.188 165.893 173.925 163.994 174.86 163.755C172.892 163.755 168.933 166.181 167.446 166.181C167.494 165.461 167.038 164.644 166.198 164.572C165.358 164.501 162.935 164.043 159.672 166.061C156.409 168.031 157.488 169.497 156.121 170.457C153.505 172.187 152.45 173.725 151.01 174.685C149.571 175.644 148.826 175.863 148.826 175.863C148.826 175.863 148.779 176.583 148.352 176.51C148.113 176.483 147.91 176.326 147.823 176.102C147.823 176.102 145.327 177.88 142.129 178.36C142.204 178.393 142.263 178.453 142.297 178.528C142.297 178.528 142.058 178.648 142.009 178.768C142.009 178.768 141.841 179.009 141.721 178.889C141.601 178.768 141.433 177.88 141.193 177.519C140.664 177.76 139.657 180.018 139.657 180.018L137.232 186.96V193.302L139.13 192.941L153.366 186.889L162.005 177.928L163.013 175.79H163.006Z" fill="#E6BD62"/>
    <path fill-rule="evenodd" clip-rule="evenodd" d="M122.023 206.898C121.253 207.085 120.515 207.385 119.833 207.788C120.121 207.018 120.121 206.177 121.369 204.351C122.617 202.526 122.664 202.261 123.672 200.364C124.679 198.394 124.799 195.56 125.759 194.312C125.329 194.521 124.868 194.659 124.393 194.719C124.393 194.719 125.351 193.878 125.759 192.99C126.168 192.101 126.887 190.252 128.662 189.121C130.437 187.991 132.694 187.272 135.117 184.605C137.542 181.988 140.036 178.672 141.286 177.479C140.637 178.608 139.75 180.866 139.509 182.355C139.269 183.843 139.558 185.623 139.15 187.592C138.742 189.56 138.742 190.979 136.778 194.415C134.813 197.851 131.451 209.789 131.451 209.789L124.205 212.095L122.02 206.906V206.906L122.023 206.898Z" fill="#B6933F"/>
    <path fill-rule="evenodd" clip-rule="evenodd" d="M127.255 211.293C127.255 211.293 129.438 208.147 130.037 205.36C130.637 202.573 130.086 202.814 130.445 201.444C130.66 200.609 130.66 199.733 130.445 198.898C129.689 200.117 128.654 201.139 127.426 201.878C125.361 203.126 123.682 204.016 122.68 205.072C121.673 206.201 120.833 208.05 118.65 209.468C119.538 209.588 120.786 209.997 121.023 209.943C120.134 210.951 117.472 212.489 114.785 214.339C112.121 216.239 112.289 217.005 107.969 218.902C109.385 218.662 110.057 219.023 111.234 218.902C110.759 219.911 109.098 220.392 107.437 222.049C105.777 223.705 108.492 226.156 108.492 226.156L121.146 218.494L127.264 211.287L127.255 211.293Z" fill="#C49937"/>
    <path fill-rule="evenodd" clip-rule="evenodd" d="M161.59 217.012L161.302 219.317L157.678 225.13L153.887 235.339V249.296L154.175 257.367L153.576 262.653L153.12 264.333L152.639 264.982L149.545 263.374L145.273 257.561L144.865 246.341L149.017 228.638L160.87 215.69L161.59 217.012V217.012Z" fill="#DFC068"/>
    <path fill-rule="evenodd" clip-rule="evenodd" d="M152.16 265.632C152.16 265.632 154.058 265.583 154.463 257.68C154.868 249.776 155.064 245.621 155.352 241.705C155.64 237.789 156.31 235.412 156.647 233.105C156.984 230.798 157.176 227.653 158.254 225.731C158.729 224.842 159.743 222.055 162.119 219.965C164.782 217.66 168.762 216.049 169.364 215.929C170.421 215.69 175.772 215.161 177.955 213.959C178.722 213.55 180.043 213.071 181.506 211.701C184.41 209.083 188.272 204.399 191.056 198.754C195.327 190.322 199.597 166.517 199.597 166.517L198.637 168.126C198.637 168.126 198.517 170.264 196.382 174.012C194.294 177.759 194.893 181.963 191.991 189.145C190.863 191.883 189.448 195.438 187.72 198.466C184.984 203.391 181.673 207.619 178.337 209.924C172.892 213.671 166.892 214.488 166.892 214.488L160.437 218.763C160.437 218.763 159.309 220.949 157.821 223.447C155.735 226.953 153.076 230.869 152.495 236.562C151.606 244.994 153.743 250.519 153.623 255.515C153.503 260.511 153.455 264.186 152.446 265.076C151.437 265.966 152.158 265.629 152.158 265.629V265.629L152.16 265.632Z" fill="#A88F33"/>
    <path fill-rule="evenodd" clip-rule="evenodd" d="M152.16 227.917C152.16 227.917 149.313 234.932 148.01 241.154C147.769 242.403 147.29 243.651 147.17 244.66C146.57 250.545 146.403 252.971 147.17 256.191C147.769 258.566 150.072 260.707 151.273 262.366C152.448 264.097 153 264.742 152.76 265.106C152.519 265.47 151.584 266.065 150.673 265.994C148.716 265.937 146.868 265.078 145.561 263.619C143.714 261.481 142.251 254.226 142.251 254.226L140.712 244.652L136.8 232.593L152.157 227.908V227.908L152.16 227.917Z" fill="#C99E3D"/>
    <path fill-rule="evenodd" clip-rule="evenodd" d="M125.407 235.219C125.407 235.219 125.935 234.98 126.894 235.219C126.811 234.419 127.181 233.64 127.854 233.201C128.862 233.61 138.293 232.793 138.293 232.793C138.293 232.793 142.684 233.563 144.052 239.376C145.011 243.244 143.333 248.576 143.885 252.083C144.725 257.249 145.9 258.259 146.02 259.866C146.14 261.473 146.26 261.883 146.26 262.892C146.789 263.013 147.1 263.18 147.627 263.18C147.747 263.655 147.508 264.07 148.035 264.911C147.747 264.791 145.78 264.55 143.477 262.365C141.579 260.587 141.579 259.939 141.292 259.578C140.933 259.218 138.029 256.728 136.781 254.245C135.533 251.762 133.11 243.844 132.558 242.547C132.39 242.018 132.03 241.49 131.134 240.289C129.743 238.558 127.704 235.697 125.401 235.222V235.222L125.407 235.219Z" fill="#B58634"/>
    <path fill-rule="evenodd" clip-rule="evenodd" d="M140.954 259.458C139.501 257.107 138.195 254.668 137.044 252.154C135.628 248.96 134.789 246.341 133.012 244.204C133.972 246.989 135.676 252.466 136.683 254.412C137.811 256.471 140.114 258.688 140.954 259.456V259.456V259.458Z" fill="#A88F33"/>
    <path fill-rule="evenodd" clip-rule="evenodd" d="M157.271 219.965C157.271 219.965 159.694 219.365 164.205 216.986C165.694 216.218 167.108 215.571 168.476 214.969C172.03 213.36 175.842 211.873 178.866 211.053C178.626 210.765 178.507 210.646 178.507 210.646C178.507 210.646 178.507 209.468 177.859 208.796C178.218 208.435 183.018 205.168 181.601 194.239C180.643 194.599 179.515 195.08 179.347 195.08C179.058 195.031 178.987 194.239 178.627 194.239C178.268 194.239 177.092 194.714 175.844 196.329C175.891 195.68 176.611 189.147 172.748 184.751C172.029 185.592 170.205 188.379 170.205 188.379L170.157 189.267C170.157 189.267 169.99 192.366 168.981 195.2C167.971 198.035 166.005 200.125 166.005 200.125L155.738 214.803L157.274 219.966V219.966L157.271 219.965Z" fill="#E6C367"/>
    <path fill-rule="evenodd" clip-rule="evenodd" d="M166.868 198.413C167.338 198.081 167.856 197.822 168.404 197.645C168.572 198.245 168.812 200.312 167.397 202.329C165.741 204.757 162.118 207.903 161.111 210.405C160.462 212.016 160.75 216.05 154.991 221.216C149.232 226.381 146.978 228.158 146.978 228.158L137.668 232.842L126.223 228.326L131.909 206.014L136.324 195.563L153.881 198.877L166.87 198.413V198.413H166.868Z" fill="#DCBA5A"/>
    <path fill-rule="evenodd" clip-rule="evenodd" d="M160.167 204.472L157.983 207.209V209.156C157.983 209.156 155.559 209.805 152.945 212.471C150.33 215.138 146.707 220.254 143.515 219.942C140.323 219.581 140.011 213 139.891 211.149C139.771 209.298 139.363 205.097 138.716 202.837C137.996 200.579 146.49 192.028 146.49 192.028L152.258 187.633L160.167 204.472V204.472Z" fill="#E9CE77"/>
    <path fill-rule="evenodd" clip-rule="evenodd" d="M153.408 181.676C153.408 181.676 151.632 184.463 152.934 185.063C152.167 186.792 150.751 188.618 150.751 188.618C150.751 188.618 149.743 191.115 146.48 194.191C143.217 197.266 141.2 199.308 140.672 201.373C140.347 202.719 140.169 204.097 140.144 205.481C139.791 205.192 139.414 204.935 139.016 204.713C138.488 204.472 135.993 202.407 136.353 198.251C136.712 194.094 138.251 192.365 138.251 192.365C138.251 192.365 139.737 190.876 140.792 190.107C141.922 189.339 142.328 188.45 144.225 188.378C144.03 188.533 143.811 188.655 143.576 188.739C143.576 188.739 145.544 188.978 146.6 188.018C147.657 187.058 149.903 184.102 151.031 183.212C152.159 182.492 153.403 181.675 153.403 181.675V181.675L153.408 181.676Z" fill="#CDAE50"/>
    <path fill-rule="evenodd" clip-rule="evenodd" d="M73.6261 228.398C76.4609 229.432 79.44 230.016 82.4552 230.127C87.4946 230.295 94.8607 230.007 102.083 229.959C109.857 229.912 116.911 232.626 126.701 233.106C128.308 234.067 132.395 238.271 145.153 229.359C144.386 229.407 135.891 231.329 132.941 227.629C129.965 223.953 130.805 217.708 131.212 216.219C131.981 212.904 134.476 208.075 135.482 204.688C136.488 201.301 136.251 199.521 136.971 197.146C137.691 194.771 139.274 193.591 138.339 190.853C137.091 191.621 136.441 191.621 134.356 196.305C132.272 200.989 132.7 204.329 129.244 208.292C125.861 212.28 120.228 217.733 118.087 219.103C115.945 220.473 98.9399 229.312 81.1345 220.88C76.8401 221.336 73.6245 228.4 73.6245 228.4V228.4L73.6261 228.398Z" fill="#D2A83E"/>
    <path fill-rule="evenodd" clip-rule="evenodd" d="M137.98 231.667C137.998 231.848 138.037 232.025 138.099 232.196C138.265 232.548 138.484 232.872 138.747 233.157C138.747 233.157 142.97 233.925 145.106 233.686C148.85 233.278 152.233 228.641 153.816 226.263C155.399 223.884 157.367 220.211 159.502 218.312C159.479 218.497 159.522 218.684 159.623 218.841C159.623 218.841 159.502 218.673 159.741 218.432C159.98 218.192 159.982 218.073 159.861 217.957L159.501 217.598C159.382 217.598 156.07 219.088 151.559 223.298C146.76 227.694 143.089 229.949 141.169 230.722C140.145 231.158 139.074 231.475 137.978 231.667V231.667H137.98Z" fill="#C29637"/>
    <path fill-rule="evenodd" clip-rule="evenodd" d="M56.0609 249.729C56.0609 249.729 56.8296 248.769 57.7897 247.711C59.925 245.453 62.7088 242.908 65.0846 240.289C67.3385 237.79 69.8819 235.844 72.7385 232.578C75.5951 229.311 78.9072 225.685 79.7456 224.627C80.5127 223.569 81.1122 221.84 81.1122 220.952C81.5203 221.24 81.9995 221.552 81.9995 221.552C81.7977 221.175 81.5565 220.82 81.2798 220.494C80.6804 219.653 79.7456 218.594 79.2647 217.948C78.6748 217.125 78.2514 216.195 78.0183 215.21C77.7304 215.162 75.883 214.801 73.5784 218.597C71.2739 222.392 68.2528 226.548 68.2528 226.548L63.4538 233.683L60.4296 239.735L56.6334 246.509L56.0561 249.729V249.729H56.0609Z" fill="#AC8132"/>
    <path fill-rule="evenodd" clip-rule="evenodd" d="M51.1418 254.581C51.1418 254.581 54.0458 252.205 55.1736 250.78C56.3014 249.355 58.9697 245.615 58.9697 245.615L58.0096 245.735L53.1379 250.058L51.2399 253.445L51.1434 254.574L51.1418 254.581Z" fill="#A88F33"/>
    <path fill-rule="evenodd" clip-rule="evenodd" d="M52.0306 63.6809C52.0306 63.6809 52.078 65.6508 50.974 66.8273C49.8462 68.0054 46.9912 69.7346 44.2074 76.2207C41.4235 82.7067 41.1135 84.1714 41.1135 84.1714C41.1135 84.1714 46.1038 79.896 49.1803 78.8873C48.4606 80.3773 48.0525 81.4335 47.6919 82.2031C48.1 82.5626 49.8272 82.9711 49.9949 83.1627C49.0364 84.1239 48.5081 86.4786 46.5641 88.0399C44.0682 89.9401 39.5097 93.2053 35.9666 96.1158C32.4235 99.0263 25.4576 105.796 24.5687 107.766C24.0404 106.998 23.9218 106.518 23.9218 106.518C23.9218 106.518 27.4237 101.953 29.2474 99.0469C30.8561 96.5481 30.7358 95.1309 30.7358 95.1309L27.4237 96.556C27.4237 96.556 26.4652 93.001 30.807 87.595C28.909 88.3155 28.1434 87.8832 27.0647 88.4849C28.8409 87.3543 31.2879 85.8167 33.5909 81.5903C35.8464 77.3624 38.9181 72.4377 44.0998 69.3641C49.1392 66.1211 52.0432 63.6951 52.0432 63.6951V63.6951L52.0306 63.6809Z" fill="#A67A2E"/>
    <path fill-rule="evenodd" clip-rule="evenodd" d="M65.0356 225.898C65.0356 225.898 67.0032 221.792 67.2911 218.597C67.3385 217.827 67.5315 217.227 67.5315 216.339C67.579 213.481 67.3638 210.285 68.006 208.797C68.2464 209.397 68.3667 209.805 68.6071 210.044C68.9661 209.036 69.6146 205.889 70.1429 204.713C70.3818 205.481 70.9101 208.147 70.861 211.294C70.812 214.44 70.7424 215.042 70.7424 215.69C70.861 214.73 71.5095 213.432 71.75 212.664C72.109 213.311 72.5171 214.152 72.9979 214.849C73.2858 214.374 73.6449 213.672 73.9565 213.311C74.0055 213.599 74.1241 214.369 74.1969 215.449C74.2443 216.698 74.3171 218.307 74.2443 218.644C74.1257 219.292 73.1166 221.838 70.9812 224.169C68.4378 226.956 65.8217 232.312 65.0545 233.97C64.2874 235.628 61.0243 242.521 61.0243 242.521H58.5284L62.1521 234.258C62.1521 234.258 64.3349 229.742 65.4626 228.082C66.5904 226.423 68.9661 221.667 70.0227 219.818C69.2556 220.827 68.6071 221.355 67.8384 222.317C67.095 222.99 65.0324 225.895 65.0324 225.895V225.895L65.0356 225.898Z" fill="#8C6228"/>
    <path fill-rule="evenodd" clip-rule="evenodd" d="M51.0943 254.894C51.502 253.637 52.1463 252.471 52.9923 251.457C54.4807 249.679 57.6726 247.302 59.2306 245.405C60.6542 243.556 63.5013 238.511 62.2074 232.53C61.7329 233.827 60.8392 236.397 58.4635 239.304C56.0878 242.211 53.5443 245.549 52.2948 248.143C51.0484 250.762 50.8807 252.827 50.8807 252.827L50.4062 253.427L50.6941 254.797L51.1022 254.894L51.0943 254.894Z" fill="#CBA94C"/>
    <path fill-rule="evenodd" clip-rule="evenodd" d="M2.50552 95.5581C2.50552 95.5581 3.46562 98.1756 3.7535 100.554C4.04137 102.932 3.27898 103.404 4.16158 106.126C4.68988 107.784 5.6484 107.552 5.88882 107.784C6.12924 108.017 6.29691 110.522 6.24945 111.892C6.202 113.262 6.2969 115.038 6.53733 115.808C6.89638 116.096 7.1368 116.337 7.66509 118.114C8.26457 119.892 8.55244 120.78 8.84031 121.307C9.12819 121.835 9.96966 122.316 9.96966 122.845C9.96966 123.903 9.00956 124.454 9.00956 124.745C9.05701 125.345 9.77669 124.864 9.96966 125.033C10.2085 125.322 9.36861 127.051 9.68021 127.292C9.80042 127.41 10.6403 126.402 10.857 126.69C11.0974 126.98 11.3853 129.838 11.8171 131.735C12.2236 133.584 12.657 134.929 12.7045 135.481C12.7519 136.01 16.0166 145.331 16.8074 147.589C17.4448 149.497 17.9812 151.437 18.4145 153.402C18.6549 154.531 18.8226 156.838 18.9428 156.597C19.063 156.357 18.9902 155.18 19.1832 155.228C19.3509 155.277 19.9503 159.383 20.1417 160.032C20.3094 160.681 21.3185 162.882 21.5653 164.475C21.8057 166.086 22.3324 170.29 22.693 173.148C23.0537 176.006 23.2213 177.183 23.2213 177.899C23.1623 179.649 23.2587 181.402 23.5092 183.135C23.9837 186.163 24.9327 189.838 25.7647 191.974C27.3718 196.011 31.644 206.34 32.408 208.91C32.408 209.559 31.5681 209.198 31.5681 209.198C31.5681 209.198 29.4818 203.962 27.9459 199.927C26.4575 195.89 25.0419 192.336 24.6813 191.974C24.3934 191.615 22.1378 187.652 21.1303 181.165C20.1227 174.679 19.7637 168.699 19.1626 164.711C18.8748 162.811 18.6343 160.795 18.0349 158.778C17.3879 156.591 16.3804 154.333 15.0596 150.875C13.9319 147.967 13.092 145.541 12.6364 143.451C12.1081 140.785 12.1081 138.767 11.7966 137.445C11.5071 136.316 11.0769 134.059 10.0677 130.794C9.05859 127.529 7.57335 123.323 6.5658 120.706C4.59655 115.469 3.7187 111.097 3.42134 108.766C3.15877 106.364 2.26984 98.0521 2.51027 95.555V95.555L2.50552 95.5581Z" fill="#A88F33"/>
    <path fill-rule="evenodd" clip-rule="evenodd" d="M50.9746 255.182L51.0948 254.894C51.0948 254.894 50.7357 254.773 50.8069 254.292C50.8018 253.633 50.842 252.975 50.9271 252.322C51.0457 251.481 51.2862 250.834 51.3336 250.305C51.3336 249.176 51.1659 247.879 52.7572 244.66C53.2317 243.771 53.5243 243.003 53.7647 242.474C54.3642 241.177 54.4844 240.984 55.0127 240.384C54.1728 240.859 51.1486 242.759 49.6143 242.474C50.6693 241.874 52.2779 240.696 53.2855 239.158C53.045 239.111 52.0375 238.918 50.4384 239.158C47.7747 239.567 44.7995 240.528 42.1849 240.337C39.3283 240.169 40.4561 243.771 40.4561 243.771L43.7524 251.025L49.9907 255.419L50.9746 255.18V255.182Z" fill="#BE9C44"/>
    <path fill-rule="evenodd" clip-rule="evenodd" d="M34.7067 200.844C34.7067 200.844 37.4905 203.631 38.6182 213.195C39.746 222.804 39.5056 236.948 39.5056 236.948L41.7611 242.473C41.7611 242.473 42.2356 246.148 43.4172 247.516C44.5987 248.884 46.9191 251.192 47.9757 252.321C49.0323 253.45 50.2312 254.987 50.9509 255.228C50.5919 255.828 48.9833 259.215 42.8177 259.263C36.6522 259.31 34.7509 255.876 34.1072 254.626C33.4634 253.377 30.5562 247.975 29.4775 237.683C28.4699 227.403 28.4209 226.633 28.5886 223.078C28.7088 221.108 29.3573 216.545 30.4866 211.669C31.5179 207.536 32.6457 202.923 34.7098 200.835L34.7067 200.844Z" fill="#A17C34"/>
    <path fill-rule="evenodd" clip-rule="evenodd" d="M43.4356 192.653C42.5079 192.586 41.5811 192.795 40.772 193.255C39.8846 193.302 36.669 192.894 34.1983 196.04C34.0307 195.321 33.5973 193.373 34.7266 191.644C34.1256 192.246 33.2382 192.485 33.118 192.653C33.0706 191.765 32.2307 189.027 35.7817 182.373C34.8231 183.429 33.6954 183.382 32.6878 183.502C32.6388 182.252 31.9681 178.05 33.7428 175.79C34.918 174.253 36.8382 174.734 36.8382 174.734C36.8102 175.07 36.8102 175.407 36.8382 175.743C36.8857 176.392 37.1261 177.04 36.9569 177.472C37.8847 177.896 38.7299 178.482 39.4528 179.203C41.5407 181.173 44.2518 184.534 44.4432 187.033C44.6836 189.82 42.1876 190.42 42.1876 190.42C42.3967 190.607 42.575 190.827 42.7159 191.069C42.8361 191.476 42.9563 192.126 43.4356 192.653V192.653V192.653Z" fill="#8C6228"/>
    <path fill-rule="evenodd" clip-rule="evenodd" d="M61.9418 222.872C61.9418 222.872 62.0621 223.04 62.709 222.272C62.5888 223.04 62.4686 223.762 62.4211 224.459C62.1149 225.104 61.7187 225.702 61.2443 226.236C61.6049 225.517 61.8454 224.867 61.8454 224.867C61.8454 224.867 60.9564 226.525 59.661 227.534C58.7737 228.255 57.6459 228.59 57.1666 229.263C56.6383 229.984 56.7585 230.104 56.6383 230.224C56.6383 230.224 55.4615 230.992 53.6615 233.252C53.4227 233.54 53.0621 233.852 52.8216 234.14C52.4151 234.308 51.455 234.741 50.3273 235.319C49.1505 235.966 47.8313 236.855 47.0151 237.219C45.4081 237.939 43.703 237.866 42.9122 238.997C42.3127 239.165 41.6658 240.967 41.7844 242.503C40.897 242.143 36.3385 239.309 34.7774 233.111C33.6496 228.715 35.6663 221.941 36.5062 218.673C37.3461 215.404 37.4647 212.98 38.6415 211.492C40.1299 209.52 44.9273 206.741 46.1041 205.365C47.1116 204.236 50.1343 201.378 50.0157 199.313C49.8955 197.775 48.0006 196.938 47.5909 196.646C47.1812 196.355 47.1844 195.997 46.4157 196.171C45.647 196.345 45.3607 196.7 45.0475 196.7C44.6884 196.653 44.6884 196.58 44.5208 196.58C44.3992 196.583 44.2783 196.6 44.1601 196.629C44.1601 196.629 44.2804 194.442 49.3909 193.779C49.7515 193.729 50.1106 193.611 50.5677 193.538C49.9666 193.826 49.6076 193.826 48.9591 194.714C49.6788 194.835 51.7429 194.955 52.2712 195.123C52.1035 195.411 51.5515 196.181 51.096 196.54C50.6879 196.9 51.1434 197.015 51.5025 196.828C52.1207 196.407 52.7138 195.95 53.2788 195.46C53.8782 194.931 54.4065 194.211 55.3666 193.56C55.6545 194.521 55.6071 196.347 54.4777 197.668C54.7672 197.62 55.3192 196.779 55.8459 196.947C55.9411 197.823 55.8844 198.709 55.6782 199.566C55.3904 200.648 53.8308 202.545 53.8308 202.545L46.297 216.022L44.69 226.231L61.9418 222.875V222.875V222.872Z" fill="#92723A"/>
    <path fill-rule="evenodd" clip-rule="evenodd" d="M62.3487 222.296C62.3487 222.296 62.7568 222.007 61.9406 221.455C62.0608 221.287 62.3487 220.687 62.7093 220.278C63.1158 219.803 63.5492 219.509 63.7169 219.1C64.0759 218.259 64.3638 217.683 64.3638 217.322C64.3638 216.961 64.484 214.655 65.4916 213.167C65.8522 212.638 66.2603 211.749 66.5482 211.149C67.1476 210.093 67.6759 209.249 67.7961 208.774C68.035 207.933 68.2026 205.628 68.2026 205.628C68.2026 205.628 67.6743 206.277 67.483 206.516C67.7724 205.916 68.084 205.268 68.5396 204.787C68.2517 205.027 67.4118 205.628 65.9961 206.877C64.0285 208.533 60.9568 211.32 57.2128 213.528C58.3422 213.119 59.3007 213.119 60.0679 212.999C59.4684 213.599 54.07 219.941 51.2387 220.541C51.0668 220.759 50.9812 221.033 50.9983 221.311L53.423 221.55L58.3422 220.494L59.0603 224.294L62.3487 222.3V222.296Z" fill="#B18E3E"/>
    <path fill-rule="evenodd" clip-rule="evenodd" d="M54.5254 200.676C54.5254 200.676 55.1739 200.028 55.7734 198.418C56.235 198.9 56.6307 199.442 56.9502 200.028C57.8376 201.517 59.2042 203.415 62.3961 202.334C62.4435 203.343 62.5163 203.871 62.3961 204.592C61.8678 204.711 60.2608 206.008 58.6537 207.906C57.5244 209.203 56.4694 210.693 55.7497 212.59C55.2752 212.951 54.4543 213.551 53.3771 214.248C51.8413 215.304 49.9938 216.747 49.7059 218.356C50.4256 218.068 51.9615 217.347 54.266 217.466C53.3771 217.874 52.0105 218.307 52.1782 220.085C51.8175 220.326 51.5297 220.494 51.5297 220.494C51.8001 220.584 52.0846 220.625 52.3696 220.614C52.4186 220.782 52.4898 221.021 52.8978 220.902C53.3059 220.783 53.3724 220.782 53.4261 220.614C53.5938 220.565 54.1458 220.614 54.5539 220.324C54.962 220.034 56.0898 219.076 56.5216 218.908C56.3539 219.197 56.1151 219.627 56.1151 219.627C56.1151 219.627 57.2903 219.509 58.1302 219.152C59.666 218.623 61.4407 217.662 63.2407 216.726C63.0731 217.015 63.0003 217.201 62.8817 217.255C62.763 217.309 62.4736 217.374 62.4736 217.423C62.4736 217.472 62.5922 217.898 62.521 218.071C61.9829 219.212 61.3479 220.305 60.623 221.338C59.7831 222.468 59.6154 224.077 59.6154 224.077L55.9442 225.927L45.6267 228.302L38.9312 227.893L39.7711 223.257L43.7254 215.162L47.1087 207.787L50.9729 203.27L54.5239 200.676V200.676H54.5254Z" fill="#543E26"/>
    <path fill-rule="evenodd" clip-rule="evenodd" d="M37.8016 220.741C37.8016 220.741 41.8334 215.745 42.9612 214.975C42.2415 216.513 37.8016 225.666 36.1946 228.212C36.5536 228.5 37.0345 228.5 35.9067 232.962C36.8652 230.706 37.2022 229.528 37.993 228.928C38.7839 228.327 38.8819 228.519 39.4166 228.519C39.3156 228.702 39.2741 228.912 39.2979 229.119C39.2979 229.119 42.6812 229.528 44.9921 229.528C47.303 229.528 51.8774 228.278 54.4224 227.27C56.4375 226.429 57.5652 226.429 58.2849 225.902C59.0046 225.301 59.4127 224.652 59.7733 224.484C60.0612 224.316 61.4278 223.884 61.741 223.428C62.0288 222.953 62.5081 222.419 62.5081 222.299C62.5081 222.179 62.6283 222.009 62.2677 222.131C62.1491 222.179 61.2601 222.66 60.2526 223.26C58.886 224.028 57.2299 224.917 56.0294 225.446C52.5986 226.815 51.5183 226.575 49.984 226.863C48.377 227.151 46.0724 227.824 44.5382 227.824C43.0023 227.871 40.0983 227.824 39.4261 227.704C39.7139 227.463 39.9543 227.175 39.8341 226.166C39.8341 225.878 40.0746 225.566 40.3087 224.869C41.0268 222.899 42.3949 219.632 43.1558 217.975C44.2108 215.718 45.4097 213.819 46.0028 212.643C46.596 211.466 47.9009 208.367 49.1932 206.709C50.4854 205.052 51.1608 204.043 51.5658 203.682C51.9707 203.321 54.8779 201.185 54.6612 200.415C54.1329 200.583 50.797 201.84 48.3754 204.57C45.9538 207.3 45.4714 208.966 43.5765 210.456C41.6816 211.946 40.1932 214.443 39.3058 216.508C38.5624 218.431 38.7301 219.031 37.7953 220.736V220.736L37.8016 220.741Z" fill="#806031"/>
    <path fill-rule="evenodd" clip-rule="evenodd" d="M124.686 183.453C124.686 183.453 125.214 181.268 126.415 180.186C127.59 179.128 129.678 178.216 129.917 176.438C130.205 174.661 127.829 173.771 127.829 173.771C127.829 173.771 129.126 171.634 129.126 170.025C129.126 168.367 129.173 168.055 129.006 166.47C129.196 166.347 129.358 166.185 129.48 165.995C129.48 165.995 129.362 164.457 128.185 163.498C127.008 162.538 126.002 161.96 125.402 162.201C125.311 162.005 125.231 161.804 125.162 161.599C125.162 161.599 124.273 163.857 123.674 165.827C123.074 167.844 122.546 167.558 122.307 170.272C122.068 172.986 119.46 177.646 119.46 177.646L117.681 181.629L120.583 183.887L124.686 183.454V183.453Z" fill="#B6903C"/>
    <path fill-rule="evenodd" clip-rule="evenodd" d="M119.287 179.538C119.886 178.923 120.438 178.265 120.94 177.568C121.707 176.51 122.307 175.551 123.434 175.141C124.562 174.731 125.282 174.734 125.211 173.603C125.14 172.472 124.083 171.994 123.483 171.418C122.835 170.818 122.307 169.809 122.595 168.678C122.236 168.846 121.587 169.039 120.988 170.336C120.388 171.633 116.195 179.537 116.195 179.537H119.287V179.538Z" fill="#685026"/>
    <path fill-rule="evenodd" clip-rule="evenodd" d="M102.75 197.77C102.75 197.77 102.391 198.73 102.75 199.427C103.111 200.147 105.294 200.388 106.374 201.205C107.502 202.046 108.87 202.63 109.998 202.261C109.83 202.67 109.158 203.56 109.71 203.751C110.238 203.919 112.204 203.031 112.733 202.622C113.261 202.214 114.461 201.734 114.7 201.444C114.939 201.154 115.349 200.603 115.589 200.844C115.83 201.012 115.948 201.444 116.356 201.205C116.764 200.966 118.729 199.355 119.091 198.418C119.453 197.48 120.268 195.39 122.715 193.013C125.162 190.637 126.218 189.097 125.499 188.209C124.779 187.321 124.442 187.968 124.322 187.2C124.229 186.446 124.27 185.682 124.442 184.942C124.73 183.693 125.209 182.516 124.562 182.276C122.906 181.747 121.298 182.751 120.939 182.443C120.219 181.796 121.347 179.465 119.643 179.009C117.914 178.534 116.211 179.417 116.211 179.417L109.925 182.805L103.878 185.998L100.784 192.125L102.444 197.241L102.76 197.77H102.75Z" fill="#D4B968"/>
    <path fill-rule="evenodd" clip-rule="evenodd" d="M108.682 183.14C108.682 183.14 109.739 184.749 108.442 186.168C107.144 187.587 105.299 188.185 104.579 189.074C104.716 189.243 104.9 189.368 105.107 189.433C104.63 190.289 103.901 190.977 103.019 191.404C103.378 191.764 103.859 192.052 104.386 192.052C105.563 192.052 106.284 191.332 107.363 191.332C108.418 191.332 108.538 191.86 108.538 191.86C108.538 191.86 106.762 192.028 106.931 192.822C107.099 193.663 107.405 193.662 107.405 193.662C107.405 193.662 103.975 195.088 103.375 195.848C102.776 196.608 102.847 197.506 102.727 197.865C102.32 197.865 99.9445 199.115 98.9844 198.586C98.0243 198.057 98.6965 196.616 98.6965 196.616C98.6965 196.616 95.7909 198.803 94.3104 200.947C93.015 200.826 92.4123 201.835 91.4633 201.835C90.2865 201.835 88.4391 200.226 88.08 196.792C87.8396 194.822 87.4805 193.693 87.8396 190.209C88.0073 188.239 87.9598 184.033 87.3651 181.946C86.9586 180.288 85.9985 180.456 85.9985 180.456C86.1458 179.951 86.4378 179.5 86.8384 179.159C87.4869 178.559 87.558 176.972 87.4869 176.372C87.3912 175.933 87.2708 175.5 87.1262 175.075C87.1262 175.075 87.8934 174.187 88.0863 173.585C88.254 172.985 89.0449 172.577 89.6222 172.577C90.1995 172.577 89.9101 172.626 90.6772 172.577C91.4443 172.527 91.6848 172.409 92.1656 172.577C92.6464 172.744 93.0055 172.938 92.8125 174.477C92.6449 176.014 98.7392 179.593 98.7392 179.593L108.704 183.148V183.148L108.682 183.14Z" fill="#CCA849"/>
    <path fill-rule="evenodd" clip-rule="evenodd" d="M120.127 167.959C120.127 167.959 117.944 165.052 108.97 165.052C104.699 165.052 103.211 165.461 102.326 165.701C101.366 165.942 97.7679 167.358 94.1442 171.635C90.8811 175.502 91.6008 177.087 91.6008 177.087L93.4988 177.375L99.6675 176.534L117.921 168.751L120.135 167.959H120.127Z" fill="#585136"/>
    <path fill-rule="evenodd" clip-rule="evenodd" d="M113.433 167.239C113.433 167.239 121.207 165.508 121.207 170.433C121.207 175.237 116.408 180.282 115.208 181.171C113.96 182.061 110.985 183.071 110.985 183.071H103.81L102.443 179.443L103.043 171.613L113.433 167.241V167.239Z" fill="#252211"/>
    <path fill-rule="evenodd" clip-rule="evenodd" d="M106.259 181.603C106.259 181.603 107.745 182.973 111.129 181.128C114.512 179.283 117.248 175.427 117.416 171.926C117.584 168.829 114.873 166.522 110.649 166.402C107.506 166.283 105.61 166.642 104.65 166.877C104.89 167.165 106.138 168.726 106.138 168.726L106.257 181.602V181.602L106.259 181.603Z" fill="#C3B378"/>
    <path fill-rule="evenodd" clip-rule="evenodd" d="M107.722 180.837C107.722 180.837 108.081 181.125 109.145 180.548C110.032 180.073 111.328 178.818 112.335 177.929C112.984 177.4 113.392 177.161 113.759 176.753C115.247 174.975 116.495 172.067 115.774 170.626C115.053 169.185 112.679 167.527 106.632 168.656L107.739 180.835V180.835L107.722 180.837Z" fill="#E6D89C"/>
    <path fill-rule="evenodd" clip-rule="evenodd" d="M109.69 177.856C109.69 177.856 110.65 176.366 110.65 173.988C110.65 171.562 109.282 167.695 104.242 167.407C100.38 167.166 97.7888 172.979 94.9812 175.237C92.8459 176.967 91.5504 177.016 91.5504 177.016C91.5504 177.016 93.7332 179.391 99.5634 182.468C105.322 185.567 111.777 185.975 115.281 181.218C113.625 181.339 108.274 182.708 108.274 182.708L105.658 181.868L109.69 177.855V177.855V177.856Z" fill="#252211"/>
    <path fill-rule="evenodd" clip-rule="evenodd" d="M100.708 173.339C101.065 173.807 101.321 174.434 99.8386 174.588C98.3565 174.743 97.6929 174.652 97.1809 173.97C96.6689 173.287 96.1703 172.718 96.9282 172.436C97.6929 172.186 99.687 172.436 100.711 173.343L100.708 173.339ZM103.11 177.749C103.11 177.749 103.622 177.53 103.366 177.967C103.265 178.497 102.598 179.437 100.964 179.217C99.3304 178.996 99.6841 177.903 99.9536 177.59C100.223 177.277 101.587 176.747 102.611 176.971C102.875 177.013 103.09 177.128 103.191 177.283C103.292 177.437 103.267 177.612 103.123 177.753L103.11 177.749Z" fill="#6F674D"/>
    <path fill-rule="evenodd" clip-rule="evenodd" d="M168.234 176.561C168.234 176.561 166.336 175.136 164.131 175.191C161.948 175.24 159.141 177.497 157.845 178.939C157.078 179.78 156.422 180.668 155.71 181.365C155.109 181.965 154.702 182.253 154.414 182.662C154.006 183.137 153.574 184.03 153.358 184.32C153.886 183.911 154.653 183.189 155.446 182.709C156.213 182.234 157.869 181.341 158.541 181.101C159.188 180.86 165.907 177.3 165.907 177.3L168.234 176.561V176.561Z" fill="#AC924C"/>
    <path fill-rule="evenodd" clip-rule="evenodd" d="M165.333 194.311C165.333 194.311 164.278 195.031 162.237 195.489C160.269 195.964 156.31 196.33 156.31 196.33L153.047 194.904L151.752 189.98L154.124 184.862L157.147 182.962L160.579 188.486L165.325 194.301V194.301L165.333 194.311Z" fill="#9F8E57"/>
    <path fill-rule="evenodd" clip-rule="evenodd" d="M169.603 189.915L170.733 189.071C170.733 189.071 170.443 189.6 170.204 191.208C169.966 192.817 168.716 196.733 166.892 198.991C165.069 201.249 165.116 201.129 165.116 201.129C165.455 201.191 165.805 201.104 166.076 200.89C165.836 201.422 164.3 203.322 162.764 204.272C161.228 205.222 160.629 205.522 159.022 204.747C157.415 203.973 157.006 203.571 155.83 203.618C154.653 203.666 153.647 204.915 153.647 204.915C153.647 204.915 153.406 204.147 154.294 202.369C155.181 200.591 158.685 196.964 158.685 196.964L165.98 191.968L169.603 189.91V189.91V189.915Z" fill="#EAC970"/>
    <path fill-rule="evenodd" clip-rule="evenodd" d="M164.207 194.91C164.207 194.91 158.927 194.19 157.32 195.678C157.273 195.51 157.08 195.51 157.08 195.39C157.092 195.299 157.135 195.215 157.2 195.151C157.025 195.179 156.848 195.195 156.671 195.199C156.46 195.136 156.243 195.095 156.023 195.078C155.846 195.082 155.669 195.098 155.495 195.127C155.528 194.886 155.659 194.669 155.855 194.526C155.615 194.526 155.381 194.478 155.381 194.286C155.381 194.095 155.333 193.517 155.621 193.396C155.86 193.33 156.114 193.348 156.341 193.446C156.322 192.991 156.198 192.546 155.98 192.147C155.506 191.259 154.493 190.247 153.133 190.538C153.133 190.538 152.415 188.809 155.438 184.966C155.844 184.437 156.278 183.717 156.804 183.116C157.012 182.662 157.172 182.187 157.279 181.699C157.279 181.699 152.167 183.669 150.704 188.161C149.215 192.678 148.927 197.121 149.215 201.276C149.264 202.454 149.456 203.293 149.744 203.895C150.463 205.385 152.48 205.144 153.295 204.304C154.471 203.126 156.439 200.196 159.174 198.179C161.958 196.161 162.076 195.803 164.213 194.91V194.91H164.207Z" fill="#D7BC6B"/>
    <path fill-rule="evenodd" clip-rule="evenodd" d="M170.54 188.425C170.54 188.425 171.548 187.825 172.076 185.574C172.604 183.269 171.601 180.458 171.021 179.57C170.44 178.681 169.123 176.254 166.39 176.134C165.713 176.137 165.044 176.276 164.422 176.542C163.468 176.98 162.573 177.537 161.758 178.2C160.582 179.088 159.623 179.856 159.743 179.929C160.031 180.05 166.989 185.815 166.989 185.815L169.605 188.738L170.542 188.422L170.54 188.425Z" fill="#585136"/>
    <path fill-rule="evenodd" clip-rule="evenodd" d="M163.963 178.865C163.963 178.865 162.547 178.984 161.707 179.513C160.867 180.042 166.626 185.758 166.626 185.758L166.218 179.583L163.963 178.865Z" fill="#453A25"/>
    <path fill-rule="evenodd" clip-rule="evenodd" d="M170.084 188.858C170.084 188.858 170.804 187.489 170.804 187.127C170.924 185.951 170.563 182.252 170.276 181.075C169.988 179.826 168.428 177.929 166.411 177.929C165.165 177.929 163.436 178.697 163.436 178.889C163.436 179.129 165.212 179.364 165.692 180.258C165.98 180.733 166.1 181.915 166.166 183.109C166.214 183.877 166.214 184.717 165.926 185.009C165.277 185.729 165.159 187.796 165.159 187.796L162.856 192.079H165.885L169.508 189.821L170.084 188.858Z" fill="#84754B"/>
    <path fill-rule="evenodd" clip-rule="evenodd" d="M170.971 187.536C170.971 187.536 168.599 190.683 166.46 191.405C164.322 192.127 163.365 191.693 163.365 191.693L164.613 188.498L166.389 186.528L166.269 185.519C166.269 185.519 166.558 182.852 164.782 181.003C163.006 179.153 161.687 179.225 160.918 179.225C160.149 179.225 157.943 179.874 156.815 182.541C155.807 185.038 154.968 188.241 156.983 191.452C158.952 194.648 162.43 194.771 163.102 194.771C163.775 194.771 169.053 194.507 170.971 187.541V187.541V187.536Z" fill="#252211"/>
    <path fill-rule="evenodd" clip-rule="evenodd" d="M110.05 176.848C110.937 177.256 110.097 179.753 109.21 180.523C108.323 181.293 107.195 182.179 105.226 182.301C104.508 182.349 103.812 181.893 103.93 181.411C104.098 180.523 105.346 179.274 106.474 178.385C108.033 177.16 109.042 176.392 110.05 176.848Z" fill="#F7F7E7"/>
    <path fill-rule="evenodd" clip-rule="evenodd" d="M158.04 190.468C157.391 190.515 156.551 189.993 156.384 189.29C156.216 188.522 156.792 186.984 158.04 186.984C159.047 186.984 159.576 188.233 159.576 188.593C159.564 188.888 159.482 189.177 159.335 189.434C159.288 189.507 159.168 190.347 158.04 190.468V190.468Z" fill="#F8F6DE"/>
    <path fill-rule="evenodd" clip-rule="evenodd" d="M167.397 189.915C167.397 189.915 169.053 189.147 169.82 187.539C170.368 186.352 170.534 185.024 170.295 183.739C170.174 183.139 169.575 181.65 169.167 181.121C168.759 180.592 168.207 180.231 167.799 180.281C167.391 180.33 166.552 181.41 166.552 182.057C166.552 182.705 166.503 185.444 165.712 186.934C165.016 188.423 167.392 189.913 167.392 189.913V189.913L167.397 189.915Z" fill="#D4C38B"/>
    <path fill-rule="evenodd" clip-rule="evenodd" d="M167.156 190.035C167.444 189.868 167.924 189.627 167.805 189.315C167.685 189.027 166.677 188.84 166.317 188.137C165.908 187.416 165.908 186.648 166.029 186.287C165.715 186.436 165.431 186.64 165.189 186.889C164.661 187.489 164.014 188.305 163.462 188.305C163.101 188.305 162.742 188.137 162.405 188.137C161.877 188.137 161.35 188.305 161.277 188.857C161.159 189.578 162.285 190.227 162.933 190.107C162.813 190.582 162.645 191.283 163.174 191.765C163.702 192.246 165.356 191.404 165.717 191.163C166.078 190.922 167.156 190.034 167.156 190.034V190.034V190.035Z" fill="#E2D59D"/>
    <path fill-rule="evenodd" clip-rule="evenodd" d="M129.029 139.565L125.478 140.615L124.47 139.895C124.47 139.895 123.752 138.357 122.623 138.166C122.984 137.398 123.92 136.74 123.871 136.196C123.822 135.651 123.343 135.234 123.343 135.234C123.343 135.234 126.535 129.95 120.247 124.625C121.736 124.025 123.631 123.2 124.638 122.725C123.92 122.557 122.384 122.25 121.736 121.667C121.087 121.084 121.087 120.899 120.488 120.538C119.888 120.177 119.529 119.697 119.648 119.482C120.056 119.722 121.424 120.441 121.663 119.77C121.902 119.099 127.59 119.361 127.59 119.361L137.187 117.512C137.187 117.512 136.828 118.473 137.836 119.361C139.011 120.418 140.451 119.314 141.986 120.49C144.002 122.028 144.074 123.806 144.721 124.478C144.074 124.886 142.754 125.486 139.611 125.903C139.731 126.144 140.139 126.864 139.899 127.512C139.611 128.353 138.412 128.881 138.771 129.887C138.242 130.007 138.004 130.007 136.683 131.665C135.435 133.323 134.668 133.683 133.708 133.803C132.748 133.923 132.172 133.803 130.396 135.461C129.149 136.637 129.556 137.646 129.556 137.646C129.556 137.646 128.741 137.911 129.027 139.569V139.569L129.029 139.565Z" fill="#CBAC5A"/>
    <path fill-rule="evenodd" clip-rule="evenodd" d="M139.514 139.032C139.467 139.272 139.274 139.393 137.978 139.272C136.683 139.152 128.477 140.04 126.245 140.161C123.99 140.329 116.048 140.21 112.184 139.393C108.32 138.576 104.41 137.615 102.515 137.135C100.617 136.606 100.019 136.416 100.092 136.175C100.139 135.934 100.566 135.7 100.811 135.767C101.05 135.814 107.337 137.737 109.28 138.142C111.222 138.547 117.943 139.632 121.617 139.567C125.048 139.518 126.416 139.615 129.319 139.279C132.223 138.918 137.022 138.438 138.461 138.63C139.884 138.797 139.59 138.797 139.517 139.038V139.038L139.514 139.032Z" fill="#D6BC6F"/>
    <path fill-rule="evenodd" clip-rule="evenodd" d="M120.2 120.204C120.2 120.204 115.281 117.538 113.505 114.271C112.209 111.845 114.272 110.643 114.272 110.643C114.272 110.643 111.488 110.643 111.848 109.106C112.016 108.146 116.647 105.552 119.743 104.182C122.886 102.813 122.766 102.884 124.301 102.645C125.79 102.404 129.869 103.12 130.709 101.924C131.549 100.729 131.183 99.4969 130.949 99.3053C130.709 99.1374 128.765 98.8967 128.765 98.8967C128.765 98.8967 129.173 97.7677 133.203 97.6474C137.234 97.527 138.243 97.2404 138.483 96.8065C138.724 96.3996 137.716 96.6387 135.867 96.3315C134.019 96.0433 131.429 95.8564 131.429 95.8564C131.429 95.8564 132.269 95.1359 134.451 94.5595C136.947 93.9119 140.859 93.3101 142.034 92.5897C141.435 92.1811 140.546 91.581 140.136 91.5335C141.144 91.2928 142.561 90.7639 142.8 90.5723C142.441 90.3316 141.96 90.0434 141.96 90.0434C141.96 90.0434 143.976 87.6175 145.152 87.0157C146.327 86.414 153.093 83.2692 155.422 83.8693C161.228 85.4069 161.948 91.7726 163.364 92.2524C165.499 92.9729 166.506 91.5335 168.403 92.5421C167.563 93.1423 167.106 93.5018 166.219 93.9103C167.179 94.3853 172.145 97.5381 172.145 97.5381C172.665 98.6714 173.241 99.7776 173.873 100.852C174.833 102.51 176.245 104.721 177.305 106.667C179.608 110.942 179.728 112.912 181.816 115.338C181.455 115.813 180.209 115.747 180.209 115.747L162.715 109.981L131.696 109.082L123.629 120.611L120.198 120.203L120.2 120.204Z" fill="#DFC677"/>
    <path fill-rule="evenodd" clip-rule="evenodd" d="M166.149 102.621C165.962 102.412 165.744 102.234 165.502 102.092C164.901 101.683 164.014 101.202 163.414 100.483C163.174 100.843 162.574 101.492 161.516 100.483C160.458 99.4745 159.143 100.193 158.326 99.9543C157.486 99.6645 157.438 99.5457 157.438 99.5457C157.438 99.5457 156.964 99.9543 155.903 100.387C155.254 100.627 154.487 100.795 153.647 101.034C152.88 101.202 152.04 101.443 151.463 101.443C150.934 101.083 149.039 99.0675 141.433 102.043C134.258 104.83 132.604 105.142 131.403 104.711C131.283 104.999 131.163 105.552 129.315 105.479C129.315 106.247 130.851 108.866 130.851 108.866L139.321 111.772H143.954L157.846 109.226L165.545 104.828L166.144 102.611L166.149 102.621Z" fill="#C4A859"/>
    <path fill-rule="evenodd" clip-rule="evenodd" d="M170.78 107.497C170.78 107.497 170.613 106.2 168.692 104.83C166.794 103.462 166.198 102.645 166.198 102.645C166.198 102.645 165.837 103.12 165.55 103.604C165.262 104.133 165.021 104.733 164.542 104.901C163.582 105.31 161.399 104.542 160.918 104.662C160.51 104.781 160.63 105.622 160.199 105.622C159.191 105.671 158.544 104.974 158.183 104.974C157.823 104.974 156.937 105.022 156.817 105.213C156.697 105.405 156.649 107.4 155.281 108.361C153.793 109.417 151.969 108.961 151.485 108.721C151.485 108.361 151.437 107.471 150.477 107.424C149.517 107.376 149.422 107.544 148.579 107.256C147.736 106.968 146.732 107.303 146.276 105.888C145.868 106.007 144.908 106.127 145.148 107.497C144.674 107.856 144.26 108.097 143.25 109.514C143.01 109.873 142.603 110.282 142.29 110.811C141.45 110.811 140.443 110.979 139.1 109.802C139.508 109.514 139.748 109.327 139.867 109.034C139.516 108.686 139.195 108.308 138.909 107.905C138.548 107.43 138.308 106.847 137.852 106.727C136.844 106.439 135.188 106.847 133.341 106.727C131.565 106.607 130.078 105.959 129.429 105.55C129.189 105.669 129.189 105.718 128.589 105.598C127.99 105.478 127.534 105.43 128.181 106.198C127.822 106.03 127.414 105.669 127.054 106.03C126.693 106.391 126.407 106.919 125.399 107.039C124.392 107.159 124.031 106.991 123.623 108.048C123.095 109.345 124.918 109.345 124.918 109.345C124.918 109.345 124.078 110.114 123.142 111.123C122.014 112.179 120.719 113.549 120.407 115.23C119.879 118.329 122.902 118.736 122.902 118.736L137.563 114.22L155.487 115.11L170.771 107.495V107.495L170.78 107.497Z" fill="#927D49"/>
    <path fill-rule="evenodd" clip-rule="evenodd" d="M183.953 149.895C183.953 149.895 184.427 149.295 184.72 147.878C185.012 146.46 184.887 146.628 185.128 145.619C185.368 144.611 188.321 134.57 187.214 131.183C186.107 127.796 184.19 126.546 182.991 123.808C182.751 123.208 182.516 122.847 182.392 122.318C181.983 120.542 182.343 119.172 181.863 117.394C181.696 116.793 181.262 116.097 180.615 115.376C179.192 113.888 176.871 112.47 175.87 111.462C174.456 109.972 172.439 106.944 169.872 106.657C168.504 106.49 166.56 107.066 164.953 108.026C163.53 108.915 162.65 110.163 161.157 110.876C160.102 111.405 158.974 111.596 157.967 111.837C155.879 112.246 153.982 112.312 152.854 112.078C151.127 111.717 147.048 110.467 144.788 110.467C143.022 110.496 141.265 110.738 139.557 111.188C136.126 112.196 131.976 113.927 129.239 114.695C127.632 115.17 126.337 115.295 125.016 115.584C122.761 116.112 120.866 116.833 119.785 118.203C120.505 119.044 121.392 120.34 126.193 120.293C131.639 120.173 137.926 117.146 141.022 116.665C144.117 116.184 145.46 115.777 148.916 117.026C152.304 118.288 152.416 119.123 152.416 119.123C152.416 119.123 155.974 121.614 157.462 127.963C158.95 134.313 157.462 138.94 153.598 143.338C152.59 144.467 152.831 145.475 152.831 145.475C152.831 145.475 150.287 148.91 150.983 152.126C151.75 155.322 156.67 154.672 156.67 154.672L183.951 149.895V149.895H183.953Z" fill="#6E6342"/>
    <path fill-rule="evenodd" clip-rule="evenodd" d="M179.85 139.205C180.061 138.806 180.161 138.358 180.138 137.908C180.09 137.26 179.897 136.419 177.955 134.521C176.299 132.864 176.659 131.015 176.659 131.015C176.659 131.015 175.826 130.847 173.564 131.906C171.788 132.747 171.191 131.257 171.191 131.257C170.674 131.528 170.114 131.707 169.535 131.786C169.011 131.834 168.504 131.996 168.048 132.261C168.048 132.261 165.961 130.123 164.137 129.115C162.481 128.225 161.521 127.624 160.705 128.225C159.937 128.753 159.937 129.835 159.986 130.315C160.177 130.758 160.418 131.177 160.705 131.564C161.233 132.332 162.073 133.222 162.128 133.939C162.248 135.596 160.88 137.567 161.17 138.047C161.459 138.527 162.536 138.647 165.2 137.686C167.958 136.774 179.861 139.2 179.861 139.2V139.2L179.85 139.205Z" fill="#39331F"/>
    <path fill-rule="evenodd" clip-rule="evenodd" d="M173.564 128.467C173.564 128.467 174.931 129.764 174.451 136.058C173.871 136.067 173.292 136.01 172.724 135.89C172.724 135.89 171.979 131.013 173.564 128.467Z" fill="#292311"/>
    <path fill-rule="evenodd" clip-rule="evenodd" d="M183.304 154.699C183.114 154.841 182.937 155 182.776 155.174C183.251 154.286 185.441 150.731 183.665 145.133C181.889 139.561 177.427 135.406 171.932 135.213C166.437 135.02 163.549 137.712 160.246 141.746C158.951 143.355 157.462 145.374 156.143 146.742C154.175 148.882 152.64 149.482 152.64 151.547C152.64 155.775 156.959 157.673 163.318 159.57C169.676 161.467 175.412 161.233 178.387 159.934C181.289 158.519 182.537 157.029 183.306 154.698V154.698L183.304 154.699Z" fill="#252211"/>
    <path fill-rule="evenodd" clip-rule="evenodd" d="M162.886 126.57L162.411 126.811C162.411 126.811 162.293 128.711 161.524 128.66C160.757 128.54 160.396 127.53 160.469 127.17C160.516 126.811 160.708 126.209 161.477 126.282C162.484 126.258 162.891 126.57 162.891 126.57H162.886Z" fill="#3F3824"/>
    <path fill-rule="evenodd" clip-rule="evenodd" d="M165.021 134.641C165.021 134.641 164.546 134.809 163.966 134.232C163.491 134.232 161.423 134.473 160.774 134.064C160.126 133.656 159.934 133.296 159.934 133.296C159.934 133.296 162.357 132.768 163.678 133.296C165.021 133.752 165.021 134.641 165.021 134.641H165.021Z" fill="#2D2815"/>
    <path fill-rule="evenodd" clip-rule="evenodd" d="M154.343 134.281C154.343 134.402 155.639 135.29 157.007 135.58C157.247 135.627 157.296 135.46 157.481 135.46C157.602 135.507 157.649 135.868 157.649 135.868L158.427 135.458C158.427 135.458 158.548 135.29 158.139 134.983C157.78 134.695 157.179 134.454 157.012 133.974C156.844 133.494 156.844 133.327 156.771 133.254C156.724 133.206 155.884 133.254 155.476 133.494C155.068 133.735 154.299 134.128 154.348 134.286V134.286L154.343 134.281Z" fill="#82764F"/>
    <path fill-rule="evenodd" clip-rule="evenodd" d="M166.46 129.405C166.46 129.405 166.222 131.061 164.613 131.134C162.959 131.254 162.645 129.645 162.645 129.645L163.605 128.684C163.605 128.708 164.325 129.716 166.453 129.405H166.46Z" fill="#2D2816"/>
    <path fill-rule="evenodd" clip-rule="evenodd" d="M156.023 136.54C156.023 136.54 156.912 135.579 158.878 135.29C159.046 135.531 159.406 136.011 158.878 136.779C158.35 137.547 157.75 137.788 157.151 137.549C156.611 137.461 156.17 137.067 156.023 136.54Z" fill="#574F35"/>
    <path fill-rule="evenodd" clip-rule="evenodd" d="M152.341 132.858C152.284 133.303 152.477 133.391 152.341 133.613C152.204 133.835 151.458 134.277 151.32 134.057C151.266 133.967 151.32 133.613 151.32 133.18C151.32 132.747 151.32 132.303 151.458 131.984C151.651 131.539 152.201 131.317 152.477 131.449C152.753 131.58 152.807 132.203 152.807 132.326C152.671 132.414 152.341 132.636 152.341 132.858ZM147.638 137.649C147.638 137.871 147.169 138.316 146.893 138.316C146.481 138.316 146.481 137.784 146.425 137.649C146.289 137.561 146.289 137.74 146.151 137.339C146.013 136.938 145.818 136.231 145.958 135.786C146.098 135.341 146.646 135.034 146.783 135.122C146.975 135.344 147.581 137.339 147.638 137.649V137.649Z" fill="#82764F"/>
    <path fill-rule="evenodd" clip-rule="evenodd" d="M156.551 134.809C156.551 134.809 156.023 134.69 155.303 134.088C155.544 133.921 155.904 133.729 155.904 133.729C155.904 133.729 155.952 134.282 156.551 134.811V134.809Z" fill="#6E6342"/>
    <path fill-rule="evenodd" clip-rule="evenodd" d="M157.722 140.094C157.873 140.213 157.269 140.501 156.907 140.454C156.544 140.406 156.393 140.213 156 140.166C155.608 140.118 155.546 140.286 155.403 140.406C155.259 140.527 154.737 140.454 154.648 140.406C154.592 140.354 154.541 140.297 154.496 140.238C154.483 140.423 154.374 140.595 154.195 140.713C153.96 140.851 153.66 140.895 153.379 140.834C153.319 140.666 153.016 140.066 153.076 139.945C153.135 139.825 154.042 139.656 154.195 139.778C154.044 139.488 153.379 138.888 153.289 138.769C153.199 138.65 153.954 138.36 154.255 138.408C154.678 138.432 157.277 139.634 157.73 140.09L157.722 140.094ZM153.763 144.082C153.819 144.203 153.926 144.305 154.066 144.37C154.277 144.417 154.973 144.37 154.973 144.082C154.973 143.794 154.375 142.182 153.703 141.342C152.946 140.501 152.434 139.806 151.92 139.613C151.586 139.492 151.19 139.597 151.014 139.854C150.954 139.974 150.803 140.863 150.862 142.953C150.922 145.043 151.014 147.06 151.165 147.181C151.317 147.301 151.92 147.299 152.132 147.06C152.343 146.821 153.703 144.441 153.765 144.082V144.082H153.763Z" fill="#585136"/>
    <path fill-rule="evenodd" clip-rule="evenodd" d="M156.718 131.783C156.718 131.783 157.558 132.312 158.374 131.951C159.142 131.59 159.094 130.172 159.094 130.172C158.744 130.035 158.348 130.08 158.038 130.293C157.509 130.652 156.839 131.252 156.718 131.781V131.783Z" fill="#574F35"/>
    <path fill-rule="evenodd" clip-rule="evenodd" d="M155.135 129.884C155.183 130.359 155.61 130.359 155.61 130.604C155.549 130.846 155.332 131.015 155.083 131.013C154.843 131.013 154.609 130.725 154.314 130.538C154.027 130.37 153.595 130.063 153.547 129.697C153.5 129.331 154.022 128.329 154.602 128.329C155.183 128.329 155.01 129.411 155.131 129.89L155.135 129.884ZM150.504 130.533C150.504 130.533 151.464 130.245 151.393 130.533C151.322 130.822 151.104 130.893 150.792 130.893C150.634 131.059 150.421 131.162 150.193 131.183C150.062 131.189 149.934 131.146 149.833 131.062C149.833 131.062 149.185 131.35 148.994 131.183C148.802 131.015 148.945 131.015 148.826 130.822C148.675 130.607 148.576 130.36 148.536 130.101C148.536 129.909 149.256 129.501 149.833 129.572C150.504 129.716 150.385 130.413 150.504 130.533V130.533ZM144.914 131.615C144.914 131.615 144.627 131.447 144.865 131.254C145.033 131.086 145.873 130.779 146.594 130.725C147.314 130.725 147.961 130.606 147.961 130.846C147.961 131.085 147.361 131.566 147.002 131.686C146.856 131.869 146.635 131.975 146.401 131.975C146.113 131.975 144.987 132.095 144.674 132.142C144.386 132.192 144.146 132.024 144.315 131.783C144.386 131.615 144.914 131.615 144.914 131.615V131.615ZM143.258 139.032C143.258 139.032 143.619 138.264 144.025 138.264C144.433 138.312 144.433 138.432 144.433 138.552C144.433 138.72 144.025 139.152 144.074 139.273C144.193 139.273 144.482 139.273 144.433 139.561C144.433 139.802 144.025 140.09 143.666 140.036C143.395 140.259 143.057 140.386 142.706 140.396C142.298 140.396 141.939 140.277 141.939 140.036C141.939 139.795 142.413 139.268 142.587 139.146C142.779 138.955 143.019 138.829 143.258 139.027V139.032ZM148.729 124.836C148.729 124.836 149.204 124.787 149.204 124.548C149.204 124.427 149.085 124.427 148.916 124.499C148.819 124.504 148.722 124.521 148.628 124.548C148.581 124.499 148.581 124.26 148.22 124.26C147.924 124.3 147.639 124.398 147.38 124.548C147.092 124.667 146.852 124.789 146.852 125.023C146.972 125.431 147.213 125.625 147.572 125.625C147.756 125.636 147.939 125.595 148.1 125.504C148.1 125.504 148.22 125.745 148.628 125.504C149.036 125.264 148.989 125.264 148.869 125.143C148.654 124.952 148.725 124.827 148.725 124.827L148.729 124.836ZM151.44 122.337C151.44 122.457 150.841 122.698 150.673 122.625C150.506 122.578 150.026 121.666 150.026 121.569C150.026 121.449 150.626 121.16 150.866 121.16C151.107 121.16 151.513 121.569 151.513 121.636C151.513 121.683 151.225 121.754 151.225 121.803C151.154 121.922 151.44 122.212 151.44 122.332V122.337ZM153.339 125.845C153.218 125.892 153.218 126.013 153.051 126.133C152.944 126.204 152.811 126.221 152.69 126.181C152.604 126.334 152.455 126.44 152.282 126.47C151.994 126.518 151.754 126.47 151.807 126.35C151.807 125.989 151.567 125.75 151.567 125.462C151.567 125.173 151.735 124.812 152.334 124.572C152.934 124.404 153.75 124.404 153.87 124.451C153.99 124.499 154.11 124.98 153.99 125.221C153.87 125.462 153.535 125.724 153.342 125.845V125.845H153.339Z" fill="#82764F"/>
    <path fill-rule="evenodd" clip-rule="evenodd" d="M152.508 125.682C152.508 125.682 152.976 125.441 152.976 125.321C153.017 125.204 153.035 125.083 153.03 124.961C153.03 124.89 152.425 125.009 152.344 125.081C152.317 125.129 152.508 125.557 152.508 125.682Z" fill="#6E6342"/>
    <path fill-rule="evenodd" clip-rule="evenodd" d="M156.143 126.81C155.904 126.761 155.496 126.81 155.185 126.69C154.944 126.57 154.776 126.329 155.017 126.041C155.257 125.753 155.491 125.32 156.024 125.393C156.624 125.441 157.2 125.753 157.2 125.993C157.22 126.301 157.116 126.604 156.912 126.834C156.671 127.026 156.553 126.905 156.145 126.81V126.81H156.143Z" fill="#585136"/>
    <path fill-rule="evenodd" clip-rule="evenodd" d="M156.431 126.57C156.431 126.57 157.198 125.97 157.391 125.68C157.631 125.392 158.806 123.903 159.166 123.591C159.046 123.802 158.91 124.003 158.759 124.191C159.234 123.888 159.589 123.43 159.767 122.895C160.054 122.005 158.158 121.525 156.912 121.164C155.665 120.803 155.183 120.689 155.183 120.689C155.642 121.379 156.036 122.111 156.36 122.874C156.834 124.003 157.079 124.123 156.768 124.652C156.527 125.181 156.167 125.541 156.167 125.949C156.311 126.329 156.431 126.57 156.431 126.57Z" fill="#574F35"/>
    <path fill-rule="evenodd" clip-rule="evenodd" d="M183.785 124.671C183.611 124.639 183.432 124.639 183.257 124.671C182.898 124.72 179.154 126.096 175.242 125.849C172.314 125.672 169.412 125.195 166.581 124.424C161.662 123.127 155.544 120.557 151.584 119.091C150.529 118.684 149.497 117.962 148.737 117.675C145.713 116.497 145.595 116.497 143.818 116.185C141.73 115.897 139.595 116.594 137.363 117.073C134.628 117.675 129.95 117.963 125.847 118.564C124.52 118.748 123.211 119.045 121.935 119.452C121.935 119.452 125.198 116.185 133.021 115.009C136.184 114.528 139.397 114.487 142.57 114.888C145.066 115.129 146.721 115.49 147.969 115.849C149.384 116.258 152.288 117.34 155.863 118.225C158.359 118.874 161.143 119.354 164.333 119.954C172.204 121.396 180.745 123.053 183.788 124.662L183.785 124.671Z" fill="#252211"/>
    <path fill-rule="evenodd" clip-rule="evenodd" d="M192.616 139.517C194.514 137.908 196.528 136.37 198.494 134.882L204.42 130.323C206.436 128.834 208.403 127.297 210.42 125.807C212.437 124.317 214.45 122.901 216.589 121.531C214.691 123.14 212.677 124.63 210.662 126.095C208.647 127.56 206.557 128.996 204.613 130.481L198.687 135.046C196.648 136.535 194.68 138.072 192.616 139.513V139.517ZM203.101 122.701C203.101 122.701 200.966 124.48 198.302 126.977C194.992 130.074 190.936 134.039 189.641 134.758L203.103 122.7L203.101 122.701Z" fill="#CFB66C"/>
    <path fill-rule="evenodd" clip-rule="evenodd" d="M203.101 122.703C202.044 123.759 200.916 124.792 199.789 125.802L198.061 127.29C197.533 127.766 196.932 128.299 196.405 128.828C195.35 129.884 194.318 131.015 193.263 132.095C192.74 132.638 192.187 133.151 191.606 133.632C191.316 133.889 190.994 134.108 190.648 134.282C190.358 134.45 190.047 134.757 189.64 134.811C189.879 134.45 190.167 134.282 190.408 133.97C190.695 133.729 190.936 133.441 191.175 133.202C191.703 132.673 192.302 132.193 192.831 131.712C193.958 130.75 195.134 129.811 196.261 128.806C197.389 127.8 198.444 126.716 199.574 125.707C200.796 124.673 201.924 123.664 203.101 122.698V122.703ZM188.752 132.312C188.752 132.312 196.573 124.648 198.182 123.4L188.752 132.312Z" fill="#CFB66C"/>
    <path fill-rule="evenodd" clip-rule="evenodd" d="M188.751 132.312C189.455 131.497 190.209 130.727 191.01 130.006L193.383 127.748C194.15 126.98 194.871 126.211 195.686 125.443C196.526 124.722 197.293 124.018 198.182 123.353L195.879 125.611C195.11 126.379 194.27 127.026 193.454 127.796L191.151 130.054C190.36 130.846 189.591 131.615 188.751 132.312V132.312ZM188.392 128.157C189.113 126.142 189.963 124.176 190.936 122.271C192.951 118.234 195.973 113.191 197.294 110.619L188.392 128.157Z" fill="#CFB66C"/>
    <path fill-rule="evenodd" clip-rule="evenodd" d="M188.393 128.155C188.393 127.266 188.633 126.497 188.921 125.729C189.201 124.96 189.521 124.207 189.879 123.471C190.24 122.75 190.648 121.981 191.056 121.284C191.464 120.587 191.944 119.868 192.304 119.146L194.727 114.871C195.567 113.446 196.383 112.013 197.271 110.643C196.671 112.18 195.855 113.621 195.086 115.039C194.247 116.464 193.479 117.889 192.714 119.363C192.34 120.098 192.004 120.851 191.706 121.62C191.347 122.389 190.988 123.11 190.699 123.806C190.34 124.574 190.052 125.297 189.691 125.992C189.285 126.738 188.948 127.458 188.396 128.155L188.393 128.155Z" fill="#CFB66C"/>
    <path fill-rule="evenodd" clip-rule="evenodd" d="M179.85 108.458C179.85 108.458 182.223 105.312 181.985 101.324C181.338 103.413 180.522 106.608 179.85 108.458ZM177.594 105.303C177.594 105.303 178.434 96.7526 179.13 92.5484C178.146 97.4081 177.955 96.9996 177.594 105.303ZM161.878 92.043C161.878 92.043 165.429 81.5919 165.502 78.6878C164.733 81.6742 163.247 87.7755 161.878 92.0509V92.043Z" fill="#DEC270"/>
    <path fill-rule="evenodd" clip-rule="evenodd" d="M153.576 109.104C153.576 109.104 147.817 99.5919 143.497 91.4733C144.666 95.5587 147.355 103.052 153.576 109.104Z" fill="#CBAF59"/>
    <path fill-rule="evenodd" clip-rule="evenodd" d="M138.099 95.1006C134.937 89.505 132.085 83.7392 129.558 77.8293C130.037 81.9132 131.334 88.9028 138.099 95.1006Z" fill="#E3C677"/>
    <path fill-rule="evenodd" clip-rule="evenodd" d="M92.6054 81.0758C91.6469 81.676 89.7504 84.9443 88.0943 85.7598C86.4399 86.6007 85.1919 86.7685 83.7035 88.4265C82.2167 90.1572 81.8054 91.2134 78.5455 92.5816C73.9854 94.553 77.1219 97.0993 77.1219 97.0993C76.6196 97.5932 76.0826 98.0505 75.5149 98.4675C74.3381 99.3558 72.9715 100.437 73.0901 102.336C73.2578 105.53 73.8573 110.166 76.4734 112.857C73.93 113.386 69.0599 113.745 66.0341 114.513C62.5322 115.403 60.9235 116.652 60.9235 116.652C60.9235 116.652 62.9387 120.087 59.6756 123.545C56.4125 127.004 53.7489 129.07 51.7812 132.939C54.0367 133.227 57.4754 134.427 66.2508 131.089C65.7771 130.866 65.3198 130.609 64.8826 130.321C64.8826 130.321 70.281 128.831 72.2487 127.173C75.681 124.267 76.1128 121.889 79.8314 120.111C83.5501 118.333 87.294 118.814 90.3878 117.373C93.4817 115.932 93.9388 114.706 95.0682 114.177C94.8277 113.889 95.1156 113.409 94.6601 113.001C94.9479 112.592 96.6277 109.854 98.3312 109.854C98.1636 109.205 96.7242 108.725 96.7242 108.725C96.7242 108.725 97.7792 107.956 100.467 107.764C99.1 106.339 97.803 104.786 94.2283 102.528C94.5161 101.927 95.7167 101.037 95.2358 99.9084C94.7075 98.7794 93.3378 97.2418 87.8697 95.9924C90.6536 95.8737 93.9151 95.2244 98.3091 95.8246C102.7 96.3535 103.42 96.6654 106.131 95.9924C105.843 95.7042 105.076 95.7042 104.403 94.9362C105.123 94.8887 109.634 95.4651 111.17 93.4462C112.777 91.3575 113.473 87.9213 113.353 85.6157C114.193 85.2072 115.009 84.4867 114.601 82.9966C114.193 81.5066 112.057 81.0267 110.689 80.0909C109.323 79.0822 109.202 78.7228 107.905 78.9619C106.539 79.2501 104.524 80.6182 103.347 80.6182C102.17 80.6182 101.332 79.7299 101.332 79.7299C101.332 79.7299 98.1399 81.2674 97.8283 80.9792C97.5404 80.691 97.7808 78.8415 97.4692 78.5533C97.1529 78.3364 93.5576 80.4741 92.5975 81.0758H92.6054Z" fill="#ECD592"/>
  </g>
</svg>
