<svg width="316" height="316" viewBox="0 0 316 316" fill="none" xmlns="http://www.w3.org/2000/svg">
  <g opacity="0.2" transform="translate(-45, -65) scale(.9)">
    <path d="M87.2791 55.5672C93.2798 48.781 98.7484 42.9892 103.973 38.1395C15.6724 35.2959 41.3758 99.1279 12.6023 163.998C-20.5322 238.707 16.5009 267.178 71.6844 276.048C64.0353 267.021 57.7904 256.693 53.0369 245.546C17.2597 200.502 31.6596 118.44 87.2791 55.5672" fill="#B3D234"/>
    <path d="M299.751 135.148C291.535 158.29 276.455 184.257 255.139 209.814C238.524 229.728 220.051 245.411 200.985 256.768C178.944 271.047 151.601 279.473 121.031 279.473C103.919 279.473 87.0942 278.522 71.6826 276.045C80.7883 286.782 91.8564 295.697 104.73 301.916C184.561 340.522 189.603 268.805 274.065 232.414C321.495 211.977 321.669 172.028 299.751 135.148" fill="#0095D9"/>
    <path d="M200.958 60.5163C212.732 62.6621 223.905 66.5349 233.909 72.1872C260.72 87.3558 285.141 110.567 299.751 135.147C314.133 94.6391 307.435 62.7929 275.966 57.0273C241.384 50.7034 214.346 48.671 188.363 30.528C156.363 8.18069 128.313 15.5513 103.97 38.1428C105.688 38.1952 107.442 38.2737 109.247 38.3783C143.018 40.3671 175.246 46.9439 200.958 60.5163" fill="#EEE809"/>
    <path d="M87.2791 55.5669C31.6596 118.439 17.2598 200.502 53.037 245.545C36.9713 207.837 38.0877 160.805 60.7297 123.254C90.8725 73.2564 151.333 51.4586 200.96 60.5214C175.248 46.9403 143.021 40.3721 109.258 38.3747C107.444 38.27 105.691 38.2002 103.973 38.1392C98.7484 42.9889 93.2798 48.7807 87.2791 55.5669" fill="#51B849"/>
    <path d="M233.907 72.1909C223.903 66.5299 212.731 62.6658 200.956 60.52C234.814 78.3926 257.343 108.425 257.09 156.259C256.863 197.761 235.425 234.44 200.982 256.77C220.048 245.413 238.53 229.73 255.136 209.816C276.461 184.259 291.533 158.292 299.749 135.151C285.14 110.57 260.718 87.3508 233.907 72.1909" fill="#00845D"/>
    <path fill-rule="evenodd" clip-rule="evenodd" d="M60.7299 123.25C90.8727 73.2519 151.333 51.4629 200.96 60.5169C234.81 78.3895 257.347 108.421 257.086 156.256C256.868 197.758 235.429 234.446 200.978 256.767C178.946 271.046 151.603 279.472 121.024 279.472C103.921 279.472 87.0962 278.53 71.6846 276.052C64.0268 267.025 57.7906 256.688 53.0372 245.541C36.9627 207.842 38.0879 160.801 60.7299 123.25ZM81.5316 209.551C106.188 247.634 157.159 258.59 195.387 234.027C233.606 209.464 238.822 161.821 219.948 120.581C200.594 78.2848 147.495 66.6751 106.092 96.1051C69.068 122.43 56.8748 171.468 81.5316 209.551Z" fill="#005121"/>
  </g>
</svg>
