<svg width="237" height="224" viewBox="0 0 237 224" fill="none" xmlns="http://www.w3.org/2000/svg">
  <g opacity="0.15" transform="translate(-40, -25)">
    <path d="M87.1111 219.067C87.1111 222.729 84.2074 224.805 80.8198 223.706C33.8765 208.568 0 164.374 0 112C0 59.7485 33.8765 15.4324 80.8198 0.294066C84.3284 -0.804681 87.1111 1.27073 87.1111 4.93322V14.0894C87.1111 16.5311 85.2963 19.339 82.9975 20.1936C45.8543 33.989 19.358 70.0035 19.358 112C19.358 154.119 45.8543 190.011 82.9975 203.684C85.2963 204.539 87.1111 207.347 87.1111 209.788V219.067Z" fill="white"/>
    <path d="M128.665 188.028C128.665 190.702 126.473 192.889 123.795 192.889H114.056C111.378 192.889 109.187 190.702 109.187 188.028V172.715C87.8823 169.799 77.5345 158.011 74.7345 141.726C74.2476 138.931 76.4389 136.5 79.2389 136.5H90.3171C92.6301 136.5 94.5779 138.202 95.0649 140.389C97.1344 149.99 102.734 157.403 119.778 157.403C132.317 157.403 141.326 150.354 141.326 139.903C141.326 129.452 136.091 125.441 117.587 122.403C90.3171 118.757 77.4128 110.493 77.4128 89.2259C77.4128 72.8196 89.9519 59.9377 109.187 57.2641V42.1946C109.187 39.521 111.378 37.3335 114.056 37.3335H123.795C126.473 37.3335 128.665 39.521 128.665 42.1946V57.6286C144.369 60.4238 154.352 69.2953 157.639 84.1217C158.247 86.9168 156.056 89.4689 153.134 89.4689H142.908C140.717 89.4689 138.891 88.0106 138.282 85.9446C135.482 76.587 128.786 72.455 117.1 72.455C104.195 72.455 97.4997 78.6529 97.4997 87.4029C97.4997 96.6391 101.274 101.257 121.117 104.052C147.899 107.698 161.778 115.354 161.778 138.08C161.778 155.337 148.873 169.313 128.786 172.472V188.028H128.665Z" fill="white"/>
    <path d="M155.625 223.706C152.116 224.806 149.333 222.728 149.333 219.061V209.895C149.333 207.206 150.906 204.64 153.447 203.784C190.469 190.096 217.087 154.042 217.087 112C217.087 69.8354 190.59 33.9038 153.447 20.2156C151.148 19.3601 149.333 16.5491 149.333 14.1048V4.9386C149.333 1.27212 152.237 -0.805559 155.625 0.294386C202.568 15.2048 236.445 59.5693 236.445 111.878C236.445 164.309 202.568 208.551 155.625 223.706Z" fill="white"/>
  </g>
</svg>
